<?xml version="1.0" encoding="UTF-8"?>
<svg width="160px" height="70px" viewBox="0 0 160 70" version="1.1" xmlns="http://www.w3.org/2000/svg" xmlns:xlink="http://www.w3.org/1999/xlink">
    <!-- Generator: Sketch 47.1 (45422) - http://www.bohemiancoding.com/sketch -->
    <title>angular</title>
    <desc>Created with Sketch.</desc>
    <defs></defs>
    <g id="technologies" stroke="none" stroke-width="1" fill="none" fill-rule="evenodd">
        <g id="Javascript-frameworks" transform="translate(-416.000000, -42.000000)">
            <g id="angular" transform="translate(416.000000, 42.000000)">
                <rect id="Rectangle-Copy-3" fill="#FFFFFF" x="0" y="0" width="160" height="70"></rect>
                <g transform="translate(23.000000, 20.000000)" fill-rule="nonzero">
                    <g id="Group" transform="translate(33.000000, 7.000000)" fill="#B52E31">
                        <path d="M0.134254144,15.7369863 L0.134254144,1.92876712 L1.94668508,1.92876712 L10.561326,13.0410959 L10.561326,1.92876712 L12.2842541,1.92876712 L12.2842541,15.7369863 L10.4718232,15.7369863 L1.85718232,4.51506849 L1.85718232,15.7369863 L0.134254144,15.7369863 Z M26.3138122,15.1890411 C25.1726519,15.6054795 23.941989,15.8246575 22.6441989,15.8246575 C17.5425414,15.8246575 14.9917127,13.4356164 14.9917127,8.63561644 C14.9917127,4.09863014 17.4530387,1.81917808 22.3756906,1.81917808 C23.7853591,1.81917808 25.1055249,2.01643836 26.3138122,2.3890411 L26.3138122,3.92328767 C25.1055249,3.4630137 23.8524862,3.24383562 22.5770718,3.24383562 C18.728453,3.24383562 16.8041436,5.04109589 16.8041436,8.59178082 C16.8041436,12.4273973 18.7060773,14.3342466 22.4875691,14.3342466 C23.0917127,14.3342466 23.7629834,14.2465753 24.5013812,14.0931507 L24.5013812,9.46849315 L26.3138122,9.46849315 L26.3138122,15.1890411 L26.3138122,15.1890411 Z M29.2226519,10.4109589 L29.2226519,1.92876712 L31.0350829,1.92876712 L31.0350829,10.4109589 C31.0350829,13.0630137 32.3776243,14.4 35.0850829,14.4 C37.7701657,14.4 39.1350829,13.0630137 39.1350829,10.4109589 L39.1350829,1.92876712 L40.9475138,1.92876712 L40.9475138,10.4109589 C40.9475138,14.0273973 39.0008287,15.8465753 35.0850829,15.8465753 C31.169337,15.8465753 29.2226519,14.0273973 29.2226519,10.4109589 L29.2226519,10.4109589 Z M46.0044199,1.92876712 L46.0044199,14.290411 L53.3883978,14.290411 L53.3883978,15.7369863 L44.191989,15.7369863 L44.191989,1.92876712 L46.0044199,1.92876712 L46.0044199,1.92876712 Z M56.0063536,15.7369863 L54.1044199,15.7369863 L61.108011,0.109589041 L68.1116022,15.7369863 L66.0977901,15.7369863 L64.2853591,11.3972603 L59.6312155,11.3972603 L60.1234807,9.95068493 L63.6812155,9.95068493 L61.040884,3.70410959 L56.0063536,15.7369863 L56.0063536,15.7369863 Z M70.0582873,15.7369863 L70.0582873,1.92876712 L76.0773481,1.92876712 C78.7624309,1.92876712 80.1049724,3.02465753 80.1049724,5.23835616 C80.1049724,7.03561644 78.7848066,8.37260274 76.1668508,9.22739726 L81,15.7369863 L78.6058011,15.7369863 L74.130663,9.53424658 L74.130663,8.37260274 C76.8157459,7.95616438 78.180663,6.94794521 78.180663,5.3260274 C78.180663,4.05479452 77.4422652,3.41917808 75.9430939,3.41917808 L71.9154696,3.41917808 L71.9154696,15.7369863 L70.0582873,15.7369863 L70.0582873,15.7369863 Z" id="Shape"></path>
                    </g>
                    <polygon id="Shape" fill="#E23237" points="0 5.14430014 14.3114002 0 29 5.05483405 26.6258607 24.1334776 14.3114002 31 2.19663351 24.2229437"></polygon>
                    <polygon id="Shape" fill="#B52E31" points="29 5.05483405 14 0 14 31 26.5755287 24.1334776"></polygon>
                    <path d="M13.8136419,4 L5,23.9553571 L8.28867235,23.8883929 L10.0645554,19.3794643 L17.9354446,19.3794643 L19.864799,23.9330357 L23,24 L13.8136419,4 Z M13.8355664,10.40625 L16.817296,16.7455357 L11.226553,16.7455357 L13.8355664,10.40625 L13.8355664,10.40625 Z" id="Shape" fill="#FFFFFF"></path>
                </g>
            </g>
        </g>
    </g>
</svg>