<?xml version="1.0" encoding="UTF-8"?>
<svg width="160px" height="70px" viewBox="0 0 160 70" version="1.1" xmlns="http://www.w3.org/2000/svg" xmlns:xlink="http://www.w3.org/1999/xlink">
    <!-- Generator: Sketch 47.1 (45422) - http://www.bohemiancoding.com/sketch -->
    <title>apache</title>
    <desc>Created with Sketch.</desc>
    <defs>
        <linearGradient x1="16.0706045%" y1="64.1650616%" x2="157.014305%" y2="19.9443309%" id="linearGradient-1">
            <stop stop-color="#F59824" offset="0%"></stop>
            <stop stop-color="#F69924" offset="31.2%"></stop>
            <stop stop-color="#E87926" offset="83.8%"></stop>
        </linearGradient>
        <linearGradient x1="-212.127907%" y1="391.950355%" x2="76.744186%" y2="14.0992908%" id="linearGradient-2">
            <stop stop-color="#9E2064" offset="32.3%"></stop>
            <stop stop-color="#C82038" offset="63%"></stop>
            <stop stop-color="#CC2135" offset="75.1%"></stop>
            <stop stop-color="#E87926" offset="100%"></stop>
        </linearGradient>
        <linearGradient x1="-19.6568627%" y1="194%" x2="125.480392%" y2="-136.666667%" id="linearGradient-3">
            <stop stop-color="#282661" offset="0%"></stop>
            <stop stop-color="#662F8B" offset="9.5%"></stop>
            <stop stop-color="#9E2064" offset="78.8%"></stop>
            <stop stop-color="#CC2032" offset="94.9%"></stop>
        </linearGradient>
        <linearGradient x1="-79.5%" y1="170.725806%" x2="146.345455%" y2="-44.0967742%" id="linearGradient-4">
            <stop stop-color="#9E2064" offset="32.3%"></stop>
            <stop stop-color="#C82038" offset="63%"></stop>
            <stop stop-color="#CC2135" offset="75.1%"></stop>
            <stop stop-color="#E87926" offset="100%"></stop>
        </linearGradient>
        <linearGradient x1="-18.4788732%" y1="77.412766%" x2="165.408451%" y2="-41.7319149%" id="linearGradient-5">
            <stop stop-color="#282661" offset="0%"></stop>
            <stop stop-color="#662F8B" offset="9.5%"></stop>
            <stop stop-color="#9E2064" offset="78.8%"></stop>
            <stop stop-color="#CC2032" offset="94.9%"></stop>
        </linearGradient>
        <linearGradient x1="-66.1560694%" y1="175.288889%" x2="77.4450867%" y2="-61.4933333%" id="linearGradient-6">
            <stop stop-color="#9E2064" offset="32.3%"></stop>
            <stop stop-color="#C82038" offset="63%"></stop>
            <stop stop-color="#CC2135" offset="75.1%"></stop>
            <stop stop-color="#E87926" offset="100%"></stop>
        </linearGradient>
        <linearGradient x1="-130.531746%" y1="463.781513%" x2="66.6269841%" y2="16.0504202%" id="linearGradient-7">
            <stop stop-color="#9E2064" offset="32.3%"></stop>
            <stop stop-color="#C82038" offset="63%"></stop>
            <stop stop-color="#CC2135" offset="75.1%"></stop>
            <stop stop-color="#E87926" offset="100%"></stop>
        </linearGradient>
        <linearGradient x1="-0.769%" y1="11.308%" x2="4.1996%" y2="0.6528%" id="linearGradient-8">
            <stop stop-color="#9E2064" offset="32.3%"></stop>
            <stop stop-color="#C82038" offset="63%"></stop>
            <stop stop-color="#CC2135" offset="75.1%"></stop>
            <stop stop-color="#E87926" offset="100%"></stop>
        </linearGradient>
        <linearGradient x1="-2244.5%" y1="2974%" x2="239.8%" y2="-2353.6%" id="linearGradient-9">
            <stop stop-color="#9E2064" offset="32.3%"></stop>
            <stop stop-color="#C82038" offset="63%"></stop>
            <stop stop-color="#CC2135" offset="75.1%"></stop>
            <stop stop-color="#E87926" offset="100%"></stop>
        </linearGradient>
        <linearGradient x1="-2364.5%" y1="3258.44444%" x2="119.8%" y2="-2069.15556%" id="linearGradient-10">
            <stop stop-color="#9E2064" offset="32.3%"></stop>
            <stop stop-color="#C82038" offset="63%"></stop>
            <stop stop-color="#CC2135" offset="75.1%"></stop>
            <stop stop-color="#E87926" offset="100%"></stop>
        </linearGradient>
    </defs>
    <g id="technologies" stroke="none" stroke-width="1" fill="none" fill-rule="evenodd">
        <g id="Web-Servers" transform="translate(-32.000000, -42.000000)">
            <g id="apache" transform="translate(32.000000, 42.000000)">
                <rect id="Rectangle-Copy" fill="#FFFFFF" x="0" y="0" width="160" height="70"></rect>
                <g transform="translate(30.000000, 14.000000)" fill-rule="nonzero">
                    <g id="Group" transform="translate(22.000000, 13.000000)" fill="#D12229">
                        <path d="M0.577777778,14.5714286 L6.64444444,0.214285714 L7.8,0.214285714 L13.8666667,14.5714286 L12.35,14.5714286 L10.4722222,10.0714286 L3.97222222,10.0714286 L2.09444444,14.5714286 L0.577777778,14.5714286 M7.22222222,1.85714286 L4.26111111,9 L10.1833333,9 L7.22222222,1.85714286" id="Shape"></path>
                        <path d="M15.4555556,14.5714286 L15.4555556,0.214285714 L21.45,0.214285714 C23.9777778,0.214285714 25.7833333,2.5 25.7833333,4.71428571 C25.7833333,7.07142857 24.1222222,9.28571429 21.5944444,9.28571429 L16.8277778,9.28571429 L16.8277778,14.5714286 L15.4555556,14.5714286 M16.9,8 L21.5222222,8 C23.2555556,8 24.3388889,6.42857143 24.3388889,4.71428571 C24.3388889,2.92857143 22.9666667,1.42857143 21.3777778,1.42857143 L16.8277778,1.42857143 L16.9,8" id="Shape"></path>
                        <path d="M24.9888889,14.5714286 L31.0555556,0.214285714 L32.2111111,0.214285714 L38.2777778,14.5714286 L36.7611111,14.5714286 L34.8833333,10.0714286 L28.3833333,10.0714286 L26.5055556,14.5714286 L24.9888889,14.5714286 M31.7055556,1.85714286 L28.7444444,9 L34.6666667,9 L31.7055556,1.85714286" id="Shape"></path>
                        <path d="M45.2111111,0.0714285714 C47.8111111,0.0714285714 49.6888889,1.35714286 50.5555556,3.21428571 L49.4,3.92857143 C48.4611111,2 46.6555556,1.35714286 45.0666667,1.35714286 C41.6,1.35714286 39.65,4.42857143 39.65,7.35714286 C39.65,10.5714286 42.0333333,13.4285714 45.0666667,13.4285714 C46.7277778,13.4285714 48.6055556,12.6428571 49.5444444,10.7857143 L50.7,11.3571429 C49.7611111,13.5 47.1611111,14.7142857 44.9222222,14.7142857 C40.95,14.7142857 38.1333333,10.9285714 38.1333333,7.28571429 C38.2777778,3.78571429 40.8055556,0.0714285714 45.2111111,0.0714285714" id="Shape"></path>
                        <polyline id="Shape" points="64.35 0.214285714 64.35 14.5714286 62.9055556 14.5714286 62.9055556 7.85714286 54.3111111 7.85714286 54.3111111 14.5714286 52.8666667 14.5714286 52.8666667 0.214285714 54.3111111 0.214285714 54.3111111 6.64285714 62.9055556 6.64285714 62.9055556 0.214285714 64.35 0.214285714"></polyline>
                        <polyline id="Shape" points="77.4222222 13.2857143 77.4222222 14.5714286 67.6722222 14.5714286 67.6722222 0.214285714 77.2777778 0.214285714 77.2777778 1.42857143 69.1166667 1.42857143 69.1166667 6.64285714 76.2666667 6.64285714 76.2666667 7.85714286 69.1166667 7.85714286 69.1166667 13.3571429 77.4222222 13.2857143"></polyline>
                    </g>
                    <path d="M17.907245,0.182075868 C17.284264,0.507611282 16.2459622,1.54932461 15,2.98168043 L16.176742,5 C17.0073835,3.89317959 17.8380249,2.91657335 18.6686664,2.07018127 C18.7378865,2.00507419 18.7378865,1.93996711 18.7378865,1.93996711 C18.7378865,1.93996711 18.6686664,2.00507419 18.6686664,2.07018127 C18.3917859,2.3306096 17.5611444,3.24210876 16.3844024,5 C17.5611444,4.93489292 19.3608676,4.73957167 20.8837102,4.47914334 C21.2990309,2.13528835 20.4683895,1.09357503 20.4683895,1.09357503 C20.4683895,1.09357503 19.2224273,-0.534102044 17.907245,0.182075868" id="Shape" fill="url(#linearGradient-1)"></path>
                    <g id="Group" transform="translate(13.000000, 17.000000)" fill="#BD212F">
                        <path d="M0.8,2.96 C0.666666667,2.96 0.533333333,3.04 0.333333333,3.04 C0.4,3.04 0.466666667,3.04 0.533333333,2.96 C0.666666667,2.96 0.733333333,2.96 0.8,2.96" id="Shape"></path>
                        <path d="M0.8,2.96 C0.666666667,2.96 0.533333333,3.04 0.333333333,3.04 C0.4,3.04 0.466666667,3.04 0.533333333,2.96 C0.666666667,2.96 0.733333333,2.96 0.8,2.96" id="Shape" opacity="0.35"></path>
                        <path d="M1.2,0.8 C1.2,0.8 1.2,0.8 1.2,0.8 L1.26666667,0.8 C1.33333333,0.8 1.46666667,0.8 1.53333333,0.72 C1.4,0.72 1.33333333,0.72 1.2,0.8" id="Shape"></path>
                        <path d="M1.2,0.8 C1.2,0.8 1.2,0.8 1.2,0.8 L1.26666667,0.8 C1.33333333,0.8 1.46666667,0.8 1.53333333,0.72 C1.4,0.72 1.33333333,0.72 1.2,0.8" id="Shape" opacity="0.35"></path>
                    </g>
                    <path d="M12.6511628,12.0141844 C13,11.3758865 13.3488372,10.6666667 13.6976744,10.0283688 C14.0465116,9.39007092 14.4651163,8.75177305 14.8139535,8.11347518 C14.8139535,8.04255319 14.8837209,8.04255319 14.8837209,7.97163121 C15.2325581,7.33333333 15.6511628,6.76595745 16,6.19858156 L14.8139535,4 C14.744186,4.14184397 14.6046512,4.21276596 14.5348837,4.35460993 C14.1860465,4.78014184 13.8372093,5.20567376 13.4883721,5.70212766 C13.0697674,6.26950355 12.6511628,6.83687943 12.2325581,7.4751773 C11.8139535,8.04255319 11.4651163,8.60992908 11.0465116,9.24822695 C10.6976744,9.74468085 10.3488372,10.3120567 10.0697674,10.8794326 C10.0697674,10.8794326 10.0697674,10.9503546 10,10.9503546 L11.5348837,14 C12.0232558,13.2907801 12.372093,12.6524823 12.6511628,12.0141844" id="Shape" fill="url(#linearGradient-2)"></path>
                    <path d="M5.23529412,29.0416667 C5.02941176,29.625 4.82352941,30.2083333 4.61764706,30.7916667 C4.61764706,30.8645833 4.54901961,30.9375 4.54901961,31.0104167 C4.41176471,31.4479167 4.2745098,31.8125 4,32.6145833 C4.41176471,32.8333333 4.82352941,33.4166667 5.09803922,34 C5.02941176,33.34375 4.82352941,32.7604167 4.34313725,32.25 C6.53921569,32.3229167 8.39215686,31.7395833 9.35294118,30.0625 C9.42156863,29.9166667 9.49019608,29.7708333 9.55882353,29.625 C9.14705882,30.2083333 8.59803922,30.5 7.56862745,30.4270833 C9.07843137,29.6979167 9.83333333,29.0416667 10.5196078,27.875 C10.6568627,27.5833333 10.8627451,27.2916667 11,27 C9.69607843,28.4583333 8.18627451,28.8229167 6.53921569,28.53125 L5.30392157,28.6770833 C5.37254902,28.8229167 5.30392157,28.8958333 5.23529412,29.0416667" id="Shape" fill="url(#linearGradient-3)"></path>
                    <path d="M6.47272727,26.8951613 C6.76363636,26.1693548 7.05454545,25.4435484 7.34545455,24.7177419 C7.63636364,23.9919355 7.92727273,23.3387097 8.21818182,22.6129032 C8.50909091,21.8870968 8.8,21.233871 9.09090909,20.5080645 C9.38181818,19.7822581 9.74545455,19.0564516 10.0363636,18.3306452 C10.3272727,17.6048387 10.6909091,16.9516129 10.9818182,16.2258065 C11.1272727,16.0080645 11.2,15.7177419 11.3454545,15.5 C11.5636364,15.0645161 11.7818182,14.6290323 12,14.1935484 C12,14.1935484 12,14.1209677 12,14.1209677 L10.4,11 C10.4,11.0725806 10.3272727,11.0725806 10.3272727,11.1451613 C9.96363636,11.7258065 9.6,12.3790323 9.23636364,12.9596774 C8.87272727,13.6129032 8.50909091,14.266129 8.14545455,14.9193548 C7.85454545,15.5 7.56363636,16.0080645 7.27272727,16.5887097 C7.2,16.733871 7.12727273,16.8064516 7.12727273,16.9516129 C6.76363636,17.6774194 6.47272727,18.3306452 6.18181818,18.983871 C5.89090909,19.7096774 5.6,20.4354839 5.30909091,21.0887097 C5.16363636,21.5241935 5.01818182,21.9596774 4.87272727,22.3951613 C4.72727273,22.7580645 4.65454545,23.1209677 4.58181818,23.4112903 C4.36363636,24.2096774 4.14545455,25.0806452 4,25.8790323 L5.6,29 C5.81818182,28.4193548 6.03636364,27.8387097 6.25454545,27.3306452 C6.32727273,27.1854839 6.4,27.0403226 6.47272727,26.8951613" id="Shape" fill="url(#linearGradient-4)"></path>
                    <path d="M3.45070423,25.0723404 C3.23943662,26.0851064 3.09859155,27.0255319 3.02816901,28.0382979 C3.02816901,28.0382979 3.02816901,28.1106383 3.02816901,28.1106383 C2.6056338,27.387234 1.26760563,26.5914894 1.26760563,26.5914894 C2.18309859,27.9659574 2.88732394,29.3404255 2.95774648,30.6425532 C2.46478873,30.7148936 1.76056338,30.5702128 0.985915493,30.2808511 C1.83098592,31.0765957 2.3943662,31.293617 2.67605634,31.293617 C1.90140845,31.3659574 1.12676056,31.8723404 0.352112676,32.4510638 C1.47887324,31.9446809 2.3943662,31.8 3.09859155,31.9446809 C2.11267606,35.0553191 1.05633803,38.4553191 0,42 C0.352112676,41.9276596 0.492957746,41.7106383 0.633802817,41.3489362 C0.845070423,40.6978723 2.04225352,36.4297872 4.01408451,30.8595745 C4.08450704,30.7148936 4.15492958,30.5702128 4.15492958,30.3531915 C4.15492958,30.2808511 4.15492958,30.2808511 4.22535211,30.2085106 C4.43661972,29.6297872 4.64788732,29.0510638 4.85915493,28.4 C4.92957746,28.4 4.92957746,28.2553191 5,28.1106383 L3.45070423,25 C3.45070423,25 3.45070423,25.0723404 3.45070423,25.0723404" id="Shape" fill="url(#linearGradient-5)"></path>
                    <path d="M11.5375723,14.28 C11.4624277,14.3511111 11.4624277,14.4933333 11.3872832,14.5644444 C11.2369942,14.8488889 11.0867052,15.1333333 10.9364162,15.4177778 C10.7861272,15.7022222 10.6358382,16.0577778 10.4855491,16.3422222 C10.4104046,16.4844444 10.3352601,16.6977778 10.2601156,16.84 C10.0346821,17.3377778 9.73410405,17.8355556 9.50867052,18.4044444 C9.20809249,19.0444444 8.90751445,19.7555556 8.53179191,20.4666667 C8.23121387,21.1777778 7.93063584,21.8177778 7.6300578,22.6 C7.32947977,23.3111111 7.02890173,24.0222222 6.7283237,24.7333333 C6.42774566,25.3733333 6.20231214,26.0844444 5.9017341,26.7244444 C5.9017341,26.7244444 5.9017341,26.7955556 5.8265896,26.7955556 C5.52601156,27.5066667 5.30057803,28.1466667 5,28.9288889 C5,28.9288889 5,28.9288889 5,29 L6.35260116,28.8577778 C6.35260116,28.8577778 6.27745665,28.8577778 6.27745665,28.8577778 C7.85549133,28.6444444 9.95953757,27.5777778 11.3121387,26.1555556 C11.9132948,25.5155556 12.5144509,24.8044444 13.0404624,23.88 C13.416185,23.24 13.7919075,22.5288889 14.1676301,21.6755556 C14.4682081,20.9644444 14.7687861,20.2533333 15.0693642,19.4 C14.6936416,19.6133333 14.3179191,19.6844444 13.867052,19.8266667 C13.7919075,19.8266667 13.716763,19.8266667 13.6416185,19.8977778 C13.566474,19.8977778 13.4913295,19.8977778 13.416185,19.9688889 C13.416185,19.9688889 13.416185,19.9688889 13.416185,19.9688889 C14.9190751,19.4 15.8208092,18.4044444 16.4971098,17.1244444 C16.1213873,17.4088889 15.4450867,17.6933333 14.6936416,17.8355556 C14.6184971,17.8355556 14.4682081,17.9066667 14.3930636,17.9066667 C14.3930636,17.9066667 14.3179191,17.9066667 14.3179191,17.9066667 C14.3179191,17.9066667 14.3179191,17.9066667 14.3179191,17.9066667 C14.8439306,17.6933333 15.2947977,17.48 15.5953757,17.1955556 C15.6705202,17.1244444 15.7456647,17.0533333 15.8208092,17.0533333 C15.9710983,16.9822222 16.0462428,16.84 16.1213873,16.7688889 C16.1965318,16.6977778 16.2716763,16.6266667 16.3468208,16.5555556 C16.4971098,16.4133333 16.6473988,16.2 16.7225434,15.9866667 C16.7976879,15.9155556 16.7976879,15.8444444 16.8728324,15.7733333 C16.9479769,15.7022222 16.9479769,15.6311111 17.0231214,15.4888889 C17.2485549,15.1333333 17.3988439,14.7777778 17.5491329,14.4222222 C17.6242775,14.28 17.699422,14.1377778 17.699422,13.9955556 C17.699422,13.9244444 17.7745665,13.9244444 17.7745665,13.8533333 C17.849711,13.7111111 17.849711,13.5688889 17.9248555,13.4266667 C18,13.2844444 18,13.1422222 18,13 C17.9248555,13.0711111 17.9248555,13.0711111 17.849711,13.1422222 C17.3988439,13.4266667 16.6473988,13.64 16.0462428,13.7111111 L17.2485549,13.5688889 L15.8208092,13.7822222 C15.8208092,13.7822222 15.8208092,13.7822222 15.8208092,13.7822222 C15.7456647,13.7822222 15.6705202,13.7822222 15.6705202,13.7822222 L11.5375723,14.28 C11.5375723,14.28 11.5375723,14.28 11.5375723,14.28" id="Shape" fill="url(#linearGradient-6)"></path>
                    <path d="M16.4285714,5.52941176 C16.0714286,6.13445378 15.7142857,6.7394958 15.2857143,7.49579832 C15.2857143,7.57142857 15.2142857,7.57142857 15.2142857,7.64705882 C14.8571429,8.25210084 14.5,9.00840336 14.0714286,9.76470588 C13.7142857,10.4453782 13.3571429,11.1260504 13,11.8823529 C12.6428571,12.5630252 12.3571429,13.2436975 12,14 L15.9285714,13.5462185 C17.0714286,13.0168067 17.5714286,12.487395 18.0714286,11.7310924 C18.2142857,11.5042017 18.3571429,11.3529412 18.5,11.1260504 C18.9285714,10.4453782 19.2857143,9.68907563 19.6428571,9.00840336 C20,8.32773109 20.2857143,7.57142857 20.5,6.96638655 C20.6428571,6.58823529 20.7857143,6.21008403 20.8571429,5.83193277 C20.9285714,5.52941176 21,5.30252101 21,5 C19.5,5.1512605 17.6428571,5.45378151 16.4285714,5.52941176" id="Shape" fill="url(#linearGradient-7)"></path>
                    <g id="Group" transform="translate(13.000000, 19.000000)" fill="#BD212F">
                        <path d="M0.9,0.8 C0.8,0.8 0.7,0.8 0.6,0.9 C0.7,0.8 0.8,0.8 0.9,0.8" id="7"></path>
                        <g id="7-link" opacity="0.35">
                            <path d="M0.9,0.8 C0.8,0.8 0.7,0.8 0.6,0.9 C0.7,0.8 0.8,0.8 0.9,0.8" id="7"></path>
                        </g>
                    </g>
                    <g id="7-link" transform="translate(13.000000, 19.000000)" fill="url(#linearGradient-9)">
                        <path d="M0.9,0.8 C0.8,0.8 0.7,0.8 0.6,0.9 C0.7,0.8 0.8,0.8 0.9,0.8" id="7"></path>
                    </g>
                    <g id="Group" transform="translate(13.000000, 17.000000)" fill="#BD212F">
                        <path d="M0.8,1 C0.8,1 0.9,1 0.9,1 C0.9,0.9 0.8,1 0.8,1" id="Shape"></path>
                        <path d="M0.8,1 C0.8,1 0.9,1 0.9,1 C0.9,0.9 0.8,1 0.8,1" id="Shape" opacity="0.35"></path>
                    </g>
                    <path d="M14,17.0444444 C14,17.0444444 14.1,17.0444444 14.1,17.0444444 C14.1,16.9444444 14,17.0444444 14,17.0444444" id="Shape" fill="url(#linearGradient-10)"></path>
                </g>
            </g>
        </g>
    </g>
</svg>