<?xml version="1.0" encoding="UTF-8"?>
<svg width="160px" height="70px" viewBox="0 0 160 70" version="1.1" xmlns="http://www.w3.org/2000/svg" xmlns:xlink="http://www.w3.org/1999/xlink">
    <!-- Generator: Sketch 47.1 (45422) - http://www.bohemiancoding.com/sketch -->
    <title>backbonejs</title>
    <desc>Created with Sketch.</desc>
    <defs></defs>
    <g id="technologies" stroke="none" stroke-width="1" fill="none" fill-rule="evenodd">
        <g id="Javascript-frameworks" transform="translate(-416.000000, -241.000000)">
            <g id="backbonejs" transform="translate(416.000000, 241.000000)">
                <rect id="Rectangle-Copy-9" fill="#FFFFFF" x="0" y="0" width="160" height="70"></rect>
                <g transform="translate(18.000000, 26.000000)">
                    <g id="Page-1" stroke-width="0.5" stroke="#848484">
                        <g id="BackBone.JS">
                            <polygon id="Path" fill="#002A41" points="0 0 0 11.8952062 9 16.9423305 9 13.5115507 2.9791269 10.1350956 2.9791269 4.83166109 9 8.20811612 9 5.04712424"></polygon>
                            <polygon id="path2996" fill="#0071B5" points="18 0 18 11.8952062 9 16.9423305 9 13.5115507 15.0208731 10.1350956 15.0208731 4.83166109 9 8.20811612 9 5.04712424"></polygon>
                            <polygon id="path2998" fill="#0071B5" points="0 21.9947274 0 10.0995211 9 5.05239688 9 8.4831767 2.9791269 11.8596317 2.9791269 16.8932781 9 13.5168233 9 16.9476031"></polygon>
                            <polygon id="path3000" fill="#002A41" points="18 21.9947274 18 10.0995211 9 5.05239688 9 8.4831767 15.0208731 11.8596317 15.0208731 16.8932781 9 13.5168233 9 16.9476031"></polygon>
                        </g>
                    </g>
                    <g id="text3023" transform="translate(25.000000, 5.000000)" fill-rule="nonzero" fill="#002A41">
                        <path d="M0.00771786351,0.209587156 L3.2500164,0.209587156 C4.71079628,0.209600917 5.7834759,0.457073394 6.46805842,0.952018349 C7.15262453,1.44697706 7.4949122,2.19477523 7.49492047,3.19541284 C7.4949122,3.87866972 7.28603599,4.44758257 6.86829184,4.9021789 C6.45053156,5.35678899 5.84007453,5.6486422 5.0369191,5.77775229 L5.0369191,5.82616514 C5.98022364,5.96605046 6.67423116,6.26329817 7.11894384,6.71788073 C7.56363861,7.17249083 7.78599013,7.80597248 7.78599978,8.61832569 C7.78599013,9.70505505 7.4248373,10.5416284 6.70253854,11.1280321 C5.98022364,11.7144358 4.9560572,12.0076376 3.63003645,12.0076376 L0.00771786351,12.0076376 L0.00771786351,0.209587156 Z M0.832442189,5.46302752 L3.43598376,5.46302752 C4.54639065,5.46304128 5.35359542,5.27877523 5.8576007,4.91024312 C6.36159081,4.54173853 6.61359021,3.96474771 6.61359848,3.1792844 C6.61359021,2.3938211 6.3292487,1.82355963 5.76057436,1.46848624 C5.19188499,1.11342661 4.34425251,0.935889908 3.21767428,0.935876147 L0.832442189,0.935876147 L0.832442189,5.46302752 Z M0.832442189,6.18931651 L0.832442189,11.2813486 L3.61386539,11.2813486 C5.80234202,11.2813624 6.89658267,10.3936789 6.89659095,8.61832569 C6.89658267,6.99898624 5.74304819,6.18931651 3.43598376,6.18931651 L0.832442189,6.18931651 Z" id="path3014"></path>
                        <path d="M16.0817572,7.84362385 L11.27895,7.84362385 L9.62950249,12.0076376 L8.71583728,12.0076376 L13.4701303,0.161174312 L13.9956893,0.161174312 L18.6529568,12.0076376 L17.7231206,12.0076376 L16.0817572,7.84362385 Z M11.5781148,7.10120642 L15.8068488,7.10120642 L14.1978272,2.84841743 C14.0630631,2.51488073 13.9013525,2.05220642 13.7126954,1.46040826 C13.5671517,1.97688991 13.4081367,2.44493119 13.2356492,2.86455963 L11.5781148,7.10120642 Z" id="path3016"></path>
                        <path d="M25.3639475,0.782545872 C23.8815949,0.782559633 22.7145848,1.25598165 21.8629118,2.20283945 C21.0112333,3.14969725 20.5853968,4.44624771 20.5853982,6.09247706 C20.5853968,7.77637156 20.9869769,9.08368349 21.7901427,10.0143991 C22.5933015,10.9451147 23.7414465,11.4104725 25.2345788,11.4104725 C26.2263975,11.4104725 27.1373657,11.2840459 27.967489,11.0311927 L27.967489,11.7574679 C27.1858798,12.031844 26.2102266,12.1690321 25.0405264,12.1690321 C23.3802923,12.1690321 22.0731324,11.6337385 21.1190426,10.5631376 C20.1649487,9.49255046 19.6879025,7.99695413 19.6879039,6.07633486 C19.6879025,4.87663761 19.9156452,3.81949541 20.3711321,2.90490826 C20.8266148,1.99033486 21.4815412,1.28423394 22.3359153,0.786577982 C23.1902826,0.288963303 24.1834539,0.0401422018 25.3154348,0.0401284404 C26.4689626,0.0401422018 27.5012141,0.255330275 28.4121934,0.685706422 L28.0806868,1.42813761 C27.2182217,0.997747706 26.3126433,0.782559633 25.3639475,0.782545872 Z" id="path3018"></path>
                        <polygon id="path3020" points="38.5514507 12.0076376 37.5407586 12.0076376 33.0047744 5.77775229 31.428096 7.16576147 31.428096 12.0076376 30.6033722 12.0076376 30.6033722 0.209587156 31.428096 0.209587156 31.428096 6.34263303 32.7379529 5.03533486 37.3709626 0.209587156 38.422082 0.209587156 33.5788476 5.19672936"></polygon>
                        <path d="M40.2413297,0.209587156 L43.483628,0.209587156 C44.9444088,0.209600917 46.0170876,0.457073394 46.7016699,0.952018349 C47.3862369,1.44697706 47.7285246,2.19477523 47.7285329,3.19541284 C47.7285246,3.87866972 47.5196484,4.44758257 47.1019042,4.9021789 C46.6841436,5.35678899 46.0736872,5.6486422 45.2705311,5.77775229 L45.2705311,5.82616514 C46.2138356,5.96605046 46.9078436,6.26329817 47.3525563,6.71788073 C47.797251,7.17249083 48.0196025,7.80597248 48.0196122,8.61832569 C48.0196025,9.70505505 47.6584497,10.5416284 46.9361509,11.1280321 C46.2138356,11.7144358 45.1896696,12.0076376 43.8636487,12.0076376 L40.2413297,12.0076376 L40.2413297,0.209587156 Z M41.0660549,5.46302752 L43.6695963,5.46302752 C44.7800026,5.46304128 45.587207,5.27877523 46.0912121,4.91024312 C46.5952035,4.54173853 46.8472012,3.96474771 46.8472095,3.1792844 C46.8472012,2.3938211 46.5628603,1.82355963 45.9941866,1.46848624 C45.4254978,1.11342661 44.5778648,0.935889908 43.4512861,0.935876147 L41.0660549,0.935876147 L41.0660549,5.46302752 Z M41.0660549,6.18931651 L41.0660549,11.2813486 L43.8474778,11.2813486 C46.0359542,11.2813624 47.1301951,10.3936789 47.1302034,8.61832569 C47.1301951,6.99898624 45.9766603,6.18931651 43.6695963,6.18931651 L41.0660549,6.18931651 Z" id="path3022"></path>
                        <path d="M60.5602731,6.09247706 C60.5602607,7.96466972 60.0912999,9.44547248 59.1533893,10.5348991 C58.2154595,11.6243257 56.9217749,12.1690321 55.2723343,12.1690321 C53.628271,12.1690321 52.3372821,11.6243257 51.3993646,10.5348991 C50.4614403,9.44547248 49.9924809,7.95928899 49.9924809,6.07633486 C49.9924809,4.19877523 50.465483,2.72065596 51.4114928,1.64197706 C52.3574957,0.563325688 53.6498332,0.024 55.2885052,0.0239862385 C56.9379458,0.024 58.2289348,0.566022936 59.1614748,1.65005505 C60.0939955,2.73410092 60.5602607,4.21490367 60.5602731,6.09247706 L60.5602731,6.09247706 Z M50.8899752,6.09247706 C50.8899738,7.78175229 51.2672975,9.0877156 52.0219505,10.010367 C52.7765967,10.9330046 53.8600565,11.3943303 55.2723343,11.3943303 C56.6953807,11.3943303 57.7828833,10.9370505 58.5348462,10.0224633 C59.2867912,9.10788991 59.6627678,7.7978945 59.6627788,6.09247706 C59.6627678,4.39244037 59.2867912,3.08917431 58.5348462,2.18265138 C57.7828833,1.27615596 56.7007705,0.822908257 55.2885052,0.822894495 C53.8816173,0.822908257 52.7968103,1.28020183 52.0340787,2.19476147 C51.2713416,3.10934862 50.8899738,4.40858257 50.8899752,6.09247706 Z" id="path3024"></path>
                        <path d="M71.8638449,12.0076376 L71.0310357,12.0076376 L64.0289642,1.53304128 L63.9642806,1.53304128 C64.0289615,2.7811789 64.0613047,3.72265596 64.0613061,4.35747248 L64.0613061,12.0076376 L63.2689241,12.0076376 L63.2689241,0.209587156 L64.0936493,0.209587156 L71.0876339,10.668055 L71.136148,10.668055 C71.0876242,9.69967431 71.0633679,8.77972018 71.0633775,7.9081789 L71.0633775,0.209587156 L71.8638449,0.209587156 L71.8638449,12.0076376 Z" id="path3026"></path>
                        <polygon id="path3028" points="81.663513 12.0076376 75.2031728 12.0076376 75.2031728 0.209587156 81.663513 0.209587156 81.663513 0.96816055 76.0278966 0.96816055 76.0278966 5.43075688 81.3481773 5.43075688 81.3481773 6.18931651 76.0278966 6.18931651 76.0278966 11.249078 81.663513 11.249078"></polygon>
                        <path d="M83.9921419,11.3781881 C83.9921405,10.8509725 84.2077537,10.5873578 84.6389842,10.5873578 C85.0809902,10.5873578 85.3019946,10.8509725 85.3019974,11.3781881 C85.3019946,11.9054174 85.0809902,12.1690321 84.6389842,12.1690321 C84.2077537,12.1690321 83.9921405,11.9054174 83.9921419,11.3781881 Z" id="path3030"></path>
                        <path d="M86.3612022,14.9853853 C85.8652908,14.9853853 85.4583195,14.9127661 85.1402868,14.7675138 L85.1402868,14.057367 C85.5607362,14.1649541 85.9623163,14.2187615 86.3450313,14.2187615 C87.6494956,14.2187615 88.3017291,13.5086147 88.3017305,12.0883349 L88.3017305,0.209587156 L89.1264542,0.209587156 L89.1264542,12.0076376 C89.1264515,13.9927982 88.2047022,14.9853853 86.3612022,14.9853853 L86.3612022,14.9853853 Z" id="path3032"></path>
                        <path d="M98.9342105,8.9653211 C98.9342022,9.94984404 98.5717023,10.7299266 97.8467065,11.3055688 C97.121697,11.881211 96.1581733,12.1690321 94.9561285,12.1690321 C93.5115117,12.1690321 92.4037941,12.0103211 91.6329757,11.6929128 L91.6329757,10.8697982 C92.4846501,11.2302523 93.5708055,11.4104725 94.8914448,11.4104725 C95.8617028,11.4104725 96.6311754,11.188555 97.1998642,10.7447202 C97.7685393,10.3008716 98.0528802,9.7185 98.0528885,8.9976055 C98.0528802,8.55107339 97.958549,8.18120642 97.7698947,7.88800459 C97.5812252,7.59480275 97.273975,7.32715596 96.848144,7.08506422 C96.4222992,6.84297248 95.7970191,6.58205505 94.9722994,6.3022844 C93.7648579,5.88805046 92.9307002,5.44016972 92.4698276,4.95866972 C92.0089509,4.47718349 91.7785139,3.83562385 91.7785153,3.03401835 C91.7785139,2.15172936 92.124843,1.43218349 92.8175052,0.875353211 C93.5101632,0.318550459 94.4009192,0.0401422018 95.4897744,0.0401284404 C96.6001807,0.0401422018 97.6432147,0.249949541 98.6188748,0.669577982 L98.3197101,1.37971101 C97.3386587,0.970857798 96.4007385,0.766417431 95.5059453,0.76640367 C94.6327032,0.766417431 93.9373482,0.96816055 93.4198774,1.37164679 C92.9024011,1.77514679 92.643665,2.32388532 92.6436664,3.01787615 C92.643665,3.45366055 92.7231725,3.81141743 92.8821902,4.09116055 C93.0412024,4.37093119 93.301287,4.62243578 93.662444,4.84568807 C94.023594,5.06896789 94.6434843,5.33661468 95.5221162,5.6486422 C96.4438614,5.96605046 97.1365208,6.27404587 97.6000986,6.57262844 C98.0636613,6.87121101 98.4019063,7.2101422 98.6148321,7.58942202 C98.8277428,7.96870183 98.9342022,8.42734404 98.9342105,8.9653211 L98.9342105,8.9653211 Z" id="path3034"></path>
                    </g>
                </g>
            </g>
        </g>
    </g>
</svg>