<?xml version="1.0" encoding="UTF-8"?>
<svg width="160px" height="70px" viewBox="0 0 160 70" version="1.1" xmlns="http://www.w3.org/2000/svg" xmlns:xlink="http://www.w3.org/1999/xlink">
    <!-- Generator: Sketch 47.1 (45422) - http://www.bohemiancoding.com/sketch -->
    <title>bigcommerce</title>
    <desc>Created with Sketch.</desc>
    <defs></defs>
    <g id="technologies" stroke="none" stroke-width="1" fill="none" fill-rule="evenodd">
        <g id="Ecommerce" transform="translate(-32.000000, -138.000000)">
            <g id="bigcommerce" transform="translate(32.000000, 138.000000)">
                <rect id="Rectangle" fill="#FFFFFF" x="0" y="0" width="160" height="70"></rect>
                <path d="M51.8621711,35.0345306 C53.4861619,34.9856729 55.0316224,35.723872 56,37.0109911 L56,21.3733244 C56.0000128,21.232733 55.9199578,21.1040587 55.7928862,21.0404257 C55.6658146,20.9767926 55.5132816,20.9889949 55.3982615,21.0719946 L35.8140575,35.2085477 L36.3333901,35.2085477 C38.3672382,35.2085477 39.407306,36.4885938 39.407306,37.893531 C39.4482656,38.8433944 38.9181542,39.7278953 38.054797,40.1502178 C37.9953367,40.1772754 37.9579298,40.2366773 37.9596844,40.301256 C37.9614391,40.3658348 38.002018,40.4231742 38.0628623,40.4470501 C39.0293552,40.878802 39.6407787,41.8385873 39.6159508,42.8850191 C39.6159508,44.4805793 38.5594018,45.7443655 36.5097738,45.7443655 L30.9244061,45.7443655 C30.8082064,45.7443655 30.714008,45.6514309 30.714008,45.5367904 L30.714008,38.8885074 L16.1358757,49.4070273 C16.0199849,49.4909603 15.9718291,49.6388267 16.0164775,49.7736491 C16.0611259,49.9084714 16.1884826,49.9997636 16.3322472,50 L55.6672204,50 C55.8510095,50 56,49.8530086 56,49.6716855 L56,44.3515368 C54.8825871,45.3912248 53.3979331,45.9594918 51.8621711,45.9353345 C48.7240837,45.9353345 46.1624871,43.8031927 46.1624871,40.4854515 C46.1624871,37.1511042 48.7240837,35.0345306 51.8621711,35.0345306 Z M44.0627142,45.5516666 C44.0627142,45.6023148 44.0423207,45.6508885 44.00602,45.6867021 C43.9697193,45.7225158 43.920485,45.7426357 43.869148,45.7426357 L41.9829292,45.7426357 C41.9315923,45.7426357 41.8823579,45.7225158 41.8460572,45.6867021 C41.8097565,45.6508885 41.789363,45.6023148 41.789363,45.5516666 L41.789363,35.3995167 C41.789363,35.2940474 41.8760255,35.2085477 41.9829292,35.2085477 L43.869148,35.2085477 C43.9760517,35.2085477 44.0627142,35.2940474 44.0627142,35.3995167 L44.0627142,45.5516666 Z" id="Shape" fill="#34313E" fill-rule="nonzero"></path>
                <path d="M32.2060504,37.9999989 L34.7813229,37.9999989 C35.5314886,37.9999989 36,37.6146866 36,36.9999994 C36,36.4146873 35.5311464,36 34.7813229,36 L32.1057773,36 C32.0473739,36 32.0000286,36.0432325 32.0000286,36.0965624 L32.0000286,37.809374 C31.9991086,37.8597498 32.0204298,37.9083441 32.0591868,37.9442046 C32.0979437,37.980065 32.1508748,38.0001738 32.2060504,37.9999989 Z" id="Shape" fill="#34313E" fill-rule="nonzero"></path>
                <path d="M32.195466,42.999991 L34.7361651,42.999991 C35.5241075,42.999991 36,42.631693 36,41.9999955 C36,41.4478366 35.5540747,41 34.7361651,41 L32.195466,41 C32.0875284,41 32.0000276,41.0774144 32.0000276,41.1729099 L32.0000276,42.8259284 C31.9991457,42.872127 32.0194104,42.9166791 32.0562164,42.9494595 C32.0930224,42.9822399 32.1432434,43.0004643 32.195466,42.999991 Z" id="Shape" fill="#34313E" fill-rule="nonzero"></path>
                <path d="M54.1615,37.2271 C53.5544599,36.4649133 52.6022999,36.0111714 51.5864778,36 C49.5029691,36 48,37.48645 48,39.5 C48,41.51355 49.5029691,43 51.5864778,43 C52.4360482,42.9959847 53.260167,42.7282373 53.9295834,42.23875 C53.9716614,42.2042908 53.9953419,42.1542126 53.9942956,42.1019 L53.9942956,41.07465 C53.9942956,40.9812863 53.9134067,40.9056 53.8136251,40.9056 L51.2288774,40.9056 C51.0960419,40.9056 50.9883574,40.8048417 50.9883574,40.68055 L50.9883574,39.1493 C50.9883574,39.0250083 51.0960419,38.92425 51.2288774,38.92425 L56,38.92425 L56,36.5124 L54.471969,37.2943 C54.3646602,37.3445645 54.2343166,37.316352 54.1615,37.2271 L54.1615,37.2271 Z" id="Shape" fill="#34313E" fill-rule="nonzero"></path>
                <path d="M58,40.5016645 C58,37.2192895 60.4954511,35.0012421 63.7090204,35.0012421 C65.4449217,34.9630549 67.0685693,35.8077059 67.9599536,37.212655 C67.988108,37.2550728 67.9961198,37.3066739 67.9820424,37.3549208 C67.967965,37.4031676 67.933087,37.443644 67.8858827,37.4665152 L66.602603,38.1271805 C66.5170135,38.1685269 66.4121001,38.1412184 66.3611316,38.0643265 C65.7852854,37.2041535 64.7880993,36.675884 63.7093907,36.6595399 C61.5561475,36.6595399 59.9576959,38.253936 59.9576959,40.5006169 C59.9576959,42.7169184 61.5561475,44.341694 63.7093907,44.341694 C64.787761,44.3192598 65.7830447,43.7906469 66.3622427,42.9327171 C66.4127999,42.8569077 66.5159922,42.829454 66.6011216,42.8691647 L67.8944008,43.5015457 C67.9431536,43.5239875 67.9792582,43.5651798 67.993449,43.6145512 C68.0076398,43.6639226 67.9985352,43.7166665 67.9684718,43.759247 C67.0723099,45.166974 65.4506131,46.0200317 63.7093907,45.9996425 C60.4954511,46.0010393 58,43.7686751 58,40.5016645 Z" id="Shape" fill="#34313E" fill-rule="nonzero"></path>
                <path d="M67,40.4953435 C67,37.8484257 68.4385643,35.7891684 70.6183787,35.1780994 C74.3016625,34.1453263 77.6823885,37.7680679 76.881226,41.8107666 C76.4586848,44.2762986 74.3900193,46.0526554 72.0040204,45.9988081 C69.0693092,45.99776 67,43.6687798 67,40.4953435 Z M75.2466149,40.4953435 C75.2466149,38.2942371 73.9698142,36.6521419 72.0040204,36.6521419 C70.0229156,36.6521419 68.761093,38.2942371 68.761093,40.4953435 C68.761093,42.681077 70.0229156,44.3385451 72.0040204,44.3385451 C73.9698142,44.3385451 75.2466149,42.6796795 75.2466149,40.4953435 L75.2466149,40.4953435 Z" id="Shape" fill="#34313E" fill-rule="nonzero"></path>
                <path d="M88.1425637,46.8703375 L88.1425637,38.5072892 L84.9282915,46.9414894 C84.9148809,46.9767837 84.882076,46.9999826 84.8455534,47 L84.1732191,47 C84.1366965,46.9999826 84.1038917,46.9767837 84.090481,46.9414894 L80.8574363,38.5072892 L80.8574363,46.8703375 C80.8574363,46.9047262 80.8442875,46.9377063 80.8208825,46.9620227 C80.7974775,46.9863392 80.7657335,47 80.7326338,47 L79.1248025,47 C79.055876,47 79,46.9419481 79,46.8703375 L79,36.1303848 C79,36.0587742 79.055876,36.0007224 79.1248025,36.0007224 L81.448423,36.0007224 C81.5515159,36.0006589 81.6442227,36.0659197 81.6823842,36.165419 L84.5079957,43.7140137 L87.3179635,36.165419 C87.3559034,36.0656359 87.4486594,36.000054 87.5519247,36 L89.8751975,36 C89.944124,36 90,36.0580519 90,36.1296625 L90,46.8703375 C90,46.9419481 89.944124,47 89.8751975,47 L88.265628,47 C88.1973812,46.9990124 88.1425571,46.9412488 88.1425637,46.8703375 Z" id="Shape" fill="#34313E" fill-rule="nonzero"></path>
                <path d="M107.000001,46.8002561 L107.000001,36.1990215 C107.000001,36.0891049 107.094578,36 107.211244,36 L114.788757,36 C114.905423,36 115,36.0891049 115,36.1990215 L115,37.4993433 C115,37.6092598 114.905423,37.6983647 114.788757,37.6983647 L109.259262,37.6983647 C109.203237,37.6983647 109.149507,37.719333 109.109891,37.7566568 C109.070275,37.7939806 109.048019,37.8446024 109.048019,37.8973862 L109.048019,40.336212 C109.048019,40.4461285 109.142596,40.5352335 109.259262,40.5352335 L114.664926,40.5352335 C114.720951,40.5352335 114.774681,40.5562017 114.814297,40.5935255 C114.853912,40.6308493 114.876168,40.6814712 114.876168,40.7342549 L114.876168,42.0345767 C114.876168,42.1444933 114.781592,42.2335982 114.664926,42.2335982 L109.259262,42.2335982 C109.142596,42.2335982 109.048019,42.3227032 109.048019,42.4326197 L109.048019,45.1026138 C109.048019,45.2125303 109.142596,45.3016353 109.259262,45.3016353 L114.788374,45.3016353 C114.90504,45.3016353 114.999617,45.3907402 114.999617,45.5006567 L114.999617,46.8009785 C114.999617,46.9108951 114.90504,47 114.788374,47 L107.210861,47 C107.154769,46.9999044 107.101021,46.9787947 107.061466,46.941325 C107.021911,46.9038553 106.999798,46.8531024 107.000001,46.8002561 L107.000001,46.8002561 Z" id="Shape" fill="#34313E" fill-rule="nonzero"></path>
                <path d="M122.894251,46.902833 L120.707205,42.9903107 C120.673594,42.9303038 120.612481,42.8934997 120.546468,42.893509 L119.013997,42.893509 C118.91087,42.893509 118.827269,42.9818053 118.827269,43.0907244 L118.827269,46.8027805 C118.827269,46.9116996 118.743668,46.9999959 118.640541,46.9999959 L117.186728,46.9999959 C117.137205,46.9999959 117.08971,46.9792179 117.054691,46.9422329 C117.019673,46.9052478 117,46.8550853 117,46.8027805 L117,36.1972154 C117,36.0882963 117.083601,36 117.186728,36 L121.575525,36 C123.636718,36 124.995456,37.4014574 124.995456,39.4465739 C125.073386,40.930669 124.141445,42.2637177 122.775579,42.6218863 C122.716276,42.6349233 122.666645,42.6775327 122.642447,42.736183 C122.61825,42.7948334 122.622493,42.8622364 122.653829,42.916987 L124.895594,46.6994772 C124.931502,46.7602471 124.933253,46.8368402 124.900164,46.8993697 C124.867075,46.9618992 124.80439,47.0004563 124.736567,46.9999959 L123.056355,46.9999959 C122.989785,47.0004435 122.928023,46.9634246 122.894251,46.902833 L122.894251,46.902833 Z M123.119966,39.4303199 C123.119966,38.3748924 122.370317,37.6983641 121.341602,37.6983641 L119.013997,37.6983641 C118.91087,37.6983641 118.827269,37.7866605 118.827269,37.8955795 L118.827269,40.9975683 C118.827269,41.1064873 118.91087,41.1947837 119.013997,41.1947837 L121.33955,41.1947837 C122.370317,41.1947837 123.119966,40.5020014 123.119966,39.4303199 L123.119966,39.4303199 Z" id="Shape" fill="#34313E" fill-rule="nonzero"></path>
                <path d="M137,46.8063835 L137,36.1939774 C137,36.0868466 137.080656,36 137.18015,36 L143.81985,36 C143.919344,36 144,36.0868466 144,36.1939774 L144,37.5044988 C144,37.6116296 143.919344,37.6984762 143.81985,37.6984762 L138.972587,37.6984762 C138.873093,37.6984762 138.792437,37.7853229 138.792437,37.8924536 L138.792437,40.3411926 C138.792437,40.4483233 138.873093,40.53517 138.972587,40.53517 L143.712834,40.53517 C143.812328,40.53517 143.892984,40.6220166 143.892984,40.7291474 L143.892984,42.0396688 C143.892984,42.1467996 143.812328,42.2336462 143.712834,42.2336462 L138.972587,42.2336462 C138.873093,42.2336462 138.792437,42.3204928 138.792437,42.4276236 L138.792437,45.107546 C138.792437,45.2146768 138.873093,45.3015234 138.972587,45.3015234 L143.81985,45.3015234 C143.919344,45.3015234 144,45.3883701 144,45.4955008 L144,46.8060223 C144,46.913153 143.919344,46.9999997 143.81985,46.9999997 L137.180485,46.9999997 C137.132706,47.0000956 137.086849,46.9797506 137.053002,46.9434405 C137.019154,46.9071304 137.000089,46.8578295 137,46.8063835 L137,46.8063835 Z" id="Shape" fill="#34313E" fill-rule="nonzero"></path>
                <path d="M126,40.5018097 C126,37.219313 128.496006,35.0011833 131.710289,35.0011833 C133.446224,34.9639194 135.069436,35.8090889 135.960315,37.2140749 C135.988476,37.2564944 135.996489,37.3080974 135.982409,37.356346 C135.968328,37.4045947 135.933443,37.4450725 135.886228,37.4679446 L134.602292,38.1268884 C134.516684,38.1682364 134.411747,38.1409268 134.360767,38.0640321 C133.784793,37.2038271 132.787385,36.6755381 131.708437,36.6591933 C129.554715,36.6591933 127.955908,38.2536486 127.955908,40.5004129 C127.955908,42.7167966 129.554715,44.3416325 131.708437,44.3416325 C132.787047,44.3191974 133.782552,43.7905649 134.361879,42.9326033 C134.412447,42.8567911 134.515662,42.8293364 134.600811,42.8690486 L135.894377,43.501453 C135.943141,43.5238956 135.979254,43.5650895 135.993448,43.6144627 C136.007641,43.6638359 135.998535,43.7165818 135.968465,43.7591639 C135.072104,45.1669431 133.450047,46.0200325 131.708437,45.9996425 C128.494524,46.0027853 126,43.7706876 126,40.5018097 Z" id="Shape" fill="#34313E" fill-rule="nonzero"></path>
                <path d="M103.143954,46.8703375 L103.143954,38.5072892 L99.9282915,46.9414894 C99.9148809,46.9767837 99.882076,46.9999826 99.8455534,47 L99.1732191,47 C99.1366965,46.9999826 99.1038917,46.9767837 99.090481,46.9414894 L95.8574363,38.5072892 L95.8574363,46.8703375 C95.8574363,46.9419481 95.8015603,47 95.7326338,47 L94.1248025,47 C94.0917028,47 94.0599588,46.9863392 94.0365538,46.9620227 C94.0131488,46.9377063 94,46.9047262 94,46.8703375 L94,36.1303848 C94,36.0587742 94.055876,36.0007224 94.1248025,36.0007224 L96.448423,36.0007224 C96.5515159,36.0006589 96.6442227,36.0659197 96.6823842,36.165419 L99.5079957,43.7140137 L102.317963,36.165419 C102.355903,36.0656359 102.448659,36.000054 102.551925,36 L104.875198,36 C104.944124,36 105,36.0580519 105,36.1296625 L105,46.8703375 C105,46.9419481 104.944124,47 104.875198,47 L103.267366,47 C103.198983,46.9992084 103.14395,46.9413877 103.143954,46.8703375 L103.143954,46.8703375 Z" id="Shape" fill="#34313E" fill-rule="nonzero"></path>
            </g>
        </g>
    </g>
</svg>