<?xml version="1.0" encoding="UTF-8"?>
<svg width="160px" height="70px" viewBox="0 0 160 70" version="1.1" xmlns="http://www.w3.org/2000/svg" xmlns:xlink="http://www.w3.org/1999/xlink">
    <!-- Generator: Sketch 47.1 (45422) - http://www.bohemiancoding.com/sketch -->
    <title>blogger</title>
    <desc>Created with Sketch.</desc>
    <defs></defs>
    <g id="technologies" stroke="none" stroke-width="1" fill="none" fill-rule="evenodd">
        <g id="Artboard" transform="translate(-403.000000, -370.000000)">
            <g id="blogger" transform="translate(403.000000, 370.000000)">
                <rect id="container" fill="#FFFFFF" x="0" y="0" width="160" height="70"></rect>
                <g transform="translate(18.000000, 17.000000)" id="Shape" fill-rule="nonzero">
                    <path d="M46.5916637,23.4025651 C46.9392441,23.4770265 47.3447545,23.4770265 47.9530201,23.4770265 C49.5171318,23.4770265 50.9074532,22.8068734 50.9074532,21.0455734 C50.9074532,19.355871 49.5171318,18.6857178 47.77923,18.6857178 L46.5916637,18.6857178 L46.5916637,23.4025651 L46.5916637,23.4025651 Z M46.5916637,16.0194247 L47.6633698,16.0194247 C49.3723066,16.0194247 50.2702225,15.1688457 50.2702225,13.8800897 C50.2702225,12.5655585 49.4302367,11.8696302 47.9819852,11.8696302 C47.2578594,11.8696302 46.852349,11.9211804 46.5916637,11.9985058 L46.5916637,16.0194247 L46.5916637,16.0194247 Z M43,9.01145561 C43.984811,9.01145561 45.867538,9.00859171 47.6923349,9.00859171 C49.9226422,9.00859171 51.1971035,8.96276927 52.3267397,9.77325364 C53.4274108,10.5694185 54.0067114,11.7751214 54.0067114,13.3731789 C54.0067114,14.8939111 53.659131,16.5778857 51.6315789,17.2995891 L51.6315789,17.3511393 C53.4563758,17.5687959 54.8466973,19.3071847 54.8466973,21.5496202 C54.8466973,23.1476777 54.2963617,24.5653094 53.2825857,25.4158884 C52.1239845,26.4182543 50.9074532,26.690325 46.9392441,26.690325 C45.1434122,26.690325 43.8110208,26.6931889 43,26.6931889 L43,9.01145561 L43,9.01145561 Z M70.2850583,20.2236334 C70.2850583,18.0785705 70.024373,16.6408915 68.4602614,16.6408915 C66.8671847,16.6408915 66.5485694,18.0442037 66.5485694,20.2465446 C66.5485694,22.523347 67.12787,23.8292865 68.4312964,23.8292865 C69.7347227,23.8292865 70.2850583,22.6923173 70.2850583,20.2236334 Z M68.4312964,26.7017806 C64.4630872,26.7017806 63.1886259,24.3104221 63.1886259,20.2895032 C63.1886259,16.2714481 64.6658425,13.7025277 68.6050865,13.7025277 C72.5732957,13.7025277 73.7898269,16.3201345 73.7898269,20.0861661 C73.7898269,24.6139958 72.3995055,26.7017806 68.4312964,26.7017806 L68.4312964,26.7017806 Z M82.2186507,19.2012203 C82.2186507,18.1444403 81.9869304,16.743992 80.654539,16.743992 C79.3511127,16.743992 78.8297421,18.0384759 78.8297421,20.3410534 C78.8297421,22.2283651 79.2062875,23.7061387 80.654539,23.7061387 C82.0738255,23.7061387 82.2186507,21.7443656 82.2186507,21.0656207 L82.2186507,19.2012203 Z M85.7813493,24.8688831 C85.7813493,27.3003362 85.8392794,29.3365708 84.6227481,30.6253269 C83.4641469,31.7995268 81.552455,32 79.9883433,32 C78.713882,32 77.0628753,31.7422488 76.1359943,31.2267464 C75.846344,31.0549122 75.846344,30.7112439 75.9622042,30.3389366 C76.0780643,29.9952683 76.3966796,28.8783464 76.4835747,28.6778732 C76.5994348,28.3256132 77.0049452,28.3084298 77.1208054,28.3714357 C77.8159661,28.6778732 78.7718121,28.8210684 79.8145532,28.8210684 C81.3786648,28.8210684 82.1896856,28.6778732 82.1896856,26.309426 L82.1896856,25.5075333 L82.1317556,25.5075333 C81.4655599,26.366704 80.8572942,26.7017806 79.640763,26.7017806 C76.3097845,26.7017806 75.2091134,24.0669904 75.2091134,20.4441539 C75.2091134,16.3573652 76.3387496,13.7683975 79.9883433,13.7683975 C81.4365948,13.7683975 82.2186507,14.4958287 82.7400212,15.5296974 L83.0007065,14.3526335 C83.0007065,14.3526335 83.0586365,14.0547877 83.522077,14.0547877 L85.1441187,14.0547877 C85.6365242,14.0547877 85.8392794,14.1693438 85.8682444,14.4041838 C85.8682444,14.6418877 85.7813493,16.1998506 85.7813493,17.829411 L85.7813493,24.8688831 L85.7813493,24.8688831 Z M94.6156835,19.2012203 C94.6156835,18.1444403 94.3839633,16.743992 93.0515719,16.743992 C91.7481455,16.743992 91.226775,18.0384759 91.226775,20.3410534 C91.226775,22.2283651 91.6033204,23.7061387 93.0515719,23.7061387 C94.4998234,23.7061387 94.6156835,21.7443656 94.6156835,21.0656207 L94.6156835,19.2012203 Z M98.1783822,24.8688831 C98.1783822,27.3003362 98.2363123,29.3365708 97.019781,30.6253269 C95.8901448,31.7995268 93.9494878,32 92.4143412,32 C91.1109149,32 89.4599082,31.7422488 88.5330272,31.2267464 C88.2723419,31.0549122 88.2723419,30.7112439 88.388202,30.3389366 C88.4750971,29.9952683 88.8226775,28.8783464 88.8806076,28.6778732 C88.9964677,28.3256132 89.4019781,28.3084298 89.5468032,28.3714357 C90.2129989,28.6778732 91.19781,28.8210684 92.211586,28.8210684 C93.7756976,28.8210684 94.5867185,28.6778732 94.5867185,26.309426 L94.5867185,25.5075333 L94.5287884,25.5075333 C93.8915578,26.366704 93.2543271,26.7017806 92.0667609,26.7017806 C88.7068174,26.7017806 87.6061462,24.0669904 87.6061462,20.4441539 C87.6061462,16.3573652 88.7357824,13.7683975 92.3853762,13.7683975 C93.8336277,13.7683975 94.6156835,14.4958287 95.1660191,15.5296974 L95.3977393,14.3526335 C95.3977393,14.3526335 95.4556694,14.0547877 95.9191099,14.0547877 L97.5701166,14.0547877 C98.033557,14.0547877 98.2363123,14.1693438 98.2652773,14.4041838 C98.2652773,14.6418877 98.1783822,16.1998506 98.1783822,17.829411 L98.1783822,24.8688831 L98.1783822,24.8688831 Z M106.723066,18.8203213 C106.723066,17.9525588 106.665136,16.4346906 105.24585,16.4346906 C103.884493,16.4346906 103.652773,17.8551862 103.594843,18.8203213 L106.723066,18.8203213 Z M103.710703,21.2088158 C103.826563,22.8297846 104.550689,23.8292865 106.1148,23.8292865 C107.128576,23.8292865 107.186507,23.7748724 108.605793,23.2822812 C108.837513,23.2020919 109.271989,23.1448138 109.387849,23.4569792 C109.532674,23.8206948 109.880254,24.8946582 109.996114,25.1753206 C110.169905,25.6564562 109.532674,25.9056157 109.532674,25.9056157 C108.432003,26.4383016 107.099611,26.690325 105.622395,26.690325 C101.943836,26.690325 99.8583539,24.2617358 99.8583539,20.3639646 C99.8583539,17.2251276 101.074885,13.7569419 105.332745,13.7569419 C109.416814,13.7569419 110.14094,16.8700037 110.14094,19.9315154 C110.14094,20.5902129 110.054045,21.234591 109.445779,21.234591 L103.710703,21.2088158 L103.710703,21.2088158 Z M60.8424585,23.3911095 C62.2327799,23.3911095 62.29071,23.3911095 62.6093253,25.6535923 C62.6962204,26.2578757 62.1748499,26.6989167 61.4796892,26.6989167 L58.6411162,26.6989167 C57.6852702,26.6989167 56.7873543,25.6765035 56.7583893,24.7342797 L56.7583893,23.9667538 L56.7583893,9.3579878 C56.7583893,9.16037853 56.9032144,9 57.1059696,9 L59.7707524,9 C59.9735076,9 60.1472978,9.16037853 60.1472978,9.3579878 L60.1472978,22.786826 C60.1472978,23.2822812 60.2052278,23.3911095 60.8424585,23.3911095 L60.8424585,23.3911095 Z M118.627693,13.7053916 C118.106323,13.6996638 116.744966,13.5135101 115.44154,15.1659818 L115.354645,15.1659818 L115.20982,14.046196 L112.139527,14.0776989 L112.139527,14.5101482 L112.139527,26.3409289 C112.139527,26.5385382 112.284352,26.6989167 112.487107,26.6989167 L115.44154,26.6989167 C115.644295,26.6989167 115.818085,26.5385382 115.818085,26.3409289 L115.78912,20.1090773 C115.78912,19.7797286 115.818085,19.327232 115.847051,19.0694808 C115.962911,17.5229735 116.368421,16.950193 117.700812,16.950193 C118.135288,16.950193 118.917344,17.1707135 119.264924,17.2824057 C119.641469,17.3940979 119.844225,16.9845598 119.844225,16.9845598 C119.844225,16.9845598 120.133875,15.3177686 120.249735,14.6819823 C120.33663,14.046196 119.149064,13.7111194 118.627693,13.7053916 L118.627693,13.7053916 Z M121.784882,14.6103848 L121.784882,13.2185282 L121.379371,13.2185282 L121.379371,12.8863155 L122.566937,12.8863155 L122.566937,13.2185282 L122.132462,13.2185282 L122.132462,14.6103848 L121.784882,14.6103848 L121.784882,14.6103848 Z M125,14.6103848 L124.565525,14.6103848 L124.565525,13.4676877 L124.275874,14.2037106 L123.986224,14.2037106 L123.667609,13.4676877 L123.667609,14.6103848 L123.291063,14.6103848 L123.291063,12.8863155 L123.754504,12.8863155 L124.131049,13.7368945 L124.507594,12.8863155 L125,12.8863155 L125,14.6103848 L125,14.6103848 Z" fill="#003366"></path>
                    <path d="M36,30.6144 C36,33.6096 33.5808,36 30.6144,36 L5.4,36 C2.41632,36 0,33.6096 0,30.6144 L0,5.4 C0,2.4192 2.41776,0 5.4,0 L30.6144,0 C33.5808,0 36,2.418048 36,5.4 L36,30.6144" fill="#FF6600"></path>
                    <path d="M14.1540062,7 C10.2049948,7 7.0028616,10.1797985 7,14.1041075 L7,21.8987342 C7,25.8230431 10.2049948,29 14.1540062,29 L21.8545786,29 C25.8064516,29 29,25.8230431 29,21.8987342 L29,16.8633428 C29,16.0790493 28.3675858,15.4425213 27.5777836,15.4425213 L26.3701873,15.4425213 L26.3444329,15.4425213 C25.5889698,15.4425213 24.9737253,14.8571429 24.9222164,14.1211573 L24.9136316,14.1041075 C24.9136316,10.1797985 21.7114984,7 17.7596254,7 L14.1540062,7 Z M13.9765869,12.762852 L18.028616,12.762852 C18.7869407,12.762852 19.4050468,13.3738052 19.4050468,14.1296823 C19.4050468,14.8827176 18.7869407,15.4965125 18.028616,15.4965125 L13.9765869,15.4965125 C13.2182622,15.4965125 12.6001561,14.8827176 12.6001561,14.1296823 C12.6001561,13.3738052 13.2182622,12.762852 13.9765869,12.762852 Z M13.9680021,20.762077 L22.0978148,20.762077 C22.816077,20.762077 23.4027055,21.3360889 23.4027055,22.0493413 C23.4027055,22.7625936 22.816077,23.3479721 22.0978148,23.3479721 L13.9680021,23.3479721 C13.2497399,23.3479721 12.6716961,22.7625936 12.6716961,22.0493413 C12.6716961,21.3360889 13.2497399,20.762077 13.9680021,20.762077 Z" fill="#FFFFFF"></path>
                </g>
            </g>
        </g>
    </g>
</svg>