<?xml version="1.0" encoding="UTF-8"?>
<svg width="160px" height="70px" viewBox="0 0 160 70" version="1.1" xmlns="http://www.w3.org/2000/svg" xmlns:xlink="http://www.w3.org/1999/xlink">
    <!-- Generator: Hyder A. - https://toggle.me -->
    <title>bootstrap</title>
    <desc>Created with Sketch.</desc>
    <defs></defs>
    <g id="technologies" stroke="none" stroke-width="1" fill="none" fill-rule="evenodd">
        <g id="Web-frameworks" transform="translate(-32.000000, -42.000000)">
            <g id="bootstrap" transform="translate(32.000000, 42.000000)">
                <rect id="Rectangle-Copy" fill="#FFFFFF" x="0" y="0" width="160" height="70"></rect>
                <path d="M106,52.5 C106,57.175 102.175,61 97.5,61 L63.5,61 C58.825,61 55,57.175 55,52.5 L55,18.5 C55,13.825 58.825,10 63.5,10 L97.5,10 C102.175,10 106,13.825 106,18.5 L106,52.5 Z" id="bg" fill="#563D7C" fill-rule="nonzero"></path>
                <g id="B" transform="translate(69.000000, 21.000000)" fill-rule="nonzero" fill="#FFFFFF">
                    <path d="M0.0253378378,0 L14.6790541,0 C17.3817568,0 19.5523649,0.613445378 21.1824324,1.8487395 C22.8125,3.08403361 23.6317568,4.94117647 23.6317568,7.43697479 C23.6317568,8.94957983 23.2601351,10.2436975 22.5168919,11.3193277 C21.7736486,12.394958 20.7094595,13.2352941 19.3243243,13.8235294 L19.3243243,13.907563 C21.1824324,14.302521 22.5929054,15.1764706 23.5472973,16.5294118 C24.5016892,17.8907563 24.9831081,19.5882353 24.9831081,21.6386555 C24.9831081,22.8151261 24.7719595,23.9159664 24.3496622,24.9327731 C23.9273649,25.9579832 23.2685811,26.8403361 22.3648649,27.5798319 C21.4611486,28.3193277 20.3125,28.907563 18.902027,29.3445378 C17.4915541,29.7815126 15.8192568,30 13.8766892,30 L0.0253378378,30 L0.0253378378,0 L0.0253378378,0 Z M5.30405405,12.5630252 L13.9189189,12.5630252 C15.1858108,12.5630252 16.2415541,12.210084 17.0861486,11.487395 C17.9307432,10.7647059 18.3530405,9.7394958 18.3530405,8.39495798 C18.3530405,6.88235294 17.972973,5.81512605 17.2128378,5.20168067 C16.4527027,4.58823529 15.3547297,4.27731092 13.9189189,4.27731092 L5.30405405,4.27731092 L5.30405405,12.5630252 L5.30405405,12.5630252 Z M5.30405405,25.7142857 L14.6368243,25.7142857 C16.2415541,25.7142857 17.4915541,25.302521 18.3699324,24.4705882 C19.2567568,23.6470588 19.7043919,22.4705882 19.7043919,20.9579832 C19.7043919,19.4705882 19.2652027,18.3361345 18.3699324,17.5294118 C17.4746622,16.7226891 16.2415541,16.3361345 14.6368243,16.3361345 L5.30405405,16.3361345 L5.30405405,25.7142857 Z" id="Shape"></path>
                </g>
            </g>
        </g>
    </g>
</svg>