<?xml version="1.0" encoding="UTF-8"?>
<svg width="160px" height="70px" viewBox="0 0 160 70" version="1.1" xmlns="http://www.w3.org/2000/svg" xmlns:xlink="http://www.w3.org/1999/xlink">
    <!-- Generator: Sketch 47.1 (45422) - http://www.bohemiancoding.com/sketch -->
    <title>codeigniter</title>
    <desc>Created with Sketch.</desc>
    <defs></defs>
    <g id="technologies" stroke="none" stroke-width="1" fill="none" fill-rule="evenodd">
        <g id="Web-frameworks" transform="translate(-224.000000, -232.000000)">
            <g id="codeigniter" transform="translate(224.000000, 232.000000)">
                <rect id="Rectangle-Copy-11" fill="#FFFFFF" x="0" y="0" width="160" height="70"></rect>
                <g transform="translate(23.000000, 18.000000)" fill-rule="nonzero" fill="#FF1D00">
                    <path d="M19.5957323,12.7878788 C19.656648,15.0909091 16.8545278,15.9393939 15.6362147,14.2424242 C14.0524076,12.0606061 15.6971303,9.6969697 15.8798773,7.39393939 C16.1844556,4.48484848 14.4788172,1.63636364 12.4076849,0 C13.5650824,2 12.042191,4.66666667 10.8238779,6.18181818 C9.66648041,7.63636364 8.20450468,8.84848485 6.92527591,10.1212121 C5.52421582,11.5151515 4.1840714,13.030303 3.02667394,14.6666667 C0.711879023,18 -0.689181059,22.1212121 0.346385088,26.3030303 C1.38195124,30.4242424 4.67139664,33.030303 8.38725164,34 C6.49886632,33.0909091 4.7323123,30.9090909 4.7323123,28.6060606 C4.7323123,26.1212121 6.19428804,24 8.02175771,22.6060606 C7.77809509,23.5151515 7.65626377,24.3030303 8.20450468,25.0909091 C8.69182992,25.8181818 9.60556476,26.1818182 10.3974683,26 C12.3467693,25.5151515 12.4076849,23.2121212 11.2502875,21.8787879 C10.09289,20.5454545 8.9964082,19.030303 9.42281779,17.0909091 C9.66648041,16.1212121 10.2147213,15.2121212 10.8847935,14.5454545 C10.3365526,16.0606061 11.859444,17.5757576 12.8950102,18.3030303 C14.6615642,19.5757576 16.5499495,20.6060606 18.1337566,22.1212121 C19.8393949,23.6969697 21.057708,25.8787879 20.8140454,28.4242424 C20.5703828,31.1515152 18.5601661,33.030303 16.3062869,34 C21.057708,32.8484848 25.9309605,28.9090909 25.9918761,23.2121212 C26.1746231,18.4242424 23.2506716,14.8484848 19.5957323,12.7878788" id="Shape"></path>
                    <g id="Group" transform="translate(28.000000, 14.000000)">
                        <path d="M10.0433566,4.675 L8.05874126,4.675 L8.05874126,4.675 C8.05874126,3.46071429 7.57762238,2.73214286 6.07412587,2.73214286 C3.84895105,2.73214286 3.12727273,4.25 2.76643357,6.86071429 C2.70629371,7.46785714 2.64615385,8.01428571 2.64615385,8.56071429 C2.64615385,10.0785714 3.12727273,11.1107143 4.87132867,11.1107143 C6.01398601,11.1107143 6.97622378,10.6857143 7.93846154,9.22857143 L9.38181818,10.2 C8.53986014,11.6571429 7.0965035,12.8714286 4.63076923,12.8714286 C1.38321678,12.8714286 0.541258741,10.7464286 0.541258741,8.43928571 C0.541258741,7.89285714 0.601398601,7.40714286 0.661538462,6.86071429 C1.2027972,2.91428571 2.70629371,0.85 6.37482517,0.85 C9.08111888,0.85 10.1636364,2.42857143 10.1636364,4.25 C10.1034965,4.43214286 10.1034965,4.55357143 10.0433566,4.675" id="Shape"></path>
                        <path d="M14.4937063,5.525 C13.2307692,5.525 12.5692308,6.19285714 12.2685315,8.37857143 C12.2083916,8.80357143 12.1482517,9.16785714 12.1482517,9.53214286 C12.1482517,10.8071429 12.6293706,11.2321429 13.6517483,11.2321429 C14.9146853,11.2321429 15.6363636,10.5642857 15.9370629,8.37857143 C15.9972028,7.95357143 16.0573427,7.58928571 16.0573427,7.28571429 C16.0573427,5.95 15.5160839,5.525 14.4937063,5.525 L14.4937063,5.525 Z M18.041958,8.31785714 C17.620979,11.2928571 16.358042,12.8714286 13.4111888,12.8714286 C10.9454545,12.8714286 10.0433566,11.3535714 10.0433566,9.41071429 C10.0433566,9.04642857 10.1034965,8.68214286 10.1034965,8.37857143 C10.5244755,5.34285714 11.7874126,3.88571429 14.7342657,3.88571429 C17.2,3.88571429 18.1622378,5.34285714 18.1622378,7.34642857 C18.1622378,7.58928571 18.1020979,7.95357143 18.041958,8.31785714 L18.041958,8.31785714 Z" id="Shape"></path>
                        <path d="M22.9734266,5.46428571 C21.951049,5.46428571 21.1090909,5.88928571 20.7482517,8.43928571 C20.6881119,8.925 20.627972,9.35 20.627972,9.71428571 C20.627972,10.6857143 20.9286713,11.2928571 22.0713287,11.2928571 C22.4923077,11.2928571 23.213986,11.1714286 23.8755245,10.7464286 L24.5972028,5.82857143 C24.1762238,5.58571429 23.6951049,5.46428571 22.9734266,5.46428571 L22.9734266,5.46428571 Z M25.8,12.6285714 L24.2965035,12.6285714 L24.1160839,12.0214286 C23.5146853,12.5678571 22.7328671,12.8714286 21.8909091,12.8714286 C19.9664336,12.8714286 18.5832168,11.9607143 18.5832168,9.53214286 C18.5832168,9.16785714 18.5832168,8.80357143 18.6433566,8.43928571 C19.1244755,5.1 20.5678322,3.825 23.213986,3.825 C23.7552448,3.825 24.5972028,3.94642857 25.0181818,4.31071429 C24.8979021,4.06785714 24.8979021,3.88571429 24.958042,3.64285714 L25.4391608,0.242857143 L27.5440559,0.242857143 L25.8,12.6285714 L25.8,12.6285714 Z" id="Shape"></path>
                        <path d="M31.9342657,5.525 C30.7314685,5.525 30.1300699,6.01071429 29.8293706,7.46785714 L33.3174825,7.46785714 C33.3776224,7.28571429 33.3776224,7.10357143 33.3776224,6.92142857 C33.3174825,6.01071429 32.8363636,5.525 31.9342657,5.525 L31.9342657,5.525 Z M35.241958,8.98571429 L29.5286713,8.98571429 C29.4685315,9.22857143 29.4685315,9.47142857 29.4685315,9.65357143 C29.4685315,10.6857143 29.9496503,11.1714286 31.0923077,11.1714286 C32.1748252,11.1714286 32.7762238,10.6857143 33.2573427,10.0178571 L34.820979,10.6857143 C34.0993007,12.1428571 32.7160839,12.8714286 30.8517483,12.8714286 C28.4461538,12.8714286 27.3636364,11.5964286 27.3636364,9.41071429 C27.3636364,9.04642857 27.4237762,8.68214286 27.4237762,8.31785714 C27.9048951,5.16071429 29.227972,3.825 32.1146853,3.825 C34.7608392,3.825 35.3622378,5.70714286 35.3622378,7.28571429 C35.4223776,7.77142857 35.3020979,8.37857143 35.241958,8.98571429 L35.241958,8.98571429 Z" id="Shape"></path>
                        <polyline id="Shape" points="41.4363636 2.48928571 40.2937063 2.48928571 39.0307692 11.2928571 40.1734266 11.2928571 39.993007 12.6285714 35.5426573 12.6285714 35.7832168 11.2928571 36.9258741 11.2928571 38.1888112 2.48928571 37.0461538 2.48928571 37.2265734 1.15357143 41.6769231 1.15357143 41.4363636 2.48928571"></polyline>
                        <path d="M45.9468531,5.46428571 C44.7440559,5.46428571 44.0825175,6.13214286 44.0825175,7.34642857 C44.0825175,8.13571429 44.5636364,8.5 45.5258741,8.5 C46.7286713,8.5 47.3902098,7.83214286 47.3902098,6.67857143 C47.3902098,5.88928571 46.9090909,5.46428571 45.9468531,5.46428571 L45.9468531,5.46428571 Z M46.1874126,12.6892857 L43.2405594,12.1428571 C42.7594406,12.6285714 42.579021,12.9928571 42.579021,13.7214286 C42.579021,14.5107143 43.1202797,14.875 44.6839161,14.875 C45.7062937,14.875 47.0293706,14.6928571 47.0293706,13.4178571 C46.9692308,12.9928571 46.7888112,12.75 46.1874126,12.6892857 L46.1874126,12.6892857 Z M50.5174825,5.70714286 L49.9762238,5.70714286 C49.8559441,5.70714286 49.4951049,5.70714286 49.1944056,5.58571429 C49.3748252,5.95 49.434965,6.375 49.434965,6.73928571 C49.434965,9.22857143 47.4503497,10.2 45.2853147,10.2 C44.8041958,10.2 44.3230769,10.1392857 43.9020979,10.0785714 C43.841958,10.0785714 43.7818182,10.0178571 43.7216783,10.0178571 C43.4811189,10.0178571 43.3608392,10.1392857 43.3608392,10.3821429 C43.3608392,10.5642857 43.420979,10.625 43.7818182,10.7464286 L46.848951,11.2928571 C48.5328671,11.5964286 49.1342657,12.325 49.1342657,13.2964286 C49.1342657,16.0285714 46.6083916,16.575 44.4433566,16.575 C42.7594406,16.575 40.5342657,16.0892857 40.5342657,13.9642857 C40.5342657,12.8714286 41.1356643,11.9 42.0377622,11.2928571 C41.8573427,11.05 41.7370629,10.8071429 41.7370629,10.5035714 C41.7370629,9.95714286 42.158042,9.47142857 42.6391608,9.22857143 C42.3384615,8.86428571 42.0979021,8.25714286 42.0979021,7.52857143 C42.0979021,5.03928571 44.0223776,3.825 46.3076923,3.825 C47.0895105,3.825 47.9314685,3.94642857 48.5328671,4.37142857 L49.6153846,3.825 L51.1188811,3.825 L50.5174825,5.70714286 L50.5174825,5.70714286 Z" id="Shape"></path>
                        <path d="M58.5160839,7.225 L57.7342657,12.6285714 L55.6293706,12.6285714 L56.4111888,7.225 C56.4713287,7.04285714 56.4713287,6.86071429 56.4713287,6.67857143 C56.4713287,5.95 56.1706294,5.46428571 55.3888112,5.46428571 C54.7272727,5.46428571 54.0055944,5.82857143 53.3440559,6.19285714 L52.441958,12.5678571 L50.3370629,12.5678571 L51.5398601,4.00714286 L53.2839161,4.00714286 L53.4041958,4.79642857 C54.3664336,4.00714286 55.1482517,3.76428571 56.0503497,3.76428571 C57.7944056,3.76428571 58.5160839,4.91785714 58.5160839,6.43571429 C58.5762238,6.73928571 58.5762238,6.98214286 58.5160839,7.225" id="Shape"></path>
                        <path d="M63.7482517,2.36785714 C63.7482517,2.48928571 63.7482517,2.48928571 63.627972,2.48928571 L61.5832168,2.48928571 C61.4629371,2.48928571 61.4629371,2.48928571 61.4629371,2.36785714 L61.7636364,0.364285714 C61.7636364,0.182142857 61.7636364,0.182142857 61.8839161,0.182142857 L63.9286713,0.182142857 C64.048951,0.182142857 64.048951,0.182142857 64.048951,0.364285714 L63.7482517,2.36785714 Z M63.3272727,12.75 L62.2447552,12.75 C61.041958,12.75 60.4405594,12.2035714 60.4405594,11.1107143 C60.4405594,10.9285714 60.4405594,10.7464286 60.5006993,10.5642857 L61.1622378,6.13214286 C61.1622378,6.01071429 61.2825175,5.82857143 61.4027972,5.64642857 L59.8993007,5.64642857 L60.1398601,4.06785714 L63.627972,4.06785714 L62.7258741,10.5642857 C62.7258741,10.625 62.7258741,10.7464286 62.7258741,10.8071429 C62.7258741,10.9892857 62.786014,11.05 63.0265734,11.05 L63.6881119,11.05 L63.3272727,12.75 L63.3272727,12.75 Z" id="Shape"></path>
                        <path d="M70.4839161,5.70714286 L68.0783217,5.70714286 L67.4167832,10.3214286 C67.4167832,10.3821429 67.4167832,10.5035714 67.4167832,10.5642857 C67.4167832,11.05 67.6573427,11.2928571 68.1986014,11.2928571 C68.9202797,11.2928571 69.2811189,11.05 69.7622378,10.7464286 L70.7244755,11.9607143 C69.9426573,12.6285714 68.9804196,12.9928571 67.7174825,12.9928571 C66.3944056,12.9928571 65.3118881,12.3857143 65.3118881,10.8678571 C65.3118881,10.6857143 65.3118881,10.5035714 65.372028,10.3821429 L65.9132867,6.43571429 C65.9132867,6.25357143 66.0937063,6.01071429 66.213986,5.82857143 L64.7104895,5.82857143 L64.951049,4.25 L66.213986,4.25 L66.634965,1.45714286 L68.8601399,0.85 L68.379021,4.25 L71.2657343,4.25 L70.4839161,5.70714286" id="Shape"></path>
                        <path d="M75.6559441,5.525 C74.4531469,5.525 73.8517483,6.01071429 73.551049,7.46785714 L77.0391608,7.46785714 C77.0993007,7.28571429 77.0993007,7.10357143 77.0993007,6.92142857 C77.0391608,6.01071429 76.558042,5.525 75.6559441,5.525 L75.6559441,5.525 Z M78.9636364,8.98571429 L73.2503497,8.98571429 C73.1902098,9.22857143 73.1902098,9.47142857 73.1902098,9.65357143 C73.1902098,10.6857143 73.6713287,11.1714286 74.813986,11.1714286 C75.8965035,11.1714286 76.4979021,10.6857143 76.979021,10.0178571 L78.5426573,10.6857143 C77.820979,12.1428571 76.4377622,12.8714286 74.5734266,12.8714286 C72.1678322,12.8714286 71.0853147,11.5964286 71.0853147,9.41071429 C71.0853147,9.04642857 71.1454545,8.68214286 71.1454545,8.31785714 C71.6265734,5.16071429 72.9496503,3.825 75.8363636,3.825 C78.4825175,3.825 79.0839161,5.70714286 79.0839161,7.28571429 C79.1440559,7.77142857 79.0237762,8.37857143 78.9636364,8.98571429 L78.9636364,8.98571429 Z" id="Shape"></path>
                        <path d="M85.4587413,5.58571429 C85.0979021,5.58571429 84.7370629,5.525 84.3762238,5.58571429 C83.7748252,5.64642857 83.1734266,5.76785714 82.6321678,6.13214286 L82.0307692,12.6892857 L79.9258741,12.8107143 L80.7076923,4.18928571 L82.4517483,4.12857143 L82.6321678,4.79642857 C83.2937063,4.06785714 84.0153846,3.76428571 84.7370629,3.76428571 C85.0377622,3.76428571 85.3384615,3.76428571 85.6993007,3.825 L85.4587413,5.58571429" id="Shape"></path>
                    </g>
                </g>
            </g>
        </g>
    </g>
</svg>