<?xml version="1.0" encoding="UTF-8"?>
<svg width="160px" height="70px" viewBox="0 0 160 70" version="1.1" xmlns="http://www.w3.org/2000/svg" xmlns:xlink="http://www.w3.org/1999/xlink">
    <!-- Generator: Hyder A. - https://toggle.me -->
    <title>cscart</title>
    <desc>Created with Sketch.</desc>
    <defs></defs>
    <g id="technologies" stroke="none" stroke-width="1" fill="none" fill-rule="evenodd">
        <g id="Ecommerce" transform="translate(-416.000000, -138.000000)">
            <g id="cscart" transform="translate(416.000000, 138.000000)">
                <rect id="Rectangle" fill="#FFFFFF" x="0" y="0" width="160" height="70"></rect>
                <path d="M37,34.5 C37,32.1923077 37,29.8125 37,27.5048077 C37,27.1442308 37.0724638,27 37.4347826,27 C42.1449275,27 46.7826087,27 51.4927536,27 C51.8550725,27 52,27.1442308 52,27.5048077 C52,32.1923077 52,36.8076923 52,41.4951923 C52,41.8557692 51.9275362,42 51.5652174,42 C46.8550725,42 42.1449275,42 37.5072464,42 C37.1449275,42 37.0724638,41.8557692 37.0724638,41.5673077 C37.0724638,39.1875 37,36.8076923 37,34.5 Z" id="Shape" fill="#00CBFE" fill-rule="nonzero"></path>
                <path d="M61.5728155,42 C59.2427184,42 56.8398058,42 54.5097087,42 C54.1456311,42 54,41.9275362 54,41.5652174 C54,36.8550725 54,32.1449275 54,27.5072464 C54,27.1449275 54.0728155,27 54.4368932,27 C59.1699029,27 63.9029126,27 68.5631068,27 C68.9271845,27 69,27.0724638 69,27.4347826 C69,32.1449275 69,36.8550725 69,41.5652174 C69,41.9275362 68.9271845,42 68.5631068,42 C66.3058252,42 63.9757282,42 61.5728155,42 Z" id="Shape" fill="#00CBFE" fill-rule="nonzero"></path>
                <path d="M28.5362319,12.0724638 C30.8550725,12.0724638 33.2463768,12.0724638 35.5652174,12.0724638 C35.9275362,12.0724638 36,12.1449275 36,12.5072464 C36,17.2173913 36,21.9275362 36,26.5652174 C36,26.9275362 35.9275362,27 35.5652174,27 C30.8550725,27 26.1449275,27 21.4347826,27 C21.1449275,27 21,26.9275362 21,26.5652174 C21,21.8550725 21,17.1449275 21,12.4347826 C21,12.0724638 21.1449275,12 21.4347826,12 C23.826087,12.0724638 26.1449275,12.0724638 28.5362319,12.0724638 Z" id="Shape" fill="#00CBFE" fill-rule="nonzero"></path>
                <path d="M37.0724638,50.5 C37.0724638,48.1699029 37.0724638,45.8398058 37.0724638,43.5097087 C37.0724638,43.1456311 37.1449275,43 37.5072464,43 C42.2173913,43 46.9275362,43 51.5652174,43 C51.9275362,43 52,43.0728155 52,43.4368932 C52,48.1699029 52,52.9029126 52,57.5631068 C52,57.9271845 51.9275362,58 51.5652174,58 C46.8550725,58 42.1449275,58 37.4347826,58 C37.0724638,58 37,57.8543689 37,57.5631068 C37.1449275,55.2330097 37.0724638,52.9029126 37.0724638,50.5 Z" id="Shape" fill="#00CBFE" fill-rule="nonzero"></path>
                <path d="M61.6456311,58 C59.2427184,58 56.9126214,58 54.5097087,58 C54.1456311,58 54,57.9271845 54,57.5631068 C54,52.8300971 54,48.1699029 54,43.4368932 C54,43.0728155 54.0728155,43 54.4368932,43 C59.1699029,43 63.9029126,43 68.5631068,43 C68.9271845,43 69,43.0728155 69,43.4368932 C69,48.1699029 69,52.9029126 69,57.5631068 C69,57.9271845 68.9271845,58 68.5631068,58 C66.3058252,58 63.9757282,58 61.6456311,58 Z" id="Shape" fill="#00CBFE" fill-rule="nonzero"></path>
                <path d="M120.743685,47.2551786 C119.904252,48.2243899 118.924913,48.8059167 117.665763,48.9351449 C116.126802,49.1289871 114.727746,48.9351449 113.748408,47.7074772 C112.349352,46.027511 112.978927,43.5721757 115.07751,42.4737362 C116.476566,41.7629812 118.015527,41.5045249 119.624441,41.4399108 C120.673732,41.4399108 120.673732,41.4399108 120.463874,40.4706995 C120.184063,39.1138037 119.134771,38.4676628 117.455905,38.5322769 C116.476566,38.596891 115.497227,38.7907333 114.657794,39.2430319 C114.447935,39.37226 114.377982,39.307646 114.30803,39.1138037 C114.238077,38.9199614 114.168124,38.7261192 114.098171,38.5322769 C113.888313,37.9507501 113.888313,37.9507501 114.517888,37.6922938 C116.056849,37.0461529 117.735716,36.8523107 119.414582,37.110767 C121.303307,37.4338374 122.562457,38.7907333 122.772315,40.7291559 C122.912221,42.2798939 122.842268,43.830632 122.842268,45.4459842 C122.842268,46.4151955 122.842268,47.4490209 122.982174,48.4182322 C123.052126,48.6766885 122.912221,48.8059167 122.63241,48.8059167 C122.212693,48.8059167 121.723024,48.8059167 121.303307,48.8059167 C121.093449,48.8059167 120.953543,48.7413026 120.953543,48.4828463 C120.88359,48.0951617 120.813638,47.7074772 120.743685,47.2551786 Z" id="Shape" fill="#7C7C7C" fill-rule="nonzero"></path>
                <path d="M108.340256,50 C104.727734,50 102.319386,47.8452637 102.036051,44.3003749 C101.82355,41.8676081 102.531887,39.7128718 104.6569,38.2532117 C106.852747,36.724044 109.190261,36.724044 111.669442,37.5581355 C111.952777,37.6276431 112.023611,37.7666583 111.952777,38.0446888 C111.81111,38.392227 111.740276,38.7397651 111.669442,39.0177956 C111.598609,39.2958261 111.527775,39.4348413 111.173606,39.2958261 C110.181933,38.8787803 109.119427,38.7397651 108.056921,38.9482879 C106.286077,39.2263184 105.152736,40.2689328 104.6569,42.0066234 C104.373565,43.0492377 104.373565,44.0223444 104.6569,45.0649588 C105.22357,47.2196951 107.277749,48.4708323 109.615263,48.1232942 C110.181933,48.0537866 110.748604,47.9147713 111.315274,47.7062484 C111.598609,47.5672332 111.740276,47.6367408 111.740276,47.9842789 C111.740276,48.1928018 111.81111,48.331817 111.881944,48.5403399 C112.094445,49.3744314 112.094445,49.3744314 111.24444,49.6524619 C110.252767,49.8609848 109.331928,50 108.340256,50 Z" id="Shape" fill="#7C7C7C" fill-rule="nonzero"></path>
                <path d="M83.3413513,49 C79.4234577,49 76.9302527,46.6010426 77.0014871,43.0350248 C77.0727215,38.9503136 80.4919741,36.5513561 84.9085087,37.0700496 C85.5496186,37.1348863 86.119494,37.2645597 86.6893695,37.4590698 C86.9743072,37.5239065 87.0455416,37.6535798 86.9743072,37.9129266 C86.8318383,38.23711 86.7606039,38.5612934 86.618135,38.8854769 C86.5469006,39.1448236 86.4756662,39.2096603 86.1907285,39.0799869 C84.9797432,38.6261301 83.6975234,38.4964568 82.3440693,38.8854769 C80.634443,39.3393337 79.4946921,40.7657408 79.3522233,42.581168 C79.2809888,43.7482284 79.4946921,44.9152887 80.2782709,45.887839 C81.3467873,47.1845728 82.8427103,47.5087562 84.5523366,47.3790828 C85.122212,47.3142461 85.7633219,47.1845728 86.2619629,46.9900627 C86.4756662,46.925226 86.5469006,46.925226 86.618135,47.1845728 C86.6893695,47.4439195 86.7606039,47.6384296 86.7606039,47.8977763 C86.9030728,48.6109799 86.9030728,48.6109799 86.1907285,48.8054899 C85.2646809,48.8703266 84.2673989,49 83.3413513,49 Z" id="Shape" fill="#7C7C7C" fill-rule="nonzero"></path>
                <path d="M88.440929,46.6240991 C89.1325822,46.9483285 89.8934008,47.2725579 90.6542194,47.3374038 C91.207542,47.4022497 91.83003,47.4670956 92.3833526,47.2725579 C93.1441712,47.0780203 93.6283285,46.6889449 93.7666592,45.9756402 C93.9049898,45.2623355 93.6283285,44.6787225 93.0058406,44.2896472 C92.5908486,43.9654178 92.037526,43.835726 91.5533687,43.6411883 C91.0000461,43.4466507 90.4467234,43.1872671 89.9625662,42.9278836 C88.9250863,42.2794247 88.233433,41.5012741 88.3025983,40.2692023 C88.3717636,38.9722846 89.0634169,37.9995963 90.3083928,37.4808292 C91.9683606,36.7675245 93.6283285,36.8972163 95.2882964,37.5456751 C95.5649577,37.6753669 95.634123,37.8050587 95.4957923,38.0644422 C95.3574617,38.3886716 95.219131,38.6480552 95.1499657,38.9722846 C95.0808004,39.2316681 94.9424697,39.2316681 94.7349737,39.1019764 C93.9049898,38.6480552 93.0058406,38.4535175 91.9683606,38.5832093 C91.1383767,38.7129011 90.5850541,39.1668223 90.4467234,39.880127 C90.3083928,40.5285858 90.5850541,41.0473529 91.3458727,41.4364282 C91.8991953,41.7606577 92.5216833,41.9551953 93.1441712,42.2145789 C93.6974938,42.4091165 94.1816511,42.6685001 94.6658084,42.9927295 C96.7407682,44.4841848 96.3257763,47.5319415 93.9049898,48.5046297 C91.9683606,49.2827804 90.1008968,49.0882427 88.233433,48.3100921 C88.025937,48.2452462 87.9567717,48.1155544 88.025937,47.8561709 C88.1642677,47.5319415 88.3025983,47.0780203 88.440929,46.6240991 Z" id="Shape" fill="#7C7C7C" fill-rule="nonzero"></path>
                <path d="M135,40.5839398 C135,38.7305273 135,36.8771149 135,35.0237024 C135,34.6672769 135.125286,34.5247068 135.375858,34.4534217 C135.814359,34.3108515 136.25286,34.1682813 136.691361,34.0257111 C136.941933,33.954426 137.004576,34.0257111 137.004576,34.3108515 C137.004576,35.0237024 137.004576,35.7365534 137.004576,36.4494043 C137.004576,36.8771149 137.067219,37.0196851 137.50572,37.0196851 C138.194793,36.9484 138.821223,37.0196851 139.510295,37.0196851 C139.82351,37.0196851 139.948796,37.0909701 139.948796,37.4473956 C139.886153,37.8751062 140.136725,38.4453869 139.886153,38.7305273 C139.635581,39.0156677 139.197081,38.8018124 138.821223,38.8018124 C138.320079,38.8018124 137.881578,38.8018124 137.380434,38.8018124 C137.192505,38.8018124 137.067219,38.8018124 137.067219,39.0869528 C137.067219,41.4393609 137.004576,43.791769 137.129862,46.1441771 C137.192505,47.7837343 137.881578,48.28273 139.385009,47.9975896 C139.760867,47.9263045 139.82351,48.0688747 139.82351,48.4253002 C139.82351,48.6391554 139.82351,48.8530107 139.82351,49.066866 C139.886153,49.7084318 139.886153,49.7084318 139.259723,49.851002 C138.633294,49.9935722 138.006864,50.0648573 137.443077,49.9222871 C136.002288,49.6371468 135.187929,48.6391554 135.062643,46.9283132 C135,46.3580324 135,45.7164666 135,45.1461858 C135,43.6491988 135,42.0809268 135,40.5839398 Z" id="Shape" fill="#7C7C7C" fill-rule="nonzero"></path>
                <path d="M129.026044,39.4329562 C129.295465,38.84353 129.632241,38.3195955 130.103727,37.8611528 C130.844634,37.2062347 131.652896,36.9442674 132.663224,37.0097592 C132.932645,37.0097592 133,37.0752511 133,37.3372183 C133,37.795661 133,38.3195955 133,38.7780381 C133,38.9745136 132.932645,39.0400054 132.730579,39.0400054 C130.844634,38.9090218 129.430175,40.0878744 129.295465,41.9871369 C129.160754,44.0828748 129.295465,46.1786128 129.22811,48.2743507 C129.22811,48.9947607 129.295465,48.9292688 128.554558,48.9292688 C128.083071,48.9292688 127.40952,49.1257443 127.140099,48.863777 C126.870678,48.6018098 127.072744,47.9468917 127.072744,47.488449 C127.072744,44.7377929 127.072744,41.9871369 127.072744,39.2364808 C127.072744,38.7125463 127.005388,38.1886118 127.005388,37.5991855 C127.005388,37.4027101 127.072744,37.2717265 127.342164,37.2717265 C127.67894,37.2717265 128.083071,37.3372183 128.419847,37.2717265 C128.823978,37.2062347 128.958689,37.4682019 128.958689,37.795661 C128.958689,38.3850873 128.958689,38.9090218 128.958689,39.4984481 C128.891334,39.3674644 128.958689,39.4329562 129.026044,39.4329562 Z" id="Shape" fill="#7C7C7C" fill-rule="nonzero"></path>
                <path d="M100,47.9775026 C100,48.5130965 99.5609756,48.9513096 99.0243902,49 C98.4878049,49 98,48.5130965 98,47.9775026 C98,47.4419087 98.4878049,47.0036955 99.0243902,47.0036955 C99.5609756,46.9550052 100,47.3932184 100,47.9775026 Z" id="Shape" fill="#7C7C7C" fill-rule="nonzero"></path>
                <path d="M120.933431,44.2656476 C121,45.3906676 120.866862,46.4453739 120.001462,47.2188252 C119.202632,47.9219627 118.270664,48.132904 117.338696,47.9219627 C116.606435,47.7813352 116.20702,47.2188252 116.073881,46.4453739 C115.874174,45.5312951 116.073881,44.6875301 116.739573,44.0547063 C117.405265,43.4218825 118.204095,43.281255 119.002925,43.1406275 C119.535478,43.0703138 120.134601,43 120.667154,43 C120.933431,43 121,43.0703138 121,43.3515688 C120.933431,43.6328238 120.933431,43.9843925 120.933431,44.2656476 Z" id="Shape" fill="#EEEEEE" fill-rule="nonzero"></path>
            </g>
        </g>
    </g>
</svg>