<?xml version="1.0" encoding="UTF-8"?>
<svg width="160px" height="70px" viewBox="0 0 160 70" version="1.1" xmlns="http://www.w3.org/2000/svg" xmlns:xlink="http://www.w3.org/1999/xlink">
    <!-- Generator: Hyder A. - https://toggle.me -->
    <title>debian</title>
    <desc>Created with Sketch.</desc>
    <defs></defs>
    <g id="technologies" stroke="none" stroke-width="1" fill="none" fill-rule="evenodd">
        <g id="OS" transform="translate(-32.000000, -42.000000)">
            <g id="debian" transform="translate(32.000000, 42.000000)">
                <rect id="Rectangle-Copy" fill="#FFFFFF" x="0" y="0" width="160" height="70"></rect>
                <g transform="translate(27.000000, 20.000000)" fill-rule="nonzero">
                    <path d="M14.3145447,0 C13.8321399,0.0402208682 13.3521052,0.0640513039 12.8783336,0.124217712 L13.0872605,0.153087299 C13.4354323,0.0262378835 13.9439688,0.0835417377 14.3145248,0 L14.3145447,0 Z M12.2090552,0.219559242 C11.4253724,0.267002454 10.3373398,0.674072202 10.6730714,0.303483533 C9.3945635,0.872083137 7.12382331,1.6704522 5.84948641,2.86098462 L5.80971634,2.59375791 C5.22585712,3.29198374 3.26342596,4.6791354 3.10711313,5.58433578 L2.95076057,5.6205926 C2.64744349,6.13316133 2.45025495,6.71377179 2.20938356,7.24077202 C1.81220596,7.91558294 1.62710005,7.50082255 1.6836931,7.60670409 C0.902128935,9.18533029 0.513101314,10.5113394 0.178031745,11.5997037 C0.41682426,11.9555113 0.183659272,13.7419365 0.273732804,15.1716967 C-0.118267475,22.2344231 5.24892998,29.0907026 11.1156598,30.673682 C11.9755459,30.9806679 13.2542524,30.9697453 14.3419541,31 C13.0590104,30.6342262 12.89323,30.806395 11.6427274,30.3722102 C10.7410652,29.948684 10.5436383,29.4656247 9.90454984,28.9131649 L10.1572854,29.358325 C8.90466411,28.9165815 9.4290172,28.8115903 8.40970657,28.4901928 L8.6799669,28.1390352 C8.27381835,28.1081011 7.60457962,27.4582881 7.42165189,27.096973 L6.97683893,27.1144254 C6.44336263,26.4591906 6.15846411,25.9852994 6.17951768,25.6184439 L6.03663809,25.8735872 C5.87410849,25.5954709 4.07236639,23.4129776 5.00680067,23.9210481 C4.83322788,23.763601 4.60255887,23.6641107 4.35237889,23.210686 L4.54243702,22.994484 C4.09349941,22.4179761 3.71479334,21.6795558 3.74379165,21.4334025 C3.98361698,21.755862 4.15037054,21.8164967 4.31531004,21.8718482 C3.17967512,19.0652917 3.11591855,21.7173033 2.25636348,19.0149002 L2.43766253,19.0001323 C2.29859641,18.7900842 2.21315731,18.5638962 2.10135491,18.3407884 L2.18088179,17.5552349 C1.36376489,16.6146813 1.95266903,13.5522098 2.07102585,11.8729325 C2.1521152,11.1902067 2.75281728,10.4631574 3.20937522,9.32281865 L2.9316998,9.27515118 C3.46379902,8.35108696 5.96897535,5.56280067 7.12983483,5.70579647 C7.69195194,5.00242596 7.01750278,5.70315817 6.90742835,5.52652405 C8.14243877,4.25354479 8.53067192,4.62712793 9.36400934,4.39785974 C10.2622288,3.86673058 8.59310436,4.60521026 9.01894263,4.19508668 C10.5728021,3.80009374 10.1195545,3.29635013 12.1461262,3.09597132 C12.3600715,3.2169769 11.6502153,3.28331033 11.4721471,3.44041444 C12.7661472,2.80924758 15.5675963,2.95314041 17.3882006,3.79022651 C19.4989866,4.77378437 21.8718829,7.67987071 21.9657633,10.4136761 L22.0729247,10.4418795 C22.0190858,11.5288587 22.2399563,12.786338 21.8565827,13.9407257 L22.1153827,13.3935095 C22.1464334,14.2240461 21.8721676,14.6276398 21.6240599,15.3413657 L21.1778963,15.5622705 C20.8131597,16.2684112 21.2140118,16.0107219 20.9527952,16.5720794 C20.38274,17.0763968 19.2253431,18.1496503 18.8547208,18.2479929 C18.5838382,18.2421886 19.0379928,17.92957 19.0973467,17.8075355 C18.3351147,18.3286918 18.4854226,18.5900549 17.3194454,18.9073104 L17.2857465,18.8314395 C14.4113382,20.1790167 10.4181775,17.5087943 10.4704804,13.8662268 C10.4401116,14.0972428 10.3830088,14.0399653 10.3195104,14.1327873 C10.1711291,12.2588695 11.1884668,10.3763772 12.9041342,9.60665345 C14.5821965,8.77954671 16.5494475,9.11886494 17.7506265,10.2357822 C17.0908553,9.37431165 15.7770198,8.46053679 14.2203796,8.54509427 C12.6948564,8.56984152 11.2667887,9.5353798 10.7905675,10.5842356 C10.0093344,11.0741149 9.91836708,12.4736534 9.57813342,12.730162 C9.11953633,16.0854188 10.4400057,17.5342407 12.6736704,19.2397031 C13.0242587,19.4755274 12.7723177,19.5121272 12.8192446,19.6915777 C12.077338,19.3457429 11.3981286,18.822654 10.8391496,18.1828665 C11.1359123,18.6149869 11.4559001,19.0352349 11.8696491,19.3652861 C11.1695186,19.1298047 10.2346208,17.6767088 9.96231475,17.6175449 C11.1683269,19.7688799 14.8548204,21.3900487 16.7861876,20.5853015 C15.8924701,20.6183001 14.7574973,20.6036971 13.7540099,20.2341439 C13.3312966,20.0179089 12.7585335,19.5703479 12.8610207,19.4868457 C15.4959612,20.4669738 18.2174994,20.2288014 20.4972436,18.408507 C21.0776535,17.9581625 21.7111343,17.1927788 21.894393,17.1824894 C21.6186839,17.5957064 21.9418165,17.3810742 21.7299435,17.745819 C22.3068974,16.8172697 21.4785453,17.3676453 22.327077,16.1424588 L22.6397954,16.5721717 C22.5224714,15.8007331 23.6014404,14.8650604 23.4916705,13.6461003 C23.7390831,13.2734471 23.7667308,14.0476626 23.5044748,14.9050306 C23.8685228,13.9537919 23.601361,13.8007706 23.6945329,13.0156128 C23.7949479,13.2796274 23.9284924,13.5599862 23.9964663,13.8387621 C23.7590575,12.9191829 24.2389929,12.2905423 24.3583825,11.7559569 C24.2403699,11.7043914 23.9917392,12.1621033 23.9344576,11.076463 C23.9430843,10.6048077 24.0671348,10.8294127 24.114406,10.713222 C24.0219292,10.659935 23.7778601,10.2987518 23.6298296,9.6053343 C23.7364547,9.44204338 23.9168798,10.0274424 24.0631889,10.0511673 C23.9689841,9.50009915 23.8072424,9.07981152 23.8003437,8.65662836 C23.3724596,7.76626841 23.6487381,8.77580693 23.3022877,8.27458288 C22.8467957,6.86032271 23.6797292,7.94586402 23.7363223,7.30368885 C24.4257936,8.29892119 24.8188598,9.84252398 25,10.4815859 C24.8619733,9.70223243 24.6394079,8.94734913 24.3671482,8.21687009 C24.5772933,8.30522013 24.0293311,6.61344388 24.6401031,7.73344138 C23.9882634,5.3459127 21.8524911,3.11503303 19.8872925,2.06855173 C20.1271179,2.28753714 20.4303489,2.56238194 20.3220024,2.60569622 C19.3440707,2.02643788 19.5158758,1.9809602 19.3757835,1.73617882 C18.5803822,1.41337635 18.5278145,1.76263437 18.0015414,1.73683444 C16.5005145,0.943431976 16.2111934,1.02732988 14.8298673,0.530933928 L14.8925447,0.823679585 C13.8983924,0.493654763 13.7339362,0.948781127 12.6596744,0.824998734 C12.5945342,0.774528074 13.0031456,0.6406344 13.3404066,0.59201055 C12.3806153,0.717989327 12.4244438,0.403246852 11.4843158,0.626935033 C11.7158587,0.465016028 11.9617552,0.356885343 12.2088102,0.2193772 L12.2090552,0.219559242 Z M12.9847932,0.399504425 C13.260158,0.448319552 13.5799671,0.486258292 13.5340729,0.551918958 C13.8363506,0.485572334 13.9040597,0.425630181 12.9847932,0.399504425 Z M13.5340729,0.551918958 L13.3419955,0.592199188 L13.5212687,0.575413011 L13.5340729,0.551918958 Z M0.847641234,6.63708963 C0.928042041,7.3775942 0.288682164,7.66576241 0.989176844,7.17691859 C1.36530088,6.33332248 0.842814802,6.94373253 0.847641234,6.63708963 Z M0.276122848,8.98979276 C-0.170053963,9.55839237 0.0703142602,9.67937816 0.0233873068,10.0660868 C0.185221738,9.57208514 0.214359086,9.27611416 0.276122848,8.98979276 Z M18.6516532,12.4241985 C18.5878635,12.4257815 18.5061981,12.5870871 18.4649649,12.7632727 C18.5608911,12.8134729 18.6370084,13.4159087 18.7298294,13.0432621 C18.761231,12.5807156 18.7154495,12.4225693 18.6516532,12.4241985 L18.6516532,12.4241985 Z M24.2900378,13.9825757 L24.2145561,14.1725926 C24.0758409,15.1550952 23.7751191,16.1271764 23.315476,17.0288811 C23.8234165,16.0776424 24.1509982,15.0369653 24.2900312,13.9825691 L24.2900378,13.9825757 Z M18.3180401,14.3290372 C18.2486825,14.6693711 18.0640202,14.9636404 17.888726,15.2744056 C16.9249624,15.8791038 17.7976462,14.9153925 17.888068,14.5486096 C16.8521396,15.8490931 17.7454068,15.3280291 17.7074442,15.6913888 C18.0155943,15.2688916 18.2390336,14.8068991 18.3180573,14.3290372 L18.3180401,14.3290372 Z M16.2159271,16.313104 C15.7973583,16.4152061 15.3707388,16.4177521 14.9407958,16.3789031 C14.4252613,16.3857429 15.037907,16.6427001 15.7111049,16.7461741 C15.8977865,16.6011007 16.0654537,16.4554204 16.2159007,16.313104 L16.2159271,16.313104 Z M9.70878473,16.3802421 C9.8226594,16.7965525 10.0558575,17.1545828 10.2722193,17.5189979 L10.1131656,17.0523553 C9.93372691,16.8543444 9.82818099,16.6167656 9.70878473,16.3802487 L9.70878473,16.3802421 Z M9.31249429,17.0838764 L9.2397072,17.4437668 C9.57890804,17.9027055 9.84793692,18.3995566 10.2803362,18.757112 C9.96908102,18.1524139 9.73833256,17.9027649 9.31253402,17.0839028 L9.31249429,17.0838764 Z" id="path824" fill="#A80030"></path>
                    <path d="M60.4841252,3.00080397 C58.3523658,3.99477422 57.0387267,4.16025727 55.6291037,4.29317969 C56.9084248,4.82197508 56.9082257,7.00911162 56.9082257,14.1283666 L56.9082257,22.2732145 C56.9082257,24.7242396 56.9077677,26.1130243 56.5141273,27.1720488 C57.8592964,27.7022712 59.5314481,27.999665 61.5337022,27.999665 C62.8130234,27.999665 66.5202204,27.9996576 68.5207487,23.8615168 C69.4722907,21.9407075 69.7998707,19.35743 69.7998707,17.403725 C69.7998707,16.2117781 69.6679691,13.5974809 68.7171639,11.9410425 C67.799608,10.3861048 66.3224112,9.59071419 64.7485667,9.59071419 C61.5986872,9.59071419 60.6808657,12.238577 60.1894625,13.596275 C60.1894625,11.9076779 60.2220545,6.01353343 60.4839991,3 L60.4841252,3.00080397 Z M42.1230486,3.06779445 C40.9428312,3.63160257 39.9248439,3.99617446 37.6939807,4.19408415 C38.5796748,5.15448881 38.5789446,5.649933 38.5789446,10.0196235 C37.9566222,9.82168699 37.1695871,9.58975613 35.8244181,9.58975613 C29.9523385,9.59047099 29,14.7565121 29,18.5988677 C29,27.9355956 33.9217323,27.9355956 34.643205,27.9355956 C36.6772546,27.9355956 37.9896325,26.8097079 38.5468172,24.8567399 L38.6118088,27.8016012 C39.2355518,27.7680155 39.8587371,27.7025124 40.8754632,27.7025124 C41.2365447,27.7025124 41.5316521,27.7024266 41.7950106,27.7360244 C42.0576786,27.7360244 42.3197759,27.7680356 42.6149895,27.8016213 C42.0903703,26.7425968 41.6968361,24.3589039 41.6968361,19.1918129 C41.6968361,14.1589843 41.6965241,5.65101166 42.1227366,3.06760016 L42.1230486,3.06779445 Z M96.8471683,9.3595002 C96.0259281,9.78824869 95.1740209,10.2189401 92.5162748,10.3517955 C92.8759358,10.6826477 93.2052218,10.9809527 93.3680493,12.2736098 C93.6654004,14.3916589 93.5341559,23.3314954 93.4676044,25.1531489 C93.4024867,27.00676 93.2710962,27.2719349 93.0417039,27.8021506 C93.6965985,27.702834 94.2214567,27.6709567 95.009441,27.6709567 C95.993575,27.6709567 96.6827211,27.736413 97.2399059,27.8021506 C96.9121068,26.6423623 96.9122329,26.2476149 96.880371,22.0087029 C96.880371,17.1087967 96.8790434,15.8495176 97.1403441,14.6912703 C97.37044,13.5651146 97.994641,12.174856 99.8644691,12.174856 C101.768947,12.174856 101.931642,13.697635 101.99676,14.2600094 C102.096587,15.053926 102.096321,17.3065724 102.096321,18.8629171 L102.096321,22.4386239 C102.096321,23.3333043 102.030208,25.8834852 101.931768,26.6437693 C101.86665,27.2075774 101.799309,27.3733686 101.66904,27.8035576 C102.292776,27.7049444 102.718757,27.6374715 103.506807,27.6374715 C104.850582,27.6374715 105.277133,27.7378132 106,27.8035576 C105.541222,26.8431529 105.541003,25.6512729 105.507727,24.5251172 L105.507727,14.555936 C105.474471,12.5700724 105.442742,9.55660592 101.341387,9.55660592 C98.0598782,9.55660592 97.2402311,11.840942 96.8472679,12.8685448 L96.8471683,9.3595002 Z M75.7778313,9.39159855 C74.5317659,9.98756532 73.7770375,10.1857832 71.0873631,10.4508911 C71.5468514,10.7817433 71.841295,10.979653 72.0055165,12.238778 C72.2349022,13.8944794 72.2021907,21.7751574 72.0705015,24.7230336 C71.9720881,26.8739113 71.8410362,27.1723168 71.5132371,27.8018893 C72.2665052,27.7032762 72.9903675,27.6372035 74.0382253,27.6372035 C74.9897673,27.6372035 75.4498397,27.7025861 76.1068584,27.8018893 C75.3839918,26.4441913 75.4173804,25.2204207 75.4818343,13.7947876 C75.4818343,11.5774487 75.5164841,10.8470454 75.7777516,9.39146456 L75.7778313,9.39159855 Z M50.0400639,9.55768458 C43.3484037,9.55768458 43.3484037,17.0419402 43.3484037,18.6297735 C43.3484037,25.3509313 46.3324022,28 51.3517116,28 C53.5811808,28 54.6662772,27.6703537 55.2567178,27.5031422 C55.2241258,26.3111952 55.3875906,25.5495042 55.5858246,24.5233753 C54.8955501,24.9549846 54.0099224,25.5184845 52.0417206,25.5184845 C46.9236394,25.5184845 46.8576587,20.8140091 46.8576587,19.1918732 L55.5858246,19.1918732 L55.6494156,17.2407142 C55.6494156,13.3661999 54.8948199,9.55747689 50.0394001,9.55747689 L50.0400639,9.55768458 Z M84.2491107,9.58978293 C81.0022515,9.58978293 79.1011589,10.5837532 78.1496169,11.0803363 C78.5439675,11.8091987 78.8714214,12.4362924 79.1659447,13.8619255 C80.4467263,12.7357698 82.1197409,12.1396958 83.824551,12.1396958 C86.5488752,12.1396958 86.548676,13.9612823 86.548676,16.5430189 C85.9249331,16.5108602 85.3995903,16.4453236 84.5132324,16.4453236 C80.3452992,16.4460606 77.5899097,18.0670575 77.5899097,22.5053531 C77.5899097,24.5919134 78.2133407,26.6769999 80.0513069,27.5716803 C80.8711531,27.9361182 81.6920614,27.9359574 81.9553866,27.935944 C84.9742341,27.935944 85.9902964,25.6838336 86.6139929,24.29324 C86.580737,25.7502948 86.6137606,26.6422283 86.712174,27.8019496 C87.3026345,27.7683639 87.8927897,27.7028608 88.8776539,27.7028608 C89.4348453,27.7028608 89.960427,27.7683907 90.5176782,27.8019496 C90.1566033,27.2395685 89.9606726,26.9076042 89.860852,25.6163004 C89.7957343,24.3586292 89.7944731,23.1005561 89.7944731,21.3455648 L89.8290565,14.5902385 C89.8290565,12.0727522 89.1707235,9.58956854 84.2495089,9.58956854 L84.2491107,9.58978293 Z M49.712152,11.7098419 C52.2715245,11.7098419 52.4668113,14.5570213 52.4016936,16.9087565 L46.793072,16.9087565 C46.8263279,14.160465 47.3835657,11.7098419 49.712152,11.7098419 Z M36.2505044,11.9415249 C37.3662679,11.9415249 37.9902963,12.2737974 38.4823633,12.5374782 L38.5141654,14.6910358 C38.4823035,14.7246215 38.4818323,20.0548305 38.4159844,21.4463621 C38.3508467,22.5711108 38.2514774,24.9885703 35.8896022,24.9885703 C33.4619255,24.9885703 32.8714185,22.1735495 32.674605,20.9495109 C32.4452126,19.5918129 32.44506,18.4649203 32.44506,17.9697441 C32.44506,16.3797668 32.5434734,11.9418062 36.2504978,11.9418062 L36.2505044,11.9415249 Z M63.3364279,12.605869 C65.8299525,12.605869 66.3218868,16.0826879 66.3218868,18.6644915 C66.3218868,21.7436152 65.7646224,25.8827683 61.9591978,25.8827683 C61.4338683,25.8827683 60.7785821,25.7817969 60.352363,25.6831837 C60.2865151,24.4912368 60.2859841,22.438309 60.2859841,20.0544151 C60.2859841,17.2060967 60.5806401,15.7184242 60.8114463,14.9880879 C61.4995967,12.6378266 63.0419112,12.605668 63.3364346,12.605668 L63.3364279,12.605869 Z M84.8724088,18.4314083 L86.6119351,18.4314083 C86.5468174,20.5179686 86.5137076,21.9750904 85.9551023,23.1334048 C85.2662218,24.6240252 84.1186628,25.0538791 83.2655607,25.0538791 C81.2952349,25.0538791 80.8705425,23.3989146 80.8705425,21.7768458 C80.8705425,18.6648265 83.626994,18.4314083 84.8723292,18.4314083 L84.8724088,18.4314083 Z" id="path848" fill="#000000"></path>
                    <polyline id="path860" fill="#A80030" points="76 4.5 73.499328 7 71 4.5 73.499328 2 76 4.5"></polyline>
                </g>
            </g>
        </g>
    </g>
</svg>