<?xml version="1.0" encoding="UTF-8"?>
<svg width="160px" height="70px" viewBox="0 0 160 70" version="1.1" xmlns="http://www.w3.org/2000/svg" xmlns:xlink="http://www.w3.org/1999/xlink">
    <!-- Generator: Hyder A. - https://toggle.me -->
    <title>discourse</title>
    <desc>Created with Sketch.</desc>
    <defs></defs>
    <g id="technologies" stroke="none" stroke-width="1" fill="none" fill-rule="evenodd">
        <g id="Forums" transform="translate(-416.000000, -42.000000)">
            <g id="discourse" transform="translate(416.000000, 42.000000)">
                <rect id="Rectangle-Copy-3" fill-opacity="0.219999999" fill="#FFFFFF" x="0" y="0" width="160" height="70"></rect>
                <path d="M36,19 C27.1377246,19 20,26.1856287 20,35 L20,51 L36,51 C44.8143713,51 52,43.8622754 52,35 C52,26.1377246 44.8143713,19 36,19 Z" id="Shape" fill="#231F20" fill-rule="nonzero"></path>
                <path d="M34.8548387,37.1451613 L28.6612903,31 C28.6612903,31.2419355 28.6612903,31.483871 28.6612903,31.7741935 L26,46 L40.2258065,43.3387097 C40.4677419,43.3387097 40.7096774,43.3387097 41,43.3387097 L34.8548387,37.1451613 Z" id="Shape" fill="#E51B24" fill-rule="nonzero"></path>
                <path d="M34.8548387,37 L26,46 L40.2258065,43.295082 C40.4677419,43.295082 40.7096774,43.295082 41,43.295082 L34.8548387,37 Z" id="Shape" fill="#00AEEF" fill-rule="nonzero"></path>
                <circle id="Oval" fill="#00AEEF" fill-rule="nonzero" cx="37" cy="37" r="10"></circle>
                <circle id="Oval" fill="#E51B24" fill-rule="nonzero" cx="35" cy="34" r="10"></circle>
                <polygon id="Shape" fill="#231F20" fill-rule="nonzero" points="55 33 58 33 58 45 55 45"></polygon>
                <path d="M55.9753086,26 C56.5185185,26 57.0123457,26.195122 57.4074074,26.5853659 C57.8024691,26.9756098 58,27.4634146 58,28 C58,28.5365854 57.8024691,29.0243902 57.4074074,29.4146341 C57.0123457,29.804878 56.5679012,30 56.0246914,30 C55.4814815,30 54.9876543,29.804878 54.5925926,29.4146341 C54.1975309,29.0243902 54,28.5365854 54,27.9512195 C54,27.4146341 54.1975309,26.9268293 54.5925926,26.5365854 C54.9876543,26.195122 55.4320988,26 55.9753086,26 Z" id="Shape" fill="#231F20" fill-rule="nonzero"></path>
                <path d="M67.801105,34.0780669 L65.8121547,36.0111524 C65.0165746,35.2379182 64.2707182,34.8513011 63.6243094,34.8513011 C63.2762431,34.8513011 62.9779006,34.9479554 62.7790055,35.0929368 C62.5801105,35.2379182 62.480663,35.4312268 62.480663,35.6245353 C62.480663,35.7695167 62.5303867,35.9628253 62.679558,36.0594796 C62.8287293,36.204461 63.1270718,36.3977695 63.6243094,36.6394052 L64.7679558,37.2193309 C66.0110497,37.7992565 66.8563536,38.4275093 67.3038674,39.0074349 C67.7513812,39.6356877 68,40.3122677 68,41.133829 C68,42.2453532 67.6022099,43.1152416 66.7569061,43.8884758 C65.9116022,44.6133829 64.8176796,45 63.4254144,45 C61.5856354,45 60.0939227,44.2750929 59,42.8736059 L60.9392265,40.795539 C61.2872928,41.2304833 61.7348066,41.5687732 62.2320442,41.8104089 C62.7292818,42.0520446 63.1767956,42.197026 63.5745856,42.197026 C63.9723757,42.197026 64.320442,42.1003717 64.5690608,41.9070632 C64.8176796,41.7137546 64.9668508,41.472119 64.9668508,41.2304833 C64.9668508,40.7472119 64.519337,40.3122677 63.5745856,39.8289963 L62.480663,39.2973978 C60.441989,38.2825279 59.3977901,37.0260223 59.3977901,35.527881 C59.3977901,34.5613383 59.7955801,33.739777 60.5414365,33.0148699 C61.3370166,32.33829 62.281768,32 63.5248619,32 C64.3701657,32 65.1160221,32.1933086 65.8618785,32.5315985 C66.6077348,32.8698885 67.2541436,33.401487 67.801105,34.0780669 Z" id="Shape" fill="#231F20" fill-rule="nonzero"></path>
                <path d="M82,34.8619403 L79.370229,36.2686567 C78.8740458,35.7835821 78.3778626,35.3955224 77.8816794,35.2014925 C77.3854962,35.0074627 76.8396947,34.9104478 76.1946565,34.9104478 C75.0038168,34.9104478 74.0610687,35.25 73.3167939,35.9291045 C72.5725191,36.608209 72.2251908,37.5298507 72.2251908,38.5970149 C72.2251908,39.6641791 72.5725191,40.488806 73.2671756,41.1679104 C73.9618321,41.8470149 74.9045802,42.1865672 76.0458015,42.1865672 C77.4847328,42.1865672 78.5763359,41.7014925 79.370229,40.7798507 L81.851145,42.4291045 C80.5114504,44.1753731 78.5763359,45 76.0954198,45 C73.8625954,45 72.1259542,44.369403 70.8854962,43.0597015 C69.6450382,41.75 69,40.2462687 69,38.5485075 C69,37.3358209 69.2977099,36.2686567 69.8931298,35.25 C70.4885496,34.2313433 71.3816794,33.4552239 72.4732824,32.8731343 C73.5648855,32.2910448 74.8053435,32 76.1450382,32 C77.3854962,32 78.5267176,32.2425373 79.519084,32.7276119 C80.5114504,33.261194 81.3549618,33.9402985 82,34.8619403 Z" id="Shape" fill="#231F20" fill-rule="nonzero"></path>
                <path d="M89.4269663,33 C90.5955056,33 91.7153558,33.2910448 92.7378277,33.8731343 C93.7602996,34.4552239 94.588015,35.2313433 95.1235955,36.25 C95.7078652,37.2686567 96,38.3358209 96,39.5 C96,40.6641791 95.7078652,41.7313433 95.1235955,42.75 C94.5393258,43.7686567 93.7602996,44.5447761 92.7378277,45.1268657 C91.7153558,45.7089552 90.6441948,46 89.4269663,46 C87.6254682,46 86.1161049,45.369403 84.8988764,44.108209 C83.6329588,42.8470149 83,41.2947761 83,39.5 C83,37.5597015 83.7303371,35.9589552 85.1423221,34.6977612 C86.3595506,33.5335821 87.7715356,33 89.4269663,33 Z M89.4756554,35.9104478 C88.5018727,35.9104478 87.7228464,36.25 87.0411985,36.9291045 C86.4082397,37.608209 86.0674157,38.4328358 86.0674157,39.5 C86.0674157,40.5671642 86.4082397,41.4402985 87.0411985,42.119403 C87.6741573,42.7985075 88.5018727,43.1380597 89.4756554,43.1380597 C90.4494382,43.1380597 91.2771536,42.7985075 91.9101124,42.119403 C92.5430712,41.4402985 92.8838951,40.5671642 92.8838951,39.5 C92.8838951,38.4328358 92.5430712,37.5597015 91.9101124,36.9291045 C91.2771536,36.2014925 90.4494382,35.9104478 89.4756554,35.9104478 Z" id="Shape" fill="#231F20" fill-rule="nonzero"></path>
                <path d="M97,33 L100.177778,33 L100.177778,39.1264368 C100.177778,40.3218391 100.275556,41.1187739 100.422222,41.6168582 C100.568889,42.0651341 100.862222,42.4137931 101.204444,42.7126437 C101.546667,42.9616858 101.986667,43.1111111 102.524444,43.1111111 C103.062222,43.1111111 103.502222,42.9616858 103.844444,42.7126437 C104.186667,42.4636015 104.48,42.0651341 104.675556,41.6168582 C104.822222,41.2681992 104.871111,40.4712644 104.871111,39.2758621 L104.871111,33 L108,33 L108,38.3793103 C108,40.5708812 107.804444,42.1149425 107.462222,42.9118774 C107.022222,43.908046 106.435556,44.6551724 105.604444,45.2030651 C104.773333,45.7509579 103.746667,46 102.475556,46 C101.106667,46 99.9822222,45.7011494 99.1511111,45.0536398 C98.32,44.4559387 97.7333333,43.559387 97.3911111,42.4636015 C97.1466667,41.7164751 97.0488889,40.2720307 97.0488889,38.2796935 L97.0488889,33 L97,33 Z" id="Shape" fill="#231F20" fill-rule="nonzero"></path>
                <path d="M110,32.3473282 L112.810219,32.3473282 L112.810219,33.9351145 C113.116788,33.2900763 113.525547,32.8435115 114.036496,32.4961832 C114.547445,32.148855 115.109489,32 115.671533,32 C116.080292,32 116.540146,32.0992366 117,32.3473282 L115.978102,35.0763359 C115.620438,34.8778626 115.262774,34.778626 115.058394,34.778626 C114.547445,34.778626 114.138686,35.0763359 113.781022,35.6717557 C113.423358,36.2671756 113.270073,37.4580153 113.270073,39.2442748 L113.270073,39.8396947 L113.270073,45 L110.051095,45 L110.051095,32.3473282 L110,32.3473282 Z" id="Shape" fill="#231F20" fill-rule="nonzero"></path>
                <path d="M125.801105,34.0780669 L123.812155,36.0111524 C123.016575,35.2379182 122.270718,34.8513011 121.624309,34.8513011 C121.276243,34.8513011 120.977901,34.9479554 120.779006,35.0929368 C120.58011,35.2379182 120.480663,35.4312268 120.480663,35.6245353 C120.480663,35.7695167 120.530387,35.9628253 120.679558,36.0594796 C120.828729,36.204461 121.127072,36.3977695 121.624309,36.6394052 L122.767956,37.2193309 C124.01105,37.7992565 124.856354,38.4275093 125.303867,39.0074349 C125.751381,39.6356877 126,40.3122677 126,41.133829 C126,42.2453532 125.60221,43.1152416 124.756906,43.8884758 C123.911602,44.6133829 122.81768,45 121.425414,45 C119.585635,45 118.093923,44.2750929 117,42.8736059 L118.939227,40.795539 C119.287293,41.2304833 119.734807,41.5687732 120.232044,41.8104089 C120.729282,42.0520446 121.176796,42.197026 121.574586,42.197026 C121.972376,42.197026 122.320442,42.1003717 122.569061,41.9070632 C122.81768,41.7137546 122.966851,41.472119 122.966851,41.2304833 C122.966851,40.7472119 122.519337,40.3122677 121.574586,39.8289963 L120.480663,39.2973978 C118.441989,38.2825279 117.39779,37.0260223 117.39779,35.527881 C117.39779,34.5613383 117.79558,33.739777 118.541436,33.0148699 C119.337017,32.33829 120.281768,32 121.524862,32 C122.370166,32 123.116022,32.1933086 123.861878,32.5315985 C124.607735,32.8698885 125.303867,33.401487 125.801105,34.0780669 Z" id="Shape" fill="#231F20" fill-rule="nonzero"></path>
                <path d="M139.951493,39.4216418 L130.007463,39.4216418 C130.152985,40.2947761 130.541045,40.9738806 131.171642,41.5074627 C131.802239,42.0410448 132.578358,42.2835821 133.548507,42.2835821 C134.712687,42.2835821 135.682836,41.8955224 136.55597,41.0708955 L139.175373,42.2835821 C138.544776,43.2052239 137.768657,43.8843284 136.847015,44.3208955 C135.925373,44.7574627 134.858209,45 133.597015,45 C131.656716,45 130.104478,44.369403 128.843284,43.1567164 C127.630597,41.9440299 127,40.391791 127,38.5485075 C127,36.6567164 127.630597,35.1044776 128.843284,33.8432836 C130.05597,32.5820896 131.559701,32 133.402985,32 C135.343284,32 136.94403,32.630597 138.156716,33.8432836 C139.369403,35.1044776 140,36.7537313 140,38.7910448 L139.951493,39.4216418 Z M136.847015,36.9962687 C136.652985,36.3171642 136.216418,35.7350746 135.634328,35.2985075 C135.052239,34.8619403 134.324627,34.6679104 133.548507,34.6679104 C132.675373,34.6679104 131.947761,34.9104478 131.268657,35.3955224 C130.880597,35.6865672 130.492537,36.2201493 130.152985,36.9962687 L136.847015,36.9962687 Z" id="Shape" fill="#231F20" fill-rule="nonzero"></path>
                <path d="M36,25 C30.4607843,25 26,29.4607843 26,35 C26,40.5392157 30.4607843,45 36,45 C41.5392157,45 46,40.5392157 46,35 C46,29.4607843 41.5392157,25 36,25 Z M34.9215686,43.9215686 C32.7156863,43.9215686 30.7058824,43.2352941 29.0392157,42.0098039 C27.8627451,40.3431373 27.127451,38.3333333 27.127451,36.127451 C27.127451,30.5882353 31.5882353,26.127451 37.127451,26.127451 C39.3333333,26.127451 41.3431373,26.8137255 43.0098039,28.0392157 C44.1862745,29.7058824 44.9215686,31.7156863 44.9215686,33.9215686 C44.9215686,39.4607843 40.4117647,43.9215686 34.9215686,43.9215686 Z" id="Shape" fill="#F15C22" fill-rule="nonzero"></path>
                <path d="M43.1165448,28 L43.0188524,28.0974212 C44.1911606,29.7535817 44.9238532,31.7507163 44.9238532,33.9426934 C44.9238532,39.4469914 40.4788513,43.8796562 34.9592334,43.8796562 C32.7611555,43.8796562 30.7584623,43.1977077 29.0976924,41.9799427 L29.0976924,41.9799427 L29,42.0773639 C30.8073085,43.8796562 33.2984635,45 36.0338493,45 C41.5534671,45 45.9984691,40.5673352 45.9984691,35.0630372 C46.0473153,32.286533 44.9238532,29.8022923 43.1165448,28 Z" id="Shape" fill="#00A950" fill-rule="nonzero"></path>
                <path d="M34.557554,36.442446 L30.1151079,32 C30.0683453,32.2338129 30.0215827,32.4208633 30.0215827,32.6546763 L26,45 L38.3453237,41.0251799 C38.5791367,40.9784173 38.7661871,40.9784173 39,40.9316547 L34.557554,36.442446 Z" id="Shape" fill="#F15C22" fill-rule="nonzero"></path>
                <path d="M34.557554,37 L26,46 L38.3453237,41.8196721 C38.5791367,41.7704918 38.7661871,41.7704918 39,41.7213115 L34.557554,37 Z" id="Shape" fill="#00A950" fill-rule="nonzero"></path>
                <path d="M34.6798419,36.3543307 L31.312253,33 C31.2648221,33.1889764 31.2173913,33.3779528 31.1225296,33.5669291 L26,45 L37.43083,39.8976378 C37.6205534,39.8503937 37.8102767,39.8031496 38,39.7086614 L34.6798419,36.3543307 Z" id="Shape" fill="#F0EA89" fill-rule="nonzero"></path>
                <path d="M36.553719,27 C31.261708,27 27,31.5123967 27,37.1157025 C27,39.3471074 27.6556474,41.3801653 28.8264463,43.0661157 C30.4187328,44.2561983 32.338843,45 34.446281,45 C39.738292,45 44,40.4876033 44,34.8842975 C44,32.6528926 43.3443526,30.6198347 42.1735537,28.9338843 C40.5812672,27.6942149 38.661157,27 36.553719,27 Z" id="Shape" fill="#F0EA89" fill-rule="nonzero"></path>
            </g>
        </g>
    </g>
</svg>