<?xml version="1.0" encoding="UTF-8"?>
<svg width="160px" height="70px" viewBox="0 0 160 70" version="1.1" xmlns="http://www.w3.org/2000/svg" xmlns:xlink="http://www.w3.org/1999/xlink">
    <!-- Generator: Sketch 47.1 (45422) - http://www.bohemiancoding.com/sketch -->
    <title>django</title>
    <desc>Created with Sketch.</desc>
    <defs></defs>
    <g id="technologies" stroke="none" stroke-width="1" fill="none" fill-rule="evenodd">
        <g id="Web-frameworks" transform="translate(-416.000000, -232.000000)">
            <g id="django" transform="translate(416.000000, 232.000000)">
                <rect id="Rectangle-Copy-12" fill="#FFFFFF" x="0" y="0" width="160" height="70"></rect>
                <g transform="translate(33.000000, 19.000000)" id="Shape" fill-rule="nonzero" fill="#092E20">
                    <path d="M10.9300202,0 L16,0 L16,24.2846217 C13.3991717,24.7956062 11.4896464,25 9.4157375,25 C3.22629287,24.9997802 0,22.1044211 0,16.5510633 C0,11.2023191 3.42402039,7.72762437 8.72422215,7.72762437 C9.54720187,7.72762437 10.1726665,7.79553586 10.9300202,7.99992967 L10.9300202,0 Z M10.9300202,12.2240684 C10.3374748,12.0198943 9.84368695,11.9517631 9.21822236,11.9517631 C6.65031326,11.9517631 5.16873739,13.5871333 5.16873739,16.4486466 C5.16873739,19.2424682 6.58447489,20.7754218 9.18530318,20.7754218 C9.744717,20.7754218 10.205798,20.7413561 10.9300202,20.639379 L10.9300202,12.2240684 Z"></path>
                    <path d="M24,7.80770022 L24,19.5683435 C24,23.6205353 23.704943,25.5640656 22.819772,27.244279 C21.9999577,28.8588225 20.9178705,29.8797869 18.6885509,31 L14,28.7597864 C16.2295311,27.7056682 17.3114068,26.7835273 17.9998731,25.3664185 C18.7213351,23.917006 18.9510353,22.2367927 18.9510353,17.8224603 L18.9510353,7.80770022 L24,7.80770022 Z M18.9510353,0 L24,0 L24,5.20513348 L18.9510353,5.20513348 L18.9510353,0 Z"></path>
                    <path d="M27.1008718,9.53603295 C29.4401965,8.46755387 31.6758916,8 34.1181804,8 C36.8356316,8 38.6241877,8.70111534 39.4155017,10.0705957 C39.8624188,10.8387199 40,11.840621 40,13.9784411 L40,24.4320406 C37.6262799,24.7660076 34.6338881,25 32.4325884,25 C27.9953717,25 26,23.4965019 26,20.1568314 C26,16.5495564 28.6486606,14.8797212 35.1500396,14.3451584 L35.1500396,13.2096705 C35.1500396,12.2745627 34.6685053,11.9408112 33.3268664,11.9408112 C31.3663338,11.9408112 29.1648122,12.4751584 27.1006499,13.5106717 L27.1006499,9.53603295 L27.1008718,9.53603295 Z M35.3908068,17.718872 C31.8820415,18.052839 30.7469964,18.5874018 30.7469964,19.92327 C30.7469964,20.9251711 31.4007291,21.392725 32.8453321,21.392725 C33.6366461,21.392725 34.3587256,21.326147 35.3908068,21.1591635 L35.3908068,17.718872 Z"></path>
                    <path d="M42,9.18734467 C45.0063943,8.37301536 47.484405,8 49.9954529,8 C52.6056128,8 54.488952,8.61052808 55.6126465,9.79831056 C56.6698401,10.9177945 57,12.1392884 57,14.752585 L57,25 L51.9118295,25 L51.9118295,14.9561673 C51.9118295,12.9542745 51.2510835,12.2073681 49.434032,12.2073681 C48.7402487,12.2073681 48.11254,12.2752289 47.0879574,12.5806024 L47.0879574,25 L42,25 L42,9.18734467 Z"></path>
                    <path d="M59.3909803,27.3121795 C61.1489215,28.2380343 62.9064428,28.6676821 64.7616042,28.6676821 C68.04882,28.6676821 69.4485377,27.3121795 69.4485377,24.071261 C69.4485377,24.0381947 69.4485377,24.0051285 69.4485377,23.9720622 C68.472137,24.4678425 67.4955263,24.6664533 66.1938686,24.6664533 C61.7996454,24.6664533 59,21.7233443 59,17.0607907 C59,11.2733448 63.1340597,8 70.4572752,8 C72.6057767,8 74.5913349,8.23125037 77,8.72724402 L75.2836345,12.4005837 C73.9490102,12.1360537 75.1767554,12.3651708 74.1682279,12.2659721 L74.1682279,12.7952453 L74.2331113,14.9443378 L74.265448,17.7223289 C74.2979947,18.4165067 74.2979947,19.1111111 74.3307514,19.8055022 C74.3307514,20.4337608 74.3307514,20.7315704 74.3307514,21.1944978 C74.3307514,25.5596686 73.9727378,27.6097757 72.898697,29.2961541 C71.3362458,31.776549 68.6346605,33 64.7939409,33 C62.8409295,33 61.1487115,32.7024038 59.3907703,32.0077994 L59.3907703,27.3121795 L59.3909803,27.3121795 Z M69.3511076,12.1004275 C69.2860143,12.1004275 69.2211309,12.1004275 69.1885842,12.1004275 L68.8303606,12.1004275 C67.8541698,12.0673613 66.7150356,12.3316779 65.9334951,12.8276715 C64.7294775,13.522276 64.1106704,14.7790066 64.1106704,16.5645837 C64.1106704,19.1111111 65.3478646,20.5660258 67.5610396,20.5660258 C68.2445201,20.5660258 68.7980239,20.4335475 69.4487477,20.2353634 L69.4487477,19.8714214 L69.4487477,18.4828525 C69.4487477,17.8876601 69.416411,17.2259086 69.416411,16.5317308 L69.3840743,14.1840275 L69.3513176,12.4974358 L69.3513176,12.1004275 L69.3511076,12.1004275 Z"></path>
                    <path d="M85.6183887,8 C90.8229108,8 94,11.1958818 94,16.3681223 C94,21.6725593 90.6881701,25 85.4156236,25 C80.2106654,25 77,21.8041182 77,16.6648205 C77.000218,11.3272282 80.312484,8 85.6183887,8 Z M85.5165701,20.9144486 C87.5108629,20.9144486 88.6938773,19.3000363 88.6938773,16.4996812 C88.6938773,13.7324815 87.5446571,12.0851263 85.5510183,12.0851263 C83.4891371,12.0851263 82.3059047,13.6997512 82.3059047,16.4996812 C82.3061227,19.3002488 83.4891371,20.9144486 85.5165701,20.9144486 Z"></path>
                </g>
            </g>
        </g>
    </g>
</svg>