<?xml version="1.0" encoding="UTF-8"?>
<svg width="160px" height="70px" viewBox="0 0 160 70" version="1.1" xmlns="http://www.w3.org/2000/svg" xmlns:xlink="http://www.w3.org/1999/xlink">
    <!-- Generator: Hyder A. - https://toggle.me -->
    <title>DNN</title>
    <desc>Created with Sketch.</desc>
    <defs></defs>
    <g id="technologies" stroke="none" stroke-width="1" fill="none" fill-rule="evenodd">
        <g id="Artboard" transform="translate(-403.000000, -262.000000)">
            <g id="DNN" transform="translate(403.000000, 262.000000)">
                <rect id="container" fill="#FFFFFF" x="0" y="0" width="160" height="70"></rect>
                <g id="dnn-logo" transform="translate(32.000000, 16.000000)" fill-rule="nonzero">
                    <g id="Group" transform="translate(46.000000, 12.000000)" fill="#3F2B2F">
                        <path d="M7.76898734,10.2525773 L4.98417722,10.2525773 L4.98417722,4.80927835 L7.76898734,4.80927835 C9.30379747,4.80927835 10.5537975,6.03092784 10.5537975,7.53092784 C10.5537975,9.03092784 9.30379747,10.2525773 7.76898734,10.2525773 M7.76898734,0.12371134 L0.0474683544,0.12371134 L0.0474683544,14.9381443 L7.76898734,14.9381443 C11.9620253,14.9381443 15.3481013,11.628866 15.3481013,7.53092784 C15.3481013,3.44845361 11.9620253,0.12371134 7.76898734,0.12371134" id="Shape"></path>
                        <path d="M32.4683544,7.46907216 C32.4208861,3.41752577 29.0506329,0.139175258 24.8892405,0.139175258 L17.3101266,0.139175258 L17.3101266,14.9536082 L22.2468354,14.9536082 L22.2468354,4.94845361 L24.9050633,4.94845361 C26.3765823,4.94845361 27.5632911,6.10824742 27.5632911,7.54639175 L27.5632911,14.9536082 L32.4841772,14.9536082 L32.4683544,7.46907216 L32.4683544,7.46907216 Z" id="Shape"></path>
                        <path d="M49.9208861,7.46907216 C49.8734177,3.41752577 46.5031646,0.139175258 42.3417722,0.139175258 L34.7626582,0.139175258 L34.7626582,14.9536082 L39.6993671,14.9536082 L39.6993671,4.94845361 L42.3575949,4.94845361 C43.8291139,4.94845361 45.0158228,6.10824742 45.0158228,7.54639175 L45.0158228,14.9536082 L49.9367089,14.9536082 L49.9208861,7.46907216 L49.9208861,7.46907216 Z" id="Shape"></path>
                    </g>
                    <path d="M25,12.5 L25,1.06281726 C23.0488579,0.38071066 20.9390863,0 18.75,0 L0,0 L0,25 L12.5,25 L12.5,12.5 L25,12.5 Z" id="Shape" fill="#EB0029"></path>
                    <path d="M25.3861559,1 L25.3861559,12.6138441 L37,12.6138441 C35.0831519,7.20156726 30.7984327,2.91684806 25.3861559,1 Z M0,38 L12.6930779,38 L12.6930779,25.3069221 L0,25.3069221 L0,38 Z" id="Shape" fill="#3F2B2F"></path>
                    <path d="M36.9371827,13 L25.5,13 L25.5,19.25 L25.5,19.25 C25.5,22.6922589 22.6922589,25.5 19.25,25.5 L13,25.5 L13,38 L19.25,38 C29.6085025,38 38,29.6085025 38,19.25 C38,17.0609137 37.6351523,14.9511421 36.9371827,13 Z" id="Shape" fill="#00A8E1"></path>
                </g>
            </g>
        </g>
    </g>
</svg>