<?xml version="1.0" encoding="UTF-8"?>
<svg width="160px" height="70px" viewBox="0 0 160 70" version="1.1" xmlns="http://www.w3.org/2000/svg" xmlns:xlink="http://www.w3.org/1999/xlink">
    <!-- Generator: Sketch 47.1 (45422) - http://www.bohemiancoding.com/sketch -->
    <title>Drupal</title>
    <desc>Created with Sketch.</desc>
    <defs>
        <polygon id="path-1" points="42.9888743 19.562314 0.091114301 19.562314 0.091114301 0.000396694215 42.9888743 0.000396694215"></polygon>
        <polygon id="path-3" points="42.9888743 19.562314 0.091114301 19.562314 0.091114301 0.000396694215 42.9888743 0.000396694215"></polygon>
    </defs>
    <g id="technologies" stroke="none" stroke-width="1" fill="none" fill-rule="evenodd">
        <g id="Artboard" transform="translate(-402.000000, -42.000000)">
            <g id="Drupal" transform="translate(402.000000, 42.000000)">
                <rect id="container" fill="#FFFFFF" x="0" y="0" width="160" height="70"></rect>
                <g id="drupal" transform="translate(20.000000, 21.000000)">
                    <g id="druplicon-vector">
                        <path d="M16.4757709,4.64675658 C15.1900147,3.85035325 13.9817915,3.53885677 12.7671072,2.74566474 C12.0176212,2.23827874 10.9741557,1.03725112 10.101909,0 C9.9339207,1.66345536 9.42349487,2.33782915 8.84199707,2.81952472 C7.60792951,3.78291586 6.83259912,4.0719332 5.76651982,4.64996789 C4.86842878,5.10597303 0,7.99614643 0,14.2100193 C0,20.4238921 5.25932451,25 11.0969163,25 C16.9345081,25 22,20.7867694 22,14.4026975 C22,8.01862556 17.2511013,5.12845214 16.4757709,4.64675658 Z" id="Shape" fill="#00598E" fill-rule="nonzero"></path>
                        <path d="M14.342492,20.0016635 C14.7236969,20.0016635 15.1303155,20.0325999 15.4162192,20.2646235 C15.7021228,20.4966471 15.8673116,21.0187002 15.9626129,21.3087295 C16.0579141,21.5987591 15.9626129,21.7727769 15.7720104,21.8887887 C15.6068216,22.0048004 15.5814079,21.9467944 15.4162192,21.5716898 C15.2510304,21.1965849 15.1049018,20.8176131 14.2726044,20.8176131 C13.440307,20.8176131 13.1766403,21.1656484 12.7731984,21.5716898 C12.3697565,21.9777309 12.2268047,22.1208122 12.0806761,21.8887887 C11.9345476,21.6567651 11.9853749,21.4247415 12.2458649,21.134712 C12.506355,20.8446824 12.9383872,20.3806353 13.3418291,20.175681 C13.7452709,19.9707268 13.9612871,20.0016635 14.342492,20.0016635 L14.342492,20.0016635 Z" id="Shape" fill="#FFFFFF" fill-rule="nonzero"></path>
                        <path d="M10.6764846,22.2119513 C11.1668052,22.6823033 11.902286,23.0664242 13.4713116,23.0664242 C15.0403373,23.0664242 16.1419241,22.5333584 16.6322446,22.0943631 C16.8545233,21.890544 16.9525874,22.0630064 16.975469,22.1805944 C16.9983506,22.2981824 17.0473827,22.4745644 16.8774049,22.6823033 C16.7531904,22.8312482 15.628722,23.7719522 14.3015877,23.9169775 C12.9744535,24.0620027 11.1896868,24.1521535 10.1109816,22.9762733 C9.94100385,22.772454 9.98676711,22.4745644 10.1109816,22.3569764 C10.2351962,22.2393884 10.3332603,22.1531571 10.4770876,22.1531571 C10.620915,22.1531571 10.6013022,22.1531571 10.6764846,22.2119513 L10.6764846,22.2119513 Z" id="Shape" fill="#FFFFFF" fill-rule="nonzero"></path>
                        <path d="M4.65490127,19.9991288 C6.53666987,19.9740868 6.88331147,19.6704532 8.54388972,18.9661482 C17.5070507,15.1629018 19.167629,11.688331 19.4878598,10.8901188 C19.8080905,10.0919066 20.2801835,8.79911583 19.7849811,7.36859433 C19.6892419,7.09313286 19.6199138,6.87088554 19.5703934,6.69246163 C18.3786067,5.4309733 17.196724,4.73918939 16.8401783,4.52946304 C15.5526524,3.75316253 14.288236,3.44952886 13.0502303,2.6763586 C12.2843175,2.206822 11.2179819,1.01106881 10.3266179,0 C10.1549478,1.62146638 9.6597455,2.30072932 9.03909199,2.74835422 C7.77797688,3.68742741 6.98565327,3.96914937 5.89620828,4.53259328 C4.97843343,4.99899963 0,7.79117726 0,13.8481994 C0,15.7826902 0.548023838,17.5544082 1.48890814,19.0694464 L1.73320792,19.0600556 C2.25151963,19.5045503 3.07025403,20.0241708 4.65490127,19.9991288 Z" id="Shape" fill="#0073BA" fill-rule="nonzero"></path>
                        <path d="M16.4757709,4.64735355 C15.215859,3.85084789 13.9817915,3.53931141 12.7671072,2.74601746 C12.0176212,2.26426002 10.9741557,1.03738438 10.101909,0 C9.9339207,1.66366906 9.4493392,2.3606115 8.84199707,2.81988695 C7.60792951,3.78340184 6.83259912,4.07245632 5.76651982,4.65056526 C4.87165933,5.129111 0,7.99396197 0,14.2086331 C0,16.1934738 0.536270191,18.0113052 1.45697504,19.5657759 C3.41791482,22.8802673 7.12334802,25 11.0969163,25 C16.9377386,25 22,20.7862282 22,14.4013361 C22,10.8973536 20.5688693,8.44360226 19.1474303,6.86664953 C17.9812041,5.56911613 16.8246696,4.86253853 16.4757709,4.64735355 Z M19.4220263,7.46402878 C21.0114537,9.44244603 21.8190896,11.7741521 21.8190896,14.4013361 C21.8190896,15.9236896 21.5283407,17.3625385 20.9533039,18.6793422 C20.4073421,19.9254882 19.62232,21.0303186 18.6176212,21.964928 C16.630837,23.8084532 13.9624082,24.8233556 11.1001468,24.8233556 C9.68516886,24.8233556 8.29603525,24.5535714 6.97151248,24.0236382 C5.66960352,23.5033402 4.50014684,22.758222 3.48898679,21.8075539 C1.35359765,19.803443 0.180910426,17.1056012 0.180910426,14.2086331 C0.180910426,11.6296249 1.02408223,9.3364594 2.6845815,7.39337102 C3.95418502,5.90955806 5.32393538,5.08735868 5.85051396,4.80472765 C6.10895742,4.66662383 6.34801761,4.5413669 6.58061675,4.4225334 C7.31071952,4.0499743 8.00205581,3.69668551 8.95183554,2.95799075 C9.45903084,2.5757965 9.99853157,1.96878212 10.2279001,0.430369991 C11.0290749,1.37782631 11.9562408,2.44090442 12.6669604,2.89696814 C13.2969163,3.31127955 13.943025,3.60033402 14.5665198,3.87975335 C15.1577093,4.14311408 15.7682819,4.41932169 16.3723935,4.80151592 C16.3723935,4.80151592 16.3950073,4.8143628 16.3950073,4.8143628 C18.1685756,5.90955806 19.1118942,7.08183453 19.4220263,7.46402878 Z" id="Shape" fill="#004975" fill-rule="nonzero"></path>
                        <path d="M10.7013223,0 C11.0469351,0.972779494 10.9975618,1.46864437 10.9975618,1.6802555 C10.9975618,1.89186662 10.8724829,2.46353249 10.4774969,2.74778623 C10.3063363,2.86780449 10.2536715,2.96255573 10.2536715,2.98466436 C10.2536715,3.07941561 10.4774969,3.14889985 10.4774969,3.36366935 C10.4774969,3.6226561 10.352418,4.14694635 9.04567261,5.40082122 C7.73892722,6.65469608 5.85945211,7.76960245 4.40458697,8.4581282 C2.94972184,9.14665395 2.25849631,9.09611995 2.06100331,8.76449057 C1.8635103,8.4328612 2.13341741,7.69695983 3.04846833,6.72733872 C3.96351926,5.7577176 6.85020869,4.35855747 6.85020869,4.35855747 L10.4544561,1.94240061 L10.651949,1.02015512" id="Shape" fill="#93C5E4" fill-rule="nonzero"></path>
                        <path d="M9.80580119,0 C9.59168484,1.54373231 9.11936936,2.01152998 8.48331782,2.50115822 C7.4190336,3.29641425 6.37993954,3.78604247 6.14693055,3.90455122 C5.53292043,4.21017903 3.31303764,5.42645298 2.15429031,7.17913491 C1.80162808,7.71554291 2.15429031,7.9276112 2.22356326,7.97439096 C2.29283619,8.02117072 3.09892129,8.11473025 4.82129842,7.08557538 C6.54367557,6.05642051 7.30252912,5.45140218 8.27235025,4.44719653 C8.79189728,3.91078853 8.86431899,3.60516071 8.86431899,3.46482142 C8.86431899,3.30265154 8.74466573,3.23092258 8.55573953,3.18414282 C8.46127645,3.1591936 8.43608629,3.11553249 8.55573953,3.04380351 C8.6753928,2.97207453 9.16660089,2.73817569 9.28625416,2.64461616 C9.4059074,2.55105664 9.97268599,2.17681849 9.99472738,1.56868153 C10.0167688,0.960544551 9.97268599,0.539526647 9.80580119,0 L9.80580119,0 Z" id="Shape" fill="#FFFFFF" fill-rule="nonzero"></path>
                        <path d="M5.00125502,17.9272475 C5.02634617,15.9120455 6.7419536,14.0277455 8.90606536,14.0001872 C11.6598191,13.9726289 13.5636102,16.9971543 14.9530327,16.969596 C16.1291804,16.9420377 18.3873839,14.413562 19.4945309,14.413562 C20.6706786,14.413562 21,15.75703 21,16.5562212 C21,17.3554124 20.7647704,18.8022242 20.2002196,19.7082038 C19.6356686,20.6141836 19.2843926,20.9483282 18.6257499,20.8966564 C17.7789235,20.820871 16.0852709,17.9272475 15.003215,17.8721309 C13.6388837,17.820459 10.6749915,21 8.34778725,21 C6.93641002,21 6.51299685,20.7657542 6.04253778,20.4316096 C5.32743998,19.8907776 4.97616388,19.0640282 5.00125502,17.9272475 L5.00125502,17.9272475 Z" id="Shape" fill="#FFFFFF" fill-rule="nonzero"></path>
                        <path d="M19.4304135,7.68862911 C19.9021859,9.1487779 19.4555748,10.4622742 19.1473502,11.2752391 C18.8391256,12.088204 17.2602611,15.6269926 8.72118257,19.5005314 C7.14231798,20.2178534 6.80893222,20.5270988 5.01619752,20.5526037 C3.50652619,20.5781084 2.72652933,20.0488842 2.232741,19.5961743 L2,19.6057386 C3.9091052,22.8958555 7.51659067,25 11.3851234,25 C17.0715521,25 22,20.8172157 22,14.4792774 C22,11.0010627 20.6066991,8.56535601 19.2228337,7 C19.2731561,7.18172157 19.3423494,7.40807652 19.4304135,7.68862911 Z" id="Shape"></path>
                    </g>
                    <g id="drupal-logo-blue_rgb" transform="translate(30.000000, 4.000000)">
                        <path d="M43,4 L39.0685389,4 L39.0749447,11.3331737 C39.0749447,13.4762399 38.1533021,15.2098233 36.0034698,15.2098233 C33.8527034,15.2098233 32.9226531,13.4762399 32.9226531,11.3331737 L32.9226531,4.00718391 L29.0012011,4.00718391 L29,11.3331737 C29,15.5679544 31.7307634,19 35.9795813,19 C40.2271982,19 42.9987989,15.5679544 42.9987989,11.3331737 L43,4" id="Fill-1" fill="#369ECC" fill-rule="nonzero"></path>
                        <polygon id="Fill-2" fill="#369ECC" fill-rule="nonzero" points="77 19 81 19 81 0 77 0"></polygon>
                        <polyline id="Fill-3" fill="#369ECC" fill-rule="nonzero" points="84 0.739704405 84 0 87 0 87 0.739704405 85.9027401 0.739704405 85.9027401 4 85.0977852 4 85.0977852 0.739704405 84 0.739704405"></polyline>
                        <polyline id="Fill-4" fill="#369ECC" fill-rule="nonzero" points="88.149214 0 89.0179856 2.75032286 89.0283773 2.75032286 89.8498535 0 91 0 91 4 90.2354117 4 90.2354117 1.16515999 90.2247535 1.16515999 89.3146816 4 88.6849187 4 87.77498 1.19314105 87.7645883 1.19314105 87.7645883 4 87 4 87 0 88.149214 0"></polyline>
                        <g id="Group-8" transform="translate(16.000000, 4.000000)">
                            <g id="Fill-5-Clipped">
                                <mask id="mask-2" fill="white">
                                    <use xlink:href="#path-1"></use>
                                </mask>
                                <g id="path-1"></g>
                                <path d="M9.70517208,0.11768595 C6.41137054,-0.653487603 4.33346915,2.66604959 4.24717778,2.84403306 C4.20481419,2.93143802 4.20311965,2.98234711 4.05725856,2.97838017 C3.93668527,2.97586777 3.92299857,2.84403306 3.92299857,2.84403306 L3.51422254,0.304793388 L0.091114301,0.304793388 L0.091114301,14.7969587 L3.92821255,14.7969587 L3.92821255,6.95259504 C3.92821255,6.31153719 5.62979494,3.23808264 8.92659451,4.02922314 C10.5940253,4.42935537 11.3011714,5.14697521 11.3011714,5.14697521 C11.3011714,5.14697521 11.3011714,2.34961983 11.3011714,0.732297521 C10.6842272,0.405950413 10.2609823,0.247801653 9.70517208,0.11768595" id="Fill-5" fill="#369ECC" fill-rule="nonzero" mask="url(#mask-2)"></path>
                            </g>
                            <g id="Fill-7-Clipped">
                                <mask id="mask-4" fill="white">
                                    <use xlink:href="#path-3"></use>
                                </mask>
                                <g id="path-1"></g>
                                <path d="M35.4282122,3.7898843 C37.5431328,3.7898843 39.2570984,5.52899174 39.2570984,7.6728595 C39.2570984,9.81857851 37.5431328,11.557686 35.4282122,11.557686 C33.3136826,11.557686 31.6002384,9.81857851 31.6002384,7.6728595 C31.6002384,5.52899174 33.3136826,3.7898843 35.4282122,3.7898843 Z M31.7088195,19.5702479 L31.7088195,14.3557025 C31.7092106,14.3557025 31.7098623,14.3562314 31.710123,14.3566281 L31.7106444,12.4038347 C31.7106444,12.4038347 31.7167709,12.2476694 31.8555931,12.245686 C31.9794251,12.2443636 32.0070592,12.3275372 32.0371699,12.4038347 C32.32811,13.1382479 33.9281501,15.936 37.4788705,15.0583802 C40.6574431,14.1500826 42.9888743,11.189157 42.9888743,7.6728595 C42.9888743,3.43616529 39.6022639,0.000396694215 35.4250838,0.000396694215 C31.2477734,0.000396694215 27.8614237,3.43616529 27.8614237,7.6728595 C27.8614237,7.6728595 27.8614237,18.1614545 27.8614237,19.5702479 L31.7088195,19.5702479 L31.7088195,19.5702479 Z" id="Fill-7" fill="#369ECC" fill-rule="nonzero" mask="url(#mask-4)"></path>
                            </g>
                        </g>
                        <path d="M71.293073,11.5582752 C71.293073,13.6720599 69.5934185,15.3852846 67.4970918,15.3852846 C65.4002482,15.3852846 63.7003352,13.6720599 63.7003352,11.5582752 C63.7003352,9.44631413 65.4002482,7.73308946 67.4970918,7.73308946 C69.5934185,7.73308946 71.293073,9.44631413 71.293073,11.5582752 Z M71.1850189,18.5827308 L75,18.5827308 L75,11.5582752 C75,7.38463478 71.6425685,4 67.5001939,4 C63.35769,4 60,7.38463478 60,11.5582752 C60,15.0222404 62.3117886,17.9390992 65.4635813,18.8338787 C68.9847742,19.6984371 70.5706875,16.9423234 70.8594349,16.2188403 C70.8894212,16.1436783 70.9164347,16.0617426 71.0396112,16.0630452 C71.1771346,16.0649991 71.1828216,16.2188403 71.1828216,16.2188403 L71.1850189,18.5827308 Z" id="Fill-9" fill="#369ECC" fill-rule="nonzero"></path>
                        <path d="M5.53387826,3.29343942 L3.95465704,3.29343942 L3.95465704,15.7035106 L5.57643731,15.7447515 C8.9024477,15.7447515 11.0445425,15.4439978 11.0445425,9.5 C11.0445425,3.8 9.15326597,3.29343942 5.53387826,3.29343942 Z M4.46736694,19 L0,19 L0,0 L4.7934307,0 C10.5977391,0 15,1.05860553 15,9.5 C15,17.8601061 10.3369148,19 4.46736694,19 L4.46736694,19 Z" id="Fill-10" fill="#369ECC" fill-rule="nonzero"></path>
                    </g>
                </g>
            </g>
        </g>
    </g>
</svg>