<?xml version="1.0" encoding="UTF-8"?>
<svg width="160px" height="70px" viewBox="0 0 160 70" version="1.1" xmlns="http://www.w3.org/2000/svg" xmlns:xlink="http://www.w3.org/1999/xlink">
    <!-- Generator: Hyder A. - https://toggle.me -->
    <title>ember</title>
    <desc>Created with Sketch.</desc>
    <defs></defs>
    <g id="technologies" stroke="none" stroke-width="1" fill="none" fill-rule="evenodd">
        <g id="Web-frameworks" transform="translate(-32.000000, -136.000000)">
            <g id="ember" transform="translate(32.000000, 136.000000)">
                <rect id="Rectangle-Copy-7" fill="#FFFFFF" x="0" y="0" width="160" height="70"></rect>
                <g transform="translate(32.000000, 17.000000)" id="Shape" fill-rule="nonzero" fill="#E24C32">
                    <path d="M96,26.4740811 C95.8567944,24.8341605 94.404281,25.4491307 94.404281,25.4491307 C94.404281,25.4491307 92.0720763,27.2940414 90.0262828,27.0890513 C87.9804892,26.8840613 88.5942273,22.2717845 88.5942273,22.2717845 C88.5942273,22.2717845 89.0647598,18.0694879 87.8577416,17.7210048 C86.6507234,17.3725216 85.1572941,18.8074522 85.1572941,18.8074522 C85.1572941,18.8074522 83.3160798,20.857353 82.4159307,23.481226 L82.2113513,23.563222 C82.2113513,23.563222 82.4568465,18.9714442 82.1499775,17.9259948 C81.7408188,17.4135196 79.6950252,17.4340187 79.2858665,18.376973 C78.8767078,19.3199274 77.0354936,25.7566158 77.0354936,28.4214869 C77.0354936,28.4214869 73.5576445,31.373344 70.4889541,31.8653202 C67.4202638,32.3572964 66.6019463,30.4303896 66.6019463,30.4303896 C66.6019463,30.4303896 74.7851206,28.1754988 74.3759619,21.6158163 C73.9668032,15.0561337 67.6248431,17.4545177 67.0111051,17.9874919 C66.397367,18.5204661 62.7149386,20.7343589 61.6920418,26.9455583 L61.4874624,28.0730037 C61.4874624,28.0730037 58.2960244,30.2049005 56.5775578,30.7788728 C56.5775578,30.7788728 61.4874624,22.4357766 55.4523714,18.6844581 C52.7928397,17.0035395 50.5424668,20.4678718 50.5424668,20.4678718 C50.5424668,20.4678718 58.7256411,11.3663123 56.8844269,3.65868539 C56.5980158,0.0303610002 54.7568016,-0.379619157 52.9155873,0.235351079 C50.3992612,1.21930345 49.4377383,2.69523202 49.4377383,2.69523202 C49.4377383,2.69523202 46.1644685,7.49199985 45.387067,14.6256546 C44.6096654,21.7593093 43.5049369,30.3688926 43.5049369,30.3688926 C43.5049369,30.3688926 41.9092179,31.9063182 40.4771624,32.0088132 C39.0451069,32.1113083 39.658845,27.7040216 39.658845,27.7040216 C39.658845,27.7040216 40.7840314,21.000846 40.6817418,19.8734006 C40.5794521,18.7459552 40.5589942,18.1309849 39.2496863,17.7210048 C37.9403784,17.3110246 36.4469491,19.0124423 36.4469491,19.0124423 C36.4469491,19.0124423 32.6213151,24.8136615 32.314446,25.6951188 L32.1098667,26.064101 L31.9052873,25.8181129 C31.9052873,25.8181129 34.564819,17.9259948 32.0280349,17.8234998 C29.4912509,17.7210048 27.7318684,20.6318639 27.7318684,20.6318639 C27.7318684,20.6318639 24.6631781,25.5516258 24.6631781,26.105099 L24.4585987,25.8591109 C24.4585987,25.8591109 25.6860749,20.1193887 25.2769162,18.7459552 C24.8677574,17.3725216 23.6402813,17.6185097 23.6402813,17.6185097 C23.6402813,17.6185097 21.7990671,17.4135196 21.3899084,18.4999671 C20.9807497,19.5864145 19.3441148,26.9045603 19.1395354,29.1594511 C19.1395354,29.1594511 14.8433689,32.2343023 12.1838373,32.2343023 C9.52430564,32.2343023 9.728885,30.3893916 9.728885,30.3893916 C9.728885,30.3893916 19.7532735,26.9045603 17.0937419,20.1398877 C15.8662657,18.294977 14.4342102,17.8849968 12.3884166,17.8849968 C10.3426231,17.8849968 7.88767078,19.1149373 6.25103592,22.8047587 C5.43271849,24.6496694 5.22813913,26.28959 5.02355978,27.5195305 C4.81898042,28.749471 3.18234556,27.9295107 2.15944877,27.1095504 C1.13655199,26.28959 0.727393271,27.1095504 0.727393271,27.1095504 C0.727393271,27.1095504 -0.909241588,29.1594511 0.727393271,29.7744214 C2.36402813,30.3893916 4.9212701,30.5943817 4.9212701,30.5943817 C5.33042881,32.6442825 6.3533256,34.2842031 7.7853811,35.3091535 C10.7722397,37.5640444 16.5822935,35.1041634 16.5822935,35.1041634 L18.9144981,33.8742229 C18.9144981,33.8742229 18.9963299,36.1291138 20.7557124,36.539094 C22.5150948,36.9490741 23.2106646,36.539094 26.1975233,29.1594511 C28.0387375,25.4696297 28.181943,25.6746198 28.181943,25.6746198 L28.3865224,25.6746198 C28.3865224,25.6746198 27.0772145,32.8492725 27.568205,34.7761793 C28.0591954,36.703086 30.432316,36.4160999 30.432316,36.4160999 C30.432316,36.4160999 31.6597921,36.62109 32.6826889,33.1362587 C33.7055857,29.6514273 35.7309213,25.6541208 35.7309213,25.6541208 L35.9355007,25.6541208 C35.9355007,25.6541208 35.1171832,33.0337636 36.4060332,35.3296525 C37.6948831,37.6255414 40.9681529,36.1496128 40.9681529,36.1496128 C40.9681529,36.1496128 43.3003575,34.9196723 43.6686004,34.5711892 C43.6686004,34.5711892 46.4099638,37.0310701 50.3174295,36.62109 C59.1143419,34.9811694 62.1830322,32.5212884 62.1830322,32.5212884 C62.1830322,32.5212884 63.7173774,36.4160999 68.3204129,36.8260801 C73.6394762,37.2360602 76.5035872,33.956219 76.5035872,33.956219 C76.5035872,33.956219 76.5035872,36.1291138 78.3448015,36.9080761 C80.1860157,37.6870384 81.4134918,33.2592527 81.4134918,33.2592527 L84.543556,24.6496694 L84.7481353,24.6496694 C84.7481353,24.6496694 84.9527147,30.2868966 88.0214051,31.1683539 C91.0900954,32.0498112 95.058935,29.1184531 95.058935,29.1184531 C95.058935,29.1184531 96.0818317,28.708473 95.8772524,27.0685523 L95.8772524,26.6585722 L96,26.4740811 Z M9.54476357,27.2940414 C9.68796912,22.4767746 12.8180333,20.3858758 13.9023039,21.4313252 C14.9865745,22.4767746 14.5774158,24.7111664 12.5316222,26.146097 C10.4858286,27.5810275 9.54476357,27.2940414 9.54476357,27.2940414 Z M50.3583454,8.70144132 C50.3583454,8.70144132 53.2224564,1.26030147 53.8975683,4.88862586 C54.5726801,8.51695025 47.9033931,19.2994284 47.9033931,19.2994284 C47.9852248,16.8805454 50.3583454,8.70144132 50.3583454,8.70144132 Z M53.7748206,29.4464372 C51.8926906,34.4071971 47.3101129,32.3777954 47.3101129,32.3777954 C47.3101129,32.3777954 46.7782066,30.6148807 48.2716359,25.6541208 C49.7650652,20.6933609 53.2429143,22.6407666 53.2429143,22.6407666 C53.2429143,22.6407666 55.6569507,24.4856774 53.7748206,29.4464372 Z M66.4587408,27.2735424 C66.4587408,27.2735424 65.9882083,25.6336218 67.6453011,22.5587706 C69.3023939,19.4839194 70.5707859,21.1238401 70.5707859,21.1238401 C70.5707859,21.1238401 72.0028414,22.5587706 70.3662065,24.8136615 C68.7295717,27.0685523 66.4178249,27.0685523 66.4178249,27.0685523 L66.4587408,27.2735424 Z"></path>
                    <path d="M84,34.9811321 C84,35.5471698 83.5660377,35.9811321 83.0188679,36 C82.4528302,36 82.0188679,35.5660377 82,35.0188679 C82,34.4528302 82.4339623,34.0188679 82.9811321,34 C83.509434,34 83.9622642,34.4150943 83.9811321,34.9433962 L83.9811321,34.9811321 L84,34.9811321 Z M82.2264151,34.9811321 C82.2264151,35.3962264 82.5660377,35.7358491 82.9811321,35.7358491 C83.3962264,35.7358491 83.7358491,35.3962264 83.7358491,34.9811321 C83.7358491,34.5660377 83.3962264,34.2264151 82.9811321,34.2264151 C82.5660377,34.2264151 82.2264151,34.5660377 82.2264151,34.9811321 Z M82.8301887,35.4716981 L82.6037736,35.4716981 L82.6037736,34.5283019 C82.7358491,34.490566 82.8490566,34.4716981 82.9811321,34.4716981 C83.0943396,34.4716981 83.2264151,34.4716981 83.3207547,34.5471698 C83.3773585,34.5849057 83.4150943,34.6603774 83.4150943,34.7358491 C83.4150943,34.8679245 83.2264151,35 83.0377358,35.0188679 C82.9811321,35.0188679 82.9056604,35.0188679 82.8490566,34.9811321 C82.9811321,35.0188679 83.0377358,35.1132075 83.0377358,35.2264151 L83.0377358,35.4716981 L82.8490566,35.4716981 L82.6603774,35.245283 C82.6603774,35.1320755 82.5849057,35.0566038 82.4716981,35.0566038 L82.3584906,35.0566038 L82.6603774,35.4716981 L82.8301887,35.4716981 Z M82.8301887,34.9056604 L82.9433962,34.9056604 C83.0566038,34.9056604 83.1698113,34.9056604 83.1698113,34.7924528 C83.1698113,34.6792453 83.0943396,34.6415094 82.9811321,34.6415094 L82.8301887,34.6415094 L82.8301887,34.9056604 Z"></path>
                </g>
            </g>
        </g>
    </g>
</svg>