<?xml version="1.0" encoding="UTF-8"?>
<svg width="160px" height="70px" viewBox="0 0 160 70" version="1.1" xmlns="http://www.w3.org/2000/svg" xmlns:xlink="http://www.w3.org/1999/xlink">
    <!-- Generator: Sketch 47.1 (45422) - http://www.bohemiancoding.com/sketch -->
    <title>epages</title>
    <desc>Created with Sketch.</desc>
    <defs></defs>
    <g id="technologies" stroke="none" stroke-width="1" fill="none" fill-rule="evenodd">
        <g id="Ecommerce" transform="translate(-416.000000, -241.000000)">
            <g id="epages" transform="translate(416.000000, 241.000000)">
                <rect id="Rectangle" fill="#FFFFFF" x="0" y="0" width="160" height="70"></rect>
                <g id="logo-white" transform="translate(19.000000, 20.000000)" fill-rule="nonzero" fill="#FFFFFF">
                    <path d="M5.42317915,12.5033333 C5.46642665,13.8586087 5.9850194,15.1560259 6.88893832,16.170375 C7.75847616,17.0817001 8.97956786,17.5769687 10.2412839,17.5300694 C11.0703903,17.546693 11.8886324,17.3402282 12.6096809,16.9324583 C13.2596366,16.5782632 13.7364696,15.9756185 13.9301184,15.263625 L19.3796803,15.263625 C18.7365455,17.3513889 17.7846022,18.9586528 16.1916866,20.0858472 C14.5192934,21.2365772 12.5227141,21.8282375 10.4904068,21.7753472 C4.62304506,21.7744861 0.432504917,18.0936667 0.432504917,10.7315972 C0.4125603,9.28928954 0.639405752,7.85412669 1.10332004,6.48761111 C1.51726377,5.27883964 2.18133148,4.16995914 3.0526197,3.23261111 C3.92308907,2.31385447 4.99065901,1.60255263 6.17573771,1.15173611 C7.4413235,0.648772155 8.79537155,0.403544812 10.1578105,0.430555556 C13.3436417,0.430555556 15.5472542,1.43375 17.1821228,3.43841667 C18.8169914,5.44308333 19.5725775,8.46515278 19.5725775,12.5033333 L5.42317915,12.5033333 Z M14.2237892,9.12433333 C14.2101751,8.45337724 14.0752408,7.79035158 13.8254522,7.16702778 C13.6119599,6.63998377 13.2907323,6.16287987 12.8821589,5.766 C12.4986141,5.40025639 12.0416912,5.11941485 11.5413937,4.94191667 C11.0438488,4.76466339 10.5193091,4.67421123 9.99086358,4.67454167 C8.86451825,4.66190256 7.7767301,5.08250195 6.95424656,5.84866667 C6.111694,6.7371168 5.62678687,7.90300435 5.59185607,9.12433333 L14.2237892,9.12433333 Z" id="e"></path>
                    <path d="M21.3203299,30.9423056 L21.3203299,0.645833333 L26.4943862,0.645833333 L26.5376367,3.12841667 C27.7352428,1.21330556 29.6672423,0.533458333 32.2060461,0.533458333 C33.3585951,0.523284706 34.4980563,0.777108457 35.536334,1.27530556 C36.6208342,1.76595524 37.5769681,2.4991253 38.3303158,3.41775 C39.1469355,4.43428274 39.7647156,5.59431852 40.151594,6.83765278 C40.6132597,8.31738787 40.8373171,9.86041203 40.815489,11.4097222 C40.8304969,12.8367008 40.6423623,14.2586008 40.2566927,15.6330417 C39.9236859,16.8297684 39.3692368,17.9541114 38.6218241,18.9483194 C37.9271644,19.863545 37.0270745,20.6043168 35.9934917,21.1114306 C34.9633484,21.6345644 33.8194198,21.8964822 32.6632038,21.8739444 C30.1520803,21.8739444 28.1374724,21.2281111 26.6202451,19.1132222 L26.6202451,30.9423056 L21.3203299,30.9423056 Z M31.3371438,17.3035972 C34.4272472,17.3035972 35.9724431,15.2159769 35.9727315,11.0407361 C36.0432712,9.46422679 35.5924881,7.90819244 34.6894894,6.61118056 C33.9415174,5.5268263 32.6994849,4.88535326 31.3782317,4.90101389 C30.1000938,4.89144454 28.8937005,5.48808556 28.1292548,6.50784722 C27.2158209,7.71461121 26.7545816,9.20113352 26.8252525,10.7105 C26.8252525,15.1061852 28.3292162,17.3038843 31.3371438,17.3035972 Z" id="p"></path>
                    <path d="M59.728929,5.07625 C59.4664052,4.13120218 58.9696936,3.26691096 58.2843626,2.56266667 C57.5291685,1.84110649 56.6106107,1.31109272 55.6062922,1.01740278 C54.3111618,0.631684026 52.9631625,0.451085159 51.6116767,0.482222222 C50.215065,0.452784017 48.8216368,0.626848368 47.4756322,0.998888889 C46.4616627,1.27967406 45.5223254,1.77949361 44.7244684,2.46277778 C44.0300091,3.10072409 43.5042798,3.89929501 43.1938335,4.78777778 C42.8501053,5.73125385 42.6753188,6.72744748 42.6774227,7.73105556 L47.6858296,7.73105556 C47.7630607,6.89175444 48.1200751,6.10228482 48.7000536,5.48829167 C49.2380898,4.93933333 50.1273199,4.6345 51.3699065,4.6345 C52.2383159,4.58838886 53.1032147,4.77545945 53.87411,5.17613889 C54.4515768,5.47234987 54.8118786,6.06742521 54.805293,6.71408333 C54.8581348,7.31511296 54.5911884,7.89984595 54.1016075,8.25547222 C53.6321955,8.57121296 52.7216285,8.82466667 51.3699065,9.01583333 C50.0181845,9.207 48.7695428,9.41955093 47.6239814,9.65348611 C46.5825478,9.84812213 45.581815,10.2171743 44.6643503,10.7449444 C43.8403471,11.234699 43.1671466,11.9401608 42.7180781,12.7844861 C42.2011364,13.870257 41.95952,15.0656501 42.0143926,16.2659583 C41.95747,17.7761941 42.5525253,19.2384786 43.6492612,20.2834722 C44.7388853,21.3136481 46.4566506,21.8287361 48.8025573,21.8287361 C50.0468451,21.8530209 51.284,21.6361566 52.4451137,21.1902222 C53.413032,20.799663 54.2771751,20.1916835 54.9700774,19.41375 C55.0089784,20.0072205 55.1202278,20.59378 55.3013762,21.1605139 L60.1333211,21.1605139 L60.1333211,8.47591667 C60.1645069,7.32918376 60.0282889,6.18401796 59.728929,5.07625 L59.728929,5.07625 Z M54.2875847,15.2950556 C53.7669238,16.376922 52.8481066,17.2179059 51.721533,17.6437361 C51.1080977,17.8808988 50.4549318,17.9996922 49.7968861,17.9937778 C48.0585047,17.9937778 47.189314,17.2384398 47.189314,15.7277639 C47.1424755,14.9558841 47.464791,14.2073639 48.0586488,13.7088889 C48.6382054,13.2421667 49.7005817,12.857537 51.2457776,12.555 C51.6134068,12.4841019 51.9487422,12.4149259 52.251784,12.3474722 L52.251784,12.3474722 C52.251784,12.3474722 53.7391684,12.0301528 54.717062,11.7657917 L54.6833267,13.5848889 C54.685222,14.177649 54.5498004,14.7628626 54.2875847,15.2950556 Z" id="Shape"></path>
                    <path d="M76.348363,18.8798611 C76.1889833,19.2611144 75.9401147,19.5987767 75.6226197,19.8645417 C75.2068055,20.2279628 74.7488512,20.5406104 74.2584992,20.7958333 C73.1612435,21.2873891 71.962649,21.5132797 70.7608319,21.4550139 C69.3619525,21.5043573 67.9733753,21.1994798 66.7251286,20.5689306 C65.6297397,20.0207371 64.6796265,19.2231532 63.951907,18.2409167 C63.2287118,17.2378154 62.7085416,16.104185 62.4204071,14.90325 C62.1024859,13.6359498 61.9426959,12.3344701 61.9446517,11.02825 C61.9277697,9.56338618 62.1658494,8.10667699 62.6483372,6.72269444 C63.0688045,5.50207496 63.7141695,4.37018381 64.5513588,3.38502778 C65.3290481,2.48314822 66.2882712,1.75384534 67.3669659,1.24430556 C68.3804152,0.734833231 69.5013961,0.473564267 70.636703,0.482222222 C73.1750744,0.482222222 75.078961,1.085 76.348363,3.119375 L76.348363,0.645833333 L81.5816724,0.645833333 L81.5816724,21.4963472 C81.5816724,23.0342917 81.4661936,24.3870972 80.9424302,25.5547639 C80.451647,26.6766594 79.7165452,27.6759567 78.7902857,28.4803889 C77.8431361,29.2836792 76.7459187,29.8928056 75.5616365,30.2727917 C72.9913548,31.0896846 70.2304351,31.096902 67.6558791,30.2934583 C66.515172,29.9347419 65.4543255,29.361178 64.5310311,28.6039583 C63.6624064,27.8765644 62.9632893,26.9696193 62.4822553,25.9461389 C61.9711327,24.8352087 61.7164959,23.6244048 61.7370493,22.4026667 L66.7454563,22.4026667 C66.6827564,23.4943204 67.1340706,24.5528261 67.9664177,25.2662917 C68.8945052,25.9767594 70.0465514,26.3347218 71.2158271,26.2759444 C72.5298898,26.3153196 73.8170706,25.9002634 74.8583835,25.1013889 C75.8428119,24.3380098 76.3974713,23.1492242 76.348363,21.9079583 L76.348363,18.8798611 Z M71.4022367,17.2523611 C72.6722099,17.2775215 73.8841205,16.7236146 74.6927341,15.7484306 C75.562069,14.7460972 75.9967365,13.3795139 75.9967365,11.6486806 C75.9967365,7.30868056 74.4652365,5.13853704 71.4022367,5.13825 C68.3392369,5.13796296 66.807737,7.1981713 66.807737,11.318875 C66.807737,13.1318009 67.2422603,14.5740185 68.1113068,15.6455278 C68.8887899,16.6721163 70.1108593,17.2688053 71.4022367,17.2523611 Z" id="g"></path>
                    <g id="s" transform="translate(102.936170, 0.430556)">
                        <path d="M18.1548264,12.2686806 C17.8556304,11.549287 17.3424902,10.9382473 16.6843097,10.5176111 C15.7750561,9.97551186 14.7923258,9.56618273 13.766199,9.30215278 C12.5514369,8.95770833 11.0613132,8.53877778 9.29582818,8.04536111 C8.43941684,7.83010725 7.6124595,7.5120345 6.83314518,7.09813889 C6.32169809,6.85481616 5.99291577,6.34401393 5.98457053,5.77977778 C5.95231724,5.1991351 6.29283439,4.66180826 6.83314518,4.44075 C7.63182843,4.1397448 8.48443256,4.00649367 9.33734865,4.049375 C10.251095,3.99510261 11.1581147,4.2351396 11.9241606,4.73395833 C12.4230343,5.12456341 12.7614074,5.68311865 12.8756714,6.304625 L18.1055208,6.304625 C17.9978799,4.59612714 17.2117043,3.00049946 15.920506,1.86990278 C14.5676306,0.688888889 12.4288938,0.0744861111 9.50429555,0.0744861111 C8.13782365,0.0430608244 6.77349226,0.198654172 5.44956195,0.536902778 C4.48336205,0.786035374 3.57145437,1.21001479 2.75938137,1.78766667 C2.14157988,2.25966154 1.65678421,2.88257631 1.35201037,3.596 C1.03515808,4.28015702 0.87276387,5.0251262 0.876254962,5.77848611 C0.865508907,6.56148993 0.984455551,7.34090473 1.22831396,8.08540278 C1.4612663,8.82276499 1.89893351,9.47951598 2.49079582,9.97984722 C3.34341121,10.6577506 4.30087709,11.1934343 5.32586555,11.5660139 C6.88796073,12.1487529 8.49302274,12.6102516 10.1266701,12.946375 C10.9878094,13.1054841 11.8187115,13.3974731 12.5893531,13.8117917 C13.136449,14.15736 13.4469585,14.7755799 13.3964073,15.418625 C13.3890346,16.0919625 12.9457945,16.6835334 12.2995748,16.8825139 C11.4652336,17.2177082 10.5706738,17.378903 9.67124245,17.356125 C8.62097077,17.3838226 7.58765345,17.0885451 6.7120438,16.5105139 C6.11248261,16.1085825 5.71399981,15.4707816 5.61694136,14.7577222 L0.0605506884,14.7577222 C0.114488958,15.6081464 0.349647993,16.4374004 0.750396031,17.1903611 C1.21786961,18.0804071 1.88359286,18.8522581 2.69666816,19.4469028 C3.6142523,20.1065957 4.64529296,20.593673 5.73890774,20.8840972 C7.03429051,21.2305597 8.37107338,21.3996023 9.71233041,21.3865556 C12.6925776,21.3865556 14.9416032,20.7903796 16.4594071,19.5980278 C17.8782351,18.5366034 18.6889634,16.85386 18.6323118,15.0879583 C18.6705982,14.1254469 18.508015,13.1654864 18.1548264,12.2686806 Z" id="Shape"></path>
                    </g>
                    <path d="M87.9978829,12.5033333 C88.0411304,13.8586087 88.5597231,15.1560259 89.4636421,16.170375 C90.3331799,17.0817001 91.5542716,17.5769687 92.8159877,17.5300694 C93.645094,17.546693 94.4633362,17.3402282 95.1843846,16.9324583 C95.8343404,16.5782632 96.3111733,15.9756185 96.5048221,15.263625 L101.954384,15.263625 C101.311249,17.3513889 100.359306,18.9586528 98.7663903,20.0858472 C97.0939972,21.2365772 95.0974179,21.8282375 93.0651105,21.7753472 C87.1955863,21.7753472 83.0046136,18.0945278 83.0046136,10.7324583 C82.984669,9.29015065 83.2115145,7.8549878 83.6754288,6.48847222 C84.0893725,5.27970075 84.7534402,4.17082025 85.6247284,3.23347222 C86.49573,2.31413559 87.5640721,1.60251739 88.7500089,1.15173611 C90.0157294,0.648715464 91.3699302,0.403487084 92.7325142,0.430555556 C95.9183454,0.430555556 98.121958,1.43375 99.7568266,3.43841667 C101.391695,5.44308333 102.147281,8.46515278 102.147281,12.5033333 L87.9978829,12.5033333 Z M96.7984929,9.12433333 C96.7848789,8.45337724 96.6499446,7.79035158 96.4001559,7.16702778 C96.1866637,6.63998377 95.865436,6.16287987 95.4568627,5.766 C95.0733259,5.40024605 94.6164006,5.11940307 94.1160974,4.94191667 C93.6184418,4.76446796 93.0937508,4.67386929 92.5651348,4.67411111 C91.4386701,4.66170494 90.3508663,5.08261886 89.5285178,5.84909722 C88.6859652,6.73754735 88.2010581,7.9034349 88.1661273,9.12476389 L96.7984929,9.12433333 Z" id="e-2"></path>
                </g>
                <g id="logo-gray" transform="translate(19.000000, 20.000000)" fill-rule="nonzero">
                    <path d="M5.42317915,12.5033333 C5.46642665,13.8586087 5.9850194,15.1560259 6.88893832,16.170375 C7.75847616,17.0817001 8.97956786,17.5769687 10.2412839,17.5300694 C11.0703903,17.546693 11.8886324,17.3402282 12.6096809,16.9324583 C13.2596366,16.5782632 13.7364696,15.9756185 13.9301184,15.263625 L19.3796803,15.263625 C18.7365455,17.3513889 17.7846022,18.9586528 16.1916866,20.0858472 C14.5192934,21.2365772 12.5227141,21.8282375 10.4904068,21.7753472 C4.62304506,21.7744861 0.432504917,18.0936667 0.432504917,10.7315972 C0.4125603,9.28928954 0.639405752,7.85412669 1.10332004,6.48761111 C1.51726377,5.27883964 2.18133148,4.16995914 3.0526197,3.23261111 C3.92308907,2.31385447 4.99065901,1.60255263 6.17573771,1.15173611 C7.4413235,0.648772155 8.79537155,0.403544812 10.1578105,0.430555556 C13.3436417,0.430555556 15.5472542,1.43375 17.1821228,3.43841667 C18.8169914,5.44308333 19.5725775,8.46515278 19.5725775,12.5033333 L5.42317915,12.5033333 Z M14.2237892,9.12433333 C14.2101751,8.45337724 14.0752408,7.79035158 13.8254522,7.16702778 C13.6119599,6.63998377 13.2907323,6.16287987 12.8821589,5.766 C12.4986141,5.40025639 12.0416912,5.11941485 11.5413937,4.94191667 C11.0438488,4.76466339 10.5193091,4.67421123 9.99086358,4.67454167 C8.86451825,4.66190256 7.7767301,5.08250195 6.95424656,5.84866667 C6.111694,6.7371168 5.62678687,7.90300435 5.59185607,9.12433333 L14.2237892,9.12433333 Z" id="e-3" fill="#D51317"></path>
                    <path d="M21.3203299,30.9423056 L21.3203299,0.645833333 L26.4943862,0.645833333 L26.5376367,3.12841667 C27.7352428,1.21330556 29.6672423,0.533458333 32.2060461,0.533458333 C33.3585951,0.523284706 34.4980563,0.777108457 35.536334,1.27530556 C36.6208342,1.76595524 37.5769681,2.4991253 38.3303158,3.41775 C39.1469355,4.43428274 39.7647156,5.59431852 40.151594,6.83765278 C40.6132597,8.31738787 40.8373171,9.86041203 40.815489,11.4097222 C40.8304969,12.8367008 40.6423623,14.2586008 40.2566927,15.6330417 C39.9236859,16.8297684 39.3692368,17.9541114 38.6218241,18.9483194 C37.9271644,19.863545 37.0270745,20.6043168 35.9934917,21.1114306 C34.9633484,21.6345644 33.8194198,21.8964822 32.6632038,21.8739444 C30.1520803,21.8739444 28.1374724,21.2281111 26.6202451,19.1132222 L26.6202451,30.9423056 L21.3203299,30.9423056 Z M31.3371438,17.3035972 C34.4272472,17.3035972 35.9724431,15.2159769 35.9727315,11.0407361 C36.0432712,9.46422679 35.5924881,7.90819244 34.6894894,6.61118056 C33.9415174,5.5268263 32.6994849,4.88535326 31.3782317,4.90101389 C30.1000938,4.89144454 28.8937005,5.48808556 28.1292548,6.50784722 C27.2158209,7.71461121 26.7545816,9.20113352 26.8252525,10.7105 C26.8252525,15.1061852 28.3292162,17.3038843 31.3371438,17.3035972 Z" id="p-2" fill="#2C2926"></path>
                    <path d="M59.728929,5.07625 C59.4664052,4.13120218 58.9696936,3.26691096 58.2843626,2.56266667 C57.5291685,1.84110649 56.6106107,1.31109272 55.6062922,1.01740278 C54.3111618,0.631684026 52.9631625,0.451085159 51.6116767,0.482222222 C50.215065,0.452784017 48.8216368,0.626848368 47.4756322,0.998888889 C46.4616627,1.27967406 45.5223254,1.77949361 44.7244684,2.46277778 C44.0300091,3.10072409 43.5042798,3.89929501 43.1938335,4.78777778 C42.8501053,5.73125385 42.6753188,6.72744748 42.6774227,7.73105556 L47.6858296,7.73105556 C47.7630607,6.89175444 48.1200751,6.10228482 48.7000536,5.48829167 C49.2380898,4.93933333 50.1273199,4.6345 51.3699065,4.6345 C52.2383159,4.58838886 53.1032147,4.77545945 53.87411,5.17613889 C54.4515768,5.47234987 54.8118786,6.06742521 54.805293,6.71408333 C54.8581348,7.31511296 54.5911884,7.89984595 54.1016075,8.25547222 C53.6321955,8.57121296 52.7216285,8.82466667 51.3699065,9.01583333 C50.0181845,9.207 48.7695428,9.41955093 47.6239814,9.65348611 C46.5825478,9.84812213 45.581815,10.2171743 44.6643503,10.7449444 C43.8403471,11.234699 43.1671466,11.9401608 42.7180781,12.7844861 C42.2011364,13.870257 41.95952,15.0656501 42.0143926,16.2659583 C41.95747,17.7761941 42.5525253,19.2384786 43.6492612,20.2834722 C44.7388853,21.3136481 46.4566506,21.8287361 48.8025573,21.8287361 C50.0468451,21.8530209 51.284,21.6361566 52.4451137,21.1902222 C53.413032,20.799663 54.2771751,20.1916835 54.9700774,19.41375 C55.0089784,20.0072205 55.1202278,20.59378 55.3013762,21.1605139 L60.1333211,21.1605139 L60.1333211,8.47591667 C60.1645069,7.32918376 60.0282889,6.18401796 59.728929,5.07625 L59.728929,5.07625 Z M54.2875847,15.2950556 C53.7669238,16.376922 52.8481066,17.2179059 51.721533,17.6437361 C51.1080977,17.8808988 50.4549318,17.9996922 49.7968861,17.9937778 C48.0585047,17.9937778 47.189314,17.2384398 47.189314,15.7277639 C47.1424755,14.9558841 47.464791,14.2073639 48.0586488,13.7088889 C48.6382054,13.2421667 49.7005817,12.857537 51.2457776,12.555 C51.6134068,12.4841019 51.9487422,12.4149259 52.251784,12.3474722 L52.251784,12.3474722 C52.251784,12.3474722 53.7391684,12.0301528 54.717062,11.7657917 L54.6833267,13.5848889 C54.685222,14.177649 54.5498004,14.7628626 54.2875847,15.2950556 Z" id="Shape" fill="#2C2926"></path>
                    <path d="M76.348363,18.8798611 C76.1889833,19.2611144 75.9401147,19.5987767 75.6226197,19.8645417 C75.2068055,20.2279628 74.7488512,20.5406104 74.2584992,20.7958333 C73.1612435,21.2873891 71.962649,21.5132797 70.7608319,21.4550139 C69.3619525,21.5043573 67.9733753,21.1994798 66.7251286,20.5689306 C65.6297397,20.0207371 64.6796265,19.2231532 63.951907,18.2409167 C63.2287118,17.2378154 62.7085416,16.104185 62.4204071,14.90325 C62.1024859,13.6359498 61.9426959,12.3344701 61.9446517,11.02825 C61.9277697,9.56338618 62.1658494,8.10667699 62.6483372,6.72269444 C63.0688045,5.50207496 63.7141695,4.37018381 64.5513588,3.38502778 C65.3290481,2.48314822 66.2882712,1.75384534 67.3669659,1.24430556 C68.3804152,0.734833231 69.5013961,0.473564267 70.636703,0.482222222 C73.1750744,0.482222222 75.078961,1.085 76.348363,3.119375 L76.348363,0.645833333 L81.5816724,0.645833333 L81.5816724,21.4963472 C81.5816724,23.0342917 81.4661936,24.3870972 80.9424302,25.5547639 C80.451647,26.6766594 79.7165452,27.6759567 78.7902857,28.4803889 C77.8431361,29.2836792 76.7459187,29.8928056 75.5616365,30.2727917 C72.9913548,31.0896846 70.2304351,31.096902 67.6558791,30.2934583 C66.515172,29.9347419 65.4543255,29.361178 64.5310311,28.6039583 C63.6624064,27.8765644 62.9632893,26.9696193 62.4822553,25.9461389 C61.9711327,24.8352087 61.7164959,23.6244048 61.7370493,22.4026667 L66.7454563,22.4026667 C66.6827564,23.4943204 67.1340706,24.5528261 67.9664177,25.2662917 C68.8945052,25.9767594 70.0465514,26.3347218 71.2158271,26.2759444 C72.5298898,26.3153196 73.8170706,25.9002634 74.8583835,25.1013889 C75.8428119,24.3380098 76.3974713,23.1492242 76.348363,21.9079583 L76.348363,18.8798611 Z M71.4022367,17.2523611 C72.6722099,17.2775215 73.8841205,16.7236146 74.6927341,15.7484306 C75.562069,14.7460972 75.9967365,13.3795139 75.9967365,11.6486806 C75.9967365,7.30868056 74.4652365,5.13853704 71.4022367,5.13825 C68.3392369,5.13796296 66.807737,7.1981713 66.807737,11.318875 C66.807737,13.1318009 67.2422603,14.5740185 68.1113068,15.6455278 C68.8887899,16.6721163 70.1108593,17.2688053 71.4022367,17.2523611 Z" id="g-2" fill="#2C2926"></path>
                    <g id="s-2" transform="translate(102.936170, 0.430556)" fill="#2C2926">
                        <path d="M18.1548264,12.2686806 C17.8556304,11.549287 17.3424902,10.9382473 16.6843097,10.5176111 C15.7750561,9.97551186 14.7923258,9.56618273 13.766199,9.30215278 C12.5514369,8.95770833 11.0613132,8.53877778 9.29582818,8.04536111 C8.43941684,7.83010725 7.6124595,7.5120345 6.83314518,7.09813889 C6.32169809,6.85481616 5.99291577,6.34401393 5.98457053,5.77977778 C5.95231724,5.1991351 6.29283439,4.66180826 6.83314518,4.44075 C7.63182843,4.1397448 8.48443256,4.00649367 9.33734865,4.049375 C10.251095,3.99510261 11.1581147,4.2351396 11.9241606,4.73395833 C12.4230343,5.12456341 12.7614074,5.68311865 12.8756714,6.304625 L18.1055208,6.304625 C17.9978799,4.59612714 17.2117043,3.00049946 15.920506,1.86990278 C14.5676306,0.688888889 12.4288938,0.0744861111 9.50429555,0.0744861111 C8.13782365,0.0430608244 6.77349226,0.198654172 5.44956195,0.536902778 C4.48336205,0.786035374 3.57145437,1.21001479 2.75938137,1.78766667 C2.14157988,2.25966154 1.65678421,2.88257631 1.35201037,3.596 C1.03515808,4.28015702 0.87276387,5.0251262 0.876254962,5.77848611 C0.865508907,6.56148993 0.984455551,7.34090473 1.22831396,8.08540278 C1.4612663,8.82276499 1.89893351,9.47951598 2.49079582,9.97984722 C3.34341121,10.6577506 4.30087709,11.1934343 5.32586555,11.5660139 C6.88796073,12.1487529 8.49302274,12.6102516 10.1266701,12.946375 C10.9878094,13.1054841 11.8187115,13.3974731 12.5893531,13.8117917 C13.136449,14.15736 13.4469585,14.7755799 13.3964073,15.418625 C13.3890346,16.0919625 12.9457945,16.6835334 12.2995748,16.8825139 C11.4652336,17.2177082 10.5706738,17.378903 9.67124245,17.356125 C8.62097077,17.3838226 7.58765345,17.0885451 6.7120438,16.5105139 C6.11248261,16.1085825 5.71399981,15.4707816 5.61694136,14.7577222 L0.0605506884,14.7577222 C0.114488958,15.6081464 0.349647993,16.4374004 0.750396031,17.1903611 C1.21786961,18.0804071 1.88359286,18.8522581 2.69666816,19.4469028 C3.6142523,20.1065957 4.64529296,20.593673 5.73890774,20.8840972 C7.03429051,21.2305597 8.37107338,21.3996023 9.71233041,21.3865556 C12.6925776,21.3865556 14.9416032,20.7903796 16.4594071,19.5980278 C17.8782351,18.5366034 18.6889634,16.85386 18.6323118,15.0879583 C18.6705982,14.1254469 18.508015,13.1654864 18.1548264,12.2686806 Z" id="Shape"></path>
                    </g>
                    <path d="M87.9978829,12.5033333 C88.0411304,13.8586087 88.5597231,15.1560259 89.4636421,16.170375 C90.3331799,17.0817001 91.5542716,17.5769687 92.8159877,17.5300694 C93.645094,17.546693 94.4633362,17.3402282 95.1843846,16.9324583 C95.8343404,16.5782632 96.3111733,15.9756185 96.5048221,15.263625 L101.954384,15.263625 C101.311249,17.3513889 100.359306,18.9586528 98.7663903,20.0858472 C97.0939972,21.2365772 95.0974179,21.8282375 93.0651105,21.7753472 C87.1955863,21.7753472 83.0046136,18.0945278 83.0046136,10.7324583 C82.984669,9.29015065 83.2115145,7.8549878 83.6754288,6.48847222 C84.0893725,5.27970075 84.7534402,4.17082025 85.6247284,3.23347222 C86.49573,2.31413559 87.5640721,1.60251739 88.7500089,1.15173611 C90.0157294,0.648715464 91.3699302,0.403487084 92.7325142,0.430555556 C95.9183454,0.430555556 98.121958,1.43375 99.7568266,3.43841667 C101.391695,5.44308333 102.147281,8.46515278 102.147281,12.5033333 L87.9978829,12.5033333 Z M96.7984929,9.12433333 C96.7848789,8.45337724 96.6499446,7.79035158 96.4001559,7.16702778 C96.1866637,6.63998377 95.865436,6.16287987 95.4568627,5.766 C95.0733259,5.40024605 94.6164006,5.11940307 94.1160974,4.94191667 C93.6184418,4.76446796 93.0937508,4.67386929 92.5651348,4.67411111 C91.4386701,4.66170494 90.3508663,5.08261886 89.5285178,5.84909722 C88.6859652,6.73754735 88.2010581,7.9034349 88.1661273,9.12476389 L96.7984929,9.12433333 Z" id="e-4" fill="#2C2926"></path>
                </g>
            </g>
        </g>
    </g>
</svg>