<?xml version="1.0" encoding="UTF-8"?>
<svg width="160px" height="70px" viewBox="0 0 160 70" version="1.1" xmlns="http://www.w3.org/2000/svg" xmlns:xlink="http://www.w3.org/1999/xlink">
    <!-- Generator: Sketch 47.1 (45422) - http://www.bohemiancoding.com/sketch -->
    <title>erlang</title>
    <desc>Created with Sketch.</desc>
    <defs></defs>
    <g id="technologies" stroke="none" stroke-width="1" fill="none" fill-rule="evenodd">
        <g id="Languages" transform="translate(-32.000000, -241.000000)">
            <g id="erlang" transform="translate(32.000000, 241.000000)">
                <rect id="Rectangle-Copy-7" fill="#FFFFFF" x="0" y="0" width="160" height="70"></rect>
                <g transform="translate(55.000000, 13.000000)" fill-rule="nonzero">
                    <g id="g8" fill="#A90533">
                        <path d="M7.81961461,31.9285444 C3.95061728,27.7883034 1.68690053,22.0685444 1.69263741,15.2440725 C1.68729169,9.20870047 3.56507346,4.02102192 6.79323642,0.0735460966 L6.78802037,0.0755211616 L0.00286781687,0.0755211616 L0.00286781687,31.9292031 L7.81478971,31.9292031 L7.81961481,31.9285797 L7.81961481,31.9285797 L7.81961461,31.9285444 Z" id="path10"></path>
                        <path d="M43.5540556,31.9311771 C45.2207469,30.12848 46.7141584,28.0054275 48.0674074,25.5774275 L40.557323,21.7853216 C37.9197984,26.1155636 34.0626646,30.1013548 28.7289403,30.1279522 C20.9663045,30.1013548 17.9163753,23.3980197 17.9331949,14.7699277 L46.9408951,14.7699277 C46.9796193,13.7958309 46.9796193,13.342885 46.9408951,12.8740069 C47.1302119,7.7408399 45.7830905,3.42613548 43.332535,0.0660408894 L43.3198807,0.0756528166 L49.8510473,0.0756528166 L49.8510473,31.929334 L43.5398374,31.929334 L43.5540556,31.9312042 L43.5540556,31.9312042 L43.5540556,31.9311771 Z" id="path12"></path>
                        <path d="M18.4027056,7.37532322 C18.7238397,3.46892842 21.7736379,0.841842348 25.3495329,0.83394213 C28.9498107,0.84184239 31.5510905,3.46892842 31.6392284,7.37532322 L18.4027056,7.37532322 L18.4027056,7.37532322 Z" id="path14"></path>
                    </g>
                    <g id="g16" transform="translate(0.000000, 36.000000)" fill="#000000">
                        <polygon id="path18" points="4.16784855 1.48456585 4.16784855 0.238381854 0.0976788133 0.238381854 0.0976788133 7.62720585 4.16784855 7.62720585 4.16784855 6.38077444 1.61216056 6.38077444 1.61216056 4.42241463 4.07306183 4.42241463 4.07306183 3.17610712 1.61216056 3.17610712 1.61216056 1.48456585"></polygon>
                        <path d="M11.0776714,4.5113122 C12.0923216,4.36962049 12.649472,3.42400878 12.6868083,2.4638078 C12.649472,0.892941463 11.5667228,0.242957073 10.0364651,0.238258537 L7.9540529,0.238258537 L7.9540529,7.62708248 L9.46853465,7.62708248 L9.46853465,4.68935721 L11.3616367,7.62708248 L13.254739,7.62708248 L11.0776714,4.51131331 L11.0776714,4.51131331 L11.0776714,4.5113122 Z M9.46840311,1.39566675 L9.65771328,1.39566675 C10.4839734,1.42484617 11.1040961,1.60214827 11.07754,2.55295239 C11.1040961,3.42413132 10.5050081,3.66053424 9.65771328,3.6212162 L9.46840311,3.6212162 L9.46840311,1.39566675 L9.46840311,1.39566675 Z" id="path20"></path>
                        <polygon id="path22" points="17.9873629 0.238380488 16.4730127 0.238380488 16.4730127 7.62720449 20.1644303 7.62720449 20.1644303 6.38077307 17.9873629 6.38077307 17.9873629 0.238380488 17.9873629 0.238380488"></polygon>
                        <path d="M27.9261494,6.1137079 L28.5887344,7.62708137 L30.1978714,7.62708137 L27.2635643,0.0602134751 L26.0330477,0.0602134751 L22.9094295,7.62708137 L24.5184336,7.62708137 L25.1811515,6.1137079 L27.9261494,6.1137079 L27.9261494,6.1137079 Z M27.547529,4.95654576 L25.6544274,4.95654576 L26.5063237,2.19686459 L27.547529,4.95654576 L27.547529,4.95654576 L27.547529,4.95654576 Z" id="path24"></path>
                        <polygon id="path26" points="33.0376556 7.62720585 34.6466618 7.62720585 34.6466618 2.64197522 38.8116183 7.80512605 39.9473485 7.80512605 39.9473485 0.238381854 38.3383423 0.238381854 38.3383423 5.22361249 34.1733859 0.0602142556 33.0376556 0.0602142556"></polygon>
                        <path d="M46.5733361,3.71011512 L46.5733361,4.86740078 L48.2771286,4.86740078 C48.2416328,5.79743317 47.432332,6.58540117 46.4786826,6.55881834 C44.9726141,6.58540117 44.2262842,5.21656468 44.2069585,3.97718088 C44.2262946,2.75436527 44.9620975,1.32630437 46.4786826,1.30652172 C47.2745747,1.32618074 47.9474129,1.83830437 48.2771286,2.46380741 L49.6023008,1.84065356 C49.0195145,0.686087707 47.8422407,0.045871122 46.4786826,0.0602125854 C44.1316286,0.0459881951 42.6285851,1.86797844 42.5978216,3.97718039 C42.6285851,6.03383541 44.0896929,7.86570976 46.384027,7.89414741 C48.861888,7.86570976 50.0076079,6.00428498 49.9809212,3.88815854 L49.9809212,3.71011463 L46.5733361,3.71011463 L46.5733361,3.71011463 L46.5733361,3.71011463 L46.5733361,3.71011512 Z" id="path28"></path>
                    </g>
                </g>
            </g>
        </g>
    </g>
</svg>