<?xml version="1.0" encoding="UTF-8"?>
<svg width="160px" height="70px" viewBox="0 0 160 70" version="1.1" xmlns="http://www.w3.org/2000/svg" xmlns:xlink="http://www.w3.org/1999/xlink">
    <!-- Generator: Sketch 47.1 (45422) - http://www.bohemiancoding.com/sketch -->
    <title>ezpublish</title>
    <desc>Created with Sketch.</desc>
    <defs></defs>
    <g id="technologies" stroke="none" stroke-width="1" fill="none" fill-rule="evenodd">
        <g id="Ecommerce" transform="translate(-224.000000, -337.000000)">
            <g id="ezpublish" transform="translate(224.000000, 337.000000)">
                <rect id="Rectangle" fill="#FFFFFF" x="0" y="0" width="160" height="70"></rect>
                <g id="Group" transform="translate(119.000000, 18.000000)" fill-rule="nonzero" fill="#000000">
                    <path d="M1.61363636,2.95238095 L1.61363636,1.02857143 L2.63636364,1.02857143 C2.84090909,1.02857143 3,1.04761905 3.09090909,1.08571429 C3.20454545,1.12380952 3.27272727,1.18095238 3.34090909,1.27619048 C3.40909091,1.37142857 3.43181818,1.46666667 3.43181818,1.56190476 C3.43181818,1.6952381 3.38636364,1.80952381 3.27272727,1.9047619 C3.15909091,2 3,2.05714286 2.79545455,2.07619048 C2.88636364,2.11428571 2.93181818,2.13333333 2.97727273,2.17142857 C3.06818182,2.24761905 3.15909091,2.32380952 3.22727273,2.41904762 L3.63636364,2.93333333 L3.25,2.93333333 L2.95454545,2.53333333 C2.86363636,2.41904762 2.79545455,2.32380952 2.72727273,2.26666667 C2.65909091,2.20952381 2.61363636,2.17142857 2.56818182,2.13333333 C2.52272727,2.11428571 2.47727273,2.0952381 2.43181818,2.07619048 C2.38636364,2.07619048 2.34090909,2.07619048 2.27272727,2.07619048 L1.93181818,2.07619048 L1.93181818,2.93333333 L1.61363636,2.93333333 L1.61363636,2.95238095 Z M1.90909091,1.88571429 L2.56818182,1.88571429 C2.70454545,1.88571429 2.81818182,1.86666667 2.88636364,1.84761905 C2.95454545,1.82857143 3.02272727,1.79047619 3.06818182,1.73333333 C3.11363636,1.67619048 3.13636364,1.61904762 3.13636364,1.56190476 C3.13636364,1.46666667 3.09090909,1.39047619 3.02272727,1.33333333 C2.95454545,1.27619048 2.81818182,1.23809524 2.65909091,1.23809524 L1.93181818,1.23809524 L1.93181818,1.88571429 L1.90909091,1.88571429 Z" id="Shape"></path>
                    <path d="M2.45454545,4 C1.15909091,4 0.0909090909,3.1047619 0.0909090909,2.01904762 C0.0909090909,0.933333333 1.13636364,0.0571428571 2.45454545,0.0571428571 C3.75,0.0571428571 4.81818182,0.952380952 4.81818182,2.03809524 C4.81818182,3.12380952 3.75,4 2.45454545,4 Z M2.45454545,0.304761905 C1.31818182,0.304761905 0.386363636,1.08571429 0.386363636,2.03809524 C0.386363636,2.99047619 1.31818182,3.77142857 2.45454545,3.77142857 C3.59090909,3.77142857 4.52272727,2.99047619 4.52272727,2.03809524 C4.52272727,1.08571429 3.59090909,0.304761905 2.45454545,0.304761905 Z" id="Shape"></path>
                </g>
                <g id="Group" transform="translate(36.000000, 20.000000)" fill-rule="nonzero">
                    <g id="Rectangle-path">
                        <rect fill="#000000" x="0" y="0.106705119" width="25.9938973" height="26.1000721"></rect>
                        <rect fill="#FFFFFF" x="2.52925084" y="2.64628695" width="20.9566498" height="21.0422495"></rect>
                        <rect fill="#000000" x="10.7758838" y="10.8412401" width="20.0002104" height="20.0819034"></rect>
                        <rect fill="#F15A22" x="13.1563552" y="13.2314348" width="15.1967593" height="15.258832"></rect>
                    </g>
                    <g transform="translate(36.982323, 2.774333)" id="Shape" fill="#000000">
                        <path d="M16.1744529,22.1306417 C15.983165,22.6214852 15.6856061,23.0483057 15.3242845,23.4537851 C14.9417088,23.8379236 14.4953704,24.17938 14.0065236,24.4568133 C13.5176768,24.7342466 12.9650673,24.9476568 12.4124579,25.118385 C11.8385943,25.2891132 11.2647306,25.3531363 10.6696128,25.3531363 C9.84069865,25.3531363 9.03303872,25.1824081 8.28914141,24.8622927 C7.54524411,24.5421774 6.86510943,24.0940159 6.26999158,23.5178082 C5.67487374,22.9416006 5.18602694,22.2586878 4.82470539,21.4690699 C4.48463805,20.7434751 4.27209596,19.9325162 4.16582492,19.0361932 L20.6803451,19.0361932 L20.7228535,18.865465 C20.7441077,18.7160779 20.765362,18.5453497 20.7866162,18.2892574 C20.8078704,18.0545061 20.8078704,17.7984138 20.8078704,17.4996395 C20.8078704,16.155155 20.5740741,14.8320115 20.0852273,13.5728911 C19.5963805,12.3137707 18.9162458,11.1826965 18.023569,10.2436914 C17.1308923,9.28334535 16.0469276,8.51506849 14.7929293,7.93886085 C13.538931,7.36265321 12.114899,7.0852199 10.584596,7.0852199 C9.05429293,7.0852199 7.63026094,7.36265321 6.37626263,7.93886085 C5.1010101,8.49372747 3.99579125,9.26200433 3.08186027,10.2436914 C2.16792929,11.2040375 1.4452862,12.3351118 0.935185185,13.6155732 C0.425084175,14.8960346 0.17003367,16.2618601 0.17003367,17.6917087 C0.17003367,19.1215573 0.425084175,20.4873828 0.935185185,21.7891853 C1.4452862,23.0696467 2.14667508,24.222062 3.06060606,25.1824081 C3.97453704,26.1427541 5.07975589,26.911031 6.33375421,27.4872386 C7.60900673,28.0421053 9.03303872,28.3408796 10.5420875,28.3408796 C11.5410354,28.3408796 12.5399832,28.2128335 13.4751684,27.9567412 C14.4103535,27.7006489 15.2605219,27.3378515 16.0256734,26.868349 C16.7908249,26.4201875 17.4709596,25.8653208 18.0660774,25.2464311 C18.6611953,24.6275415 19.1287879,23.9232877 19.4688552,23.1550108 L19.5751263,22.9202596 L16.2382155,22.0025955 L16.1744529,22.1306417 Z M10.6058502,10.0729632 C11.4560185,10.0729632 12.2849327,10.2223504 13.0500842,10.5424658 C13.8152357,10.8412401 14.4953704,11.2894016 15.069234,11.8229272 C15.6430976,12.3564528 16.1319444,13.0393655 16.5145202,13.8076424 C16.8545875,14.5118962 17.0883838,15.3015141 17.1734007,16.133814 L4.10206229,16.133814 C4.18707912,15.3015141 4.39962121,14.5332372 4.73968855,13.8289834 C5.1010101,13.0607066 5.56860269,12.3991348 6.14246633,11.8442682 C6.71632997,11.2894016 7.39646465,10.8625811 8.16161616,10.5424658 C8.90551347,10.2223504 9.73442761,10.0729632 10.6058502,10.0729632 Z"></path>
                        <polygon points="47.0143098 0.17072819 22.7632576 0.17072819 22.7632576 3.79870224 39.4690657 3.79870224 19.957702 28.1061283 44.4638047 28.1061283 44.4638047 24.4781543 27.5242003 24.4781543"></polygon>
                    </g>
                </g>
            </g>
        </g>
    </g>
</svg>