<?xml version="1.0" encoding="UTF-8"?>
<svg width="160px" height="70px" viewBox="0 0 160 70" version="1.1" xmlns="http://www.w3.org/2000/svg" xmlns:xlink="http://www.w3.org/1999/xlink">
    <!-- Generator: Sketch 47.1 (45422) - http://www.bohemiancoding.com/sketch -->
    <title>fedora</title>
    <desc>Created with Sketch.</desc>
    <defs></defs>
    <g id="technologies" stroke="none" stroke-width="1" fill="none" fill-rule="evenodd">
        <g id="OS" transform="translate(-32.000000, -138.000000)">
            <g id="fedora" transform="translate(32.000000, 138.000000)">
                <rect id="Rectangle-Copy-4" fill="#FFFFFF" x="0" y="0" width="160" height="70"></rect>
                <g transform="translate(21.000000, 17.000000)" id="Shape" fill-rule="nonzero">
                    <path d="M119,9.96960486 C119,4.49848024 114.50152,0 108.969605,0 C103.43769,0 99,4.49848024 99,9.96960486 L99,9.96960486 L99,17.7507599 L99,17.7507599 C99,18.9665653 99.9726444,20 101.24924,20 L101.24924,20 L101.24924,20 L108.969605,20 C114.50152,20 119,15.5015198 119,9.96960486" fill="#072B61"></path>
                    <path d="M112.521648,2 C109.874804,2 107.720396,4.1557971 107.720396,6.74275362 L107.720396,9.26811594 L105.196661,9.26811594 C102.611372,9.26811594 100.456964,11.3623188 100.456964,14.0108696 C100.456964,16.6594203 102.611372,18.7536232 105.196661,18.7536232 C107.843505,18.7536232 109.997913,16.6594203 109.997913,14.0108696 L109.997913,11.4855072 L112.521648,11.4855072 C115.106938,11.4855072 117.261346,9.39130435 117.261346,6.74275362 C117.261346,4.1557971 115.106938,2 112.521648,2 Z M112.521648,4.2173913 C113.875848,4.2173913 114.983829,5.38768116 114.983829,6.74275362 C114.983829,8.15942029 113.875848,9.26811594 112.521648,9.26811594 L112.460094,9.26811594 L110.36724,9.26811594 C110.121022,9.26811594 109.997913,9.08333333 109.997913,8.89855072 L109.997913,6.74275362 C109.997913,5.38768116 111.105895,4.2173913 112.521648,4.2173913 Z M47.2738654,10.6231884 C46.2889932,10.6231884 45.4887846,11.3623188 45.4887846,12.4094203 L45.4887846,21.8949275 C44.5654669,20.2318841 42.5957225,19.0615942 40.1950965,19.0615942 C35.3938445,19.0615942 32.1930099,22.6956522 32.1930099,27.5 C32.1930099,32.365942 35.5169536,36 40.1950965,36 C42.2879499,36 44.1345853,35.1376812 45.181012,33.5978261 L45.6118936,34.6449275 C45.8581116,35.3224638 46.5352113,35.8152174 47.3354199,35.8152174 C48.3202921,35.8152174 49.1205008,35.0144928 49.1205008,34.0289855 L49.1205008,34.0289855 L49.1205008,12.4094203 C49.1205008,11.3623188 48.3202921,10.6231884 47.2738654,10.6231884 Z M10.4642671,10.6231884 C6.70944184,10.6231884 3.69327074,13.7028986 3.69327074,17.3985507 L3.69327074,19.5543478 L1.47730829,19.5543478 C0.677099635,19.5543478 0,20.2318841 0,21.0326087 C0,21.8333333 0.677099635,22.634058 1.47730829,22.634058 L3.69327074,22.634058 L3.69327074,34.0289855 C3.69327074,35.0144928 4.49347939,35.8152174 5.47835159,35.8152174 C6.5247783,35.8152174 7.32498696,35.0144928 7.32498696,34.0289855 L7.32498696,22.634058 L9.72561294,22.634058 C10.5873761,22.634058 11.2644757,21.8333333 11.2644757,21.0326087 C11.2644757,20.2318841 10.5873761,19.5543478 9.72561294,19.5543478 L7.32498696,19.5543478 L7.32498696,17.3985507 C7.32498696,15.673913 8.74074074,14.0108696 10.4642671,14.0108696 C10.6489306,14.0108696 10.7720396,14.0108696 10.9567032,14.0724638 C11.9415754,14.1956522 12.8648931,13.7644928 12.9880021,12.7789855 C13.1726656,11.7934783 12.4340115,10.8695652 11.4491393,10.7463768 C11.1413667,10.6847826 10.7720396,10.6231884 10.4642671,10.6231884 Z M105.196661,11.4855072 L107.351069,11.4855072 C107.597287,11.4855072 107.720396,11.6702899 107.720396,11.8550725 L107.720396,14.0108696 C107.720396,15.4275362 106.612415,16.5362319 105.196661,16.5362319 C103.842462,16.5362319 102.672926,15.4275362 102.672926,14.0108696 C102.672926,12.6557971 103.842462,11.4855072 105.196661,11.4855072 Z M116.830464,17.4601449 L116.830464,17.5833333 L117.015128,17.5833333 L117.015128,18.1376812 L117.138237,18.1376812 L117.138237,17.5833333 L117.3229,17.5833333 L117.3229,17.4601449 L116.830464,17.4601449 Z M117.384455,17.4601449 L117.384455,18.1376812 L117.507564,18.1376812 L117.507564,17.7681159 L117.507564,17.7065217 L117.507564,17.7681159 L117.692227,18.1376812 L117.876891,17.7681159 L117.876891,17.6449275 L117.876891,17.7681159 L117.876891,18.1376812 L118,18.1376812 L118,17.4601449 L117.876891,17.4601449 L117.753782,17.7681159 L117.692227,17.8913043 L117.692227,17.7681159 L117.507564,17.4601449 L117.384455,17.4601449 Z M21.1131977,19.0615942 C16.3735003,19.0615942 12.741784,22.8188406 12.741784,27.5 C12.741784,32.2427536 16.4966093,36 21.1747522,36 C23.7600417,36 26.4068858,34.8913043 27.9457486,33.2282609 C28.2535211,32.8586957 28.4381847,32.4275362 28.4997392,32.057971 C28.4997392,31.75 28.3766302,31.442029 28.1919666,31.1956522 C27.8841941,30.826087 27.4533125,30.5797101 26.9608764,30.5797101 C26.6531038,30.5797101 26.3453312,30.6413043 26.0991132,30.8876812 C24.8064684,32.1811594 23.2060511,32.9818841 21.2978612,32.9818841 C18.6510172,32.9818841 16.6812728,31.0724638 16.4966093,28.6086957 C27.8841941,28.6086957 27.8841941,28.6086957 27.8841941,28.6086957 C28.5612937,28.6086957 29.2383933,28.1775362 29.2383933,27.4384058 C29.2383933,22.6956522 25.7297861,19.0615942 21.1131977,19.0615942 Z M60.5080856,19.0615942 C55.7683881,19.0615942 52.0135629,22.8188406 52.0135629,27.5 C52.0135629,32.2427536 55.7683881,36 60.5080856,36 C65.1862285,36 68.9410537,32.2427536 68.9410537,27.5 C68.9410537,22.8188406 65.1862285,19.0615942 60.5080856,19.0615942 Z M81.1288472,19.0615942 C78.6666667,19.0615942 77.0046948,19.8007246 75.5889411,21.6485507 L75.4042775,20.7862319 C75.2811685,19.8623188 74.5425143,19.1847826 73.6191967,19.1847826 C72.6343245,19.1847826 71.8341158,19.9855072 71.8341158,21.0326087 L71.8341158,21.0326087 L71.8341158,34.0289855 C71.8341158,35.0144928 72.6343245,35.8152174 73.6191967,35.8152174 C74.6040689,35.8152174 75.465832,35.0144928 75.465832,34.0289855 L75.465832,27.0688406 C75.465832,23.865942 78.1742306,22.2644928 81.1288472,22.2644928 C81.9906103,22.2644928 82.7292645,21.5253623 82.7292645,20.6630435 C82.7292645,19.7391304 81.9906103,19.0615942 81.1288472,19.0615942 Z M91.7777778,19.0615942 C87.0380803,19.0615942 83.2832551,22.8188406 83.2832551,27.5 C83.2832551,32.2427536 86.9765258,36 91.4084507,36 C93.6859677,36 95.6557121,34.8297101 96.5174752,33.6594203 L97.0099113,34.7681159 C97.1945749,35.384058 97.81012,35.8152174 98.5487741,35.8152174 C99.4720918,35.8152174 100.210746,35.076087 100.210746,34.1521739 L100.210746,29.8405797 L100.210746,27.5 C100.210746,23.0036232 97.0099113,19.0615942 91.7777778,19.0615942 Z M21.1131977,22.0797101 C23.5138237,22.0797101 25.2989045,23.8043478 25.6066771,26.0833333 C25.6066771,26.0833333 22.0980699,26.0833333 16.5581638,26.0833333 C16.9274909,23.7427536 18.5894627,22.0797101 21.1131977,22.0797101 Z M40.6875326,22.2644928 C43.6421492,22.2644928 45.4887846,24.5434783 45.4887846,27.5 C45.4887846,30.5181159 43.6421492,32.7355072 40.6875326,32.7355072 C37.732916,32.7355072 35.8247261,30.3949275 35.8247261,27.5 C35.8247261,24.6666667 37.732916,22.2644928 40.6875326,22.2644928 Z M60.5080856,22.2644928 C63.4011476,22.2644928 65.370892,24.6666667 65.370892,27.5 C65.370892,30.3949275 63.4011476,32.7355072 60.5080856,32.7355072 C57.553469,32.7355072 55.5837246,30.3949275 55.5837246,27.5 C55.5837246,24.6666667 57.553469,22.2644928 60.5080856,22.2644928 Z M91.7777778,22.2644928 C94.7323944,22.2644928 96.6405842,24.6666667 96.6405842,27.5 C96.6405842,30.3949275 94.7323944,32.7355072 91.7777778,32.7355072 C88.8231612,32.7355072 86.9149713,30.3949275 86.9149713,27.5 C86.9149713,24.6666667 88.8231612,22.2644928 91.7777778,22.2644928 Z M100.703182,33.5362319 L100.703182,33.6594203 L100.887846,33.6594203 L100.887846,34.2137681 L101.010955,34.2137681 L101.010955,33.6594203 L101.195618,33.6594203 L101.195618,33.5362319 L100.703182,33.5362319 Z M101.257173,33.5362319 L101.257173,34.2137681 L101.380282,34.2137681 L101.380282,33.8442029 L101.380282,33.7826087 L101.441836,33.8442029 L101.564945,34.2137681 L101.749609,33.8442029 L101.749609,33.7826087 L101.749609,33.8442029 L101.749609,34.2137681 L101.872718,34.2137681 L101.872718,33.5362319 L101.749609,33.5362319 L101.6265,33.8442029 L101.564945,33.9673913 L101.564945,33.8442029 L101.380282,33.5362319 L101.257173,33.5362319 Z" fill="#0A57A4"></path>
                    <path d="M107.387978,9.375 L107.387978,6.8125 L107.387978,6.8125 C107.387978,4.1875 109.491803,2 112.016393,2 C112.437158,2 112.677596,2.0625 113.038251,2.125 C113.579235,2.3125 114,2.75 114,3.25 C114,3.875 113.579235,4.3125 112.918033,4.3125 C112.617486,4.3125 112.497268,4.25 112.016393,4.25 C110.693989,4.25 109.612022,5.4375 109.612022,6.8125 L109.612022,9 L109.612022,9 C109.612022,9.25 109.73224,9.375 109.912568,9.375 L109.912568,9.375 L111.535519,9.375 C112.136612,9.375 112.617486,9.875 112.617486,10.5 C112.617486,11.125 112.136612,11.625 111.535519,11.625 L109.612022,11.625 L109.612022,14.1875 L109.612022,14.1875 C109.612022,16.875 107.508197,19 104.923497,19 C104.562842,19 104.262295,19 103.901639,18.875 C103.420765,18.75 103,18.3125 103,17.75 C103,17.125 103.420765,16.6875 104.081967,16.6875 C104.382514,16.6875 104.502732,16.75 104.923497,16.75 C106.306011,16.75 107.387978,15.625 107.387978,14.1875 L107.387978,12 C107.387978,11.8125 107.26776,11.625 107.027322,11.625 L107.027322,11.625 L105.464481,11.625 C104.863388,11.625 104.382514,11.125 104.382514,10.5 C104.382514,9.875 104.863388,9.375 105.464481,9.375 L107.387978,9.375" fill="#FFFFFF"></path>
                </g>
            </g>
        </g>
    </g>
</svg>