<?xml version="1.0" encoding="UTF-8"?>
<svg width="160px" height="70px" viewBox="0 0 160 70" version="1.1" xmlns="http://www.w3.org/2000/svg" xmlns:xlink="http://www.w3.org/1999/xlink">
    <!-- Generator: Hyder A. - https://toggle.me -->
    <title>flask</title>
    <desc>Created with Sketch.</desc>
    <defs></defs>
    <g id="technologies" stroke="none" stroke-width="1" fill="none" fill-rule="evenodd">
        <g id="Web-frameworks" transform="translate(-224.000000, -136.000000)">
            <g id="flask" transform="translate(224.000000, 136.000000)">
                <rect id="Rectangle-Copy-8" fill="#FFFFFF" x="0" y="0" width="160" height="70"></rect>
                <g transform="translate(40.000000, 19.000000)" id="Shape" fill-rule="nonzero" fill="#222222">
                    <path d="M10.6908012,28.4752386 C9.32209551,27.39623 7.8813527,26.3891553 6.87283273,24.9504771 C4.78375566,22.3608565 3.12690143,19.4115663 2.04634432,16.3184083 C1.39801005,14.3042589 1.18189863,12.1462417 0.317452947,10.2040262 C-0.54699274,8.76534807 0.461527228,7.25473603 2.04634432,6.82313259 C2.76671572,6.67926477 3.91930997,6.03185961 2.47856716,6.53539696 C1.18189863,7.47053775 1.03782435,5.67219008 2.40653002,5.52832226 C3.34301285,5.38445445 3.63116141,4.66511538 3.34301285,3.94577631 C2.33449288,3.29837115 5.72023849,2.57903208 4.06338425,1.64389129 C2.1904186,-0.298324196 6.44060989,-0.729927637 5.43208992,1.50002348 C5.2159785,3.15450334 8.38561269,1.21228785 7.66524128,3.15450334 C8.45764983,4.08964412 10.4746898,3.37030506 10.4746898,4.66511538 C11.5552469,4.73704929 11.9874697,5.67219008 12.9959897,5.74412398 C14.0765468,6.24766133 16.0215496,6.60733087 16.3817353,7.83020728 C15.3011782,8.69341417 12.8519154,6.10379352 12.7078411,8.40567854 C12.9959897,11.8585061 12.9239525,15.3832675 14.2206211,18.6922272 C14.7969182,20.7063766 16.237661,22.2169887 17.6063667,23.7995346 C18.8309981,25.3101467 20.5598894,26.3891553 22.2887808,27.2523621 C23.8015608,27.9717012 25.458415,28.4752386 27.1152692,28.7629742 C27.7636035,28.2594368 28.9882349,26.3172214 29.9967548,27.1804282 C30.068792,28.115569 27.9076778,29.0507098 29.9247177,28.9787759 C31.077312,28.6191064 31.8697205,29.8419828 32.8782405,28.7629742 C33.7426862,29.7700489 36.5521346,28.115569 35.9038004,30.2016523 C35.0393547,30.7771236 33.8147233,30.417454 32.9502776,31.1367931 C31.5815719,30.417454 30.4289777,31.7841983 28.9161977,31.5683966 C27.1873064,31.8561322 25.458415,32 23.7295236,32 C20.848038,31.7841983 17.9665524,31.7122644 15.229141,30.7051897 C13.5002497,30.2016523 12.0595069,29.3384454 10.6908012,28.4752386 M13.140064,29.5542472 C14.6528439,30.2016523 16.0935867,30.8490575 17.750441,31.0648592 C20.343778,31.4245287 23.0091522,32 25.6745264,31.4964627 C24.5219322,30.9929253 23.2973008,31.7122644 22.0726694,31.1367931 C20.6319266,31.4245287 19.1191466,31.0648592 17.6784038,30.8490575 C16.0215496,30.1297184 14.2926582,29.6261811 12.7798783,28.6910403 C10.8348755,27.9717012 13.7883982,29.5542472 14.2926582,29.698115 C15.5172896,30.3455201 12.9959897,29.3384454 12.635804,29.0507098 C11.627284,28.4752386 11.4832097,28.6191064 12.5637668,29.1945776 C12.7078411,29.2665115 12.9239525,29.4103794 13.140064,29.5542472 M10.2585783,27.5400978 C11.6993212,28.0436351 10.2585783,26.5330231 9.61024407,26.604957 C9.32209551,26.1014196 8.45764983,25.7417501 9.10598409,25.5259484 C8.02542698,25.8856179 8.02542698,24.1592041 7.521167,24.3750059 C6.44060989,24.0153363 7.08894416,22.7924599 5.79227563,22.0011869 C5.64820135,21.209914 4.4956071,20.4905749 4.06338425,19.2676985 C3.91930997,18.6202933 2.69467858,16.8219456 3.41504999,18.5483594 C4.06338425,20.1309054 5.14394136,21.4976496 6.00838705,22.8643938 C6.72875845,24.1592041 7.521167,25.5259484 8.81783553,26.3172214 C9.25005837,26.7488248 9.61024407,27.39623 10.2585783,27.5400978 M6.08042419,22.9363277 C6.15246133,22.720526 6.36857275,23.3679312 6.08042419,22.9363277 M11.9874697,28.1875029 C12.3476554,28.0436351 11.5552469,27.9717012 11.9874697,28.1875029 M12.7798783,28.4752386 C12.7078411,28.0436351 12.4196926,28.6910403 12.7798783,28.4752386 M13.7883982,28.8349081 C14.2206211,28.4033047 13.0680268,28.5471725 13.7883982,28.8349081 M15.4452525,29.7700489 C15.733401,29.3384454 14.5808068,29.6261811 15.4452525,29.7700489 M12.2035811,27.5400978 C12.9239525,27.0365604 11.2670983,27.5400978 12.2035811,27.5400978 M12.9239525,27.8997673 C12.9239525,27.6839656 12.7078411,28.0436351 12.9239525,27.8997673 M16.6698838,30.2016523 C17.246181,30.5613219 20.1276666,30.9929253 18.3267381,30.3455201 C18.0385895,30.417454 15.0130296,29.4823133 16.6698838,30.2016523 M10.7628383,25.6698162 C10.6908012,25.3820806 9.8263555,25.3820806 10.7628383,25.6698162 M12.4917297,26.6768909 C12.9239525,26.3172214 11.5552469,26.3891553 12.4917297,26.6768909 M13.9324725,27.5400978 C14.5808068,27.2523621 12.9239525,27.2523621 13.9324725,27.5400978 M10.1145041,24.8785432 C10.8348755,25.3820806 12.9239525,24.9504771 11.1950612,24.5908076 C10.4026526,24.1592041 8.60172411,23.8714685 9.8263555,24.8785432 L10.1145041,24.8785432 M14.9409925,27.8278334 C15.229141,27.3242961 13.7163611,27.5400978 14.9409925,27.8278334 M13.4282125,26.6768909 C15.1571039,27.1804282 11.9874697,25.5978823 12.9959897,26.5330231 L13.2121011,26.604957 L13.4282125,26.6768909 M16.3817353,28.4033047 C18.0385895,28.4033047 14.9409925,28.115569 16.3817353,28.4033047 M9.46616979,23.9434024 C9.39413265,23.6556668 9.03394695,23.9434024 9.46616979,23.9434024 M19.1191466,29.9139167 C19.1911838,29.3384454 18.6148866,30.2735862 19.1191466,29.9139167 M12.2035811,25.5978823 C12.131544,25.3820806 11.6993212,25.5978823 12.2035811,25.5978823 M9.61024407,23.7276007 C10.5467269,23.7276007 8.31357555,23.3679312 9.61024407,23.7276007 M6.51264703,21.7853852 C6.44060989,21.3537818 5.50412706,20.9941122 6.51264703,21.7853852 M14.6528439,26.8926926 C14.4367325,26.6768909 14.5087696,26.9646265 14.6528439,26.8926926 M19.6954437,29.9858506 C19.6234066,29.698115 19.4072952,30.1297184 19.6954437,29.9858506 M14.1485839,26.4610892 C14.2926582,26.0294857 13.3561754,26.3172214 14.1485839,26.4610892 M10.4026526,24.0872702 C11.123024,24.0153363 9.32209551,23.5837329 10.4026526,24.0872702 M16.741921,27.9717012 C17.8224781,27.6120317 15.733401,27.8278334 16.741921,27.9717012 M13.5002497,25.7417501 C14.7248811,25.8856179 12.0595069,24.8785432 13.2121011,25.6698162 L13.5002497,25.7417501 M17.750441,28.4033047 C18.9030352,27.6839656 18.5428495,29.9858506 19.6954437,28.6191064 C20.848038,27.7558995 18.6869238,29.698115 20.1276666,28.7629742 C21.1361866,28.0436351 22.7210037,29.1226437 23.6574865,29.4103794 C24.3778579,29.4103794 25.0261921,29.9858506 25.7465636,29.6261811 C27.1152692,29.2665115 23.0091522,29.0507098 24.0897093,28.4033047 C22.7930408,28.7629742 21.856558,27.9717012 21.2802608,27.1804282 C19.839518,26.8207587 18.2547009,26.1014196 17.5343295,24.8785432 C17.246181,24.3750059 17.9665524,24.9504771 17.3182181,24.1592041 C16.4537724,23.3679312 16.0215496,22.5047243 15.4452525,21.6415174 C14.7248811,21.2818479 14.6528439,20.2028393 14.5808068,21.6415174 C14.5808068,20.7783105 13.7883982,20.1309054 13.5722868,20.418641 C13.5722868,19.5554341 14.4367325,19.9870375 13.8604354,19.3396324 C13.7163611,18.4764255 13.2841382,17.5412847 13.140064,16.53421 C12.9239525,16.0306727 13.140064,15.023598 12.4196926,16.1026066 C12.2035811,17.2535491 12.3476554,14.6639284 12.7078411,15.5271353 C13.2121011,14.6639284 12.4917297,14.7358623 12.4917297,14.8797302 C12.8519154,14.1603911 12.7078411,13.1533164 12.4196926,13.5129859 C12.5637668,12.721713 12.7078411,10.6356297 12.131544,11.0672331 C12.4917297,10.2759601 12.7798783,7.39860384 11.3391354,8.47761245 C10.7628383,8.47761245 9.75431836,8.69341417 9.32209551,8.90921589 C10.7628383,9.70048886 9.17802123,9.19695151 8.60172411,9.0530837 C8.52968697,9.77242277 7.95338984,9.48468714 7.1609813,9.48468714 C8.31357555,9.62855496 6.58468417,10.7075636 5.93634991,10.2759601 C5.07190422,10.7075636 6.72875845,11.7865722 5.93634991,12.0743078 C6.00838705,12.5778451 4.56764424,11.93044 4.71171852,13.0094486 C3.84727283,12.649779 4.56764424,14.3761928 4.99986708,13.8007216 C6.44060989,14.1603911 6.00838705,15.0955319 6.08042419,15.9587388 C5.86431277,16.4622761 4.92782994,14.8077963 5.86431277,14.8797302 C5.07190422,13.6568537 4.99986708,14.4481267 4.42356996,15.023598 C4.27949568,15.023598 6.08042419,15.8148709 4.92782994,16.1745405 C5.86431277,16.3184083 5.93634991,17.1816152 6.15246133,17.6851525 C6.72875845,18.2606238 6.58468417,17.0377474 7.30505558,17.7570864 C6.87283273,17.1096813 4.92782994,15.8868049 6.51264703,16.3184083 C6.51264703,15.6710031 6.22449847,15.1674658 6.72875845,15.1674658 C7.1609813,14.3042589 6.22449847,17.2535491 7.30505558,16.1745405 C7.59320414,16.0306727 7.66524128,15.3113336 8.16950126,16.2464744 C8.96190981,16.9658135 8.45764983,17.5412847 7.37709272,16.8219456 C7.59320414,17.4693508 8.81783553,17.6851525 8.60172411,18.6922272 C8.81783553,19.5554341 9.17802123,19.2676985 9.46616979,19.1957646 C9.68228122,20.0589715 9.8263555,19.4115663 9.8263555,18.9799629 C10.9069126,19.1957646 10.618764,19.8431697 10.9789497,20.2747732 C11.6993212,20.6344427 9.89839264,17.9728882 11.1950612,19.4835002 C12.5637668,20.7063766 11.6993212,21.209914 10.4746898,20.9941122 C11.2670983,20.9221783 11.4832097,22.0011869 12.4196926,22.0011869 C13.2841382,22.4327904 13.8604354,24.0153363 12.3476554,23.3679312 C11.8433954,22.8643938 9.97042978,22.2889226 11.4832097,23.2240634 C12.8519154,23.8714685 14.0045096,24.2311381 15.3011782,25.022411 C16.237661,25.6698162 16.6698838,26.4610892 17.0300695,26.6768909 C16.237661,27.0365604 14.5808068,26.3891553 15.8054382,26.1733535 C15.0850668,26.0294857 14.2206211,25.6698162 14.9409925,26.604957 C15.5893267,27.1084943 17.1021067,27.0365604 17.3902553,27.1084943 C17.1741438,27.6120317 16.741921,27.6839656 17.3902553,27.6839656 C16.741921,28.115569 17.6784038,28.1875029 17.750441,28.4033047 M16.3096981,24.2311381 C15.8774753,23.7995346 15.733401,22.9363277 16.237661,23.6556668 C16.4537724,23.7276007 17.0300695,25.022411 16.3096981,24.2311381 M21.1361866,27.2523621 C21.4243351,27.2523621 21.1361866,27.4681639 21.1361866,27.2523621 M15.5893267,23.0801955 C15.5893267,22.3608565 15.733401,23.5837329 15.5893267,23.0801955 M15.0850668,22.4327904 C14.5808068,21.3537818 15.8054382,22.720526 15.0850668,22.4327904 M9.25005837,18.4044916 C9.61024407,18.3325577 9.39413265,18.9799629 9.25005837,18.4044916 M13.9324725,20.9221783 C14.1485839,20.2028393 14.1485839,21.5695835 13.9324725,20.9221783 M10.618764,18.6202933 C10.4026526,18.2606238 11.123024,19.0518968 10.618764,18.6202933 M13.4282125,19.5554341 C12.9239525,18.4044916 13.7883982,18.9080289 13.5722868,19.7712358 L13.4282125,19.5554341 M8.60172411,16.3184083 C8.38561269,15.9587388 7.95338984,14.8077963 8.09746412,14.4481267 C8.2415384,15.023598 9.32209551,16.8938796 8.60172411,15.2393997 C7.8813527,13.8726555 9.46616979,15.6710031 9.68228122,16.0306727 C9.75431836,16.3903422 9.25005837,15.9587388 9.61024407,16.7500117 C8.88987267,15.8148709 9.17802123,17.2535491 8.60172411,16.3184083 M7.08894416,15.3113336 C7.1609813,14.3761928 7.44912986,15.8868049 7.08894416,15.3113336 M7.73727842,15.5271353 C8.09746412,14.8077963 8.31357555,16.4622761 7.73727842,15.5271353 M6.15246133,14.232325 C5.57616421,13.6568537 5.2159785,13.1533164 6.15246133,13.8726555 C6.51264703,13.8726555 5.28801564,12.721713 6.22449847,13.5129859 C7.23301844,13.7287876 6.72875845,15.1674658 6.15246133,14.232325 M7.01690702,14.232325 C7.30505558,13.9445894 7.1609813,14.5200606 7.01690702,14.232325 M7.521167,14.3761928 C7.01690702,13.5129859 8.09746412,14.8077963 7.521167,14.3761928 M6.44060989,13.3691181 C4.78375566,11.93044 8.45764983,14.0884572 6.72875845,13.6568537 L6.44060989,13.3691181 M11.123024,16.1026066 C10.4026526,15.6710031 10.9069126,13.1533164 11.1950612,14.8797302 C11.8433954,14.6639284 11.123024,15.742937 11.6993212,15.742937 C11.5552469,16.4622761 11.3391354,16.7500117 11.123024,16.1026066 M12.8519154,17.1096813 C12.9239525,16.3903422 12.9959897,17.6132186 12.8519154,17.1096813 M12.5637668,16.8219456 C12.635804,16.4622761 12.5637668,17.1816152 12.5637668,16.8219456 M6.80079559,12.9375147 C5.79227563,11.4988365 9.8263555,14.3761928 7.44912986,13.2971842 C7.23301844,13.2252503 6.94486988,13.2252503 6.80079559,12.9375147 M10.1145041,14.6639284 C10.0424669,13.441052 10.3306155,14.8797302 10.1145041,14.6639284 M12.635804,16.3184083 C12.8519154,15.5990692 12.635804,16.7500117 12.635804,16.3184083 M6.94486988,12.3620434 C7.59320414,12.2181756 9.53820693,13.441052 7.73727842,12.721713 C7.521167,12.5059112 7.08894416,12.5778451 6.94486988,12.3620434 M12.2756183,15.023598 C12.3476554,13.8007216 12.635804,14.3042589 12.2756183,15.1674658 L12.2756183,15.023598 M7.44912986,11.93044 C7.73727842,11.5707704 6.80079559,10.2759601 7.59320414,11.4988365 C7.95338984,11.7865722 8.60172411,11.93044 8.02542698,12.0743078 C8.88987267,12.8655808 7.73727842,12.2901095 7.44912986,11.93044 M11.9874697,14.6639284 C12.2035811,13.2252503 12.2035811,15.4552014 11.9874697,14.6639284 M6.87283273,10.6356297 C7.08894416,10.5636957 7.01690702,10.9233653 6.87283273,10.6356297 M8.09746412,11.3549687 C8.38561269,10.7075636 8.67376125,12.0743078 8.09746412,11.3549687 M11.4832097,13.2252503 C11.4832097,13.0094486 11.5552469,13.5849198 11.4832097,13.2252503 M11.2670983,12.7936469 C10.8348755,11.6427043 11.6993212,13.441052 11.2670983,12.7936469 M10.9789497,12.0743078 C10.9069126,11.5707704 11.2670983,12.649779 10.9789497,12.0743078 M11.4832097,11.2830348 C11.1950612,10.7075636 11.9154326,8.76534807 11.9874697,9.98822449 C11.627284,10.9233653 11.9154326,11.4269026 12.131544,10.2040262 C12.4917297,9.19695151 11.9874697,12.1462417 11.4832097,11.2830348 M11.9154326,8.40567854 C12.0595069,8.26181072 11.9874697,8.62148026 11.9154326,8.40567854 M11.123024,24.303072 C10.9789497,24.0872702 11.1950612,24.3750059 11.123024,24.303072 M12.7798783,25.0943449 C13.7163611,25.3101467 13.7163611,24.9504771 12.8519154,24.8066093 C12.4196926,24.3750059 10.9789497,23.9434024 12.2756183,24.7346754 C12.3476554,25.022411 12.635804,25.022411 12.7798783,25.0943449 M9.53820693,22.9363277 C10.0424669,23.2959973 11.4832097,24.0153363 10.2585783,23.0801955 C10.6908012,22.6485921 9.46616979,22.3608565 9.89839264,22.0731208 C8.88987267,21.4976496 9.10598409,21.4976496 9.8263555,21.5695835 C8.67376125,21.0660462 9.97042978,21.0660462 9.89839264,20.7783105 C9.46616979,20.7063766 7.59320414,19.9870375 8.67376125,20.8502444 C7.59320414,20.2747732 8.38561269,21.0660462 8.09746412,20.9941122 C7.01690702,20.7063766 9.10598409,21.8573191 7.95338984,21.5695835 C8.60172411,22.0731208 9.68228122,22.8643938 8.2415384,22.0731208 C8.02542698,22.2889226 9.25005837,22.720526 9.53820693,22.9363277 M11.2670983,23.9434024 C13.3561754,24.5908076 10.1865412,23.0801955 11.2670983,23.9434024 M20.1276666,29.3384454 C20.1997037,28.906842 19.839518,29.698115 20.1276666,29.3384454 M21.0641494,29.698115 C21.5684094,29.1945776 21.0641494,30.417454 21.856558,29.5542472 C21.856558,28.906842 21.856558,28.5471725 20.9200751,29.3384454 C20.7039637,29.4823133 20.6319266,30.0577845 21.0641494,29.698115 M6.58468417,20.5625088 C6.36857275,19.9870375 5.50412706,19.9870375 6.58468417,20.5625088 M7.521167,21.209914 C7.1609813,20.6344427 6.22449847,20.7063766 7.521167,21.209914 M13.0680268,24.5908076 C13.6443239,25.0943449 15.5893267,24.9504771 13.7163611,24.6627415 C13.5002497,24.2311381 11.9874697,24.303072 13.0680268,24.5908076 M20.7039637,29.2665115 C21.5684094,28.6191064 19.9115552,29.6261811 20.7039637,29.2665115 M22.4328551,30.489388 C22.4328551,30.2735862 22.0726694,30.5613219 22.4328551,30.489388 M22.4328551,30.1297184 C23.3693379,29.1945776 21.5684094,30.2016523 22.4328551,30.1297184 M4.13542139,18.6202933 C3.34301285,17.4693508 3.63116141,16.9658135 2.91079001,16.1026066 C2.76671572,15.3832675 1.61412148,13.8007216 2.33449288,15.5271353 C2.98282715,16.4622761 3.12690143,17.9728882 4.13542139,18.6202933 M22.1447065,29.8419828 C23.8735979,28.7629742 21.4243351,29.3384454 22.1447065,29.8419828 M23.4413751,30.3455201 C24.3058207,29.6261811 22.9371151,30.2016523 23.4413751,30.3455201 M6.29653561,19.3396324 C6.51264703,18.9799629 5.64820135,19.3396324 6.29653561,19.3396324 M23.1532265,29.9858506 C23.945635,29.4823133 22.9371151,29.5542472 23.0091522,30.0577845 L23.1532265,29.9858506 M11.9874697,22.9363277 C11.9874697,22.5766582 11.5552469,23.0082616 11.9874697,22.9363277 M12.7078411,23.3679312 C12.4917297,22.9363277 12.3476554,23.4398651 12.7078411,23.3679312 M24.5219322,30.3455201 C25.6024893,29.5542472 23.8735979,30.2016523 24.3058207,30.489388 L24.5219322,30.3455201 M24.0897093,30.2016523 C24.954155,29.4823133 23.2252636,30.489388 24.0897093,30.2016523 M26.1787864,31.5683966 C26.7550835,31.1367931 25.458415,31.4245287 26.1787864,31.5683966 M6.80079559,19.1238307 C7.59320414,19.2676985 9.89839264,20.9941122 8.52968697,19.2676985 C7.80931556,19.0518968 8.2415384,17.325483 7.521167,17.6851525 C8.02542698,18.4764255 7.8813527,18.836095 6.87283273,18.3325577 C5.57616421,17.6851525 6.15246133,18.6202933 6.44060989,18.9080289 C6.08042419,18.9080289 6.87283273,19.1238307 6.80079559,19.1238307 M3.27097571,16.3184083 C3.41504999,15.742937 1.97430718,13.1533164 2.62264144,15.023598 C2.83875287,15.3832675 2.76671572,16.1745405 3.27097571,16.3184083 M9.75431836,20.2747732 C9.32209551,19.9870375 9.75431836,20.2747732 9.75431836,20.2747732 M10.6908012,20.5625088 C10.6908012,19.9151036 9.61024407,20.2747732 10.6908012,20.5625088 M19.1911838,25.8856179 C19.0471095,25.4540145 18.6148866,25.8856179 19.1911838,25.8856179 M19.6234066,26.1733535 C19.5513695,25.9575518 19.4072952,26.2452874 19.6234066,26.1733535 M23.0091522,28.3313707 C23.2973008,28.0436351 22.5769294,28.2594368 23.0091522,28.3313707 M4.99986708,16.7500117 C5.93634991,16.3903422 4.06338425,16.53421 4.99986708,16.7500117 M18.4708124,25.2382128 C18.4708124,24.5908076 17.8945152,25.3820806 18.4708124,25.2382128 M4.63968138,15.8868049 C5.28801564,15.742937 4.13542139,15.8148709 4.63968138,15.8868049 M6.36857275,16.7500117 C6.36857275,16.53421 6.22449847,16.8219456 6.36857275,16.7500117 M27.4754549,29.6261811 C28.2678635,29.4823133 29.9967548,29.9858506 30.2849034,29.4103794 C29.3484206,29.4103794 27.0432321,28.7629742 26.9711949,29.5542472 L27.1873064,29.5542472 L27.4754549,29.6261811 M6.94486988,16.8938796 C6.94486988,16.2464744 6.44060989,16.8938796 6.94486988,16.8938796 M2.40653002,13.7287876 C2.1904186,12.5778451 1.61412148,13.5849198 2.40653002,13.7287876 M3.48708713,14.0165233 C3.48708713,13.6568537 2.47856716,13.6568537 3.48708713,14.0165233 M4.06338425,14.3042589 C3.91930997,14.1603911 3.99134711,14.5200606 4.06338425,14.3042589 M8.02542698,16.8219456 C8.16950126,16.6061439 7.59320414,16.6780778 8.02542698,16.8219456 M3.70319855,13.6568537 C3.55912427,12.721713 2.40653002,13.5129859 3.70319855,13.6568537 M1.4700472,12.2181756 C1.39801005,11.7865722 1.25393577,12.3620434 1.4700472,12.2181756 M1.8302329,11.93044 C1.75819576,11.4269026 1.54208434,12.0023739 1.8302329,11.93044 M3.63116141,13.0094486 C4.42356996,12.721713 2.1904186,12.3620434 3.48708713,12.9375147 L3.63116141,13.0094486 M28.051752,28.115569 C28.556012,27.6839656 27.4034178,27.9717012 28.051752,28.115569 M31.0052748,29.6261811 C31.2213862,29.0507098 30.5010148,29.698115 31.0052748,29.6261811 M3.77523569,12.0743078 C3.91930997,11.4988365 3.19893857,12.2181756 3.77523569,12.0743078 M1.18189863,10.347894 C1.03782435,9.55662105 1.03782435,8.11794291 2.40653002,8.62148026 C0.605601509,8.98114979 3.63116141,10.8514314 3.27097571,9.34081933 C3.99134711,9.41275323 4.71171852,8.90921589 4.35153282,9.62855496 C5.86431277,9.48468714 6.87283273,8.18987682 8.31357555,8.33374463 C9.39413265,8.18987682 10.618764,8.046009 11.8433954,7.61440556 C12.8519154,7.54247166 13.7883982,6.46346305 13.2121011,5.8879918 C11.8433954,5.74412398 10.4746898,5.9599257 8.96190981,6.24766133 C7.30505558,6.60733087 5.79227563,7.25473603 4.13542139,7.54247166 C2.5506043,7.75827338 4.4956071,8.11794291 3.99134711,8.18987682 C3.12690143,8.47761245 4.99986708,8.69341417 3.84727283,8.98114979 C3.12690143,8.83728198 2.40653002,8.62148026 2.76671572,7.90214119 C1.25393577,8.11794291 -0.114769896,8.76534807 1.10986149,10.347894 L1.18189863,10.347894 M4.92782994,8.40567854 C5.28801564,7.03893431 6.87283273,9.48468714 5.50412706,8.54954635 C5.36005278,8.47761245 5.14394136,8.40567854 4.92782994,8.40567854 M4.99986708,7.75827338 C5.50412706,7.39860384 5.28801564,7.9740751 4.99986708,7.75827338 M5.64820135,7.83020728 C5.72023849,7.18280212 7.1609813,8.18987682 5.86431277,8.046009 L5.64820135,7.83020728 M6.58468417,7.39860384 C6.94486988,7.03893431 6.65672131,7.75827338 6.58468417,7.39860384 M6.80079559,7.25473603 C7.37709272,6.60733087 9.97042978,6.82313259 8.02542698,7.18280212 C7.59320414,6.82313259 7.1609813,7.47053775 6.80079559,7.25473603 M10.1865412,6.75119868 C10.1145041,4.95285101 11.8433954,7.39860384 10.1865412,6.75119868 M11.123024,6.75119868 C11.4832097,5.81605789 12.4917297,6.39152915 11.2670983,6.53539696 C11.3391354,6.67926477 11.2670983,7.03893431 11.123024,6.75119868 M3.41504999,11.5707704 C4.4956071,10.9952992 2.33449288,11.0672331 3.41504999,11.5707704 M4.20745854,11.7865722 C4.56764424,11.4269026 3.41504999,11.6427043 4.20745854,11.7865722 M1.90227004,10.2040262 C2.5506043,9.77242277 1.25393577,10.0601584 1.90227004,10.2040262 M32.7341662,29.4823133 C32.8062033,28.906842 32.3019433,29.698115 32.7341662,29.4823133 M29.6365691,27.3242961 C29.7086063,26.7488248 29.2043463,27.39623 29.6365691,27.3242961 M33.5986119,29.698115 C34.4630576,29.698115 36.1199118,29.4103794 34.3189833,29.4103794 C34.0308347,29.4823133 32.662129,29.4823133 33.5986119,29.698115 M4.8557928,11.4269026 C5.50412706,11.3549687 5.93634991,10.7075636 4.71171852,10.7075636 C2.83875287,10.4917618 6.36857275,11.3549687 4.4956071,11.0672331 C4.27949568,11.2830348 4.8557928,11.4988365 4.8557928,11.4269026 M5.50412706,11.7146383 C5.43208992,11.2830348 5.28801564,12.0023739 5.50412706,11.7146383 M6.15246133,9.84435668 C6.44060989,9.48468714 5.79227563,9.77242277 6.15246133,9.84435668 M3.91930997,6.10379352 C5.14394136,5.67219008 6.80079559,5.24058664 7.37709272,6.31959524 C6.80079559,5.60025617 7.1609813,4.95285101 7.66524128,5.9599257 C8.45764983,6.9670004 8.81783553,5.45638836 8.31357555,5.16865273 C8.88987267,5.8879918 9.53820693,6.24766133 8.67376125,5.24058664 C9.61024407,4.16157803 6.87283273,5.38445445 6.22449847,5.38445445 C5.93634991,5.45638836 3.12690143,6.03185961 3.91930997,6.10379352 M4.63968138,4.73704929 C5.36005278,4.23351194 7.01690702,5.02478491 5.93634991,4.23351194 C5.86431277,4.16157803 3.55912427,4.8809171 4.63968138,4.73704929 M7.1609813,4.8809171 C7.95338984,4.8809171 6.80079559,3.8019085 7.73727842,4.30544585 C7.59320414,3.8019085 6.65672131,3.72997459 6.15246133,3.51417287 C5.93634991,3.94577631 6.72875845,4.8809171 7.1609813,4.8809171 M5.07190422,2.57903208 C5.36005278,2.21936255 4.56764424,2.7948338 5.07190422,2.57903208 M6.08042419,2.86676771 C7.37709272,2.72289989 5.72023849,2.29129645 5.79227563,2.86676771 L6.08042419,2.86676771 M4.20745854,1.35615566 C3.27097571,0.133279245 5.93634991,1.57195738 4.99986708,0.277147059 C4.20745854,-0.298324196 3.48708713,0.996486128 4.20745854,1.35615566 M15.8774753,7.61440556 C16.3096981,6.89506649 14.1485839,6.60733087 15.5893267,7.32666993 C15.733401,7.39860384 15.733401,7.68633947 15.8774753,7.61440556"></path>
                    <path d="M35,2.27839777 C34.8562874,2.8351933 34.7844311,3.80958548 34.7125749,5.13197486 C34.7125749,5.41037263 34.5688623,5.54957151 34.3532934,5.54957151 C34.1377246,5.54957151 33.9221557,5.41037263 33.8502994,5.2015743 C33.5628743,4.57517933 33.3473054,4.15758268 33.1317365,3.87918492 C32.8443114,3.60078715 32.4850299,3.39198883 31.9820359,3.32238939 C31.4071856,3.32238939 30.1856287,3.32238939 28.1736527,3.32238939 C27.742515,3.32238939 27.3832335,3.39198883 27.3113772,3.46158827 C27.239521,3.53118771 27.1676647,3.67038659 27.1676647,3.80958548 L27.1676647,9.58633911 C27.1676647,9.79513743 27.3113772,9.86473688 27.5269461,9.86473688 C28.3173653,9.86473688 29.4670659,9.79513743 30.9041916,9.72553799 C31.1916168,9.72553799 31.4071856,9.58633911 31.4790419,9.44714023 C31.5508982,9.30794134 31.6946108,8.8903447 31.7664671,8.26394972 C31.8383234,7.91595252 32.0538922,7.77675363 32.4131737,7.84635308 C32.7005988,7.91595252 32.8443114,8.0551514 32.7724551,8.26394972 C32.5568862,9.44714023 32.4131737,10.9087285 32.5568862,12.7879134 C32.5568862,12.9967117 32.4131737,13.1359106 32.1257485,13.1359106 C31.9101796,13.1359106 31.6946108,13.0663112 31.6946108,12.718314 C31.4790419,11.6743224 31.0479042,11.1175268 30.4011976,11.0479274 C29.8263473,10.9783279 28.8203593,10.9783279 27.3832335,10.9783279 C27.239521,10.9783279 27.1676647,11.0479274 27.1676647,11.1175268 L27.1676647,16.8942805 C27.1676647,17.3118771 27.3113772,17.5902749 27.6706587,17.7294738 C27.9580838,17.8686726 28.4610778,17.9382721 29.3233533,18.077471 C29.754491,18.1470704 29.9700599,18.2862693 29.8982036,18.6342665 C29.8263473,18.9126643 29.4670659,19.0518631 28.748503,18.9822637 C26.6646707,18.8430648 24.9401198,18.8430648 23.5748503,18.9822637 C23.2155689,19.0518631 23,18.9126643 23,18.564667 C23,18.3558687 23.2155689,18.2166698 23.5748503,18.1470704 C24.4371257,18.077471 24.8682635,17.3118771 24.8682635,15.9198883 L24.8682635,5.06237542 C24.8682635,4.50557989 24.7964072,4.08798324 24.5808383,3.73998603 C24.3652695,3.46158827 24.005988,3.1831905 23.4311377,2.90479274 C23.0718563,2.76559386 22.9281437,2.55679553 23.0718563,2.27839777 C23.1437126,2.13919888 23.2155689,2 23.2874251,2 C23.3592814,2 23.5748503,2 24.005988,2.06959944 C24.5808383,2.13919888 25.8742515,2.20879832 27.8862275,2.20879832 C30.3293413,2.20879832 32.4131737,2.13919888 34.1377246,2.06959944 C34.7125749,2.06959944 35,2.06959944 35,2.20879832 C35,2.20879832 35,2.27839777 35,2.27839777"></path>
                    <path d="M44,19.4962121 C44,19.8560606 43.7931034,20 43.4482759,19.9280303 C42.2758621,19.7840909 40.8275862,19.8560606 39.1034483,20 C38.7586207,20 38.5517241,20 38.4827586,20 C38.4137931,19.9280303 38.3448276,19.7840909 38.3448276,19.5681818 C38.3448276,19.3522727 38.5517241,19.2083333 39.0344828,19.0643939 C39.5172414,18.9204545 39.7241379,18.4886364 39.7241379,17.7689394 L39.7241379,5.75 C39.7241379,5.03030303 39.6551724,4.52651515 39.4482759,4.16666667 C39.2413793,3.80681818 38.8965517,3.59090909 38.4137931,3.375 C38.137931,3.3030303 38,3.15909091 38,2.94318182 C38,2.65530303 38.2068966,2.51136364 38.5517241,2.36742424 C39.1034483,2.15151515 39.7241379,1.86363636 40.3448276,1.50378788 C40.8275862,1.21590909 41.1724138,1 41.3103448,1 C41.6551724,1 41.7931034,1.21590909 41.7931034,1.64772727 C41.7931034,1.64772727 41.7931034,2.07954545 41.7241379,2.94318182 C41.7241379,3.80681818 41.7241379,4.67045455 41.7241379,5.53409091 L41.7931034,17.3371212 C41.7931034,17.8409091 41.9310345,18.2727273 42.2068966,18.4886364 C42.4827586,18.7045455 42.8965517,18.9204545 43.5172414,18.9924242 C43.7931034,19.0643939 44,19.2083333 44,19.4962121"></path>
                    <path d="M55,18.3758389 C55,18.5973154 54.6478873,18.8187919 54.0140845,19.261745 C53.3802817,19.6308725 52.8169014,19.852349 52.4647887,19.852349 C52.1126761,19.852349 51.8309859,19.704698 51.5492958,19.3355705 C51.2676056,18.966443 51.1267606,18.8187919 50.9859155,18.8187919 C50.915493,18.8187919 50.4929577,19.0402685 49.7887324,19.409396 C49.0140845,19.7785235 48.3098592,20 47.5352113,20 C46.8309859,20 46.2676056,19.7785235 45.7746479,19.3355705 C45.2816901,18.8926174 45,18.2281879 45,17.4161074 C45,15.8657718 46.6901408,14.7583893 50.1408451,14.0939597 C50.7042254,13.9463087 51.056338,13.7248322 51.056338,13.3557047 L51.056338,12.4697987 C51.1267606,10.9932886 50.4929577,10.2550336 49.1549296,10.2550336 C48.8028169,10.2550336 48.4507042,10.6241611 48.0985915,11.2885906 C47.7464789,11.9530201 47.3239437,12.3221477 46.6901408,12.3959732 C45.9859155,12.4697987 45.6338028,12.1744966 45.6338028,11.4362416 C45.6338028,10.9932886 46.1267606,10.4765101 47.1830986,9.88590604 C48.3098592,9.29530201 49.3661972,9 50.3521127,9 C52.1126761,9 52.9577465,9.88590604 52.9577465,11.5838926 L52.8873239,17.1946309 C52.8873239,17.7852349 53.0985915,18.0805369 53.5915493,18.0805369 C53.6619718,18.0805369 53.8732394,18.0805369 54.1549296,18.0067114 C54.4366197,17.9328859 54.5774648,17.9328859 54.6478873,17.9328859 C54.8591549,17.8590604 55,18.0067114 55,18.3758389 M51.056338,15.2751678 C51.056338,15.0536913 50.9859155,14.9060403 50.915493,14.8322148 C50.7746479,14.7583893 50.6338028,14.7583893 50.4225352,14.7583893 C48.3802817,15.1275168 47.3239437,15.8657718 47.3239437,16.8993289 C47.3239437,17.9328859 47.8873239,18.4496644 48.943662,18.4496644 C49.3661972,18.4496644 49.7887324,18.3758389 50.2816901,18.2281879 C50.8450704,18.0067114 51.056338,17.7852349 51.056338,17.4899329 L51.056338,15.2751678"></path>
                    <path d="M66,16.92 C66,17.8733333 65.6296296,18.6066667 64.8888889,19.1933333 C64.1481481,19.78 63.1111111,20 61.8518519,20 C61.037037,20 60.1481481,19.9266667 59.3333333,19.7066667 C58.5925926,19.56 58.1481481,19.4133333 58.0740741,19.2666667 C58,19.12 58,18.5333333 58,17.4333333 C58,16.9933333 58.0740741,16.7 58.2962963,16.7 C58.5185185,16.7 58.6666667,16.7733333 58.8888889,17.0666667 C59.5555556,18.24 60.6666667,18.8266667 62.1481481,18.8266667 C63.4074074,18.8266667 64.0740741,18.3866667 64.0740741,17.5066667 C64.0740741,17.14 63.9259259,16.7733333 63.6296296,16.5533333 C63.3333333,16.26 62.6666667,15.8933333 61.7777778,15.5266667 C60.4444444,14.94 59.5555556,14.4266667 59.1111111,13.9866667 C58.6666667,13.5466667 58.3703704,12.8866667 58.3703704,12.08 C58.3703704,11.1266667 58.7407407,10.3933333 59.4814815,9.80666667 C60.1481481,9.29333333 61.1111111,9 62.2962963,9 C63.037037,9 63.7037037,9.07333333 64.2962963,9.14666667 C64.962963,9.29333333 65.2592593,9.44 65.3333333,9.58666667 C65.4074074,10.1 65.5555556,10.8333333 65.7777778,11.7866667 C65.7777778,11.9333333 65.7037037,12.0066667 65.4074074,12.08 C65.1111111,12.1533333 64.8888889,12.08 64.8148148,11.9333333 C64.0740741,10.76 63.1851852,10.1733333 62.0740741,10.1733333 C60.8148148,10.1733333 60.2222222,10.54 60.2222222,11.3466667 C60.2222222,11.7866667 60.3703704,12.1533333 60.7407407,12.3733333 C61.037037,12.5933333 61.7777778,12.96 62.8148148,13.4 C64,13.9133333 64.7407407,14.3533333 65.1851852,14.72 C65.7037037,15.38 66,16.1133333 66,16.92"></path>
                    <path d="M80,19.3362832 C80,19.619469 79.7891892,19.8318584 79.3675676,19.8318584 C78.7351351,19.8318584 77.9621622,19.9026549 76.9783784,19.9734513 C76.4864865,20.0442478 76.1351351,19.9734513 75.9243243,19.7610619 C74.5891892,18.2743363 73.3945946,16.7168142 72.4810811,15.159292 C72.4108108,15.0176991 72.3405405,14.9469027 72.2,14.9469027 C72.0594595,14.9469027 71.7783784,15.0884956 71.427027,15.3716814 C71.0054054,15.5840708 70.7945946,15.9380531 70.7945946,16.3628319 C70.7945946,16.6460177 70.7945946,17.0707965 70.7945946,17.6371681 C70.7945946,18.2035398 70.9351351,18.5575221 71.2162162,18.699115 C71.427027,18.840708 71.8486486,18.9115044 72.4810811,18.9823009 C72.9027027,19.0530973 73.1135135,19.1946903 73.1135135,19.4070796 C73.1135135,19.619469 73.1135135,19.7610619 73.0432432,19.7610619 C72.972973,19.8318584 72.8324324,19.8318584 72.5513514,19.7610619 C71.7081081,19.6902655 70.2324324,19.7610619 68.1945946,19.9026549 C67.7027027,19.9734513 67.4216216,19.9026549 67.3513514,19.6902655 C67.3513514,19.619469 67.3513514,19.5486726 67.3513514,19.4070796 C67.3513514,19.1238938 67.6324324,18.9115044 68.1243243,18.7699115 C68.6162162,18.6283186 68.827027,18.0619469 68.827027,17.0707965 L68.827027,5.74336283 C68.827027,5.03539823 68.7567568,4.53982301 68.6162162,4.25663717 C68.4054054,3.90265487 68.0540541,3.61946903 67.4216216,3.40707965 C67.1405405,3.33628319 67,3.19469027 67,2.98230088 C67,2.69911504 67.2108108,2.55752212 67.6324324,2.4159292 C68.2648649,2.20353982 68.8972973,1.92035398 69.4594595,1.49557522 C69.9513514,1.21238938 70.2324324,1 70.3027027,1 C70.6540541,1 70.8648649,1.21238938 70.8648649,1.7079646 C70.8648649,1.63716814 70.8648649,2.0619469 70.8648649,2.98230088 C70.8648649,3.61946903 70.8648649,4.46902655 70.8648649,5.53097345 L70.8648649,13.6725664 C70.8648649,13.8849558 70.9351351,14.0265487 71.0756757,14.0265487 C71.2162162,14.0265487 71.427027,13.8849558 71.6378378,13.6725664 C72.3405405,13.1061947 73.2540541,12.3982301 74.2378378,11.4778761 C74.4486486,11.2654867 74.5189189,11.1238938 74.5189189,10.9823009 C74.5189189,10.7699115 74.1675676,10.5575221 73.4648649,10.4867257 C73.1837838,10.4867257 73.0432432,10.2743363 73.0432432,9.99115044 C73.0432432,9.7079646 73.2540541,9.56637168 73.4648649,9.63716814 C74.0972973,9.7079646 75.0108108,9.77876106 76.2054054,9.77876106 C77.0486486,9.77876106 77.8216216,9.77876106 78.6648649,9.77876106 C78.9459459,9.77876106 79.0864865,9.92035398 79.0864865,10.2743363 C79.0864865,10.5575221 78.8756757,10.699115 78.4540541,10.7699115 C77.8216216,10.7699115 77.1891892,10.9115044 76.5567568,11.1946903 C75.7135135,11.5486726 74.8702703,12.1858407 73.9567568,13.1769912 C73.8864865,13.2477876 73.8864865,13.3185841 73.8864865,13.3893805 C73.8864865,13.5309735 74.027027,13.8141593 74.3081081,14.2389381 C75.3621622,15.8672566 76.4162162,17.1415929 77.3297297,17.9911504 C77.9621622,18.4867257 78.5243243,18.7699115 79.0162162,18.7699115 C79.4378378,18.7699115 79.6486486,18.7699115 79.7189189,18.840708 C79.9297297,18.9823009 80,19.1238938 80,19.3362832"></path>
                </g>
            </g>
        </g>
    </g>
</svg>