<?xml version="1.0" encoding="UTF-8"?>
<svg width="160px" height="70px" viewBox="0 0 160 70" version="1.1" xmlns="http://www.w3.org/2000/svg" xmlns:xlink="http://www.w3.org/1999/xlink">
    <!-- Generator: Sketch 47.1 (45422) - http://www.bohemiancoding.com/sketch -->
    <title>freebsd</title>
    <desc>Created with Sketch.</desc>
    <defs>
        <path d="M1.83375909,0.0407505882 C1.27094773,0.0440447059 0.811352273,0.180124706 0.505634091,0.496632941 C-0.813804545,1.86264 1.08168864,6.21280235 2.72864545,9.18045647 C1.29408182,11.7612941 0.470122727,14.7556776 0.470122727,17.9451624 C0.470122727,27.6620518 8.08732955,35.5481035 17.4729636,35.5481035 C26.8585955,35.5481035 34.4758045,27.6620494 34.4758045,17.9451624 C34.4758045,14.7346588 33.6410273,11.7213647 32.1888727,9.12898588 C33.829325,6.16269412 35.6954477,1.85491059 34.383475,0.496632941 C34.3553455,0.467510588 34.3289568,0.441877647 34.2982477,0.415750588 C34.2957318,0.413896471 34.2936909,0.410221176 34.2911455,0.408397647 C32.8853386,-0.767430588 28.8714636,1.10534588 26.0738159,2.76133882 C23.5495114,1.22415765 20.6114091,0.342221176 17.4729636,0.342221176 C14.5999773,0.342221176 11.8922614,1.08215294 9.51841818,2.38633882 C10.3122955,1.86185176 11.1523182,1.41122118 12.0326227,1.04075059 C10.8699182,1.47106824 9.77371364,2.03688235 8.75137273,2.72457412 C6.56290909,1.43521176 3.66284091,0.0300470588 1.83375909,0.0407505882 Z" id="path-1"></path>
        <radialGradient cx="197.250425%" cy="-38.1690057%" fx="197.250425%" fy="-38.1690057%" r="209.510777%" gradientTransform="translate(1.972504,-0.381690),scale(1.000000,0.965907),translate(-1.972504,0.381690)" id="radialGradient-3">
            <stop stop-color="#FF2F00" offset="36.44%"></stop>
            <stop stop-color="#FF2F00" offset="36.44%"></stop>
            <stop stop-color="#FFB700" offset="47.22%"></stop>
            <stop stop-color="#FFFFFF" offset="49.8%"></stop>
            <stop stop-color="#FFFFFF" offset="49.8%"></stop>
            <stop stop-color="#FF2F00" offset="50%"></stop>
            <stop stop-color="#FFFFFF" offset="50%"></stop>
            <stop stop-color="#FF1100" offset="50%"></stop>
            <stop stop-color="#7C0000" offset="50%"></stop>
            <stop stop-color="#FFB700" offset="55.669999%"></stop>
            <stop stop-color="#FFB700" offset="55.67%"></stop>
            <stop stop-color="#FF8800" offset="61.930001%"></stop>
            <stop stop-color="#FF3300" offset="73.760003%"></stop>
            <stop stop-color="#FF1100" offset="79.149997%"></stop>
            <stop stop-color="#FF1100" offset="79.15%"></stop>
            <stop stop-color="#7C0000" offset="94.129997%"></stop>
            <stop stop-color="#7C0000" offset="94.13%"></stop>
            <stop stop-color="#EB0000" offset="100%"></stop>
            <stop stop-color="#EB0000" offset="100%"></stop>
        </radialGradient>
        <linearGradient x1="100.00188%" y1="50.0000668%" x2="0.00121883199%" y2="50.0000668%" id="linearGradient-4">
            <stop stop-color="#FFFFFF" offset="0%"></stop>
            <stop stop-color="#FFFFFF" offset="0%"></stop>
            <stop stop-color="#FFFFFF" offset="47.22%"></stop>
            <stop stop-color="#787878" offset="50.160003%"></stop>
            <stop stop-color="#222222" offset="84.500003%"></stop>
            <stop stop-color="#000000" offset="100%"></stop>
            <stop stop-color="#000000" offset="100%"></stop>
        </linearGradient>
        <linearGradient x1="5.51106037%" y1="66.36532%" x2="20.6298642%" y2="56.9161126%" id="linearGradient-5">
            <stop stop-color="#FFFFFF" offset="8.3%"></stop>
            <stop stop-color="#FFFFFF" offset="8.3%"></stop>
            <stop stop-color="#FFFFFF" offset="47.22%"></stop>
            <stop stop-color="#787878" offset="54.299998%"></stop>
            <stop stop-color="#222222" offset="85.790002%"></stop>
            <stop stop-color="#000000" offset="100%"></stop>
            <stop stop-color="#000000" offset="100%"></stop>
        </linearGradient>
        <linearGradient x1="76.1066201%" y1="4.66595565%" x2="42.086132%" y2="42.4667917%" id="linearGradient-6">
            <stop stop-color="#FFFFFF" offset="8.3%"></stop>
            <stop stop-color="#FFFFFF" offset="8.3%"></stop>
            <stop stop-color="#FFFFFF" offset="47.22%"></stop>
            <stop stop-color="#787878" offset="54.299998%"></stop>
            <stop stop-color="#222222" offset="85.790002%"></stop>
            <stop stop-color="#000000" offset="100%"></stop>
            <stop stop-color="#000000" offset="100%"></stop>
        </linearGradient>
        <radialGradient cx="49.4401374%" cy="101.059252%" fx="49.4401374%" fy="101.059252%" r="102.553027%" gradientTransform="translate(0.494401,1.010593),scale(1.000000,0.965909),translate(-0.494401,-1.010593)" id="radialGradient-7">
            <stop stop-color="#000000" offset="0%"></stop>
            <stop stop-color="#000000" offset="0%"></stop>
            <stop stop-color="#000000" offset="50%"></stop>
            <stop stop-color="#FFFFFF" offset="100%"></stop>
            <stop stop-color="#FFFFFF" offset="100%"></stop>
        </radialGradient>
        <radialGradient cx="34.6797353%" cy="28.9892961%" fx="34.6797353%" fy="28.9892961%" r="88.8968681%" gradientTransform="translate(0.346797,0.289893),scale(1.000000,0.965909),translate(-0.346797,-0.289893)" id="radialGradient-8">
            <stop stop-color="#FF0000" offset="0%"></stop>
            <stop stop-color="#FF0000" offset="0%"></stop>
            <stop stop-color="#E20000" offset="11.31%"></stop>
            <stop stop-color="#8D0000" offset="45.58%"></stop>
            <stop stop-color="#FF0000" offset="47.22%"></stop>
            <stop stop-color="#6B0000" offset="50%"></stop>
            <stop stop-color="#6B0000" offset="61.189997%"></stop>
            <stop stop-color="#6B0000" offset="61.19%"></stop>
            <stop stop-color="#FF0000" offset="95.249999%"></stop>
            <stop stop-color="#FF0000" offset="95.25%"></stop>
        </radialGradient>
        <linearGradient x1="-0.00013944618%" y1="50.0003486%" x2="99.9997949%" y2="50.0003486%" id="linearGradient-9">
            <stop stop-color="#FFFFFF" offset="8.3%"></stop>
            <stop stop-color="#FFFFFF" offset="8.3%"></stop>
            <stop stop-color="#FFFFFF" offset="47.22%"></stop>
            <stop stop-color="#787878" offset="54.299998%"></stop>
            <stop stop-color="#222222" offset="85.790002%"></stop>
            <stop stop-color="#000000" offset="100%"></stop>
            <stop stop-color="#000000" offset="100%"></stop>
        </linearGradient>
        <linearGradient x1="99.9998838%" y1="50.0001435%" x2="-4.1013302e-05%" y2="50.0001435%" id="linearGradient-10">
            <stop stop-color="#FFFFFF" offset="8.3%"></stop>
            <stop stop-color="#FFFFFF" offset="8.3%"></stop>
            <stop stop-color="#FFFFFF" offset="47.22%"></stop>
            <stop stop-color="#787878" offset="54.299998%"></stop>
            <stop stop-color="#222222" offset="85.790002%"></stop>
            <stop stop-color="#000000" offset="100%"></stop>
            <stop stop-color="#000000" offset="100%"></stop>
        </linearGradient>
        <linearGradient x1="50%" y1="-1.66128895%" x2="50%" y2="113.269066%" id="linearGradient-11">
            <stop stop-color="#FFFFFF" offset="8.3%"></stop>
            <stop stop-color="#FFFFFF" offset="8.3%"></stop>
            <stop stop-color="#FFFFFF" offset="47.22%"></stop>
            <stop stop-color="#787878" offset="54.299998%"></stop>
            <stop stop-color="#222222" offset="85.790002%"></stop>
            <stop stop-color="#000000" offset="100%"></stop>
            <stop stop-color="#000000" offset="100%"></stop>
        </linearGradient>
        <radialGradient cx="49.9996232%" cy="50.0010801%" fx="49.9996232%" fy="50.0010801%" r="51.0908717%" gradientTransform="translate(0.499996,0.500011),scale(1.000000,0.925936),translate(-0.499996,-0.500011)" id="radialGradient-12">
            <stop stop-color="#FF0000" offset="0%"></stop>
            <stop stop-color="#FF0000" offset="0%"></stop>
            <stop stop-color="#FF0000" offset="47.22%"></stop>
            <stop stop-color="#FF7A00" offset="47.72%"></stop>
            <stop stop-color="#FFD000" offset="83.740002%"></stop>
            <stop stop-color="#FFF200" offset="100%"></stop>
            <stop stop-color="#FFF200" offset="100%"></stop>
        </radialGradient>
        <radialGradient cx="-3.6237822%" cy="-323.90261%" fx="-3.6237822%" fy="-323.90261%" r="418.383936%" gradientTransform="translate(-0.036238,-3.239026),scale(0.749376,1.000000),translate(0.036238,3.239026)" id="radialGradient-13">
            <stop stop-color="#FF2F00" offset="36.44%"></stop>
            <stop stop-color="#FF2F00" offset="36.44%"></stop>
            <stop stop-color="#FFB700" offset="47.22%"></stop>
            <stop stop-color="#FFFFFF" offset="49.8%"></stop>
            <stop stop-color="#FFFFFF" offset="49.8%"></stop>
            <stop stop-color="#FF2F00" offset="50%"></stop>
            <stop stop-color="#FFFFFF" offset="50%"></stop>
            <stop stop-color="#FF1100" offset="50%"></stop>
            <stop stop-color="#7C0000" offset="50%"></stop>
            <stop stop-color="#FFB700" offset="55.669999%"></stop>
            <stop stop-color="#FFB700" offset="55.67%"></stop>
            <stop stop-color="#FF8800" offset="61.930001%"></stop>
            <stop stop-color="#FF3300" offset="73.760003%"></stop>
            <stop stop-color="#FF1100" offset="79.149997%"></stop>
            <stop stop-color="#FF1100" offset="79.15%"></stop>
            <stop stop-color="#7C0000" offset="94.129997%"></stop>
            <stop stop-color="#7C0000" offset="94.13%"></stop>
            <stop stop-color="#EB0000" offset="100%"></stop>
            <stop stop-color="#EB0000" offset="100%"></stop>
        </radialGradient>
        <radialGradient cx="-97.2493402%" cy="-38.1690057%" fx="-97.2493402%" fy="-38.1690057%" r="209.508132%" gradientTransform="translate(-0.972493,-0.381690),scale(1.000000,0.965925),translate(0.972493,0.381690)" id="radialGradient-14">
            <stop stop-color="#FF2F00" offset="36.44%"></stop>
            <stop stop-color="#FF2F00" offset="36.44%"></stop>
            <stop stop-color="#FFB700" offset="47.22%"></stop>
            <stop stop-color="#FFFFFF" offset="49.8%"></stop>
            <stop stop-color="#FFFFFF" offset="49.8%"></stop>
            <stop stop-color="#FF2F00" offset="50%"></stop>
            <stop stop-color="#FFFFFF" offset="50%"></stop>
            <stop stop-color="#FF1100" offset="50%"></stop>
            <stop stop-color="#7C0000" offset="50%"></stop>
            <stop stop-color="#FFB700" offset="55.669999%"></stop>
            <stop stop-color="#FFB700" offset="55.67%"></stop>
            <stop stop-color="#FF8800" offset="61.930001%"></stop>
            <stop stop-color="#FF3300" offset="73.760003%"></stop>
            <stop stop-color="#FF1100" offset="79.149997%"></stop>
            <stop stop-color="#FF1100" offset="79.15%"></stop>
            <stop stop-color="#7C0000" offset="94.129997%"></stop>
            <stop stop-color="#7C0000" offset="94.13%"></stop>
            <stop stop-color="#EB0000" offset="100%"></stop>
            <stop stop-color="#EB0000" offset="100%"></stop>
        </radialGradient>
        <linearGradient x1="13.668831%" y1="11.2464575%" x2="57.1461003%" y2="42.4365255%" id="linearGradient-15">
            <stop stop-color="#FFFFFF" offset="8.3%"></stop>
            <stop stop-color="#FFFFFF" offset="8.3%"></stop>
            <stop stop-color="#FFFFFF" offset="47.22%"></stop>
            <stop stop-color="#787878" offset="54.299998%"></stop>
            <stop stop-color="#222222" offset="85.790002%"></stop>
            <stop stop-color="#000000" offset="100%"></stop>
            <stop stop-color="#000000" offset="100%"></stop>
        </linearGradient>
        <linearGradient x1="-0.00121885717%" y1="50.0000668%" x2="99.999153%" y2="50.0000668%" id="linearGradient-16">
            <stop stop-color="#FFFFFF" offset="0%"></stop>
            <stop stop-color="#FFFFFF" offset="0%"></stop>
            <stop stop-color="#FFFFFF" offset="47.22%"></stop>
            <stop stop-color="#787878" offset="50.160003%"></stop>
            <stop stop-color="#222222" offset="84.500003%"></stop>
            <stop stop-color="#000000" offset="100%"></stop>
            <stop stop-color="#000000" offset="100%"></stop>
        </linearGradient>
        <radialGradient cx="3.64237213%" cy="10.6518024%" fx="3.64237213%" fy="10.6518024%" r="124.347061%" gradientTransform="translate(0.036424,0.106518),scale(1.000000,0.965902),translate(-0.036424,-0.106518)" id="radialGradient-17">
            <stop stop-color="#B00000" offset="0%"></stop>
            <stop stop-color="#B00000" offset="0%"></stop>
            <stop stop-color="#B00000" offset="50%"></stop>
            <stop stop-color="#EBBFBF" offset="100%"></stop>
            <stop stop-color="#EBBFBF" offset="100%"></stop>
        </radialGradient>
        <radialGradient cx="-41.259186%" cy="-60.1409081%" fx="-41.259186%" fy="-60.1409081%" r="271.42312%" gradientTransform="translate(-0.412592,-0.601409),scale(1.000000,0.745991),translate(0.412592,0.601409)" id="radialGradient-18">
            <stop stop-color="#B00000" offset="0%"></stop>
            <stop stop-color="#B00000" offset="0%"></stop>
            <stop stop-color="#B00000" offset="50%"></stop>
            <stop stop-color="#FFFFFF" offset="100%"></stop>
            <stop stop-color="#FFFFFF" offset="100%"></stop>
        </radialGradient>
        <linearGradient x1="229.930299%" y1="-174.719286%" x2="9.12243527%" y2="110.978565%" id="linearGradient-19">
            <stop stop-color="#FF5900" offset="16.29%"></stop>
            <stop stop-color="#FF5900" offset="16.29%"></stop>
            <stop stop-color="#FF5000" offset="18.74%"></stop>
            <stop stop-color="#FF2F00" offset="29.21%"></stop>
            <stop stop-color="#FF2F00" offset="29.210001%"></stop>
            <stop stop-color="#FF5900" offset="47.22%"></stop>
            <stop stop-color="#FF2F00" offset="50%"></stop>
            <stop stop-color="#EB0000" offset="100%"></stop>
            <stop stop-color="#EB0000" offset="100%"></stop>
        </linearGradient>
        <radialGradient cx="49.9985162%" cy="49.9967366%" fx="49.9985162%" fy="49.9967366%" r="50.7694805%" gradientTransform="translate(0.499985,0.499967),scale(0.667790,1.000000),translate(-0.499985,-0.499967)" id="radialGradient-20">
            <stop stop-color="#FFFFFF" offset="25.839999%"></stop>
            <stop stop-color="#FFFFFF" offset="25.84%"></stop>
            <stop stop-color="#AFAFAF" offset="37.639999%"></stop>
            <stop stop-color="#AFAFAF" offset="37.64%"></stop>
            <stop stop-color="#FFFFFF" offset="50%"></stop>
            <stop stop-color="#AFAFAF" offset="50%"></stop>
            <stop stop-color="#000000" offset="100%"></stop>
            <stop stop-color="#000000" offset="100%"></stop>
        </radialGradient>
        <radialGradient cx="50.0017421%" cy="49.9975882%" fx="50.0017421%" fy="49.9975882%" r="65.0192177%" gradientTransform="translate(0.500017,0.499976),scale(0.736654,1.000000),translate(-0.500017,-0.499976)" id="radialGradient-21">
            <stop stop-color="#FFFFFF" offset="25.839999%"></stop>
            <stop stop-color="#FFFFFF" offset="25.84%"></stop>
            <stop stop-color="#AFAFAF" offset="37.639999%"></stop>
            <stop stop-color="#AFAFAF" offset="37.64%"></stop>
            <stop stop-color="#FFFFFF" offset="50%"></stop>
            <stop stop-color="#AFAFAF" offset="50%"></stop>
            <stop stop-color="#000000" offset="100%"></stop>
            <stop stop-color="#000000" offset="100%"></stop>
        </radialGradient>
        <radialGradient cx="50.0037497%" cy="49.9997253%" fx="50.0037497%" fy="49.9997253%" r="36.0011454%" gradientTransform="translate(0.500037,0.499997),scale(1.000000,0.904585),translate(-0.500037,-0.499997)" id="radialGradient-22">
            <stop stop-color="#FFFFFF" offset="25.839999%"></stop>
            <stop stop-color="#FFFFFF" offset="25.84%"></stop>
            <stop stop-color="#AFAFAF" offset="37.639999%"></stop>
            <stop stop-color="#AFAFAF" offset="37.64%"></stop>
            <stop stop-color="#FFFFFF" offset="50%"></stop>
            <stop stop-color="#AFAFAF" offset="50%"></stop>
            <stop stop-color="#000000" offset="100%"></stop>
            <stop stop-color="#000000" offset="100%"></stop>
        </radialGradient>
        <radialGradient cx="49.9976684%" cy="50.0036256%" fx="49.9976684%" fy="50.0036256%" r="40.7113148%" gradientTransform="translate(0.499977,0.500036),scale(1.000000,0.732900),translate(-0.499977,-0.500036)" id="radialGradient-23">
            <stop stop-color="#FFFFFF" offset="25.839999%"></stop>
            <stop stop-color="#FFFFFF" offset="25.84%"></stop>
            <stop stop-color="#AFAFAF" offset="37.639999%"></stop>
            <stop stop-color="#AFAFAF" offset="37.64%"></stop>
            <stop stop-color="#FFFFFF" offset="50%"></stop>
            <stop stop-color="#AFAFAF" offset="50%"></stop>
            <stop stop-color="#000000" offset="100%"></stop>
            <stop stop-color="#000000" offset="100%"></stop>
        </radialGradient>
        <linearGradient x1="91.3728971%" y1="4.9620731%" x2="21.6392442%" y2="80.8741265%" id="linearGradient-24">
            <stop stop-color="#34B3D1" offset="1%"></stop>
            <stop stop-color="#34B3D1" offset="1%"></stop>
            <stop stop-color="#FFFFFF" offset="17.42%"></stop>
            <stop stop-color="#FFFFFF" offset="17.42%"></stop>
            <stop stop-color="#FDBF6F" offset="33.149999%"></stop>
            <stop stop-color="#FDBF6F" offset="33.15%"></stop>
            <stop stop-color="#FFFF7F" offset="42.699999%"></stop>
            <stop stop-color="#FFFF7F" offset="42.7%"></stop>
            <stop stop-color="#673920" offset="50%"></stop>
            <stop stop-color="#34B3D1" offset="50%"></stop>
            <stop stop-color="#FFFFFF" offset="50%"></stop>
            <stop stop-color="#FDBF6F" offset="50%"></stop>
            <stop stop-color="#FFFF7F" offset="50%"></stop>
            <stop stop-color="#673920" offset="50%"></stop>
            <stop stop-color="#673920" offset="50%"></stop>
            <stop stop-color="#B55004" offset="50%"></stop>
            <stop stop-color="#B55004" offset="65.17%"></stop>
            <stop stop-color="#B55004" offset="65.170002%"></stop>
            <stop stop-color="#4E0901" offset="100%"></stop>
            <stop stop-color="#4E0901" offset="100%"></stop>
        </linearGradient>
        <radialGradient cx="10.0658743%" cy="85.759162%" fx="10.0658743%" fy="85.759162%" r="78.8914474%" gradientTransform="translate(0.100659,0.857592),scale(0.712683,1.000000),translate(-0.100659,-0.857592)" id="radialGradient-25">
            <stop stop-color="#FFFFFF" offset="0%"></stop>
            <stop stop-color="#FFFFFF" offset="0%"></stop>
            <stop stop-color="#FFFFFF" offset="50%"></stop>
            <stop stop-color="#000000" offset="100%"></stop>
            <stop stop-color="#000000" offset="100%"></stop>
        </radialGradient>
        <linearGradient x1="86.1032564%" y1="61.8194774%" x2="72.5356378%" y2="52.6175382%" id="linearGradient-26">
            <stop stop-color="#FFFFFF" offset="8.3%"></stop>
            <stop stop-color="#FFFFFF" offset="8.3%"></stop>
            <stop stop-color="#FFFFFF" offset="47.22%"></stop>
            <stop stop-color="#787878" offset="54.299998%"></stop>
            <stop stop-color="#222222" offset="85.790002%"></stop>
            <stop stop-color="#000000" offset="100%"></stop>
            <stop stop-color="#000000" offset="100%"></stop>
        </linearGradient>
    </defs>
    <g id="technologies" stroke="none" stroke-width="1" fill="none" fill-rule="evenodd">
        <g id="OS" transform="translate(-224.000000, -138.000000)">
            <g id="freebsd" transform="translate(224.000000, 138.000000)">
                <rect id="Rectangle-Copy-5" fill="#FFFFFF" x="0" y="0" width="160" height="70"></rect>
                <g transform="translate(27.000000, 17.000000)">
                    <g id="g4795" transform="translate(44.000000, 12.000000)" fill-rule="nonzero" fill="#000000">
                        <path d="M17.7030093,3.61931818 C15.319371,3.74382273 13.4189838,5.78103618 13.4189815,8.26534091 C13.4189815,10.8297847 15.4412561,12.9113589 17.9326389,12.9113636 C19.0391575,12.9113636 20.0176346,12.521496 20.8030093,11.8403409 C20.9086619,11.73159 20.9752315,11.5851509 20.9752315,11.4193182 C20.9752315,11.0876575 20.7090173,10.8136364 20.3868056,10.8136364 C20.2256997,10.8136364 20.0834304,10.8821582 19.9777778,10.9909091 C19.4123676,11.4422242 18.7037742,11.7073864 17.9326389,11.7073864 C16.5920221,11.7073887 15.4376096,10.8926196 14.9043981,9.72045455 C14.868321,9.64237655 14.8469884,9.55409945 14.8469907,9.46193182 C14.8469907,9.13027109 15.106029,8.86363873 15.4282407,8.86363636 L21.8650463,8.86363636 C22.187444,8.86363873 22.4462963,8.59695909 22.4462963,8.26534091 C22.4462963,5.70089709 20.4240193,3.61931582 17.9326389,3.61931818 C17.854783,3.61931818 17.7799007,3.61530236 17.7030093,3.61931818 Z M17.9326389,4.81590909 C19.2805327,4.81591145 20.4387639,5.64042109 20.9680556,6.825 C20.968981,6.82706818 20.9671347,6.83031582 20.9680556,6.83238636 C20.9955927,6.90245873 21.0111111,6.98093382 21.0111111,7.06136364 C21.0111157,7.393022 20.7520728,7.65965909 20.4298611,7.65965909 L15.4282407,7.65965909 C15.1060313,7.65965909 14.8469907,7.39302436 14.8469907,7.06136364 C14.8469907,6.96919836 14.868321,6.88091891 14.9043981,6.80284091 C15.4380896,5.62981073 16.5929245,4.81590909 17.9326389,4.81590909 Z" id="rect4226"></path>
                        <path d="M3.41574074,0.0738636364 C1.61935963,0.073866 0.179398148,1.710566 0.179398148,3.56761364 L0.179398148,12.3130682 C0.179400444,12.6449227 0.438477778,12.9113636 0.760648148,12.9113636 C1.08304815,12.911366 1.34907407,12.6451591 1.34907407,12.3130682 L1.34907407,8.13238636 C1.34907407,7.658404 1.72100059,7.27556818 2.18148148,7.27556818 L4.83657407,7.27556818 C5.15897407,7.27556582 5.425,7.00889091 5.425,6.67727273 C5.4250023,6.34542055 5.1592037,6.07897727 4.83657407,6.07897727 L2.18148148,6.07897727 C1.72100289,6.07897727 1.34907407,5.69614145 1.34907407,5.22215909 L1.34907407,3.56761364 C1.34907407,2.37166091 2.27396481,1.27045455 3.41574074,1.27045455 L6.18564815,1.27045455 C6.50804585,1.27045218 6.77407407,1.00377727 6.77407407,0.672159091 C6.77407407,0.340306909 6.50827778,0.0738636364 6.18564815,0.0738636364 L3.41574074,0.0738636364 Z" id="path7098"></path>
                        <path d="M10.0104167,3.62670455 C8.19335741,3.62670218 6.60185185,5.10683491 6.60185185,6.92840909 L6.60185185,12.3056818 C6.60185415,12.637534 6.86093148,12.9113636 7.18310185,12.9113636 C7.50550185,12.9113636 7.77152778,12.6377727 7.77152778,12.3056818 L7.77152778,6.92840909 C7.77152778,5.72937182 8.8078463,4.83068182 10.0104167,4.83068182 C10.8170367,4.83068418 11.4440335,5.25076618 11.9048611,5.78326273 C12.0035307,5.88205327 12.1371154,5.94602273 12.2851852,5.94602273 C12.5891459,5.94602273 12.8377338,5.69014491 12.8377315,5.37727273 C12.8377315,5.27527945 12.811719,5.17942691 12.7659722,5.09725273 C12.2921797,4.29589727 11.0668071,3.62670455 10.0104167,3.62670455 Z" id="circle7088"></path>
                        <path d="M28.0940577,3.61931818 C25.7104195,3.74382273 23.8100322,5.78103618 23.8100299,8.26534091 C23.8100299,10.8297847 25.8323046,12.9113589 28.3236873,12.9113636 C29.4302059,12.9113636 30.408683,12.521496 31.1940577,11.8403409 C31.2997103,11.73159 31.3662799,11.5851509 31.3662799,11.4193182 C31.3662799,11.0876575 31.1000657,10.8136364 30.777854,10.8136364 C30.6167481,10.8136364 30.4744788,10.8821582 30.3688262,10.9909091 C29.8034161,11.4422242 29.0948227,11.7073864 28.3236873,11.7073864 C26.9830705,11.7073887 25.8286581,10.8926196 25.2954466,9.72045455 C25.2593695,9.64237655 25.2380369,9.55409945 25.2380392,9.46193182 C25.2380392,9.13027109 25.4970775,8.86363873 25.8192892,8.86363636 L32.2560947,8.86363636 C32.5784924,8.86363873 32.8373447,8.59695909 32.8373447,8.26534091 C32.8373447,5.70089709 30.8150678,3.61931582 28.3236873,3.61931818 C28.2458314,3.61931818 28.1709492,3.61530236 28.0940577,3.61931818 Z M28.3236873,4.81590909 C29.6715811,4.81591145 30.8298123,5.64042109 31.359104,6.825 C31.3600294,6.82706818 31.3581832,6.83031582 31.359104,6.83238636 C31.3866412,6.90245873 31.4021596,6.98093382 31.4021596,7.06136364 C31.4021641,7.393022 31.1431213,7.65965909 30.8209096,7.65965909 L25.8192892,7.65965909 C25.4970798,7.65965909 25.2380392,7.39302436 25.2380392,7.06136364 C25.2380392,6.96919836 25.2593695,6.88091891 25.2954466,6.80284091 C25.829138,5.62981073 26.983973,4.81590909 28.3236873,4.81590909 Z" id="path4280"></path>
                        <path d="M38.0180556,0.0738636364 C36.2286276,0.0738612727 34.7601852,1.57798727 34.7601852,3.41988636 L34.7601852,5.85 L34.7601852,12.3056818 C34.7601852,12.6373425 35.0263994,12.9113636 35.3486111,12.9113636 L40.3358796,12.9113636 C42.3033486,12.9113636 43.9023102,11.2655069 43.9023148,9.24034091 C43.9023148,7.62568891 42.8860797,6.25186545 41.4768519,5.76136364 C42.0492818,5.15577873 42.4025463,4.32604545 42.4025463,3.41988636 C42.4025486,1.58800909 40.9566856,0.0901372727 39.1805556,0.0738636364 C39.1765118,0.0738636364 39.1636479,0.0738636364 39.1518519,0.0738636364 C39.1459527,0.0738636364 39.1458011,0.0738636364 39.1375,0.0738636364 C39.0378867,0.0738636364 38.7548567,0.0738636364 38.0180556,0.0738636364 Z M38.0180556,1.27784091 C38.7548567,1.27784327 39.0378706,1.27784091 39.1375,1.27784091 C39.1458011,1.27784091 39.1459527,1.27784091 39.1518519,1.27784091 C40.3096192,1.27784091 41.2400463,2.22816927 41.2400463,3.41988636 C41.2400463,4.61160818 40.3096169,5.56931345 39.1518519,5.56931818 L36.518287,5.56931818 C36.1960776,5.56931818 35.9298611,5.30268345 35.9298611,4.97102273 L35.9298611,4.26193182 L35.9298611,3.41988636 C35.9298611,2.22816691 36.8602813,1.27784091 38.0180556,1.27784091 Z M36.5111111,6.77329545 L40.3358796,6.77329545 C41.6589481,6.77329545 42.7326389,7.87846564 42.7326389,9.24034091 C42.7326366,10.6022185 41.658955,11.7073864 40.3358796,11.7073864 L35.9298611,11.7073864 L35.9298611,7.37897727 C35.9298611,7.04731418 36.1888994,6.77329545 36.5111111,6.77329545 Z" id="path4297"></path>
                        <path d="M28.0940577,3.61931818 C25.7104195,3.74382273 23.8100322,5.78103618 23.8100299,8.26534091 C23.8100299,10.8297847 25.8323046,12.9113589 28.3236873,12.9113636 C29.4302059,12.9113636 30.408683,12.521496 31.1940577,11.8403409 C31.2997103,11.73159 31.3662799,11.5851509 31.3662799,11.4193182 C31.3662799,11.0876575 31.1000657,10.8136364 30.777854,10.8136364 C30.6167481,10.8136364 30.4744788,10.8821582 30.3688262,10.9909091 C29.8034161,11.4422242 29.0948227,11.7073864 28.3236873,11.7073864 C26.9830705,11.7073887 25.8286581,10.8926196 25.2954466,9.72045455 C25.2593695,9.64237655 25.2380369,9.55409945 25.2380392,9.46193182 C25.2380392,9.13027109 25.4970775,8.86363873 25.8192892,8.86363636 L32.2560947,8.86363636 C32.5784924,8.86363873 32.8373447,8.59695909 32.8373447,8.26534091 C32.8373447,5.70089709 30.8150678,3.61931582 28.3236873,3.61931818 C28.2458314,3.61931818 28.1709492,3.61530236 28.0940577,3.61931818 Z M28.3236873,4.81590909 C29.6715811,4.81591145 30.8298123,5.64042109 31.359104,6.825 C31.3600294,6.82706818 31.3581832,6.83031582 31.359104,6.83238636 C31.3866412,6.90245873 31.4021596,6.98093382 31.4021596,7.06136364 C31.4021641,7.393022 31.1431213,7.65965909 30.8209096,7.65965909 L25.8192892,7.65965909 C25.4970798,7.65965909 25.2380392,7.39302436 25.2380392,7.06136364 C25.2380392,6.96919836 25.2593695,6.88091891 25.2954466,6.80284091 C25.829138,5.62981073 26.983973,4.81590909 28.3236873,4.81590909 Z" id="path4314"></path>
                        <path d="M47.0740741,0.08125 C46.6463177,0.110169091 46.205438,0.203863636 45.7608796,0.391477273 C44.4998042,0.923683091 43.7439806,1.99037091 43.7157407,3.13181818 C43.6875009,4.27326545 44.3751498,5.40611618 45.6173611,6.08636364 L49.0689815,7.97727273 C49.9996658,8.48692236 50.2955481,9.166378 50.2386574,9.80909091 C50.1817667,10.4518038 49.7331599,11.1303755 48.8034722,11.5227273 C47.5817094,12.0383404 45.9947643,11.3518198 45.1652778,10.8653409 C44.9834869,10.7369718 44.74695,10.7249622 44.5537695,10.8342945 C44.360589,10.9436269 44.243719,11.1556475 44.2516343,11.3824218 C44.2595496,11.6091962 44.3909001,11.8120387 44.5912037,11.9068182 C45.5319802,12.4585665 47.4111841,13.4029953 49.2412037,12.6306818 C50.497117,12.1006529 51.2999527,11.0632151 51.4011574,9.91988636 C51.5023621,8.77655764 50.865273,7.59864891 49.6143519,6.91363636 L46.1627315,5.03011364 C45.2233442,4.51569655 44.8625524,3.80284745 44.8782407,3.16875 C44.893929,2.53465255 45.2740901,1.89698836 46.1986111,1.50681818 C47.4721669,0.969348545 48.8516738,1.49961382 49.6574074,1.97215909 C49.8386403,2.08794655 50.066798,2.09276836 50.2524972,1.98474073 C50.4381964,1.87671073 50.5518722,1.67302909 50.5489881,1.45348982 C50.5461062,1.23395055 50.4271259,1.03350473 50.2386574,0.930681818 C49.5152575,0.506423273 48.3573409,-0.00550727273 47.0740741,0.08125 Z" id="path4318"></path>
                        <path d="M54.3935185,0.0738636364 C53.3636365,0.0738612727 52.5134259,0.949016545 52.5134259,2.00909091 C52.5134259,2.71062764 52.5134259,12.2465909 52.5134259,12.2465909 C52.5129575,12.4230458 52.5787808,12.5945442 52.7,12.7193182 C52.8212146,12.8440898 52.9878316,12.9118458 53.1592593,12.9113636 L55.7425926,12.9113636 C59.1758977,12.911366 61.9712963,10.0276044 61.9712963,6.49261364 C61.9712917,2.95762527 59.1759,0.0738636364 55.7425926,0.0738636364 L54.3935185,0.0738636364 Z M54.3935185,1.39602273 L55.7425926,1.39602273 C58.4787169,1.39602273 60.6868033,3.67467218 60.6868056,6.49261364 C60.6868056,9.31055745 58.47871,11.5818205 55.7425926,11.5818182 L54.3863426,11.5818182 C54.0641309,11.5818182 53.7979167,11.3151835 53.7979167,10.9835227 C53.797919,9.22623236 53.7979167,2.62409491 53.7979167,2.00909091 C53.7979167,1.66606818 54.0608219,1.39602273 54.3935185,1.39602273 Z" id="path4345"></path>
                    </g>
                    <g id="g13132">
                        <path d="M1.7884,0.150592941 C1.22558864,0.153887059 0.765993182,0.29732 0.460275,0.613828235 C-0.859161364,1.97983294 1.03632955,6.32264471 2.68328636,9.29029882 C1.24720682,11.8721365 0.424763636,14.8637059 0.424763636,18.0550047 C0.424763636,27.7718941 8.041975,35.6579459 17.4276045,35.6579459 C26.8132364,35.6579459 34.4304432,27.7718941 34.4304455,18.0550047 C34.4304455,14.8418847 33.5907591,11.8326376 32.1364114,9.23882824 C33.7772727,6.27244 35.6505432,1.97257882 34.3381159,0.613828235 C33.0292523,-0.741230588 28.8929455,1.18316706 26.0284568,2.87853412 C23.5039455,1.34100471 20.5664341,0.452063529 17.4276045,0.452063529 C14.27745,0.452063529 11.3289455,1.34541882 8.79834318,2.89324 C6.60003636,1.58941882 3.64319318,0.139741176 1.7884,0.150592941 Z" id="path12441" stroke="#000000" fill="#000000" fill-rule="nonzero"></path>
                        <g id="g13090-Clipped" transform="translate(0.000000, 0.235294)">
                            <mask id="mask-2" fill="white">
                                <use xlink:href="#path-1"></use>
                            </mask>
                            <g id="path13130"></g>
                            <g id="g13090" mask="url(#mask-2)">
                                <g transform="translate(0.000000, -92.470588)">
                                    <path d="M0.505445455,92.9674024 C-1.45114545,94.9930494 3.67317273,103.582932 4.5509,104.491638 C5.42862727,105.399873 7.72658182,104.494696 9.68294545,102.468814 C11.6395364,100.443167 12.5143091,98.0643435 11.6365818,97.1556376 C10.7588545,96.2469318 2.46203636,90.9417553 0.505445455,92.9674024 Z" id="path6420" fill="url(#radialGradient-3)" fill-rule="nonzero"></path>
                                    <path d="M11.2131727,100.20152 C7.54999091,96.7528141 2.72476364,92.7132847 0.877263636,92.8848141 C2.23044545,91.8876376 7.63044545,95.3725788 11.8788545,98.5205788 C11.7811273,99.0281082 11.5531727,99.6045788 11.2131727,100.20152 Z" id="path10879" fill="url(#linearGradient-4)" fill-rule="nonzero"></path>
                                    <path d="M0.657263636,93.1904612 C-1.22455455,95.1386965 3.70385455,103.400344 4.5484,104.274226 C5.39249091,105.148108 7.60249091,104.277285 9.48430909,102.328814 C11.3661273,100.380344 12.2072636,98.0925788 11.3634,97.2186965 C10.5190818,96.3445788 2.53908182,91.2419906 0.657263636,93.1904612 Z" id="path6442" fill="url(#linearGradient-5)" fill-rule="nonzero"></path>
                                    <path d="M0.657263636,93.1904612 C-1.22455455,95.1386965 3.70385455,103.400344 4.5484,104.274226 C5.39249091,105.148108 7.60249091,104.277285 9.48430909,102.328814 C11.3661273,100.380344 12.2072636,98.0925788 11.3634,97.2186965 C10.5190818,96.3445788 2.53908182,91.2419906 0.657263636,93.1904612 Z" id="path6444" fill="url(#linearGradient-5)" fill-rule="nonzero"></path>
                                    <path d="M0.657263636,93.1904612 C-1.22455455,95.1386965 3.70385455,103.400344 4.5484,104.274226 C5.39249091,105.148108 7.60249091,104.277285 9.48430909,102.328814 C11.3661273,100.380344 12.2072636,98.0925788 11.3634,97.2186965 C10.5190818,96.3445788 2.53908182,91.2419906 0.657263636,93.1904612 Z" id="path6455" fill="url(#linearGradient-6)" fill-rule="nonzero"></path>
                                    <ellipse id="circle6464" fill="url(#radialGradient-7)" fill-rule="nonzero" cx="17.4729455" cy="110.412588" rx="17.0029555" ry="17.6030598"></ellipse>
                                    <ellipse id="circle6477" fill="url(#radialGradient-8)" fill-rule="nonzero" cx="17.4188545" cy="110.805059" rx="16.1904543" ry="16.7618821"></ellipse>
                                    <path d="M2.02908182,111.046235 C2.02908182,101.865765 9.21749091,94.4236471 18.0849909,94.4236471 C26.0779455,94.4236471 32.7059,100.470706 33.9354455,108.387176 C33.0168091,99.7521176 25.9477182,93.034 17.3622636,93.034 C8.15294545,93.034 0.687036364,100.763647 0.687036364,110.298 C0.687036364,119.186471 7.1759,126.505294 15.5165818,127.456118 C7.87021818,126.183176 2.02908182,119.321529 2.02908182,111.046235 Z" id="path6488" fill="url(#linearGradient-9)" fill-rule="nonzero"></path>
                                    <path d="M32.8097636,109.780118 C32.8097636,118.960824 25.6213545,126.402706 16.7538545,126.402706 C8.7609,126.402706 2.13317273,120.355882 0.9034,112.439412 C1.82226364,121.074471 8.89112727,127.792353 17.4765818,127.792353 C26.6861273,127.792353 34.1520364,120.062941 34.1520364,110.528353 C34.1520364,101.639882 27.6631727,94.3212941 19.3224909,93.3702353 C26.9686273,94.6434118 32.8097636,101.505294 32.8097636,109.780118 Z" id="path6499" fill="url(#linearGradient-10)" fill-rule="nonzero" opacity="0.62999998"></path>
                                    <path d="M32.2013545,106.282941 C32.2013545,113.228588 27.7884,98.1168235 13.2763545,103.834941 C7.71794545,106.025294 2.85271818,113.228588 2.85271818,106.282941 C2.85271818,99.3372941 9.42271818,93.7067059 17.5270364,93.7067059 C25.6313545,93.7067059 32.2013545,99.3372941 32.2013545,106.282941 Z" id="path12457" fill="url(#linearGradient-11)" fill-rule="nonzero"></path>
                                    <g id="g6505" stroke-width="1" fill="none" fill-rule="evenodd" transform="translate(2.626127, 94.034235)">
                                        <g id="g6507" fill-rule="nonzero" fill="url(#radialGradient-12)">
                                            <path d="M10.2315909,5.86329412 C10.0990909,6.77764706 10.9784091,8.04164706 11.4795455,6.41458824 C11.9806818,4.78752941 11.9988636,2.64588235 13.8665909,1.67082353 C15.7343182,0.696 17.2431818,0.545411765 18.825,1.17576471 C19.9115909,1.60894118 20.4945455,2.14541176 20.7529545,2.43905882 C20.065,1.59858824 17.2986364,-1.30635294 13.4702273,0.921647059 C9.0325,3.50494118 10.3688636,0.330352941 9.93636364,3.86494118 C9.50409091,7.40023529 10.2315909,5.86329412 10.2315909,5.86329412 Z M20.7529545,2.43905882 C20.8625,2.57270588 20.9213636,2.65623529 20.9213636,2.65623529 C20.9213636,2.65623529 20.8709091,2.57270588 20.7529545,2.43905882 Z M20.5734091,4.72847059 C16.2125,3.91764706 10.8536364,6.74988235 7.10090909,11.5376471 C8.60386364,8.83458824 7.14477273,4.52023529 6.99113636,4.97552941 C4.79840909,11.4637647 1.39340909,11.4195294 0.518409091,13.4915294 C-0.638409091,16.2308235 0.395681818,19.4924706 2.82681818,20.8167059 C1.61886364,27.4545882 7.68,31.9616471 11.4068182,31.9616471 C15.1693182,31.9616471 12.0656818,26.5228235 12.0656818,20.7967059 C12.0656818,15.0710588 11.5243182,8.01505882 20.5734091,4.72847059 Z M30.4763636,14.7421176 C29.3934091,9.69670588 27.9854545,7.79035294 27.9854545,7.79035294 C27.9854545,7.79035294 30.3679545,12.6115294 29.7184091,16.9842353 C29.0686364,21.3571765 26.3522727,21.5898824 26.2527273,22.7025882 C26.1531818,23.8152941 27.2275,24.0482353 28.0940909,23.4875294 C28.0938636,23.4875294 31.5590909,19.7872941 30.4763636,14.7421176 Z M26.7865909,14.2854118 C19.4225,17.5367059 18.295,18.3870588 15.9570455,20.9007059 C13.1411364,23.9277647 13.3172727,29.3032941 14.8,31.5164706 C16.2827273,33.7305882 19.6127273,33.7503529 22.2370455,31.5609412 C26.0390909,28.3898824 20.3972727,22.0218824 26.7865909,14.2854118 Z" id="path6518"></path>
                                        </g>
                                    </g>
                                    <path d="M32.2013545,106.282941 C32.2013545,113.228588 27.7884,98.1168235 13.2763545,103.834941 C7.71794545,106.025294 2.85271818,113.228588 2.85271818,106.282941 C2.85271818,99.3372941 9.42271818,93.7067059 17.5270364,93.7067059 C25.6313545,93.7067059 32.2013545,99.3372941 32.2013545,106.282941 Z" id="path6529" fill="url(#linearGradient-11)" fill-rule="nonzero"></path>
                                    <path d="M32.6007909,111.294188 C31.6971477,111.441765 30.5581068,108.162165 29.4541409,106.845271 C27.3584545,104.345341 21.9404,101.923718 25.8541477,99.0133176 C29.7147045,96.1424941 31.2698091,101.255718 32.4232136,105.893882 C32.8497341,107.609035 33.5044341,111.146612 32.6007909,111.294188 Z" id="path12630" fill="#000000" fill-rule="evenodd" opacity="0.43999999"></path>
                                    <path d="M18.4302182,94.7391765 C19.5611273,93.5683529 26.2722636,95.8742353 28.8456727,97.3669412 C29.8872636,97.9707059 30.0936273,99.6342353 29.3093091,101.077059 C28.5252182,102.520118 26.7338545,103.571412 26.0054455,102.592118 C21.5070364,96.5471765 17.8499909,95.3398824 18.4302182,94.7391765 Z" id="path6552" fill="url(#radialGradient-13)" fill-rule="nonzero" opacity="0.15"></path>
                                    <path d="M34.3865818,92.9674118 C36.3431727,94.9930588 31.2188545,103.582941 30.3409,104.491647 C29.4634,105.399882 27.1654455,104.494706 25.2088545,102.468824 C23.2522636,100.442941 22.3774909,98.0643529 23.2552182,97.1556471 C24.1329455,96.2469412 32.4299909,90.9417647 34.3865818,92.9674118 Z" id="path6571" fill="url(#radialGradient-14)" fill-rule="nonzero"></path>
                                    <path d="M34.2254455,93.1904706 C36.1072636,95.1387059 31.1786273,103.400353 30.3345364,104.274235 C29.4902182,105.148118 27.2804455,104.277294 25.3984,102.328824 C23.5163545,100.380588 22.6754455,98.0925882 23.5193091,97.2187059 C24.3636273,96.3445882 32.3436273,91.242 34.2254455,93.1904706 Z" id="path6582" fill="url(#linearGradient-15)" fill-rule="nonzero"></path>
                                    <path d="M34.2254455,93.1904706 C36.1072636,95.1387059 31.1786273,103.400353 30.3345364,104.274235 C29.4902182,105.148118 27.2804455,104.277294 25.3984,102.328824 C23.5163545,100.380588 22.6754455,98.0925882 23.5193091,97.2187059 C24.3636273,96.3445882 32.3436273,91.242 34.2254455,93.1904706 Z" id="path6584" fill="url(#linearGradient-15)" fill-rule="nonzero"></path>
                                    <path d="M23.9606727,100.201529 C27.6238545,96.7528235 32.4488545,92.7132941 34.2965818,92.8848235 C32.9431727,91.8876471 27.5434,95.3725882 23.2952182,98.5205882 C23.3927182,99.0281176 23.6206727,99.6045882 23.9606727,100.201529 Z" id="path6595" fill="url(#linearGradient-16)" fill-rule="nonzero"></path>
                                    <path d="M30.3409,104.491647 C29.4634,105.399882 27.1654455,104.494706 25.2088545,102.468824 C23.2522636,100.442941 22.3774909,98.0643529 23.2552182,97.1556471 C23.4477182,96.9565882 23.9965818,96.546 24.7565818,96.0478824 C23.6299909,95.5808235 22.6831727,95.5532941 22.1759,96.0789412 C21.1395364,97.1518824 22.3238545,100.117059 24.8211273,102.702235 C27.3181727,105.287176 30.1824909,106.513294 31.2186273,105.440824 C31.6861273,104.956588 31.7002182,104.086471 31.3468091,103.040588 C30.8949909,103.773765 30.5247636,104.301294 30.3409,104.491647 Z" id="path6602" fill="url(#radialGradient-17)" fill-rule="nonzero"></path>
                                    <path d="M22.9547636,100.335647 L23.5622636,100.254706 C23.1947636,99.5721176 22.9734,98.922 22.9247636,98.3730588 L21.9540818,98.1798824 C22.1368091,98.8349412 22.4784,99.5723529 22.9547636,100.335647 Z" id="path6609" fill="url(#radialGradient-18)" fill-rule="nonzero"></path>
                                    <path d="M30.4956727,100.471176 C28.9795364,102.489294 28.2215818,101.928824 26.0072636,102.911412 C27.7345364,104.441529 29.5799909,105.055176 30.3345364,104.274 C30.5345364,104.066706 30.9647636,103.443176 31.4793091,102.587412 C31.8211273,101.858 32.1827182,101.104118 32.5536273,100.358941 C34.3943091,96.6591765 31.6795364,98.8956471 30.4956727,100.471176 Z" id="path6620" fill="url(#linearGradient-19)" fill-rule="nonzero" opacity="0.52999998"></path>
                                    <path d="M30.5093091,95.7725882 C28.5974909,96.9869412 26.8413545,97.6236471 26.5874909,97.1947059 C26.3331727,96.7657647 27.6772636,95.434 29.5890818,94.2196471 C31.5009,93.0055294 33.2570364,92.3688235 33.5109,92.7975294 C33.7649909,93.2264706 32.4211273,94.5584706 30.5093091,95.7725882 Z" id="path6629" fill="url(#radialGradient-20)" fill-rule="nonzero"></path>
                                    <path d="M4.91953636,93.8594118 C6.40135455,94.8869412 7.38294545,96.0587059 7.11226364,96.4768235 C6.84180909,96.8949412 5.42158182,96.4008235 3.94021818,95.3732941 C2.45862727,94.3457647 1.47680909,93.1742353 1.74771818,92.7561176 C2.01771818,92.338 3.43817273,92.8323529 4.91953636,93.8594118 Z" id="path6638" fill="url(#radialGradient-21)" fill-rule="nonzero"></path>
                                    <path d="M10.9043091,104.889765 C8.67430909,107.551412 5.60385455,108.574706 4.04567273,107.175412 C2.48771818,105.776353 3.03249091,102.484588 5.26249091,99.8234118 C7.49226364,97.1617647 10.5627182,96.1384706 12.1209,97.5375294 C13.6788545,98.9365882 13.1338545,102.228353 10.9043091,104.889765 Z" id="path6647" fill="url(#radialGradient-22)" fill-rule="nonzero"></path>
                                    <path d="M8.41408182,107.495176 C7.34499091,109.646471 5.45749091,110.846235 4.19817273,110.175882 C2.93908182,109.504824 2.78476364,107.217294 3.85385455,105.066 C4.92271818,102.915176 6.81021818,101.715176 8.06953636,102.385765 C9.32885455,103.056353 9.48294545,105.344353 8.41408182,107.495176 Z" id="path6656" fill="url(#radialGradient-23)" fill-rule="nonzero"></path>
                                    <path d="M33.9340818,110.469059 C33.9340818,109.022941 33.7590818,107.619882 33.4309,106.279647 C33.4413545,106.497529 33.4465818,106.716588 33.4465818,106.936824 C33.4465818,114.088824 27.8463545,119.886706 20.9384,119.886706 C14.0302182,119.886706 8.42976364,114.088824 8.42976364,106.936824 C8.42976364,99.7848235 14.0302182,93.9869412 20.9384,93.9869412 C21.1511273,93.9869412 21.3627182,93.9925882 21.5727182,94.0034118 C20.2788545,93.6634118 18.9234,93.4822353 17.5268091,93.4822353 C8.46544545,93.4822353 1.11976364,101.087412 1.11976364,110.468824 C1.11976364,119.849765 8.46544545,127.454706 17.5268091,127.454706 C26.5886273,127.454941 33.9340818,119.85 33.9340818,110.469059 Z" id="path6673" fill="url(#linearGradient-24)" fill-rule="nonzero"></path>
                                    <path d="M27.8959,99.1897647 C26.1520364,100.303882 24.2799909,100.437765 23.7147636,99.4890588 C23.1495364,98.5403529 24.1049909,96.8683529 25.8488545,95.7544706 C27.5929455,94.6403529 32.7438545,92.4121176 33.3090818,93.3605882 C33.8740818,94.3092941 29.6395364,98.0761176 27.8959,99.1897647 Z" id="path6708" fill="url(#radialGradient-25)" fill-rule="nonzero"></path>
                                    <path d="M34.5088545,93.4241176 C34.1695364,95.4652941 33.0381727,97.4772941 31.2099909,98.9434118 C29.0868091,100.646471 26.5093091,101.224353 24.2734,100.727176 C24.5884,101.190235 24.9654455,101.656118 25.3984,102.104588 C27.2802182,104.052824 29.4902182,104.923882 30.3345364,104.05 C31.1236273,103.232824 35.4818091,95.9601176 34.5088545,93.4241176 Z" id="path6719" fill="url(#linearGradient-26)" fill-rule="nonzero"></path>
                                </g>
                            </g>
                        </g>
                    </g>
                </g>
            </g>
        </g>
    </g>
</svg>