<?xml version="1.0" encoding="UTF-8"?>
<svg width="160px" height="70px" viewBox="0 0 160 70" version="1.1" xmlns="http://www.w3.org/2000/svg" xmlns:xlink="http://www.w3.org/1999/xlink">
    <!-- Generator: Hyder A. - https://toggle.me -->
    <title>gentoo</title>
    <desc>Created with Sketch.</desc>
    <defs></defs>
    <g id="technologies" stroke="none" stroke-width="1" fill="none" fill-rule="evenodd">
        <g id="OS" transform="translate(-224.000000, -241.000000)">
            <g id="gentoo" transform="translate(224.000000, 241.000000)">
                <rect id="Rectangle-Copy-8" fill="#FFFFFF" x="0" y="0" width="160" height="70"></rect>
                <g transform="translate(12.000000, 27.000000)" id="Shape" fill-rule="nonzero" fill="#0E90D0">
                    <path d="M125.461149,1.53962264 C130.978041,1.53962264 134.280405,4.16981132 134.280405,8.57056604 C134.280405,12.9584906 131.068694,15.4603774 125.461149,15.4603774 C119.918356,15.4603774 116.745495,12.9328302 116.745495,8.51924528 C116.745495,4.15698113 119.996059,1.53962264 125.461149,1.53962264 M125.5,0 C122.482545,0 119.685248,0.731320755 117.626126,2.06566038 C115.256194,3.60528302 114,5.85056604 114,8.57056604 C114,14.3954717 119.775901,17 125.5,17 C128.595158,17 131.418356,16.2430189 133.477477,14.8830189 C135.782658,13.3562264 137,11.149434 137,8.50641509 C137,2.64301887 131.224099,0 125.5,0"></path>
                    <path d="M42,14.2936631 L41.926885,14.2936631 C38.4539223,14.4296754 34.2498096,14.5162287 30.6793602,14.5162287 C29.7897944,14.5162287 29.009901,14.5162287 28.351866,14.503864 C28.351866,13.7867079 28.3274943,10.6707883 28.3031226,8.72952087 C29.521706,8.70479134 30.7768469,8.69242658 32.0563595,8.69242658 C34.0792079,8.69242658 36.2361005,8.71715611 38.6123382,8.77897991 L38.6367098,8.77897991 L38.6367098,7.27047913 L38.5879665,7.27047913 C36.126428,7.31993818 33.7014471,7.3446677 31.5689261,7.3446677 L31.5689261,7.3446677 C30.3869002,7.3446677 29.2901752,7.33230294 28.3031226,7.31993818 C28.3274943,5.66306028 28.3396801,2.27511592 28.351866,1.52086553 C29.009901,1.50850077 29.7532369,1.50850077 30.5696877,1.50850077 C33.7745621,1.50850077 37.6374714,1.58268934 41.1591775,1.73106646 L41.1835491,1.73106646 L41.1835491,0 L41.1348058,0 C37.0891089,0.0247295209 28.1081493,0.0247295209 26.4996192,0.0247295209 L26.4996192,0.0247295209 L26,0.0247295209 L26,0.185471406 L26,0.185471406 L26,0.259659969 C26.0974867,3.83307573 26.0974867,10.8809892 26,15.6661515 L26,15.6785162 C26,15.690881 26,15.7032457 26,15.7279753 L26,15.7774343 L26,15.7774343 L26,15.9752705 L26.14623,15.9752705 L26.14623,15.9752705 L26.2315308,15.9752705 C26.2437167,15.9752705 26.2680883,15.9752705 26.2802742,15.9752705 L26.3290175,15.9752705 C27.4135567,15.9629057 28.8514851,15.950541 30.6306169,15.950541 C33.9086062,15.950541 37.6984006,15.9752705 40.7326733,15.9876352 L41.9756283,16 L41.9756283,14.2936631 L42,14.2936631 Z"></path>
                    <path d="M79,15.8513932 L79,15.8513932 L79,15.7770898 C78.9511002,10.8111455 78.9388753,7.04643963 78.9877751,2.51393189 L78.9877751,0.185758514 L78.9877751,0.0371517028 L78.8288509,0.0371517028 C78.4498778,0.0371517028 78.0709046,0.0371517028 77.6797066,0.0371517028 C74.6845966,0.0371517028 71.8606357,0.0247678019 69.0488998,0 L69,0 L69,1.80804954 L69.0244499,1.80804954 C71.4449878,1.63467492 73.7799511,1.53560372 76.5794621,1.51083591 C76.6772616,5.20123839 76.6650367,11.1455108 76.5794621,15.7399381 L76.5794621,15.7894737 L76.5794621,16 L76.7628362,16 L76.7628362,16 L76.8239609,16 L78.7310513,16 L78.7799511,16 L78.7799511,16 L78.9755501,16 L79,15.8513932 L79,15.8513932 Z"></path>
                    <path d="M99.9587332,15.4394281 C94.5566219,15.4394281 91.462572,12.9322799 91.462572,8.57035365 C91.462572,4.18284424 94.6314779,1.57336343 99.9587332,1.57336343 C105.211132,1.57336343 108.355086,4.17005267 108.355086,8.51918736 C108.355086,12.9194883 105.298464,15.4394281 99.9587332,15.4394281 M107.606526,2.16177577 C105.722649,0.857035365 103.152591,0.115124153 100.357965,0.0383747178 L100.357965,0.0383747178 L100.170825,0.0383747178 C100.133397,0.0383747178 100.095969,0.0383747178 100.058541,0.0383747178 C99.9587332,0.0383747178 99.8714012,0.0383747178 99.7715931,0.0383747178 C99.7341651,0.0383747178 99.7092131,0.0383747178 99.671785,0.0383747178 C98.9232246,0.0383747178 98.1621881,0.0383747178 97.4136276,0.0383747178 C93.159309,0.0383747178 89.1170825,0.0255831452 85.037428,0 L85,0 L85,1.88036117 L85.049904,1.88036117 C87.6199616,1.75244545 90.2648752,1.66290444 93.134357,1.61173815 C91.9241843,2.26410835 90.9635317,3.082769 90.2399232,4.06772009 C89.3166987,5.33408578 88.8550864,6.83069977 88.8550864,8.53197893 C88.8550864,11.1670429 90.0278311,13.3671934 92.2485605,14.8893905 C94.2197697,16.2452972 96.9520154,17 99.9337812,17 C105.448177,17 111,14.4033108 111,8.59593679 C110.987524,5.89691497 109.814779,3.68397291 107.606526,2.16177577"></path>
                    <path d="M63.9875862,15.8020108 L63.9875862,15.7277649 C63.8882759,10.9883991 63.8882759,4.77648879 63.9875862,0.272235112 L63.9875862,0.210363496 L63.9875862,0.210363496 L63.9875862,0.210363496 L63.9875862,0.0123743233 L63.6648276,0.0123743233 L63.6648276,0.0123743233 L62.5227586,0.0123743233 L62.4731034,0.0123743233 L62.4731034,0.0123743233 L62.2744828,0.0123743233 L62.2744828,0.160866203 L62.2744828,0.173240526 L62.2744828,0.185614849 L62.2744828,0.235112142 C62.3241379,3.39056458 62.3241379,9.54060325 62.2744828,13.16628 C58.3268966,9.57772622 52.7903448,4.4671307 48.2593103,0.0494972931 L48.2096552,0 L48.1475862,0 L46.3351724,0 L46.3351724,0 L46,0 L46,0.272235112 L46,0.272235112 C46.0744828,3.94740913 46.0744828,11.866976 46,15.7401392 L46,15.7896365 L46,15.7896365 L46,15.9752514 L47.7131034,15.9752514 L47.7131034,15.8391338 L47.7131034,15.8391338 L47.7131034,15.7648879 C47.6386207,11.941222 47.6634483,5.87780356 47.7131034,2.68522815 C51.9586207,6.53364269 58.0786207,12.2258314 61.8027586,15.9505027 L61.8524138,16 L61.9144828,16 L63.7144828,16 L63.7765517,16 L63.7765517,16 L64,16 L63.9875862,15.8020108 L63.9875862,15.8020108 Z"></path>
                    <path d="M21,15.1767372 C20.9093152,13.1608761 20.8963603,11.7998489 20.9611351,9.83534743 L20.9611351,7.78096677 L20.8186305,7.78096677 C20.4170265,7.78096677 20.0154226,7.78096677 19.6008637,7.78096677 C16.4916718,7.78096677 13.5638495,7.76812689 10.6360271,7.74244713 L10.6360271,9.60422961 C13.1363356,9.43731118 15.5589143,9.33459215 18.4478717,9.30891239 L18.4478717,9.30891239 L18.5126465,9.30891239 L18.5126465,9.34743202 L18.5126465,9.34743202 C18.5644664,11.6329305 18.5644664,12.6344411 18.5256015,14.2137462 C16.8803208,14.8557402 14.9888957,15.4592145 11.7760642,15.4592145 C8.77051203,15.4592145 6.490438,14.8942598 5.0006169,13.7900302 C3.47193091,12.647281 2.73349784,10.9524169 2.73349784,8.58987915 C2.73349784,4.10876133 6.02405922,1.5407855 11.7501542,1.5407855 C16.789636,1.5407855 18.8753856,2.82477341 20.0024676,3.80060423 L20.0283775,3.78776435 L20.0283775,1.2326284 C18.0592227,0.423716012 15.1832202,0 11.6724244,0 C8.53732264,0 5.62245527,0.821752266 3.48488587,2.31117825 C1.23072178,3.8776435 0,6.11178248 0,8.58987915 C0,13.7771903 4.50832819,17 11.7760642,17 C16.1548427,17 18.7458359,16.1910876 20.8963603,15.3179758 L21,15.2794562 L21,15.1767372 Z"></path>
                </g>
            </g>
        </g>
    </g>
</svg>