<?xml version="1.0" encoding="UTF-8"?>
<svg width="160px" height="70px" viewBox="0 0 160 70" version="1.1" xmlns="http://www.w3.org/2000/svg" xmlns:xlink="http://www.w3.org/1999/xlink">
    <!-- Generator: Hyder A. - https://toggle.me -->
    <title>Ghost</title>
    <desc>Created with Sketch.</desc>
    <defs></defs>
    <g id="technologies" stroke="none" stroke-width="1" fill="none" fill-rule="evenodd">
        <g id="Artboard" transform="translate(-218.000000, -370.000000)">
            <g id="Ghost" transform="translate(218.000000, 370.000000)">
                <rect id="container" fill="#FFFFFF" x="0" y="0" width="160" height="70"></rect>
                <g id="ghost-logo" transform="translate(23.000000, 17.000000)" fill-rule="nonzero">
                    <path d="M75.9870397,8.47878038 C69.7141922,8.47878038 66.4745637,12.9564457 66.4745637,18.4801278 C66.4745637,24.0038098 69.6345539,28.4819386 75.9870397,28.4819386 C82.3395254,28.4819386 85.4990512,24.0038098 85.4990512,18.479896 C85.4990512,12.9555188 82.2591906,8.47854865 75.9865753,8.47854865 L75.9870397,8.47878038 Z M80.7323651,18.4979708 C80.7277215,22.0498858 79.5422028,24.9267794 75.9865753,24.9267794 C72.4314122,24.9267794 71.2454291,22.0501175 71.2419464,18.4979708 L71.2419464,18.479896 C71.2456613,14.9275176 72.4316444,12.0517826 75.9870397,12.0517826 C79.5422028,12.0517826 80.7281858,14.9275176 80.7323651,18.479896 L80.7323651,18.496117 L80.7323651,18.4979708 Z M47.9007405,1.02411528 C47.9007405,0.768520144 48.1062211,0.531926639 48.3613886,0.495313736 C48.3613886,0.495313736 51.5137168,0.0434456306 51.7939598,0.00521063705 C52.1120485,-0.0381223556 52.5346188,0.190128969 52.5346188,0.641070166 L52.5346188,10.8917561 C53.284565,10.172243 54.1111312,9.59222974 55.0096736,9.1503259 C55.9105378,8.7086538 56.9669636,8.48758602 58.1812728,8.48758602 C59.233055,8.48758602 60.161781,8.66740635 60.9744162,9.02751047 C61.7870515,9.38668768 62.4673433,9.89185305 63.010648,10.5413845 C63.5539527,11.192538 63.9672357,11.9688242 64.2481753,12.8702432 C64.529115,13.7739794 64.6707457,14.7680892 64.6707457,15.8525727 L64.6707457,27.7517661 C64.6707457,28.0066661 64.4641041,28.2152206 64.2063827,28.2152206 L60.5030878,28.2152206 C60.2476882,28.2152206 60.0387248,28.0066661 60.0387248,27.7540834 L60.0387248,15.8523409 C60.0387248,14.666361 59.7670725,13.7482577 59.2237677,13.0975676 C58.6781412,12.4478044 57.8631842,12.1226911 56.775646,12.1226911 C55.9746199,12.1226911 55.2253702,12.3057556 54.5258073,12.6718847 C53.8246192,13.0380137 53.1629019,13.5362273 52.537405,14.1688426 L52.537405,27.7519978 C52.537405,28.0073613 52.3298347,28.2154523 52.0725776,28.2154523 L48.3716046,28.2154523 C48.1138831,28.2154523 47.9060807,28.0080564 47.9060807,27.7519978 L47.9060807,1.02365183 L47.9007405,1.02411528 Z M104.554651,23.1139773 L104.554651,12.9921317 L101.42438,12.9921317 C101.16898,12.9921317 101.01992,12.790529 101.089342,12.5481423 L101.785887,10.1173236 C101.846718,9.90876914 102.004602,9.68399372 102.321762,9.63764828 L104.550007,9.32481651 L105.3645,3.8815438 C105.402346,3.62896111 105.638474,3.39491661 105.892481,3.35784025 C105.892481,3.35784025 108.026693,3.05427757 108.437887,2.99171122 C108.826326,2.93377941 109.178546,3.21648664 109.178546,3.64286475 L109.178546,9.32481651 L113.256814,9.32481651 C113.513606,9.32481651 113.721641,9.53337102 113.721641,9.79058825 L113.721641,12.5296041 C113.721641,12.7868214 113.514999,12.9953759 113.256814,12.9953759 L109.178313,12.9953759 L109.178313,22.9781851 C109.178313,24.3731831 110.019507,24.9061557 110.825641,24.9061557 C111.317866,24.9061557 111.991192,24.6419866 112.495026,24.4056249 C112.806149,24.261954 113.286765,24.3685485 113.412143,24.806513 L113.980988,26.8109535 C114.050642,27.0589017 113.922942,27.3601471 113.695404,27.4736934 C113.695404,27.4736934 112.002801,28.4863414 109.734388,28.4863414 C106.546536,28.4863414 104.549775,26.6139854 104.549775,23.1195387 L104.554651,23.1139773 Z M94.2030712,12.0513191 C92.5582975,12.0513191 91.26435,12.6250758 91.26435,14.0054749 C91.26435,15.7295255 94.0528498,16.2314467 95.9613817,16.9345071 C97.2360581,17.4042182 100.660735,18.320236 100.660735,22.0362139 C100.660735,26.5502604 96.9458312,28.4798531 92.9848149,28.4798531 C89.0237986,28.4798531 87.0874049,27.2134638 87.0874049,27.2134638 C86.8645106,27.0913435 86.7391326,26.7912567 86.8087871,26.543772 C86.8087871,26.543772 87.2963682,24.8011833 87.4217462,24.3687802 C87.5331933,23.9794785 87.9813036,23.8427594 88.2668869,23.953525 C89.2861636,24.3502421 91.1273629,24.9017529 93.2077091,24.9017529 C95.3135953,24.9017529 96.3328721,24.2522214 96.3328721,22.8678829 C96.3328721,21.0256514 93.4863269,20.4625543 91.6056568,19.8630759 C90.3077622,19.4506014 86.8784415,18.4889334 86.8784415,14.4021919 C86.8784415,10.3763947 90.3797385,8.48758602 94.1225042,8.48758602 C97.2894599,8.48758602 99.5787694,9.57438674 99.5787694,9.57438674 C99.8132727,9.67333427 99.9456162,9.95326077 99.8759617,10.1995868 L99.2588233,12.3678585 C99.1455187,12.7710639 98.8181428,12.9557505 98.4076459,12.8213487 C97.5044599,12.5254331 95.8072132,12.0515509 94.1935518,12.0515509 L94.2030712,12.0513191 Z M45.372284,8.51052701 C43.8178289,8.69011562 42.7086978,9.42863031 41.991257,10.1163967 C40.5842371,9.00178875 38.6269471,8.46974302 36.432832,8.46974302 C32.0329926,8.46974302 28.5943846,10.6155372 28.5943846,15.2894755 C28.5943846,17.9728769 29.7274303,19.8220602 31.5245151,20.9111782 C30.1894715,21.5484281 29.3025382,22.9017151 29.3025382,24.2341467 C29.3025382,26.4610454 31.0438994,27.1562271 31.0438994,27.1562271 C31.0438994,27.1562271 28,28.6485505 28,31.6331973 C28,35.4543794 31.4850443,37 35.7409311,37 C41.8774881,37 46.0985477,34.4417313 46.0985477,29.7446203 C46.0985477,26.8549817 43.9067544,25.2583811 39.130781,25.0683648 C36.2981667,24.9571357 34.4616111,24.8528584 34.0065353,24.7022357 C33.4051853,24.500633 33.1103148,24.0163231 33.1103148,23.4787159 C33.1103148,22.8878115 33.5932523,22.3247143 34.3524858,21.9377298 C35.0165248,22.0573011 35.7153912,22.1156963 36.4397974,22.1156963 C40.8442804,22.1156963 44.2782448,19.9784761 44.2782448,15.2971225 C44.2782448,14.1623542 44.0762469,13.1768183 43.7070783,12.3356485 C44.3548647,11.9866672 45.643472,11.8142622 45.643472,11.8142622 C45.8965498,11.7748686 46.1020304,11.5338722 46.1017982,11.2789723 L46.1017982,9.16005845 C46.1017982,8.72441125 45.7326297,8.47530447 45.3820356,8.51585674 L45.372284,8.51052701 Z M33.965207,28.2379298 C33.965207,28.2379298 36.2763417,28.3259862 38.5856188,28.4325807 C41.1795505,28.5530789 41.9880065,29.1184933 41.9880065,30.4740977 C41.9880065,32.1309474 39.7335241,33.7414516 36.5828212,33.7414516 C33.5923235,33.7414516 32.0984678,32.68941 32.0984678,30.9421867 C32.0984678,29.9388077 32.623198,28.8149307 33.965207,28.2332953 L33.965207,28.2379298 Z M36.4402618,18.8437078 C34.3557363,18.8437078 32.7293049,17.7244653 32.7293049,15.2866948 C32.7293049,12.846607 34.3568972,11.7296817 36.4402618,11.7296817 C38.5238585,11.7296817 40.1514508,12.8442897 40.1514508,15.2843775 C40.1514508,17.7244653 38.525716,18.8390733 36.4402618,18.8390733 L36.4402618,18.8437078 Z" id="Shape" fill="#2D3134"></path>
                    <g id="Group" opacity="0.6" transform="translate(0.000000, 8.000000)" fill="#2E3134">
                        <rect id="Rectangle-path" x="0.0491764706" y="15.865977" width="7.916" height="3.91126437" rx="1.95563218"></rect>
                        <rect id="Rectangle-path" x="11.9228235" y="15.865977" width="7.91105882" height="3.91126437" rx="1.95563218"></rect>
                        <rect id="Rectangle-path" x="0.0432941176" y="8.04367816" width="19.7931765" height="3.91126437" rx="1.95563218"></rect>
                        <rect id="Rectangle-path" x="0.0491764706" y="0.221609195" width="11.8750588" height="3.91103448" rx="1.95551724"></rect>
                        <rect id="Rectangle-path" x="15.8809412" y="0.221609195" width="3.95788235" height="3.91103448" rx="1.95551724"></rect>
                    </g>
                </g>
            </g>
        </g>
    </g>
</svg>