<?xml version="1.0" encoding="UTF-8"?>
<svg width="160px" height="70px" viewBox="0 0 160 70" version="1.1" xmlns="http://www.w3.org/2000/svg" xmlns:xlink="http://www.w3.org/1999/xlink">
    <!-- Generator: Sketch 47.1 (45422) - http://www.bohemiancoding.com/sketch -->
    <title>golang</title>
    <desc>Created with Sketch.</desc>
    <defs></defs>
    <g id="technologies" stroke="none" stroke-width="1" fill="none" fill-rule="evenodd">
        <g id="Languages" transform="translate(-32.000000, -138.000000)">
            <g id="golang" transform="translate(32.000000, 138.000000)">
                <rect id="Rectangle-Copy-4" fill="#FFFFFF" x="0" y="0" width="160" height="70"></rect>
                <g transform="translate(62.000000, 13.000000)" id="Group" fill-rule="nonzero" fill="#72777D" opacity="0.75">
                    <g>
                        <path d="M17.4016901,13.0857955 C17.4057935,10.927661 16.1199087,8.97972846 14.1440785,8.15097709 C12.1682482,7.32222573 9.89192999,7.77601139 8.3773403,9.30058048 C6.8627506,10.8251496 6.40843144,13.119993 7.22638539,15.1142497 C8.04433933,17.1085065 9.97333881,18.4090869 12.1132394,18.4090909 C15.0288612,18.4062865 17.3933132,16.0262555 17.4016901,13.0857955 L17.4016901,13.0857955 Z M12.1132394,17.3863636 C9.75257217,17.3863636 7.83887324,15.4563548 7.83887324,13.0755682 C7.83887324,10.6947816 9.75257217,8.76477273 12.1132394,8.76477273 C14.4739067,8.76477273 16.3876056,10.6947816 16.3876056,13.0755682 C16.3848117,15.4551866 14.4727484,17.3835458 12.1132394,17.3863636 Z" id="Shape"></path>
                        <ellipse id="Oval" cx="12.1132394" cy="13.95" rx="1.84056338" ry="1.85625"></ellipse>
                        <path d="M29.2259155,13.0857955 C29.2300188,10.927661 27.9441341,8.97972846 25.9683038,8.15097709 C23.9924736,7.32222573 21.7161553,7.77601139 20.2015656,9.30058048 C18.686976,10.8251496 18.2326568,13.119993 19.0506107,15.1142497 C19.8685647,17.1085065 21.7975642,18.4090869 23.9374648,18.4090909 C26.8530866,18.4062865 29.2175386,16.0262555 29.2259155,13.0857955 Z M19.668169,13.0857955 C19.6640654,11.3408516 20.7034244,9.76551931 22.3009396,9.09536632 C23.8984548,8.42521332 25.7389953,8.79243612 26.9631601,10.0255679 C28.1873249,11.2586996 28.5536314,13.1144889 27.8910405,14.7264145 C27.2284497,16.3383402 25.6676663,17.3884287 23.9374648,17.3863636 C21.5819038,17.3835639 19.6714698,15.4614189 19.6630986,13.0857955 L19.668169,13.0857955 Z" id="Shape"></path>
                        <ellipse id="Oval" cx="23.9374648" cy="13.95" rx="1.84056338" ry="1.85625"></ellipse>
                        <path d="M18.5729577,23.5227273 L19.0140845,23.5227273 C19.4021786,23.5199414 19.7161109,23.2033335 19.7188732,22.8119318 L19.7188732,22.0346591 C20.5808451,22.1113636 21.3211268,22.1267045 21.8129577,21.6767045 C22.1413645,21.3453538 22.3098977,20.8858757 22.2743662,20.41875 C22.2743662,19.0534091 20.3830986,17.4017045 18.0304225,17.4017045 C15.6777465,17.4017045 13.7864789,19.0534091 13.7864789,20.41875 C13.7450008,20.9078448 13.9193715,21.3905156 14.2630986,21.7380682 C14.6100607,22.0159405 15.0484217,22.1511272 15.4901408,22.1164773 C15.6169014,22.1164773 15.7487324,22.1164773 15.8856338,22.1164773 L15.8856338,22.8477273 C15.9069094,23.2231373 16.2125369,23.5179682 16.5853521,23.5227273 L17.0264789,23.5227273 C17.4165953,23.5284379 17.7381594,23.2155523 17.7464789,22.8221591 L17.7464789,21.9375 L17.8783099,21.9375 L17.8783099,22.8272727 C17.8890383,23.2087682 18.1946177,23.5147025 18.5729577,23.5227273 Z M14.9374648,20.9659091 C14.8282162,20.8021498 14.7797388,20.6047766 14.8005634,20.4085227 C14.8005634,19.9636364 15.3735211,19.2630682 16.2861972,18.8181818 C16.124965,19.0232418 16.0294626,19.272951 16.0123944,19.5340909 C16.0123944,20.2295455 16.9149296,20.4238636 18.0405634,20.4238636 C19.1661972,20.4238636 20.0687324,20.2295455 20.0687324,19.5340909 C20.0516642,19.272951 19.9561617,19.0232418 19.7949296,18.8181818 C20.7076056,19.2630682 21.2805634,19.9636364 21.2805634,20.4085227 C21.3008943,20.5888203 21.2558707,20.7704493 21.1538028,20.9198864 C20.9408451,21.1142045 20.2360563,21.0528409 19.5515493,20.9863636 C19.1002817,20.9454545 18.5932394,20.8994318 18.0304225,20.8994318 C17.5048178,20.9075555 16.9800661,20.9451133 16.4585915,21.0119318 C15.8095775,21.0835227 15.1352113,21.1551136 14.9323944,20.9659091 L14.9374648,20.9659091 Z" id="Shape"></path>
                        <path d="M2.39323944,10.5034091 L2.39323944,10.5034091 C3.33633803,11.1528409 4.05126761,11.7204545 3.9143662,12.6153409 C3.79336109,13.3796912 3.73401168,14.1526788 3.73690141,14.9267045 L4.20338028,20.8125 C4.30387799,22.0957291 4.30387799,23.3849528 4.20338028,24.6681818 L4.10197183,25.9465909 C4.09404946,26.1371994 3.94120587,26.2891116 3.75211268,26.2943182 C3.47847652,26.2828207 3.20510419,26.3227022 2.94591549,26.4119318 C2.25510004,26.6514665 1.73318942,27.2298827 1.56169014,27.9460227 C1.37935921,28.6654223 1.55734878,29.4292798 2.03830986,29.9914773 C2.45307052,30.4893476 3.08532263,30.7478505 3.72676056,30.6818182 L3.76732394,30.6818182 C3.79039335,30.9069545 3.95746685,31.0900135 4.17802817,31.1318182 L4.2743662,31.1318182 C4.5207199,31.1363368 4.73463425,30.9615894 4.78140845,30.7176136 C4.83214928,30.4384444 4.75161244,30.1513297 4.56338028,29.9403409 C4.31648765,29.6987478 3.96827859,29.5937765 3.63042254,29.6590909 C3.3230855,29.6821563 3.02396236,29.5523226 2.82929577,29.3113636 C2.57081368,29.0051229 2.47454199,28.5920052 2.57070423,28.2017045 C2.66542562,27.831655 2.93765656,27.5340647 3.29577465,27.4090909 C3.43567153,27.3594057 3.58362319,27.3368503 3.73183099,27.3426136 C4.4663137,27.3583658 5.08506306,26.7927049 5.14140845,26.0539773 L5.2428169,24.7755682 C5.3473949,23.4378711 5.3473949,22.093947 5.2428169,20.75625 L4.77633803,14.9011364 C4.77645766,14.1921001 4.83240818,13.4841931 4.94366197,12.7840909 C5.14647887,11.3420455 4.11211268,10.4676136 3.24507042,9.85397727 L3.24507042,9.7875 L2.86985915,9.60852273 C2.17071717,9.28371389 1.78150324,8.51975552 1.92676056,7.75738636 C2.05059563,7.16573131 2.47454829,6.68374794 3.04225352,6.48920455 C3.47100777,6.32599104 3.94828793,6.35386833 4.35549296,6.56590909 L4.53295775,6.62215909 C5.01464789,6.75511364 6.94140845,7.19488636 8.1228169,6.06988636 C10.6314702,3.18098524 14.256141,1.52711237 18.0638418,1.53397329 C21.8715427,1.54083421 25.4903306,3.20775872 27.9887324,6.10568182 C29.0940845,7.15909091 30.9295775,6.77556818 31.4974648,6.64772727 L31.4974648,6.64772727 L31.715493,6.58125 C32.122698,6.36920924 32.5999781,6.34133195 33.0287324,6.50454545 C33.5826985,6.70940448 33.9915671,7.18951538 34.1087324,7.77272727 C34.2565411,8.53679612 33.8669105,9.30368498 33.1656338,9.62897727 L32.7904225,9.81306818 L32.7904225,9.87443182 C31.943662,10.4522727 30.9295775,11.3318182 31.1121127,12.7840909 C31.2194474,13.4606178 31.2753847,14.1444251 31.2794366,14.8295455 L30.8129577,20.7204545 C30.7083798,22.0581516 30.7083798,23.4020757 30.8129577,24.7397727 L30.9143662,26.0181818 C30.9836957,26.7669424 31.6192528,27.3317165 32.364507,27.3068182 C32.7264909,27.3080899 33.0667921,27.4810309 33.2831851,27.7736902 C33.4995782,28.0663494 33.5668487,28.4446259 33.4647887,28.7948864 C33.3785915,29.1477273 33.1098592,29.5414773 32.8005634,29.5721591 C32.2892073,29.5659731 31.7971629,29.7688957 31.4366197,30.1346591 C31.3168797,30.2899465 31.2622691,30.4863846 31.284507,30.6818182 C31.2772611,30.8645108 31.3672073,31.0372244 31.5204637,31.1348994 C31.6737202,31.2325743 31.8670036,31.2403716 32.027506,31.1553539 C32.1880084,31.0703362 32.2913456,30.9054199 32.2985915,30.7227273 C32.5003022,30.632897 32.7171111,30.5825712 32.9374648,30.5744318 C33.7178066,30.4326492 34.3330064,29.8243718 34.4890141,29.0403409 C34.660977,28.3834898 34.5199942,27.6833387 34.1076023,27.1461679 C33.6952105,26.608997 33.0583997,26.2960144 32.3847887,26.2994318 L32.3847887,26.2994318 C32.1730278,26.3151518 31.98508,26.1635121 31.9538028,25.9517045 L31.8523944,24.6732955 C31.7518967,23.3900664 31.7518967,22.1008427 31.8523944,20.8176136 L32.3188732,14.8909091 C32.3190518,14.1339535 32.2597109,13.3781755 32.1414085,12.6306818 C32.0146479,11.7255682 32.7194366,11.1579545 33.6878873,10.4931818 C34.6507323,10.0090376 35.2344608,8.99239835 35.1715417,7.90920435 C35.1086226,6.82601035 34.4111845,5.88506371 33.3988732,5.51761364 C32.7386775,5.27070321 32.0077468,5.30203252 31.3707042,5.60454545 L31.3707042,5.60454545 C30.7521127,5.79375 29.3932394,5.98806818 28.7442254,5.37954545 C26.0539486,2.28428434 22.1729792,0.506379207 18.0916875,0.499527239 C14.0103958,0.49267527 10.1235785,2.25753928 7.42309859,5.34375 C6.74366197,5.98806818 5.39492958,5.79886364 4.77633803,5.60965909 L4.77633803,5.60965909 C4.1391565,5.30771629 3.40845524,5.27639681 2.74816901,5.52272727 C1.73585775,5.89017734 1.03841968,6.83112399 0.975500565,7.91431799 C0.912581455,8.99751199 1.49630993,10.0141512 2.45915493,10.4982955 L2.39323944,10.5034091 Z" id="Shape"></path>
                        <path d="M28.3943662,41.1085227 C28.3030986,41.0522727 27.7656338,40.6585227 27.2991549,40.3056818 C27.0737294,40.1376429 26.7559146,40.1857214 26.5892958,40.4130682 C26.4226769,40.6404149 26.4703491,40.9609384 26.6957746,41.1289773 C26.9290141,41.3079545 27.7098592,41.8909091 27.8721127,41.9880682 C28.4501408,42.3409091 28.6022535,42.6528409 28.5769014,42.7448864 C28.5515493,42.8369318 28.3740845,42.975 27.9532394,43.0517045 C27.3391363,43.1426754 26.7131526,43.107892 26.1126761,42.9494318 C25.7491765,42.8624475 25.3957018,42.7373342 25.0580282,42.5761364 C24.6782895,42.3983966 24.2383778,42.4078362 23.8664789,42.6017045 C20.1916093,44.434753 15.8793766,44.434753 12.204507,42.6017045 C11.8326081,42.4078362 11.3926964,42.3983966 11.0129577,42.5761364 C10.6752983,42.7373689 10.3218199,42.8624835 9.95830986,42.9494318 C9.35945245,43.1072018 8.73526273,43.1419813 8.1228169,43.0517045 C7.69690141,42.9698864 7.5143662,42.8215909 7.49408451,42.7397727 C7.47380282,42.6579545 7.62084507,42.3357955 8.19887324,41.9829545 C8.54996604,41.7694952 8.78522565,41.406066 8.83774648,40.9960227 C8.89563767,40.5659886 8.75558709,40.1328397 8.45746479,39.8198864 L8.31549296,39.6715909 C8.21179018,39.566038 8.11362813,39.4550912 8.02140845,39.3392045 C7.91065073,39.1851361 7.72422345,39.1058398 7.5375178,39.1333829 C7.35081216,39.1609259 7.19471572,39.290752 7.13235389,39.4703592 C7.06999206,39.6499665 7.11168165,39.8496418 7.24056338,39.9886364 C7.35440652,40.1319199 7.47629641,40.2685074 7.6056338,40.3977273 L7.74253521,40.5409091 C7.82798187,40.6287826 7.86904768,40.7511475 7.85408451,40.8732955 C7.84282394,40.9754703 7.7846134,41.0663709 7.69690141,41.11875 C6.79943662,41.6607955 6.37352113,42.3460227 6.5256338,42.9903409 C6.60169014,43.3073864 6.8856338,43.8647727 7.95042254,44.0642045 C8.70392389,44.183028 9.47358277,44.1447392 10.211831,43.9517045 C10.6452277,43.8480584 11.0666783,43.6989507 11.4692958,43.5068182 C11.565397,43.4600246 11.6774199,43.4600246 11.7735211,43.5068182 C15.7314468,45.4798484 20.375032,45.4798484 24.3329577,43.5068182 C24.429059,43.4600246 24.5410819,43.4600246 24.6371831,43.5068182 C25.0398287,43.6988815 25.4612721,43.8479865 25.8946479,43.9517045 C26.6328961,44.1447392 27.402555,44.183028 28.1560563,44.0642045 C29.2208451,43.8596591 29.5047887,43.3022727 29.5808451,42.9903409 C29.7076056,42.3357955 29.2816901,41.6505682 28.3943662,41.1085227 Z" id="Shape"></path>
                        <path d="M3.36169014,35.7954545 C3.36169014,36.3426136 3.6,36.7414773 4.08169014,36.7414773 C4.56338028,36.7414773 5.09577465,36.1585227 5.27830986,35.2585227 L5.55211268,33.8215909 C5.36883091,33.7625359 5.17628144,33.7382621 4.98422535,33.75 C4.05633803,33.75 3.36169014,34.8085227 3.36169014,35.7954545 Z" id="Shape"></path>
                        <path d="M10.7797183,33.75 C9.8771831,33.75 9.43098592,35.0795455 9.43098592,35.9130682 C9.43098592,36.5369318 9.73521127,36.9357955 10.2929577,36.9357955 C11.1295775,36.9357955 11.6214085,35.6625 11.6214085,34.7471591 C11.6214085,34.2613636 11.4033803,33.75 10.7797183,33.75 Z" id="Shape"></path>
                        <path d="M18.3650704,35.9846591 C18.3650704,36.4960227 18.5729577,36.8744318 19.0090141,36.8744318 C19.4450704,36.8744318 20.0535211,36.3375 20.3070423,35.0181818 L20.5453521,33.75 C20.4050894,33.7214583 20.2625112,33.7060519 20.1194366,33.7039773 C19.1053521,33.75 18.3650704,34.9823864 18.3650704,35.9846591 Z" id="Shape"></path>
                        <path d="M34.9098592,31.9602273 C34.1617458,31.65862 33.3628446,31.505813 32.5571831,31.5102273 C31.3271707,31.4784835 30.1373149,31.9529437 29.2614085,32.8244318 C29.1853521,32.9011364 29.1194366,32.9829545 29.0484507,33.0596591 C28.7289258,32.1001559 27.8146522,31.4729003 26.8123944,31.5255682 C26.3765728,31.5236671 25.9450469,31.6124487 25.5447887,31.7863636 C25.3912231,31.6944444 25.2163128,31.6450521 25.0377465,31.6431818 L23.6484507,31.6431818 C23.3622981,31.6438639 23.0897501,31.7664415 22.8980282,31.9806818 C22.811752,31.9164171 22.7159129,31.8663632 22.6140845,31.8323864 C21.9430811,31.6281139 21.2462543,31.5230436 20.5453521,31.5204545 C19.3798317,31.4853328 18.2412446,31.8777867 17.3408451,32.625 L17.7464789,30.4210227 C17.8046654,30.1180691 17.7241086,29.8048156 17.5272604,29.5685699 C17.3304123,29.3323241 17.0383204,29.1983462 16.7323944,29.2039773 L15.2112676,29.2039773 C14.7185602,29.1949401 14.2907315,29.5444348 14.1971831,30.0323864 L13.6901408,32.8193182 C13.0648913,31.9622918 12.0624673,31.4692302 11.0078873,31.5 C9.98067576,31.490512 8.987322,31.8700721 8.22422535,32.5636364 C8.11707482,32.2798583 7.89042812,32.0587744 7.6056338,31.9602273 C6.8575204,31.65862 6.05861925,31.505813 5.25295775,31.5102273 C4.02294533,31.4784835 2.8330895,31.9529437 1.9571831,32.8244318 C1.13144259,33.6965674 0.678093558,34.8607157 0.694647887,36.0664773 C0.688724297,36.7414458 0.896554461,37.400705 1.28788732,37.9482955 C1.11586616,38.0757525 0.98811042,38.2547033 0.922816901,38.4596591 L0.552676056,39.6818182 C0.410854767,40.1389445 0.602609384,40.6341051 1.01408451,40.8732955 C1.71119101,41.2088453 2.47815126,41.3702098 3.25014085,41.34375 C4.21229524,41.3824289 5.15921297,41.0923288 5.93746479,40.5204545 C6.69380588,39.8203782 7.19398942,38.8835491 7.3571831,37.8613636 C7.98277327,38.7195669 8.98906354,39.2097666 10.044507,39.1704545 C11.0143121,39.1780756 11.9555035,38.8393297 12.7014085,38.2142045 C12.7927931,38.7041937 13.2211983,39.0563196 13.715493,39.0477273 L15.2822535,39.0477273 C15.7749609,39.0567645 16.2027896,38.7072698 16.296338,38.2193182 L16.296338,38.1323864 C16.7708272,38.7813788 17.5250072,39.1616826 18.324507,39.1551136 C18.7465139,39.1553479 19.1635058,39.0628627 19.5464789,38.8840909 C19.6995466,38.9778033 19.8744891,39.028969 20.0535211,39.0323864 L21.4935211,39.0323864 C21.7123838,39.0450477 21.9294217,38.9858404 22.1121127,38.8636364 C22.279407,38.9792171 22.4772184,39.04156 22.68,39.0426136 L24.2467606,39.0426136 C24.5868245,39.0436927 24.9047864,38.8727958 25.0935211,38.5875 L25.1543662,38.6744318 C25.3464255,38.9100757 25.6327552,39.0469602 25.9352113,39.0477273 L27.5171831,39.0477273 C27.7187626,39.0441517 27.9147104,38.9800595 28.08,38.8636364 L27.8315493,39.6715909 C27.6896663,40.1339464 27.8885671,40.6333024 28.308169,40.8681818 C29.0052755,41.2037317 29.7722358,41.3650961 30.5442254,41.3386364 C31.5063797,41.3773153 32.4532975,41.0872152 33.2315493,40.5153409 C34.2152113,39.7125 34.5498592,38.4238636 34.7222535,37.51875 L35.5284507,33.0852273 C35.6111895,32.6100161 35.3533652,32.1411247 34.9098592,31.9602273 Z M5.32394366,39.7176136 C4.72308615,40.1434243 3.99891277,40.3556922 3.26535211,40.3210227 C2.66591431,40.3457115 2.06894022,40.2301996 1.52112676,39.9835227 L1.89126761,38.7767045 C2.32945266,38.9756907 2.8050896,39.0768618 3.2856338,39.0732955 C4.0715493,39.0732955 4.64957746,38.7204545 4.87774648,37.6465909 L4.96394366,37.1863636 L4.96394366,37.1863636 C4.62426333,37.6963167 4.05189394,37.9984095 3.4428169,37.9892045 C2.38816901,37.9892045 1.74422535,37.1198864 1.73408451,36.0664773 C1.71246169,35.1152042 2.08117115,34.1971221 2.75309587,33.5291515 C3.42502059,32.8611809 4.34055483,32.5025767 5.28338028,32.5380682 C5.95861396,32.5324764 6.62849206,32.6592575 7.25577465,32.9113636 L6.44450704,37.3295455 C6.26197183,38.3215909 5.95267606,39.2011364 5.32394366,39.7176136 Z M10.0647887,38.1477273 C9.46228755,38.190974 8.87031182,37.971646 8.43886078,37.5453182 C8.00740973,37.1189903 7.77788698,36.5265746 7.8084507,35.9181818 C7.76268808,35.0371035 8.07665727,34.1755555 8.6772801,33.5340682 C9.27790294,32.8925809 10.1127861,32.5271123 10.9876056,32.5227273 C11.5874163,32.4830741 12.1757107,32.7021488 12.6060365,33.1254143 C13.0363623,33.5486797 13.2682395,34.1363199 13.2439437,34.7420455 C13.2444055,34.9129736 13.2342448,35.0837629 13.2135211,35.2534091 L13.1019718,35.7954545 C12.7520975,37.1944254 11.4952415,38.1678498 10.0647887,38.1477273 L10.0647887,38.1477273 Z M13.715493,38.025 L14.1109859,35.9488636 C14.153968,35.780392 14.1878209,35.6096847 14.2123944,35.4375 L15.2112676,30.2267045 L16.7780282,30.2267045 L15.2822535,38.025 L13.715493,38.025 Z M20.0991549,38.025 C20.0991549,37.7079545 20.1447887,37.3448864 20.1650704,36.9613636 L20.1650704,36.9613636 C19.8402119,37.6698162 19.1438875,38.1300537 18.3701408,38.1477273 C17.411831,38.1477273 16.7577465,37.4011364 16.7577465,36.28125 C16.7246844,35.260144 17.1191317,34.2721259 17.8445482,33.5590114 C18.5699647,32.8458969 19.5594046,32.4734965 20.5707042,32.5329545 C21.1684213,32.5364818 21.7625804,32.6260209 22.3352113,32.7988636 L21.7774648,35.6113636 C21.6301887,36.4089968 21.5571949,37.2187721 21.5594366,38.0301136 L20.0991549,38.025 Z M25.9402817,38.025 L26.508169,35.0488636 C26.5434319,34.8530928 26.562091,34.6546478 26.5639437,34.4556818 C26.5639437,34.0721591 26.4321127,33.80625 26.0315493,33.80625 C25.524507,33.80625 24.9211268,34.4556818 24.7030986,35.6420455 L24.2569014,38.025 L22.68,38.025 L23.3543662,34.3994318 C23.496338,33.7193182 23.5723944,33.1363636 23.6484507,32.6505682 L25.0326761,32.6505682 L24.936338,33.5403409 L24.936338,33.5403409 C25.3487874,32.907899 26.0466361,32.5243588 26.7971831,32.5176136 C27.1914492,32.4820754 27.5801338,32.6306365 27.8520124,32.9207854 C28.1238909,33.2109343 28.2490038,33.6106981 28.1915493,34.0056818 C28.1833412,34.307322 28.1545406,34.6080337 28.1053521,34.9056818 L28.0597183,35.15625 L28.0597183,35.15625 L27.5222535,38.0147727 L25.9402817,38.025 Z M33.7284507,37.3295455 C33.5408451,38.3164773 33.2214085,39.1960227 32.6078873,39.7125 C32.0070298,40.1383107 31.2828564,40.3505786 30.5492958,40.3159091 C29.949461,40.3389933 29.3524695,40.2217278 28.8050704,39.9732955 L29.1752113,38.7664773 C29.6133963,38.9654634 30.0890333,39.0666345 30.5695775,39.0630682 C31.355493,39.0630682 31.9335211,38.7102273 32.1616901,37.6363636 L32.2478873,37.1761364 L32.2478873,37.1761364 C31.908207,37.6860894 31.3358376,37.9881823 30.7267606,37.9789773 C29.6721127,37.9789773 29.028169,37.1096591 29.0180282,36.05625 C29.0174639,35.838532 29.0361292,35.621196 29.0738028,35.4068182 L29.0738028,35.4068182 C29.3615571,33.6966784 30.8695665,32.4720884 32.5876056,32.5534091 C33.2628393,32.5478173 33.9327174,32.6745984 34.56,32.9267045 L33.7284507,37.3295455 Z" id="Shape"></path>
                        <path d="M30.6456338,35.7954545 C30.6456338,36.3426136 30.8839437,36.7414773 31.3656338,36.7414773 C31.8473239,36.7414773 32.3797183,36.1585227 32.5622535,35.2585227 L32.8360563,33.8215909 C32.6527746,33.7625359 32.4602251,33.7382621 32.268169,33.75 C31.32,33.75 30.6456338,34.8085227 30.6456338,35.7954545 Z" id="Shape"></path>
                    </g>
                </g>
            </g>
        </g>
    </g>
</svg>