<?xml version="1.0" encoding="UTF-8"?>
<svg width="160px" height="70px" viewBox="0 0 160 70" version="1.1" xmlns="http://www.w3.org/2000/svg" xmlns:xlink="http://www.w3.org/1999/xlink">
    <!-- Generator: Sketch 47.1 (45422) - http://www.bohemiancoding.com/sketch -->
    <title>handlebars</title>
    <desc>Created with Sketch.</desc>
    <defs></defs>
    <g id="technologies" stroke="none" stroke-width="1" fill="none" fill-rule="evenodd">
        <g id="Javascript-frameworks" transform="translate(-224.000000, -241.000000)">
            <g id="handlebars" transform="translate(224.000000, 241.000000)">
                <rect id="Rectangle-Copy-8" fill="#FFFFFF" x="0" y="0" width="160" height="70"></rect>
                <g transform="translate(21.000000, 21.000000)" id="Shape" fill-rule="nonzero" fill="#423426">
                    <path d="M43.7958974,0.000200478935 C47.9327644,-0.0178062026 52.1751507,1.17648111 55.3904671,3.86742766 C57.0381019,5.20927622 58.3689463,6.89278402 59.4992112,8.68526732 C61.5328977,5.37765038 64.5034745,2.56720494 68.1666669,1.21249447 C72.6305507,-0.473585714 77.676185,-0.357126916 82.1323989,1.29551229 C86.0247587,2.72528957 89.428104,5.21699337 92.5146591,7.95728291 C94.9292842,10.1019488 97.1637827,12.4486638 99.6504584,14.5131181 C100.96085,15.5827618 102.368858,16.5850558 103.980467,17.1392874 C106.12223,17.8749889 108.65539,17.1809132 110.187046,15.5205569 C111.605514,13.9666036 111.517891,11.280568 109.955322,9.86131409 C108.961721,8.99863035 107.262721,9.17214928 106.559647,10.3220045 C105.94466,11.2340312 106.289573,12.3710246 106.77115,13.2542874 C105.491438,12.3141983 104.209635,11.0034522 104.214516,9.2939867 C103.949555,7.31769493 105.406605,5.57432076 107.151856,4.88281742 C110.557758,3.5124388 114.8285,4.69386419 116.978165,7.71126954 C119.04532,10.5268597 119.209874,14.2280513 118.849621,17.582205 C118.414528,20.7682184 116.643478,23.7418932 114.017582,25.586058 C110.33138,28.2332741 105.658782,29.0540981 101.213027,28.9972718 C96.9397286,28.8805792 92.7101254,27.9093876 88.7508283,26.3032852 C82.1298423,23.6252005 75.93349,19.9237751 69.0961197,17.7844878 C66.8281525,16.8986526 64.4160841,16.4194878 61.9910001,16.2716927 C60.0602762,16.2588308 58.2299584,16.1680958 56.4073104,16.2925056 C54.1830384,16.5076504 51.971782,16.9660023 49.889287,17.7868264 C42.9361709,19.9628286 36.6470825,23.7573275 29.8998917,26.4407907 C24.2027804,28.670813 17.8906823,29.7070157 11.843777,28.468764 C8.46111712,27.7798331 5.09379709,26.274989 2.81049008,23.5940981 C0.856524078,21.3147328 -0.0803662468,18.2636526 0.0119050157,15.2745435 C-0.0961708963,12.4538085 0.519048327,9.45698224 2.37260832,7.26040094 C4.09717449,5.17817377 6.87507406,4.12139203 9.54210866,4.35454347 C11.2590049,4.43475506 12.9993757,5.1884633 14.0599142,6.57942099 C14.8940743,7.68016709 14.9454394,9.18781743 14.5798407,10.4749444 C14.1345214,11.6327506 13.2155276,12.5368263 12.2168132,13.2309021 C12.7265131,12.3656459 13.035401,11.2235079 12.432965,10.3194321 C11.691541,9.11508914 9.86633639,8.99348558 8.90109067,9.9826838 C7.7117908,11.2132183 7.46193788,13.2231849 8.26007268,14.7306014 C9.1249124,16.3107462 10.9143241,17.2120157 12.6465602,17.3958241 C15.2673429,17.6238308 17.5404234,15.9894321 19.4634774,14.4043765 C23.4432276,10.9566816 27.026467,7.01204905 31.4415423,4.09543434 C35.081725,1.63997777 39.3703631,-0.0203785857 43.795665,0.000434331942 L43.7958974,0.000200478935 Z"></path>
                </g>
            </g>
        </g>
    </g>
</svg>