<?xml version="1.0" encoding="UTF-8"?>
<svg width="160px" height="70px" viewBox="0 0 160 70" version="1.1" xmlns="http://www.w3.org/2000/svg" xmlns:xlink="http://www.w3.org/1999/xlink">
    <!-- Generator: Hyder A. - https://toggle.me -->
    <title>iis</title>
    <desc>Created with Sketch.</desc>
    <defs></defs>
    <g id="technologies" stroke="none" stroke-width="1" fill="none" fill-rule="evenodd">
        <g id="Web-Servers" transform="translate(-416.000000, -42.000000)">
            <g id="iis" transform="translate(416.000000, 42.000000)">
                <rect id="Rectangle-Copy-3" fill="#FFFFFF" x="0" y="0" width="160" height="70"></rect>
                <g transform="translate(59.000000, 19.000000)" id="Shape" fill-rule="nonzero" fill="#008CDB">
                    <path d="M0,4.26325641e-14 L3.05670764,4.26325641e-14 L3.05670764,33 L0,33 L0,4.26325641e-14 Z M8.87623423,4.26325641e-14 L11.9329419,4.26325641e-14 L11.9329419,33 L8.87623423,33 L8.87623423,4.26325641e-14 Z M35.7894309,33 L17.2581961,33 L17.2581961,29.9481223 L35.7894309,29.9481223 C35.8012572,29.9481223 36.9907382,29.9367671 37.9319778,28.998961 C38.790765,28.1437583 39.1465483,26.0213374 38.884049,23.3246994 C38.6999126,21.4306071 36.3836188,20.4855648 36.2426981,20.4297907 C34.7528073,19.9031097 22.4559033,15.5508387 20.8989232,14.8527163 C18.9363127,13.9748033 17.7361106,11.8556108 17.605911,11.615927 L17.561369,11.5292044 C17.4988112,11.3938326 16.0427414,8.18910494 17.321417,4.46070209 C18.7297395,0.355351046 23.7997892,0.0145836426 24.0150939,0.0021151848 L24.1021884,0 L40.6657284,0 L40.6657284,3.05187769 L24.1591093,3.05187769 C23.8278628,3.08182425 20.889639,3.40511355 20.1856988,5.45728811 C19.3808483,7.80380733 20.1631515,9.88704171 20.2888196,10.1947454 C20.5415926,10.6284696 21.2875327,11.687064 22.1294094,12.0641235 C23.3577956,12.6145168 33.470595,16.2148954 37.2640691,17.5554772 L37.2804269,17.5617114 C37.4537317,17.6247217 41.523963,19.1604572 41.9003041,23.0272376 C42.1556192,25.6516254 42.0438774,29.1951165 40.0633616,31.1688066 C38.3134031,32.9121642 36.1960561,33 35.7894309,33 L35.7894309,33 Z"></path>
                </g>
            </g>
        </g>
    </g>
</svg>