<?xml version="1.0" encoding="UTF-8"?>
<svg width="160px" height="70px" viewBox="0 0 160 70" version="1.1" xmlns="http://www.w3.org/2000/svg" xmlns:xlink="http://www.w3.org/1999/xlink">
    <!-- Generator: Sketch 47.1 (45422) - http://www.bohemiancoding.com/sketch -->
    <title>java</title>
    <desc>Created with Sketch.</desc>
    <defs>
        <polygon id="path-1" points="0 0 83 0 83 52 0 52"></polygon>
    </defs>
    <g id="technologies" stroke="none" stroke-width="1" fill="none" fill-rule="evenodd">
        <g id="Languages" transform="translate(-416.000000, -42.000000)">
            <g id="java" transform="translate(416.000000, 42.000000)">
                <rect id="Rectangle-Copy-3" fill="#FFFFFF" x="0" y="0" width="160" height="70"></rect>
                <g transform="translate(39.000000, 9.000000)" id="Group">
                    <g transform="translate(41.500000, 26.000000) scale(-1, 1) rotate(-180.000000) translate(-41.500000, -26.000000) ">
                        <g id="Clipped" transform="translate(-0.000000, 0.000000)">
                            <mask id="mask-2" fill="white">
                                <use xlink:href="#path-1"></use>
                            </mask>
                            <g id="Shape"></g>
                            <g id="Group" mask="url(#mask-2)">
                                <g transform="translate(8.991667, 6.933333)">
                                    <g transform="translate(12.510024, 18.365679)">
                                        <path d="M1.54281537,3.62509841 C3.16462058,1.78427344 1.11791708,0.123253346 1.11791708,0.123253346 C1.11791708,0.123253346 5.23407338,2.22363536 3.34294577,4.85110669 C1.5780401,7.30529832 0.221888053,8.52260636 7.55376852,12.7248204 C7.55376852,12.7248204 -3.95297612,9.88419332 1.54281537,3.62582343" id="Shape" fill="#F8971D" fill-rule="nonzero"></path>
                                    </g>
                                    <g transform="translate(7.780702, 19.348963)">
                                        <path d="M8.07233361,18.5217761 C8.07233361,18.5217761 11.5639848,15.0721325 4.75974144,9.76353834 C-0.697156085,5.50622277 3.51513436,3.07740683 4.75680604,0.302031491 C1.57190351,3.14048355 -0.765403996,5.64107643 0.80283027,7.97273973 C3.10344535,11.3846823 9.48425815,13.0391773 8.07233361,18.5217761" id="Shape" fill="#F8971D" fill-rule="nonzero"></path>
                                    </g>
                                    <g transform="translate(35.651395, 0.415864)">
                                        <path d="M2.20154553,3.29636278 C2.20154553,3.93365508 1.84416131,4.25266374 1.12865901,4.25266374 L0.796959482,4.25266374 L0.796959482,2.31976127 L1.14260213,2.31976127 C1.8485644,2.31976127 2.20154553,2.6452951 2.20154553,3.29636278 M2.99997271,3.37321486 C2.99997271,2.88527662 2.85173531,2.50319125 2.55452666,2.22913381 C2.2162225,1.91302522 1.70252854,1.75424591 1.01564634,1.75424591 L0.796959482,1.75424591 L0.796959482,0.0946758621 L0.03449088,0.0946758621 L0.03449088,4.80295368 C0.151906642,4.80295368 0.341973406,4.80512874 0.606158869,4.81020387 L1.2556148,4.81020387 C2.41803084,4.81020387 2.99997271,4.33169088 2.99997271,3.37321486" id="Shape" fill="#58839F" fill-rule="nonzero"></path>
                                    </g>
                                    <g transform="translate(38.834250, 0.248537)">
                                        <path d="M3.33987747,2.5713431 C3.33987747,3.24126128 3.24300947,3.72919953 3.05000731,4.03660787 C2.87168212,4.31936555 2.59135199,4.46146941 2.21048461,4.46146941 C1.48030535,4.46146941 1.11558264,3.86912833 1.11558264,2.68299613 C1.11558264,2.00365268 1.21171679,1.5106393 1.4054528,1.20323096 C1.58377799,0.92047328 1.86410812,0.778369422 2.24497549,0.778369422 C2.97515476,0.778369422 3.33987747,1.37578564 3.33987747,2.5713431 M4.14490929,2.70329668 C4.14490929,1.85719871 3.95924561,1.21773135 3.58645057,0.784894599 C3.24814641,0.389033853 2.77481412,0.192553519 2.1679214,0.192553519 C1.56029483,0.192553519 1.10604261,0.366558243 0.805164717,0.71529271 C0.475666736,1.1017282 0.31128467,1.70856967 0.31128467,2.53581713 C0.31128467,3.37756498 0.496948343,4.01485728 0.868275689,4.44769403 C1.2073137,4.84282976 1.68064599,5.04003511 2.28827256,5.04003511 C3.52554114,5.04003511 4.14490929,4.26136397 4.14490929,2.70329668" id="Shape" fill="#58839F" fill-rule="nonzero"></path>
                                    </g>
                                    <g transform="translate(43.350119, 0.472640)">
                                        <path d="M5.87078808,4.74640214 C5.50900077,3.03535569 5.10611793,1.46568808 4.66360728,0.0381243269 L3.83068922,0.0381243269 L3.11004999,2.84250046 L2.96254644,3.54649457 L2.95520795,3.54649457 L2.82091367,2.83525026 L2.15090998,0.0381243269 L1.30918574,0.0381243269 C0.853465817,1.49831397 0.44838144,3.06798158 0.0954003063,4.74640214 L0.914375244,4.74640214 C1.02225097,4.1924871 1.31652423,2.93965309 1.797195,0.986450071 L1.80379964,0.986450071 L1.91020767,1.53746503 L2.67267627,4.74640214 L3.3991863,4.74640214 L4.31723079,0.986450071 L4.33190776,0.986450071 C4.70396895,2.567718 4.97475905,3.82127703 5.14354421,4.74640214 L5.87078808,4.74640214 Z" id="Shape" fill="#58839F" fill-rule="nonzero"></path>
                                    </g>
                                    <g transform="translate(49.736310, 0.510620)">
                                        <polygon id="Shape" fill="#58839F" fill-rule="nonzero" points="2.60602896 -3.49707142e-16 0.212215121 -3.49707142e-16 0.212215121 4.70827781 2.57740887 4.70827781 2.57740887 4.12318693 0.974683723 4.12318693 0.974683723 2.6927231 2.29487719 2.6927231 2.29487719 2.12720775 0.974683723 2.12720775 0.974683723 0.59234108 2.60602896 0.59234108"></polygon>
                                    </g>
                                    <g transform="translate(53.205191, 0.303699)">
                                        <path d="M2.20154553,3.62509841 C2.20154553,4.13188717 1.88378913,4.38491904 1.24827632,4.38491904 L0.831450362,4.38491904 L0.831450362,2.81597644 L1.29744417,2.81597644 C1.89993379,2.81597644 2.20154553,3.08568377 2.20154553,3.62509841 L2.20154553,3.62509841 Z M3.25315045,0.206630609 L2.36372605,0.206630609 L1.14920677,2.26423647 L0.831450362,2.26423647 L0.831450362,0.206630609 L0.0682479114,0.206630609 L0.0682479114,4.91563344 C0.605425021,4.9250587 1.04573413,4.93013384 1.38917523,4.93013384 C1.9212154,4.93013384 2.32776747,4.81848081 2.61029915,4.59444972 C2.87008152,4.3798439 2.99923886,4.08548591 2.99923886,3.70847567 C2.99923886,3.00158148 2.62937921,2.57164481 1.89112761,2.41866566 L3.25315045,0.206630609 Z" id="Shape" fill="#58839F" fill-rule="nonzero"></path>
                                    </g>
                                    <g transform="translate(56.896023, 0.510620)">
                                        <polygon id="Shape" fill="#58839F" fill-rule="nonzero" points="2.60602896 -3.49707142e-16 0.211481273 -3.49707142e-16 0.211481273 4.70827781 2.57740887 4.70827781 2.57740887 4.12318693 0.974683723 4.12318693 0.974683723 2.6927231 2.29487719 2.6927231 2.29487719 2.12720775 0.974683723 2.12720775 0.974683723 0.59234108 2.60602896 0.59234108"></polygon>
                                    </g>
                                    <g transform="translate(60.249556, 0.325026)">
                                        <path d="M2.60602896,2.5713431 C2.60602896,3.74805004 2.17525989,4.336041 1.31372173,4.336041 C1.15374276,4.336041 1.03119006,4.33386594 0.94679748,4.32951582 L0.94679748,0.764594048 C1.12585652,0.755168792 1.25941695,0.750818674 1.34894646,0.750818674 C2.18700146,0.750818674 2.60602896,1.35693513 2.60602896,2.5713431 M3.40372229,2.66197056 C3.40372229,0.997325366 2.66473684,0.165002771 1.18676594,0.165002771 C1.07375327,0.165002771 0.902766569,0.16862787 0.674539683,0.175153047 C0.446312796,0.182403244 0.283398427,0.185303322 0.183595029,0.185303322 L0.183595029,4.89430616 C0.325227792,4.89430616 0.527036132,4.89648122 0.791221596,4.90155635 L1.39150968,4.90155635 C2.09306885,4.90155635 2.61556899,4.68260041 2.95901009,4.24541354 C3.25548489,3.85970307 3.40372229,3.33188874 3.40372229,2.66197056" id="Shape" fill="#58839F" fill-rule="nonzero"></path>
                                    </g>
                                    <g transform="translate(64.460299, 17.289750)">
                                        <polygon id="Shape" fill="#58839F" points="0.73384851 0 1.12058668 0 1.12058668 1.47178995 1.62987754 1.47178995 1.62987754 1.77267312 0.205477583 1.77267312 0.205477583 1.47178995 0.73384851 1.47178995"></polygon>
                                    </g>
                                    <g transform="translate(66.257361, 17.289750)">
                                        <g transform="translate(0.017612, 0.000000)" id="Shape" fill="#58839F">
                                            <polygon points="1.87218045 0 2.23910471 0 2.23910471 1.77267312 1.68798448 1.77267312 1.24033688 0.564790332 0.753061473 1.77267312 0.223222849 1.77267312 0.223222849 0 0.568865497 0 0.568865497 1.34926163 0.588679407 1.34926163 1.09870412 0 1.36288959 0 1.87218045 1.34926163"></polygon>
                                        </g>
                                    </g>
                                    <g transform="translate(29.455212, 4.441543)">
                                        <path d="M3.66924255,5.47142182 C3.66924255,3.14338362 2.87375077,1.39246109 1.28423489,0.220829287 L0.133560429,1.18438044 C0.638448204,1.77092137 0.979687761,2.47056536 1.15287601,3.2862125 C1.26882407,3.84302762 1.32606426,4.61299852 1.32606426,5.59902529 L1.32606426,18.4318737 L3.66924255,18.4318737 L3.66924255,5.46852174 L3.66924255,5.47142182 Z" id="Shape" fill="#58839F" fill-rule="nonzero"></path>
                                    </g>
                                    <g transform="translate(34.827276, 7.976147)">
                                        <path d="M6.60463659,2.90007873 L6.60463659,5.42894738 L5.67118129,5.42894738 C3.57530994,5.42894738 2.52737427,4.78657994 2.52737427,3.50039502 C2.52737427,2.38676479 3.08363144,1.82849964 4.19687963,1.82849964 C4.96301747,1.82849964 5.7651139,2.18593434 6.60463659,2.90007873 L6.60463659,2.90007873 Z M8.816456,0.435736829 L7.08163812,0.435736829 L6.90771603,1.59286824 C5.8377649,0.678618422 4.72451671,0.221856023 3.56723761,0.221856023 C1.40018296,0.221856023 0.315554859,1.20715777 0.315554859,3.17921131 C0.315554859,4.30734193 0.755130117,5.18606578 1.63794987,5.81465785 C2.59268679,6.48747611 3.98846665,6.82171019 5.82382178,6.82171019 L6.60463659,6.82171019 L6.60463659,7.78671138 C6.60463659,9.05839591 5.85904651,9.69423817 4.36933403,9.69423817 C3.400654,9.69423817 2.34611369,9.48688254 1.20351156,9.0728963 L0.879150515,10.4221579 C2.22282714,11.0086989 3.59072076,11.3016068 4.97769444,11.3016068 C7.53735805,11.3016068 8.816456,10.2227775 8.816456,8.06584396 L8.816456,0.438636908 L8.816456,0.435736829 Z" id="Shape" fill="#58839F" fill-rule="nonzero"></path>
                                    </g>
                                    <g transform="translate(44.950496, 8.208523)">
                                        <path d="M9.54003063,10.8752952 C8.83186682,6.9326382 7.71715093,3.37859172 6.19881837,0.203005511 L3.44468491,0.203005511 L0.124754247,10.8752952 L2.53251121,10.8752952 L4.59315783,4.31894225 L5.0481439,2.34761373 C6.11956273,5.26074281 6.83433118,8.10354499 7.19611849,10.8738452 L9.54003063,10.8738452 L9.54003063,10.8752952 Z" id="Shape" fill="#58839F" fill-rule="nonzero"></path>
                                    </g>
                                    <g transform="translate(54.825235, 7.976147)">
                                        <path d="M6.60463659,2.90007873 L6.60463659,5.42894738 L5.67191514,5.42894738 C3.57457609,5.42894738 2.52664042,4.78657994 2.52664042,3.50039502 C2.52664042,2.38676479 3.08363144,1.82849964 4.19687963,1.82849964 C4.96375132,1.82849964 5.76584774,2.18593434 6.60463659,2.90007873 L6.60463659,2.90007873 Z M8.8179237,0.435736829 L7.08163812,0.435736829 L6.90918372,1.59286824 C5.8377649,0.678618422 4.72451671,0.221856023 3.5687053,0.221856023 C1.39944911,0.221856023 0.314821011,1.20715777 0.314821011,3.17921131 C0.314821011,4.30734193 0.755130117,5.18606578 1.63794987,5.81465785 C2.59195294,6.48747611 3.9877328,6.82171019 5.82455563,6.82171019 L6.60463659,6.82171019 L6.60463659,7.78671138 C6.60463659,9.05839591 5.8605142,9.69423817 4.37153558,9.69423817 C3.40212169,9.69423817 2.34758138,9.48688254 1.20424541,9.0728963 L0.878416667,10.4221579 C2.22356099,11.0086989 3.59072076,11.3016068 4.97842829,11.3016068 C7.5380919,11.3016068 8.8179237,10.2227775 8.8179237,8.06584396 L8.8179237,0.438636908 L8.8179237,0.435736829 Z" id="Shape" fill="#58839F" fill-rule="nonzero"></path>
                                    </g>
                                    <g transform="translate(6.205503, 9.287425)">
                                        <path d="M1.87218045,2.90007873 C1.87218045,2.90007873 0.587945558,2.16418375 2.78655569,1.91332694 C5.45042579,1.61316879 6.81391632,1.65666997 9.74710881,2.20478485 C9.74710881,2.20478485 10.5205851,1.72699688 11.5971409,1.3151857 C5.01672132,-1.47396501 -3.29264536,1.47469003 1.87364815,2.90007873" id="Shape" fill="#58839F" fill-rule="nonzero"></path>
                                    </g>
                                    <g transform="translate(5.402240, 12.923602)">
                                        <path d="M1.87218045,2.90007873 C1.87218045,2.90007873 0.430168129,1.84735015 2.63171366,1.62259405 C5.47684433,1.33403621 7.72609002,1.31011057 11.6140194,2.04890562 C11.6140194,2.04890562 12.1511965,1.510216 12.9973239,1.21585801 C5.04240602,-1.08390442 -3.82248399,1.03387807 1.87218045,2.90007873" id="Shape" fill="#58839F" fill-rule="nonzero"></path>
                                    </g>
                                    <g transform="translate(0.006979, 6.201963)">
                                        <path d="M22.7493038,3.29636278 C22.7493038,3.29636278 23.6996376,2.52421682 21.7006343,1.92390052 C17.9037021,0.789244717 5.89353739,0.444860368 2.55452666,1.87822428 C1.3539505,2.39516331 3.60393003,3.10858268 4.31062615,3.25938677 C5.04887775,3.41599103 5.47084064,3.3891653 5.47084064,3.3891653 C4.13670405,4.31791551 -3.15187935,1.5657408 1.76857491,0.779094442 C15.1980026,-1.37058892 26.2350842,1.74554568 22.7566423,3.29636278" id="Shape" fill="#58839F" fill-rule="nonzero"></path>
                                    </g>
                                    <g transform="translate(2.749171, 16.622973)">
                                        <path d="M5.94590643,2.96762715 C5.94590643,2.96762715 -0.163382414,1.53571327 3.78325487,1.0136991 C5.44835714,0.794018139 8.77048935,0.845494536 11.862927,1.10070146 C14.3917689,1.31095717 16.9301509,1.75901934 16.9301509,1.75901934 C16.9301509,1.75901934 16.0377911,1.3820091 15.3927383,0.947722311 C9.18511376,-0.665446481 -2.79936626,0.0849488899 0.649721735,1.73291863 C3.56676956,3.12568144 5.93856795,2.96762715 5.93856795,2.96762715" id="Shape" fill="#58839F" fill-rule="nonzero"></path>
                                    </g>
                                    <g transform="translate(19.250702, 13.143882)">
                                        <path d="M0.404483431,0.39628405 C6.71044368,3.63349693 3.7955974,6.74673144 1.75916778,6.32549501 C1.26161849,6.22254221 1.03852854,6.13408981 1.03852854,6.13408981 C1.03852854,6.13408981 1.22419222,6.42047259 1.57717335,6.54517597 C5.60380013,7.94301392 8.70064084,2.42126402 0.277527639,0.233154621 C0.277527639,0.233154621 0.374395642,0.318706944 0.404483431,0.39628405" id="Shape" fill="#58839F" fill-rule="nonzero"></path>
                                    </g>
                                    <g transform="translate(4.507752, 4.368461)">
                                        <path d="M4.80757449,0.39628405 C10.8610909,0.0149236971 20.1596853,0.610164856 20.3798399,3.44064169 C20.3798399,3.44064169 19.9564093,2.3690626 15.3779284,1.51498942 C10.2109011,0.55433834 3.83449137,0.667441411 0.05517154,1.28370814 C0.05517154,1.28370814 0.82864787,0.650040938 4.80684064,0.39628405" id="Shape" fill="#58839F" fill-rule="nonzero"></path>
                                    </g>
                                </g>
                            </g>
                        </g>
                    </g>
                </g>
            </g>
        </g>
    </g>
</svg>