<?xml version="1.0" encoding="UTF-8"?>
<svg width="160px" height="70px" viewBox="0 0 160 70" version="1.1" xmlns="http://www.w3.org/2000/svg" xmlns:xlink="http://www.w3.org/1999/xlink">
    <!-- Generator: Sketch 47.1 (45422) - http://www.bohemiancoding.com/sketch -->
    <title>Jimdo</title>
    <desc>Created with Sketch.</desc>
    <defs></defs>
    <g id="technologies" stroke="none" stroke-width="1" fill="none" fill-rule="evenodd">
        <g id="Artboard" transform="translate(-218.000000, -262.000000)">
            <g id="Jimdo" transform="translate(218.000000, 262.000000)">
                <rect id="container" fill="#FFFFFF" x="0" y="0" width="160" height="70"></rect>
                <g id="jimdo-logo" transform="translate(18.000000, 22.000000)" fill-rule="nonzero">
                    <path d="M108.527551,0.144342881 C112.560408,-0.460835055 116.836783,0.858725858 119.777218,3.69350672 C122.297981,6.05324564 123.844896,9.41585087 123.980765,12.8662751 C124.201526,16.8554443 122.510093,20.8944382 119.520044,23.5444806 C116.608058,26.1892902 112.498276,27.4360477 108.606069,26.8629488 C104.327873,26.3009978 100.435666,23.5167243 98.4843278,19.6742994 C97.0459727,16.9000363 96.6454181,13.6197899 97.3156643,10.5716042 C97.7788055,8.45348144 98.7699506,6.45411915 100.171892,4.79875274 C102.265472,2.29727476 105.296942,0.605279159 108.527551,0.144342881 Z" id="Shape" fill="#1AA9E1"></path>
                    <path d="M6.2546643,0.0860491981 C6.56233679,-0.0359152731 6.89994982,0.0109591319 7.22393319,0.00185730565 C11.9978841,0.00458785352 16.7729522,0.00322257958 21.5484672,0.00185730565 C22.0751078,-0.0284062665 22.5883421,0.31427749 22.7963618,0.802818012 C22.9384676,1.11865138 22.8857365,1.4736226 22.894674,1.80993508 C22.8924396,5.57422286 22.894674,9.33828308 22.8935568,13.1025709 C22.8785865,14.7964207 22.9820378,16.5066539 22.6567138,18.1786593 C22.2594431,20.5485473 21.1932027,22.8729262 19.3654896,24.4434463 C17.5590029,26.0308048 15.1760493,26.7716935 12.8288456,26.9428078 C10.2749629,27.1623893 7.63014132,26.7614539 5.34818116,25.5356655 C3.33300455,24.4714344 1.62371294,22.7382192 0.72929538,20.59929 C0.214943839,19.3994418 -0.0140788936,18.0826351 0.000667935962,16.7758404 C-0.0140788936,16.0854669 0.571325554,15.4651774 1.2490094,15.4522073 C2.49489307,15.44083 3.74189392,15.4544827 4.98755414,15.445836 C5.7126066,15.4117042 6.42023098,15.8531427 6.75940806,16.497552 C6.94351999,16.9176013 7.02574474,17.379519 7.22862537,17.793197 C7.81671106,19.0326382 8.90060303,20.0488571 10.2061443,20.4486548 C11.2764067,20.7797337 12.4662077,20.6186314 13.446425,20.0845817 C14.9340673,19.2569982 15.8796519,17.5925017 16.0338233,15.8977417 C16.0476763,13.2741403 16.0351639,10.6489461 16.0414201,8.02397938 C16.0689028,7.30493511 15.391219,6.69192711 14.699682,6.72742424 C12.0434652,6.73129251 9.38635466,6.72628651 6.73036128,6.72969969 C6.06384927,6.75700517 5.42593717,6.17289547 5.42102156,5.48502496 C5.41588251,4.09358328 5.41968094,2.70054878 5.41878719,1.30887955 C5.39711382,0.768458618 5.76958298,0.274912092 6.25444087,0.0858216524 L6.2546643,0.0860491981 Z M28.2189498,0.11631277 C28.4680818,-0.00929243145 28.7522935,-0.000418150898 29.0237692,0.000947123033 C30.4352195,0.00959385793 31.8480105,-0.00428642704 33.2594608,0.00709085572 C33.9085448,0.0298454212 34.432951,0.65787143 34.3855824,1.31138255 C34.383348,9.2586421 34.3844652,17.2068118 34.3855824,25.1552091 C34.4318338,25.8037142 33.909662,26.4556325 33.2556624,26.4531295 C31.7595295,26.4606385 30.2647372,26.4508541 28.7683809,26.4581355 C28.136725,26.5077405 27.5287535,25.9393314 27.5361269,25.2924192 C27.5271894,17.2941894 27.5361269,9.29664223 27.5309878,1.30000527 C27.4985895,0.810099473 27.7803433,0.321558951 28.2187264,0.11631277 L28.2189498,0.11631277 Z M39.0232368,1.17189706 C38.9897213,0.650817514 39.3516889,0.141570338 39.8584436,0.0387197018 C40.2932517,-0.0486578298 40.755319,0.129055327 41.0419884,0.46878099 C44.4851497,4.19893692 47.928311,7.9288653 51.3705785,11.6590212 C51.5888763,11.8897525 51.8058334,12.1204838 52,12.3719218 C47.7806192,16.9517332 43.5534182,21.5254008 39.3306859,26.1027092 C39.132274,25.8303371 38.9939666,25.5054019 39.02279,25.1590774 C39.026365,17.1631231 39.0214493,9.16716875 39.0239071,1.17166952 L39.0232368,1.17189706 Z" id="Shape" fill="#BFD34E"></path>
                    <path d="M63.2000376,0.293942752 C63.8177041,-0.343221639 65.0595554,0.138116934 65.0507894,1.02947638 C65.0543857,8.96943897 65.0496655,16.9094016 65.0530371,24.8500348 C65.0786608,25.1529674 64.9096342,25.415658 64.7502726,25.6593454 C60.5142673,21.1379374 56.2256659,16.665267 52,12.1342457 C55.7379162,8.19276911 59.4574013,4.23161869 63.1998128,0.294166319 L63.2000376,0.293942752 Z M70.621251,0.0730590966 C71.18767,-0.0626457405 71.7792633,0.0381827299 72.3571456,0.00822482519 C75.3263502,0.0395241286 78.3000502,-0.0664463702 81.2663328,0.0893794477 C83.7891453,0.34581017 86.2652057,1.24208808 88.3119564,2.74311325 C90.021553,3.99329685 91.3485919,5.74449288 92.0966247,7.7190318 C92.9338909,9.90417031 93.1260688,12.2925307 92.9287212,14.609797 C92.724181,16.9840727 91.9338916,19.3500765 90.4315325,21.2295997 C88.8950084,23.1790992 86.6875475,24.5294405 84.3353351,25.2821888 C82.937269,25.7418414 81.4695244,25.9853053 79.995711,25.9837403 C76.9891947,26.0150396 73.9831279,25.9904473 70.9766115,25.99626 C70.2521795,25.9989428 69.6646322,25.3061104 69.7205998,24.6005347 L69.7205998,1.41535208 C69.6907054,0.834750003 70.0555063,0.250123728 70.6219253,0.0730590966 L70.621251,0.0730590966 Z" id="Shape" fill="#1AA9E1"></path>
                    <path d="M52.4852475,12.0266169 L52.5099084,12 C56.6494187,16.5717828 60.8505813,21.0842416 65,25.645874 C64.7688039,25.8168534 64.5162498,26.0031714 64.2165757,25.9864795 C56.5644266,25.9905397 48.9124978,25.9855772 41.260569,25.9891863 C40.8113881,26.0270814 40.3373261,25.9779079 40,25.6382047 C44.161529,21.100708 48.3270213,16.5668204 52.4850273,12.0268424 L52.4852475,12.0266169 Z" id="Shape" fill="#219858"></path>
                </g>
            </g>
        </g>
    </g>
</svg>