<?xml version="1.0" encoding="UTF-8"?>
<svg width="160px" height="70px" viewBox="0 0 160 70" version="1.1" xmlns="http://www.w3.org/2000/svg" xmlns:xlink="http://www.w3.org/1999/xlink">
    <!-- Generator: Sketch 47.1 (45422) - http://www.bohemiancoding.com/sketch -->
    <title>Joomla</title>
    <desc>Created with Sketch.</desc>
    <defs></defs>
    <g id="technologies" stroke="none" stroke-width="1" fill="none" fill-rule="evenodd">
        <g id="Artboard" transform="translate(-209.000000, -42.000000)">
            <g id="Joomla" transform="translate(209.000000, 42.000000)">
                <rect id="container" fill="#FFFFFF" x="0" y="0" width="160" height="70"></rect>
                <g id="joomla" transform="translate(13.000000, 22.000000)" fill-rule="nonzero">
                    <path d="M4.83650995,13.5425477 L4.3165137,13.0264793 C2.7041534,11.4230915 2.20495978,9.13300319 2.81571517,7.10257075 C1.20381978,6.74043906 0,5.30768344 0,3.59533302 C0.000444517921,1.60987868 1.61919935,0 3.61602278,0 C5.41391834,0.000928428432 6.90455005,1.30478251 7.18485734,3.01295703 C9.13583018,2.55809197 11.2710333,3.08714616 12.7924468,4.59965338 L13,4.80598748 L10.3312286,7.4577453 L10.1241444,7.25094497 C9.25849674,6.39082697 7.85461535,6.39082697 6.98803786,7.25187339 C6.11865868,8.11616323 6.12052239,9.51599816 6.98337246,10.3737931 L7.50528136,10.8917183 L10.1745177,13.5425477 L12.9971983,16.3473178 L10.3312286,19 L7.50528136,16.1943055 L4.83650995,13.5425477" id="path174" fill="#86BE3C"></path>
                    <path d="M8,11.1937212 L10.8038269,8.22354439 L13.4530412,5.41873728 L13.9696429,4.87210278 C15.5638941,3.18264372 17.8358398,2.65073002 19.8550399,3.27930927 C20.096675,1.42693893 21.5964927,0 23.4106234,0 C25.3927884,0 27.0004654,1.70270821 26.9999999,3.80484296 C26.9999999,5.73572565 25.6422959,7.33146246 23.8832524,7.57681191 C24.4614215,9.70937079 23.9577801,12.100524 22.3741779,13.7806597 L22.1677202,14 L19.5208211,11.1917562 L19.725425,10.974381 C20.5855064,10.063159 20.5855064,8.58518855 19.7263519,7.67446 C18.8695087,6.76716387 17.479404,6.7652031 16.616546,7.67936836 L16.0999403,8.22649198 L13.450726,11.0327707 L10.6487529,14 L8,11.1937212" id="path176" fill="#E4B645"></path>
                    <path d="M20.501585,23.0839956 C18.3526249,23.7198515 15.9179448,23.2198086 14.2168459,21.5838299 L14.0029295,21.3782969 L16.7951163,18.6896702 L17.0095238,18.896378 C17.9169686,19.7687677 19.3880344,19.7687677 20.2945056,18.8973146 C21.198043,18.0272745 21.1999989,16.6169771 20.2896202,15.7408289 L19.7435894,15.2151374 L16.9509158,12.526556 L14,9.68576359 L16.7951163,7 L19.7435894,9.83891516 L22.5352851,12.526556 L23.0842497,13.0550653 C24.6905953,14.6001898 25.245419,16.7738872 24.7457869,18.7512118 C26.5851037,19.0002002 28,20.5204238 28,22.3582221 C28,24.3704088 26.3037823,26 24.2134301,26 C22.3799724,26 20.8512809,24.7484447 20.501585,23.0839956" id="path184" fill="#C33734"></path>
                    <path d="M19,16.4521993 L16.1596695,19.0419621 L13.46898,21.4941614 L12.941005,21.9747439 C11.3867291,23.3909953 9.19483854,23.8722635 7.20529181,23.422794 C6.83354504,24.8992967 5.38232137,25.9991381 3.64871416,26 C1.63318836,26 -0.000460728628,24.5126117 9.74697399e-08,22.6778315 C9.74697399e-08,21.1067456 1.197539,19.7893641 2.80640223,19.4435198 C2.29720585,17.6230127 2.82475298,15.6117992 4.38947566,14.1868505 L4.59534971,14 L7.28810884,16.4504831 L7.08011992,16.6386226 C6.2067516,17.4348769 6.2067516,18.7235473 7.08106214,19.5206597 C7.95772208,20.3190612 9.37835842,20.317345 10.2489042,19.5240884 L10.775937,19.0432474 L13.4666265,16.59191 L16.3097795,14 L19,16.4521993" id="path186" fill="#748EC4"></path>
                    <path d="M40.9762633,5 L40.9762633,16.6184702 C40.9762633,17.6453492 40.6697612,18.5160876 40.0666384,19.204821 C39.3300066,20.0439493 38.2299934,20.4697429 36.7971594,20.4697429 L35.5128701,20.3729904 L31.6426153,19.7259264 L31,21.2082868 L34.9323091,21.8270953 C35.6661211,21.9420482 36.3501032,22 36.9640404,22 C39.0916708,22 40.697498,21.3907692 41.737808,20.1914671 C42.5755097,19.21153 43,17.930803 43,16.3842635 L43,5 L40.9762633,5" id="path314" fill="#000000"></path>
                    <path d="M56.8455629,17.7199284 C55.6457052,18.356526 54.1897567,18.6790255 52.5156478,18.6790255 C50.8036044,18.6790255 49.3381681,18.3627189 48.1525421,17.7407198 L48.1525421,17.7407198 C46.7098673,16.9873311 46.0098754,15.927809 46.0098754,14.4997795 C46.0098754,13.0929823 46.7297883,12.0029366 48.1525421,11.260607 C49.3381681,10.6372811 50.8036044,10.3214154 52.5156478,10.3214154 C54.2134678,10.3214154 55.6741602,10.6372811 56.869274,11.260607 C58.2778002,12.0091295 58.989175,13.0991752 58.989175,14.4997795 C58.989175,15.8871083 58.2683125,16.9705201 56.8455629,17.7199284 Z M58.0454164,10.1935652 C56.4898713,9.40124744 54.6308091,9 52.5156478,9 C50.419462,9 48.5556558,9.40124744 46.9868329,10.1926794 L46.986356,10.1926794 C45.0054125,11.198674 44,12.6497074 44,14.5055276 C44,16.3617926 45.0054125,17.8097315 46.9868329,18.8077616 C48.5556558,19.6000793 50.4147181,20 52.5156478,20 C54.6213255,20 56.4803877,19.6027329 58.0359328,18.8179348 C59.9993314,17.8194638 61,16.3684304 61,14.5055276 C61,12.6435145 60.0040711,11.1924772 58.0454164,10.1935652 L58.0454164,10.1935652 Z" id="path316" fill="#000000"></path>
                    <path d="M74.8496123,17.7199284 C73.6495537,18.356526 72.1933616,18.6790255 70.5189766,18.6790255 C68.8066425,18.6790255 67.3409611,18.3627189 66.1551366,17.7407198 C64.7131702,16.9873311 64.0111615,15.927809 64.0111615,14.4997795 C64.0111615,13.0929823 64.7321447,12.0029366 66.1551366,11.260607 C67.3409611,10.6372811 68.8066425,10.3214154 70.5189766,10.3214154 C72.2123362,10.3214154 73.6780135,10.6372811 74.8733273,11.260607 C76.2773446,12.0091295 76.9935832,13.0991752 76.9935832,14.4997795 C76.9935832,15.8871083 76.2726041,16.9705201 74.8496123,17.7199284 Z M76.0496666,10.1935652 C74.4938653,9.40124744 72.6344878,9 70.5189766,9 C68.4224359,9 66.5583178,9.40124744 64.9882825,10.1926794 L64.9882825,10.1926794 C63.0055808,11.198674 62,12.6497074 62,14.5055276 C62,16.3617926 63.0055808,17.8097315 64.9882825,18.8077616 C66.5583178,19.6000793 68.4176912,20 70.5189766,20 C72.6250026,20 74.4796313,19.6027329 76.0354367,18.8179348 C78.0039086,17.8194638 79,16.3684304 79,14.5055276 C79,12.6426287 78.0086533,11.1924772 76.0496666,10.1935652 L76.0496666,10.1935652 Z" id="path318" fill="#000000"></path>
                    <path d="M100.909521,9.94122612 C99.7977659,9.3176406 98.3724441,9 96.6763069,9 C94.5193144,9 92.7709127,9.64248038 91.4643649,10.8896475 C90.2005768,9.64248038 88.4569317,9 86.2666802,9 C84.499277,9 83.0596978,9.35273556 81.9479468,10.0244571 C81.9479468,9.76665616 81.9479468,9.15611963 81.9479468,9.15611963 L80,9.15611963 L80,20 L81.9479468,20 L81.9479468,12.5799842 C82.080974,12.0450311 82.4515577,11.5537253 83.0549453,11.1474484 C83.8531297,10.6142971 84.907872,10.3438995 86.1954141,10.3438995 C87.3261708,10.3438995 88.3048946,10.5652562 89.093574,11.0003258 C90.039043,11.5109828 90.495146,12.2254469 90.495146,13.1855718 L90.495146,20 L92.4098339,20 L92.4098339,13.1855718 C92.4098339,12.2240976 92.8659369,11.5055814 93.8066493,10.9899795 C94.6048337,10.5616605 95.5930582,10.3438995 96.7380681,10.3438995 C97.8830822,10.3438995 98.8665542,10.5652562 99.6599862,11.0012267 C100.600703,11.5109828 101.056806,12.2254469 101.056806,13.1855718 L101.056806,20 L103,20 L103,13.4393208 C103,11.8956622 102.29684,10.7177802 100.909521,9.94122612" id="path320" fill="#000000"></path>
                    <polyline id="path322" fill="#000000" points="104 5 104 22 106 22 106 5 104 5"></polyline>
                    <path d="M109.015093,14.4997795 C109.015093,13.0867894 109.737487,11.9932044 111.15376,11.249548 C112.346659,10.6341827 113.824713,10.3214154 115.549902,10.3214154 C117.683811,10.3214154 119.351969,10.8058321 120.511603,11.7627166 C121.533409,12.6072389 122.051441,13.7083437 122.051441,15.0328575 C122.051441,15.0328575 122.051441,16.1998795 122.051441,16.2958754 C121.233993,17.1359726 120.041094,17.7995583 118.50126,18.2631797 C117.598265,18.5396753 116.604974,18.6790255 115.549902,18.6790255 C113.796198,18.6790255 112.308636,18.3737779 111.144252,17.7716882 C109.708972,17.0253783 109.015093,15.955679 109.015093,14.4997795 Z M122.051441,9.15350768 C122.051441,9.15350768 122.051441,10.6111788 122.051441,10.9788043 C120.383283,9.6777392 118.187585,9 115.488117,9 C113.301927,9 111.429407,9.38797581 109.90858,10.1510968 C107.979029,11.1287765 107,12.5944083 107,14.5055276 C107,16.3901075 108.002795,17.8442393 109.979869,18.8285529 C111.533965,19.6062722 113.411239,20 115.554652,20 C116.633489,20 117.674307,19.8809963 118.653341,19.646532 C120.03159,19.3156231 121.167458,18.8161671 122.051441,18.1733766 C122.051441,18.5339234 122.051441,19.8159649 122.051441,19.8159649 L124,19.8159649 L124,9.15350768 L122.051441,9.15350768 L122.051441,9.15350768 Z" id="path324" fill="#000000"></path>
                    <path d="M128.506893,18.7353167 C127.197551,18.7353167 127,19.4350883 127,19.8513578 C127,20.2803851 127.197551,21 128.506893,21 C129.807045,21 130,20.2803851 130,19.8513578 C130,19.4350883 129.807045,18.7353167 128.506893,18.7353167 Z M129.42573,4 L127.546709,4 L127.546709,17.122683 L129.42573,17.122683 L129.42573,4 L129.42573,4 Z" id="path326" fill="#000000"></path>
                    <path d="M131.707908,4.292532 L131.018256,4.292532 L131.018256,6 L130.689652,6 L130.689652,4.292532 L130,4.292532 L130,4 L131.707908,4 L131.707908,4.292532 Z M132.296143,4.47780061 L132.300201,4.61123925 L132.304259,4.82524995 L132.304259,6 L131.991884,6 L131.991884,4 L132.425962,4 L132.997969,5.59558705 L133.56998,4 L134,4 L134,6 L133.691683,6 L133.691683,4.82524995 L133.691683,4.62817487 L133.691683,4.47985586 L133.152129,6 L132.843813,6 L132.296143,4.47780061 L132.296143,4.47780061 Z" id="path328" fill="#000000"></path>
                </g>
            </g>
        </g>
    </g>
</svg>