<?xml version="1.0" encoding="UTF-8"?>
<svg width="160px" height="70px" viewBox="0 0 160 70" version="1.1" xmlns="http://www.w3.org/2000/svg" xmlns:xlink="http://www.w3.org/1999/xlink">
    <!-- Generator: Sketch 47.1 (45422) - http://www.bohemiancoding.com/sketch -->
    <title>jquery</title>
    <desc>Created with Sketch.</desc>
    <defs></defs>
    <g id="technologies" stroke="none" stroke-width="1" fill="none" fill-rule="evenodd">
        <g id="Javascript-frameworks" transform="translate(-224.000000, -42.000000)">
            <g id="jquery" transform="translate(224.000000, 42.000000)">
                <rect id="Rectangle-Copy-2" fill="#FFFFFF" x="0" y="0" width="160" height="70"></rect>
                <g transform="translate(17.000000, 20.000000)" id="Shape" fill-rule="nonzero">
                    <path d="M53.9997017,11.0012626 L54,11 C54,11 53,14 53,14 C53,14 53.999642,11.0012626 53.999642,11.0012626 L53.9997017,11.0012626 Z" fill="#131B28"></path>
                    <path d="M58,17.011 C58,17.011 57,17 57,17 C57,17 58,17.011 58,17.011 Z" fill="#131B28"></path>
                    <path d="M57.9989155,22 L58,22 C58,22 52,22.0403 52,22.0403 C52,22.0403 57.9991867,22 57.9991867,22 L57.9989155,22 Z" fill="#131B28"></path>
                    <path d="M59,17.011 C59,17.011 58,17 58,17 C58,17 59,17.011 59,17.011 Z" fill="#131B28"></path>
                    <path d="M58,19.999388 C58,19.999388 59,17 59,17 C59,17 58,20 58,20 L58,19.999592 L58,19.999388 Z" fill="#131B28"></path>
                    <path d="M78,6 C78,6 77,14 77,14 C77,14 78,6 78,6 Z" fill="#131B28"></path>
                    <path d="M73,6.00047578 C73,6.00047578 72,12 72,12 C72,12 73,6 73,6 L73,6.00047578 L73,6.00047578 Z" fill="#131B28"></path>
                    <path d="M76.7130772,5 L73.2189616,5 C73.0250855,5 72.8325974,5.15501986 72.7912077,5.34381077 C72.7912077,5.34381077 71.5507466,11.0634832 71.5507466,11.0634832 C71.5507466,11.0634832 70.3102628,16.7831555 70.3102628,16.7831555 C70.2691553,16.9719465 70.0769425,17.1264221 69.8830778,17.1264221 L67.7629442,17.1264221 L67.4099147,17.1264221 C64.9631692,17.1264221 65.2461616,15.4400235 65.7472518,13.1290917 C65.7522577,13.1058475 65.7572636,13.0831407 65.7622467,13.0593341 C65.7622467,13.0593341 65.8172411,12.768112 65.8172411,12.768112 C65.8205632,12.7492898 65.8244541,12.7304608 65.8275031,12.7133009 C65.8275031,12.7133009 65.9391619,12.1203345 65.9391619,12.1203345 C65.9391619,12.1203345 66.0588757,11.4847574 66.0588757,11.4847574 C66.095264,11.2931953 66.1505359,11.0130465 66.1866466,10.8370025 C66.1866466,10.8370025 66.7504926,8.09100647 66.7504926,8.09100647 C66.7504926,8.09100647 67.3149074,5.3450104 67.3149074,5.3450104 C67.3537941,5.15566389 67.2265783,5.00008844 67.0327114,5.00008844 L63.4462142,5.00008844 C63.2523359,5.00008844 63.0603961,5.15566389 63.0206903,5.34446615 C63.0206903,5.34446615 62.249623,8.99075162 62.249623,8.99075162 C62.249623,8.99075162 61.4785557,12.6365836 61.4785557,12.6365836 C61.4778731,12.638171 61.4776455,12.6404614 61.477418,12.6421168 C61.477418,12.6421168 61.4057563,12.9809613 61.4057563,12.9809613 C60.5174827,17.0225123 60.7530329,20.876522 65.5804462,20.9971653 C65.6593346,20.9994331 65.7204407,21 65.7204407,21 L73.2980024,21 C73.4918808,21 73.6838205,20.8449779 73.7243682,20.6556223 C73.7243682,20.6556223 75.3584293,13.0004411 75.3584293,13.0004411 C75.3584293,13.0004411 76.9924904,5.34457953 76.9924904,5.34457953 C77.0327674,5.15523076 76.9069396,5.00020183 76.7130703,5.00020183 L76.7130772,5 Z" fill="#131B28"></path>
                    <path d="M92.0825946,17 C92.3628151,17 92.5460109,17.1552543 92.489886,17.3448934 C92.489886,17.3448934 92,19 92,19" fill="#131B28"></path>
                    <path d="M92.0004022,20.999671 C92.0004022,20.999671 92.5,20 92.5,20 C92.5,20 92,21 92,21 C92,20.9997258 92.0003318,20.9997258 92.0003318,20.9997258 L92.0004022,20.999671 Z" fill="#131B28"></path>
                    <path d="M91.9982689,22.001 C91.9987635,22.001 91.9995054,22 92,22 C90.8824631,22.0183 87.5241645,22.06958 85,22.06958 C88.0719282,22.06958 91.9980216,22.00122 91.9980216,22.00122 L91.9982689,22.001 Z" fill="#131B28"></path>
                    <path d="M82.2268392,15.4865882 C82.2213144,15.3103804 82.6228559,15.0069967 83,15.0069967 C83,15.0069967 82.1524092,15 82.1524092,15 C81.770421,16.9183219 82.2268613,15.4865882 82.2268613,15.4865882 L82.2268392,15.4865882 Z" fill="#131B28"></path>
                    <path d="M85.14771,22 C85.09891,22 85.048835,22 85,22.001 C85.0488,22 85.098885,22 85.14771,22 Z" fill="#131B28"></path>
                    <path d="M92.2800625,17 C92.7633846,17 93.0793592,17.1367857 92.9825554,17.3038659 C92.9825554,17.3038659 92.1376041,18.7620858 92.1376041,18.7620858 C92.1376041,18.7620858 92,19 92,19" fill="#131B28"></path>
                    <path d="M87.03115,22 L87,22 L87.03115,22 Z" fill="#131B28"></path>
                    <path d="M86.10926,22 L86,22 L86.10926,22 Z" fill="#131B28"></path>
                    <path d="M85.18067,22 C85.119665,22 85.05982,22 85,22.001 C85.059815,22 85.119635,22 85.18067,22 Z" fill="#131B28"></path>
                    <path d="M85.158685,22 L85,22 L85.158685,22 Z" fill="#131B28"></path>
                    <path d="M85.46508,22 C85.309445,22 85.153805,22.001 85,22.001 C85.153805,22.001 85.309445,22 85.46508,22 Z" fill="#131B28"></path>
                    <path d="M87,22 C86.6645703,22.0025 86.3298154,22.005 86,22.00625 C86.3298154,22.00525 86.6649212,22.00275 87,22 Z" fill="#131B28"></path>
                    <path d="M91.9997455,22 L92,22 C91.1571312,22.01345 89.0757406,22.04395 87,22.059815 C89.0746717,22.045215 91.1565713,22.013465 91.9997455,22 L91.9997455,22 Z" fill="#131B28"></path>
                    <path d="M92.00048,20.9992145 C92.00048,20.9992145 92.5,20 92.5,20 C92.5,20 92,21 92,21 C92,20.9996727 92.0004,20.9996727 92.0004,20.9991818 L92.00048,20.9992145 Z" fill="#131B28"></path>
                    <path d="M85.40527,22 L85,22 L85.40527,22 Z" fill="#131B28"></path>
                    <path d="M85.5,22 L85,22 L85.5,22 Z" fill="#131B28"></path>
                    <path d="M85.43213,22 L85,22 L85.43213,22 Z" fill="#131B28"></path>
                    <path d="M30.5536844,15.6002705 C30.5536844,15.6002705 31,13 31,13 C31,13 30.4897272,15.9723349 30.4897272,15.9723349 C30.4897272,15.9723349 30,19 30,19 C30,19 30.4291943,16.3458748 30.4291943,16.3458748 C30.4623143,16.1405459 30.518506,15.8049428 30.5536825,15.6002213 L30.5536844,15.6002705 Z" fill="#131B28"></path>
                    <path d="M37.6761721,5 L33.3239208,5 C33.1037119,5 32.8841276,5.11921347 32.8349893,5.26448711 C32.8349893,5.26448711 32.4222945,6.49978123 32.4222945,6.49978123 C32.4222945,6.49978123 32.0095997,7.73551289 32.0095997,7.73551289 C31.9610834,7.88079178 32.1012773,8 32.3214887,8 L36.7075485,8 C36.927445,8 37.146077,7.88078653 37.1933314,7.73507535 C37.1933314,7.73507535 37.5921673,6.49978123 37.5921673,6.49978123 C37.5921673,6.49978123 37.9910032,5.2653447 37.9910032,5.2653447 L37.9910032,5.26499466 C38.0379453,5.11928698 37.896492,5.00007001 37.6762754,5.00007001 L37.6761721,5 Z" fill="#131B28"></path>
                    <path d="M38,10.0005244 L38,10 C38,10 37,16 37,16 C37,16 38,10.0005244 38,10.0005244 L38,10.0005244 Z" fill="#131B28"></path>
                    <path d="M25.0015095,29.001185 C25.0015095,29.001185 26.8346751,29.056125 28,29.056125 C27.1147499,29.056125 25.6527458,29.018325 25,29 C25.0006469,29 25.0010782,29.001 25.0017251,29.001 L25.0015095,29.001185 Z" fill="#131B28"></path>
                    <path d="M33,10 C33,10 32,12 32,12 C32,12 33,10 33,10 Z" fill="#131B28"></path>
                    <path d="M37.6751113,10 L33.2787408,10 C33.0583533,10 32.8379657,10.1583236 32.7893384,10.3518276 C32.7893384,10.3518276 32.1717463,12.8095304 32.1717463,12.8095304 C32.1717463,12.8095304 31.5548008,15.2672331 31.5548008,15.2672331 C31.5061761,15.4607371 31.4285018,15.7779491 31.3827197,15.9720039 C31.3827197,15.9720039 30.7894412,18.4806087 30.7894412,18.4806087 C30.7894412,18.4806087 30.1964731,20.9892134 30.1964731,20.9892134 C30.1503755,21.182715 30.0556532,21.4953737 29.9849264,21.6831995 C29.9849264,21.6831995 29.1636946,23.8792338 27.7829389,23.854271 C27.7242112,23.8531088 27.6670612,23.852644 27.6105449,23.8513656 C26.9414803,23.8399998 26.4157885,23.8314929 26.4157885,23.8314929 L26.4147539,23.8314929 C26.1946819,23.8285876 25.9733321,23.9830017 25.9218855,24.1753715 C25.9218855,24.1753715 25.4659531,25.8975996 25.4659531,25.8975996 C25.4659531,25.8975996 25.0106416,27.6192467 25.0106416,27.6192467 C24.9594924,27.8116094 25.0977878,27.9704932 25.3169158,27.9739099 C26.0999699,27.9824168 27.8535778,28 28.9153335,28 C32.3642482,28 34.1823389,26.2828853 35.3478413,21.3416104 C35.3478413,21.3416104 36.7118362,15.6705786 36.7118362,15.6705786 C36.7118362,15.6705786 37.9912247,10.3519089 37.9912247,10.3519089 C38.0376405,10.1584096 37.8952376,10.0000814 37.6748371,10.0000814 L37.6751113,10 Z" fill="#131B28"></path>
                    <path d="M94.2947166,22 C94.0953258,22 93.9659284,21.8330201 94.0079103,21.6290585 C94.0079103,21.6290585 97,7 97,7" fill="#131B28"></path>
                    <path d="M99,21 C99,21 100,15 100,15 C100,15 99,21 99,21 Z" fill="#131B28"></path>
                    <path d="M94.0343236,21.8069581 C94.0181798,21.7008029 94.0276638,21.4407074 94.055786,21.2283918 C94.055786,21.2283918 95,14 95,14 C95,14 94.0052617,21.6138654 94.0052617,21.6138654 C93.9773403,21.8261682 94.0633856,22 94.1959686,22 L94.4375888,22 C94.304816,22 94.0502932,21.9130905 94.0343283,21.8069403 L94.0343236,21.8069581 Z" fill="#131B28"></path>
                    <path d="M99.6444499,21.887551 C99.5196909,21.9493979 99.2294653,22 99,22 L99.4175934,22 C99.6467494,22 99.8719518,21.775102 99.9172693,21.4996052 C99.9172693,21.4996052 100,21 100,21 C99.9543678,21.274694 99.7695343,21.8257008 99.6444526,21.887551 L99.6444499,21.887551 Z" fill="#131B28"></path>
                    <path d="M100.000131,18 C100.000131,18 101,15 101,15 C100.999562,15.0018614 100.999124,15.0045471 100.998248,15.00585 C100.998248,15.00585 100,18 100,18 L100.000131,18 Z" fill="#131B28"></path>
                    <path d="M111.198734,8 C111.198734,8 111.483958,8.65820781 111.483958,8.65820781 C111.562559,8.84649885 111.344557,8.99945719 111,9" fill="#131B28"></path>
                    <path d="M99,21 C99,21 100,18 100,18 C100,18 99,21 99,21 Z" fill="#131B28"></path>
                    <path d="M111,7 C111,7 111.348515,8 111.348515,8 C111.348515,8 111,7 111,7 Z" fill="#131B28"></path>
                    <path d="M101.000003,16 C101.055364,15.826485 101.146961,15.5454105 101.20471,15.373425 C101.20471,15.373425 102,13 102,13 C102,13 101.099169,15.6884685 101.099169,15.6884685 C101.099169,15.6884685 101,15.9999792 101,15.9999792 L101.000003,16 Z" fill="#131B28"></path>
                    <path d="M97,7 C96.974289,7.20840156 96.9413618,7.47173399 96.9195331,7.64605078 C96.9195331,7.64605078 96,15 96,15 C96,15 96.9687367,7.25390913 96.9687367,7.25390913 C96.9687367,7.25390913 96.9999985,7.0000388 96.9999985,7.0000388 L97,7 Z" fill="#131B28"></path>
                    <path d="M110.990471,8.61230375 C110.990471,8.61230375 110.82563,7.95066835 110.82563,7.95066835 C110.82563,7.95066835 110.662499,7.27293654 110.662499,7.27293654 C110.662499,7.27293654 110.579935,6.92991012 110.579935,6.92991012 C110.256823,5.71044755 109.308317,5.00663863 107.248882,5.00663863 C107.248882,5.00663863 104.04257,5.00331932 104.04257,5.00331932 C104.04257,5.00331932 101.089721,5 101.089721,5 L100.836306,5 L97.7671404,5 C97.5677289,5 97.3703067,5.15485979 97.3291864,5.34468608 L97.3289523,5.34468608 C97.3289523,5.34468608 97.1821103,6.01907584 97.1821103,6.01907584 C97.1821103,6.01907584 97.008698,6.81557555 97.008698,6.81557555 C97.008698,6.81557555 96.9604161,7.03870869 96.9604161,7.03870869 C96.9604161,7.03870869 95.4642623,13.8469465 95.4642623,13.8469465 C95.4642623,13.8469465 94.0441004,20.3100663 94.0441004,20.3100663 C94.0018216,20.4998949 93.9875359,20.7324608 94.011822,20.8273796 C94.0358108,20.9222916 94.4186491,21 94.6183297,21 L97.6158797,21 C97.8155768,21 98.0681335,20.9650312 98.17668,20.9222916 C98.285526,20.879552 98.4463612,20.4987831 98.4860773,20.3089454 C98.4860773,20.3089454 99.0188867,17.7485242 99.0188867,17.7485242 C99.0188867,17.7485242 99.5522577,15.1885577 99.5522577,15.1885577 C99.5524918,15.1874209 99.5527258,15.1852384 99.5531939,15.183556 C99.5531939,15.183556 99.6243319,14.8427576 99.6243319,14.8427576 C99.6243319,14.8427576 100.270556,11.9015243 100.270556,11.9015243 C100.270556,11.9015243 100.841373,9.30381756 100.841373,9.30381756 C100.883659,9.11510073 101.080208,8.96079113 101.279327,8.96024549 C101.279327,8.96024549 110.711031,8.95581216 110.711031,8.95581216 C110.910157,8.95535746 111.036156,8.80150483 110.990729,8.6122401 L110.990471,8.61230375 Z" fill="#131B28"></path>
                    <path d="M124.666353,2.00787524 C124.467975,2.0093592 124.143588,2.01067003 123.945201,2.01067003 L120.94625,2.01067003 C120.747866,2.01067003 120.493861,2.15317446 120.382031,2.32737128 C120.382031,2.32737128 113.75058,12.662393 113.75058,12.662393 C113.638476,12.836899 113.510762,12.8109347 113.466774,12.6056341 C113.466774,12.6056341 112.978907,10.3286251 112.978907,10.3286251 C112.934916,10.122721 112.736252,9.95486566 112.538143,9.95486566 L108.274885,9.95486566 C108.076504,9.95486566 107.959018,10.1203145 108.013212,10.3232086 C108.013212,10.3232086 109.923529,17.4422472 109.923529,17.4422472 C109.978019,17.6451339 109.981995,17.9784505 109.932899,18.1825442 C109.932899,18.1825442 109.100218,21.6280461 109.100218,21.6280461 C109.050837,21.8327432 109.172873,22 109.371261,22 L113.584765,22 C113.782862,22 113.985493,21.8327407 114.034596,21.6280461 C114.034596,21.6280461 114.867579,18.1825442 114.867579,18.1825442 C114.916679,17.978453 115.054609,17.6729284 115.1741,17.5044498 C115.1741,17.5044498 125.940006,2.30402616 125.940006,2.30402616 C126.059493,2.13555989 125.994782,1.99847932 125.796685,2.00001274 C125.796685,2.00001274 124.666574,2.00785298 124.666574,2.00785298 L124.666353,2.00787524 Z" fill="#131B28"></path>
                    <path d="M89.4150723,11.2965396 C89.4150723,11.2965396 89.4148415,11.2925272 89.4148415,11.2925272 C89.3900605,11.5096421 89.1931149,11.6689023 88.9964486,11.6689023 L83.6308274,11.6689023 C83.4454425,11.6689023 83.3510526,11.5405781 83.3783792,11.3824677 C83.3799948,11.377892 83.3806872,11.3738796 83.3834568,11.3698671 C83.3834568,11.3698671 83.3816104,11.3703364 83.3800871,11.3715096 C83.3812411,11.3651976 83.3812411,11.3594956 83.3829721,11.3531836 C83.3829721,11.3531836 83.3931273,11.3147999 83.4074945,11.2603757 C83.9199612,9.87517923 84.9638201,8.96603625 86.9255676,8.96603625 C89.1341088,8.96603625 89.5652187,10.0630852 89.4151992,11.2964645 L89.4150723,11.2965396 Z M87.8409982,5 C80.9537176,5 79.321736,9.25017599 78.4061554,13.5397728 C77.4905055,17.9119657 77.5693927,22 84.6961276,22 L84.9491297,22 C84.9716557,21.9995307 84.9947749,21.9995307 85.0173124,21.9995307 L85.216783,21.9995307 L85.2900317,21.9995307 L85.4771061,21.9995307 C85.5047166,21.9990614 85.5323294,21.9990614 85.5605008,21.9990614 C85.6314992,21.9990614 85.7033424,21.9985921 85.7751833,21.9985921 L85.8256176,21.9985921 C86.1076312,21.9981228 86.3938915,21.9967149 86.6806827,21.995659 L86.6950615,21.995659 C88.5773448,21.9882207 90.4649365,21.9739072 91.2295745,21.9675904 C91.4251007,21.9646573 91.616394,21.8043225 91.6566916,21.610128 C91.6566916,21.610128 91.9451907,20.176242 91.9451907,20.176242 C91.9451907,20.176242 92.0012587,19.8972458 92.0012587,19.8972458 C92.0012587,19.8972458 92.345542,18.1872263 92.345542,18.1872263 C92.3849856,17.9913048 92.2562319,17.8308901 92.0593047,17.8308901 L85.6520865,17.8308901 C83.1038319,17.8308901 82.3470412,17.1422926 82.6258467,15.1183613 L92.8680253,15.1183613 C92.8680253,15.1183613 92.8671021,15.1195346 92.8671021,15.1195346 C92.8697102,15.1195346 92.8719028,15.1183613 92.8741415,15.1183613 C93.0369842,15.1154282 93.1874284,15.0014973 93.2471593,14.8496896 C93.2584454,14.8204759 93.2680235,14.7901101 93.2719402,14.758604 C93.2719402,14.758604 93.2707862,14.7597772 93.2707862,14.7597772 C94.7916148,8.92784027 94.3554735,5.00030504 87.8405413,5.00030504 L87.8409982,5 Z" fill="#131B28"></path>
                    <path d="M54.4058441,10.937083 C54.4058441,10.937083 54.3031923,11.3010405 54.3031923,11.3010405 C54.3031923,11.3022644 54.3029478,11.3022644 54.3029478,11.3022644 C54.3029478,11.3022644 53.4838449,14.2091751 53.4838449,14.2091751 C53.4838449,14.2091751 52.6650353,17.1155962 52.6650353,17.1155962 C52.60834,17.3164019 52.3916913,17.4807531 52.1828088,17.4807531 L47.8472443,17.4807531 C44.5586589,17.4807531 43.7578408,14.9050467 44.5586589,11.1058674 C45.3592814,7.22003168 46.9291635,4.80441953 50.1658522,4.55987185 C54.5889298,4.22577907 55.4738387,7.34120396 54.4058368,10.9372054 L54.4058441,10.937083 Z M57.379089,17.2571352 C57.379089,17.2571352 59.4231308,12.2871135 59.8873901,9.41618738 C60.5205155,5.5731903 58.5991388,0 51.1776379,0 C43.7984268,0 40.5941767,5.32105405 39.371438,11.1055003 C38.1488948,16.931806 39.7507021,22.0416041 47.08799,21.9997446 C47.08799,21.9997446 52.8763207,21.9782273 52.8763207,21.9782273 C52.8763207,21.9782273 58.2862429,21.9584971 58.2862429,21.9584971 C58.4945265,21.9567835 58.7075768,21.7911569 58.7606958,21.5897417 C58.7606958,21.5897417 59.7030504,17.9900683 59.7030504,17.9900683 C59.7555705,17.7880656 59.6281534,17.6219249 59.4198796,17.6207254 C59.4198796,17.6207254 58.5166125,17.61534 58.5166125,17.61534 C58.5166125,17.61534 57.6136632,17.6099546 57.6136632,17.6099546 C57.4364126,17.6087306 57.3349658,17.4940111 57.356453,17.3416131 C57.3603397,17.3141351 57.3665976,17.2860329 57.3785513,17.2567484 L57.379089,17.2571352 Z" fill="#131B28"></path>
                    <path d="M93,14.4993854 C93,14.7754979 92.7763874,15 92.5,15 C92.2242314,15 92,14.7755126 92,14.4993854 C92,14.2232778 92.2242167,14 92.5,14 C92.7763677,14 93,14.2232876 93,14.4993854 Z" fill="#131B28"></path>
                    <path d="M1.4316734,7.91292928 C-0.564313162,10.6902059 -0.315838578,14.3034475 1.20892274,17.2543619 C1.24517378,17.3251106 1.28317296,17.3947234 1.32059022,17.4643407 C1.34456601,17.5084874 1.36706905,17.5537653 1.39191651,17.5973463 C1.40595427,17.6233688 1.42173058,17.6488488 1.43635026,17.6737539 C1.46236154,17.7207288 1.48896671,17.7654434 1.51585925,17.8112871 C1.56321694,17.8922222 1.61174324,17.9725916 1.66143576,18.0529658 C1.688915,18.0971101 1.71610208,18.1412567 1.74445778,18.1854034 C1.79941387,18.2714317 1.85583311,18.3563288 1.91341858,18.4412235 C1.93739437,18.4774463 1.96077387,18.5136691 1.98532918,18.5487583 C2.06484296,18.6636537 2.14610727,18.777981 2.22999618,18.8906091 C2.23207957,18.8935069 2.23436652,18.8968452 2.23700069,18.8996503 C2.25017157,18.9177559 2.26477927,18.9353075 2.27821835,18.9534201 C2.35071565,19.0502005 2.42555018,19.1458519 2.50126117,19.2403744 C2.52903975,19.2748979 2.55709372,19.3094238 2.58515726,19.3439473 C2.65268555,19.4260161 2.72138005,19.5075192 2.79124557,19.5890107 C2.81725686,19.6195747 2.84356987,19.650134 2.8698781,19.6801323 C2.96371462,19.7871038 3.05930166,19.8935073 3.15693138,19.9976413 C3.15872741,19.9992641 3.16103351,20.0016055 3.16276728,20.0032979 C3.16686941,20.0078185 3.17037047,20.0106468 3.17387153,20.0151674 C3.26916881,20.115912 3.36680332,20.2143918 3.46561843,20.3128784 C3.49630897,20.3434424 3.527591,20.3740063 3.55916039,20.4040046 C3.63574784,20.4787129 3.71350391,20.5522922 3.79214123,20.6253012 C3.82400278,20.6547315 3.85557457,20.6847298 3.88743852,20.7130288 C3.99237928,20.8086803 4.09849344,20.9026324 4.20665268,20.9943266 C4.20844871,20.9959494 4.2098544,20.9972244 4.2116217,20.9982908 C4.23003219,21.0141477 4.24903896,21.0288548 4.26716448,21.0441345 C4.36246177,21.1239383 4.45951197,21.2031764 4.5571393,21.2812926 C4.5968938,21.3124222 4.63723739,21.3429861 4.67728404,21.3741134 C4.75708759,21.4358046 4.83776759,21.4969326 4.91902951,21.5569268 C4.96200249,21.5886221 5.00497307,21.620315 5.04823821,21.6520126 C5.13797977,21.7159665 5.22830804,21.7787914 5.31951038,21.8404849 C5.3528327,21.8636954 5.38499119,21.8863285 5.41831351,21.9084007 C5.42765286,21.9146368 5.43615406,21.9208498 5.44549341,21.9270859 C5.53202368,21.9848152 5.62059424,22.0402796 5.70888701,22.0957486 C5.74688858,22.1200904 5.784598,22.1455518 5.82289412,22.1693233 C5.95853021,22.2525234 6.09622574,22.3345921 6.2353581,22.4138303 C6.27306512,22.4347874 6.31136124,22.4551463 6.34936042,22.4760895 C6.45167419,22.5332532 6.55457227,22.5892855 6.65892393,22.6441866 C6.71534318,22.6736169 6.77322319,22.7013503 6.83022675,22.7296493 C6.90389027,22.7670034 6.97697187,22.8049232 7.0518064,22.8411461 C7.06874894,22.8490977 7.08630213,22.857003 7.10296209,22.8649082 C7.13307311,22.8790496 7.16347389,22.8926416 7.19358251,22.9073579 C7.30963231,22.9611276 7.42656336,23.0137638 7.5446702,23.0647029 C7.5698146,23.0754596 7.59407297,23.0862164 7.61892042,23.0969638 C7.75426436,23.1541252 7.89076733,23.2090263 8.02846286,23.2616647 C8.06149542,23.2746701 8.09482014,23.2871354 8.12814485,23.2995822 C8.25559584,23.3471274 8.38480932,23.3941046 8.51460233,23.4382489 C8.53097732,23.4439055 8.54676082,23.4490057 8.56312863,23.454639 C8.70549145,23.5027499 8.84931982,23.5474599 8.99400789,23.5910409 C9.02850122,23.6006617 9.0632867,23.6114184 9.09807219,23.6210392 C9.24540401,23.6640545 9.39099249,23.715557 9.54298442,23.7427247 C19.19604,25.4469015 22,18.1269693 22,18.1269693 C19.6450472,21.0971253 15.4648502,21.8804657 11.5042478,21.0083359 C11.3542865,20.9755093 11.2087172,20.9302313 11.0622571,20.8883473 C11.0251296,20.8775906 10.9885912,20.866857 10.9520504,20.8560864 C10.8091056,20.813639 10.6673199,20.7689267 10.5264394,20.7219495 C10.5071333,20.7151802 10.487559,20.7083645 10.4679727,20.701572 C10.3416904,20.6585567 10.216864,20.6132787 10.0926267,20.5668694 C10.0575466,20.5532844 10.0224666,20.5402674 9.98739136,20.5266847 C9.85116857,20.4746142 9.71583182,20.4202788 9.58223124,20.3636831 C9.554752,20.3523468 9.52844377,20.3404704 9.50125668,20.3291549 C9.38637311,20.2787838 9.27266055,20.2278469 9.15953229,20.1752085 C9.12679428,20.1599312 9.09405148,20.1452125 9.06072676,20.1293649 C8.97188321,20.0874044 8.88399754,20.0426619 8.79635134,19.9990786 C8.73768107,19.9691731 8.67805292,19.9408903 8.61986159,19.9095938 C8.51281828,19.8541873 8.40769073,19.7964626 8.30304212,19.7375788 C8.26760049,19.7183372 8.23167992,19.6997911 8.19599881,19.6798541 C8.05686646,19.6005696 7.91941039,19.5185031 7.78339115,19.4352776 C7.74579429,19.4120949 7.7091553,19.3872896 7.67203737,19.3634115 C7.57337553,19.3017457 7.47519263,19.2389209 7.37844655,19.1744732 C7.3463575,19.153377 7.31546581,19.1308899 7.2838557,19.1100255 C7.19046221,19.0460415 7.0980266,18.9813621 7.0063094,18.9157553 C6.96464154,18.8858497 6.92369208,18.8557123 6.88322157,18.8258067 C6.79916743,18.7634455 6.71559222,18.7006206 6.63273543,18.636173 C6.59531817,18.6073106 6.5579009,18.5784437 6.52106795,18.5495767 C6.41583264,18.4658133 6.31176595,18.3814796 6.20915763,18.2948925 C6.19835272,18.2858513 6.1866474,18.2767869 6.17495646,18.2671592 C6.06387567,18.1726413 5.95483757,18.0758563 5.84697767,17.9785125 C5.81569803,17.9496501 5.78529486,17.9213465 5.75460193,17.8924818 C5.67479838,17.8189049 5.59616585,17.7447622 5.5189893,17.6689203 C5.48800421,17.638922 5.45701673,17.6094917 5.42661595,17.5794934 C5.32839713,17.4821473 5.23192884,17.3836629 5.13750323,17.2834978 C5.13283355,17.2783977 5.12786454,17.2738771 5.12319487,17.2687769 C5.02321833,17.1629367 4.92558381,17.0548362 4.82998719,16.9456113 C4.80397591,16.9156153 4.77883151,16.8867507 4.75310519,16.8573203 C4.68177891,16.7741203 4.61103693,16.6897889 4.54204787,16.6048849 C4.51618506,16.5742839 4.49032225,16.5429873 4.4646989,16.511459 C4.38160264,16.4071372 4.30042214,16.3030473 4.22091794,16.1973346 C2.02202803,13.2937127 1.23208672,9.28891687 2.98956067,6" fill="#0868AC"></path>
                    <path d="M8.08402924,4.70467841 C6.64060506,6.83143806 6.71893281,9.67838767 7.84491766,11.9276635 C8.03375197,12.3047739 8.24596727,12.670508 8.48332121,13.0188834 C8.6996289,13.336121 8.93932716,13.7138444 9.22636929,13.968831 C9.33043434,14.0861542 9.43917367,14.2004814 9.55024056,14.3130138 C9.57828625,14.3423446 9.60694737,14.370479 9.6355965,14.3992115 C9.7434594,14.5063574 9.85307516,14.6117085 9.96648398,14.7140709 C9.97115347,14.7176505 9.97525544,14.7224315 9.97992494,14.7260602 C9.98112224,14.7272861 9.98231955,14.7277765 9.98312653,14.7291249 C10.1085276,14.8416598 10.238009,14.9500046 10.369569,15.0565375 C10.398812,15.0792656 10.4277389,15.1032295 10.4572621,15.126573 C10.5890951,15.2301294 10.7235669,15.3318862 10.8615205,15.4288547 C10.8656225,15.4319194 10.8691234,15.4348371 10.8732253,15.4378283 C10.9340269,15.4809259 10.9959971,15.5210323 11.0576727,15.5623328 C11.0871863,15.5820943 11.1152607,15.6030375 11.1450761,15.6215927 C11.2435856,15.6862391 11.3432589,15.7490909 11.4446899,15.8095472 C11.4590264,15.8185208 11.4730373,15.8263175 11.4870745,15.8346781 C11.5744779,15.8861535 11.663045,15.9370331 11.7519186,15.986118 C11.7829025,16.0040652 11.8144707,16.019639 11.8460412,16.0363994 C11.9074271,16.0693197 11.968813,16.102843 12.031365,16.1345668 C12.040704,16.1393478 12.0503711,16.1435404 12.0594107,16.1477575 C12.186567,16.2118032 12.3148919,16.2734609 12.4458532,16.3321201 C12.4738989,16.3446978 12.5028546,16.3560496 12.5312068,16.368034 C12.6358537,16.413527 12.7416716,16.4578236 12.8480618,16.4997247 C12.8930781,16.5170834 12.9386763,16.5338439 12.9836926,16.5506019 C13.0801572,16.587114 13.1769115,16.6206374 13.2745422,16.6541559 C13.3186797,16.6685234 13.3619455,16.6834867 13.406083,16.697256 C13.5449274,16.7415501 13.6820142,16.7972181 13.8267206,16.8217605 C21.2794713,18.0859545 23,12.2109168 23,12.2109168 C21.4490098,14.4980973 18.4454481,15.5892437 15.24026,14.7374905 C15.0979027,14.6991812 14.9576,14.65728 14.8181617,14.6123828 C14.775485,14.5992166 14.7336822,14.5848614 14.6912976,14.5704865 C14.5922062,14.5375614 14.4936966,14.502844 14.3960659,14.4663294 C14.3513441,14.4495591 14.3066223,14.4328109 14.2627722,14.4154522 C14.1557857,14.3735511 14.0499678,14.3298552 13.9450312,14.2843622 C13.9163868,14.2717845 13.8874431,14.2604327 13.8593807,14.2472494 C13.7278422,14.1885877 13.598344,14.1269349 13.4706154,14.062286 C13.404845,14.0293658 13.3402432,13.9946484 13.2756437,13.9605292 C13.2382279,13.9407923 13.20052,13.9210235 13.1631018,13.9012694 C13.0800853,13.8551781 12.9976556,13.8072921 12.9163849,13.7588079 C12.8971083,13.7474315 12.8769241,13.7366436 12.8573385,13.7246862 C12.7564895,13.6642299 12.6571035,13.6019789 12.5585868,13.5379306 C12.5281872,13.5181692 12.4989561,13.4966277 12.4685541,13.4762754 C12.4036602,13.4331778 12.3387686,13.3894819 12.2750455,13.3451853 C12.1376571,13.2482144 12.0040713,13.1464552 11.8722479,13.0434921 C11.8418483,13.0189423 11.8114487,12.9950078 11.7816334,12.9704654 C10.3786302,11.8362655 9.26657243,10.2864865 8.73784212,8.5290406 C8.18372891,6.70637695 8.30322005,4.66035488 9.26321998,3" fill="#0868AC"></path>
                    <path d="M13.7371226,2.82270679 C12.8713521,3.99607899 12.7862978,5.45328632 13.3870624,6.74927978 C14.0205476,8.12479196 15.3187527,9.20394884 16.8338207,9.71552521 C16.8962775,9.73690821 16.9587343,9.75606091 17.0220829,9.77578128 C17.0497359,9.78345492 17.0771014,9.79222801 17.1050614,9.79987249 C17.1942843,9.82561959 17.2829128,9.85574874 17.3751106,9.87163453 C21.5620437,10.6166288 22.6976442,7.89300075 23,7.4921313 C22.005174,8.81121301 20.3333731,9.12782942 18.2821779,8.66934032 C18.1201581,8.63299147 17.9420582,8.57914133 17.7858857,8.52820807 C17.5856146,8.46246602 17.3882671,8.38752457 17.1965234,8.30271059 C16.8322833,8.14160891 16.485098,7.94595339 16.1632512,7.72202654 C14.3276763,6.43949561 13.1874466,3.9926797 14.3851751,2" fill="#0868AC"></path>
                    <path d="M59.8539678,28.5940459 C59.8539678,28.5940459 58.6167778,31 58.6167778,31 L57.2509136,31 C57.2509136,31 57.3628042,28.8139128 57.3628042,28.8139128 C57.3628042,28.8139128 56.3573125,31 56.3573125,31 L55.034756,31 C55.034756,31 55,28.5940459 55,28.5940459 C55,28.5940459 55.1460347,28 55.1460347,28 L56.0826187,28 C56.0826187,28 55.9021352,30.3763115 55.9021352,30.3763115 C55.9021352,30.3763115 56.9417685,28 56.9417685,28 L58.2475664,28 C58.2475664,28 58.1530563,30.4059541 58.1530563,30.4059541 C58.1530563,30.4059541 59.1841479,28 59.1841479,28 L60,28 C60,28 59.8539653,28.5940459 59.8539653,28.5940459 L59.8539678,28.5940459 Z" fill="#0868AC"></path>
                    <path d="M62.0254893,29.3221585 C62.1404393,28.8570523 62.1075566,28.7699109 61.8369067,28.7699109 L61.4268563,28.7699109 C61.4268563,28.7699109 61.1643525,29.8599388 61.1643525,29.8599388 C61.1643525,29.8599388 60.7624554,31 60.7624554,31 L60,31 C60,31 60.6230621,28.4140589 60.6230621,28.4140589 C60.6230621,28.4140589 60.7135688,28.0360942 60.7135688,28.0360942 L61.4105591,28.0360942 C61.4105591,28.0360942 61.5007726,28.2103728 61.5007726,28.2103728 C61.5007726,28.2103728 61.9026697,28 62.2958413,28 C63.132511,28 63.0670222,28.5589426 62.8863139,29.322074 L62.0254941,29.322074 L62.0254893,29.3221585 Z" fill="#0868AC"></path>
                    <path d="M64.2792984,26.0616183 C63.9299495,26.0616183 63.7080446,25.9589212 63.7931313,25.5311078 C63.8869747,25.1026971 64.1600382,25 64.5009056,25 C64.8426907,25 65.0727546,25.1026946 64.9789137,25.5311078 C64.8935443,25.9504087 64.6207859,26.0616183 64.2793232,26.0616183 L64.2792984,26.0616183 Z M63.9042325,30 L63.1189601,30 C63.1189601,30 63.2727436,28.6303153 63.2727436,28.6303153 C63.2727436,28.6303153 63.5458096,27.3633277 63.5458096,27.3633277 C63.5458096,27.3633277 63,27.2430083 63,27.2430083 C63,27.2430083 63.1534834,26.4986161 63.1534834,26.4986161 L64.6459349,26.4986161 C64.6459349,26.4986161 63.9042598,29.9999253 63.9042598,29.9999253 L63.9042325,30 Z" fill="#0868AC"></path>
                    <path d="M66.8755053,26.8398747 C66.8755053,26.8398747 66.1214873,26.9752509 66.1214873,26.9752509 C66.1214873,26.9752509 65.9048198,28.4780547 65.9048198,28.4780547 C65.8457105,28.8923886 65.8457105,29.0079372 66.095184,29.0079372 L66.5999535,29.0079372 C66.5999535,29.0079372 66.4949961,29.7976219 66.4949961,29.7976219 C66.4949961,29.7976219 66.0363054,30 65.839198,30 C65.0654101,30 65.0719111,29.3737244 65.2099187,28.4390858 C65.2099187,28.4390858 65.4198373,26.9656872 65.4198373,26.9656872 C65.4198373,26.9656872 65,26.8309944 65,26.8309944 C65,26.8309944 65.1245061,25.9927489 65.1245061,25.9927489 L65.5641133,25.9927489 C65.5641133,25.9927489 65.8133619,25 65.8133619,25 L66.4100601,25 C66.4100601,25 66.2655421,25.9927489 66.2655421,25.9927489 L67,25.9927489 C67,25.9927489 66.8754939,26.8398719 66.8754939,26.8398719 L66.8755053,26.8398747 Z" fill="#0868AC"></path>
                    <path d="M69.6734471,28.6997992 C69.2705701,28.6997992 69.061331,28.9001039 68.9794841,29.2570987 C68.9794841,29.2570987 70.1287695,29.1643013 70.1287695,29.1643013 C70.1809502,28.9214084 70.1287695,28.6998054 69.6734471,28.6998054 L69.6734471,28.6997992 Z M68.8676931,29.7854854 C68.8149808,30.1429913 68.9569566,30.2641885 69.4345244,30.2641885 L70.6359948,30.2641885 C70.6359948,30.2641885 70.5167982,30.8073016 70.5167982,30.8073016 C70.5167982,30.8073016 69.7928911,31 69.2554614,31 C67.9194383,31 67.9043361,30.2789025 68.076232,29.5071036 C68.2478675,28.7494911 68.5537954,28 69.8447941,28 C71.0915711,28 71.1514157,28.7210975 70.8452275,29.7854937 L68.8676649,29.7854937 L68.8676931,29.7854854 Z" fill="#0868AC"></path>
                    <path d="M72.4316879,30 L72,30 C72,30 72.0844704,28.5866981 72.0844704,28.5866981 C72.0844704,28.5866981 72.3897011,25.9010419 72.3897011,25.9010419 C72.3897011,25.9010419 72.0889609,25.7687392 72.0889609,25.7687392 C72.0889609,25.7687392 72.1782671,25 72.1782671,25 L73,25 C73,25 72.4316865,29.9999384 72.4316865,29.9999384 L72.4316879,30 Z" fill="#0868AC"></path>
                    <path d="M75.6736823,28.6997992 C75.2702748,28.6997992 75.0615513,28.9001039 74.9791599,29.2570987 C74.9791599,29.2570987 76.1287336,29.1643013 76.1287336,29.1643013 C76.1806486,28.9214084 76.1287336,28.6998054 75.6736606,28.6998054 L75.6736823,28.6997992 Z M74.867388,29.7854854 C74.8152039,30.1429913 74.957181,30.2641885 75.4344934,30.2641885 L76.6362533,30.2641885 C76.6362533,30.2641885 76.5167912,30.8073016 76.5167912,30.8073016 C76.5167912,30.8073016 75.7926062,31 75.2551635,31 C73.919108,31 73.9045262,30.2789025 74.0761659,29.5071036 C74.2480703,28.7494911 74.5540013,28 75.8450529,28 C77.091578,28 77.1511854,28.7210975 76.8455105,29.7854937 L74.8673793,29.7854937 L74.867388,29.7854854 Z" fill="#0868AC"></path>
                    <path d="M80.8654242,28.7215846 C80.8654242,28.7215846 79.9901173,28.7287089 79.7509009,28.7287089 C79.2419545,28.7287089 79.1896484,28.878302 79.1524795,29.0354931 C79.1524795,29.0354931 79.1222159,29.1784935 79.1222159,29.1784935 C79.1222159,29.1784935 80.7382474,29.2931004 80.7382474,29.2931004 C80.7382474,29.2931004 80.7456638,29.7859905 80.6782487,30.0644018 C80.5810811,30.5288984 80.0798272,31 79.1747895,31 C78.7255874,31 78,30.836208 78,30.836208 C78,30.836208 78.1271681,30.2718041 78.1271681,30.2718041 L79.2419524,30.2718041 C79.7357615,30.2718041 79.8032049,30.1429984 79.8334577,30.0147036 C79.8334577,30.0147036 79.8706222,29.8291065 79.8706222,29.8291065 C79.8706222,29.8291065 78.2845824,29.7145017 78.2845824,29.7145017 C78.2845824,29.7145017 78.2248468,29.3357054 78.3068751,28.9574075 C78.4268769,28.442708 78.920151,28 79.8254715,28 C80.2744126,28 81,28.1566925 81,28.1566925 C81,28.1566925 80.8653959,28.7215949 80.8653959,28.7215949 L80.8654242,28.7215846 Z" fill="#0868AC"></path>
                    <path d="M82.8654345,28.7215846 C82.8654345,28.7215846 81.9903137,28.7287089 81.7508158,28.7287089 C81.2420869,28.7287089 81.189798,28.878302 81.1523432,29.0354931 C81.1523432,29.0354931 81.1220726,29.1784935 81.1220726,29.1784935 C81.1220726,29.1784935 82.7385034,29.2931004 82.7385034,29.2931004 C82.7385034,29.2931004 82.7459205,29.7859905 82.6784996,30.0644018 C82.5813214,30.5288984 82.0800269,31 81.174629,31 C80.7259105,31 80,30.836208 80,30.836208 C80,30.836208 80.127179,30.2718041 80.127179,30.2718041 L81.2420586,30.2718041 C81.735649,30.2718041 81.8030764,30.1429984 81.8333535,30.0147036 C81.8333535,30.0147036 81.8705256,29.8291065 81.8705256,29.8291065 C81.8705256,29.8291065 80.2843501,29.7145017 80.2843501,29.7145017 C80.2843501,29.7145017 80.2246116,29.3357054 80.3066446,28.9574075 C80.4266546,28.442708 80.9199731,28 81.825632,28 C82.2743505,28 83,28.1566925 83,28.1566925 C83,28.1566925 82.8653844,28.7215949 82.8653844,28.7215949 L82.8654345,28.7215846 Z" fill="#0868AC"></path>
                    <path d="M85.8081441,30.9999838 L85.2496359,30.9999838 C85.2496359,30.9999838 85.2704515,30.6663921 85.2704515,30.6663921 C85.0676689,30.6557483 84.9630506,30.5390251 85.0118912,30.3442356 C85.0887404,30.0666247 85.3054014,30 85.5917227,30 C85.8710986,30 86.0592514,30.0666392 85.982914,30.3442356 C85.982914,30.3442356 85.8081441,31 85.8081441,31 L85.8081441,30.9999838 Z" fill="#0868AC"></path>
                    <path d="M88.4005384,27.2594543 C88.0106494,27.2594543 87.8743111,27.5745977 87.7831795,28.1526661 C87.6920517,28.7307344 87.7181212,29.0719743 88.1080177,29.0719743 L88.6476256,29.0719743 C88.6476256,29.0719743 88.9468366,27.2594543 88.9468366,27.2594543 L88.4005384,27.2594543 Z M89.2912732,29.4921655 C89.2912732,29.4921655 89.2195246,29.9564787 89.2195246,29.9564787 C89.2195246,29.9564787 88.6739068,29.9477969 88.6739068,29.9477969 C88.6739068,29.9477969 88.5957003,29.7202969 88.5957003,29.7202969 C88.5957003,29.7202969 88.1144529,30 87.7898604,30 C86.957486,30 86.9184971,29.0806918 87.0679893,28.1526508 C87.2174851,27.2066096 87.5425464,26.3133978 88.3682304,26.3133978 C88.6674414,26.3133978 89.0702574,26.5147912 89.0702574,26.5147912 C89.0702574,26.5147912 89.4017859,25 89.4017859,25 L90,25 C90,25 89.2912827,29.4921553 89.2912827,29.4921553 L89.2912732,29.4921655 Z" fill="#0868AC"></path>
                    <path d="M93.6637431,28.7230842 C93.1050951,28.7230842 92.9255795,29.0376641 92.8253857,29.4960865 C92.7323222,29.9616073 92.7755492,30.2767077 93.3268129,30.2767077 C93.9002087,30.2767077 94.0723504,29.9687266 94.1722733,29.4960865 C94.2729649,29.0519026 94.2439796,28.7230842 93.6637222,28.7230842 L93.6637431,28.7230842 Z M93.1768138,31 C91.9944232,31 91.9011034,30.2625732 92.058768,29.4961906 C92.223794,28.7303075 92.6392878,28 93.8216576,28 C94.9964036,28 95.1042212,28.7303075 94.9389536,29.4961906 C94.7744379,30.2768117 94.3587046,31 93.1768138,31 L93.1768138,31 Z" fill="#0868AC"></path>
                    <path d="M100.738069,30.9999431 C100.738069,30.9999431 100.891221,29.8550696 100.891221,29.8550696 C100.891221,29.8550696 100.967494,29.5290042 100.967494,29.5290042 C101.078137,29.0944048 101.14597,28.775523 100.610545,28.775523 L100.194496,28.775523 C100.211686,29.0002802 100.160429,29.2538351 100.092598,29.5217995 C100.092598,29.5217995 99.7274999,30.9999431 99.7274999,30.9999431 L98.9373136,30.9999431 C98.9373136,30.9999431 99.0901644,29.8550696 99.0901644,29.8550696 C99.0901644,29.8550696 99.1664367,29.5290042 99.1664367,29.5290042 C99.2770776,29.0944048 99.3446096,28.775523 98.8100811,28.775523 L98.4700009,28.775523 C98.4700009,28.775523 97.9092514,30.9999221 97.9092514,30.9999221 L97,30.9999221 C97,30.9999221 97.739236,28.0365144 97.739236,28.0365144 L98.4528364,28.0365144 C98.4528364,28.0365144 98.5631785,28.2175525 98.5631785,28.2175525 C98.5631785,28.2175525 99.0476631,28 99.4383725,28 C99.7356277,28 99.9566181,28.1162359 100.033179,28.2607597 C100.202913,28.1810403 100.687383,28 101.03591,28 C102.122437,28 102.088973,28.7534812 101.893322,29.5218564 C101.893322,29.5218564 101.528223,31 101.528223,31 L100.738037,31 L100.738069,30.9999431 Z" fill="#0868AC"></path>
                    <path d="M103.663828,28.7230842 C103.104677,28.7230842 102.92566,29.0376641 102.825466,29.4960865 C102.732402,29.9616073 102.775629,30.2767077 103.326896,30.2767077 C103.900045,30.2767077 104.072438,29.9687266 104.172632,29.4960865 C104.272818,29.0519026 104.244083,28.7230842 103.663828,28.7230842 L103.663828,28.7230842 Z M103.176625,31 C101.993978,31 101.901178,30.2625732 102.058823,29.4961906 C102.223594,28.7303075 102.639075,28 103.821473,28 C104.996747,28 105.104044,28.7303075 104.939025,29.4961906 C104.774507,30.2768117 104.358773,31 103.176625,31 L103.176625,31 Z" fill="#0868AC"></path>
                    <path d="M107.025554,29.3221585 C107.140219,28.8570523 107.107624,28.7699109 106.837258,28.7699109 L106.426907,28.7699109 C106.426907,28.7699109 106.164394,29.8599388 106.164394,29.8599388 C106.164394,29.8599388 105.762482,31 105.762482,31 L105,31 C105,31 105.623084,28.4140589 105.623084,28.4140589 C105.623084,28.4140589 105.713592,28.0360942 105.713592,28.0360942 L106.410607,28.0360942 C106.410607,28.0360942 106.500535,28.2103728 106.500535,28.2103728 C106.500535,28.2103728 106.902446,28 107.29649,28 C108.132617,28 108.06684,28.5589426 107.886411,29.322074 L107.025561,29.322074 L107.025554,29.3221585 Z" fill="#0868AC"></path>
                    <path d="M110.67339,28.6997992 C110.270748,28.6997992 110.061496,28.9001039 109.979644,29.2570987 C109.979644,29.2570987 111.12848,29.1643013 111.12848,29.1643013 C111.181193,28.9214084 111.12848,28.6998054 110.67339,28.6998054 L110.67339,28.6997992 Z M109.867326,29.7854854 C109.815409,30.1429913 109.956859,30.2641885 110.434452,30.2641885 L111.636257,30.2641885 C111.636257,30.2641885 111.517055,30.8073016 111.517055,30.8073016 C111.517055,30.8073016 110.792843,31 110.255641,31 C108.919535,31 108.904693,30.2789025 109.075818,29.5071036 C109.247731,28.7494911 109.553953,28 110.845032,28 C112.091343,28 112.151473,28.7210975 111.845266,29.7854937 L109.867321,29.7854937 L109.867326,29.7854854 Z" fill="#0868AC"></path>
                    <path d="M112.414236,31 C112.121654,31 111.941019,30.902484 112.017621,30.5043252 C112.086812,30.0969511 112.302794,30 112.595619,30 C112.866946,30 113.054767,30.0969393 112.985574,30.5043252 C112.908474,30.8943985 112.686068,31 112.414236,31 L112.414236,31 Z" fill="#0868AC"></path>
                </g>
            </g>
        </g>
    </g>
</svg>