<?xml version="1.0" encoding="UTF-8"?>
<svg width="160px" height="70px" viewBox="0 0 160 70" version="1.1" xmlns="http://www.w3.org/2000/svg" xmlns:xlink="http://www.w3.org/1999/xlink">
    <!-- Generator: Hyder A. - https://toggle.me -->
    <title>laravel</title>
    <desc>Created with Sketch.</desc>
    <defs></defs>
    <g id="technologies" stroke="none" stroke-width="1" fill="none" fill-rule="evenodd">
        <g id="Web-frameworks" transform="translate(-224.000000, -42.000000)">
            <g id="laravel" transform="translate(224.000000, 42.000000)">
                <rect id="Rectangle-Copy-2" fill="#FFFFFF" x="0" y="0" width="160" height="70"></rect>
                <path d="M63.9826471,34.146631 C63.731381,33.8646245 60.2401969,29.5111486 59.6261874,28.7708814 C59.0121778,28.0306143 58.7104815,28.1689737 58.3318128,28.2244938 C57.9531441,28.2800138 53.536522,29.0176371 53.0233728,29.1057642 C52.5102236,29.1938912 52.1872935,29.3965834 52.5031457,29.8354561 C52.7836083,30.2320278 55.6882097,34.3299353 56.3252225,35.2376438 L44.7855587,37.9872075 L35.6054965,22.6962844 C35.2400989,22.1560656 35.1631266,21.9674737 34.331471,22.0044871 C33.4998154,22.0415005 27.1332264,22.5685002 26.67847,22.6081573 C26.2237137,22.6478145 25.7264898,22.8461004 26.1777072,23.9124376 C26.6289246,24.9787748 33.8660977,40.5067597 34.0695879,40.9579701 C34.2730781,41.4091806 34.7950747,42.1423976 36.0222091,41.8480533 C37.2785399,41.5484213 41.640308,40.4142263 44.0229129,39.7929306 C45.2818979,42.0639645 47.8494133,46.6668399 48.3245187,47.3313178 C48.9588773,48.2125883 49.3950541,48.0671787 50.3682681,47.7719531 C51.1291445,47.5428228 62.2591736,43.5550741 62.7608212,43.3497381 C63.2624688,43.1444021 63.5659346,42.9972299 63.2297334,42.4975496 C62.9820062,42.127416 60.0446694,38.2057626 58.5052218,36.1612152 C59.5580624,35.8792087 63.3005126,34.8833731 63.6986456,34.7776206 C64.1587104,34.6542428 64.2206422,34.4162998 63.972915,34.1431059 L63.9826471,34.146631 Z M42.9992687,38.4207926 C42.8612492,38.4489932 36.3964541,39.9894539 36.0514055,40.0687683 C35.7063569,40.1480826 35.7063569,40.1084254 35.6674283,39.9894539 C35.6284998,39.8704824 27.9808073,24.168006 27.8746385,23.9714827 C27.7684697,23.7749594 27.7737781,23.6189745 27.8746385,23.6189745 C27.9754988,23.6189745 33.9793444,23.0840434 34.191682,23.0725869 C34.4040196,23.0611303 34.3827859,23.1078377 34.457104,23.2400282 C34.457104,23.2400282 42.9276047,37.803022 43.0744716,38.0577092 C43.2213384,38.3123963 43.1364034,38.3925919 42.9992687,38.4278427 L42.9992687,38.4207926 Z M61.2249126,41.8224964 C61.3284271,41.9846502 61.431057,42.0868775 61.1072421,42.2049678 C60.7834273,42.323058 50.1656626,45.891322 49.9595182,45.979449 C49.7533738,46.0675761 49.5905816,46.096658 49.3251596,45.7150679 C49.0597376,45.3334778 45.6092517,39.3787335 45.6092517,39.3787335 L56.8631444,36.4617284 C57.1444917,36.3736014 57.2329657,36.3145563 57.4099137,36.593919 C57.5868617,36.8732817 61.1258217,41.6612239 61.2319905,41.8224964 L61.2249126,41.8224964 Z M61.9468604,33.8646245 C61.6902858,33.9175007 57.55855,34.9397744 57.55855,34.9397744 L54.1788432,30.3219174 C54.0815218,30.187083 54.0018952,30.0575362 54.240775,30.0222854 C54.4796548,29.9870346 58.3194264,29.2996437 58.487527,29.2599865 C58.6556276,29.2203293 58.8060334,29.1718595 59.018371,29.4644412 C59.2307086,29.757023 62.1503506,33.4389709 62.2653668,33.5799741 C62.380383,33.7209774 62.1857402,33.8091044 61.938013,33.8637432 L61.9468604,33.8646245 Z M72.3160131,40.3419621 L72.3160131,28.3276024 C72.313515,28.2567506 72.340676,28.1880487 72.391004,28.1379181 C72.441332,28.0877874 72.5103044,28.0607329 72.5814351,28.0632213 L73.5900387,28.0632213 C73.6611695,28.0607329 73.7301418,28.0877874 73.7804698,28.1379181 C73.8307979,28.1880487 73.8579589,28.2567506 73.8554607,28.3276024 L73.8554607,39.5814257 L78.5888197,39.5814257 C78.6599504,39.5789374 78.7289228,39.6059918 78.7792508,39.6561225 C78.8295788,39.7062532 78.8567398,39.7749551 78.8542417,39.8458069 L78.8542417,40.7579217 C78.8567398,40.8287735 78.8295788,40.8974754 78.7792508,40.9476061 C78.7289228,40.9977368 78.6599504,41.0247912 78.5888197,41.0223029 L72.9884155,41.0223029 C72.8083911,41.0227985 72.6357259,40.9511784 72.5092637,40.8235546 C72.3828014,40.6959308 72.3131624,40.5230213 72.3160131,40.3437246 L72.3160131,40.3419621 Z M80.5264003,38.3123963 C80.5264003,36.6732333 81.7031045,35.5540199 83.684922,35.2755384 C84.5785094,35.1451104 85.3128436,35.0516957 86.117957,34.9406557 C86.8434438,34.8278531 87.1442554,34.4735823 87.1442554,33.7474155 L87.1442554,33.5975995 C87.1442554,32.3876153 86.0560252,31.6059284 84.6935256,31.6059284 C83.5699058,31.6059284 82.7470977,32.0906271 82.2958803,32.839707 C82.2211824,32.9818413 82.0763338,33.0737781 81.9154421,33.0811751 C81.8252257,33.0759714 81.7387733,33.0433714 81.6677149,32.9877604 L81.1634131,32.6528776 C81.0589163,32.5806486 80.996214,32.4623102 80.9953125,32.3356203 C80.998271,32.2706512 81.0164504,32.2072728 81.0483969,32.1505535 C81.7411483,30.9943267 83.0302144,30.229384 84.7156441,30.229384 C86.9982733,30.229384 88.5518768,31.5715588 88.5518768,33.6028872 L88.5518768,40.7570405 C88.5543749,40.8278923 88.5272139,40.8965941 88.4768859,40.9467248 C88.4265578,40.9968555 88.3575855,41.02391 88.2864548,41.0214216 L87.5016904,41.0214216 C87.4305596,41.02391 87.3615873,40.9968555 87.3112593,40.9467248 C87.2609312,40.8965941 87.2337702,40.8278923 87.2362684,40.7570405 L87.2362684,39.4668606 C86.4665446,40.5843115 85.2137528,41.2558395 83.776935,41.2558395 C81.874744,41.2558395 80.5078207,40.0819873 80.5078207,38.3123963 L80.5264003,38.3123963 Z M87.2061872,36.8054239 L87.2061872,36.0387186 C86.0648726,36.1691466 85.3305384,36.281068 83.7999382,36.5057919 C82.5613023,36.6908587 81.9242895,37.2874788 81.9242895,38.255995 C81.9242895,39.2809125 82.7470977,39.9515593 83.9414966,39.9515593 C85.8879246,39.9515593 87.1973398,38.1625803 87.1973398,36.8054239 L87.2061872,36.8054239 Z M90.9044004,40.7535154 L90.9044004,39.8960393 C90.9019022,39.8251875 90.9290632,39.7564856 90.9793913,39.7063549 C91.0297193,39.6562243 91.0986917,39.6291698 91.1698224,39.6316581 L92.7181174,39.6316581 L92.7181174,31.7883514 L91.160975,31.7883514 C91.0898443,31.7908397 91.0208719,31.7637852 90.9705439,31.7136546 C90.9202158,31.6635239 90.8930548,31.594822 90.895553,31.5239702 L90.895553,30.7290643 C90.8930548,30.6582125 90.9202158,30.5895106 90.9705439,30.53938 C91.0208719,30.4892493 91.0898443,30.4621948 91.160975,30.4646832 L93.5064207,30.4646832 C93.6848971,30.4642135 93.8561994,30.534627 93.9824016,30.6603344 C94.1086039,30.7860418 94.1792947,30.9566723 94.1788231,31.1344487 L94.1788231,32.0668328 L95.2643991,31.2296259 C96.1995693,30.5246096 96.6481324,30.3527618 97.2462167,30.3527618 L97.8080266,30.3527618 C97.8801651,30.3465006 97.9513906,30.3723369 98.0025935,30.4233391 C98.0537964,30.4743412 98.0797345,30.5452874 98.0734486,30.617143 L98.0734486,31.5301391 C98.0759467,31.6009909 98.0487857,31.6696928 97.9984577,31.7198235 C97.9481297,31.7699541 97.8791573,31.7970086 97.8080266,31.7945203 L97.3992767,31.7945203 C96.819772,31.7945203 96.4260627,31.9249483 95.2847481,32.8379444 L94.1823621,33.7139272 L94.1823621,39.634302 L96.3517445,39.634302 C96.4228753,39.6318136 96.4918476,39.6588681 96.5421757,39.7089987 C96.5925037,39.7591294 96.6196647,39.8278313 96.6171665,39.8986831 L96.6171665,40.7552779 C96.6196647,40.8261297 96.5925037,40.8948316 96.5421757,40.9449623 C96.4918476,40.995093 96.4228753,41.0221474 96.3517445,41.0196591 L91.1707071,41.0196591 C91.0998543,41.0209476 91.0316214,40.9929895 90.9821873,40.9424139 C90.9327532,40.8918383 90.9065203,40.8231494 90.9097088,40.7526341 L90.9044004,40.7535154 Z M99.4686835,38.3123963 C99.4686835,36.6732333 100.645388,35.5540199 102.627205,35.2755384 C103.520793,35.1451104 104.255127,35.0516957 105.06024,34.9406557 C105.785727,34.8278531 106.086539,34.4735823 106.086539,33.7474155 L106.086539,33.5975995 C106.086539,32.3876153 104.998309,31.6059284 103.635809,31.6059284 C102.512189,31.6059284 101.689381,32.0906271 101.238164,32.839707 C101.164098,32.9807936 101.020868,33.072557 100.861264,33.0811751 C100.772583,33.0750934 100.687797,33.0425407 100.617961,32.9877604 L100.113659,32.6528776 C100.009162,32.5806486 99.94646,32.4623102 99.9455584,32.3356203 C99.9485169,32.2706512 99.9666963,32.2072728 99.9986428,32.1505535 C100.706435,30.9890391 101.998155,30.2249776 103.679161,30.2249776 C105.96179,30.2249776 107.51274,31.5662712 107.51274,33.5975995 L107.51274,40.7535154 C107.515238,40.8243672 107.488077,40.8930691 107.437749,40.9431997 C107.387421,40.9933304 107.318448,41.0203849 107.247318,41.0178965 L106.461668,41.0178965 C106.390538,41.0203849 106.321565,40.9933304 106.271237,40.9431997 C106.220909,40.8930691 106.193748,40.8243672 106.196246,40.7535154 L106.196246,39.4668606 C105.429177,40.5843115 104.176385,41.2558395 102.736913,41.2558395 C100.839146,41.2558395 99.473992,40.0819873 99.473992,38.3123963 L99.4686835,38.3123963 Z M106.14847,36.8054239 L106.14847,36.0387186 C105.007156,36.1691466 104.272822,36.281068 102.742222,36.5057919 C101.503586,36.6908587 100.866573,37.2874788 100.866573,38.255995 C100.866573,39.2809125 101.689381,39.9515593 102.88378,39.9515593 C104.830208,39.9515593 106.139623,38.1625803 106.139623,36.8054239 L106.14847,36.8054239 Z M113.014053,40.7711408 L109.501635,30.877999 C109.422008,30.6541563 109.554719,30.4682083 109.775904,30.4682083 L110.634102,30.4682083 C110.789619,30.4686193 110.929455,30.5626384 110.987998,30.7061513 L113.94303,39.2015982 L116.83613,30.7061513 C116.891851,30.5591756 117.032312,30.4612384 117.190026,30.4593956 L118.012834,30.4593956 C118.237558,30.4593956 118.36673,30.6444623 118.293296,30.86478 L114.780879,40.7614468 C114.722141,40.9048021 114.582426,40.9987397 114.426983,40.9993898 L113.365295,40.9993898 C113.204344,41.0012122 113.059416,40.9026248 113.002551,40.7526341 L113.014053,40.7711408 Z M119.915025,36.9517148 L119.915025,34.2876343 C119.861323,32.8091968 120.622534,31.419586 121.899735,30.6644928 C123.176936,29.9093996 124.766179,29.9093996 126.04338,30.6644928 C127.320581,31.419586 128.081792,32.8091968 128.028091,34.2876343 L128.028091,35.5549012 C128.030988,35.7357407 127.960145,35.9100218 127.831752,36.0379109 C127.703359,36.1658 127.528392,36.2363657 127.346841,36.2334794 L121.375731,36.2334794 L121.375731,37.0530609 C121.373844,37.7407939 121.647286,38.4009007 122.135503,38.8872032 C122.62372,39.3735057 123.286425,39.645875 123.976866,39.6439959 L126.687709,39.6439959 C126.75884,39.6415076 126.827813,39.668562 126.878141,39.7186927 C126.928469,39.7688234 126.95563,39.8375253 126.953131,39.9083771 L126.953131,40.7632094 C126.95563,40.8340612 126.928469,40.902763 126.878141,40.9528937 C126.827813,41.0030244 126.75884,41.0300789 126.687709,41.0275905 L123.975981,41.0275905 C122.89573,41.0280719 121.859844,40.5996324 121.097654,39.8371229 C120.335463,39.0746134 119.909845,38.0409362 119.915025,36.9649338 L119.915025,36.9517148 Z M126.56827,34.8833731 L126.56827,34.1871695 C126.568269,32.7562356 125.403701,31.5962346 123.967134,31.5962346 C122.530567,31.5962346 121.365999,32.7562356 121.365998,34.1871695 L121.365998,34.8745604 L126.56827,34.8833731 Z M131.301629,40.338437 L131.301629,28.2482881 L129.558691,28.2482881 C129.48756,28.2507764 129.418588,28.2237219 129.36826,28.1735913 C129.317932,28.1234606 129.290771,28.0547587 129.293269,27.9839069 L129.293269,27.1290746 C129.290771,27.0582228 129.317932,26.989521 129.36826,26.9393903 C129.418588,26.8892596 129.48756,26.8622051 129.558691,26.8646935 L132.0802,26.8646935 C132.259293,26.8642172 132.431137,26.9351137 132.557442,27.061586 C132.683748,27.1880584 132.75402,27.3595984 132.752602,27.5379841 L132.752602,39.634302 L134.73442,39.634302 C134.80555,39.6318136 134.874523,39.6588681 134.924851,39.7089987 C134.975179,39.7591294 135.00234,39.8278313 134.999842,39.8986831 L134.999842,40.7552779 C135.00234,40.8261297 134.975179,40.8948316 134.924851,40.9449623 C134.874523,40.995093 134.80555,41.0221474 134.73442,41.0196591 L131.965184,41.0196591 C131.78547,41.020147 131.61308,40.948768 131.48667,40.8215285 C131.360261,40.6942891 131.29041,40.5218368 131.292781,40.3428434 L131.301629,40.338437 Z" id="Shape" fill="#FB503B" fill-rule="nonzero"></path>
            </g>
        </g>
    </g>
</svg>