<?xml version="1.0" encoding="UTF-8"?>
<svg width="160px" height="70px" viewBox="0 0 160 70" version="1.1" xmlns="http://www.w3.org/2000/svg" xmlns:xlink="http://www.w3.org/1999/xlink">
    <!-- Generator: Sketch 47.1 (45422) - http://www.bohemiancoding.com/sketch -->
    <title>lightspeed</title>
    <desc>Created with Sketch.</desc>
    <defs></defs>
    <g id="technologies" stroke="none" stroke-width="1" fill="none" fill-rule="evenodd">
        <g id="Ecommerce" transform="translate(-32.000000, -433.000000)">
            <g id="lightspeed" transform="translate(32.000000, 433.000000)">
                <rect id="Rectangle" fill="#FFFFFF" x="0" y="0" width="160" height="70"></rect>
                <path d="M23.5,19 L24.943299,21.4857143 C25.2319588,22 25.2319588,22.6285714 24.943299,23.1428571 L16.3412371,37.9142857 L20.4113402,44.8857143 C21.0463918,45.9714286 22.2298969,46.6571429 23.5,46.6571429 C24.7701031,46.6571429 25.9536082,45.9714286 26.5886598,44.8857143 L30.6587629,37.9142857 L29.5907216,36.0285714 L24.9721649,43.9428571 C24.6835052,44.4571429 24.1061856,44.7714286 23.528866,44.7714286 C22.9226804,44.7714286 22.3742268,44.4571429 22.085567,43.9428571 L18.5350515,37.9142857 L26.5309278,24.2 L27.9742268,26.6857143 C28.2628866,27.2 28.2628866,27.8285714 27.9742268,28.3428571 L22.4030928,37.9142857 L23.5,39.8 L29.5618557,29.4 L33.5453608,36.2285714 C34.1515464,37.2857143 34.1515464,38.5714286 33.5453608,39.6285714 L29.5041237,46.5714286 C28.8979381,47.6285714 26.9639175,50 23.5,50 C20.0360825,50 18.1309278,47.6285714 17.4958763,46.5714286 L13.4546392,39.6285714 C12.8484536,38.5714286 12.8484536,37.2857143 13.4546392,36.2285714 L23.5,19" id="Shape" fill="#ED5153" fill-rule="nonzero"></path>
                <g id="Group" transform="translate(42.000000, 26.000000)" fill-rule="nonzero" fill="#040707">
                    <polygon id="Shape" points="0 0.529411765 2.75656836 0.529411765 2.75656836 17.3823529 0 17.3823529"></polygon>
                    <ellipse id="Oval" cx="6.45093834" cy="1.94117647" rx="1.61983914" ry="1.67647059"></ellipse>
                    <path d="M5.05844504,5.67647059 L7.84343164,5.67647059 L7.84343164,17.3823529 L5.05844504,17.3823529 L5.05844504,5.67647059 Z M15.1469169,5.38235294 C11.9924933,5.38235294 9.43485255,7.67647059 9.43485255,11.3235294 C9.43485255,14.9705882 11.6514745,17.2058824 15.1753351,17.2058824 C16.5678284,17.2058824 18.0455764,17.9411765 18.0455764,19.5588235 C18.0455764,21.1764706 16.7951743,22.0882353 15.1753351,22.0882353 C13.555496,22.0882353 12.2198391,21.0882353 12.2198391,19.5588235 L9.43485255,19.5588235 C9.43485255,22.7058824 11.8788204,24.7941176 15.1753351,24.7941176 C18.4434316,24.7941176 20.830563,22.7941176 20.830563,19.5588235 C20.830563,18.0588235 20.3758713,16.6470588 18.5002681,15.6764706 C20.3474531,14.7941176 20.8873995,12.7647059 20.8873995,11.2941176 C20.8873995,7.67647059 18.3013405,5.38235294 15.1469169,5.38235294 L15.1469169,5.38235294 Z M15.1753351,14.8235294 C13.555496,14.8235294 12.2198391,13.3823529 12.2198391,11.3235294 C12.2198391,9.29411765 13.555496,7.79411765 15.1753351,7.79411765 C16.7951743,7.79411765 18.1024129,9.32352941 18.1024129,11.3235294 C18.1024129,13.3529412 16.766756,14.8235294 15.1753351,14.8235294 L15.1753351,14.8235294 Z M28.9581769,5.38235294 C27.6793566,5.38235294 26.4573727,5.79411765 25.4343164,7.11764706 L25.4343164,0.5 L22.6493298,0.5 L22.6493298,17.3529412 L25.4343164,17.3529412 L25.4343164,11.4117647 C25.4343164,9.67647059 26.5710456,8.23529412 28.2193029,8.23529412 C29.6970509,8.23529412 30.7769437,9.14705882 30.7769437,11.2647059 L30.7769437,17.3529412 L33.5619303,17.3529412 L33.5619303,11.0588235 C33.5903485,7.61764706 32.169437,5.38235294 28.9581769,5.38235294 L28.9581769,5.38235294 Z M40.3538874,15.3823529 C40.0128686,15.3823529 39.7286863,15.2647059 39.5581769,15.0294118 C39.3876676,14.7941176 39.3024129,14.4411765 39.3024129,13.9117647 L39.3024129,8.14705882 L41.5474531,8.14705882 L41.8032172,5.64705882 L39.3308311,5.64705882 L39.3308311,2.44117647 L36.5174263,2.76470588 L36.5174263,5.67647059 L34.386059,5.67647059 L34.386059,8.17647059 L36.5174263,8.17647059 L36.5174263,14 C36.5174263,15.2058824 36.8016086,16.1176471 37.341555,16.7352941 C37.8815013,17.3529412 38.70563,17.6764706 39.7571046,17.6764706 C40.2402145,17.6764706 40.6949062,17.6176471 41.1780161,17.4705882 C41.661126,17.3235294 42.0873995,17.1176471 42.4568365,16.8529412 L41.4906166,15 C41.1211796,15.2647059 40.7233244,15.3823529 40.3538874,15.3823529 Z M51.8064343,11.0882353 C50.6697051,10.3529412 49.3340483,10.2647059 48.0268097,10.1764706 C47.2595174,10.1176471 46.09437,9.94117647 46.09437,8.91176471 C46.09437,8.17647059 46.833244,7.76470588 48.1689008,7.76470588 C49.2487936,7.76470588 50.1865952,8.02941176 50.9823056,8.79411765 L52.5453083,6.91176471 C51.2380697,5.73529412 49.9024129,5.38235294 48.1120643,5.38235294 C46.0375335,5.38235294 43.3093834,6.32352941 43.3093834,9.02941176 C43.3093834,10.1470588 43.877748,11.1764706 44.8155496,11.7647059 C45.8670241,12.4411765 47.2310992,12.5294118 48.3962466,12.6764706 C49.1919571,12.7647059 50.4991957,12.9705882 50.2718499,14.1176471 C50.1297587,14.9117647 49.1919571,15.1470588 48.5383378,15.1764706 C47.827882,15.2058824 47.1174263,15.1470588 46.4069705,14.9705882 C45.6680965,14.7647059 45.0713137,14.4117647 44.4176944,13.9705882 L42.9967828,15.8235294 C43.0820375,15.8823529 43.1672922,15.9705882 43.1672922,15.9705882 C44.986059,17.5294118 47.5152815,18.0294118 49.8171582,17.5 C51.5506702,17.0882353 53.0284182,15.7941176 53.0284182,13.8529412 C53.0852547,12.7647059 52.7442359,11.6764706 51.8064343,11.0882353 Z M60.9855228,5.38235294 C59.7067024,5.38235294 58.2005362,5.94117647 57.319571,7.23529412 L57.2343164,5.64705882 L54.5345845,5.64705882 L54.5345845,22.5 L57.319571,22.1764706 L57.319571,16 C58.1152815,17.2647059 59.8487936,17.6764706 61.0423592,17.6764706 C64.6514745,17.6764706 66.7544236,14.8823529 66.7544236,11.5 C66.7544236,8.05882353 64.4525469,5.38235294 60.9855228,5.38235294 L60.9855228,5.38235294 Z M60.7581769,15.1764706 C58.8541555,15.1764706 57.5753351,13.3823529 57.5753351,11.5588235 C57.5753351,9.73529412 58.7689008,7.79411765 60.7581769,7.79411765 C62.7758713,7.79411765 63.9410188,9.76470588 63.9410188,11.5588235 C63.969437,13.3823529 62.6621984,15.1764706 60.7581769,15.1764706 Z M70.3919571,12.5588235 C70.7045576,13.9411765 71.9265416,15.1470588 73.9158177,15.1470588 C74.938874,15.1470588 76.3029491,14.6176471 76.9565684,13.9411765 L78.7469169,15.7647059 C77.5533512,17.0294118 75.5924933,17.6470588 73.8873995,17.6470588 C70.3635389,17.6470588 67.8058981,15.2352941 67.8058981,11.5 C67.8058981,7.97058824 70.4487936,5.38235294 73.6884718,5.38235294 C77.0986595,5.38235294 79.9404826,7.79411765 79.6563003,12.5588235 L70.3919571,12.5588235 L70.3919571,12.5588235 Z M76.9565684,10.3529412 C76.6439678,8.97058824 75.308311,7.76470588 73.6884718,7.76470588 C72.1823056,7.76470588 70.7898123,8.82352941 70.3919571,10.3529412 L76.9565684,10.3529412 Z M83.2938338,12.5588235 C83.6064343,13.9411765 84.8284182,15.1470588 86.8176944,15.1470588 C87.8407507,15.1470588 89.2048257,14.6176471 89.858445,13.9411765 L91.6487936,15.7647059 C90.4552279,17.0294118 88.49437,17.6470588 86.7892761,17.6470588 C83.2654155,17.6470588 80.7077748,15.2352941 80.7077748,11.5 C80.7077748,7.97058824 83.3506702,5.38235294 86.5903485,5.38235294 C90.0005362,5.38235294 92.8423592,7.79411765 92.5581769,12.5588235 L83.2938338,12.5588235 L83.2938338,12.5588235 Z M89.8868633,10.3529412 C89.5742627,8.97058824 88.2386059,7.76470588 86.6187668,7.76470588 C85.1126005,7.76470588 83.7201072,8.82352941 83.322252,10.3529412 L89.8868633,10.3529412 Z M99.2932976,17.6764706 C100.572118,17.6764706 102.078284,17.1176471 102.959249,15.8235294 L103.044504,17.3823529 L105.744236,17.3823529 L105.744236,0.529411765 L102.959249,0.529411765 L102.959249,7.05882353 C102.163539,5.79411765 100.401609,5.41176471 99.2080429,5.41176471 C95.5989276,5.41176471 93.5243968,8.17647059 93.5243968,11.5882353 C93.5243968,15 95.8262735,17.6764706 99.2932976,17.6764706 Z M99.4922252,7.88235294 C101.396247,7.88235294 102.675067,9.67647059 102.675067,11.5 C102.675067,13.3235294 101.481501,15.2647059 99.4922252,15.2647059 C97.4745308,15.2647059 96.3093834,13.2941176 96.3093834,11.5 C96.3093834,9.67647059 97.5882038,7.88235294 99.4922252,7.88235294 Z" id="Shape"></path>
                </g>
            </g>
        </g>
    </g>
</svg>