<?xml version="1.0" encoding="UTF-8"?>
<svg width="160px" height="70px" viewBox="0 0 160 70" version="1.1" xmlns="http://www.w3.org/2000/svg" xmlns:xlink="http://www.w3.org/1999/xlink">
    <!-- Generator: Sketch 47.1 (45422) - http://www.bohemiancoding.com/sketch -->
    <title>lighttpd</title>
    <desc>Created with Sketch.</desc>
    <defs></defs>
    <g id="technologies" stroke="none" stroke-width="1" fill="none" fill-rule="evenodd">
        <g id="Web-Servers" transform="translate(-32.000000, -138.000000)">
            <g id="lighttpd" transform="translate(32.000000, 138.000000)">
                <rect id="Rectangle-Copy-4" fill="#FFFFFF" x="0" y="0" width="160" height="70"></rect>
                <g transform="translate(49.000000, 5.000000)">
                    <polygon id="path5107" fill="#D9E2E8" points="50 0 30.4877369 30 21 23.6691943"></polygon>
                    <polygon id="path4136" fill="#336682" points="20 28 22 25.3952386 20.5430404 24"></polygon>
                    <polygon id="path3165" fill="#869AAB" points="50 0 18 21.8522944 20.111111 28 20.888889 24.031935"></polygon>
                    <polygon id="path2192" fill="#D9E2E8" points="51 0 14 17.8393995 18.7583525 22"></polygon>
                    <polygon id="path6078" fill="#336783" points="0 35.0576254 0 52 6 52 6 50.0983048 2.32075464 50.0983048 2.32075464 35"></polygon>
                    <polygon id="path6080" fill="#336783" points="7.08888888 35 9 35 9 51 7 51"></polygon>
                    <path d="M19.8876379,36.3498593 C19.8876379,36.3498593 19.1244813,33.1837564 16.6714774,33.0141431 C14.2184738,32.8445299 13.1010234,34.2425564 12.7283833,34.9542896 C12.2982627,35.7758079 12.0622804,36.9964711 12.0256679,38.9336666 C11.9880868,40.922102 12.0028636,42.9348471 12.0028636,43.1347375 C12.0028636,43.4568941 12.0248482,45.8426864 12.4529345,47.0298129 C12.8581685,48.1535678 12.7822691,48.173799 13.4869746,49.0284854 C14.2578189,49.9633868 15.0692361,50 15.8372743,50 C17.2883564,50 17.4655626,49.9416705 18.1960232,49.5628879 C19.9912445,48.6319749 19.9966602,43.134511 19.9966602,41.0702011 C19.9966602,41.0199793 20.0041747,41.6161783 19.9966602,41.6161783 C19.9966602,41.6161783 20.0041747,41.0702011 19.9966602,41.0702011 L16.0166359,41.0702011 L16.0173432,42.6820705 L17.8263601,42.6820705 C17.8263601,42.6820705 18.0536062,47.1251732 17.0530557,47.5082008 C16.1311348,47.8611287 15.1013509,47.8722039 14.6460165,47.0131988 C14.4721014,46.6851019 14.3373392,46.4424478 14.2525219,46.1001119 C14.1677046,45.757776 14.1328318,45.3157555 14.1328318,45.2059022 C14.1328318,44.2966617 14.2184738,39.3400565 14.2184738,38.6587343 C14.2184738,35.0298665 15.7261455,35.1443388 16.0718543,35.1625718 C16.3650271,35.1780338 17.0720511,35.4080568 17.3446071,36.0292342 C17.6590964,36.7459822 17.9270026,37.3861378 17.9270026,37.3861378 L19.8876379,36.3498593 Z" id="path6082" fill="#336783"></path>
                    <polygon id="path6084" fill="#336783" points="21 35 21 51 23.0289851 51 23.0289851 43.1924396 26.0724639 43.1924396 26.0724639 51 28 51 28 35 26.0724639 35 26.0724639 41.1580763 23.0289851 41.1580763 23.0289851 35"></polygon>
                    <path d="M45,35.0009998 L45,51 L47.2963148,51 L47.2963148,43.9086857 C47.2963148,43.9086857 49.4576368,44.1773004 50.7123121,43.2661593 C52.0010412,42.3302902 52,40.6883725 52,39.4336687 C52,37.9095195 51.3965956,36.211625 50.2039029,35.5567863 C49.1006929,34.9510769 45.8671291,35.0009998 45,35.0009998 Z M49.321573,37.8808477 C49.7215351,38.2723347 49.9039848,40.3514423 49.3779047,41.2924814 C49.0479973,41.8826142 48.5802582,42.2001352 47.3556292,42.2001352 L47.3556292,37.0384812 C48.5159925,37.0384812 48.8432182,37.414779 49.321573,37.8808477 Z" id="path6090" fill="#889CAD"></path>
                    <path d="M37.1935477,59 L37.1935477,55.1300164 L37.8839315,55.1300164 L37.8839315,54.5767655 L37.1398504,54.5767655 C37.1398504,54.5767655 37.1161906,53.8959471 37.3034804,53.6799649 C37.4556116,53.5045323 38,53.5242403 38,53.5242403 L38,53.0114712 C38,53.0114712 37.3255356,52.941675 37.0180257,53.1464115 C36.580085,53.4379887 36.6414798,54.5767655 36.6385803,54.5767655 L36,54.5767655 L36,55.1300164 L36.5733705,55.1300164 L36.5733705,59 L37.1935477,59 Z" id="path6179" fill="#8697AD"></path>
                    <polygon id="path6181" fill="#8697AD" points="39 53.0135449 39 59 38 59 38 53"></polygon>
                    <path d="M39.6956528,55 L41.020067,58.2506571 L42.2374582,55 L43,55 C43,55 41.2664256,60.0019784 41.1037092,60.2491913 C40.9891261,60.4232741 40.7624172,60.7029678 40.6042069,60.8304284 C40.431481,60.9695834 40.2295608,61 40.1433942,61 C39.5170384,61 39.3076925,60.9866062 39.3076925,60.9866062 L39.3076925,60.3571433 C39.3076925,60.3571433 39.9465383,60.4786417 40.1398648,60.3193288 C40.3369868,60.1568939 40.386288,60.1777709 40.5278535,59.8666776 C40.6688119,59.5569164 40.8397524,59.3539794 40.6187304,58.8303577 C39.0077772,55.0138645 39,55 39,55 L39.6956528,55 Z" id="path6183" fill="#8697AD"></path>
                    <path d="M50.9915708,55 C50.5802255,55 50.017014,55.1881117 49.6722602,55.5165563 C49.3275547,55.8449551 49,56.6551748 49,57.3761589 C49,58.1039051 49.3601943,58.576431 49.6386472,58.8463576 C49.9190926,59.1182093 50.2490836,59.2675497 50.9915708,59.2675497 C51.7410064,59.2675497 52.3471215,58.5568064 52.3528976,58.5364238 C52.3581412,58.5179181 52.3528976,59.5196647 52.3528976,59.6410596 C52.3528976,59.8533785 52.0242323,60.5300476 50.9915708,60.5231788 C49.9521409,60.5162668 49.7730992,59.6013245 49.7730992,59.6013245 L49.1176455,59.6172185 C49.1176455,59.6172185 49.0129612,60.1854139 49.5041951,60.594702 C49.8963326,60.921425 50.5303626,61 50.9915708,61 C52.5753324,61 52.9048151,60.0297439 52.9831415,59.5377483 C53.0210731,59.2994929 52.9831415,55.0397351 52.9831415,55.0397351 L52.3613009,55.0397351 C52.3613009,55.0397326 52.3613009,56.0238991 52.3613009,55.7470199 C52.3613009,55.482365 52.0791694,55.3489466 51.9579447,55.2543046 C51.8331302,55.1568653 51.402916,55 50.9915708,55 Z M50.9915708,55.6596026 C51.718889,55.6596026 52.3108813,56.3407042 52.3108813,57.1774834 C52.3108813,58.0142601 51.7188917,58.7033113 50.9915708,58.7033113 C50.2642498,58.7033138 49.6638569,58.0142627 49.6638569,57.1774834 C49.6638569,56.3407042 50.2642498,55.6596026 50.9915708,55.6596026 Z" id="path13056" fill="#8697AD"></path>
                    <path d="M52,53.0269681 L52,59 L52.8529419,59 L52.8529419,55.8988761 C52.8529419,55.8988761 53.0735308,55.0224726 54.0735301,55.0224726 C55.0735294,55.0224726 55.3382361,55.8044956 55.3382361,55.8044956 L55.3382361,58.9865159 L56,58.9865159 L56,55.9528097 C56,55.9528097 55.8529426,54.5842304 54.1416992,54.550325 C53.3501751,54.5314713 52.9127351,54.898538 52.8529419,54.9690181 L52.8529419,53 L52,53.0269681 Z" id="path6193" fill="#8697AD"></path>
                    <path d="M58.336169,55.8917638 L58.336169,58.9976451 C58.336169,59.263818 59,59.1901684 59,59.1945011 L59,60 L58.2052306,60 C57.8430909,60 57.6223708,59.5995559 57.6212027,59.2724397 L57.6094812,55.9905885 L57,55.9905885 L57,55.284705 L57.6563652,55.284705 L57.6563652,54 L58.3127281,54 L58.3127281,55.2141175 L58.9925342,55.2141175 L58.9925342,55.9058824 L58.336169,55.8917638 Z" id="path6195" fill="#8697AD"></path>
                    <rect id="rect6197" fill="#8697AD" fill-rule="nonzero" x="61" y="59" width="1" height="1"></rect>
                    <g id="g7099" transform="translate(30.000000, 35.000000)">
                        <polygon id="path6086" fill="#336783" points="0.255487037 0.0342257377 7.07325111 0.0342257377 7.07325111 0.0342257377 7.07325111 2.11207721 7.07325111 2.11207721 4.87318481 2.11207721 4.87318481 16.8301867 2.61803111 16.8301867 2.61803111 2.11207721 0.255487037 2.11207721"></polygon>
                        <polygon id="path12052" fill="#889CAD" points="7.07357778 0.0342257377 13.8913419 0.0342257377 13.8913419 0.0342257377 13.8913419 2.11207721 13.8913419 2.11207721 11.6912756 2.11207721 11.6912756 16.8301867 9.43612185 16.8301867 9.43612185 2.11207721 7.07357778 2.11207721"></polygon>
                    </g>
                    <path d="M55,35.0000326 L55,51 C58.5851627,51 60.0349061,50.8446891 60.9761104,49.0010719 C62.4455571,46.1227384 62.2787473,38.8469052 60.8251182,36.4180756 C59.4247121,34.9737082 58.397022,35.0000326 55,35.0000326 Z M57.0105797,36.7597727 C58.4578436,36.7597727 58.8934029,36.7393693 59.4900297,37.8617459 C60.1093328,39.7491222 60.1796449,45.4061531 59.5536054,47.6428258 C59.152616,49.0754498 58.5379972,49.1890053 57.0105797,49.1890053 L57.0105797,36.7597727 Z" id="path12070" fill="#889CAD"></path>
                    <polygon id="path13051" fill="#8697AD" points="46 53.0135449 46 59 45 59 45 53"></polygon>
                    <polygon id="path7087" fill="#8697AD" points="48 55.0112882 48 60 47 60 47 55"></polygon>
                    <polygon id="path7089" fill="#8697AD" points="48 53.002256 48 54 47 54 47 53"></polygon>
                </g>
            </g>
        </g>
    </g>
</svg>