<?xml version="1.0" encoding="UTF-8"?>
<svg width="160px" height="70px" viewBox="0 0 160 70" version="1.1" xmlns="http://www.w3.org/2000/svg" xmlns:xlink="http://www.w3.org/1999/xlink">
    <!-- Generator: Hyder A. - https://toggle.me -->
    <title>livejournal</title>
    <desc>Created with Sketch.</desc>
    <defs>
        <polygon id="path-1" points="11.9328 0.1088 0 0.1088 0 23.952 23.8656 23.952 23.8656 0.1088"></polygon>
    </defs>
    <g id="technologies" stroke="none" stroke-width="1" fill="none" fill-rule="evenodd">
        <g id="Artboard" transform="translate(-32.000000, -462.000000)">
            <g id="livejournal" transform="translate(32.000000, 462.000000)">
                <rect id="container" fill="#FFFFFF" x="0" y="0" width="160" height="70"></rect>
                <g id="LiveJournal" transform="translate(11.000000, 23.000000)">
                    <g id="Group-3">
                        <g id="Fill-1-Clipped">
                            <mask id="mask-2" fill="white">
                                <use xlink:href="#path-1"></use>
                            </mask>
                            <g id="path-1"></g>
                            <path d="M12.688,1.644 C11.1104,1.644 9.6112,1.9728 8.2504,2.5608 L5.7952,0.1088 L5.7896,0.1088 C3.1976,1.244 1.12,3.332 -0.0008,5.9328 L2.4584,8.3896 L2.4568,8.392 C1.8632,9.7552 1.5096,11.24 1.5096,12.8224 C1.5096,18.9976 6.5136,24.0016 12.688,24.0016 C18.86,24.0016 23.8656,18.996 23.8656,12.8224 C23.8656,6.6488 18.8608,1.644 12.688,1.644" id="Fill-1" fill="#2EA5D1" fill-rule="nonzero" mask="url(#mask-2)"></path>
                        </g>
                    </g>
                    <path d="M11.1628594,17 C12.2915883,14.3825503 14.3869927,12.2805369 16.9983875,11.1369128 L17,11.1369128 L7.84036549,2.00080537 L7.83633432,2 C5.22252083,3.14362416 3.12872884,5.24483221 2,7.86469799 L11.1628594,17" id="Fill-4" fill="#1A2E3B" fill-rule="nonzero"></path>
                    <path d="M18.1699962,15 C16.751225,15.6188509 15.6143988,16.7589185 15,18.1761172 L19,19 L18.1699962,15" id="Fill-5" fill="#1A2E3B" fill-rule="nonzero"></path>
                    <path d="M19,15 L19.945,18 C19.946,17.9783701 19.476,16.4937732 19,15" id="Fill-6" fill="#FFFFFE" fill-rule="nonzero"></path>
                    <path d="M19,14.3483895 C18.628834,12.5886709 18.2941761,11 18.2941761,11 L18.2906991,11.0008639 C15.4760959,12.22757 13.217807,14.4805628 12,17.2898926 L15.3448404,18 C16.0550106,16.3750463 17.3684341,15.0584969 19,14.3483895" id="Fill-7" fill="#FFFFFE" fill-rule="nonzero"></path>
                    <polygon id="Fill-8" fill="#2D2E2C" fill-rule="nonzero" points="40 18 42 18 42 5 40 5"></polygon>
                    <path d="M66.4251471,17.9084801 C66.4251471,19.6878629 65.8727392,20.431924 65,20.431924 L65,22 C67.490085,22 68,20.2173537 68,17.3773576 L68,5 L66.4244934,5 L66.4251471,17.9084801" id="Fill-9" fill="#2D2E2C" fill-rule="nonzero"></path>
                    <path d="M50.6006567,11.2118386 C50.1914625,12.6530498 49.8118212,14.1435677 49.6617833,15.0626127 C49.5306896,14.1185102 48.9070472,12.2917366 48.6024249,11.2118386 L46.7511998,5 L45,5 L48.897954,18 L50.2270775,18 L54,5 L52.3995959,5 L50.6006567,11.2118386" id="Fill-10" fill="#2D2E2C" fill-rule="nonzero"></path>
                    <polyline id="Fill-11" fill="#2D2E2C" fill-rule="nonzero" points="63.9965589 16.4196395 63.9948384 16.4196395 63.9948384 16.393785 59.0672238 16.393785 59.0723854 12.131821 62.9358486 12.131821 62.9358486 10.5272219 59.0723854 10.5272219 59.0723854 6.60621504 63.6438491 6.60621504 63.6438491 5 57 5.00242387 57 17.9975761 63.9948384 18 63.9948384 17.9975761 64 17.9975761 63.9965589 16.4196395"></polyline>
                    <path d="M91.228865,13.6960315 C91.228865,16.1524992 90.5480617,17.2857316 89.013078,17.2857316 C87.4810836,17.2857316 86.8002802,16.1508028 86.8002802,13.6960315 L86.8002802,5 L85,5 L85,12.9139655 C85,16.9973341 85.9162074,19 89.0003737,19 C92.2564222,19 93,16.6809452 93,12.9546804 L93,5 L91.2303596,5 L91.228865,13.6960315" id="Fill-12" fill="#2D2E2C" fill-rule="nonzero"></path>
                    <path d="M127.415151,13.7329478 L123.3656,13.7329478 L124.060907,11.7881614 C124.587628,10.2903687 125.171127,8.27525959 125.369412,7.36025617 C125.545859,8.25747684 126.277853,10.6144998 126.704121,11.7881614 L127.415151,13.7329478 Z M124.636544,5 L120,18 L121.844834,18 L122.80918,15.2881303 L127.989042,15.2881303 L128.979592,18 L131,18 L126.222822,5 L124.636544,5 L124.636544,5 Z" id="Fill-13" fill="#2D2E2C" fill-rule="nonzero"></path>
                    <path d="M77.5012176,17.201757 C75.3060905,17.201757 74.0895531,15.3534686 74.0895531,11.9860042 C74.0895531,8.61853984 75.3060905,6.77279612 77.5012176,6.77279612 C79.6955327,6.77279612 80.91207,8.61684338 80.91207,11.9860042 C80.91207,15.3543169 79.6955327,17.201757 77.5012176,17.201757 M77.5012176,5 C73.9019563,5 72,7.73383823 72,11.9860042 C72,16.2390185 73.9035805,19 77.5012176,19 C81.0939822,19 82.999999,16.2390185 82.999999,11.9860042 C83.0016232,7.73383823 81.0939822,5 77.5012176,5" id="Fill-14" fill="#2D2E2C" fill-rule="nonzero"></path>
                    <path d="M100.981197,11.4995958 L99.8317189,11.4995958 L99.8317189,6.64167133 L100.981197,6.64167133 C102.687559,6.64167133 103.577968,7.6326556 103.577968,9.15793073 C103.577968,10.6832059 102.637417,11.4995958 100.981197,11.4995958 M105.408927,8.97363676 C105.408927,5.948144 103.156315,5 100.139411,5 L98,5 L98,18 L99.8317189,18 L99.8317189,13.1081266 L100.94169,13.1081266 C101.42868,13.1081266 101.85641,13.0636697 101.85641,13.0636697 L104.048243,17.9983834 L106,17.9983834 L103.546819,12.4574395 C104.769991,11.77927 105.408927,10.5587266 105.408927,8.97363676" id="Fill-15" fill="#2D2E2C" fill-rule="nonzero"></path>
                    <path d="M116.421769,8.85239072 C116.421769,10.5369023 116.455782,13.6205932 116.531368,14.4135422 C116.201814,13.6553504 115.884354,12.9674812 115.444444,12.2335385 L111.058201,5 L110,5 L110,18 L111.575208,18 L111.575208,13.3118199 C111.575208,10.6435988 111.487528,9.11994031 111.415722,8.53068457 C111.611489,9.03102655 112.267574,10.2297457 112.587302,10.7583784 L116.964475,17.9991917 L118,17.9991917 L118,5 L116.421769,5 L116.421769,8.85239072" id="Fill-16" fill="#2D2E2C" fill-rule="nonzero"></path>
                    <polyline id="Fill-17" fill="#2D2E2C" fill-rule="nonzero" points="37 16.3956105 33.6177062 16.3956105 33.6177062 5 32 5 32 18 37 18 37 16.3956105"></polyline>
                    <polyline id="Fill-18" fill="#2D2E2C" fill-rule="nonzero" points="135.051624 16.3956105 135.051624 5 133 5 133 18 139 18 139 16.393994 135.051624 16.3956105"></polyline>
                </g>
            </g>
        </g>
    </g>
</svg>