<?xml version="1.0" encoding="UTF-8"?>
<svg width="160px" height="70px" viewBox="0 0 160 70" version="1.1" xmlns="http://www.w3.org/2000/svg" xmlns:xlink="http://www.w3.org/1999/xlink">
    <!-- Generator: Sketch 47.1 (45422) - http://www.bohemiancoding.com/sketch -->
    <title>lua</title>
    <desc>Created with Sketch.</desc>
    <defs></defs>
    <g id="technologies" stroke="none" stroke-width="1" fill="none" fill-rule="evenodd">
        <g id="Languages" transform="translate(-224.000000, -138.000000)">
            <g id="lua" transform="translate(224.000000, 138.000000)">
                <rect id="Rectangle-Copy-5" fill="#FFFFFF" x="0" y="0" width="160" height="70"></rect>
                <g transform="translate(60.000000, 15.000000)">
                    <path d="M37.8180145,10.9203339 C42.3744594,19.8626307 39.5977052,30.7971172 31.3268001,36.481868 C23.0558949,42.1666188 11.8526959,40.8408206 5.13709711,33.3825515 C-1.57850163,25.9242824 -1.7263887,14.6436908 4.79138171,7.01192813 C11.3091521,-0.619834515 22.4737447,-2.23888129 30.8908342,3.22708474" id="Shape" stroke="#808080" stroke-width="10.597" stroke-dasharray="39.8522"></path>
                    <circle id="Oval" fill="#000080" fill-rule="nonzero" cx="19.5" cy="19.5" r="15.5"></circle>
                    <circle id="Oval" fill="#FFFFFF" fill-rule="nonzero" cx="26.5" cy="13.5" r="4.5"></circle>
                    <circle id="Oval" fill="#000080" fill-rule="nonzero" cx="35.5" cy="4.5" r="4.5"></circle>
                    <g id="Group" transform="translate(9.000000, 18.000000)" fill-rule="nonzero" fill="#FFFFFF">
                        <polyline id="Shape" points="6.39767068 9.79367089 6.39767068 8.69379747 1.34208835 8.69379747 1.34208835 0.0153164557 0.0360481928 0.0153164557 0.0360481928 9.79379747 6.39793574 9.79379747"></polyline>
                        <path d="M13.4164659,9.79367089 L13.4164659,2.7649789 L12.2508635,2.7649789 L12.2508635,6.6414346 C12.2508635,8.07666667 11.4644297,9.01556962 10.2426345,9.01556962 C9.31576305,9.01556962 8.72591566,8.47902954 8.72591566,7.63400844 L8.72591566,2.76481013 L7.56031325,2.76481013 L7.56031325,8.07662447 C7.56031325,9.2435865 8.47313655,9.99472574 9.90561044,9.99472574 C10.9869679,9.99472574 11.6751084,9.6325654 12.363249,8.70704641 L12.363249,9.7935443 L13.41651,9.7935443" id="Shape"></path>
                        <path d="M21.9779116,9.76666667 L21.9779116,8.92164557 C21.8515221,8.94847215 21.795347,8.94847215 21.7251281,8.94847215 C21.3178631,8.94847215 21.0931803,8.74727384 21.0931803,8.39851435 L21.0931803,4.48184768 C21.0931803,3.23442152 20.1382124,2.56374641 18.3266141,2.56374641 C16.5430679,2.56374641 15.4476622,3.2210038 15.3774655,4.84399958 L16.5571161,4.84399958 C16.6554225,3.98556076 17.1890639,3.59657342 18.2844695,3.59657342 C19.3377305,3.59657342 19.9275779,3.97214726 19.9275779,4.64281814 L19.9275779,4.93791097 C19.9275779,5.40736245 19.6326631,5.60858608 18.7057827,5.71588565 C17.0486261,5.91708397 16.795847,5.97073797 16.3464815,6.14512616 C15.4898068,6.48045949 15.0544896,7.11086456 15.0544896,7.96934557 C15.0544896,9.24360717 15.981361,9.99474641 17.4699835,9.99474641 C18.4109032,9.99474641 19.3237265,9.61917257 19.9697225,8.96191941 C20.096112,9.49845949 20.6016703,9.88744684 21.1774695,9.88744684 C21.4162092,9.88744684 21.5987783,9.86062025 21.9779514,9.76672532 M19.9275779,7.36575485 C19.9275779,8.37174641 18.8602687,9.01558608 17.7227185,9.01558608 C16.8098952,9.01558608 16.2762406,8.70707975 16.2762406,7.94250591 C16.2762406,7.20478439 16.795847,6.88284346 18.0457386,6.70849747 C19.2815819,6.54753966 19.534361,6.49388565 19.9275779,6.31951013 L19.9275779,7.36575485" id="Shape"></path>
                    </g>
                </g>
            </g>
        </g>
    </g>
</svg>