<?xml version="1.0" encoding="UTF-8"?>
<svg width="160px" height="70px" viewBox="0 0 160 70" version="1.1" xmlns="http://www.w3.org/2000/svg" xmlns:xlink="http://www.w3.org/1999/xlink">
    <!-- Generator: Sketch 47.1 (45422) - http://www.bohemiancoding.com/sketch -->
    <title>meteor</title>
    <desc>Created with Sketch.</desc>
    <defs></defs>
    <g id="technologies" stroke="none" stroke-width="1" fill="none" fill-rule="evenodd">
        <g id="Javascript-frameworks" transform="translate(-32.000000, -241.000000)">
            <g id="meteor" transform="translate(32.000000, 241.000000)">
                <rect id="Rectangle-Copy-7" fill="#FFFFFF" x="0" y="0" width="160" height="70"></rect>
                <g transform="translate(25.000000, 22.000000)" id="Group" fill-rule="nonzero">
                    <g transform="translate(66.000000, 0.000000)" fill="#DF4F4F">
                        <path d="M0.16711811,0.0468145161 L23.8207244,24.7914435 C23.8207244,24.7914435 24.6267717,25.3527823 25.2427717,24.6978145 C25.8592126,24.0430645 25.3851969,23.3883145 25.3851969,23.3883145 L0.16711811,0.0468145161 Z M7.65656693,2.38558065 L25.6696063,21.5638548 C25.6696063,21.5638548 26.4754331,22.1251935 27.0916535,21.4702258 C27.707874,20.8154758 27.2338583,20.1607258 27.2338583,20.1607258 L7.65656693,2.38558065 L7.65656693,2.38558065 Z M2.39499213,7.39059677 L20.407811,26.5690887 C20.407811,26.5690887 21.2136378,27.1304274 21.8298583,26.4754597 C22.4460787,25.8204919 21.972063,25.1657419 21.972063,25.1657419 L2.39499213,7.39059677 L2.39499213,7.39059677 Z M13.9880945,4.39708065 L26.5726614,17.7958306 C26.5726614,17.7958306 27.1355276,18.1877661 27.5661102,17.7305081 C27.9966929,17.2728145 27.6653228,16.8153387 27.6653228,16.8153387 L13.9880945,4.39708065 Z M4.12834646,13.1908065 L16.7129134,26.5897742 C16.7129134,26.5897742 17.276,26.9817097 17.7063622,26.5244516 C18.1369449,26.0667581 17.8057953,25.6092823 17.8057953,25.6092823 L4.12834646,13.1910242 L4.12834646,13.1908065 Z M20.4554331,7.29718548 L26.1590551,13.3882984 C26.1590551,13.3882984 26.4375118,13.5720726 26.6504882,13.3578145 C26.8634646,13.1433387 26.6996535,12.9288629 26.6996535,12.9288629 L20.4552126,7.29718548 L20.4554331,7.29718548 Z M7.27735433,19.3655323 L12.9809764,25.4566452 C12.9809764,25.4566452 13.2596535,25.6404194 13.4726299,25.4261613 C13.6856063,25.2116855 13.5217953,24.9972097 13.5217953,24.9972097 L7.27735433,19.3655323 L7.27735433,19.3655323 Z" id="Shape"></path>
                    </g>
                    <g transform="translate(0.000000, 10.000000)" fill="#26262C">
                        <path d="M96.7284785,0.0514473684 L96.7284785,16.9246184 L100.428551,16.9246184 L100.428551,11.4819342 L103.203551,11.4819342 L106.771377,16.9246184 L111,16.9246184 L107.035652,11.0737105 C107.035652,11.0737105 110.556,9.63810526 110.556,5.74421053 C110.556,0.246947368 105.714275,0.0518947368 105.714275,0.0518947368 L96.7284785,0.0514473684 L96.7284785,0.0514473684 Z M100.428551,3.31768421 L100.428551,8.21636842 L105.185725,8.21636842 C105.185725,8.21636842 107.004,8.21592105 107.004,5.76657895 C107.004,3.22440789 104.789203,3.31768421 104.789203,3.31768421 L100.428551,3.31768421 L100.428551,3.31768421 Z M55.7642754,0.0518947368 L55.7642754,16.9246184 L68.1856523,16.9246184 L68.1856523,13.6588289 L59.4643477,13.6588289 L59.4643477,10.1214868 L66.9965215,10.1214868 L66.9965215,6.85569737 L59.4643477,6.85569737 L59.4643477,3.315 L68.1856523,3.315 L68.1856523,0.0518947368 L55.7644922,0.0518947368 L55.7642754,0.0518947368 Z M37.7928984,0.0518947368 L37.7928984,3.31768421 L42.6821016,3.31768421 L42.6821016,16.9246184 L46.3821738,16.9246184 L46.3821738,3.31768421 L51.271377,3.31768421 L51.271377,0.0518947368 L37.7928984,0.0518947368 Z M20.878623,0.0518947368 L20.878623,16.9246184 L33.3,16.9246184 L33.3,13.6588289 L24.5784785,13.6588289 L24.5784785,10.1214868 L32.1106523,10.1214868 L32.1106523,6.85569737 L24.5784785,6.85569737 L24.5784785,3.315 L33.3,3.315 L33.3,0.0518947368 L20.878623,0.0518947368 Z M0,0.0514473684 L0,16.9250658 L3.6974707,16.9248421 L3.6974707,6.31080263 L8.19036914,13.1143816 L12.6856523,6.31080263 L12.6856523,16.9250658 L16.3857246,16.9250658 L16.3857246,0.0514473684 L12.6856523,0.0514473684 L8.19058594,6.99102632 L3.6974707,0.0514473684 L0,0.0514473684 Z" id="Shape"></path>
                    </g>
                </g>
            </g>
        </g>
    </g>
</svg>