<?xml version="1.0" encoding="UTF-8"?>
<svg width="160px" height="70px" viewBox="0 0 160 70" version="1.1" xmlns="http://www.w3.org/2000/svg" xmlns:xlink="http://www.w3.org/1999/xlink">
    <!-- Generator: Sketch 47.1 (45422) - http://www.bohemiancoding.com/sketch -->
    <title>mootools</title>
    <desc>Created with Sketch.</desc>
    <defs></defs>
    <g id="technologies" stroke="none" stroke-width="1" fill="none" fill-rule="evenodd">
        <g id="Javascript-frameworks" transform="translate(-32.000000, -337.000000)">
            <g id="mootools" transform="translate(32.000000, 337.000000)">
                <rect id="Rectangle-Copy-10" fill="#FFFFFF" x="0" y="0" width="160" height="70"></rect>
                <g transform="translate(12.000000, 21.000000)" id="Shape" fill-rule="nonzero">
                    <path d="M40.942025,21.3359123 C40.5133352,21.9228854 40.0144705,22.4836554 39.4454197,23.0182185 C37.2968721,24.9542919 34.8370056,25.9219479 32.0661949,25.9211864 C29.3386003,25.9204309 27.0357107,24.9665432 25.1577082,23.0593374 L24.980328,26 L20.280988,26 L20.280988,26 L21.0112024,13.4128577 C21.0948318,12.0284795 19.8203711,10.9060519 18.4866027,10.9060519 C17.1528343,10.9060519 15.7932474,12.0284795 15.709805,13.4128577 L14.9795907,26 L10.0381555,26 L10.7683698,13.4128577 C10.8518122,12.0284795 9.43273053,10.8434198 8.0989621,10.8434198 C6.76538079,10.8434198 5.55060196,12.0282891 5.46715957,13.4128577 L4.73694523,26 L0,26 L1.18372181,6.80031983 L4.80598164,6.80031983 C5.77623313,6.28993509 7.01963681,6 8.15340545,6 C10.2574256,6 12.3911931,6.99373681 13.5425483,8.55344666 C14.8819294,6.99373681 16.6641538,6 18.768174,6 C21.4393858,6 23.9730189,7.60124992 25.1245806,9.92953251 L25.1245806,9.92953251 C25.4136075,9.59218608 25.7274806,9.26440287 26.0662015,8.94618212 C28.2145621,7.00991834 30.6633901,6.04245276 33.4124984,6.04321424 C36.1836834,6.04397571 38.5122121,7.01277391 40.3982719,8.94998953 C40.8935821,9.48346559 41.3154895,10.0437438 41.6640086,10.630828 C42.0927808,10.0422926 42.5916632,9.48074524 43.1606635,8.94618212 C45.3090241,7.00991834 47.7578521,6.04245276 50.5069604,6.04321424 C53.2781454,6.04397571 55.6066743,7.01277391 57.4927338,8.94998953 C59.3318337,10.9308001 60.1589611,13.2811209 59.9748639,16.0011422 C59.7920765,18.6994613 58.6472696,21.0385501 56.5398819,23.0182185 C54.391334,24.9542919 51.9314679,25.9219479 49.1606569,25.9211864 C46.4115485,25.9204249 44.0938711,24.9514363 42.2078116,23.0140303 C41.7125653,22.4807228 41.2906366,21.9213464 40.942025,21.3359123 L40.942025,21.3359123 Z M36.9234392,12.117002 C35.9090343,11.0503531 34.6371931,10.5167431 33.1071666,10.5163624 C31.5773275,10.5157913 30.2218563,11.0488302 29.0409409,12.114908 C27.8806054,13.2028784 27.2499232,14.4975918 27.1481461,15.9990481 C27.0463688,17.5008852 27.5015601,18.7959794 28.5146552,19.8845209 C29.5511368,20.9513602 30.8343907,21.4843991 32.3642302,21.4849702 C33.8940694,21.4855413 35.2381278,20.9526928 36.3971538,19.886615 C37.5793787,18.7984542 38.2216606,17.50336 38.3234377,16.0019037 C38.425028,14.5006377 37.95805,13.205734 36.9234392,12.117002 Z M54.0179015,12.117002 C53.0034966,11.0503531 51.731655,10.5167431 50.2016286,10.5163624 C48.6717894,10.5157913 47.3163185,11.0488302 46.1354029,12.114908 C44.9750676,13.2028784 44.3443855,14.4975918 44.2426081,15.9990481 C44.1408307,17.5008852 44.5960221,18.7959794 45.6091174,19.8845209 C46.645599,20.9513602 47.928853,21.4843991 49.4586921,21.4849702 C50.9885316,21.4855413 52.3325898,20.9526928 53.4916157,19.886615 C54.6738409,18.7984542 55.3161226,17.50336 55.4178999,16.0019037 C55.51949,14.5006377 55.0525119,13.205734 54.0179015,12.117002 Z" fill="#414347"></path>
                    <path d="M92.0275894,21.3902848 C91.5990125,21.9832528 91.0996355,22.5495839 90.5294465,23.0892741 C88.3913558,25.0305213 85.9434614,26.0007631 83.1861361,25.9999995 C80.4504076,25.999236 78.1440102,25.0276581 76.2671298,23.0850747 C74.4371671,21.0995435 73.6131344,18.7536312 73.7950324,16.0479106 C73.9375022,13.9291321 74.6573174,12.0344258 75.9546522,10.3637022 L68.4053084,10.3637022 L67.8759987,18.2676513 C67.7179318,20.6253981 68.3196655,21.4026605 70.1513041,21.4026605 C71.0475745,21.4026605 71.8587605,21.4053328 71.8587605,21.4053328 L71.6090932,25.8478684 C71.6090932,25.8478684 69.824186,25.8383244 68.3043988,25.8383244 C66.5503972,25.8383244 65.1080611,25.2605314 64.278443,24.2612758 C63.3399098,23.1425296 62.9900776,21.3843361 63.1615494,18.8267382 L63.4938808,10.3633205 L61,10.3633205 L61.2923025,6 L84.6504416,6.00038177 L84.6458076,6.06955556 L84.6458076,6.06955556 C87.3508249,6.09810257 89.6280501,7.06927913 91.4776612,8.98345067 C91.9739708,9.52205285 92.3962204,10.087902 92.7444255,10.6810019 C93.1730857,10.0864453 93.6724813,9.51932367 94.2426199,8.97963308 C96.3805245,7.03819503 98.8174342,6.0681441 101.553163,6.06890761 C104.31086,6.06967112 106.628056,7.04105824 108.504937,8.98345067 C110.335086,10.9695546 111.158187,13.3261561 110.974986,16.0534461 C110.793088,18.7589759 109.653853,21.1043155 107.556722,23.0892741 C105.418631,25.0305213 102.970737,26.0007631 100.213412,25.9999995 C97.477683,25.999236 95.1712857,25.0276581 93.2944052,23.0850747 C92.7981597,22.5466425 92.3758879,21.9817087 92.0275894,21.3902848 L92.0275894,21.3902848 Z M88.0197407,12.1589264 C87.0102729,11.0894271 85.7446213,10.5543911 84.2220415,10.5540093 C82.699648,10.5534367 81.3507741,11.0879 80.175606,12.1568267 C79.0209177,13.2477045 78.3933051,14.5458778 78.2920233,16.0513464 C78.1907413,17.5571969 78.6437173,18.8557519 79.6518819,19.9472023 C80.6833189,21.0168925 81.9603274,21.5513559 83.4827209,21.5519285 C85.0051144,21.5525011 86.3426313,21.0182287 87.4960164,19.949302 C88.6724875,18.8582333 89.3116434,17.5596783 89.4129254,16.0542096 C89.5140211,14.5489318 89.0493157,13.2505677 88.0197407,12.1589264 Z M105.047016,12.1589264 C104.037548,11.0894271 102.771897,10.5543911 101.249317,10.5540093 C99.7269234,10.5534367 98.3780495,11.0879 97.2028814,12.1568267 C96.0481932,13.2477045 95.4205805,14.5458778 95.3192988,16.0513464 C95.2180167,17.5571969 95.6709927,18.8557519 96.6791571,19.9472023 C97.7105941,21.0168925 98.9876025,21.5513559 100.509996,21.5519285 C102.03239,21.5525011 103.369907,21.0182287 104.523292,19.949302 C105.699763,18.8582333 106.338919,17.5596783 106.440201,16.0542096 C106.541296,14.5489318 106.076591,13.2505677 105.047016,12.1589264 Z" fill="#6E788C"></path>
                    <path d="M122.999,5.36597835 C122.919441,2.66814422 118.54071,0 118.54071,0 L117.775676,0.185467875 L119.210534,4.44202135 C119.210534,4.44202135 119.170848,5.59579315 118.030563,5.92858302 C116.890464,6.2615608 116.090961,5.40036599 116.090961,5.40036599 L114.972289,1.12577309 L114.179679,1.45480475 C114.179679,1.45480475 112.002145,7.36628789 112.292247,8.10364952 C112.70737,10.0113191 113.924978,11.6835365 114.062111,14.5642078 C114.199243,17.4446911 112.209707,24.1241654 112.016678,25.8546351 C111.824022,27.5852929 113.333782,28.9602356 114.822301,28.9991329 C116.31082,29.0380305 117.758162,27.7623046 117.801761,26.3721412 C117.845546,24.9819778 117.697048,18.276196 118.051245,15.3162265 C118.406,12.3564448 123.078373,8.06362454 122.999,5.36597835 L122.999,5.36597835 Z M114.967258,27.6078422 C114.168686,27.6529406 113.485074,27.0364056 113.440357,26.2304565 C113.395827,25.4246954 114.006773,24.7348752 114.805346,24.6897766 C115.603917,24.644678 116.287343,25.261401 116.332246,26.0671621 C116.376777,26.8731113 115.765831,27.5629313 114.967258,27.6078422 L114.967258,27.6078422 Z" fill="#414347"></path>
                    <path d="M124.741397,22.0532516 C124.741397,22.0532516 123.548635,23.3783445 122,25.2101611 C125.180256,27.4081194 129.582898,27.8913822 132.392089,24.8876166 C133.210938,24.0127191 134.8606,21.7532445 133.102885,18.4965789 C131.345361,15.2400981 126.67249,13.6742975 128.196438,11.5978938 C129.35103,10.0252581 132.267515,11.4441956 133.409384,12.5549977 C133.869512,12.1478452 135.330033,10.7741675 136,10.0006886 C132.901971,6.23323507 126.262686,5.84972849 123.974011,9.78528943 C120.189303,16.2932633 131.052535,19.2268302 128.975408,22.2839836 C127.601481,24.3057063 124.741397,22.0532516 124.741397,22.0532516 L124.741397,22.0532516 Z" fill="#6E788C"></path>
                </g>
            </g>
        </g>
    </g>
</svg>