<?xml version="1.0" encoding="UTF-8"?>
<svg width="160px" height="70px" viewBox="0 0 160 70" version="1.1" xmlns="http://www.w3.org/2000/svg" xmlns:xlink="http://www.w3.org/1999/xlink">
    <!-- Generator: Sketch 47.1 (45422) - http://www.bohemiancoding.com/sketch -->
    <title>netlify</title>
    <desc>Created with Sketch.</desc>
    <defs>
        <radialGradient cx="50%" cy="0%" fx="50%" fy="0%" r="100%" id="radialGradient-1">
            <stop stop-color="#20C6B7" offset="0%"></stop>
            <stop stop-color="#4D9ABF" offset="100%"></stop>
        </radialGradient>
        <linearGradient x1="52.1243965%" y1="84.7140915%" x2="52.1243962%" y2="0%" id="linearGradient-2">
            <stop stop-color="#313D3E" offset="0%"></stop>
            <stop stop-color="#425253" offset="100%"></stop>
        </linearGradient>
    </defs>
    <g id="technologies" stroke="none" stroke-width="1" fill="none" fill-rule="evenodd">
        <g id="Web-Servers" transform="translate(-416.000000, -138.000000)">
            <g id="netlify" transform="translate(416.000000, 138.000000)">
                <rect id="Rectangle-Copy-6" fill="#FFFFFF" x="0" y="0" width="160" height="70"></rect>
                <g transform="translate(21.000000, 14.000000)" id="Combined-Shape" fill-rule="nonzero">
                    <path d="M29.626037,14.8536585 C29.8404595,14.9596299 30.0191448,15.1009251 30.1620931,15.2598823 C30.1799617,15.2775442 30.1799617,15.2775442 30.1978302,15.2775442 L30.2156988,15.2775442 L34.3254627,13.529016 C34.3433312,13.5113541 34.3611998,13.4936922 34.3611998,13.4760303 C34.3611998,13.4583684 34.3611998,13.4407065 34.3433312,13.4230446 L30.5015954,9.62573594 C30.4837269,9.60807402 30.4658583,9.60807402 30.4658583,9.60807402 L30.4479898,9.60807402 C30.4301212,9.60807402 30.4122527,9.62573594 30.4122527,9.66105969 L29.5724314,14.8006728 C29.5903,14.8183348 29.6081684,14.8536585 29.626037,14.8536585 Z M21.1027441,11.4095879 C21.299298,11.7098402 21.4243778,12.0630782 21.4601149,12.4163162 C21.4601149,12.4339781 21.4779834,12.45164 21.495852,12.4693019 L27.6068922,15.0656013 L27.6247607,15.0656013 C27.6426292,15.0656013 27.6604977,15.0656013 27.6604977,15.0479395 C27.8391832,14.9066442 28.0536056,14.8006728 28.2858966,14.7300253 C28.3037651,14.7300253 28.3216337,14.7123634 28.3216337,14.6770395 L29.3222719,8.47771236 C29.3222719,8.46005045 29.3222719,8.44238854 29.3044033,8.42472669 L25.4805361,4.62741799 C25.4626675,4.6097561 25.4626675,4.6097561 25.444799,4.6097561 C25.4269304,4.6097561 25.4090619,4.62741799 25.4090619,4.6450799 L21.1027441,11.3212784 C21.0848756,11.3566022 21.0848756,11.391926 21.1027441,11.4095879 Z M41.9731972,20.9646762 L35.4154435,14.4650967 C35.397575,14.4474348 35.3797064,14.4474348 35.3797064,14.4474348 L35.3618379,14.4474348 L30.9125718,16.3372582 C30.8947033,16.3549201 30.8768347,16.372582 30.8768347,16.3902439 C30.8768347,16.4079058 30.8947033,16.4432296 30.9125718,16.4432296 L41.8838545,21.0883095 L41.9017231,21.0883095 C41.9195915,21.0883095 41.9374601,21.0883095 41.9374601,21.0706476 L41.9731972,21.0353238 C42.0089343,21.0353238 42.0089343,20.9823381 41.9731972,20.9646762 Z M40.8832163,22.0243903 L30.3586471,17.5735913 L30.3407786,17.5735913 C30.32291,17.5735913 30.3050415,17.5735913 30.2871729,17.5912532 C30.0012763,17.979815 29.5724314,18.2270816 29.0721123,18.2977292 C29.0542438,18.2977292 29.0185067,18.3153911 29.0185067,18.3507149 L27.8927887,25.2565181 C27.8927887,25.27418 27.8927887,25.2918419 27.9106573,25.3095038 C28.3037651,25.6097561 28.5360562,26.0513036 28.5896618,26.5458369 C28.5896618,26.5811606 28.6075303,26.5988225 28.6432674,26.5988225 L35.0044671,27.9234651 L35.0223357,27.9234651 C35.0402042,27.9234651 35.0580727,27.9234651 35.0580727,27.9058032 L40.8832163,22.1303617 C40.9010849,22.1126998 40.9010849,22.0950379 40.9010849,22.0773759 C40.9010849,22.059714 40.9010849,22.0420521 40.8832163,22.0243903 Z M26.9457562,16.1253154 L21.1920868,13.6879731 L21.1742182,13.6879731 C21.1563497,13.6879731 21.1384811,13.705635 21.1206127,13.7232969 C20.7275048,14.3238015 20.0663688,14.6770395 19.3516273,14.6770395 C19.2444161,14.6770395 19.1372049,14.6593776 19.012125,14.6417157 L18.9942566,14.6417157 C18.976388,14.6417157 18.9585195,14.6593776 18.9406509,14.6770395 L14.2054882,22.0067284 C14.1876197,22.0243903 14.1876197,22.059714 14.2054882,22.0773759 C14.2233568,22.0950379 14.2412252,22.0950379 14.2590938,22.0950379 L14.2769623,22.0950379 L26.9100192,16.7081581 C26.9278877,16.6904962 26.9457562,16.6728343 26.9457562,16.6551724 L26.9457562,16.5845248 L26.9457562,16.4962153 C26.9457562,16.3902439 26.9636247,16.2842725 26.9814933,16.195963 C26.9814933,16.1606392 26.9636247,16.1429773 26.9457562,16.1253154 Z M33.8787492,28.9478553 L28.2858966,27.7998318 L28.2680281,27.7998318 C28.2501596,27.7998318 28.232291,27.8174937 28.2144225,27.8174937 C28,28.0824222 27.7319719,28.294365 27.4103382,28.4179983 C27.3924697,28.4179983 27.3746011,28.4533221 27.3746011,28.470984 L26.0344607,36.7014298 C26.0344607,36.7367536 26.0523293,36.7544154 26.0701978,36.7720774 L26.1059349,36.7720774 C26.1238035,36.7720774 26.141672,36.7720774 26.141672,36.7544154 L33.8966177,29.0714887 C33.9144863,29.0538267 33.9144863,29.0361648 33.9144863,29.0185029 C33.9144863,28.9655173 33.8966177,28.9478553 33.8787492,28.9478553 Z M26.0701978,28.3826745 C25.5341417,28.1707317 25.1410338,27.6938604 24.9980855,27.1463414 C24.9980855,27.1286795 24.9802169,27.1110177 24.9444799,27.0933558 L14.5807275,24.9562658 C14.5807275,24.9562658 14.5807275,24.9562658 14.562859,24.9562658 C14.5449904,24.9562658 14.5271219,24.9739277 14.5092533,24.9915896 C14.4556477,25.0798991 14.4199106,25.1505467 14.3663051,25.2211943 C14.3484365,25.2388562 14.3484365,25.27418 14.3663051,25.2918419 L23.8008934,38.9268293 C23.8187619,38.9444912 23.8187619,38.9444912 23.8366305,38.9444912 C23.854499,38.9444912 23.8723676,38.9444912 23.8723676,38.9268293 L24.4441608,38.3616485 C24.4441608,38.3439865 24.4620293,38.3439865 24.4620293,38.3263246 L26.0701978,28.4356602 C26.1059349,28.4356602 26.1059349,28.4003364 26.0701978,28.3826745 Z M14.7951499,23.7022708 C14.7951499,23.7375946 14.8130185,23.7552565 14.8487556,23.7552565 L25.1231653,25.8746846 L25.1410338,25.8746846 C25.1589024,25.8746846 25.1767709,25.8570227 25.1946394,25.8393608 C25.4984046,25.3095038 26.0344607,24.9562658 26.6419911,24.9209419 C26.6777282,24.9209419 26.6955966,24.9032801 26.6955966,24.8679563 L27.8034461,18.0681245 C27.8034461,18.0504626 27.8034461,18.0151388 27.767709,18.0151388 C27.6962348,17.962153 27.6247607,17.9091674 27.535418,17.8208579 C27.5175494,17.803196 27.4996809,17.803196 27.4996809,17.803196 L27.4818123,17.803196 L14.7772814,23.2253995 C14.7415444,23.2430614 14.7415444,23.2607233 14.7415444,23.2960471 C14.7594129,23.4373423 14.7951499,23.5609756 14.7951499,23.7022708 Z M10.4888322,25.4154752 C10.4352265,25.3448276 10.381621,25.27418 10.3280153,25.1858705 C10.3101468,25.1682086 10.2922782,25.1505467 10.2744097,25.1505467 L10.2565412,25.1505467 L5.82514359,27.04037 C5.80727505,27.04037 5.78940651,27.058032 5.78940651,27.0756939 C5.78940651,27.0933558 5.78940651,27.1110177 5.80727505,27.1286795 L7.96936823,29.2657695 C7.98723677,29.2834315 8.00510532,29.2834315 8.00510532,29.2834315 C8.0229738,29.2834315 8.04084235,29.2657695 8.0587109,29.2481076 L10.5067007,25.450799 C10.5067007,25.450799 10.5067007,25.4331371 10.4888322,25.4154752 Z M13.4192725,26.1042893 C13.401404,26.0866274 13.3835354,26.0689655 13.3656669,26.0689655 L13.3477983,26.0689655 C13.0261647,26.2102607 12.7045309,26.2809083 12.3650287,26.2809083 C12.0970007,26.2809083 11.8468411,26.2455845 11.578813,26.157275 L11.5609445,26.157275 C11.5430759,26.157275 11.5252074,26.1749369 11.5073389,26.1925988 L8.93426933,30.1841884 L8.91640078,30.2018503 C8.89853224,30.2195122 8.89853224,30.254836 8.91640078,30.2724979 L20.7453733,41.9823381 C20.7632418,42 20.7811104,42 20.7811104,42 C20.7989789,42 20.8168475,42 20.8168475,41.9823381 L22.8895979,39.9158957 C22.9074665,39.8982338 22.9074665,39.86291 22.8895979,39.8452481 L13.4192725,26.1042893 Z M11.7574984,21.4945332 C11.7753669,21.5121951 11.7932355,21.529857 11.811104,21.529857 L11.8289726,21.529857 C12.0076579,21.4945332 12.2042119,21.4592094 12.3828973,21.4592094 C12.5794512,21.4592094 12.7938736,21.4945332 12.9904276,21.5475189 L13.0082961,21.5475189 C13.0261647,21.5475189 13.0440332,21.529857 13.0619017,21.5121951 L17.85067,14.0941968 C17.8685386,14.0765349 17.8685386,14.0412111 17.85067,14.0235492 C17.4754307,13.6349874 17.2610083,13.1227923 17.2610083,12.5752733 C17.2610083,12.4163162 17.2788769,12.2573591 17.3146139,12.098402 C17.3146139,12.0630782 17.2967453,12.0454163 17.2788769,12.0277544 C16.6713465,11.7628259 11.2929164,9.50210262 11.2929164,9.48444071 L11.2750479,9.48444071 C11.2571793,9.48444071 11.2393108,9.48444071 11.2393108,9.50210262 L6.68283344,14.0235492 C6.6649649,14.0412111 6.6649649,14.0765349 6.68283344,14.0941968 L11.7574984,21.4945332 Z M12.275686,8.56602185 C12.275686,8.56602185 17.7077217,10.8620689 17.9400128,10.9680404 L17.9578813,10.9680404 C17.9757498,10.9680404 17.9757498,10.9680404 17.9936184,10.9503785 C18.3688577,10.6501261 18.8513082,10.4735071 19.3337588,10.4735071 C19.5660498,10.4735071 19.7983408,10.508831 20.0306318,10.5794786 L20.0485003,10.5794786 C20.0663688,10.5794786 20.0842374,10.5618166 20.1021059,10.5441547 L24.515635,3.70899916 C24.5335035,3.69133726 24.5335035,3.65601345 24.515635,3.63835156 L20.8525846,0.0176619007 C20.834716,0 20.834716,0 20.8168475,0 C20.7989789,0 20.7811104,0 20.7811104,0.0176619007 L12.275686,8.46005045 C12.2578174,8.47771236 12.2578174,8.49537427 12.2578174,8.51303618 C12.239949,8.54835994 12.2578174,8.54835994 12.275686,8.56602185 Z M10.1671984,22.783852 C10.185067,22.783852 10.2029355,22.7661901 10.2208041,22.7485282 C10.3280153,22.5365854 10.4888322,22.3423045 10.649649,22.1656854 C10.6675175,22.1480235 10.6675175,22.1126998 10.649649,22.0950379 C10.5960434,22.0243903 5.75366943,15.0302776 5.75366943,15.0126156 C5.73580089,14.9949537 5.73580089,14.9949537 5.70006381,14.9772918 C5.68219527,14.9772918 5.66432674,14.9772918 5.66432674,14.9949537 L0.0178685383,20.5761144 C0,20.5937763 0,20.6114382 0,20.6291001 C0,20.646762 0.0178685383,20.6644239 0.0536056155,20.6644239 L10.1671984,22.783852 C10.1493299,22.783852 10.1493299,22.783852 10.1671984,22.783852 Z M9.70261648,24.0025231 C9.70261648,23.9671993 9.68474793,23.9495374 9.64901083,23.9495374 L0.875558388,22.1303617 C0.875558388,22.1303617 0.875558388,22.1303617 0.857689854,22.1303617 C0.839821313,22.1303617 0.821952772,22.1480235 0.804084238,22.1656854 C0.786215697,22.1833473 0.804084238,22.2186712 0.821952772,22.2363331 L4.73516273,26.1219513 C4.75303127,26.1396131 4.77089981,26.1396131 4.77089981,26.1396131 L4.78876835,26.1396131 L9.64901083,24.0731707 C9.68474793,24.0378469 9.70261648,24.0201851 9.70261648,24.0025231 Z" fill="url(#radialGradient-1)"></path>
                    <path d="M85.8555232,10.2660753 L88.7239652,10.2660753 L88.7239652,28.7494457 L85.8555232,28.7494457 L85.8555232,10.2660753 Z M56.5077775,15.4811529 C54.96599,15.4811529 53.7289744,16.0665188 52.7788031,17.2195122 L52.6891643,15.7117516 L50,15.7117516 L50,28.7317073 L52.8684419,28.7317073 L52.8684419,19.4722838 C53.4421303,18.4079822 54.3026628,17.8758315 55.4500396,17.8758315 C56.2388611,17.8758315 56.8125495,18.0709534 57.1711047,18.4789356 C57.52966,18.8691796 57.6910098,19.4900221 57.6910098,20.3059867 L57.6910098,28.7317073 L60.5594517,28.7317073 L60.5594517,20.1286031 C60.5235961,17.0421286 59.179014,15.4811529 56.5077775,15.4811529 Z M68.8958609,15.4811529 C67.8022674,15.4811529 66.8162405,15.7649667 65.9198525,16.3325942 C65.0234643,16.9002217 64.3422094,17.6984478 63.8402321,18.7272727 C63.3561825,19.7560975 63.1051939,20.9090909 63.1051939,22.2039911 L63.1051939,22.5587583 C63.1051939,24.4922394 63.6788822,26.053215 64.8083312,27.2239468 C65.9377802,28.3946785 67.4078566,28.9800443 69.2364884,28.9800443 C70.2942263,28.9800443 71.2623256,28.767184 72.1228578,28.3414634 C72.9833907,27.9157427 73.6646458,27.3126386 74.1666226,26.5321508 L72.6248352,25.0243903 C71.8001581,26.1064302 70.7244925,26.6563193 69.415766,26.6563193 C68.4835223,26.6563193 67.6947008,26.3370288 67.085157,25.7161862 C66.4576853,25.0953437 66.1170578,24.2439025 66.027419,23.1618625 L74.381756,23.1618625 L74.381756,21.9911308 C74.381756,19.9157428 73.8977067,18.3192905 72.9654625,17.1840355 C71.9794358,16.0487804 70.6348536,15.4811529 68.8958609,15.4811529 Z M71.513314,21.0155211 L66.0453468,21.0155211 C66.1708411,20.0044346 66.4935408,19.2239468 66.9775904,18.6740577 C67.46164,18.1064302 68.1070394,17.8403547 68.8958609,17.8403547 C69.6846824,17.8403547 70.3121541,18.0886918 70.7603482,18.5853658 C71.2085424,19.0820399 71.4595308,19.827051 71.5312422,20.8026608 L71.5312422,21.0155211 L71.513314,21.0155211 Z M80.8357501,26.2305987 C80.6385449,26.0177384 80.548906,25.6452328 80.548906,25.1485587 L80.548906,17.8758315 L82.8078042,17.8758315 L82.8078042,15.7117516 L80.548906,15.7117516 L80.548906,12.5543237 L77.6804641,12.5543237 L77.6804641,15.7117516 L75.5829161,15.7117516 L75.5829161,17.8758315 L77.6804641,17.8758315 L77.6804641,25.2549889 C77.6804641,27.7383592 78.7919853,28.9800443 80.9971003,28.9800443 C81.6066441,28.9800443 82.2341154,28.8913526 82.8974431,28.6962305 L82.8974431,26.4257206 C82.5568152,26.5144124 82.2161879,26.5498891 81.8934882,26.5498891 C81.3735832,26.5676275 81.0329553,26.4611973 80.8357501,26.2305987 Z M93.1700502,15.72949 L96.0384922,15.72949 L96.0384922,28.7494457 L93.1700502,28.7494457 L93.1700502,15.72949 Z M112.3169,24.5631929 L109.609807,15.72949 L106.508305,15.72949 L111.008173,28.6784922 L110.595835,29.7960089 C110.380701,30.4345898 110.093857,30.8780488 109.717374,31.1441241 C109.358819,31.4101995 108.803058,31.5521064 108.085948,31.5521064 L107.548115,31.5166297 L107.548115,33.7871397 C108.050093,33.9290465 108.516214,34 108.928553,34 C110.79304,34 112.119695,32.9002217 112.908516,30.7184035 L118,15.72949 L114.934353,15.72949 L112.3169,24.5631929 Z M101.667809,11.18847 C100.878988,11.9689579 100.484577,13.0864745 100.484577,14.5410199 L100.484577,15.72949 L98.5304513,15.72949 L98.5304513,17.8935698 L100.484577,17.8935698 L100.484577,28.7494457 L103.353019,28.7494457 L103.353019,17.8935698 L105.952545,17.8935698 L105.952545,15.72949 L103.353019,15.72949 L103.353019,14.5764967 C103.353019,13.1396895 104.034274,12.4301552 105.414711,12.4301552 C105.82705,12.4301552 106.203533,12.4656319 106.508305,12.518847 L106.580016,10.2305987 C106.006328,10.0886918 105.486423,10.0177384 104.966517,10.0177384 C103.568152,10 102.456631,10.4079822 101.667809,11.18847 Z M96.0384922,10 L96.0384922,12.5543237 L93.1700502,12.5543237 L93.1700502,10 L96.0384922,10 Z" fill="url(#linearGradient-2)"></path>
                </g>
            </g>
        </g>
    </g>
</svg>