<?xml version="1.0" encoding="UTF-8"?>
<svg width="160px" height="70px" viewBox="0 0 160 70" version="1.1" xmlns="http://www.w3.org/2000/svg" xmlns:xlink="http://www.w3.org/1999/xlink">
    <!-- Generator: Sketch 47.1 (45422) - http://www.bohemiancoding.com/sketch -->
    <title>nginx</title>
    <desc>Created with Sketch.</desc>
    <defs></defs>
    <g id="technologies" stroke="none" stroke-width="1" fill="none" fill-rule="evenodd">
        <g id="Web-Servers" transform="translate(-224.000000, -42.000000)">
            <g id="nginx" transform="translate(224.000000, 42.000000)">
                <rect id="Rectangle-Copy-2" fill="#FFFFFF" x="0" y="0" width="160" height="70"></rect>
                <g transform="translate(34.000000, 20.000000)" id="Shape" fill-rule="nonzero">
                    <path d="M56.4816054,20.2160059 C57.6462719,18.103177 58.6614204,16.242447 59.6844383,14.3817171 C61.9036002,10.33613 64.1148928,6.27853815 66.3340547,2.24495576 C67.3098564,0.468258755 68.561086,-0.240019106 70.0483966,0.120122179 C71.2996262,0.432244626 71.9685225,1.6687297 71.9763919,3.60148793 C71.9921306,11.1164361 72,18.6313842 72,26.1463324 C72,28.2951754 71.3311037,29.6637122 70.205784,29.9398206 C68.6791265,30.3239713 67.5380681,28.8353873 67.5301987,26.4344454 C67.5223293,21.0083167 67.5301987,15.5701833 67.5301987,9.81992745 C67.2469014,10.3241252 67.065906,10.624243 66.9006492,10.9363654 C63.8473343,16.5185553 60.7861499,22.0887406 57.7328349,27.6829352 C56.7806414,29.4356228 55.576628,30.16791 54.1207948,29.9398206 C52.8380877,29.7477452 52.0196734,28.391213 52.0118041,26.4344454 C51.9960653,18.7994502 51.9960653,11.1644549 52.0118041,3.52945968 C52.0196734,1.4166308 52.9561283,-0.0119296253 54.2545741,7.50842333e-05 C55.5530199,0.0120797937 56.473736,1.45264493 56.473736,3.55346909 C56.4894747,8.9916025 56.4816054,14.4297359 56.4816054,20.2160059 Z" fill="#19993C"></path>
                    <path d="M15.5282867,19.8038852 C15.5282867,19.3835904 15.5282867,18.9632955 15.5282867,18.5430007 C15.5282867,13.6315553 15.5204125,8.70810144 15.5282867,3.79665603 C15.5361609,1.71919868 16.1582237,0.446305738 17.2921103,0.086053019 C18.7094686,-0.358258668 19.985091,1.09476063 19.985091,3.29230222 C20.0087137,11.0857694 20.0008395,18.8792365 19.985091,26.6727037 C19.985091,28.4019168 19.1504245,29.710835 17.9614184,29.9269866 C16.5125632,30.1911719 15.2763119,29.5187002 14.3235321,27.7774787 C11.2525892,22.1575363 8.17377203,16.5496023 5.10282908,10.9416683 C4.93747062,10.6414577 4.76423794,10.3532555 4.50438892,9.89693541 C4.48076628,10.4132976 4.45714365,10.7495335 4.45714365,11.0857694 C4.45714365,16.285417 4.46501786,21.4730561 4.44926943,26.6727037 C4.44139522,28.4019168 3.69334502,29.710835 2.65394894,29.9510035 C1.49643968,30.2151888 0.496414671,29.3986159 0.142075101,27.8014956 C0.0397103358,27.3211586 0.0160876978,26.7807795 0.0160876978,26.2764257 C0.0239619105,18.7951776 0.0712071865,11.3259379 0.000339272462,3.84468972 C-0.0232833656,1.40697966 1.18934539,-0.166123885 2.80355898,0.0140024751 C4.01618774,0.146095139 4.99259011,0.950659545 5.77213716,2.39167042 C8.7800864,7.92755388 11.8116583,13.4394205 14.8353559,18.9632955 C15.0007144,19.2635061 15.1739471,19.5637167 15.3471798,19.8639273 C15.4101735,19.8399105 15.465293,19.8158936 15.5282867,19.8038852 Z" fill="#15983C"></path>
                    <path d="M42.7521073,11.1118698 C41.3794253,11.1118698 40.0379407,11.1482624 38.7042554,11.0754772 C38.4936735,11.0633464 38.220697,10.6630279 38.0881084,10.3354946 C37.557754,9.04962323 37.1053929,7.6788358 36.5516405,6.41722613 C36.3644566,6.00477681 35.9666908,5.59232749 35.6547176,5.58019663 C33.8374739,5.50741146 32.0202301,5.50741146 30.2029864,5.58019663 C29.8988126,5.59232749 29.4776488,6.00477681 29.3138629,6.41722613 C28.3545454,8.90405289 27.4420238,11.4394031 26.5606996,13.999015 C26.4125123,14.4357261 26.404713,15.1999704 26.5451009,15.6366814 C27.4264252,18.2812094 28.3779433,20.8772139 29.2826655,23.509611 C29.5088461,24.1768084 29.789622,24.4072948 30.265381,24.395164 C32.0280295,24.3587714 33.7984772,24.4194257 35.5611257,24.3466405 C35.8808982,24.3345097 36.2942626,23.9705838 36.4736472,23.5581345 C37.0040016,22.36931 37.4329647,21.0834386 37.9867171,19.6277351 C37.2379815,19.6277351 36.6140351,19.6277351 35.9822894,19.6277351 C34.5784102,19.6277351 33.1745309,19.6519968 31.7784509,19.6156042 C30.6397488,19.5792117 29.8286186,18.402518 29.7974213,16.8376368 C29.7740233,15.2606247 30.5539562,13.9504916 31.684859,13.9383607 C35.7561089,13.8898373 39.8273588,13.914099 44,13.914099 C43.8986087,14.2901557 43.8362141,14.5691656 43.7426221,14.8360445 C42.1125623,19.5185573 40.4747031,24.1889393 38.8680413,28.883583 C38.6106634,29.6356965 38.3220882,29.9996223 37.7293392,29.9996223 C34.4848182,29.9510989 31.2402972,29.9632297 27.9957762,29.9996223 C27.4576225,30.0117532 27.1534486,29.7327434 26.8960708,29.0048916 C25.3518036,24.6135195 23.7919377,20.2464091 22.2086738,15.8914295 C21.9356973,15.1393161 21.927898,14.5206421 22.2008745,13.7563978 C23.6983457,9.52272686 25.1880176,5.26479421 26.6542916,0.994730704 C26.8882714,0.303271556 27.161248,0 27.683803,0 C31.1077086,0.0363925867 34.5394135,0 37.9633191,0.048523449 C38.2674929,0.048523449 38.7042554,0.327533281 38.8524426,0.691459148 C40.16273,3.97892282 41.4262213,7.31490993 42.697512,10.650897 C42.72091,10.7358131 42.72091,10.8571217 42.7521073,11.1118698 Z" fill="#15983C"></path>
                    <path d="M86.4504139,14.8577334 C88.267824,17.7142468 89.9407538,20.3667234 91.6212877,23.0192001 C91.8722272,23.4152713 92.1307709,23.7993403 92.3741061,24.2074136 C93.2333837,25.6836789 93.2029668,27.6640348 92.3132723,29.0202785 C91.4539948,30.3285136 90.1992974,30.3405158 89.3172072,28.9722699 C87.5530267,26.223776 85.8040547,23.4392756 84.0474785,20.6667774 C83.8877897,20.4147321 83.7128925,20.1986932 83.4999742,19.8866372 C83.2794516,20.2226976 83.0741375,20.4987472 82.8840319,20.7988011 C81.2187063,23.4272734 79.5533808,26.0557458 77.8880553,28.6842181 C76.8462763,30.3165115 75.5915789,30.4245309 74.6714676,28.9842721 C73.7361478,27.5200089 73.7817731,25.539653 74.8159479,23.9073597 C76.6713791,20.9668313 78.5344145,18.038305 80.4734922,14.9657529 C79.8195287,13.9575717 79.1959822,12.9973991 78.5724356,12.0252244 C77.3329467,10.080875 76.1010621,8.12452345 74.8691775,6.18017404 C73.7817731,4.46386561 73.7133351,2.5195162 74.6714676,1.03124874 C75.6296001,-0.469020862 76.8310678,-0.32499498 77.9336806,1.41531776 C79.7586949,4.29583541 81.5837092,7.17635305 83.4695573,10.152888 C83.6976841,9.81682756 83.8953939,9.54077796 84.0854996,9.25272619 C85.8268674,6.51623443 87.5530267,3.75573835 89.3019988,1.0432509 C90.016796,-0.0609475289 90.9216989,-0.276986352 91.7429554,0.371130118 C92.5794202,1.01924659 93.1345287,2.38749247 92.9520273,3.77974266 C92.8455682,4.58388717 92.5642118,5.44804247 92.1992089,6.03614815 C90.5338834,8.77263992 88.8153283,11.4371187 87.1119816,14.1135997 C86.9446886,14.3776472 86.7089576,14.5696817 86.4504139,14.8577334 Z" fill="#11983B"></path>
                    <path d="M45.0573293,14.0047435 C46.2592519,14.0047435 47.4211104,13.9807297 48.5829689,14.0407641 C48.7271996,14.052771 48.9755969,14.545053 48.9755969,14.8212112 C48.9996354,18.8915432 49.015661,22.9618751 48.9755969,27.0322071 C48.9595713,28.821232 48.0300845,30.0579405 46.9082901,29.9979061 C45.8265598,29.9498786 45.0092524,28.6651426 45.0092524,26.9121383 C44.9932268,22.8418063 45.0012396,18.7714744 45.0092524,14.7011424 C45.0092524,14.5210393 45.0332909,14.3289292 45.0573293,14.0047435 Z" fill="#19993C"></path>
                    <path d="M48.9756125,11 C47.6334045,11 46.3796054,11 45.0052488,11 C45.0052488,9.88887586 45.0052488,8.80139266 45.0052488,7.72572993 C45.0052488,6.15360748 44.9891744,4.58148503 45.0132859,3.02118304 C45.0373975,1.38995824 45.8411148,0.125167999 46.869873,0.00696330321 C47.8825569,-0.0994209229 48.8872036,1.02352369 48.9434638,2.66656896 C49.0479471,5.39709743 48.9756125,8.1276259 48.9756125,11 Z" fill="#1A993D"></path>
                </g>
            </g>
        </g>
    </g>
</svg>