<?xml version="1.0" encoding="UTF-8"?>
<svg width="160px" height="70px" viewBox="0 0 160 70" version="1.1" xmlns="http://www.w3.org/2000/svg" xmlns:xlink="http://www.w3.org/1999/xlink">
    <!-- Generator: Sketch 47.1 (45422) - http://www.bohemiancoding.com/sketch -->
    <title>nodejs</title>
    <desc>Created with Sketch.</desc>
    <defs></defs>
    <g id="technologies" stroke="none" stroke-width="1" fill="none" fill-rule="evenodd">
        <g id="Languages" transform="translate(-224.000000, -42.000000)">
            <g id="nodejs" transform="translate(224.000000, 42.000000)">
                <rect id="Rectangle-Copy-2" fill="#FFFFFF" x="0" y="0" width="160" height="70"></rect>
                <g transform="translate(24.000000, 20.000000)">
                    <path d="M57.2033606,4.58940271e-05 C57.1249009,0.00102058599 57.0455406,0.0200719151 56.9755196,0.0618569596 C56.8357132,0.145362719 56.7476767,0.298722702 56.7476767,0.463636683 L56.7476767,12.285196 C56.7476767,12.4013519 56.6945118,12.5051469 56.5957834,12.5634003 C56.4968058,12.6218 56.3760246,12.6218 56.2768056,12.5634003 L54.3781282,11.4507797 C54.0952408,11.2848267 53.7497131,11.2849261 53.4667624,11.4507797 L45.8872421,15.9012583 C45.6038679,16.0675583 45.4315582,16.387497 45.4315582,16.7202452 L45.4315582,25.6212024 C45.4315582,25.953701 45.6041113,26.2581636 45.8872421,26.4247599 L53.4667624,30.8752385 C53.7501366,31.0415872 54.0947541,31.0415872 54.3781282,30.8752385 L61.9576486,26.4247599 C62.2407794,26.2581636 62.4133324,25.953701 62.4133324,25.6212024 L62.4133324,3.43062241 C62.4133324,3.09306319 62.2322737,2.77627856 61.9424594,2.6116102 L57.4312016,0.0464041932 C57.3603585,0.00620204847 57.2818203,-0.000819632436 57.2033606,7.12360182e-05 L57.2033606,4.58940271e-05 Z M8.4453187,11.1107643 C8.30077754,11.1166904 8.16498158,11.1424106 8.03520418,11.218959 L0.455681954,15.6694376 C0.173256252,15.8355387 0,16.1380734 0,16.472997 L0.0151565688,28.4181784 C0.0151565688,28.5843303 0.0994106127,28.7386123 0.242999462,28.8200069 C0.383737113,28.9057037 0.558418964,28.9057037 0.698681416,28.8200069 L5.19475013,26.1929391 C5.47955375,26.0208046 5.66562123,25.7213871 5.66562123,25.3893816 L5.66562123,19.810855 C5.66562123,19.4781068 5.83767798,19.1727066 6.1213051,19.0072955 L8.0351716,17.8792494 C8.17801508,17.7952329 8.33136851,17.7556234 8.49085356,17.7556234 C8.64706585,17.7556234 8.80764501,17.7951842 8.94653743,17.8792494 L10.8604039,19.0072955 C11.1440215,19.1727066 11.3160859,19.4781068 11.3160859,19.810855 L11.3160859,25.3893816 C11.3160859,25.7213871 11.504012,26.0227345 11.7869589,26.1929391 L16.2830276,28.8200069 C16.424229,28.9057037 16.5986656,28.9057037 16.7387096,28.8200069 C16.8782726,28.7386123 16.9665505,28.5843303 16.9665505,28.4181784 L16.9817071,16.472997 C16.9817071,16.1380734 16.8103708,15.8355387 16.5260252,15.6694376 L8.94652018,11.218959 C8.81832167,11.1424106 8.68192405,11.1167957 8.53640566,11.1107643 L8.44526888,11.1107643 L8.4453187,11.1107643 Z M76.5546832,11.218959 C76.3963344,11.218764 76.2411722,11.2595081 76.0989993,11.3425831 L68.519479,15.7930616 C68.2363482,15.9594104 68.0637971,16.263873 68.0637971,16.5966211 L68.0637971,25.4975763 C68.0637971,25.8322524 68.2491077,26.1357267 68.5346682,26.3011358 L76.0534319,30.6588958 C76.3310941,30.8202015 76.6701222,30.8322662 76.9496067,30.674218 L81.5064339,28.0935339 C81.6510364,28.0119405 81.7488566,27.8595376 81.749464,27.6917541 C81.7504221,27.5239219 81.6644033,27.3734958 81.521623,27.2899744 L73.8965334,22.8394958 C73.7537531,22.7566685 73.6535033,22.5888362 73.6535033,22.4222399 L73.6535033,19.6406913 C73.6535033,19.4743913 73.754968,19.3219865 73.8965334,19.2389603 L76.2660837,17.8481373 C76.4070418,17.7651598 76.5802003,17.7651598 76.7217657,17.8481373 L79.0913161,19.2389603 C79.2328815,19.3219865 79.3191571,19.4743913 79.3191571,19.6406913 L79.3191571,21.8350738 C79.3191571,22.0016194 79.4054326,22.1537766 79.546998,22.2368029 C79.6891709,22.3200766 79.8611165,22.3204217 80.0026819,22.2368029 L84.544318,19.5480215 C84.8262341,19.3814252 85,19.0761712 85,18.744464 L85,16.5964651 C85,16.2647053 84.8268415,15.959502 84.544318,15.7929057 L77.0103652,11.3424271 C76.8684932,11.2587595 76.713032,11.2190019 76.5546832,11.218803 L76.5546832,11.218959 Z M53.8920661,17.8637713 C53.9315824,17.8637713 53.9780983,17.8736547 54.0135812,17.8944293 L56.6109725,19.4243058 C56.6814515,19.4658433 56.7324876,19.5423429 56.7324876,19.6251703 L56.7324876,22.6848746 C56.7324876,22.7679495 56.6819382,22.8444979 56.6109725,22.8857898 L54.0135812,24.4156156 C53.9428588,24.4566599 53.8564625,24.4566599 53.7857402,24.4156156 L51.1883488,22.8857898 C51.1176265,22.8442523 51.0668338,22.7679495 51.0668338,22.6848746 L51.0668338,19.6251703 C51.0668338,19.5423429 51.1178698,19.4660421 51.1883488,19.4243058 L53.7857402,17.8946769 C53.821223,17.8739081 53.852544,17.8640189 53.8920661,17.8640189 L53.8920661,17.8637713 Z" id="path22" fill="#404137"></path>
                    <path d="M99.1050248,11 C98.8437368,11 98.589704,11.0557655 98.3649683,11.1870505 L91.25136,15.42685 C90.7910152,15.7003922 90.5113034,16.2174485 90.5113034,16.7673762 L90.5113034,25.2314135 C90.5113034,25.7810423 90.7910152,26.2974989 91.25136,26.5718905 L93.1090538,27.6786281 C94.0116207,28.1377225 94.3444966,28.1306397 94.7553029,28.1306397 C96.0916344,28.1306397 96.8546474,27.2938026 96.8546474,25.8393012 L96.8546474,17.4844019 C96.8546474,17.3662855 96.7555705,17.2817386 96.6432026,17.2817386 L95.7521149,17.2817386 C95.6379332,17.2817386 95.5406683,17.3662855 95.5406683,17.4844019 L95.5406683,25.8393012 C95.5406683,26.4840008 94.8900232,27.1323421 93.8340075,26.5875013 L91.900799,25.4184641 C91.8325319,25.3800574 91.7799718,25.3122696 91.7799718,25.2314135 L91.7799718,16.7673762 C91.7799718,16.6870195 91.831928,16.6054162 91.900799,16.564764 L98.9993025,12.3405262 C99.0657557,12.3011206 99.144896,12.3011206 99.2107472,12.3405262 L106.309251,16.564764 C106.376914,16.6066629 106.430076,16.6845754 106.430076,16.7673762 L106.430076,25.2314135 C106.430076,25.3122696 106.390784,25.3950705 106.324354,25.4340277 L99.2107472,29.6582655 C99.1497296,29.6956752 99.0657557,29.6956752 98.9993025,29.6582655 L97.1718145,28.5359643 C97.1174424,28.5030438 97.0431357,28.5055371 96.9905756,28.5359643 C96.4861299,28.8311048 96.3912808,28.8654215 95.918249,29.0347651 C95.8016533,29.076664 95.6246422,29.1418581 95.9786626,29.3465153 L98.3649683,30.7961284 C98.5921199,30.9318003 98.8452496,30.9987406 99.1050248,30.9987406 C99.3684239,30.9987406 99.6179298,30.9318003 99.8450814,30.7961284 L106.958688,26.5718905 C107.419035,26.2955542 107.698744,25.7810423 107.698744,25.2314135 L107.698744,16.7673762 C107.698744,16.2174485 107.419035,15.7015405 106.958688,15.42685 L99.8450814,11.1870505 C99.6221575,11.0557655 99.3663128,11 99.1050248,11 L99.1050248,11 Z M31.4426884,11.1714377 C31.2856443,11.1714377 31.1302349,11.2123397 30.9895931,11.2961374 L23.4530972,15.7697766 C23.1713316,15.9373722 23,16.2605449 23,16.5958893 L23,25.574289 C23,25.9100326 23.1715145,26.2168945 23.4530972,26.38484 L30.9895931,30.8740409 C31.2713587,31.0419864 31.61402,31.0419864 31.8957856,30.8740409 L39.4322815,26.38484 C39.7135632,26.2168945 39.8853787,25.9100326 39.8853787,25.574289 L39.8853787,16.5958893 C39.8853787,16.2600474 39.7140471,15.9373722 39.4322815,15.7697766 L31.8957856,11.2961374 C31.7551438,11.2123397 31.5997325,11.1714377 31.4426884,11.1714377 Z M109.662161,11.2183252 L109.662161,11.4365502 L110.251186,11.4365502 L110.251186,13.0420374 L110.492837,13.0420374 L110.492837,11.4365502 L111.096965,11.4365502 L111.096965,11.2183252 L109.662161,11.2183252 L109.662161,11.2183252 Z M111.30841,11.2183252 L111.30841,13.0420374 L111.534957,13.0420374 L111.534957,11.9665254 C111.534957,11.9226307 111.536882,11.8547446 111.534957,11.7639132 C111.532061,11.6713849 111.534957,11.5907293 111.534957,11.5456371 L111.534957,11.4987516 L112.033363,13.041888 L112.275014,13.041888 L112.788523,11.4987516 C112.788523,11.5969155 112.775815,11.6916874 112.773452,11.7793254 C112.7725,11.8646196 112.773452,11.9286673 112.773452,11.9663759 L112.773452,13.041888 L113,13.041888 L113,11.2181758 L112.66773,11.2181758 L112.154221,12.7613633 L111.655815,11.2181758 L111.308442,11.2181758 L111.30841,11.2183252 Z M101.008027,17.0480503 C98.9823857,17.0480503 97.7759428,17.9377604 97.7759428,19.4173504 C97.7759428,21.0224404 98.9733244,21.4634287 100.917408,21.6619508 C103.243302,21.8969369 103.424539,22.2493885 103.424539,22.7219012 C103.424539,23.5414797 102.791413,23.8909385 101.294989,23.8909385 C99.4149425,23.8909385 99.0017183,23.406555 98.8633723,22.4413274 C98.8470825,22.3378249 98.7697331,22.2542769 98.6670324,22.2542769 L97.745737,22.2542769 C97.6321612,22.2542769 97.5342922,22.3550835 97.5342922,22.4725018 C97.5342922,23.7080291 98.1855413,25.1691649 101.294989,25.1691649 C103.54597,25.1691649 104.84424,24.2572587 104.84424,22.6595523 C104.84424,21.0756615 103.795474,20.6505338 101.612156,20.3526011 C99.4058792,20.0513256 99.1956443,19.9038812 99.1956443,19.3706143 C99.1956443,18.9304225 99.3738614,18.3417892 101.008027,18.3417892 C102.4676,18.3417892 103.007087,18.6666569 103.228197,19.6823646 C103.24753,19.7778345 103.329088,19.8538003 103.424539,19.8538003 L104.345834,19.8538003 C104.402622,19.8538003 104.457598,19.817887 104.496868,19.7758387 C104.535531,19.730947 104.562717,19.6803687 104.557279,19.6200137 C104.414705,17.870771 103.284381,17.0480503 101.008027,17.0480503 L101.008027,17.0480503 Z M76.5106382,19.1835638 C76.4805276,19.1835638 76.4472048,19.1835638 76.4200188,19.1990193 L74.9701115,20.0719191 C74.9157394,20.1038427 74.879492,20.163248 74.879492,20.2277932 L74.879492,21.9424185 C74.879492,22.0069638 74.9157394,22.0661212 74.9701115,22.0982946 L76.4200188,22.9555816 C76.4743889,22.9880027 76.5323867,22.9880027 76.5861528,22.9555816 L78.0360602,22.0982946 C78.0898282,22.066371 78.1266796,22.0069638 78.1266796,21.9424185 L78.1266796,20.2277932 C78.1266796,20.163248 78.089853,20.1040413 78.0360602,20.0719191 L76.5861528,19.1990193 C76.5592812,19.182561 76.5407717,19.1835638 76.5106382,19.1835638 Z" id="path28" fill="#83CD29"></path>
                </g>
            </g>
        </g>
    </g>
</svg>