<?xml version="1.0" encoding="UTF-8"?>
<svg width="160px" height="70px" viewBox="0 0 160 70" version="1.1" xmlns="http://www.w3.org/2000/svg" xmlns:xlink="http://www.w3.org/1999/xlink">
    <!-- Generator: Sketch 47.1 (45422) - http://www.bohemiancoding.com/sketch -->
    <title>opencart</title>
    <desc>Created with Sketch.</desc>
    <defs>
        <linearGradient x1="50%" y1="79.104%" x2="50%" y2="0%" id="linearGradient-1">
            <stop stop-color="#04B6F0" offset="0%"></stop>
            <stop stop-color="#3ECAF0" offset="100%"></stop>
        </linearGradient>
    </defs>
    <g id="technologies" stroke="none" stroke-width="1" fill="none" fill-rule="evenodd">
        <g id="Ecommerce" transform="translate(-416.000000, -42.000000)">
            <g id="opencart" transform="translate(416.000000, 42.000000)">
                <rect id="Rectangle" fill="#FFFFFF" x="0" y="0" width="160" height="70"></rect>
                <path d="M25.5798574,36.0753396 C25.5798574,38.1499257 24.9713848,39.8973738 23.7501582,41.3119876 C22.4756836,42.7941448 20.8196426,43.5382073 18.7924707,43.5382073 C16.7599473,43.5382073 15.1092578,42.7941448 13.8347832,41.3119876 C12.6130215,39.8973738 12,38.1499257 12,36.0753396 C12,33.9950571 12.6130215,32.2481514 13.8347832,30.8386915 C15.1234395,29.3703685 16.7794805,28.6366139 18.7924707,28.6366139 C20.8196426,28.6366139 22.4756836,29.3703685 23.7501582,30.8386915 C24.9713848,32.2481514 25.5798574,33.9950571 25.5798574,36.0753396 Z M21.543709,36.0753396 C21.543709,35.1356996 21.3218867,34.3425394 20.877707,33.701284 C20.3808145,32.972412 19.6853789,32.6102817 18.7924707,32.6102817 C17.8992949,32.6102817 17.204127,32.972412 16.7066992,33.701284 C16.2579707,34.3425394 16.0358809,35.1356996 16.0358809,36.0753396 C16.0358809,37.0098256 16.2579707,37.8124799 16.7066992,38.4729947 C17.204127,39.2018667 17.8992949,39.5645395 18.7924707,39.5645395 C19.6853789,39.5645395 20.3808145,39.2018667 20.877707,38.4729947 C21.3218867,37.8124799 21.543709,37.0098256 21.543709,36.0753396 L21.543709,36.0753396 Z M40.1733008,36.0753396 C40.1733008,38.0132113 39.6228926,39.7064077 38.5172598,41.1549289 C37.3345645,42.7404356 35.8091016,43.5382073 33.9553203,43.5382073 C32.6468633,43.5382073 31.5369492,43.1516637 30.6293242,42.3883419 C30.6293242,42.5641175 30.6485898,42.9899936 30.6873887,43.6708528 C30.7259199,44.3552383 30.744918,44.9132173 30.744918,45.3537414 C30.744918,47.7866601 30.0304844,49 28.6018848,49 C28.0174941,49 27.5398672,48.7895033 27.1583008,48.3733925 C26.7818184,47.9529416 26.5934434,47.4478581 26.5934434,46.8516316 L26.5934434,31.0296576 C26.5934434,30.452148 26.7866348,29.9527608 27.17275,29.5323099 C27.5588652,29.1161992 28.0370273,28.906245 28.6067012,28.906245 C29.465627,28.906245 30.0933652,29.3408013 30.4893809,30.2077439 C31.334125,29.1604143 32.4879219,28.6366139 33.9505039,28.6366139 C35.8091016,28.6366139 37.329748,29.4191951 38.5172598,30.9905964 C39.6180762,32.4442714 40.1733008,34.1374679 40.1733008,36.0753396 L40.1733008,36.0753396 Z M36.1371523,36.0753396 C36.1371523,35.1356996 35.9107813,34.3425394 35.4666016,33.701284 C34.9689063,32.972412 34.2740059,32.6102817 33.3808301,32.6102817 C32.4879219,32.6102817 31.7927539,32.972412 31.2953262,33.701284 C30.8511465,34.3425394 30.6293242,35.1356996 30.6293242,36.0753396 C30.6293242,37.0098256 30.8511465,37.8124799 31.2953262,38.4729947 C31.7927539,39.2018667 32.4879219,39.5645395 33.3808301,39.5645395 C34.2740059,39.5645395 34.9689063,39.2018667 35.4666016,38.4729947 C35.9107813,37.8124799 36.1371523,37.0098256 36.1371523,36.0753396 L36.1371523,36.0753396 Z M54.8582559,35.6353581 C54.8582559,36.3197436 54.6987793,36.7895636 54.3800937,37.054312 C54.0616758,37.313364 53.5645156,37.445467 52.8934297,37.445467 L45.6086152,37.445467 C45.6086152,38.2285907 45.970916,38.8302423 46.6949824,39.2506932 C47.2791055,39.5791874 47.9935391,39.7460115 48.8382832,39.7460115 C49.4951875,39.7460115 50.2818672,39.5249357 51.2039414,39.0901081 C52.1260156,38.6493128 52.7195039,38.4336622 52.9758437,38.4336622 C53.4438379,38.4336622 53.8395859,38.6050977 54.1679043,38.9574626 C54.4911387,39.3052162 54.6556992,39.7259384 54.6556992,40.2106775 C54.6556992,41.3307045 53.8302207,42.202801 52.1787285,42.8288659 C50.9189707,43.2984146 49.6396797,43.5382073 48.3317578,43.5382073 C46.2269883,43.5382073 44.5275996,42.8288659 43.229043,41.4147946 C41.9302188,40.0001808 41.2789336,38.223708 41.2789336,36.0753396 C41.2789336,34.0292357 41.9545684,32.28233 43.3061055,30.8245861 C44.6528262,29.3654859 46.3284004,28.6366139 48.3266738,28.6366139 C50.1852715,28.6366139 51.7396328,29.3266959 52.9854766,30.7065886 C54.2305176,32.0870238 54.8582559,33.7311224 54.8582559,35.6353581 L54.8582559,35.6353581 Z M50.8226426,34.6070166 C50.8031094,33.9804091 50.5184063,33.412936 49.967998,32.8986296 C49.4175898,32.385137 48.8337344,32.1309677 48.2156289,32.1309677 C47.5785254,32.1309677 46.984502,32.385137 46.4343613,32.8986296 C45.8842207,33.412936 45.6086152,33.9804091 45.6086152,34.6070166 L50.8226426,34.6070166 Z M68.4185801,41.1202078 C68.4185801,41.7177905 68.2302051,42.2215178 67.8539902,42.6425113 C67.4724238,43.0588933 66.9945293,43.26939 66.4104063,43.26939 C65.0008047,43.26939 64.2957363,42.1339013 64.2957363,39.8680779 C64.2957363,39.4324365 64.3249023,38.7475084 64.3826992,37.8029859 C64.4455801,36.8630747 64.4747461,36.1732639 64.4747461,35.7376226 C64.4747461,33.334271 63.7070645,32.1309677 62.1767852,32.1309677 C60.6462383,32.1309677 59.8836406,33.334271 59.8836406,35.7376226 C59.8836406,36.1732639 59.9077227,36.8630747 59.9510703,37.8029859 C59.999502,38.7475084 60.023584,39.4324365 60.023584,39.8680779 C60.023584,42.1339013 59.328416,43.26939 57.9383477,43.26939 C57.353957,43.26939 56.8763301,43.0588933 56.4995801,42.6425113 C56.1182813,42.2215178 55.9299063,41.7177905 55.9299063,41.1202078 L55.9299063,31.0253175 C55.9299063,30.4320748 56.1182813,29.92889 56.4995801,29.5225446 C56.8763301,29.1113165 57.359041,28.906245 57.9431641,28.906245 C58.9085859,28.906245 59.5794043,29.3408013 59.9558867,30.2077439 C60.607707,29.1604143 61.7612363,28.6366139 63.4124609,28.6366139 C64.9427402,28.6366139 66.159418,29.0472995 67.0523262,29.8646018 C67.9647676,30.7413097 68.4185801,31.944613 68.4185801,33.4766818 L68.4185801,41.1202078 L68.4185801,41.1202078 Z M81.080377,40.6853802 C81.080377,41.6101009 80.487959,42.3438555 79.2996445,42.8828464 C78.3586953,43.317786 77.3361088,43.5413468 76.3019668,43.5382073 C74.2691758,43.5382073 72.6184863,42.7941448 71.3440117,41.3119876 C70.1227852,39.8973738 69.5097637,38.1499257 69.5097637,36.0753396 C69.5097637,33.9950571 70.132418,32.2386574 71.382543,30.7996303 C72.6329355,29.3562631 74.2691758,28.6366139 76.3019668,28.6366139 C77.4750293,28.6366139 78.4840664,28.8126607 79.3242617,29.1604143 C80.4965215,29.6302343 81.080377,30.3639889 81.080377,31.362492 C81.080377,31.8662193 80.9267871,32.3116259 80.6171992,32.6984408 C80.3086816,33.0801017 79.9123984,33.2759504 79.4299551,33.2759504 C79.1011016,33.2759504 78.628291,33.1633781 78.0104531,32.9436586 C77.3928828,32.7179714 76.9008066,32.6102817 76.5387734,32.6102817 C75.5779004,32.6102817 74.8294844,32.957764 74.293793,33.6524574 C73.7960977,34.2790649 73.545377,35.0817192 73.545377,36.0753396 C73.545377,37.0098256 73.7674668,37.8029859 74.2167305,38.44397 C74.7133555,39.1929151 75.4136074,39.5645395 76.3065156,39.5645395 C76.7027988,39.5645395 77.2430391,39.4470845 77.933123,39.2067493 C78.6240098,38.9726531 79.1214375,38.8503155 79.4299551,38.8503155 C79.8794863,38.8503155 80.2647988,39.0456217 80.5936523,39.4275538 C80.9171543,39.8140974 81.080377,40.2296656 81.080377,40.6853802 Z M95.751418,41.1202078 C95.751418,41.7177905 95.5635781,42.2215178 95.1865605,42.6425113 C94.8055293,43.0588933 94.3230859,43.26939 93.7378926,43.26939 C92.8594336,43.26939 92.232498,42.8334773 91.855748,41.9673485 C91.0112715,43.0149494 89.857207,43.5382073 88.394625,43.5382073 C86.5221133,43.5382073 84.98675,42.7404356 83.7984355,41.1549289 C82.7171523,39.7064077 82.1726309,38.0132113 82.1726309,36.0753396 C82.1726309,34.1374679 82.7171523,32.4442714 83.7984355,30.9905964 C85.0060156,29.4191951 86.5360273,28.6366139 88.394625,28.6366139 C89.857207,28.6366139 91.0112715,29.1604143 91.855748,30.2077439 C92.232498,29.3408013 92.8594336,28.906245 93.7378926,28.906245 C94.3081016,28.906245 94.7862637,29.1161992 95.1729141,29.5323099 C95.5582266,29.9527608 95.751418,30.4472653 95.751418,31.0253175 L95.751418,41.1202078 L95.751418,41.1202078 Z M91.7158047,36.0753396 C91.7158047,35.1356996 91.4939824,34.3425394 91.0498027,33.701284 C90.5331094,32.972412 89.8379414,32.6102817 88.9645664,32.6102817 C88.071123,32.6102817 87.3762227,32.972412 86.8785273,33.701284 C86.430334,34.3425394 86.2082441,35.1356996 86.2082441,36.0753396 C86.2082441,37.0098256 86.4247148,37.8124799 86.8541777,38.4729947 C87.3665898,39.2018667 88.071123,39.5645395 88.9645664,39.5645395 C89.857207,39.5645395 90.5521074,39.2018667 91.0498027,38.4729947 C91.4939824,37.8124799 91.7158047,37.0098256 91.7158047,36.0753396 Z M106.048627,30.7554151 C106.048627,31.6313093 105.628797,32.2332322 104.788602,32.5609126 C104.011555,32.8256611 103.238521,33.0952922 102.466826,33.3733323 C101.621279,33.8632254 101.201449,34.7732981 101.201449,36.0948702 L101.201449,41.1202078 C101.201449,41.7177905 101.008258,42.2215178 100.632578,42.6425113 C100.250477,43.0588933 99.7677656,43.26939 99.1839102,43.26939 C98.5955059,43.26939 98.1119922,43.0588933 97.7360449,42.6425113 C97.3539434,42.2215178 97.1661035,41.7177905 97.1661035,41.1202078 L97.1661035,31.0253175 C97.1661035,30.4320748 97.3539434,29.92889 97.7306934,29.5225446 C98.1119922,29.1113165 98.5955059,28.906245 99.1796289,28.906245 C100.144516,28.906245 100.815066,29.3408013 101.192084,30.2077439 C102.056629,29.1604143 102.98352,28.6366139 103.982656,28.6366139 C104.551795,28.6366139 105.03959,28.8465681 105.445238,29.2626788 C105.845535,29.6836722 106.048627,30.1827881 106.048627,30.7554151 L106.048627,30.7554151 Z M116.577291,30.9414986 C116.577291,31.8515713 116.224891,32.4241983 115.525709,32.6694161 C115.181871,32.7914825 114.462354,32.854957 113.366889,32.854957 L113.366889,41.1202078 C113.366889,41.7177905 113.173697,42.2215178 112.798018,42.6425113 C112.415648,43.0588933 111.933205,43.26939 111.349082,43.26939 C110.780211,43.26939 110.29643,43.0588933 109.910047,42.6425113 C109.524734,42.2215178 109.331275,41.7177905 109.331275,41.1202078 L109.331275,32.854957 C108.500713,32.854957 107.897592,32.7472673 107.516561,32.5373131 C106.995586,32.24354 106.738176,31.7099743 106.738176,30.9414986 C106.738176,30.1735653 107.004148,29.6497649 107.53984,29.3703685 C107.901873,29.1647545 108.500713,29.0576073 109.331275,29.0576073 L109.331275,27.3055477 C109.331275,25.2453384 110.001826,24.2178106 111.349082,24.2178106 C112.691254,24.2178106 113.366889,25.2453384 113.366889,27.3055477 L113.366889,29.0576073 C114.462354,29.0576073 115.181871,29.1210818 115.525709,29.2431482 C116.224891,29.4878235 116.577291,30.0561104 116.577291,30.9414986 L116.577291,30.9414986 Z M149,28.4564982 C148.989029,27.2002994 146.699363,26.6301137 140.77224,26.6301137 C126.8646,26.6301137 123.336314,26.0279195 119.560252,22 C121.148596,24.418542 122.017689,28.9548003 136.717629,28.7291131 C152.054672,28.4895917 142.698268,32.7380445 139.975928,37.5379662 C144.885184,33.0958347 148.985283,30.1678689 149,28.4746725 L149,28.4564982 Z M129.456896,41.3556603 C129.456453,42.5311549 128.516489,43.4839274 127.356943,43.4842268 C126.193246,43.4842268 125.252441,42.5304814 125.252441,41.3556603 C125.252015,40.789677 125.473593,40.2467469 125.868349,39.8465108 C126.263104,39.4462746 126.79864,39.2215796 127.356943,39.2219398 C128.516359,39.2219398 129.456896,40.1759564 129.456896,41.3556603 L129.456896,41.3556603 Z M139.03432,41.3556603 C139.033877,42.5311549 138.093912,43.4839274 136.934367,43.4842268 C135.77174,43.4842268 134.830133,42.5304814 134.830133,41.3556603 C134.829707,40.7897241 135.051248,40.2468351 135.445946,39.8466068 C135.840643,39.4463785 136.37611,39.2216516 136.934367,39.2219398 C138.093783,39.2219398 139.03432,40.1759564 139.03432,41.3556603 Z" id="Shape" fill="url(#linearGradient-1)" fill-rule="nonzero"></path>
            </g>
        </g>
    </g>
</svg>