<?xml version="1.0" encoding="UTF-8"?>
<svg width="160px" height="70px" viewBox="0 0 160 70" version="1.1" xmlns="http://www.w3.org/2000/svg" xmlns:xlink="http://www.w3.org/1999/xlink">
    <!-- Generator: Sketch 47.1 (45422) - http://www.bohemiancoding.com/sketch -->
    <title>opensuse</title>
    <desc>Created with Sketch.</desc>
    <defs></defs>
    <g id="technologies" stroke="none" stroke-width="1" fill="none" fill-rule="evenodd">
        <g id="OS" transform="translate(-32.000000, -241.000000)">
            <g id="opensuse" transform="translate(32.000000, 241.000000)">
                <rect id="Rectangle-Copy-7" fill="#FFFFFF" x="0" y="0" width="160" height="70"></rect>
                <g transform="translate(53.000000, 18.000000)" id="Shape" fill-rule="nonzero">
                    <path d="M54.6539616,25.9088517 C54.6539616,25.9543062 54.6330766,25.992823 54.6071009,25.992823 L54.5862159,25.992823 C54.561415,25.992823 54.5403994,25.9545455 54.5403994,25.9088517 L54.5403994,25.1961722 L54.3211069,25.1961722 L54.3211069,25.9088517 C54.3211069,25.9543062 54.2989166,25.992823 54.2728103,25.992823 L54.2533612,25.992823 C54.2285602,25.992823 54.2075447,25.9545455 54.2075447,25.9088517 L54.2075447,25.1961722 L54.0430753,25.1961722 C54.0195797,25.1961722 54,25.1650718 54,25.1172249 L54,25.076555 C54,25.0287081 54.0195797,25 54.0430753,25 L54.6187182,25 C54.6409085,25 54.6565722,25.0145933 54.6644041,25.0382775 L54.7727451,25.3373206 L54.881086,25.0382775 C54.8902232,25.0167464 54.9032763,25 54.926772,25 L55,25 L55,25.9162679 C55,25.9593301 54.9778097,26 54.9517034,26 L54.9451769,25.9930622 L54.9242919,25.9930622 C54.8994909,25.9930622 54.8784754,25.9547847 54.8784754,25.9090909 L54.8784754,25.3110048 L54.8066832,25.5119617 C54.7988513,25.5311005 54.7844929,25.5406699 54.7714398,25.5406699 L54.7634774,25.5406699 C54.7504242,25.5406699 54.7347605,25.5311005 54.7270591,25.5119617 L54.6538311,25.3110048 L54.6538311,25.9088517 L54.6539616,25.9088517 Z" fill="#73BA25"></path>
                    <path d="M54,32.1515812 L54,32.3282443 C54,32.7164667 53.6913512,33 53.2641319,33 L47.7059399,33 C47.3015666,33 47,32.7099237 47,32.3282443 L47,25.6717557 C47,25.2878953 47.3129896,25 47.7196475,25 L47.7219321,25.0065431 L53.0336162,25.0065431 C53.4608355,25.0065431 53.7715405,25.2878953 53.7715405,25.6758997 L53.7715405,25.8527808 C53.7715405,26.2407852 53.4608355,26.5221374 53.0336162,26.5221374 C53.0336162,26.5221374 48.9167755,26.5221374 48.7134465,26.5221374 C48.7134465,26.6968375 48.7134465,28.0924755 48.7134465,28.2647764 C48.9170039,28.2647764 52.046671,28.2647764 52.046671,28.2647764 C52.4738903,28.2647764 52.7845953,28.5507088 52.7845953,28.9387132 L52.7845953,29.1134133 C52.7845953,29.5038168 52.4738903,29.7849509 52.046671,29.7849509 C52.046671,29.7849509 48.9170039,29.7849509 48.7134465,29.7849509 C48.7134465,29.959651 48.7134465,31.3094875 48.7134465,31.4817884 C48.9170039,31.4817884 53.2643603,31.4817884 53.2643603,31.4817884 C53.6938642,31.4820065 54,31.7677208 54,32.1515812 Z" fill="#73BA25"></path>
                    <path d="M48.1020294,4.00188519 C49.7567017,4.05997568 51.0544037,5.45414752 50.9982438,7.10649934 C50.9681197,7.90685724 50.6326667,8.64697316 50.0471838,9.1934541 C49.4619161,9.74208654 48.7002074,10.0260845 47.8954644,9.99811501 C46.2429438,9.93787301 44.9478239,8.54585267 45.0016168,6.89350086 C45.0295892,6.09314295 45.3650423,5.35087554 45.9526768,4.8043946 C46.5377294,4.25791366 47.3015898,3.97391569 48.1020294,4.00188519 Z M50.2128662,7.04410584 C50.2515972,5.86723548 49.3304461,4.87754559 48.1536707,4.83666709 C47.5836802,4.8151521 47.0412317,5.01739307 46.6259499,5.40681453 C46.2104528,5.79408449 45.9673085,6.32120193 45.9500948,6.89134936 C45.9113638,8.06821973 46.8325149,9.05790961 48.0073538,9.10093961 C48.5797111,9.11815161 49.1219444,8.91591063 49.539378,8.52864067 C49.9546599,8.13921922 50.1956525,7.61210178 50.2128662,7.04410584 Z" fill="#FFFFFF"></path>
                    <path d="M48.0676969,4.00145836 C49.171527,4.03978037 50.0352185,4.96757636 49.998895,6.0708468 C49.9827513,6.60332102 49.7567385,7.09747323 49.3672702,7.46254078 C48.9757838,7.82559138 48.4672551,8.01518448 47.9304749,7.99904889 C46.8286628,7.95870994 45.9649713,7.03091395 46.0010929,5.92764351 C46.0172367,5.39315234 46.2452674,4.89900013 46.6349376,4.53594953 C47.024406,4.17088198 47.5329346,3.98128888 48.0676969,4.00145836 Z M49.2825154,5.59686407 C49.2825154,5.26810158 48.8847733,5.00388142 48.3946082,5.00388142 C47.9044431,5.00388142 47.508719,5.26810158 47.508719,5.59686407 C47.508719,5.92159266 47.9042413,6.18782977 48.3946082,6.18782977 C48.8849751,6.18782977 49.2825154,5.92159266 49.2825154,5.59686407 Z" fill="#73BA25"></path>
                    <path d="M48.9988623,6 C49.5517634,6 50,6.22316865 50,6.50085179 C50,6.77512777 49.5515358,7 48.9988623,7 C48.4461889,7 48,6.77512777 48,6.50085179 C48,6.22316865 48.4459613,6 48.9988623,6 Z" fill="#FFFFFF"></path>
                    <path d="M45,29.9247546 L45,30.9912759 C45,32.212868 44.2610619,33 43.1084071,33 L38.7123894,33 C38.2986726,33 38,32.7142857 38,32.3282443 L38,32.1515812 C38,31.7653217 38.2986726,31.4820065 38.7123894,31.4820065 L42.8829646,31.4820065 C43.3365044,31.4820065 43.3495575,30.8691385 43.3495575,30.8015267 L43.3495575,30.1624864 C43.3495575,29.953108 43.2654867,29.7066521 42.8829646,29.7066521 L39.8274336,29.7066521 C38.9579646,29.7066521 38.015708,29.0043621 38.015708,27.87241 L38.015708,26.8844057 C38.015708,26.1123228 38.754646,25 40.0862832,25 L40.0862832,25.0087241 L43.675,25.0087241 C44.0931416,25.0087241 44.4028761,25.2988004 44.4028761,25.6782988 L44.4028761,25.8549618 C44.4028761,26.2388222 44.0951327,26.5267176 43.6902655,26.5267176 L40.3584071,26.5267176 C39.920354,26.5267176 39.670354,26.738277 39.670354,27.1090513 L39.670354,27.695747 C39.670354,27.9356598 39.8738938,28.2647764 40.3276549,28.2647764 L43.3365044,28.2647764 C44.1659292,28.2649945 45,28.7797165 45,29.9247546 Z" fill="#73BA25"></path>
                    <path d="M36.2982352,25 C36.6928009,25 37,25.3078591 37,25.7000542 L37,30.9098103 C37,32.1217344 36.0433253,33 34.7232407,33 L32.2765414,33 C30.9562389,33 30,32.1217344 30,30.9098103 L30,25.7000542 C30,25.3076423 30.3115565,25 30.7015469,25 L30.923776,25 C31.316163,25 31.6275016,25.3143631 31.6275016,25.7000542 L31.6275016,30.7170732 C31.6275016,31.1181572 31.9521305,31.4411924 32.3530144,31.4411924 L34.642846,31.4411924 C35.0415512,31.4411924 35.3683588,31.1181572 35.3683588,30.7170732 L35.3683588,25.700271 C35.3683588,25.3145799 35.6842728,25.0002168 36.0718665,25.0002168 L36.0764418,25.0002168 L36.2982352,25.0002168 L36.2982352,25 Z" fill="#73BA25"></path>
                    <path d="M28,29.9247546 L28,30.9912759 C28,32.212868 27.2571068,33 26.109602,33 L21.7141503,33 C21.2984839,33 21,32.7142857 21,32.3282443 L21,32.1515812 C21,31.7653217 21.3006949,31.4820065 21.7141503,31.4820065 L25.8818699,31.4820065 C26.3329122,31.4820065 26.3439672,30.8691385 26.3439672,30.8015267 L26.3439672,30.1624864 C26.3439672,29.953108 26.2643714,29.7066521 25.8818699,29.7066521 L22.8284902,29.7066521 C21.9551485,29.7066521 21.0176879,29.0043621 21.0176879,27.87241 L21.0176879,26.8844057 C21.0176879,26.1123228 21.7539482,25 23.0871762,25 L23.0915982,25.0087241 L26.6800379,25.0087241 C27.0957044,25.0087241 27.4074542,25.2988004 27.4074542,25.6782988 L27.4074542,25.8549618 C27.4074542,26.2388222 27.1001263,26.5267176 26.6933039,26.5267176 L23.3635502,26.5267176 C22.9235629,26.5267176 22.6737208,26.738277 22.6737208,27.1090513 L22.6737208,27.695747 C22.6737208,27.9356598 22.877132,28.2647764 23.3303853,28.2647764 L26.3351232,28.2647764 C27.1642451,28.2649945 28,28.7797165 28,29.9247546 Z" fill="#73BA25"></path>
                    <path d="M53.530911,10.8102236 L53.7576818,10.7684906 C53.8196495,10.816813 53.8107652,10.9156543 53.7907757,11.0035131 C53.7487975,11.2077851 53.6486275,11.5789889 53.5797745,11.7547067 L53.5220268,11.8996739 C53.4422905,12.1149282 53.3621101,12.3192001 53.2088566,12.4422026 C52.7870763,12.8221923 52.1118725,13.1253055 51.0546455,13.5821717 C49.4199415,14.2894358 46.7702107,14.7353197 44.3092705,14.7199444 C43.4272855,14.7001762 42.5743965,14.6035314 41.8258975,14.5200654 C39.5339804,14.2608817 37.8770657,14.076378 37.5325785,16.1366691 C37.0972497,18.7197207 39.5539699,21.8562832 39.5784017,21.8846177 L39.5759585,21.9704998 L39.4962222,21.990268 C39.4962222,21.990268 35.5804843,20.2067325 35.4847564,20.1540171 L35.3603768,20.0663779 L35.2604288,19.9717099 C34.9650272,19.6907811 34.3720028,19.0603935 33.1681854,17.6807892 C30.8338459,15.0120753 28.1019357,14.6606397 25.9963659,15.1680248 C25.4832999,15.2888308 24.8303067,15.6600346 24.4060833,16.0773644 C23.306656,17.1492429 23.4310357,19.3083753 23.4932255,20.0947124 C23.5665206,20.9842837 23.613163,21.0501779 23.6331526,21.1226614 L23.6198262,21.2127168 L23.5420889,21.2215027 L23.4976676,21.1907521 L20.2860074,19.6378461 L20.1638488,19.1194786 C20.0816694,18.7768289 19.9861636,18.3968392 19.8040362,17.9202047 C18.6557455,14.9264128 16.0748678,12.6750286 13.2319043,12.1896082 C11.310683,11.8623339 7.80806316,11.8249938 5.95347373,15.2866343 C5.17832198,16.7319131 5.22496435,18.61429 6.07563232,20.200143 C6.94184774,21.8235558 8.48993017,22.8644641 10.3223089,23.064343 C12.1391403,23.2600487 13.5050954,22.8446958 14.2713628,21.8628726 C15.0442935,20.8722636 15.1886628,19.5236295 14.6400597,18.4253934 C14.0514774,17.2461073 13.1630513,16.619893 11.9281391,16.5168785 C10.9886285,16.4334125 10.291214,16.8199917 10.0402337,17.2153567 C9.96693852,17.3385788 9.83367461,17.5670119 9.83145354,17.8918702 L9.83145354,17.9028526 C9.83145354,18.7880309 10.6510266,19.0296429 10.8176065,19.0408449 C10.868691,19.0408449 11.1152292,19.0342555 11.4417258,18.952986 L11.5994214,18.9026868 L11.7082536,18.8651271 L11.788212,18.8499715 C12.3834574,18.7423443 12.9564923,19.089387 13.1230721,19.6626662 C13.151946,19.7678773 13.1674934,19.8735276 13.1674934,19.9787386 C13.1674934,20.3587283 12.9720397,20.7123604 12.6477642,20.9276147 L12.6610906,20.9230021 L12.6255535,20.9427704 L12.572248,20.9757174 C12.401226,21.0833446 12.2435303,21.1426493 12.0769504,21.1931682 C11.6105268,21.3445052 11.1974086,21.4150119 10.7820694,21.4150119 C9.36502985,21.4128154 7.39050291,20.2069521 7.36385012,17.9423891 C7.35052373,16.6640421 7.99907477,15.4999118 9.14070227,14.7509147 C10.4555729,13.892094 12.7277225,13.5999632 14.8355134,14.8783101 C17.4297175,16.4487878 18.1071424,19.5236295 17.4297175,21.6214803 C16.4457857,24.6592016 13.6783384,26.2823947 10.0246862,25.9595133 C7.43714527,25.7310802 5.03395275,24.3802496 3.60358677,22.3463162 C2.96836212,21.4455429 2.49749631,20.4419747 2.24429487,19.4403832 C1.66015473,17.1494625 2.25095807,14.7157711 2.69072898,13.6373032 C4.09000004,10.2086098 6.76860465,7.25874737 10.6443634,4.86678894 L10.8886806,4.71523234 C19.1332745,-0.295140823 24.9680128,-0.093065363 29.2391211,0.0540982871 C34.2767191,0.227619606 39.6492536,1.94526101 40.3910894,2.18906945 C40.3935326,2.02433402 40.4224064,0.539518685 40.4224064,0.539518685 L40.4446171,0.48899982 L40.5023648,0.473624513 C40.8401888,0.519750434 48.0784181,1.58284307 51.1281627,3.34002098 C51.5055217,3.55966822 51.6920912,3.78810135 51.9255251,4.02532037 C52.7673088,4.88633754 53.8822835,8.47317696 54,9.21338815 L53.9555787,9.28806821 C53.9111574,9.30344352 53.8067673,9.38032005 53.6668402,9.47257189 C52.9560994,9.96458171 51.2925215,11.1155332 49.160299,10.9266366 C47.2435197,10.7597047 44.7403792,9.67245088 41.7219517,7.70660809 C41.8554377,8.0163107 42.483777,9.4879472 42.5903882,9.73614858 L42.6303673,9.78447097 C43.0681393,10.0085112 47.2615103,12.1215176 49.3426484,12.0797846 C51.0211074,12.0468375 52.813507,11.2363392 53.530911,10.8102236 Z M51.5808158,6.67426607 C51.6387856,4.98737527 50.2992612,3.56406117 48.5912621,3.50475641 C47.7650258,3.47620227 46.9765477,3.76613663 46.3726401,4.32404061 C45.7662893,4.8819446 45.4198031,5.63972757 45.3909292,6.4568153 C45.3354026,8.1437061 46.6724839,9.56482373 48.3780398,9.62632496 C49.2087182,9.6548791 49.9949753,9.36494475 50.599105,8.80484429 C51.2032347,8.2469403 51.5497209,7.4913538 51.5808158,6.67426607 Z" fill="#73BA25"></path>
                    <path d="M17.3818182,28.3090152 C17.6683196,28.1704062 18.0253444,28 18.4969697,28 L18.6424242,28 C19.4666667,28 20,28.4993506 20,29.2674101 L20,32.6307492 C20,32.8342962 19.8369146,33 19.6407713,33 L19.4997245,33 C19.2991736,33 19.1404959,32.8342962 19.1404959,32.6307492 L19.1404959,29.3883291 C19.1404959,29.0837924 18.8958678,28.8352367 18.5983471,28.8352367 L17.4016529,28.8352367 C17.1019284,28.8352367 16.8595041,29.0835685 16.8595041,29.3883291 L16.8595041,32.6307492 C16.8595041,32.8342962 16.6964187,33 16.5002755,33 L16.3592287,33 C16.1586777,33 16,32.8342962 16,32.6307492 L16,28.344843 C16,28.1614492 16.1212121,28.0315733 16.2887052,28.0315733 L16.4275482,28.0315733 C16.5597796,28.0315733 16.6567493,28.0897935 16.7096419,28.2039948 L16.8088154,28.3876125 C16.8506887,28.4637467 16.8727273,28.4680013 16.9278237,28.4680013 C17.0512397,28.4680013 17.2033058,28.3918671 17.3818182,28.3090152 Z" fill="#73BA25"></path>
                    <path d="M15,29.1962596 L15,30.194457 C15,30.6205498 14.7583745,30.8729157 14.3585942,30.8729157 C14.3585942,30.8729157 11.9730917,30.8729157 11.8610653,30.8729157 C11.8610653,30.976566 11.8610653,31.625507 11.8610653,31.625507 C11.8610653,31.9970708 12.0653487,32.1910771 12.4541461,32.1910771 L13.8380011,32.1910771 C14.0444811,32.1910771 14.1960461,32.3375394 14.1960461,32.5380802 L14.1960461,32.6507436 C14.1960461,32.8535376 14.0444811,33 13.8380011,33 L12.1510159,33 C11.5271829,33 11,32.4321767 11,31.7654349 L11,29.1894998 C11,28.5315457 11.542559,28 12.210324,28 L12.2125206,28.0045065 L13.7874794,28.0045065 C14.4552444,28.0042812 15,28.5405588 15,29.1962596 Z M14.1345415,30.1065795 C14.1345415,30.0029292 14.1345415,29.3066697 14.1345415,29.3066697 C14.1345415,29.0272645 13.9236683,28.8109509 13.6534871,28.8109509 L12.3399231,28.8109509 C12.0675453,28.8109509 11.8588688,29.0317711 11.8588688,29.3066697 C11.8588688,29.3066697 11.8588688,30.0029292 11.8588688,30.1065795 C11.9643053,30.1065795 14.0291049,30.1065795 14.1345415,30.1065795 Z" fill="#73BA25"></path>
                    <path d="M5.75096525,31.5022813 C5.75096525,31.7062913 5.85135135,31.8824917 6,31.9737422 L5.82239382,32.414569 C5.78957529,32.414569 5.75289575,32.4799652 5.75289575,32.5405816 L5.75289575,34.6458611 C5.75289575,34.8392253 5.61196911,35 5.43822394,35 L5.31467181,35 C5.13706564,35 5,34.8413979 5,34.6458611 L5,28.3039511 C5,28.1347031 5.11196911,28 5.24517375,28 L5.38610039,28 C5.50579151,28 5.6023166,28.104069 5.62355212,28.1583848 L5.71621622,28.3647848 C5.73938224,28.4017195 5.77992278,28.4234458 5.82239382,28.4234458 L5.9980695,28.8492815 C5.84942085,28.9383594 5.75096525,29.1145597 5.75096525,29.3209597 L5.75096525,31.5022813 L5.75096525,31.5022813 Z" fill="#73BA25"></path>
                    <path d="M8.67145938,28.0024488 C9.48023005,28.0024488 10,28.4986643 10,29.262244 L10,31.742431 C10,32.5191451 9.49101366,33 8.67145938,33 L8.52695902,33 C8.06326384,33 7.71387491,32.8354853 7.4356578,32.7039181 C7.26312006,32.621772 7.11646298,32.554764 7,32.554764 L7.1984184,32.1030721 C7.27390367,32.1451469 7.36017254,32.1698575 7.45075485,32.1698575 L8.62185478,32.1698575 C8.91732566,32.1698575 9.15240834,31.9227516 9.15240834,31.6199911 L9.15240834,29.3849065 C9.15240834,29.0774711 8.91948239,28.8372663 8.62185478,28.8372663 L7.45075485,28.8372663 C7.35801582,28.8372663 7.27174694,28.8615316 7.19626168,28.9016028 L7,28.4652716 C7.11646298,28.4652716 7.26312006,28.3942565 7.43134436,28.3096616 C7.71387491,28.1716385 8.06110712,28 8.5248023,28 L8.5248023,28.0024488 L8.67145938,28.0024488 L8.67145938,28.0024488 Z" fill="#73BA25"></path>
                    <path d="M4,29.1905729 L4,31.7889039 C4,32.4564727 3.46961326,33 2.8198895,33 L1.17569061,33 C0.528176796,33 0,32.4564727 0,31.7889039 L0,29.1905729 C0,28.5320253 0.545856354,28.0000001 1.21767956,28.0000001 L2.78232044,28.0000001 C3.45414365,27.9997745 4,28.5342806 4,29.1905729 Z M3.13370166,31.6871899 L3.13370166,29.319125 C3.13370166,29.0439784 2.90607735,28.8116825 2.63867403,28.8116825 L1.35690608,28.8116825 C1.08508287,28.8116825 0.861878453,29.0394678 0.861878453,29.319125 L0.861878453,31.6871899 C0.861878453,31.9713577 1.07403315,32.1923771 1.34585635,32.1923771 L2.63867403,32.1923771 C2.91270718,32.1923771 3.13370166,31.9645918 3.13370166,31.6871899 Z" fill="#73BA25"></path>
                </g>
            </g>
        </g>
    </g>
</svg>