<?xml version="1.0" encoding="UTF-8"?>
<svg width="160px" height="70px" viewBox="0 0 160 70" version="1.1" xmlns="http://www.w3.org/2000/svg" xmlns:xlink="http://www.w3.org/1999/xlink">
    <!-- Generator: Hyder A. - https://toggle.me -->
    <title>oscommerce</title>
    <desc>Created with Sketch.</desc>
    <defs>
        <radialGradient cx="49.9974253%" cy="49.9991418%" fx="49.9974253%" fy="49.9991418%" r="50%" gradientTransform="translate(0.499974,0.499991),scale(0.975000,1.000000),translate(-0.499974,-0.499991)" id="radialGradient-1">
            <stop stop-color="#E3A4A3" offset="0%"></stop>
            <stop stop-color="#CD5853" offset="100%"></stop>
        </radialGradient>
        <radialGradient cx="49.997982%" cy="49.9993273%" fx="49.997982%" fy="49.9993273%" r="50%" gradientTransform="translate(0.499980,0.499993),scale(1.000000,0.977778),translate(-0.499980,-0.499993)" id="radialGradient-2">
            <stop stop-color="#A2ACD6" offset="0%"></stop>
            <stop stop-color="#5367B0" offset="100%"></stop>
        </radialGradient>
        <radialGradient cx="49.9983885%" cy="49.9994628%" fx="49.9983885%" fy="49.9994628%" r="50%" id="radialGradient-3">
            <stop stop-color="#91CCA0" offset="7.82%"></stop>
            <stop stop-color="#04B261" offset="100%"></stop>
        </radialGradient>
    </defs>
    <g id="technologies" stroke="none" stroke-width="1" fill="none" fill-rule="evenodd">
        <g id="Ecommerce" transform="translate(-224.000000, -138.000000)">
            <g id="oscommerce" transform="translate(224.000000, 138.000000)">
                <rect id="Rectangle" fill="#FFFFFF" x="0" y="0" width="160" height="70"></rect>
                <g id="Group" transform="translate(20.000000, 23.000000)" fill-rule="nonzero">
                    <ellipse id="Oval" fill="url(#radialGradient-1)" cx="4.94230769" cy="4.42725" rx="4.48153846" ry="4.3695"></ellipse>
                    <g transform="translate(4.615385, 0.000000)" id="Oval" fill="#FFFFFF">
                        <ellipse fill-opacity="0" transform="translate(2.435993, 2.566095) rotate(-44.995949) translate(-2.435993, -2.566095) " cx="2.43599338" cy="2.56609485" rx="1.22161313" ry="1.99737208"></ellipse>
                        <ellipse opacity="0.1667" transform="translate(2.490460, 2.512833) rotate(-44.995949) translate(-2.490460, -2.512833) " cx="2.49046038" cy="2.51283338" rx="1" ry="1.37483403"></ellipse>
                        <ellipse opacity="0.3333" transform="translate(2.570103, 2.433934) rotate(-45.000000) translate(-2.570103, -2.433934) " cx="2.53086805" cy="2.43393406" rx="1" ry="1"></ellipse>
                        <ellipse opacity="0.5" transform="translate(3.158605, 2.378745) rotate(-44.991897) translate(-3.158605, -2.378745) " cx="2.74078511" cy="2.0080152" rx="1" ry="1"></ellipse>
                    </g>
                </g>
                <g id="Group" transform="translate(23.000000, 25.000000)" fill-rule="nonzero">
                    <ellipse id="Oval" fill="url(#radialGradient-2)" cx="5.511" cy="6.29625" rx="5.45086667" ry="5.57475"></ellipse>
                    <g transform="translate(5.133333, 0.750000)" id="Oval" fill="#FFFFFF">
                        <ellipse fill-opacity="0" transform="translate(2.939863, 3.170798) rotate(-45.008103) translate(-2.939863, -3.170798) " cx="2.93986337" cy="3.1707984" rx="1.48645243" ry="2.54772559"></ellipse>
                        <ellipse opacity="0.125" transform="translate(2.989876, 3.122183) rotate(-45.000000) translate(-2.989876, -3.122183) " cx="2.98987627" cy="3.12218295" rx="1.13958907" ry="1.95223128"></ellipse>
                        <ellipse opacity="0.25" transform="translate(3.039743, 3.071359) rotate(-45.000000) translate(-3.039743, -3.071359) " cx="3.03974293" cy="3.07135875" rx="1" ry="1.35748698"></ellipse>
                        <ellipse opacity="0.375" transform="translate(3.128186, 2.982702) rotate(-45.008103) translate(-3.128186, -2.982702) " cx="3.0733152" cy="2.98269468" rx="1" ry="1"></ellipse>
                        <ellipse opacity="0.5" transform="translate(3.659130, 2.918486) rotate(-44.955437) translate(-3.659130, -2.918486) " cx="3.25877211" cy="2.58354061" rx="1" ry="1"></ellipse>
                    </g>
                </g>
                <g id="Group" transform="translate(16.000000, 30.000000)" fill-rule="nonzero">
                    <circle id="Oval" fill="url(#radialGradient-3)" cx="7.13557895" cy="6.89684211" r="6.85852632"></circle>
                    <g transform="translate(6.631579, 0.000000)" id="Oval" fill="#FFFFFF">
                        <ellipse fill-opacity="0" transform="translate(3.728291, 3.974358) rotate(-45.000000) translate(-3.728291, -3.974358) " cx="3.72829093" cy="3.97435787" rx="1.87008733" ry="3.13449626"></ellipse>
                        <ellipse opacity="0.1" transform="translate(3.777733, 3.925394) rotate(-45.000000) translate(-3.777733, -3.925394) " cx="3.77773303" cy="3.92539368" rx="1.52082752" ry="2.5487124"></ellipse>
                        <ellipse opacity="0.2" transform="translate(3.827838, 3.875166) rotate(-45.000000) translate(-3.827838, -3.875166) " cx="3.82783829" cy="3.8751664" rx="1.17156771" ry="1.96292854"></ellipse>
                        <ellipse opacity="0.3" transform="translate(3.877733, 3.826497) rotate(-45.000000) translate(-3.877733, -3.826497) " cx="3.87773297" cy="3.82649695" rx="1" ry="1.37714469"></ellipse>
                        <ellipse opacity="0.4" transform="translate(3.947633, 3.755875) rotate(-45.000000) translate(-3.947633, -3.755875) " cx="3.91994421" cy="3.75587501" rx="1" ry="1"></ellipse>
                        <ellipse opacity="0.5" transform="translate(4.452080, 3.667609) rotate(-45.000000) translate(-4.452080, -3.667609) " cx="4.07513163" cy="3.37392292" rx="1" ry="1"></ellipse>
                    </g>
                </g>
                <path d="M43.0673884,36.8716688 C43.0673884,38.137931 41.9159302,39.1671147 40.5,39.1671147 C39.0840698,39.1671147 37.9326116,38.137931 37.9326116,36.8716688 L37.9326116,34.1283312 C37.9326116,32.8627602 39.0840698,31.8335765 40.5,31.8335765 C41.9159302,31.8335765 43.0673884,32.8627602 43.0673884,34.1283312 L43.0673884,36.8716688 Z M44,34.1283312 C44,32.403118 42.4294079,31 40.5,31 C38.5698188,31 37,32.403118 37,34.1283312 L37,36.8716688 C37,38.596882 38.5705921,40 40.5,40 C42.4294079,40 44,38.596882 44,36.8716688 L44,34.1283312 Z" id="Shape" fill="#A9AFB6" fill-rule="nonzero"></path>
                <path d="M69.1546826,36.8624085 C69.1546826,38.6399899 67.7397404,40.0873517 66.0007015,40.0873517 C64.2616626,40.0873517 62.8460189,38.6399899 62.8460189,36.8624085 L62.8460189,33.1375915 C62.8460189,31.3592527 64.2609611,29.9126483 66.0007015,29.9126483 C67.7397404,29.9126483 69.1546826,31.3592527 69.1546826,33.1375915 L69.1546826,36.8624085 Z M70,33.1375915 C70,30.8563494 68.2055419,29 66,29 C63.7944581,29 62,30.8563494 62,33.1375915 L62,36.8624085 C62,39.1436506 63.7944581,41 66,41 C68.2055419,41 70,39.1436506 70,36.8624085 L70,33.1375915 Z" id="Shape" fill="#000000" fill-rule="nonzero"></path>
                <path d="M59.0120619,38.4545853 C58.4780412,38.8847376 57.8235052,39.1404076 57.1148454,39.1404076 C55.3258763,39.1404076 53.8703093,37.5237756 53.8703093,35.5382382 L53.8703093,31.4596253 C53.8703093,29.4733757 55.3258763,27.8581681 57.1148454,27.8581681 C57.8516495,27.8581681 58.5292784,28.1344911 59.0748454,28.595979 C59.3635052,28.4528323 59.6738144,28.3460064 60,28.2847595 C59.256701,27.4913991 58.2384536,27 57.1148454,27 C54.846701,27 53,29.0012052 53,31.4603375 L53,35.5389504 C53,37.9980826 54.8459794,40 57.1148454,40 C58.2038144,40 59.1924742,39.5356634 59.9292784,38.7836091 C59.6052577,38.7152405 59.2971134,38.6027172 59.0120619,38.4545853 Z" id="Shape" fill="#000000" fill-rule="nonzero"></path>
                <path d="M84.7768828,29 C83.1237791,29 81.6928667,29.937642 80.9996297,31.2971472 C80.3071333,29.9383994 78.8769615,29 77.2231172,29 C75.8699718,29 74.6664352,29.6293865 73.8924686,30.6026256 L73.8924686,29 L73,29 L73,33.1375915 L73,41 L73.8924686,41 L73.8924686,33.1375915 C73.8924686,31.3592527 75.3863352,29.9126483 77.2231172,29.9126483 C79.0598991,29.9126483 80.5537657,31.3592527 80.5537657,33.1375915 L80.5537657,41 L81.4462343,41 L81.4462343,33.1375915 C81.4462343,31.3592527 82.9401009,29.9126483 84.7768828,29.9126483 C86.6129241,29.9126483 88.1067907,31.3592527 88.1067907,33.1375915 L88.1067907,41 L89,41 L89,33.1375915 C89,30.8563494 87.1054483,29 84.7768828,29 Z" id="Shape" fill="#000000" fill-rule="nonzero"></path>
                <path d="M102.777232,29 C101.123976,29 99.6936715,29.937642 98.9996295,31.2971472 C98.307069,29.9383994 96.8767649,29 95.2227674,29 C93.868756,29 92.6651081,29.6293865 91.8918106,30.6026256 L91.8918106,29 L91,29 L91,33.1375915 L91,41 L91.8918106,41 L91.8918106,33.1375915 C91.8918106,31.3592527 93.3865561,29.9126483 95.2227674,29.9126483 C97.0597194,29.9126483 98.5529836,31.3592527 98.5529836,33.1375915 L98.5529836,41 L99.4462755,41 L99.4462755,33.1375915 C99.4462755,31.3592527 100.93954,29.9126483 102.776492,29.9126483 C104.612703,29.9126483 106.106708,31.3592527 106.106708,33.1375915 L106.106708,41 L107,41 L107,33.1375915 C107.00074,30.8563494 105.106013,29 102.777232,29 Z" id="Shape" fill="#000000" fill-rule="nonzero"></path>
                <path d="M116.992283,33.0422961 C116.995089,32.9312689 116.998597,32.8187311 116.998597,32.6993958 C116.998597,32.663142 116.978253,32.608006 116.949491,32.5453172 C116.675202,30.6638973 115.171168,29.1971299 113.309365,29.0490937 C113.261663,29.0317221 113.210452,29.010574 113.166959,29 L113.166959,29.0415408 C113.110838,29.0392749 113.056121,29.0332326 112.999298,29.0332326 C110.793757,29.0332326 109,30.8844411 109,33.1593656 L109,36.8738671 C109,39.1487915 110.794458,41 112.999298,41 C113.954051,41 114.955805,40.4743202 115.53946,40.1299094 C115.336022,39.9169184 115.166959,39.668429 115.031568,39.3904834 C114.592424,39.6268882 113.840407,40.0898792 112.999298,40.0898792 C111.26026,40.0898792 109.844616,38.6465257 109.844616,36.8738671 L109.844616,35.7930514 L114.294984,35.7930514 C116.264118,35.7930514 116.91161,35.1661631 116.990179,33.1593656 L117,33.1593656 C116.998597,33.1193353 116.992985,33.0808157 116.992283,33.0422961 Z M114.293581,34.8814199 L109.843213,34.8814199 L109.843213,33.1586103 C109.843213,31.3851964 111.258857,29.9425982 112.997895,29.9425982 C114.709576,29.9425982 116.103472,31.3406344 116.147667,33.0747734 C116.114697,34.6132931 115.822168,34.8814199 114.293581,34.8814199 Z" id="Shape" fill="#000000" fill-rule="nonzero"></path>
                <path d="M144.992283,33.0422961 C144.995089,32.9312689 144.998597,32.8187311 144.998597,32.6993958 C144.998597,32.663142 144.977552,32.608006 144.949491,32.5453172 C144.6745,30.6638973 143.171168,29.1971299 141.308664,29.0490937 C141.261663,29.0317221 141.210452,29.010574 141.166959,29 L141.166959,29.0415408 C141.110838,29.0392749 141.056121,29.0332326 140.999298,29.0332326 C138.793055,29.0332326 137,30.8844411 137,33.1593656 L137,36.8738671 C137,39.1487915 138.793757,41 140.999298,41 C141.954051,41 142.955805,40.4743202 143.53946,40.1299094 C143.336022,39.9169184 143.166959,39.668429 143.031568,39.3904834 C142.592424,39.6268882 141.840407,40.0898792 140.999298,40.0898792 C139.26026,40.0898792 137.844616,38.6465257 137.844616,36.8738671 L137.844616,35.7930514 L142.294984,35.7930514 C144.264118,35.7930514 144.91161,35.1661631 144.990179,33.1593656 L145,33.1593656 C144.998597,33.1193353 144.992985,33.0808157 144.992283,33.0422961 Z M142.293581,34.8814199 L137.843213,34.8814199 L137.843213,33.1586103 C137.843213,31.3851964 139.258857,29.9425982 140.997895,29.9425982 C142.709576,29.9425982 144.103472,31.3406344 144.147667,33.0747734 C144.114697,34.6132931 143.822168,34.8814199 142.293581,34.8814199 Z" id="Shape" fill="#000000" fill-rule="nonzero"></path>
                <path d="M134.095303,39.4958344 C133.557634,39.8669528 132.901545,40.0873517 132.193233,40.0873517 C130.369864,40.0873517 128.885573,38.6399899 128.885573,36.8624085 L128.885573,33.1375915 C128.885573,31.3592527 130.369864,29.9126483 132.193233,29.9126483 C132.969213,29.9126483 133.681202,30.1762181 134.246821,30.6139864 C134.480719,30.4117647 134.734475,30.2337793 135,30.0724565 C134.255648,29.4082302 133.272985,29 132.193233,29 C129.881475,29 128,30.8563494 128,33.1375915 L128,36.8624085 C128,39.1436506 129.882211,41 132.193233,41 C133.193548,41 134.110749,40.6523605 134.8323,40.0729614 C134.571188,39.9017925 134.326258,39.7086594 134.095303,39.4958344 Z" id="Shape" fill="#000000" fill-rule="nonzero"></path>
                <path d="M124.194264,29 C122.850599,29 121.655495,29.6293865 120.886951,30.6026256 L120.886951,29 L120,29 L120,33.1375915 L120,41 L120.886951,41 L120.886951,33.1375915 C120.886951,31.3592527 122.370351,29.9126483 124.194264,29.9126483 C124.970162,29.9126483 125.682076,30.1762181 126.246901,30.6139864 C126.481509,30.4117647 126.735238,30.2337793 127,30.0724565 C126.256461,29.4082302 125.273902,29 124.194264,29 Z" id="Shape" fill="#000000" fill-rule="nonzero"></path>
                <path d="M50.9890447,37.4121803 C50.9890447,36.9850242 50.775351,36.6961063 50.6171896,36.3926734 C50.4583253,36.0885493 49.9578324,35.6620843 49.2801987,35.4353736 C48.5758533,35.1996774 49.032061,35.3510483 47.9692165,35.0379387 C46.7671899,34.6584748 46.6462843,34.5091775 46.5766933,34.4607941 C46.2582617,34.2299363 46.1120503,33.7108517 46.1120503,33.3099608 C46.1120503,32.9256586 46.2659941,32.6070194 46.557714,32.3554259 C46.964013,32.0416251 47.4785647,31.8328853 48.0113929,31.8328853 C48.7396382,31.8328853 49.3821249,32.1688042 49.810918,32.6844328 L50.8308833,32.6844328 C50.3367168,31.7561631 49.3828279,31.1071346 48.2686687,31.017971 C48.265857,31.017971 48.2623423,31.017971 48.2588276,31.0172798 C48.1765837,31.0110591 48.0957456,31 48.0113929,31 C47.9931164,31 47.975543,31.003456 47.9572665,31.0041471 C47.928446,31.003456 47.9010314,31 47.8722109,31 C47.0230599,31 46.4311848,31.2992858 45.9616213,31.7402657 C45.6684955,32.0153598 45.3050757,32.6775209 45.3015611,32.6844328 L45.3071846,32.6844328 C45.2839876,32.7480224 45.1848731,33.2000614 45.1848731,33.3811535 C45.1848731,33.7896475 45.2706317,34.1573612 45.4400401,34.4732355 C45.6087456,34.7891099 45.8498539,35.0434682 46.1556326,35.2321634 C46.4768759,35.4298441 47.1411538,35.6786729 48.1315955,35.9724292 C48.8605438,36.1846248 49.3153457,36.3594962 49.520604,36.5115583 C49.8425503,36.7514016 50.1321614,37.0893941 50.1321614,37.5151678 C50.1321614,37.7308194 50.0632733,37.9278089 49.96205,38.1095922 C49.6197185,38.6307503 49.0728315,39.0060671 48.4303448,39.1235696 C48.3031128,39.139467 48.1702572,39.1498349 48.0289664,39.1498349 C47.7477906,39.1498349 47.4919206,39.1090546 47.2585447,39.0364795 C47.2044183,39.0185086 47.150292,38.9991552 47.0982744,38.9777283 C47.0631275,38.9632133 47.0293864,38.9459335 46.9956453,38.9307273 C46.9204307,38.8940942 46.8459192,38.8553875 46.7756252,38.8118424 C46.6926783,38.7586207 46.6111374,38.7040166 46.5373287,38.6390446 C46.5260817,38.6279856 46.5155376,38.6245296 46.5049935,38.6141617 C46.2638852,38.4109515 46.0642504,38.159358 45.9222566,37.8752784 L45,37.8752784 C45.3029669,38.7510176 45.9925506,39.4456647 46.8648985,39.7802012 C46.893719,39.7926427 46.9211337,39.8050841 46.9506571,39.8168343 C47.0539893,39.8534675 47.1608361,39.8783504 47.2690887,39.9032332 C47.3182945,39.9149835 47.3618768,39.9301897 47.4131913,39.938484 C47.6072027,39.9751171 47.8054316,40 48.0106899,40 C48.2918657,40 48.5610916,39.9550726 48.8211792,39.8873358 C49.346275,39.7767453 49.7933445,39.565932 50.1398937,39.2403809 C50.5328369,38.8699025 50.9053948,38.3452884 50.9820153,37.9803395 C51.0178652,37.7384225 50.9890447,37.6119346 50.9890447,37.4121803 Z" id="Shape" fill="#A9AFB6" fill-rule="nonzero"></path>
                <g id="Group" transform="translate(63.000000, 41.000000)" fill-rule="nonzero" fill="#A9AFB6">
                    <path d="M0.730790698,2.481 C0.730790698,1.85325 0.898232558,1.36125 1.23386047,1.005 C1.56874419,0.64875 2.00186047,0.47175 2.53246512,0.47175 C2.88,0.47175 3.19255814,0.555 3.47162791,0.72225 C3.74995349,0.8895 3.9627907,1.122 4.10865116,1.42125 C4.25451163,1.719 4.32818605,2.05875 4.32818605,2.43675 C4.32818605,2.8215 4.2507907,3.165 4.09674419,3.46725 C3.94344186,3.77025 3.72539535,3.99975 3.44260465,4.15575 C3.16055814,4.3125 2.85544186,4.38975 2.52948837,4.38975 C2.17525581,4.38975 1.85897674,4.3035 1.57990698,4.13175 C1.30083721,3.96 1.08948837,3.72375 0.945860465,3.42675 C0.802232558,3.12825 0.730790698,2.81325 0.730790698,2.481 Z M1.24427907,2.49225 C1.24427907,2.949 1.36632558,3.30975 1.60967442,3.5715 C1.85376744,3.83475 2.15888372,3.96525 2.52651163,3.96525 C2.90083721,3.96525 3.20967442,3.83325 3.4507907,3.56775 C3.69265116,3.30225 3.81395349,2.9265 3.81395349,2.4375 C3.81395349,2.13 3.76260465,1.86 3.65916279,1.62975 C3.55572093,1.40025 3.40390698,1.22175 3.2052093,1.09425 C3.00576744,0.96825 2.78251163,0.9045 2.53469767,0.9045 C2.18269767,0.9045 1.87981395,1.02675 1.62604651,1.2705 C1.37153488,1.515 1.24427907,1.9215 1.24427907,2.49225 Z" id="Shape"></path>
                    <path d="M4.9012093,5.36925 L4.9012093,1.58325 L5.32167442,1.58325 L5.32167442,1.94775 C5.42065116,1.8075 5.53227907,1.70175 5.65730233,1.632 C5.78232558,1.56225 5.93339535,1.52625 6.11125581,1.52625 C6.34344186,1.52625 6.54883721,1.587 6.72669767,1.707 C6.90381395,1.827 7.03851163,1.99575 7.12855814,2.214 C7.21934884,2.433 7.26474419,2.6715 7.26474419,2.93175 C7.26474419,3.2115 7.21413953,3.4635 7.1144186,3.68775 C7.01395349,3.91125 6.86883721,4.0815 6.6775814,4.2015 C6.48632558,4.32075 6.28613953,4.38 6.07404651,4.38 C5.92,4.38 5.7815814,4.347 5.65953488,4.28025 C5.53674419,4.215 5.43702326,4.13175 5.35813953,4.0305 L5.35813953,5.3685 L4.9012093,5.36925 L4.9012093,5.36925 Z M5.31274419,2.96775 C5.31274419,3.31725 5.38344186,3.576 5.52632558,3.7425 C5.66846512,3.9105 5.84037209,3.99375 6.04204651,3.99375 C6.24744186,3.99375 6.42306977,3.90675 6.56967442,3.73425 C6.71553488,3.561 6.7892093,3.29175 6.7892093,2.9295 C6.7892093,2.58375 6.71702326,2.3235 6.57413953,2.1525 C6.43125581,1.97925 6.26083721,1.89375 6.06213953,1.89375 C5.86493023,1.89375 5.6907907,1.9845 5.53897674,2.169 C5.38790698,2.35275 5.31274419,2.619 5.31274419,2.96775 Z" id="Shape"></path>
                    <path d="M9.69004651,3.42975 L10.1655814,3.495 C10.0904186,3.7755 9.95125581,3.99375 9.74883721,4.1475 C9.54567442,4.30275 9.28595349,4.38075 8.97116279,4.38075 C8.57376744,4.38075 8.25897674,4.25775 8.02604651,4.0125 C7.79311628,3.76575 7.67702326,3.42075 7.67702326,2.97675 C7.67702326,2.5185 7.79460465,2.16075 8.02976744,1.90725 C8.26493023,1.65375 8.5707907,1.527 8.94511628,1.527 C9.30902326,1.527 9.60595349,1.6515 9.83590698,1.899 C10.0658605,2.148 10.1812093,2.49825 10.1812093,2.9475 C10.1812093,2.9745 10.1812093,3.01575 10.1782326,3.0705 L8.15330233,3.0705 C8.16967442,3.36975 8.25451163,3.59775 8.40632558,3.756 C8.55813953,3.91425 8.74716279,3.99375 8.97413953,3.99375 C9.14306977,3.99375 9.28744186,3.94875 9.40651163,3.85875 C9.52483721,3.7695 9.62009302,3.62625 9.69004651,3.42975 Z M8.1815814,2.68425 L9.69525581,2.68425 C9.6744186,2.4585 9.61711628,2.28975 9.52186047,2.175 C9.37525581,2.00025 9.18474419,1.91175 8.95181395,1.91175 C8.74046512,1.91175 8.56334884,1.9815 8.41972093,2.12175 C8.27609302,2.26275 8.19646512,2.45025 8.1815814,2.68425 Z" id="Shape"></path>
                    <path d="M10.7408372,4.32375 L10.7408372,1.58325 L11.1523721,1.58325 L11.1523721,1.974 C11.3525581,1.6755 11.639814,1.527 12.0178605,1.527 C12.1815814,1.527 12.331907,1.55625 12.4695814,1.6155 C12.6065116,1.6755 12.7099535,1.7535 12.7784186,1.8495 C12.8461395,1.94475 12.8937674,2.05875 12.9213023,2.19225 C12.9376744,2.27775 12.9466047,2.42775 12.9466047,2.643 L12.9466047,4.3245 L12.4889302,4.3245 L12.4889302,2.6625 C12.4889302,2.47425 12.4710698,2.33325 12.4353488,2.24025 C12.3996279,2.14575 12.3356279,2.07225 12.244093,2.016 C12.1525581,1.9605 12.0453953,1.93275 11.9226047,1.93275 C11.7261395,1.93275 11.5564651,1.995 11.4135814,2.12025 C11.2706977,2.2455 11.1992558,2.48325 11.1992558,2.83275 L11.1992558,4.3245 L10.7408372,4.3245 L10.7408372,4.32375 Z" id="Shape"></path>
                    <path d="M15.0102326,3.10875 L15.4775814,3.0705 C15.499907,3.26175 15.5512558,3.417 15.6316279,3.5385 C15.712,3.66 15.8370233,3.759 16.0066977,3.83325 C16.1771163,3.90975 16.3676279,3.94575 16.5797209,3.94575 C16.768,3.94575 16.9346977,3.918 17.0783256,3.861 C17.2234419,3.804 17.3298605,3.72525 17.4005581,3.627 C17.4705116,3.528 17.5062326,3.41925 17.5062326,3.3015 C17.5062326,3.183 17.472,3.07725 17.4027907,2.9895 C17.3343256,2.901 17.2219535,2.82525 17.0656744,2.766 C16.9659535,2.7255 16.744186,2.664 16.4011163,2.58075 C16.0580465,2.4975 15.8184186,2.418 15.6814884,2.34375 C15.5028837,2.24775 15.3704186,2.1315 15.2826047,1.98975 C15.1947907,1.85025 15.1508837,1.692 15.1508837,1.5165 C15.1508837,1.326 15.2044651,1.14675 15.3116279,0.98025 C15.4187907,0.81225 15.5750698,0.68625 15.7804651,0.60075 C15.9858605,0.5145 16.2143256,0.471 16.4658605,0.471 C16.7434419,0.471 16.9867907,0.51675 17.1988837,0.606 C17.4102326,0.6975 17.5724651,0.8295 17.6870698,1.005 C17.8016744,1.1805 17.8626977,1.38 17.8701395,1.602 L17.3931163,1.63875 C17.367814,1.40025 17.2822326,1.2195 17.1348837,1.09725 C16.9882791,0.97575 16.7717209,0.9135 16.4844651,0.9135 C16.1860465,0.9135 15.9687442,0.969 15.831814,1.0815 C15.6948837,1.1925 15.6271628,1.32675 15.6271628,1.4835 C15.6271628,1.62 15.6755349,1.7325 15.7722791,1.82025 C15.8675349,1.908 16.1146047,1.998 16.5164651,2.091 C16.9168372,2.18325 17.1929302,2.26275 17.3432558,2.3325 C17.5605581,2.4345 17.7220465,2.562 17.8254884,2.71875 C17.9296744,2.87325 17.9810233,3.0525 17.9810233,3.2565 C17.9810233,3.4575 17.9244651,3.64725 17.8106047,3.825 C17.6974884,4.00275 17.5345116,4.1415 17.3209302,4.2405 C17.1073488,4.3395 16.8684651,4.389 16.6020465,4.389 C16.2634419,4.389 15.9806512,4.3395 15.752186,4.239 C15.5237209,4.13925 15.3451163,3.99 15.2156279,3.789 C15.0853953,3.5895 15.0176744,3.36225 15.0102326,3.10875 Z" id="Shape"></path>
                    <path d="M18.4416744,2.9535 C18.4416744,2.44725 18.5808372,2.07375 18.8606512,1.83 C19.0935814,1.62825 19.3778605,1.527 19.7142326,1.527 C20.0870698,1.527 20.3914419,1.65 20.6288372,1.896 C20.8647442,2.142 20.9830698,2.481 20.9830698,2.91375 C20.9830698,3.26625 20.9324651,3.54225 20.8267907,3.74325 C20.7218605,3.945 20.5700465,4.10175 20.3698605,4.21275 C20.1696744,4.32375 19.9508837,4.38 19.7149767,4.38 C19.3346977,4.38 19.0273488,4.25775 18.7936744,4.0125 C18.5585116,3.768 18.4416744,3.414 18.4416744,2.9535 Z M18.9179535,2.952 C18.9179535,3.3 18.9938605,3.561 19.1449302,3.7335 C19.2952558,3.90675 19.4857674,3.9945 19.7149767,3.9945 C19.9412093,3.9945 20.1309767,3.90675 20.2813023,3.73275 C20.4316279,3.558 20.5067907,3.294 20.5067907,2.937 C20.5067907,2.601 20.4316279,2.34525 20.279814,2.172 C20.1287442,1.99875 19.9397209,1.91175 19.7149767,1.91175 C19.4857674,1.91175 19.296,1.998 19.1449302,2.1705 C18.9931163,2.34375 18.9179535,2.604 18.9179535,2.952 Z" id="Shape"></path>
                    <path d="M23.3093953,4.32375 L23.3093953,3.92025 C23.0980465,4.22625 22.8093023,4.38 22.4453953,4.38 C22.2853953,4.38 22.1350698,4.3485 21.995907,4.287 C21.856,4.2255 21.7533023,4.1475 21.6855814,4.0545 C21.6178605,3.96075 21.5702326,3.846 21.5434419,3.711 C21.5248372,3.6195 21.515907,3.47475 21.515907,3.2775 L21.515907,1.58325 L21.9735814,1.58325 L21.9735814,3.10275 C21.9735814,3.345 21.9825116,3.5085 22.0011163,3.5925 C22.0301395,3.714 22.091907,3.81075 22.1871628,3.87975 C22.2809302,3.95025 22.3977674,3.984 22.5376744,3.984 C22.6768372,3.984 22.8055814,3.9495 22.9276279,3.8775 C23.0496744,3.8055 23.1352558,3.70875 23.1873488,3.58575 C23.2372093,3.46275 23.2632558,3.285 23.2632558,3.05025 L23.2632558,1.5825 L23.7216744,1.5825 L23.7216744,4.323 L23.3093953,4.32375 L23.3093953,4.32375 Z" id="Shape"></path>
                    <path d="M24.4308837,4.32375 L24.4308837,1.58325 L24.8424186,1.58325 L24.8424186,2.004 C24.9495814,1.8105 25.0463256,1.6815 25.1363721,1.61925 C25.2271628,1.5585 25.3253953,1.527 25.4333023,1.527 C25.5888372,1.527 25.7466047,1.575 25.908093,1.6725 L25.7436279,2.0985 C25.6327442,2.037 25.5196279,2.007 25.408,2.007 C25.3075349,2.007 25.2174884,2.037 25.1378605,2.09775 C25.0589767,2.15925 25.0009302,2.24325 24.9674419,2.352 C24.9146047,2.517 24.8893023,2.697 24.8893023,2.892 L24.8893023,4.32375 L24.4308837,4.32375 L24.4308837,4.32375 Z" id="Shape"></path>
                    <path d="M27.9709767,3.31575 L28.4189767,3.3825 C28.3698605,3.69375 28.2426047,3.93825 28.0379535,4.1145 C27.8340465,4.2915 27.5817674,4.38 27.284093,4.38 C26.9112558,4.38 26.612093,4.2585 26.3851163,4.01475 C26.1581395,3.77025 26.0457674,3.41925 26.0457674,2.964 C26.0457674,2.66925 26.0933953,2.412 26.1908837,2.19075 C26.2891163,1.9695 26.4364651,1.803 26.635907,1.69275 C26.8353488,1.5825 27.051907,1.527 27.2855814,1.527 C27.5810233,1.527 27.8228837,1.6035 28.0104186,1.75275 C28.1986977,1.90275 28.3192558,2.1165 28.3713488,2.39325 L27.9233488,2.45925 C27.880186,2.27775 27.8050233,2.142 27.6963721,2.0505 C27.5877209,1.959 27.4574884,1.9125 27.304186,1.9125 C27.0727442,1.9125 26.8837209,1.99575 26.7386047,2.1615 C26.5942326,2.328 26.5213023,2.59125 26.5213023,2.9505 C26.5213023,3.315 26.592,3.58125 26.731907,3.747 C26.8725581,3.912 27.0563721,3.9945 27.2826047,3.9945 C27.464186,3.9945 27.616,3.939 27.7373023,3.828 C27.8608372,3.71625 27.9382326,3.54675 27.9709767,3.31575 Z" id="Shape"></path>
                    <path d="M30.6708837,3.42975 L31.1471628,3.495 C31.0712558,3.7755 30.9328372,3.99375 30.7296744,4.1475 C30.5265116,4.30275 30.2675349,4.38075 29.952,4.38075 C29.5546047,4.38075 29.239814,4.25775 29.0068837,4.0125 C28.7732093,3.76575 28.6571163,3.42075 28.6571163,2.97675 C28.6571163,2.5185 28.7746977,2.16075 29.0098605,1.90725 C29.2450233,1.65375 29.5508837,1.527 29.9259535,1.527 C30.2891163,1.527 30.5867907,1.6515 30.816,1.899 C31.0466977,2.148 31.1613023,2.49825 31.1613023,2.9475 C31.1613023,2.9745 31.1613023,3.01575 31.1583256,3.0705 L29.1326512,3.0705 C29.1497674,3.36975 29.2338605,3.59775 29.3864186,3.756 C29.5382326,3.91425 29.7272558,3.99375 29.9542326,3.99375 C30.1231628,3.99375 30.2675349,3.94875 30.3866047,3.85875 C30.5064186,3.7695 30.6009302,3.62625 30.6708837,3.42975 Z M29.1624186,2.68425 L30.6753488,2.68425 C30.6552558,2.4585 30.5972093,2.28975 30.5026977,2.175 C30.356093,2.00025 30.1663256,1.91175 29.9326512,1.91175 C29.7220465,1.91175 29.5449302,1.9815 29.4005581,2.12175 C29.2569302,2.26275 29.1780465,2.45025 29.1624186,2.68425 Z" id="Shape"></path>
                    <polygon id="Shape" points="33.2539535 4.32375 33.2539535 0.53775 35.9635349 0.53775 35.9635349 0.981 33.7488372 0.981 33.7488372 2.148 35.8236279 2.148 35.8236279 2.5905 33.7488372 2.5905 33.7488372 3.88125 36.0476279 3.88125 36.0476279 4.3245"></polygon>
                    <polygon id="Shape" points="36.4978605 3.1845 36.4978605 2.71275 37.928186 2.71275 37.928186 3.1845"></polygon>
                    <path d="M41.1594419,2.99925 L41.6535814,3.12525 C41.5493953,3.53625 41.3626047,3.8505 41.0917209,4.06575 C40.8223256,4.28175 40.4911628,4.38975 40.1004651,4.38975 C39.6956279,4.38975 39.3666977,4.3065 39.1136744,4.14 C38.859907,3.9735 38.6671628,3.7335 38.5354419,3.41775 C38.4029767,3.10275 38.3367442,2.76375 38.3367442,2.40225 C38.3367442,2.00775 38.411907,1.66425 38.5607442,1.3695 C38.7103256,1.07625 38.9224186,0.85275 39.1985116,0.69975 C39.4738605,0.54675 39.7767442,0.471 40.107907,0.471 C40.4837209,0.471 40.7992558,0.56625 41.0545116,0.75975 C41.3097674,0.95175 41.4883721,1.22325 41.5895814,1.57125 L41.1036279,1.68825 C41.0173023,1.4115 40.8900465,1.20975 40.724093,1.0845 C40.5588837,0.95775 40.3512558,0.89475 40.1004651,0.89475 C39.8124651,0.89475 39.5713488,0.9645 39.3771163,1.104 C39.1828837,1.245 39.048186,1.4325 38.9685581,1.668 C38.8911628,1.90425 38.8517209,2.148 38.8517209,2.3985 C38.8517209,2.72175 38.8978605,3.0045 38.9916279,3.2445 C39.083907,3.486 39.2275349,3.66675 39.424,3.786 C39.6212093,3.90525 39.8340465,3.9645 40.0617674,3.9645 C40.340093,3.9645 40.5745116,3.8835 40.7672558,3.72075 C40.96,3.5595 41.0909767,3.318 41.1594419,2.99925 Z" id="Shape"></path>
                    <path d="M42.0390698,2.9535 C42.0390698,2.44725 42.1789767,2.07375 42.4565581,1.83 C42.6902326,1.62825 42.9745116,1.527 43.3108837,1.527 C43.6844651,1.527 43.9888372,1.65 44.2254884,1.896 C44.4606512,2.142 44.5804651,2.481 44.5804651,2.91375 C44.5804651,3.26625 44.5283721,3.54225 44.4226977,3.74325 C44.3177674,3.945 44.1659535,4.10175 43.9665116,4.21275 C43.7655814,4.32375 43.5475349,4.38 43.3108837,4.38 C42.9306047,4.38 42.624,4.25775 42.3895814,4.0125 C42.1551628,3.768 42.0390698,3.414 42.0390698,2.9535 Z M42.5153488,2.952 C42.5153488,3.3 42.5912558,3.561 42.7423256,3.7335 C42.891907,3.90675 43.0831628,3.9945 43.3116279,3.9945 C43.5386047,3.9945 43.7276279,3.90675 43.8786977,3.73275 C44.0297674,3.558 44.1056744,3.294 44.1056744,2.937 C44.1056744,2.601 44.0290233,2.34525 43.8772093,2.172 C43.7261395,1.99875 43.5371163,1.91175 43.3116279,1.91175 C43.0831628,1.91175 42.891907,1.998 42.7423256,2.1705 C42.5905116,2.34375 42.5153488,2.604 42.5153488,2.952 Z" id="Shape"></path>
                    <path d="M45.1222326,4.32375 L45.1222326,1.58325 L45.5337674,1.58325 L45.5337674,1.97475 C45.6186047,1.83975 45.7324651,1.73175 45.8738605,1.64925 C46.0152558,1.5675 46.1767442,1.52625 46.3575814,1.52625 C46.5585116,1.52625 46.7229767,1.569 46.8524651,1.65375 C46.9819535,1.73775 47.072,1.85625 47.1248372,2.0085 C47.3413953,1.6875 47.6219535,1.52625 47.9687442,1.52625 C48.2403721,1.52625 48.4487442,1.60275 48.5938605,1.752 C48.7404651,1.90125 48.8126512,2.13375 48.8126512,2.44575 L48.8126512,4.32375 L48.3549767,4.32375 L48.3549767,2.6025 C48.3549767,2.418 48.340093,2.28375 48.3095814,2.20275 C48.279814,2.1225 48.2254884,2.05575 48.1458605,2.007 C48.0669767,1.95675 47.9732093,1.93125 47.8667907,1.93125 C47.6733023,1.93125 47.5147907,1.995 47.3867907,2.1225 C47.2595349,2.25075 47.1962791,2.45475 47.1962791,2.736 L47.1962791,4.323 L46.7378605,4.323 L46.7378605,2.5485 C46.7378605,2.34225 46.699907,2.18925 46.6247442,2.085 C46.5488372,1.9815 46.4260465,1.93125 46.2556279,1.93125 C46.1246512,1.93125 46.0048372,1.965 45.8946977,2.034 C45.7845581,2.10225 45.7034419,2.2035 45.6543256,2.33475 C45.6044651,2.46675 45.579907,2.658 45.579907,2.90625 L45.579907,4.32375 C45.579907,4.32375 45.1222326,4.32375 45.1222326,4.32375 Z" id="Shape"></path>
                    <path d="M49.4891163,4.32375 L49.4891163,1.58325 L49.899907,1.58325 L49.899907,1.97475 C49.9854884,1.83975 50.0986047,1.73175 50.24,1.64925 C50.3813953,1.5675 50.5428837,1.52625 50.7237209,1.52625 C50.9246512,1.52625 51.0898605,1.569 51.2186047,1.65375 C51.348093,1.73775 51.4388837,1.85625 51.4917209,2.0085 C51.7082791,1.6875 51.9888372,1.52625 52.3356279,1.52625 C52.6065116,1.52625 52.8148837,1.60275 52.9607442,1.752 C53.1066047,1.90125 53.1795349,2.13375 53.1795349,2.44575 L53.1795349,4.32375 L52.7218605,4.32375 L52.7218605,2.6025 C52.7218605,2.418 52.7069767,2.28375 52.6764651,2.20275 C52.6459535,2.1225 52.5923721,2.05575 52.5127442,2.007 C52.4338605,1.95675 52.3408372,1.93125 52.2344186,1.93125 C52.0409302,1.93125 51.8809302,1.995 51.7544186,2.1225 C51.6264186,2.25075 51.5631628,2.45475 51.5631628,2.736 L51.5631628,4.323 L51.1047442,4.323 L51.1047442,2.5485 C51.1047442,2.34225 51.0675349,2.18925 50.9923721,2.085 C50.9172093,1.9815 50.7936744,1.93125 50.6225116,1.93125 C50.4922791,1.93125 50.3724651,1.965 50.2615814,2.034 C50.1514419,2.10225 50.0710698,2.2035 50.0212093,2.33475 C49.972093,2.46675 49.9475349,2.658 49.9475349,2.90625 L49.9475349,4.32375 C49.9475349,4.32375 49.4891163,4.32375 49.4891163,4.32375 Z" id="Shape"></path>
                    <path d="M55.7186977,3.42975 L56.1949767,3.495 C56.1190698,3.7755 55.9806512,3.99375 55.7774884,4.1475 C55.5750698,4.30275 55.3153488,4.38075 55.0005581,4.38075 C54.6031628,4.38075 54.2876279,4.25775 54.0546977,4.0125 C53.8217674,3.76575 53.7056744,3.42075 53.7056744,2.97675 C53.7056744,2.5185 53.8232558,2.16075 54.0591628,1.90725 C54.2943256,1.65375 54.600186,1.527 54.9752558,1.527 C55.3376744,1.527 55.6353488,1.6515 55.8660465,1.899 C56.096,2.148 56.2106047,2.49825 56.2106047,2.9475 C56.2106047,2.9745 56.2098605,3.01575 56.2083721,3.0705 L54.1826977,3.0705 C54.199814,3.36975 54.2846512,3.59775 54.4357209,3.756 C54.5875349,3.91425 54.7765581,3.99375 55.0042791,3.99375 C55.1724651,3.99375 55.3168372,3.94875 55.435907,3.85875 C55.5542326,3.7695 55.6494884,3.62625 55.7186977,3.42975 Z M54.2102326,2.68425 L55.7246512,2.68425 C55.7045581,2.4585 55.6465116,2.28975 55.5512558,2.175 C55.4053953,2.00025 55.2148837,1.91175 54.9819535,1.91175 C54.7698605,1.91175 54.5927442,1.9815 54.4483721,2.12175 C54.3054884,2.26275 54.2258605,2.45025 54.2102326,2.68425 Z" id="Shape"></path>
                    <path d="M56.7613023,4.32375 L56.7613023,1.58325 L57.1728372,1.58325 L57.1728372,2.004 C57.2792558,1.8105 57.376,1.6815 57.4660465,1.61925 C57.5568372,1.5585 57.655814,1.527 57.7629767,1.527 C57.9192558,1.527 58.0770233,1.575 58.2377674,1.6725 L58.0740465,2.0985 C57.9624186,2.037 57.8500465,2.007 57.7384186,2.007 C57.6372093,2.007 57.547907,2.037 57.4690233,2.09775 C57.3893953,2.15925 57.3313488,2.24325 57.2978605,2.352 C57.2457674,2.517 57.2197209,2.697 57.2197209,2.892 L57.2197209,4.32375 L56.7613023,4.32375 L56.7613023,4.32375 Z" id="Shape"></path>
                    <path d="M60.3013953,3.31575 L60.7501395,3.3825 C60.7010233,3.69375 60.5730233,3.93825 60.3683721,4.1145 C60.1637209,4.2915 59.9129302,4.38 59.616,4.38 C59.2424186,4.38 58.9425116,4.2585 58.7162791,4.01475 C58.4885581,3.77025 58.376186,3.41925 58.376186,2.964 C58.376186,2.66925 58.423814,2.412 58.5220465,2.19075 C58.6195349,1.9695 58.7676279,1.803 58.9663256,1.69275 C59.1657674,1.5825 59.3830698,1.527 59.6167442,1.527 C59.9114419,1.527 60.1533023,1.6035 60.3415814,1.75275 C60.5298605,1.90275 60.6496744,2.1165 60.7032558,2.39325 L60.2537674,2.45925 C60.2106047,2.27775 60.136186,2.142 60.0267907,2.0505 C59.9188837,1.959 59.7886512,1.9125 59.6353488,1.9125 C59.4024186,1.9125 59.2148837,1.99575 59.0690233,2.1615 C58.9246512,2.328 58.8524651,2.59125 58.8524651,2.9505 C58.8524651,3.315 58.9224186,3.58125 59.0630698,3.747 C59.2037209,3.912 59.3875349,3.9945 59.6137674,3.9945 C59.7953488,3.9945 59.9464186,3.939 60.0677209,3.828 C60.1912558,3.71625 60.267907,3.54675 60.3013953,3.31575 Z" id="Shape"></path>
                    <path d="M63.0005581,3.42975 L63.4775814,3.495 C63.4016744,3.7755 63.2625116,3.99375 63.060093,4.1475 C62.8569302,4.30275 62.5972093,4.38075 62.2824186,4.38075 C61.8850233,4.38075 61.5694884,4.25775 61.3365581,4.0125 C61.1036279,3.76575 60.9875349,3.42075 60.9875349,2.97675 C60.9875349,2.5185 61.1043721,2.16075 61.3402791,1.90725 C61.5754419,1.65375 61.8820465,1.527 62.2563721,1.527 C62.6187907,1.527 62.9164651,1.6515 63.1464186,1.899 C63.3763721,2.148 63.4917209,2.49825 63.4917209,2.9475 C63.4917209,2.9745 63.4909767,3.01575 63.4887442,3.0705 L61.463814,3.0705 C61.480186,3.36975 61.5650233,3.59775 61.716093,3.756 C61.867907,3.91425 62.0569302,3.99375 62.2846512,3.99375 C62.4535814,3.99375 62.5972093,3.94875 62.7162791,3.85875 C62.836093,3.7695 62.9306047,3.62625 63.0005581,3.42975 Z M61.4928372,2.68425 L63.0065116,2.68425 C62.9864186,2.4585 62.9283721,2.28975 62.8331163,2.175 C62.6872558,2.00025 62.4967442,1.91175 62.263814,1.91175 C62.0532093,1.91175 61.8753488,1.9815 61.7317209,2.12175 C61.5873488,2.26275 61.5077209,2.45025 61.4928372,2.68425 Z" id="Shape"></path>
                </g>
            </g>
        </g>
    </g>
</svg>