<?xml version="1.0" encoding="UTF-8"?>
<svg width="160px" height="70px" viewBox="0 0 160 70" version="1.1" xmlns="http://www.w3.org/2000/svg" xmlns:xlink="http://www.w3.org/1999/xlink">
    <!-- Generator: Sketch 47.1 (45422) - http://www.bohemiancoding.com/sketch -->
    <title>php</title>
    <desc>Created with Sketch.</desc>
    <defs>
        <path d="M0.0758333333,21.1790123 C0.0758333333,9.52721914 18.1281042,0.0812345679 40.3958333,0.0812345679 C62.6635625,0.0812345679 80.7158333,9.5273642 80.7158333,21.1790123 C80.7158333,32.8306605 62.6635625,42.2767901 40.3958333,42.2767901 C18.1281042,42.2767901 0.0758333333,32.8303704 0.0758333333,21.1790123" id="path-1"></path>
        <radialGradient cx="30.0202546%" cy="82.4223047%" fx="30.0202546%" fy="82.4223047%" r="0.180844907%" gradientTransform="translate(0.300203,0.824223),scale(0.523258,1.000000),translate(-0.300203,-0.824223)" id="radialGradient-3">
            <stop stop-color="#AEB2D5" offset="0%"></stop>
            <stop stop-color="#AEB2D5" offset="30%"></stop>
            <stop stop-color="#484C89" offset="75%"></stop>
            <stop stop-color="#484C89" offset="100%"></stop>
        </radialGradient>
        <polygon id="path-4" points="0 47 84 47 84 0 0 0"></polygon>
        <polygon id="path-6" points="0 47 84 47 84 0 0 0"></polygon>
    </defs>
    <g id="technologies" stroke="none" stroke-width="1" fill="none" fill-rule="evenodd">
        <g id="Languages" transform="translate(-32.000000, -42.000000)">
            <g id="php" transform="translate(32.000000, 42.000000)">
                <rect id="Rectangle-Copy" fill="#FFFFFF" x="0" y="0" width="160" height="70"></rect>
                <g transform="translate(38.000000, 12.000000)" id="g3438">
                    <g transform="translate(42.000000, 23.500000) scale(-1, 1) rotate(-180.000000) translate(-42.000000, -23.500000) ">
                        <g id="g3440" transform="translate(1.604167, 2.320988)">
                            <g id="g3442-Clipped">
                                <mask id="mask-2" fill="white">
                                    <use xlink:href="#path-1"></use>
                                </mask>
                                <g id="path3446"></g>
                                <g id="g3442" mask="url(#mask-2)" fill-rule="nonzero" fill="url(#radialGradient-3)">
                                    <g id="g3448">
                                        <g id="g3450">
                                            <path d="M0.0758333333,21.1790123 C0.0758333333,9.52721914 18.1281042,0.0812345679 40.3958333,0.0812345679 C62.6635625,0.0812345679 80.7158333,9.5273642 80.7158333,21.1790123 C80.7158333,32.8306605 62.6635625,42.2767901 40.3958333,42.2767901 C18.1281042,42.2767901 0.0758333333,32.8303704 0.0758333333,21.1790123" id="path3462"></path>
                                        </g>
                                    </g>
                                </g>
                            </g>
                        </g>
                        <g id="g3464">
                            <g id="g3466-Clipped">
                                <mask id="mask-5" fill="white">
                                    <use xlink:href="#path-4"></use>
                                </mask>
                                <g id="path3470"></g>
                                <g id="g3466" mask="url(#mask-5)">
                                    <g transform="translate(3.208333, 3.916667)" id="g3472">
                                        <g transform="translate(0.000000, 0.052222)">
                                            <path d="M38.7916667,0 C60.1897917,0 77.5366667,8.74432099 77.5366667,19.5311111 C77.5366667,30.3179012 60.1897917,39.0626574 38.7916667,39.0626574 C17.3935417,39.0626574 0.0466666667,30.3180463 0.0466666667,19.5315463 C0.0466666667,8.74432099 17.3935417,0 38.7916667,0" id="path3474" fill="#777BB3" fill-rule="nonzero"></path>
                                        </g>
                                    </g>
                                </g>
                            </g>
                        </g>
                        <g id="g3476">
                            <g id="g3478-Clipped">
                                <mask id="mask-7" fill="white">
                                    <use xlink:href="#path-6"></use>
                                </mask>
                                <g id="path3482"></g>
                                <g id="g3478" mask="url(#mask-7)">
                                    <g transform="translate(13.416667, 10.734568)">
                                        <g id="g3484" transform="translate(0.398125, 0.480154)">
                                            <path d="M9.77083333,9.86419753 C11.5303125,9.86419753 12.8438333,10.1869599 13.6747917,10.8230556 C14.4972917,11.4529136 15.0650208,12.5439228 15.3626667,14.0657654 C15.6401875,15.4882407 15.5344583,16.4814784 15.0485417,17.0174815 C14.5516875,17.5649444 13.4774792,17.8425926 11.8558125,17.8425926 L9.04414583,17.8425926 L7.4851875,9.86419753 L9.77083333,9.86419753 Z M0.574145833,0.0362654321 C0.443625,0.0362654321 0.319666667,0.0942901235 0.2366875,0.19467284 C0.1535625,0.294765432 0.120020833,0.426771605 0.1448125,0.554425926 L4.27597917,21.6971728 C4.3168125,21.9017099 4.4961875,22.0493827 4.7061875,22.0493827 L13.6093125,22.0493827 C16.4078542,22.0493827 18.4903542,21.2936111 19.7999375,19.8028117 C21.1168125,18.3043241 21.5222292,16.2093426 21.0086042,13.5767623 C20.7993333,12.5040309 20.439125,11.507892 19.9381875,10.6160525 C19.4365208,9.72319753 18.7738542,8.89707099 17.9679792,8.16015741 C17.00125,7.26179012 15.910125,6.61046296 14.7233333,6.2275 C13.5566667,5.84888889 12.0577917,5.65740741 10.2687083,5.65740741 L6.66341667,5.65740741 L5.63383333,0.388475309 C5.593875,0.183938272 5.41391667,0.0362654321 5.2045,0.0362654321 L0.574291667,0.0362654321 L0.574145833,0.0362654321 Z" id="path3486" fill="#000000" fill-rule="nonzero"></path>
                                        </g>
                                        <g id="g3488" transform="translate(0.032083, 0.044969)">
                                            <path d="M9.77083333,17.8425926 L12.222,17.8425926 C14.1790833,17.8425926 14.8591042,17.4153858 15.0901042,17.1608025 C15.4733542,16.7380926 15.5456875,15.8468333 15.299375,14.5834907 C15.0225833,13.1691389 14.5095417,12.1663272 13.77425,11.6031975 C13.0214583,11.0267222 11.797625,10.7345679 10.1371667,10.7345679 L8.38191667,10.7345679 L9.77083333,17.8425926 Z M13.9752083,22.9197531 L5.0715,22.9197531 C4.65266667,22.9197531 4.29275,22.6244074 4.21254167,22.2154784 L0.0815208333,1.07273148 C0.0304791667,0.81742284 0.0990208333,0.553410494 0.2638125,0.352935185 C0.4300625,0.152314815 0.677979167,0.0362654321 0.939020833,0.0362654321 L5.56922917,0.0362654321 C5.98777083,0.0362654321 6.34797917,0.331611111 6.4281875,0.740540123 L7.389375,5.65740741 L10.6341667,5.65740741 C12.46875,5.65740741 14.0141458,5.8564321 15.225,6.24882407 C16.4704167,6.65137037 17.6166667,7.3338858 18.6310833,8.27736728 C19.469625,9.04619444 20.160875,9.90786111 20.6844167,10.8391574 C21.2079583,11.7704537 21.5842083,12.8119969 21.8025208,13.9289722 C22.3442917,16.7011019 21.9041667,18.9205463 20.4943958,20.524929 C19.0993542,22.1146605 16.9057292,22.9197531 13.9756458,22.9197531 L13.9752083,22.9197531 Z M7.32083333,9.86419753 L10.136875,9.86419753 C12.0038333,9.86419753 13.3943542,10.2137963 14.308,10.9135741 C15.2217917,11.6133519 15.8380833,12.7813889 16.1583333,14.4176852 C16.4645833,15.9891389 16.3251667,17.0979907 15.7397917,17.7439506 C15.1535417,18.3899105 13.9810417,18.712963 12.2218542,18.712963 L9.04954167,18.712963 L7.32054167,9.86419753 L7.32083333,9.86419753 Z M13.9752083,22.0493827 C16.653875,22.0493827 18.6078958,21.3501852 19.83625,19.9517901 C21.0641667,18.5531049 21.434,16.6008642 20.944,14.0947778 C20.7423125,13.0623735 20.4012083,12.1184568 19.9209792,11.2631728 C19.4411875,10.4075988 18.8126458,9.6251358 18.0368125,8.91549383 C17.1122292,8.05527778 16.0855625,7.44166667 14.9553542,7.07712654 C13.825,6.71012037 12.385625,6.52777778 10.635625,6.52777778 L6.66895833,6.52777778 L5.57054167,0.906635802 L0.940333333,0.906635802 L5.0715,22.0493827 L13.9752083,22.0493827 L13.9752083,22.0493827 Z" id="path3490" fill="#FFFFFF" fill-rule="nonzero"></path>
                                        </g>
                                        <g id="g3492" transform="translate(20.209583, 6.137562)">
                                            <path d="M11.8125,0 C11.6818333,0 11.5580208,0.0580246914 11.4750417,0.158407407 C11.3919167,0.2585 11.3580833,0.390506173 11.3831667,0.518160494 L13.2104583,9.87319136 C13.3842917,10.7627099 13.3414167,11.4012716 13.0898542,11.6710864 C12.9354167,11.8360216 12.473125,12.1126543 11.1052083,12.1126543 L7.79479167,12.1126543 L5.4971875,0.352209877 C5.45708333,0.14767284 5.27697917,0 5.06770833,0 L0.473958333,0 C0.343291667,0 0.219479167,0.0580246914 0.136354167,0.158407407 C0.0532291667,0.2585 0.0196875,0.390506173 0.0444791667,0.518160494 L4.17564583,21.6609074 C4.21560417,21.8654444 4.39585417,22.0131173 4.605125,22.0131173 L9.198875,22.0131173 C9.32954167,22.0131173 9.45335417,21.9550926 9.53647917,21.855 C9.61960417,21.7544722 9.65314583,21.6226111 9.62835417,21.4949568 L8.6314375,16.3919753 L12.193125,16.3919753 C14.9062083,16.3919753 16.7460417,15.9161728 17.817625,14.9372963 C18.9099167,13.9386914 19.2507292,12.342142 18.8307292,10.1908765 L16.9086458,0.3525 C16.8685417,0.14767284 16.6887292,0 16.4791667,0 L11.8125,0 Z" id="path3494" fill="#000000" fill-rule="nonzero"></path>
                                        </g>
                                        <g id="g3496" transform="translate(19.783750, 5.666111)">
                                            <path d="M9.625,22.9197531 L5.03125,22.9197531 C4.61227083,22.9197531 4.25220833,22.6244074 4.17229167,22.2154784 L0.041125,1.07273148 C-0.00875,0.81742284 0.058625,0.553410494 0.224875,0.352935185 C0.391125,0.152314815 0.63875,0.0362654321 0.900083333,0.0362654321 L5.49383333,0.0362654321 C5.91266667,0.0362654321 6.272875,0.331611111 6.35279167,0.740540123 L8.5815625,12.1489198 L11.5317708,12.1489198 C12.8970625,12.1489198 13.183625,11.8587963 13.1951458,11.846321 C13.2782708,11.7578333 13.3876458,11.3473086 13.2082708,10.4276173 L11.3809792,1.07258642 C11.3313958,0.817277778 11.3984792,0.553555556 11.5647292,0.353080247 C11.7309792,0.152314815 11.9788958,0.0362654321 12.2399375,0.0362654321 L16.9066042,0.0362654321 C17.3251458,0.0362654321 17.6853542,0.331611111 17.7655625,0.740540123 L19.6860417,10.5793519 C20.13725,12.8887346 19.751375,14.6213519 18.5397917,15.7290432 C17.383625,16.7850926 15.4469583,17.2986111 12.6189583,17.2986111 L9.58825,17.2986111 L10.4839583,21.883287 C10.5335417,22.1385957 10.4664583,22.402608 10.3002083,22.6027932 C10.1339583,22.8037037 9.88633333,22.9197531 9.625,22.9197531 M9.625,22.0493827 L8.526875,16.4282407 L12.6189583,16.4282407 C15.1940833,16.4282407 16.9701875,15.9811605 17.9477083,15.0881605 C18.9252292,14.1945802 19.2179167,12.7468642 18.827375,10.7453025 L16.9052917,0.906635802 L12.238625,0.906635802 L14.0659167,10.2613765 C14.2740208,11.3255494 14.1976042,12.0514383 13.8365208,12.438463 C13.4748542,12.8254877 12.7063125,13.0192901 11.5308958,13.0192901 L7.8588125,13.0192901 L5.4919375,0.906635802 L0.8981875,0.906635802 L5.03125,22.0493827 L9.625,22.0493827" id="path3498" fill="#FFFFFF" fill-rule="nonzero"></path>
                                        </g>
                                        <g id="g3500" transform="translate(36.538542, 0.480154)">
                                            <path d="M9.77083333,9.86419753 C11.5303125,9.86419753 12.8438333,10.1869599 13.6747917,10.8230556 C14.4972917,11.4526235 15.0650208,12.5437778 15.3628125,14.0657654 C15.6403333,15.4882407 15.5346042,16.4814784 15.0485417,17.0174815 C14.5516875,17.5649444 13.4774792,17.8425926 11.8558125,17.8425926 L9.04414583,17.8425926 L7.4851875,9.86419753 L9.77083333,9.86419753 Z M0.574291667,0.0362654321 C0.443770833,0.0362654321 0.3198125,0.0942901235 0.236833333,0.19467284 C0.153708333,0.294765432 0.119875,0.426771605 0.144958333,0.554425926 L4.27597917,21.6971728 C4.3168125,21.9017099 4.4961875,22.0493827 4.7061875,22.0493827 L13.6093125,22.0493827 C16.4078542,22.0493827 18.4903542,21.2936111 19.7999375,19.8028117 C21.1168125,18.3043241 21.5222292,16.2096327 21.0088958,13.5767623 C20.7997708,12.5040309 20.4397083,11.507892 19.9384792,10.6160525 C19.4368125,9.72319753 18.7744375,8.89707099 17.9682708,8.16015741 C17.00125,7.26179012 15.910125,6.61046296 14.7233333,6.2275 C13.5566667,5.84888889 12.0577917,5.65740741 10.2687083,5.65740741 L6.663125,5.65740741 L5.634125,0.388475309 C5.59402083,0.183938272 5.41391667,0.0362654321 5.2045,0.0362654321 L0.574291667,0.0362654321 Z" id="path3502" fill="#000000" fill-rule="nonzero"></path>
                                        </g>
                                        <g id="g3504" transform="translate(36.172500, 0.044969)">
                                            <path d="M9.77083333,17.8425926 L12.222,17.8425926 C14.1790833,17.8425926 14.8591042,17.4153858 15.0901042,17.1608025 C15.4736458,16.7380926 15.5458333,15.8468333 15.299375,14.5836358 C15.0225833,13.169284 14.5093958,12.1663272 13.77425,11.6031975 C13.0214583,11.0267222 11.797625,10.7345679 10.1371667,10.7345679 L8.3820625,10.7345679 L9.77083333,17.8425926 Z M13.9752083,22.9197531 L5.07164583,22.9197531 C4.6528125,22.9197531 4.29289583,22.6244074 4.2126875,22.2154784 L0.0816666667,1.07273148 C0.0317916667,0.81742284 0.0991666667,0.553410494 0.265416667,0.352935185 C0.431666667,0.152314815 0.679145833,0.0362654321 0.940625,0.0362654321 L5.57083333,0.0362654321 C5.989375,0.0362654321 6.34958333,0.331611111 6.42979167,0.740540123 L7.39010417,5.65740741 L10.6348958,5.65740741 C12.4694792,5.65740741 14.0142917,5.8564321 15.2254375,6.24882407 C16.4708542,6.65137037 17.6171042,7.3338858 18.6315208,8.27765741 C19.4700625,9.04503395 20.1598542,9.90670062 20.6833958,10.8387222 C21.2070833,11.771034 21.5833333,12.8106914 21.8020833,13.9288272 C22.3438542,16.7002315 21.9037292,18.9193858 20.4939583,20.5243488 C19.0993542,22.1137901 16.9052917,22.9197531 13.9755,22.9197531 L13.9752083,22.9197531 Z M7.32083333,9.86419753 L10.136875,9.86419753 C12.0038333,9.86419753 13.3943542,10.2137963 14.308,10.9135741 C15.2220833,11.6133519 15.8380833,12.7813889 16.1583333,14.4176852 C16.464875,15.9891389 16.3253125,17.0979907 15.7397917,17.7439506 C15.1535417,18.3899105 13.9810417,18.712963 12.2218542,18.712963 L9.04954167,18.712963 L7.32083333,9.86419753 L7.32083333,9.86419753 Z M13.9752083,22.0493827 C16.653875,22.0493827 18.6078958,21.3501852 19.83625,19.9517901 C21.0641667,18.5531049 21.434,16.6008642 20.944,14.0947778 C20.7423125,13.0623735 20.4012083,12.1184568 19.9209792,11.2631728 C19.4411875,10.4075988 18.8126458,9.6251358 18.0368125,8.91549383 C17.1122292,8.05527778 16.0855625,7.44166667 14.9553542,7.07712654 C13.825,6.71012037 12.385625,6.52777778 10.635625,6.52777778 L6.66895833,6.52777778 L5.57083333,0.906635802 L0.940625,0.906635802 L5.0715,22.0493827 L13.9752083,22.0493827 L13.9752083,22.0493827 Z" id="path3506" fill="#FFFFFF" fill-rule="nonzero"></path>
                                        </g>
                                    </g>
                                </g>
                            </g>
                        </g>
                    </g>
                </g>
            </g>
        </g>
    </g>
</svg>