<?xml version="1.0" encoding="UTF-8"?>
<svg width="160px" height="70px" viewBox="0 0 160 70" version="1.1" xmlns="http://www.w3.org/2000/svg" xmlns:xlink="http://www.w3.org/1999/xlink">
    <!-- Generator: Hyder A. - https://toggle.me -->
    <title>phpbb</title>
    <desc>Created with Sketch.</desc>
    <defs></defs>
    <g id="technologies" stroke="none" stroke-width="1" fill="none" fill-rule="evenodd">
        <g id="Forums" transform="translate(-32.000000, -42.000000)">
            <g id="phpbb" transform="translate(32.000000, 42.000000)">
                <rect id="Rectangle-Copy" fill-opacity="0.219999999" fill="#FFFFFF" x="0" y="0" width="160" height="70"></rect>
                <path d="M67,43.9746835 L67,31.6962025 C67,25.7468354 63.8931507,22.5316456 58.6410959,22.5316456 C56.6931507,22.5316456 54.9671233,24.1012658 54.2027397,25.3417722 C54.2027397,23.4683544 54.2027397,19.3417722 54.2027397,19.3417722 C54.2027397,17.3924051 53.0191781,16 50.6027397,16 L49,16 L49,40.5063291 C49,42.6329114 50.0849315,44 52.4767123,44 L54.1287671,44 L54.1287671,32.1012658 C54.1287671,28.4050633 56.2,27.164557 57.8027397,27.164557 C60.0219178,27.164557 61.8465753,28.5316456 61.8465753,31.9493671 L61.8465753,40.5063291 C61.8465753,42.7594937 63.1780822,44 65.2986301,43.9746835 L67,43.9746835 Z" id="Shape" fill="#2692D8" fill-rule="nonzero"></path>
                <path d="M61.0382166,49 C59.6369427,49 59,50.0382514 59,51.0765027 L59,53.2076503 C59,53.6448087 59.3057325,54 59.7898089,54 L60.1210191,54 L60.1210191,51.1857923 C60.1210191,50.5027322 60.4522293,50.0928962 60.9363057,50.0928962 C61.522293,50.0928962 61.8535032,50.4480874 61.8535032,51.2677596 L61.8535032,53.2076503 C61.8535032,53.6448087 62.1592357,54 62.6687898,54 L62.9745223,54 L63,54 L63,51.1584699 C63,49.7650273 62.1082803,49 61.0382166,49 Z" id="Shape" fill="#2692D8" fill-rule="nonzero"></path>
                <path d="M81.492972,23 C74.1099652,23 71,27.7971145 71,34.7403066 L71,47.3895401 C71,49.6366096 72.7698989,51 74.6409348,51 L76.2844124,51 C76.2844124,51 76.2844124,44.6627592 76.2844124,41.7592426 C77.3463517,43.5518485 79.2426719,44.864743 81.5688248,44.864743 C87.687618,44.864743 91.0251417,40.0171326 90.9998574,33.3264202 C90.9998574,28.0495942 87.0555113,23 81.492972,23 Z M81.3665506,40.2443643 C78.2565854,40.2443643 76.2085596,37.871055 76.2085596,33.6798918 C76.2085596,30.0694319 77.8014686,27.5951307 80.6838753,27.5951307 C84.0213989,27.5951307 85.6648765,29.7412083 85.6395922,34.6645627 C85.6395922,37.9972949 83.8949776,40.2443643 81.3665506,40.2443643 Z" id="Shape" fill="#2692D8" fill-rule="nonzero"></path>
                <path d="M81.6482759,49 C79.9655172,49 79,50.1956522 79,51.5815217 C79,52.9673913 80.1586207,54 81.5103448,54 C82.3931034,54 82.9724138,53.5923913 82.9724138,52.9945652 L82.9724138,52.423913 L82.9172414,52.423913 C82.7517241,52.6684783 82.3103448,52.8858696 81.6206897,52.8858696 C80.7931034,52.8858696 80.2689655,52.2608696 80.2689655,51.3913043 C80.2689655,50.6847826 80.9034483,50.1141304 81.6206897,50.1141304 C82.3103448,50.1141304 82.7793103,50.3586957 82.9448276,50.6304348 L83,50.6304348 L83,50.0326087 C83,49.4619565 82.4206897,49 81.6482759,49 Z" id="Shape" fill="#2692D8" fill-rule="nonzero"></path>
                <path d="M56.5,48 C56.7692308,48 57,47.7692308 57,47.5 C57,47.2307692 56.7692308,47 56.5,47 C56.2307692,47 56,47.2307692 56,47.5 C56,47.7692308 56.2115385,48 56.5,48 Z" id="Shape" fill="#2692D8" fill-rule="nonzero"></path>
                <path d="M42.9223301,49 C41.5533981,49 41,49.9444444 41,50.9444444 L41,53.2222222 C41,53.7222222 41.3495146,54 41.9320388,54 L42.2815534,54 L42.2815534,51.1388889 C42.2815534,50.3888889 42.6019417,50.0833333 43.184466,50.0833333 C43.5339806,50.0833333 43.7378641,50.1388889 43.9417476,50.2222222 L44,50.2222222 L44,49.8055556 C44,49.4444444 43.7087379,49 42.9223301,49 Z" id="Shape" fill="#2692D8" fill-rule="nonzero"></path>
                <path d="M57.125,51.6214689 L57.125,49.7457627 C57.125,49.2485876 56.825,49 56.325,49 L56,49 C56,49 56,51.5084746 56,51.7344633 C56,52.5480226 56.475,53 57.325,53 C57.775,53 57.975,52.819209 57.975,52.3898305 L58,52.3898305 L58,52.1412429 L57.8,52.1412429 C57.325,52.1412429 57.125,52.0282486 57.125,51.6214689 Z" id="Shape" fill="#2692D8" fill-rule="nonzero"></path>
                <path d="M38.6482759,49 C36.9655172,49 36,50.1956522 36,51.5815217 C36,52.9673913 37.1586207,54 38.5103448,54 C39.3931034,54 39.9724138,53.5923913 39.9724138,52.9945652 L39.9724138,52.423913 L39.9172414,52.423913 C39.7517241,52.6684783 39.3103448,52.8858696 38.6206897,52.8858696 C37.7931034,52.8858696 37.2689655,52.2608696 37.2689655,51.3913043 C37.2689655,50.6847826 37.9034483,50.1141304 38.6206897,50.1141304 C39.3103448,50.1141304 39.7793103,50.3586957 39.9448276,50.6304348 L40,50.6304348 L40,50.0326087 C40,49.4619565 39.4206897,49 38.6482759,49 Z" id="Shape" fill="#2692D8" fill-rule="nonzero"></path>
                <path d="M47,33.3264202 C47,28.0495942 43.0556258,23 37.4930468,23 C30.1099874,23 27,27.7971145 27,34.7403066 L27,47.3895401 C27,49.6366096 28.7699115,51 30.6409608,51 L32.2591656,51 C32.2591656,51 32.2591656,44.6627592 32.2591656,41.7592426 C33.2958281,43.5266005 35.2174463,44.864743 37.5689001,44.889991 C43.6624526,44.889991 47,40.0423805 47,33.3264202 Z M32.1580278,33.6798918 C32.1580278,30.0694319 33.7509482,27.5951307 36.6333755,27.5951307 C39.9709229,27.5951307 41.6144121,29.7412083 41.6144121,34.6645627 C41.6144121,37.9972949 39.8697851,40.2443643 37.3160556,40.2443643 C34.2060683,40.2443643 32.1580278,37.871055 32.1580278,33.6798918 Z" id="Shape" fill="#2692D8" fill-rule="nonzero"></path>
                <path d="M92.9922481,49 C92.4224806,49 91.879845,49.3021978 91.6085271,49.7692308 C91.255814,49.3021978 90.7674419,49 90.1434109,49 C88.6782946,49 88,49.8791209 88,51.2252747 L88,53.1208791 C88,53.6703297 88.379845,54 88.8682171,54 L89.1937984,54 L89.1937984,51.1153846 C89.1937984,50.456044 89.5465116,50.0714286 90.0077519,50.0714286 C90.5232558,50.0714286 90.9031008,50.4285714 90.9031008,51.2252747 L90.9031008,53.1208791 C90.9031008,53.6978022 91.2286822,54 91.7713178,54 L92.0968992,54 L92.0968992,51.0879121 C92.0968992,50.4285714 92.4224806,50.0714286 92.9108527,50.0714286 C93.4534884,50.0714286 93.8062016,50.4285714 93.8062016,51.2252747 L93.8062016,53.1208791 C93.8062016,53.6978022 94.0775194,54 94.7286822,54 L95,54 L95,51.0604396 C95,49.6868132 94.1046512,49 92.9922481,49 Z" id="Shape" fill="#2692D8" fill-rule="nonzero"></path>
                <path d="M54.245283,48 L53.9622642,48 C53.7641509,48 53.5377358,48.1363636 53.3679245,48.3272727 C53.0849057,48.6272727 53,48.7909091 53,49.2818182 L53,52.2 C53,53.3454545 53.6226415,54 54.8962264,54 C55.6320755,54 56,53.6727273 56,53.1818182 L56,52.7454545 L55.9433962,52.7454545 C55.745283,52.8545455 55.4339623,52.9090909 55.0377358,52.9090909 C54.5283019,52.9090909 54.245283,52.6636364 54.245283,52.0363636 L54.245283,50.1272727 L55.2641509,50.1272727 C55.7735849,50.1272727 56,49.8 56,49.5545455 L56,49.0909091 L54.245283,49.0909091 L54.245283,48 Z" id="Shape" fill="#2692D8" fill-rule="nonzero"></path>
                <path d="M128.398438,29.7372881 C130.971354,28.9491525 132.529948,27.0423729 132.529948,24.0677966 C132.529948,19.6949153 128.992188,17 124.019531,17 L120.877604,17 C118.700521,17 115.261719,17.7627119 114,18.220339 L114,37.6440678 C114,41.8135593 116.375,44 121.248698,44 L124.06901,44 C128.81901,44 133,41 133,35.5847458 C133,33.2457627 131.020833,30.4745763 128.398438,29.7372881 Z M119.121094,21.7542373 C119.863281,21.6271186 120.729167,21.4745763 121.372396,21.4745763 L123.302083,21.4745763 C125.25651,21.4745763 127.334635,22.2118644 127.334635,24.5508475 C127.334635,26.8644068 125.429688,27.779661 123.104167,27.8050847 L119.121094,27.8050847 L119.121094,21.7542373 Z M123.574219,39.1186441 L121.446615,39.1186441 C120.160156,39.1186441 119.170573,38.3813559 119.170573,37.440678 L119.170573,31.9237288 L123.302083,31.9237288 C126.345052,31.9237288 127.755208,32.8644068 127.755208,35.7627119 C127.755208,37.7966102 126.394531,39.1186441 123.574219,39.1186441 Z" id="Shape" fill="#2692D8" fill-rule="nonzero"></path>
                <path d="M118.245283,48 L117.962264,48 C117.764151,48 117.537736,48.1363636 117.367925,48.3272727 C117.084906,48.6272727 117,48.7909091 117,49.2818182 L117,52.2 C117,53.3454545 117.622642,54 118.896226,54 C119.632075,54 120,53.6727273 120,53.1818182 L120,52.7454545 L119.943396,52.7454545 C119.745283,52.8545455 119.433962,52.9090909 119.037736,52.9090909 C118.528302,52.9090909 118.245283,52.6636364 118.245283,52.0363636 L118.245283,50.1272727 L119.235849,50.1272727 C119.745283,50.1272727 119.971698,49.8 119.971698,49.5545455 L120,49.5545455 L120,49.0909091 L118.245283,49.0909091 L118.245283,48 Z" id="Shape" fill="#2692D8" fill-rule="nonzero"></path>
                <path d="M115.125,51.6214689 L115.125,49.7457627 C115.125,49.2485876 114.825,49 114.325,49 L114,49 C114,49 114,51.5084746 114,51.7344633 C114,52.5480226 114.475,53 115.325,53 C115.775,53 115.975,52.819209 115.975,52.3898305 L116,52.3898305 L116,52.1412429 L115.8,52.1412429 C115.325,52.1412429 115.125,52.0282486 115.125,51.6214689 Z" id="Shape" fill="#2692D8" fill-rule="nonzero"></path>
                <path d="M121.125,51.6214689 L121.125,49.7457627 C121.125,49.2485876 120.825,49 120.325,49 L120,49 C120,49 120,51.5084746 120,51.7344633 C120,52.5480226 120.475,53 121.325,53 C121.775,53 121.975,52.819209 121.975,52.3898305 L122,52.3898305 L122,52.1412429 L121.8,52.1412429 C121.325,52.1412429 121.125,52.0282486 121.125,51.6214689 Z" id="Shape" fill="#2692D8" fill-rule="nonzero"></path>
                <path d="M120.5,48 C120.769231,48 121,47.7692308 121,47.5 C121,47.2307692 120.769231,47 120.5,47 C120.230769,47 120,47.2307692 120,47.5 C120,47.7692308 120.230769,48 120.5,48 Z" id="Shape" fill="#2692D8" fill-rule="nonzero"></path>
                <path d="M100.992248,49 C100.422481,49 99.879845,49.3021978 99.6085271,49.7692308 C99.255814,49.3021978 98.7674419,49 98.1434109,49 C96.6782946,49 96,49.8791209 96,51.2252747 L96,53.1208791 C96,53.6703297 96.379845,54 96.8682171,54 L97.1937984,54 L97.1937984,51.1153846 C97.1937984,50.456044 97.5465116,50.0714286 98.0077519,50.0714286 C98.5232558,50.0714286 98.9031008,50.4285714 98.9031008,51.2252747 L98.9031008,53.1208791 C98.9031008,53.6978022 99.2286822,54 99.7713178,54 L100.096899,54 L100.096899,51.0879121 C100.096899,50.4285714 100.422481,50.0714286 100.910853,50.0714286 C101.453488,50.0714286 101.806202,50.4285714 101.806202,51.2252747 L101.806202,53.1208791 C101.806202,53.6978022 102.077519,54 102.728682,54 L103,54 L103,51.0604396 C103,49.6868132 102.104651,49 100.992248,49 Z" id="Shape" fill="#2692D8" fill-rule="nonzero"></path>
                <path d="M114.5,48 C114.769231,48 115,47.7692308 115,47.5 C115,47.2307692 114.769231,47 114.5,47 C114.230769,47 114,47.2307692 114,47.5 C114,47.7692308 114.230769,48 114.5,48 Z" id="Shape" fill="#2692D8" fill-rule="nonzero"></path>
                <path d="M128.751825,51.0320856 C128.072993,50.8983957 127.963504,50.7914439 127.963504,50.5508021 C127.963504,50.2299465 128.160584,50.0160428 128.751825,50.0160428 C129.211679,50.0160428 129.671533,50.2299465 129.868613,50.4705882 L129.912409,50.4705882 L129.912409,50.0160428 C129.912409,49.5614973 129.540146,49 128.664234,49 C127.656934,49 127,49.7754011 127,50.657754 C127,51.3796791 127.394161,51.7807487 128.226277,51.9144385 C128.905109,52.0481283 129.036496,52.1818182 129.036496,52.4491979 C129.036496,52.8235294 128.817518,52.9839572 128.335766,52.9839572 C127.854015,52.9839572 127.372263,52.7700535 127.153285,52.5294118 L127.109489,52.5294118 L127.109489,53.0641711 C127.109489,53.5454545 127.635036,54 128.357664,54 C129.408759,54 130,53.3850267 130,52.3957219 C130,51.6203209 129.562044,51.1925134 128.751825,51.0320856 Z" id="Shape" fill="#2692D8" fill-rule="nonzero"></path>
                <path d="M112,35.5847458 C112,33.2457627 110.020833,30.4745763 107.398438,29.7372881 C109.971354,28.9491525 111.529948,27.0423729 111.529948,24.0677966 C111.529948,19.6949153 107.992188,17 103.019531,17 L99.8776042,17 C97.7005208,17 94.2617188,17.7627119 93,18.220339 L93,37.6440678 C93,41.8135593 95.375,44 100.248698,44 L100.248698,43.9745763 L103.06901,43.9745763 C107.81901,43.9745763 112,40.9745763 112,35.5847458 Z M98.1210938,21.7542373 C98.8632812,21.6271186 99.7291667,21.4745763 100.372396,21.4745763 L102.302083,21.4745763 C104.25651,21.4745763 106.334635,22.2118644 106.334635,24.5508475 C106.334635,26.8644068 104.429688,27.779661 102.104167,27.8050847 L98.1210938,27.8050847 L98.1210938,21.7542373 Z M102.574219,39.1186441 L100.446615,39.1186441 C99.1601562,39.1186441 98.1705729,38.3813559 98.1705729,37.440678 L98.1705729,31.9237288 L102.302083,31.9237288 C105.345052,31.9237288 106.755208,32.8644068 106.755208,35.7627119 C106.755208,37.7966102 105.394531,39.1186441 102.574219,39.1186441 Z" id="Shape" fill="#2692D8" fill-rule="nonzero"></path>
                <path d="M107.057325,49.0273224 L106.853503,49.0273224 L106.853503,51.7595628 C106.853503,52.579235 106.522293,52.9344262 106.063694,52.9344262 C105.55414,52.9344262 105.146497,52.579235 105.146497,51.6775956 L105.146497,49.8743169 C105.146497,49.3005464 104.840764,49 104.203822,49 L104,49 L104,51.7868852 C104,53.2076503 104.89172,54 106.012739,54 C107.33758,54 108,53.2349727 108,51.704918 L108,49.9016393 C108,49.3278689 107.719745,49.0273224 107.057325,49.0273224 Z" id="Shape" fill="#2692D8" fill-rule="nonzero"></path>
                <path d="M111.038217,49 C109.636943,49 109,50.0382514 109,51.0765027 L109,53.2076503 C109,53.6448087 109.305732,54 109.789809,54 L110.146497,54 L110.146497,51.1857923 C110.146497,50.5027322 110.477707,50.0928962 110.961783,50.0928962 C111.547771,50.0928962 111.878981,50.4480874 111.878981,51.2677596 L111.878981,53.2076503 C111.878981,53.6448087 112.184713,54 112.694268,54 L113,54 L113,51.1584699 C113,49.7650273 112.10828,49 111.038217,49 Z" id="Shape" fill="#2692D8" fill-rule="nonzero"></path>
                <path d="M125.43038,53.0106952 C124.746835,53.0106952 124.240506,52.6363636 124.139241,51.9946524 L124.873418,51.9946524 C126.367089,51.9946524 127,51.7272727 127,50.8449198 C127,49.6951872 126.139241,49 125.202532,49 C123.911392,49 123,49.9893048 123,51.5935829 C123,53.0641711 124.113924,54 125.227848,54 C126.468354,54 126.873418,53.5454545 126.873418,52.9304813 L126.873418,52.5561497 L126.822785,52.5561497 C126.443038,52.9037433 125.911392,53.0106952 125.43038,53.0106952 Z M124.164557,51.0320856 C124.189873,50.4973262 124.544304,50.0160428 125.101266,50.0160428 C125.632911,50.0160428 125.962025,50.2566845 125.962025,50.7379679 C125.962025,51.0588235 125.708861,51.1925134 124.670886,51.1925134 L124.164557,51.1925134 L124.164557,51.0320856 L124.164557,51.0320856 Z" id="Shape" fill="#2692D8" fill-rule="nonzero"></path>
                <path d="M85.0462326,49 C83.7208319,49 83,50.1497326 83,51.5935829 C83,52.8502674 83.6975793,54 84.953222,54 C86.3018753,54 87.0227072,52.8502674 86.9994546,51.4064171 C86.9994546,50.1497326 86.3018753,49 85.0462326,49 Z M85.0462326,52.9572193 C84.3719059,52.9572193 84.0696216,52.368984 84.0696216,51.4331551 C84.0696216,50.631016 84.3719059,50.0695187 84.953222,50.0695187 C85.6275486,50.0695187 85.9530856,50.631016 85.929833,51.6203209 C85.929833,52.3957219 85.6508013,52.9572193 85.0462326,52.9572193 Z" id="Shape" fill="#2692D8" fill-rule="nonzero"></path>
                <path d="M67.9518072,51.7 L67.9518072,50.95 C67.9518072,49.8 67.253012,49 66.1927711,49 C64.7951807,49 64,50.025 64,51.275 C64,52.325 64.746988,53.075 65.7831325,53.075 C66.3855422,53.075 66.7951807,52.75 66.8915663,52.425 L66.8915663,52.525 C66.8915663,52.575 66.8915663,52.675 66.8915663,52.75 C66.8915663,52.825 66.8915663,52.9 66.8915663,52.975 C66.8915663,53.625 66.5301205,54 65.7590361,54 C65.1325301,54 64.6506024,53.8 64.3855422,53.525 L64.3373494,53.525 L64.3373494,54.025 C64.3373494,54.55 64.939759,55 65.8313253,55 C67.2048193,55 67.9277108,54 68,52.875 C68,52.725 67.9759036,52.475 67.9759036,52.3 C67.9518072,52.1 67.9518072,51.85 67.9518072,51.7 Z M65.9036145,52.125 C65.3975904,52.125 65.060241,51.7 65.060241,51.125 C65.060241,50.45 65.4698795,49.975 66.0240964,49.975 C66.4819277,49.975 66.8192771,50.325 66.8192771,51 C66.8192771,51.7 66.4337349,52.125 65.9036145,52.125 Z" id="Shape" fill="#2692D8" fill-rule="nonzero"></path>
                <path d="M49.972973,49 C48.7027027,49 48.2162162,49.6486486 48.2162162,50.1891892 L48.2162162,50.5675676 L48.2702703,50.5675676 C48.4594595,50.3243243 48.9459459,50 49.8108108,50 C50.5135135,50 50.8378378,50.2162162 50.8378378,50.8918919 L50.8378378,50.9459459 L50.4054054,50.9459459 C48.6216216,50.9459459 48,51.5945946 48,52.4594595 C48,53.3513514 48.7837838,54 49.9189189,54 L50.1621622,54 C51.2432432,54 52,53.2972973 52,52.2702703 L52,51.1621622 C52,49.5135135 51.0540541,49 49.972973,49 Z M50.8108108,52.2702703 C50.8108108,52.7567568 50.5675676,53 50.0540541,53 C49.5135135,53 49.2162162,52.7837838 49.2162162,52.4054054 C49.2162162,52.027027 49.4864865,51.8108108 50.4054054,51.8108108 L50.8108108,51.8108108 L50.8108108,52.2702703 Z" id="Shape" fill="#2692D8" fill-rule="nonzero"></path>
                <path d="M48,50.8449198 C48,49.6951872 47.1392405,49 46.2025316,49 C44.9113924,49 44,49.9893048 44,51.5935829 C44,53.0641711 45.1139241,54 46.2278481,54 C47.4683544,54 47.8734177,53.5454545 47.8734177,52.9304813 L47.8734177,52.5561497 L47.8227848,52.5561497 C47.443038,52.9037433 46.9113924,53.0106952 46.4303797,53.0106952 C45.7721519,53.0106952 45.2405063,52.6363636 45.1392405,51.9946524 L45.8734177,51.9946524 C47.3670886,51.9946524 48,51.7272727 48,50.8449198 Z M45.164557,51.1925134 L45.164557,51.0320856 C45.1898734,50.4973262 45.5443038,50.0160428 46.1012658,50.0160428 C46.6329114,50.0160428 46.9620253,50.2566845 46.9620253,50.7379679 C46.9620253,51.0588235 46.7341772,51.1925134 45.6708861,51.1925134 L45.164557,51.1925134 L45.164557,51.1925134 Z" id="Shape" fill="#2692D8" fill-rule="nonzero"></path>
            </g>
        </g>
    </g>
</svg>