<?xml version="1.0" encoding="UTF-8"?>
<svg width="160px" height="70px" viewBox="0 0 160 70" version="1.1" xmlns="http://www.w3.org/2000/svg" xmlns:xlink="http://www.w3.org/1999/xlink">
    <!-- Generator: Hyder A. - https://toggle.me -->
    <title>prestashop</title>
    <desc>Created with Sketch.</desc>
    <defs></defs>
    <g id="technologies" stroke="none" stroke-width="1" fill="none" fill-rule="evenodd">
        <g id="Ecommerce" transform="translate(-224.000000, -42.000000)">
            <g id="prestashop" transform="translate(224.000000, 42.000000)">
                <rect id="Rectangle" fill="#FFFFFF" x="0" y="0" width="160" height="70"></rect>
                <g id="XMLID_323_" transform="translate(37.000000, 27.000000)" fill-rule="nonzero">
                    <path d="M22.6418124,10.5576238 C22.627285,10.4732673 22.620223,10.3392079 22.620223,10.1558416 C22.620223,8.99980198 23.0116566,8.09762376 23.7947257,7.44891089 C24.5777947,6.80039604 25.4433876,6.4760396 26.3913027,6.4760396 C27.6410655,6.4760396 28.5100885,6.94138614 28.9985735,7.87207921 L22.6418124,10.5576238 Z M31.7351788,8.90811881 C31.7206513,7.54059406 31.1966549,6.43049505 30.1623823,5.57742574 C29.127908,4.72455446 27.8275009,4.2980198 26.2619681,4.2980198 C25.2708743,4.2980198 24.3298195,4.51306931 23.4394088,4.9429703 C22.5483929,5.37326733 21.8018442,6.04277228 21.1983504,6.95227723 C20.5950584,7.86158416 20.2930088,8.91564356 20.2930088,10.1138614 C20.2930088,11.8479208 20.8749133,13.2435644 22.0385204,14.3009901 C23.2023292,15.3584158 24.5953487,15.8871287 26.2189912,15.8871287 C28.0722478,15.8871287 29.6809593,15.1964356 31.0459327,13.8146535 L29.6234549,12.2706931 C28.7903469,13.2578218 27.7308531,13.7512871 26.4449735,13.7512871 C25.1590938,13.7512871 24.1429805,13.300198 23.3960283,12.3978218 L31.7567681,8.95069307 L31.7351788,8.90811881 Z" id="XMLID_341_" fill="#1F0047"></path>
                    <path d="M17.5249274,4.99564356 C16.8566655,5.44712871 16.3286336,6.0249505 15.9410336,6.72970297 L15.9410336,4.46712871 L13.5276637,4.46712871 L13.5276637,15.7176238 L15.9410336,15.7176238 L15.9410336,10.8958416 C15.9410336,9.61306931 16.2426796,8.59089109 16.8463752,7.82950495 C17.4492637,7.06831683 18.3471398,6.68752475 19.5398018,6.68752475 L19.6691363,6.68752475 L19.6475469,4.29762376 C18.8999894,4.31207921 18.1927858,4.54475248 17.5249274,4.99564356" id="XMLID_189_" fill="#1F0047"></path>
                    <path d="M40.3848531,9.98673267 C39.9968496,9.73287129 39.6340673,9.53564356 39.296708,9.39465347 C38.9589451,9.25366337 38.6104885,9.12693069 38.2517416,9.01386139 C37.8923894,8.90138614 37.4793664,8.78871287 37.0124708,8.67564356 C36.5455752,8.5629703 36.1829947,8.4429703 35.9245274,8.3160396 C35.5508496,8.14693069 35.3644142,7.87920792 35.3644142,7.51267327 C35.3644142,7.10376238 35.5437876,6.79722772 35.9029381,6.59267327 C36.261685,6.38851485 36.7287823,6.28613861 37.303423,6.28613861 C38.3947965,6.28613861 39.4078832,6.58930693 40.3418761,7.19544554 L41.2468142,5.44019802 C40.0688814,4.6790099 38.8189168,4.2980198 37.4975257,4.2980198 C36.175731,4.2980198 35.1019115,4.61207921 34.2758655,5.23940594 C33.4496177,5.86673267 33.0367965,6.70217822 33.0367965,7.74534653 C33.0367965,9.22574257 34.2292566,10.2827723 36.6139752,10.9172277 C36.6710761,10.9314851 36.7572319,10.959802 36.8724425,11.0019802 C38.3947965,11.4532673 39.1564779,11.9607921 39.1564779,12.5247525 C39.1564779,12.9053465 38.9980885,13.2190099 38.6823186,13.4657426 C38.3663469,13.7124752 37.9353664,13.8356436 37.3895788,13.8356436 C36.1398159,13.8356436 34.8470761,13.3423762 33.5109558,12.3552475 L32.3473487,14.1950495 C33.0367965,14.7308911 33.8303575,15.1467327 34.7282336,15.4427723 C35.6261097,15.7388119 36.4915009,15.8869307 37.3246088,15.8869307 C38.5602478,15.8869307 39.572931,15.5663366 40.3632637,14.9247525 C41.1529912,14.2831683 41.5482584,13.4269307 41.5482584,12.3552475 C41.5482584,11.2839604 41.1604566,10.4942574 40.3848531,9.98673267" id="XMLID_188_" fill="#1F0047"></path>
                    <path d="M8.45153628,8.32653465 C7.94126018,8.8550495 6.98244956,9.11960396 5.57490265,9.11960396 L2.62280708,9.11960396 L2.62280708,3.1980198 L5.2084885,3.1980198 C6.58758584,3.1980198 7.60026903,3.40950495 8.24673982,3.83267327 C8.89321062,4.25564356 9.21644602,4.97821782 9.21644602,6.00039604 C9.21644602,7.02277228 8.96140885,7.79762376 8.45153628,8.32653465 M10.2507186,2.22554455 C9.20191858,1.36574257 7.53550088,0.935445545 5.25146549,0.935445545 L0.0801026549,0.935445545 L0.0801026549,15.7178218 L2.62280708,15.7178218 L2.62280708,11.3825743 L5.29464425,11.3825743 C7.50705133,11.3825743 9.14804602,10.9667327 10.2184354,10.1348515 C11.2882195,9.30336634 11.8237168,7.99188119 11.8237168,6.20138614 C11.8237168,4.41108911 11.299115,3.08554455 10.2507186,2.22554455" id="XMLID_336_" fill="#1F0047"></path>
                    <path d="M47.1955965,13.8354455 C46.6784602,13.8354455 46.276131,13.6766337 45.9890124,13.359604 C45.7014903,13.0423762 45.5578301,12.6162376 45.5578301,12.080198 L45.5578301,6.37029703 L48.5748956,6.37029703 L48.5748956,4.46712871 L45.5578301,4.46712871 L45.5578301,0.935445545 L43.1444602,0.935445545 L43.1444602,12.0168317 C43.1444602,13.2011881 43.5070407,14.1421782 44.2326053,14.84 C44.9577664,15.5380198 45.8340531,15.8867327 46.8612637,15.8867327 C47.8882726,15.8867327 48.8256956,15.5134653 49.673331,14.7659406 L48.6820354,13.0950495 C48.2086832,13.5891089 47.7129345,13.8354455 47.1955965,13.8354455" id="XMLID_185_" fill="#1F0047"></path>
                    <path d="M58.2412885,12.7675248 C57.5802903,13.4514851 56.7762372,13.7930693 55.8279186,13.7930693 C54.8800035,13.7930693 54.053554,13.4548515 53.3497805,12.7782178 C52.6458053,12.1011881 52.2941204,11.2237624 52.2941204,10.1451485 C52.2941204,9.06653465 52.6389451,8.16772277 53.3283929,7.44871287 C54.0180425,6.72970297 54.843685,6.37029703 55.806531,6.37029703 C56.7687717,6.37029703 57.5802903,6.72970297 58.2412885,7.44871287 C58.902085,8.16772277 59.2325841,9.06336634 59.2325841,10.1346535 C59.2323823,11.2063366 58.9018832,12.0837624 58.2412885,12.7675248 L58.2412885,12.7675248 Z M59.1894053,6.41287129 C58.2124354,5.00316832 56.9697345,4.29782178 55.4615044,4.29782178 C53.9530726,4.29782178 52.6458053,4.81960396 51.5399044,5.86277228 C50.4333982,6.90613861 49.8805487,8.30217822 49.8805487,10.049901 C49.8805487,11.7982178 50.4192743,13.2085149 51.4965239,14.279604 C52.5739752,15.3508911 53.8380637,15.8867327 55.2891929,15.8867327 C56.007292,15.8867327 56.7221628,15.7142574 57.4329982,15.3685149 C58.1440354,15.0233663 58.7293699,14.5265347 59.1892035,13.8778218 L59.1892035,15.7176238 L61.6025735,15.7176238 L61.6025735,4.46712871 L59.1892035,4.46712871 L59.1892035,6.41287129 L59.1894053,6.41287129 Z" id="XMLID_332_" fill="#1F0047"></path>
                    <path d="M97.3765805,12.7465347 C96.6941947,13.430495 95.8286018,13.7720792 94.7802053,13.7720792 C93.7314053,13.7720792 92.8658124,13.430495 92.1838301,12.7465347 C91.5012425,12.0627723 91.1602513,11.1782178 91.1602513,10.0924752 C91.1602513,9.00693069 91.5012425,8.12237624 92.1838301,7.43841584 C92.8660142,6.75465347 93.7314053,6.41267327 94.7802053,6.41267327 C95.8286018,6.41267327 96.6943965,6.75465347 97.3765805,7.43841584 C98.0587646,8.12237624 98.4001593,9.00673267 98.4001593,10.0924752 C98.4001593,11.1782178 98.0587646,12.0627723 97.3765805,12.7465347 M94.7802053,4.29782178 C93.0562832,4.29782178 91.6196814,4.85841584 90.4708035,5.97920792 C89.3211186,7.10019802 88.7468814,8.47128713 88.7468814,10.0926733 C88.7468814,11.7140594 89.3211186,13.0849505 90.4708035,14.2059406 C91.6198832,15.3267327 93.0562832,15.8871287 94.7802053,15.8871287 C96.5041274,15.8871287 97.9403257,15.3267327 99.0900106,14.2059406 C100.23909,13.0849505 100.813529,11.7140594 100.813529,10.0926733 C100.813529,8.47128713 100.23909,7.10019802 99.0900106,5.97920792 C97.9403257,4.85841584 96.5041274,4.29782178 94.7802053,4.29782178" id="XMLID_329_" fill="#E2066F"></path>
                    <path d="M110.485572,12.7568317 C109.781395,13.4336634 108.955752,13.7720792 108.007434,13.7720792 C107.059115,13.7720792 106.25486,13.430495 105.594064,12.7465347 C104.933065,12.0627723 104.602768,11.1851485 104.602768,10.1134653 C104.602768,9.04237624 104.933065,8.15029703 105.594064,7.43841584 C106.25486,6.72633663 107.066379,6.37029703 108.029023,6.37029703 C108.991264,6.37029703 109.817713,6.72633663 110.507161,7.43841584 C111.196811,8.15029703 111.541232,9.04554455 111.541232,10.1239604 C111.541232,11.2025743 111.189345,12.080198 110.485572,12.7568317 M112.317239,5.86277228 C111.22526,4.81960396 109.910729,4.29782178 108.373646,4.29782178 C106.836361,4.29782178 105.594064,5.01009901 104.645745,6.43405941 L104.645745,4.46732673 L102.232375,4.46732673 L102.232375,19.820396 L104.645745,19.820396 L104.645745,14.0261386 C105.795228,15.2669307 107.0916,15.8869307 108.535264,15.8869307 C109.978927,15.8869307 111.243016,15.3443564 112.327529,14.2586139 C113.412042,13.1732673 113.954804,11.7629703 113.954804,10.0289109 C113.954804,8.29485149 113.408612,6.90613861 112.317239,5.86277228" id="XMLID_326_" fill="#E2066F"></path>
                    <path d="M83.1281947,4.29782178 C82.3235363,4.29782178 81.5729522,4.49564356 80.8762407,4.88990099 C80.1793274,5.2849505 79.6587611,5.82772277 79.3141381,6.51861386 L79.3141381,0.0473267327 L76.9005664,0.0473267327 L76.9005664,15.7178218 L79.3141381,15.7178218 L79.3141381,9.62712871 C79.3141381,8.58376238 79.622846,7.79089109 80.2408673,7.24792079 C80.8580814,6.70534653 81.5838478,6.43386139 82.4171575,6.43386139 C84.1695292,6.43386139 85.0460177,7.46990099 85.0460177,9.54237624 L85.0460177,15.7178218 L87.4595894,15.7178218 L87.4595894,8.82336634 C87.4595894,7.35722772 87.060892,6.23663366 86.2634973,5.4609901 C85.4661027,4.68594059 84.4209345,4.29782178 83.1281947,4.29782178" id="XMLID_178_" fill="#E2066F"></path>
                    <path d="M74.0148531,8.61207921 C73.2317841,7.94950495 72.068177,7.4350495 70.5240319,7.06831683 C68.979685,6.7019802 67.9706336,6.35980198 67.4964743,6.04257426 C67.0225168,5.72554455 66.7854372,5.26732673 66.7854372,4.66792079 C66.7854372,4.06891089 67.0225168,3.62118812 67.4964743,3.32534653 C67.9706336,3.02910891 68.5773558,2.8809901 69.3174478,2.8809901 C70.0571363,2.8809901 70.8073168,3.00792079 71.5692,3.26178218 C72.3302761,3.51544554 72.9335681,3.83980198 73.3792779,4.23465347 L74.7363823,2.35247525 C74.0469345,1.78891089 73.2281522,1.35128713 72.2800354,1.04138614 C71.3319186,0.731287129 70.3763363,0.576039604 69.4142973,0.576039604 C67.9199894,0.576039604 66.6665947,0.946336634 65.6539115,1.68613861 C64.6412283,2.42633663 64.1349876,3.48019802 64.1349876,4.84772277 C64.1349876,6.21524752 64.580092,7.23049505 65.4707044,7.89306931 C65.9158088,8.24534653 66.426085,8.53108911 67.0005239,8.74930693 C67.5751646,8.96811881 68.4155363,9.20772277 69.5220425,9.46831683 C70.6279434,9.72950495 71.4071788,10.0182178 71.8597487,10.3354455 C72.3123186,10.6526733 72.5387044,11.0966337 72.5387044,11.6677228 C72.5387044,12.2388119 72.2979929,12.6970297 71.8165699,13.0423762 C71.3351469,13.3881188 70.685246,13.5605941 69.8664637,13.5605941 C68.2288991,13.5605941 66.6484354,12.9120792 65.1258796,11.6148515 L63.5314938,13.4970297 C65.3556956,15.090495 67.4458301,15.8869307 69.8018973,15.8869307 C71.4106088,15.8869307 72.7108142,15.4851485 73.7021097,14.6813861 C74.6932035,13.8780198 75.1889522,12.8312871 75.1889522,11.5409901 C75.1889522,10.2506931 74.7977204,9.2750495 74.0148531,8.61207921" id="XMLID_177_" fill="#E2066F"></path>
                </g>
                <path d="M16.4548008,41.4678852 C16.6384663,41.3868874 16.8245094,41.3125576 17.0123357,41.2427386 C17.2243337,41.1638981 17.4381148,41.0897645 17.6546698,41.0250446 C17.9243233,40.9446351 18.1961563,40.8718743 18.4717537,40.8140187 C18.8432455,40.7359627 19.2190962,40.678107 19.5979188,40.6416286 C19.3855245,41.3027516 19.1507417,41.9601483 18.8963441,42.6132303 C18.9072412,42.7397282 18.9131851,42.8670105 18.9165532,42.994489 C19.4287166,42.8944674 19.9579191,42.8409265 20.4998019,42.8409265 C21.0416846,42.8409265 21.5708871,42.8944674 22.0830505,42.994489 C22.0864187,42.8668144 22.0921644,42.7395321 22.1032597,42.6132303 C21.8488621,41.9601483 21.6140792,41.3027516 21.401685,40.6416286 C21.7805076,40.678107 22.1563582,40.7357665 22.52785,40.8140187 C22.8032493,40.8718743 23.0752804,40.9446351 23.3449339,41.0250446 C23.561687,41.0895683 23.7752701,41.1638981 23.9872681,41.2427386 C24.1750943,41.3125576 24.3613356,41.3870835 24.5450011,41.4678852 C25.8480954,42.0423229 27.0360767,42.8942713 28.0102769,44 C30.4522165,41.9124909 32,38.8279041 32,35.3834356 C32,29.0965895 26.8512224,24 20.5,24 C14.1487776,24 9,29.0965895 9,35.3834356 C9,38.8279041 10.5475854,41.9126871 12.9897231,44 C13.9637252,42.8942713 15.1517065,42.0421267 16.4548008,41.4678852 Z" id="XMLID_176_" fill="#A0DBE8" fill-rule="nonzero"></path>
                <path d="M17.2326437,43 C17.8590805,42.7543156 18.5204598,42.5665353 19.2094253,42.4460378 C19.2055172,42.3133071 19.1988506,42.1809841 19.185977,42.0496806 C19.4811494,41.3707354 19.7535632,40.6873046 20,40 C19.5604598,40.0379231 19.1243678,40.097866 18.6933333,40.1792171 C18.3737931,40.2393639 18.0581609,40.3150061 17.7452874,40.3986 C17.494023,40.4656789 17.245977,40.5427484 17,40.624915 L17.9726437,40.8338997 L17.2326437,43 Z" id="XMLID_175_" fill="#525353" fill-rule="nonzero"></path>
                <path d="M13.9453433,44.6241779 C13.9635241,44.4547448 13.9746727,44.2839023 13.9746727,44.1113373 C13.9746727,44.0075164 14.0669487,43.9232697 14.1806643,43.9232697 L14.3616145,43.9232697 L15,42 C13.8719341,42.4586596 12.8435195,43.1388976 12,44.0217664 C12.464982,44.3883495 12.9670116,44.7160977 13.5011149,45 C13.6433023,44.868932 13.7914928,44.7435014 13.9453433,44.6241779 Z" id="XMLID_174_" fill="#525353" fill-rule="nonzero"></path>
                <path d="M24,42 L24.638422,43.92337 L24.819211,43.92337 C24.9331046,43.92337 25.0252144,44.0076212 25.0252144,44.1114475 C25.0252144,44.2841781 25.0363636,44.4550295 25.0545455,44.6243149 C25.2085763,44.7436446 25.3566038,44.8692384 25.4987993,45 C26.0329331,44.7160829 26.5349914,44.3883176 27,44.0217153 C26.1566038,43.138957 25.1281304,42.4586835 24,42 Z" id="XMLID_173_" fill="#525353" fill-rule="nonzero"></path>
                <path d="M23.0275862,40.8338997 L24,40.624915 C23.754023,40.5429523 23.505977,40.4658828 23.2547126,40.3986 C22.9418391,40.3150061 22.6264368,40.2393639 22.3066667,40.1792171 C21.8756322,40.0980699 21.4395402,40.0379231 21,40 C21.2464368,40.6873046 21.5188506,41.3707354 21.814023,42.0496806 C21.8013793,42.181188 21.7944828,42.3135109 21.7905747,42.4460378 C22.4797701,42.5665353 23.1411494,42.7543156 23.7675862,43 L23.0275862,40.8338997 Z" id="XMLID_172_" fill="#525353" fill-rule="nonzero"></path>
                <path d="M20.5,44 L22,44 C21.9691894,43.7146374 21.9581856,43.4302215 21.9655215,43.1482674 C21.4914415,43.0516948 21.0015894,43 20.5,43 C19.9984106,43 19.5087419,43.0516948 19.0344785,43.1482674 C19.041631,43.4302215 19.0306272,43.7146374 19,44 L20.5,44 Z" id="XMLID_171_" fill="#000000" fill-rule="nonzero"></path>
                <path d="M14,45.6774922 C14.2606178,45.7884778 14.523166,45.8966394 14.7899614,46 C14.8833977,45.6715617 14.9548263,45.3380401 15,45 C14.653668,45.2151934 14.3200772,45.4414007 14,45.6774922 Z" id="XMLID_170_" fill="#000000" fill-rule="nonzero"></path>
                <path d="M17,44 L18.9563025,44 C18.99302,43.6649622 19.0061334,43.331036 18.9973911,43 C18.3423762,43.1313917 17.7133696,43.3361494 17.1180207,43.6040462 L17,44 Z" id="XMLID_169_" fill="#000000" fill-rule="nonzero"></path>
                <path d="M25,45 C25.0451737,45.3380401 25.1166023,45.6715617 25.2100386,46 C25.476834,45.8966394 25.7397683,45.7884778 26,45.6774922 C25.6799228,45.4414007 25.3467181,45.2151934 25,45 Z" id="XMLID_168_" fill="#000000" fill-rule="nonzero"></path>
                <path d="M24,43.9997777 L23.8819861,43.6040462 C23.2864528,43.3361494 22.6577009,43.1313917 22.002505,43 C21.9939818,43.331036 22.0070945,43.6649622 22.0435914,44 L24,43.9997777 L24,43.9997777 Z" id="XMLID_167_" fill="#000000" fill-rule="nonzero"></path>
                <path d="M17.3015696,44 L17.4018761,43.7347926 L18,42.152632 L17.2140801,42 C17.0379864,42.0530117 16.8633788,42.1095972 16.6913718,42.1709478 L16,43.9998511 L16.742268,43.9998511 L17.3015696,44 L17.3015696,44 Z" id="XMLID_166_" fill="#AA9678" fill-rule="nonzero"></path>
                <path d="M23.5979381,43.7349218 L23.6982446,44 L24.2575462,44 L25,44 L24.3086282,42.1709605 C24.1364354,42.1094564 23.9618278,42.0530156 23.7857342,42 L23,42.1526433 L23.5979381,43.7349218 Z" id="XMLID_165_" fill="#AA9678" fill-rule="nonzero"></path>
                <path d="M16,45.039 C16.018,45.026 16.0365,45.013 16.055,45 L16.0025,45 C16.002,45.013 16.0005,45.0255 16,45.039 Z" id="XMLID_164_" fill="#C0B098" fill-rule="nonzero"></path>
                <path d="M20,45 L18.6276715,45 L17.130323,45 L16.1586052,45 C16.1526595,45.0042156 16.1467138,45.0084313 16.1409288,45.0126469 C16.1280733,45.380381 16.0792222,45.7409809 16,46.0918525 C17.212277,46.6734495 18.5682147,47 20,47 L20,45 Z" id="XMLID_163_" fill="#C0B098" fill-rule="nonzero"></path>
                <path d="M25.0525,45 L25,45 C25.0185,45.013 25.037,45.026 25.055,45.039 C25.054,45.026 25.0525,45.0135 25.0525,45 Z" id="XMLID_162_" fill="#AA9678" fill-rule="nonzero"></path>
                <path d="M23.8412341,45 L22.869677,45 L21.3721678,45 L20,45 L20,45 L20,47 C21.4317853,47 22.787723,46.6736117 24,46.0918525 C23.9207778,45.7409809 23.8720874,45.3805432 23.8590712,45.0126469 C23.8531255,45.0084313 23.8471798,45.0043778 23.8412341,45 Z" id="XMLID_161_" fill="#AA9678" fill-rule="nonzero"></path>
                <rect id="XMLID_160_" fill="#786453" fill-rule="nonzero" x="20" y="45" width="1" height="1"></rect>
                <path d="M26.8900304,44.9798599 C26.8685235,44.7429947 26.8553352,44.5041594 26.8553352,44.2629159 C26.8553352,44.1177758 26.7461773,44 26.6116573,44 L26.397805,44 L25.5868302,44 L24.9759107,44 L23.1597897,44 L21.5003043,44 L19.8406161,44 L18.0244951,44 L17.4135756,44 L16.6028037,44 L16.3887485,44 C16.2540256,44 16.1450706,44.1177758 16.1450706,44.2629159 C16.1450706,44.5043783 16.1318823,44.7432137 16.1103754,44.9798599 C16.0866365,45.2419002 16.0491008,45.5004378 16,45.755035 C16.1483169,45.8397548 16.2978511,45.9220665 16.4496173,46 C16.5496449,45.5262697 16.6111224,45.0396235 16.6275569,44.5429072 C16.6277598,44.5372154 16.6283685,44.5315236 16.6285714,44.5258319 L16.6498755,44.5258319 L17.8767869,44.5258319 L19.7673707,44.5258319 L21.5001014,44.5258319 L21.5001014,44.5258319 L23.2326293,44.5258319 L25.123416,44.5258319 L26.3501245,44.5258319 L26.3714286,44.5258319 C26.3716315,44.5315236 26.3722402,44.5372154 26.3724431,44.5429072 C26.3886747,45.0394046 26.4503551,45.5262697 26.5503827,46 C26.7023517,45.9220665 26.851886,45.8397548 27,45.755035 C26.951305,45.5002189 26.9137693,45.2419002 26.8900304,44.9798599 Z" id="XMLID_159_" fill="#8B7460" fill-rule="nonzero"></path>
                <g id="XMLID_195_" transform="translate(12.000000, 27.000000)">
                    <path d="M11.9718998,6.28858537 L11.9718998,6.28858537 C11.97243,6.28956098 11.9726951,6.29053659 11.9732253,6.29131707 C12.1656841,6.69834146 12.3841223,7.11063415 12.4962574,7.53482927 C12.4922809,7.56429268 12.4883045,7.59473171 12.4843281,7.62614634 C12.4742545,7.67180488 12.4639158,7.71219512 12.4535771,7.7484878 C12.4697479,7.69268293 12.4853885,7.62614634 12.5010291,7.54868293 C12.3894242,7.11863415 12.1670096,6.70107317 11.9718998,6.28858537 C11.9711045,6.28956098 11.9705744,6.29053659 11.9697791,6.29170732 C11.9705744,6.29073171 11.9711045,6.28956098 11.9718998,6.28858537 L11.9718998,6.28858537 Z" id="XMLID_158_"></path>
                    <path d="M15.3234368,8.84897561 C15.3135531,8.85490732 15.3036693,8.85990244 15.2934767,8.86520976 C15.3036693,8.85990244 15.3135531,8.85459512 15.3234368,8.84897561 Z" id="XMLID_157_"></path>
                    <path d="M15.4007028,8.79356098 C15.3877304,8.80604878 15.3750669,8.81947317 15.3614767,8.8304 C15.3750669,8.81947317 15.3877304,8.80604878 15.4007028,8.79356098 Z" id="XMLID_156_"></path>
                    <path d="M11.6262209,5.99063415 C11.3625233,5.77092683 11.085186,5.57073171 10.7942093,5.3937561 L10.7942093,5.3937561 C11.085186,5.57053659 11.3623256,5.77092683 11.6262209,5.99063415 Z" id="XMLID_155_"></path>
                    <path d="M14.2871163,8.70478049 C14.2902049,8.70852683 14.2932936,8.71258537 14.2966911,8.71633171 C14.2936025,8.71258537 14.2905138,8.70883902 14.2871163,8.70478049 Z" id="XMLID_154_"></path>
                    <path d="M14.7731977,9.30302439 C14.7852435,9.31863415 14.7975981,9.33393171 14.8096439,9.34954146 C14.7975981,9.33393171 14.7852435,9.31863415 14.7731977,9.30302439 Z" id="XMLID_153_"></path>
                    <path d="M12.3400974,7.7644878 C12.3280516,7.81912195 12.3160058,7.86813659 12.3036512,7.90497561 C12.3160058,7.86782439 12.3280516,7.81880976 12.3400974,7.7644878 Z" id="XMLID_152_"></path>
                    <path d="M11.2082894,11.8958049 C11.0297315,12.1845854 10.9153177,12.4583415 10.8491628,12.715122 C10.9153177,12.4583415 11.0297315,12.1845854 11.2082894,11.8958049 C11.2670044,11.8007805 11.3245129,11.7075122 11.3804128,11.6158049 C11.3249151,11.7067317 11.2680098,11.7990244 11.209697,11.8932683 C11.2092948,11.8942439 11.2088926,11.8950244 11.2082894,11.8958049 Z" id="XMLID_151_"></path>
                    <path d="M11.9725465,6.32269268 C11.9886076,6.29022439 12.0049775,6.25900488 12.0210385,6.22653659 L12.0167144,6.23028293 C12.0018888,6.26025366 11.9870632,6.29178537 11.9725465,6.32269268 C12.0803408,6.41697561 12.1875174,6.51313171 12.2928408,6.61053659 C12.1875174,6.51313171 12.0806497,6.41697561 11.9725465,6.32269268 Z" id="XMLID_150_"></path>
                    <path d="M9.69513953,7.77326829 C9.6954484,7.77451707 9.69606613,7.77576585 9.696375,7.77701463 C9.69606613,7.77576585 9.6954484,7.77451707 9.69513953,7.77326829 Z" id="XMLID_149_"></path>
                    <path d="M10.4061126,5.17467317 C10.3814033,5.16062439 10.3619448,5.15000976 10.3508256,5.14439024 C10.3619448,5.15000976 10.3814033,5.16062439 10.4061126,5.17467317 Z" id="XMLID_147_"></path>
                    <path d="M10.4718765,5.21166829 C10.442843,5.19512195 10.4184426,5.18138537 10.3958953,5.16858537 C10.4181337,5.18138537 10.4425342,5.19512195 10.4718765,5.21166829 Z" id="XMLID_146_"></path>
                    <path d="M10.8210296,6.10809756 C10.8213384,6.15086829 10.8204118,6.19332683 10.8207207,6.23609756 C10.8204118,6.19332683 10.8216473,6.15086829 10.8210296,6.10809756 Z" id="XMLID_145_"></path>
                    <path d="M9.65639535,7.67531707 C9.65670422,7.67625366 9.65732195,7.67719024 9.65793968,7.67843902 C9.65732195,7.67719024 9.65701308,7.67625366 9.65639535,7.67531707 Z" id="XMLID_144_"></path>
                    <path d="M15.2414884,9.90107317 C15.2637267,9.93073171 15.286274,9.96007805 15.3085124,9.98942439 C15.286274,9.95976585 15.2637267,9.93041951 15.2414884,9.90107317 Z" id="XMLID_143_"></path>
                    <path d="M10.8266279,6.46497561 C10.8229215,6.64275339 10.8164353,6.82053117 10.8068605,6.99830894 C10.8164353,6.82053117 10.8229215,6.64275339 10.8266279,6.46497561 Z" id="XMLID_142_"></path>
                    <path d="M9.724,7.87590244 C9.72430887,7.87746341 9.72461773,7.8787122 9.7249266,7.88027317 C9.7249266,7.8787122 9.72430887,7.87746341 9.724,7.87590244 Z" id="XMLID_141_"></path>
                    <path d="M10.9141606,5.46517073 C10.848681,5.42708293 10.6769513,5.32780488 10.5222093,5.23882927 C10.6747892,5.3265561 10.8449746,5.42520976 10.9141606,5.46517073 Z" id="XMLID_140_"></path>
                    <path d="M10.5553568,5.2590439 C10.5164397,5.23687805 10.4796846,5.21564878 10.4457093,5.19629268 C10.4793757,5.21533659 10.5167485,5.23656585 10.5553568,5.2590439 Z" id="XMLID_139_"></path>
                    <path d="M10.7956672,5.39320976 L10.7956672,5.39320976 C10.7944317,5.39258537 10.7870189,5.38821463 10.7839302,5.38634146 C10.7885632,5.38946341 10.7941228,5.39258537 10.7956672,5.39320976 Z" id="XMLID_138_"></path>
                    <path d="M15.6249767,8.17646829 C15.6252856,8.16210732 15.6274477,8.14868293 15.6274477,8.13432195 C15.6274477,8.13244878 15.6277565,8.1308878 15.6277565,8.12901463 C15.6277565,8.12745366 15.6274477,8.12589268 15.6274477,8.12401951 C15.6274477,8.11059512 15.6252856,8.09810732 15.6249767,8.08468293 C15.6252856,8.09966829 15.6274477,8.11371707 15.6274477,8.12901463 C15.6277565,8.14524878 15.6252856,8.16054634 15.6249767,8.17646829 Z" id="XMLID_137_"></path>
                    <path d="M13.7464767,8.07180488 C13.7637733,8.09178537 13.780452,8.11176585 13.7977485,8.13174634 C13.7974397,8.13143415 13.7971308,8.13112195 13.7968219,8.13080976 L13.8011461,8.13080976 C13.7937333,8.12206829 13.7742747,8.10115122 13.7464767,8.07180488 L13.7464767,8.07180488 Z" id="XMLID_136_"></path>
                    <path d="M12.1775349,6.46653659 C12.3581225,6.64046032 12.534505,6.81905811 12.7087849,6.99986992 C12.5347386,6.81881211 12.3581225,6.64046032 12.1775349,6.46653659 Z" id="XMLID_135_"></path>
                    <path d="M15.1649884,7.33131707 C15.2091562,7.33131707 15.2514709,7.34068293 15.2934767,7.35379512 C15.2517798,7.34068293 15.2091562,7.33131707 15.1649884,7.33131707 Z" id="XMLID_134_"></path>
                    <path d="M14.7278932,7.89404878 C14.7241868,7.91559024 14.7195538,7.93619512 14.7164651,7.95836098 C14.7195538,7.93619512 14.7241868,7.91559024 14.7278932,7.89404878 Z" id="XMLID_133_"></path>
                    <path d="M15.2717326,7.35434146 C15.3010749,7.36651707 15.3297994,7.38243902 15.3579063,7.40054634 C15.3297994,7.38212683 15.3010749,7.36682927 15.2717326,7.35434146 Z" id="XMLID_132_"></path>
                    <path d="M15.4474651,7.49853659 C15.45704,7.51164878 15.466306,7.52507317 15.4755719,7.53880976 C15.466306,7.52507317 15.45704,7.51164878 15.4474651,7.49853659 Z" id="XMLID_131_"></path>
                    <path d="M15.6179222,7.95847805 C15.6176134,7.95566829 15.6166868,7.95285854 15.6163779,7.95004878 C15.6157602,7.94505366 15.6145247,7.94099512 15.613907,7.936 C15.6148336,7.94411707 15.6169956,7.95129756 15.6182311,7.95972683 C15.6179222,7.95910244 15.6179222,7.95879024 15.6179222,7.95847805 Z" id="XMLID_130_"></path>
                    <path d="M15.6166003,8.2848 C15.617218,8.28136585 15.6181446,8.2782439 15.6184535,8.27449756 C15.6184535,8.27418537 15.6184535,8.27387317 15.6184535,8.27356098 C15.617218,8.28292683 15.6147471,8.2913561 15.6135116,8.30072195 C15.6144382,8.29541463 15.6159826,8.29041951 15.6166003,8.2848 Z" id="XMLID_129_"></path>
                    <path d="M14.8645233,7.53912195 C14.8737892,7.52507317 14.8833641,7.51164878 14.892939,7.49853659 C14.8833641,7.51164878 14.8737892,7.52507317 14.8645233,7.53912195 Z" id="XMLID_128_"></path>
                    <path d="M15.0827558,7.35379512 C15.1244528,7.34068293 15.1670763,7.33131707 15.2112442,7.33131707 C15.1670763,7.33131707 15.1244528,7.34068293 15.0827558,7.35379512 Z" id="XMLID_127_"></path>
                    <path d="M13.165351,7.44035122 C13.0550858,7.32327805 12.9426584,7.20807805 12.8308488,7.09287805 C12.9429673,7.20807805 13.0547769,7.32327805 13.165351,7.44035122 Z" id="XMLID_126_"></path>
                    <path d="M15.2842276,4.85502439 L15.2842276,4.85502439 C15.2842276,4.8542439 15.2842276,4.85190244 15.2842276,4.85190244 L15.2842276,5.90497561 L14.7573113,7.75219512 C14.7555268,7.75668293 14.7547621,7.76195122 14.7532326,7.76643902 C14.7545072,7.76273171 14.7560367,7.75941463 14.7575662,7.75590244 L14.7575662,7.75590244 L14.7575662,7.75590244 L15.2844826,5.90868293 L15.2844826,4.85560976 L15.2844826,4.85560976 L15.2842276,4.85502439 L15.2842276,4.85502439 Z" id="XMLID_125_"></path>
                    <path d="M13.4900807,7.78981463 C13.4320138,7.72487805 13.3733292,7.65994146 13.3149535,7.59531707 C13.3736381,7.65994146 13.4317049,7.72487805 13.4900807,7.78981463 Z" id="XMLID_124_"></path>
                    <path d="M15.5735814,7.75570732 C15.5806853,7.77912195 15.5893336,7.80097561 15.5955109,7.82532683 C15.5955109,7.82501463 15.5955109,7.82470244 15.595202,7.82439024 C15.5890247,7.80035122 15.5806853,7.77912195 15.5735814,7.75570732 L15.5735814,7.75570732 L15.5735814,7.75570732 Z" id="XMLID_123_"></path>
                    <path d="M14.7032209,8.12156098 L14.7038387,8.12156098 C14.7038387,8.10969756 14.7056919,8.09877073 14.7056919,8.08721951 C14.705383,8.09908293 14.7032209,8.10969756 14.7032209,8.12156098 Z" id="XMLID_122_"></path>
                    <path d="M15.003093,7.40074146 C15.0311999,7.38263415 15.0596156,7.3667122 15.0892667,7.35453659 C15.0599244,7.3667122 15.0311999,7.38200976 15.003093,7.40074146 Z" id="XMLID_121_"></path>
                    <path d="M14.9196744,7.48573659 C14.9493256,7.45326829 14.9799033,7.42329756 15.0123343,7.39863415 C14.9799033,7.42360976 14.9490167,7.4529561 14.9196744,7.48573659 Z" id="XMLID_120_"></path>
                    <path d="M15.6081868,8.42630244 C15.6081868,8.42599024 15.6081868,8.42567805 15.6084956,8.42536585 C15.5924346,8.48936585 15.572976,8.5505561 15.5510465,8.60862439 C15.5735938,8.54993171 15.5939789,8.48874146 15.6106577,8.42380488 L15.6081868,8.42630244 L15.6081868,8.42630244 Z" id="XMLID_119_"></path>
                    <path d="M1.60472093,7.8092878 C1.63097456,7.76714146 1.65846366,7.72593171 1.68502616,7.68409756 C1.65846366,7.72593171 1.63097456,7.76714146 1.60472093,7.8092878 Z" id="XMLID_118_"></path>
                    <path d="M15.351,7.39863415 C15.383431,7.42329756 15.4140087,7.45326829 15.4436599,7.48573659 C15.4143176,7.4529561 15.383431,7.42360976 15.351,7.39863415 Z" id="XMLID_117_"></path>
                    <path d="M1.93009302,7.31090732 C1.94306541,7.2931122 1.95511119,7.27438049 1.96839244,7.25658537 C1.95542006,7.27438049 1.94306541,7.2931122 1.93009302,7.31090732 Z" id="XMLID_116_"></path>
                    <path d="M9.75090843,8.10801951 L9.75152616,8.10770732 C9.75152616,8.10677073 9.75152616,8.10583415 9.75152616,8.10489756 L9.75152616,8.10489756 L9.75461483,8.10489756 L9.7502907,8.09521951 C9.7502907,8.09959024 9.75090843,8.10364878 9.75090843,8.10801951 Z" id="XMLID_115_"></path>
                    <path d="M1.13898765,8.66478049 C1.10810102,8.73096585 1.07752326,8.79715122 1.04787209,8.86396098 C1.07752326,8.79715122 1.10810102,8.73096585 1.13898765,8.66478049 Z" id="XMLID_114_"></path>
                    <path d="M0.859698401,9.24331707 C0.85568314,9.2542439 0.851050145,9.26485854 0.847034884,9.27578537 C0.851050145,9.26485854 0.85568314,9.2542439 0.859698401,9.24331707 Z" id="XMLID_113_"></path>
                    <polygon id="XMLID_112_" points="15.4498001 5.12440976 15.4482558 5.12253659 15.4482558 5.12253659"></polygon>
                    <path d="M3.12251453,6.02029268 L3.12127907,6.02154146 L3.12251453,6.02029268 Z" id="XMLID_111_"></path>
                    <path d="M2.67315116,6.4723122 C2.70867078,6.43640976 2.74480814,6.4014439 2.78063663,6.36585366 C2.74480814,6.4014439 2.70836192,6.43640976 2.67315116,6.4723122 Z" id="XMLID_110_"></path>
                    <path d="M2.26851163,6.91722927 C2.30464898,6.87414634 2.34047747,6.83075122 2.37723256,6.78829268 C2.34047747,6.83075122 2.30464898,6.87383415 2.26851163,6.91722927 Z" id="XMLID_109_"></path>
                    <path d="M15.6962384,7.75590244 L15.1649884,5.90868293 L15.6962384,7.75590244 Z" id="XMLID_108_"></path>
                    <path d="M8.46119404,9.15832195 C8.44914826,9.15582439 8.4377202,9.15207805 8.42567442,9.14926829 C8.4377202,9.15207805 8.44914826,9.15582439 8.46119404,9.15832195 Z" id="XMLID_107_"></path>
                    <path d="M8.57206468,9.1742439 C8.55847456,9.17268293 8.54550218,9.16987317 8.53222093,9.168 C8.54550218,9.16956098 8.55847456,9.17268293 8.57206468,9.1742439 Z" id="XMLID_106_"></path>
                    <path d="M1.40007849,8.17658537 C1.35961701,8.25057561 1.32162645,8.32581463 1.2827093,8.40042927 C1.32162645,8.32581463 1.35961701,8.25057561 1.40007849,8.17658537 Z" id="XMLID_105_"></path>
                    <path d="M8.14377834,9.04222439 C8.14316061,9.0419122 8.14223401,9.0412878 8.14161628,9.04097561 C8.14254288,9.0412878 8.14316061,9.0419122 8.14377834,9.04222439 Z" id="XMLID_104_"></path>
                    <path d="M8.3505952,9.13049756 C8.34287355,9.128 8.33515189,9.12456585 8.32743023,9.1217561 C8.33515189,9.12456585 8.34256468,9.128 8.3505952,9.13049756 Z" id="XMLID_103_"></path>
                    <path d="M8.24428343,9.09147317 C8.24026817,9.0896 8.23656177,9.08741463 8.23254651,9.08585366 C8.23656177,9.08772683 8.24057703,9.0896 8.24428343,9.09147317 Z" id="XMLID_102_"></path>
                    <path d="M7.66937209,8.51336585 C7.66998983,8.51461463 7.67029869,8.51617561 7.67091642,8.51742439 C7.67029869,8.51617561 7.66998983,8.51461463 7.66937209,8.51336585 Z" id="XMLID_101_"></path>
                    <path d="M7.62181904,7.86731707 C7.61903924,7.87980488 7.61502398,7.89198049 7.61224419,7.90478049 C7.61502398,7.89229268 7.61903924,7.88011707 7.62181904,7.86731707 Z" id="XMLID_100_"></path>
                    <path d="M7.73117006,7.58458537 C7.73024346,7.58645854 7.72900799,7.58801951 7.7280814,7.58958049 C7.72931686,7.58801951 7.73024346,7.58645854 7.73117006,7.58458537 Z" id="XMLID_99_"></path>
                    <path d="M8.08897311,7.21190244 C8.08866424,7.21221463 8.08835538,7.21221463 8.08804651,7.21221463 C8.08835538,7.21221463 8.08866424,7.21221463 8.08897311,7.21190244 Z" id="XMLID_98_"></path>
                    <path d="M7.65008648,7.76897561 C7.64699782,7.77802927 7.64329142,7.78645854 7.64051163,7.7955122 C7.64329142,7.78645854 7.64730669,7.77771707 7.65008648,7.76897561 Z" id="XMLID_97_"></path>
                    <path d="M7.68655741,7.67492683 C7.68439535,7.67992195 7.68161555,7.68491707 7.67945349,7.6899122 C7.68161555,7.68491707 7.68439535,7.67992195 7.68655741,7.67492683 Z" id="XMLID_96_"></path>
                    <path d="M8.8852798,7.06485854 C8.88280887,7.06423415 8.88002907,7.06423415 8.87755814,7.06360976 C8.88002907,7.06392195 8.8825,7.06423415 8.8852798,7.06485854 Z" id="XMLID_95_"></path>
                    <path d="M9.08076744,7.12382439 C9.07922311,7.1232 9.07767878,7.12257561 9.07582558,7.12195122 C9.07736991,7.12257561 9.07922311,7.1232 9.08076744,7.12382439 Z" id="XMLID_94_"></path>
                    <path d="M8.27229142,7.12 C8.26982049,7.12093659 8.2670407,7.12187317 8.26456977,7.12280976 C8.2670407,7.12187317 8.26982049,7.12124878 8.27229142,7.12 Z" id="XMLID_93_"></path>
                    <path d="M8.47039826,7.06302439 C8.46669186,7.06364878 8.46298547,7.06396098 8.45927907,7.06458537 C8.46298547,7.06396098 8.46669186,7.06364878 8.47039826,7.06302439 Z" id="XMLID_92_"></path>
                    <path d="M9.74277907,7.98380488 C9.74277907,7.98474146 9.74308794,7.98536585 9.74308794,7.98630244 C9.74308794,7.98536585 9.74277907,7.98442927 9.74277907,7.98380488 Z" id="XMLID_91_"></path>
                    <path d="M8.67612791,4.70442927 C8.67612791,4.67789268 8.67612791,4.65291707 8.67612791,4.63043902 C8.67612791,4.65322927 8.67612791,4.67758049 8.67612791,4.70442927 Z" id="XMLID_90_"></path>
                    <path d="M8.67612791,4.61927805 C8.67612791,4.60210732 8.67612791,4.58649756 8.67612791,4.57463415 C8.67612791,4.58649756 8.67612791,4.60117073 8.67612791,4.61927805 Z" id="XMLID_89_"></path>
                    <path d="M8.67612791,4.5630439 C8.67612791,4.5568 8.67612791,4.55336585 8.67612791,4.55336585 C8.67612791,4.55336585 8.67612791,4.5568 8.67612791,4.5630439 Z" id="XMLID_88_"></path>
                    <path d="M8.67612791,4.88476098 L8.67612791,4.85853659 L8.67612791,4.78298537 C8.67612791,4.75800976 8.67612791,4.73365854 8.67612791,4.7102439 C8.67612791,4.76550244 8.67612791,4.82481951 8.67612791,4.88476098 Z" id="XMLID_87_"></path>
                    <path d="M15.5024557,8.67843902 C15.4842326,8.70809756 15.464774,8.73463415 15.4446977,8.76085854 C15.464774,8.73463415 15.4842326,8.70809756 15.5024557,8.67843902 Z" id="XMLID_86_"></path>
                    <path d="M7.60102616,7.97385366 C7.59948183,7.98759024 7.59639317,8.00070244 7.59484884,8.01443902 C7.59639317,8.00070244 7.59948183,7.98759024 7.60102616,7.97385366 Z" id="XMLID_85_"></path>
                    <path d="M7.60967442,8.31668293 C7.60998328,8.31886829 7.61029215,8.32105366 7.61060102,8.32355122 C7.61029215,8.32136585 7.60998328,8.31886829 7.60967442,8.31668293 Z" id="XMLID_84_"></path>
                    <path d="M15.5593365,8.56721951 C15.54204,8.60874146 15.5228903,8.64807805 15.502814,8.68585366 C15.5231991,8.64839024 15.5417311,8.60905366 15.5593365,8.56721951 Z" id="XMLID_83_"></path>
                    <path d="M11.4555167,14.9208195 C11.4014651,14.8580683 11.3455603,14.7906341 11.2878023,14.7141463 C11.3455603,14.7909463 11.4014651,14.8580683 11.4555167,14.9208195 L11.4555167,14.9208195 Z" id="XMLID_82_" fill="#525353" fill-rule="nonzero"></path>
                    <path d="M11.807476,15.2572878 C11.807476,15.2572878 11.8087115,15.2616585 11.8111824,15.2691512 C11.8087115,15.2616585 11.807476,15.2572878 11.807476,15.2572878 C11.807476,15.2572878 11.6258626,15.1118049 11.3951395,14.8433171 L11.3951395,14.8433171 C11.6255538,15.1118049 11.807476,15.2572878 11.807476,15.2572878 Z" id="XMLID_81_" fill="#AA9678" fill-rule="nonzero"></path>
                    <ellipse id="XMLID_80_" fill="#FFFFFF" fill-rule="nonzero" transform="translate(15.700501, 5.313208) rotate(-4.571408) translate(-15.700501, -5.313208) " cx="15.2532558" cy="4.86681516" rx="1" ry="1"></ellipse>
                    <path d="M15.6265581,8.11769756 C15.6265581,8.11582439 15.626867,8.11426341 15.626867,8.11239024 L15.626867,8.11239024 C15.626867,8.11426341 15.6265581,8.11613659 15.6265581,8.11769756 Z" id="XMLID_79_" fill="#FFFFFF" fill-rule="nonzero"></path>
                    <path d="M15.749314,5.48917073 L15.749314,5.48917073 L15.749314,5.48917073 C15.7473372,5.48663415 15.7453605,5.48429268 15.7435814,5.4817561 L15.7437791,5.4817561 C15.6485,5.35102439 15.5500581,5.23180488 15.4492442,5.1235122 C15.4490465,5.12312195 15.4486512,5.12273171 15.4482558,5.12253659 C15.4484535,5.12292683 15.4488488,5.12331707 15.4492442,5.1235122 C15.4482558,5.12253659 15.4474651,5.12136585 15.4466744,5.12039024 L15.4466744,5.12039024 C15.400814,5.07141463 15.3545581,5.02439024 15.3077093,4.98009756 C15.2899186,4.96331707 15.2717326,4.94868293 15.2539419,4.93268293 C15.2244884,4.90634146 15.1950349,4.87902439 15.165186,4.85463415 L15.165186,4.85521951 L15.165186,5.90829268 L15.5737791,7.7555122 L15.5737791,7.7555122 C15.5781279,7.76995122 15.5836628,7.78321951 15.5874186,7.7982439 L15.8704884,8.11141463 L15.8732558,8.10829268 L16.1695698,8.10829268 C16.1699651,8.08117073 16.1715465,8.05443902 16.1715465,8.02731707 L16.1715465,8.02692683 C16.1715465,7.15570732 16.0264535,6.31843902 15.7637442,5.5342439 L15.7637442,5.5342439 C15.7588023,5.51941463 15.7544535,5.50419512 15.749314,5.48917073 Z" id="XMLID_78_" fill="#BBBCBD" fill-rule="nonzero"></path>
                    <path d="M15.626867,8.11426341 C15.626867,8.11270244 15.6265581,8.11114146 15.6265581,8.10926829 C15.6265581,8.11114146 15.626867,8.11270244 15.626867,8.11426341 L15.626867,8.11426341 Z" id="XMLID_77_" fill="#BBBCBD" fill-rule="nonzero"></path>
                    <path d="M15.6288067,7.936 C15.6294244,7.93892683 15.6306599,7.94165854 15.6312776,7.94478049 C15.6315865,7.94653659 15.6325131,7.94829268 15.6328219,7.95004878 C15.6328219,7.9502439 15.6328219,7.95043902 15.6328219,7.95082927 C15.6411613,7.99414634 15.6445589,8.03921951 15.6461032,8.08487805 C15.6464121,8.09326829 15.6485741,8.10107317 15.6485741,8.10946341 C15.6485741,8.11043902 15.648883,8.11141463 15.648883,8.11258537 C15.648883,8.1137561 15.6485741,8.11473171 15.6485741,8.11590244 C15.6485741,8.12487805 15.6464121,8.13326829 15.6461032,8.1422439 C15.6445589,8.18692683 15.6414702,8.23121951 15.6331308,8.2737561 C15.6331308,8.27395122 15.6331308,8.27414634 15.6331308,8.27434146 C15.6328219,8.2764878 15.6318953,8.27843902 15.6312776,8.28078049 C15.6306599,8.28429268 15.6291156,8.28741463 15.628189,8.29073171 C15.6183052,8.33697561 15.6053328,8.38204878 15.5880363,8.42478049 C15.5880363,8.42497561 15.5880363,8.42517073 15.5877275,8.42536585 L15.5877275,8.42536585 L15.5901984,8.42360976 C15.5905073,8.42282927 15.5908161,8.4222439 15.591125,8.42146341 L15.591125,8.42146341 L16.0297151,8.11160976 L15.5874186,7.79843902 C15.5874186,7.79863415 15.5874186,7.79882927 15.5877275,7.79902439 C15.6053328,7.84273171 15.6186141,7.88858537 15.6288067,7.936 Z" id="XMLID_76_" fill="#676A6A" fill-rule="nonzero"></path>
                    <path d="M15.6135116,8.29073171 C15.6143023,8.28487805 15.6158837,8.27960976 15.6166744,8.2737561 C15.6220116,8.23121951 15.6239884,8.18692683 15.6249767,8.1422439 C15.6251744,8.13209756 15.6267558,8.12273171 15.6267558,8.11258537 C15.6267558,8.10302439 15.6253721,8.0942439 15.6251744,8.08487805 C15.624186,8.03921951 15.6220116,7.99414634 15.6166744,7.95082927 C15.6160814,7.9457561 15.6146977,7.94107317 15.613907,7.936 C15.6073837,7.88878049 15.5988837,7.84292683 15.5876163,7.79921951 C15.5836628,7.784 15.5781279,7.77053659 15.5735814,7.75570732 C15.5465,7.66712195 15.5093372,7.58868293 15.4654535,7.52370732 C15.4595233,7.51512195 15.453593,7.50653659 15.4474651,7.49853659 C15.435407,7.48253659 15.4233488,7.46692683 15.4105,7.45307317 C15.3915233,7.43278049 15.3719535,7.41404878 15.3511977,7.39863415 C15.3432907,7.39278049 15.3349884,7.38868293 15.3268837,7.38341463 C15.309093,7.37209756 15.2907093,7.36214634 15.2717326,7.35453659 C15.2636279,7.35121951 15.2555233,7.34809756 15.2472209,7.34556098 C15.2205349,7.33736585 15.1932558,7.3315122 15.1649884,7.3315122 C15.1367209,7.3315122 15.1096395,7.33736585 15.0827558,7.34556098 C15.0744535,7.34809756 15.0663488,7.35121951 15.0582442,7.35453659 C15.0392674,7.36214634 15.0210814,7.37209756 15.003093,7.38341463 C14.995186,7.38868293 14.986686,7.39258537 14.9789767,7.39863415 C14.9582209,7.41404878 14.9386512,7.43278049 14.9196744,7.45307317 C14.9068256,7.46692683 14.8947674,7.48253659 14.8827093,7.49853659 C14.8765814,7.50673171 14.8704535,7.51531707 14.8645233,7.52390244 C14.8206395,7.58907317 14.7834767,7.66731707 14.7563953,7.75590244 C14.7552093,7.75941463 14.7540233,7.76292683 14.7530349,7.76643902 C14.7411744,7.80702439 14.731686,7.84995122 14.7237791,7.89404878 C14.721407,7.9075122 14.7182442,7.92039024 14.7164651,7.9342439 C14.7093488,7.98341463 14.705593,8.03473171 14.7048023,8.08721951 C14.7046047,8.09443902 14.7036163,8.10146341 14.7036163,8.10868293 L14.7053953,8.10868293 C14.7053953,8.54009756 14.9121628,8.8897561 15.1671628,8.8897561 C15.2110465,8.8897561 15.2533488,8.87843902 15.2934767,8.85892683 C15.3,8.85580488 15.3063256,8.8524878 15.3126512,8.84878049 C15.3294535,8.83941463 15.3456628,8.82887805 15.3614767,8.81658537 C15.3701744,8.8097561 15.3782791,8.80136585 15.3865814,8.79356098 C15.4069419,8.77482927 15.426314,8.75356098 15.4446977,8.72995122 C15.4573488,8.71356098 15.47,8.69697561 15.4816628,8.67843902 C15.4891744,8.66673171 15.4958953,8.65385366 15.502814,8.64136585 C15.5156628,8.61795122 15.5279186,8.59336585 15.5389884,8.56721951 C15.5429419,8.55785366 15.5472907,8.54887805 15.5510465,8.53912195 C15.5650814,8.50282927 15.5775349,8.46478049 15.587814,8.42458537 C15.5988837,8.38204878 15.607186,8.33697561 15.6135116,8.29073171 Z M15.181593,8.00839024 C15.0859186,8.00839024 15.0084302,7.87726829 15.0084302,7.7155122 C15.0084302,7.5537561 15.0859186,7.42263415 15.181593,7.42263415 C15.2772674,7.42263415 15.3547558,7.5537561 15.3547558,7.7155122 C15.3547558,7.87726829 15.2772674,8.00839024 15.181593,8.00839024 Z" id="XMLID_219_" fill="#000000" fill-rule="nonzero"></path>
                    <ellipse id="XMLID_73_" fill="#FFFFFF" fill-rule="nonzero" cx="15.2740552" cy="7.7155122" rx="1" ry="1"></ellipse>
                    <path d="M14.7563953,7.75590244 L14.7563953,7.75590244 C14.7834767,7.66712195 14.8206395,7.58887805 14.8645233,7.52390244 C14.8704535,7.51512195 14.8765814,7.50673171 14.8827093,7.49853659 C14.8945698,7.48253659 14.9068256,7.46712195 14.9196744,7.45307317 C14.9386512,7.43258537 14.9584186,7.4142439 14.9789767,7.39863415 C14.9868837,7.39278049 14.995186,7.38868293 15.003093,7.38341463 C15.0208837,7.37190244 15.0392674,7.36214634 15.0582442,7.35453659 C15.0663488,7.35121951 15.0744535,7.34809756 15.0827558,7.34556098 C15.1094419,7.33736585 15.1367209,7.3315122 15.1649884,7.3315122 C15.1932558,7.3315122 15.2205349,7.33717073 15.2472209,7.34556098 C15.2555233,7.34809756 15.2636279,7.35121951 15.2717326,7.35453659 C15.2905116,7.36214634 15.3088953,7.37190244 15.3268837,7.38341463 C15.3349884,7.38868293 15.3432907,7.39278049 15.3511977,7.39863415 C15.3719535,7.4142439 15.3915233,7.43258537 15.4105,7.45307317 C15.4233488,7.46692683 15.4356047,7.48253659 15.4474651,7.49853659 C15.453593,7.50673171 15.4595233,7.51512195 15.4654535,7.52370732 C15.5093372,7.58887805 15.5463023,7.66712195 15.5735814,7.75570732 L15.5735814,7.75590244 L15.5735814,7.75590244 L15.1649884,5.90868293 L14.7563953,7.75590244 L14.7563953,7.75590244 Z" id="XMLID_72_" fill="#909393" fill-rule="nonzero"></path>
                    <path d="M9.7502907,8.09521951 C9.74969767,8.05814634 9.74732558,8.02146341 9.74297674,7.98517073 C9.74297674,7.98458537 9.74277907,7.98419512 9.74277907,7.98360976 C9.73843023,7.94809756 9.7325,7.91297561 9.7247907,7.87843902 C9.72459302,7.87746341 9.72439535,7.87668293 9.72419767,7.87570732 C9.71648837,7.84156098 9.70719767,7.80819512 9.69612791,7.77541463 C9.69593023,7.77463415 9.69553488,7.77385366 9.69533721,7.77307317 C9.68426744,7.74029268 9.67161628,7.70809756 9.6575814,7.67687805 C9.65738372,7.67629268 9.65698837,7.6755122 9.65659302,7.67492683 C9.64236047,7.6435122 9.62654651,7.61268293 9.60934884,7.58302439 L9.60934884,7.58302439 C9.55676744,7.49229268 9.49113953,7.4097561 9.41503488,7.33814634 C9.31837209,7.24721951 9.20451163,7.17365854 9.07918605,7.12273171 C9.07819767,7.12234146 9.0772093,7.12195122 9.07602326,7.12156098 C9.01415116,7.09658537 8.94951163,7.07726829 8.8825,7.064 C8.8809186,7.06360976 8.87913953,7.06360976 8.87755814,7.06321951 C8.81054651,7.05034146 8.74116279,7.04312195 8.67019767,7.04312195 C8.6004186,7.04312195 8.5324186,7.05014634 8.46639535,7.06263415 C8.46402326,7.06302439 8.46165116,7.06321951 8.45927907,7.06360976 C8.39365116,7.0764878 8.33019767,7.09541463 8.26951163,7.11960976 C8.26793023,7.12019512 8.26615116,7.12078049 8.26456977,7.12136585 C8.20289535,7.14614634 8.14398837,7.17639024 8.08863953,7.2115122 C8.08844186,7.21170732 8.08824419,7.21170732 8.08804651,7.21170732 C8.03210465,7.24721951 7.97972093,7.28760976 7.93148837,7.33229268 L7.93030233,7.336 L7.92634884,7.33697561 C7.84925581,7.40917073 7.78303488,7.4924878 7.73005814,7.58419512 C7.72946512,7.58536585 7.72867442,7.58634146 7.7280814,7.58731707 C7.71187209,7.61541463 7.69744186,7.64468293 7.68380233,7.67434146 C7.6824186,7.67746341 7.68063953,7.68058537 7.67925581,7.68370732 C7.667,7.71121951 7.65652326,7.73970732 7.64663953,7.76839024 C7.64466279,7.77404878 7.6422907,7.77931707 7.64051163,7.78497561 C7.63181395,7.81170732 7.62489535,7.83921951 7.61837209,7.86692683 C7.61659302,7.87473171 7.61402326,7.88234146 7.61224419,7.89034146 C7.60651163,7.91765854 7.60255814,7.94536585 7.59880233,7.97346341 C7.59781395,7.98204878 7.59583721,7.9902439 7.59484884,7.99882927 C7.59089535,8.03531707 7.5889186,8.07258537 7.5889186,8.11004878 C7.5889186,8.18068293 7.59623256,8.24956098 7.60947674,8.31629268 C7.60967442,8.31765854 7.60987209,8.31902439 7.61006977,8.32058537 C7.6237093,8.38712195 7.64347674,8.4515122 7.66917442,8.51297561 C7.66956977,8.5137561 7.66976744,8.51473171 7.67016279,8.5155122 C7.72215116,8.64 7.79746512,8.75258537 7.89037209,8.84819512 C7.96390698,8.92370732 8.04851163,8.98868293 8.1414186,9.04058537 C8.14181395,9.04078049 8.14240698,9.04117073 8.14280233,9.04136585 C8.17186047,9.05736585 8.20190698,9.072 8.23234884,9.08546341 C8.2349186,9.08663415 8.2372907,9.088 8.23986047,9.08897561 C8.26812791,9.10126829 8.29738372,9.11160976 8.32703488,9.12156098 C8.33197674,9.12331707 8.3369186,9.12526829 8.34186047,9.12702439 C8.36913953,9.13560976 8.3972093,9.14243902 8.42547674,9.14887805 C8.43318605,9.15063415 8.4405,9.15297561 8.4482093,9.15453659 C8.47568605,9.16019512 8.50375581,9.16390244 8.53202326,9.16760976 C8.54052326,9.16878049 8.54902326,9.17053659 8.55752326,9.1715122 C8.59448837,9.17521951 8.63184884,9.17736585 8.66980233,9.17736585 C8.81904651,9.17736585 8.96117442,9.1475122 9.09065116,9.09346341 C9.1552907,9.06653659 9.21676744,9.03336585 9.2742907,8.99512195 C9.38933721,8.91843902 9.48856977,8.8204878 9.56625581,8.70692683 C9.605,8.65014634 9.63860465,8.58946341 9.66588372,8.52565854 C9.72063953,8.39804878 9.75088372,8.25756098 9.75088372,8.1102439 C9.75088372,8.10770732 9.75048837,8.10536585 9.75048837,8.10282927 L9.75048837,8.10282927 C9.75068605,8.1004878 9.7502907,8.09795122 9.7502907,8.09521951 L9.7502907,8.09521951 Z M8.67,7.97014634 C8.44563953,7.97014634 8.26397674,7.79063415 8.26397674,7.56936585 C8.26397674,7.34790244 8.44583721,7.16858537 8.67,7.16858537 C8.89436047,7.16858537 9.07602326,7.34809756 9.07602326,7.56936585 C9.07622093,7.79063415 8.89436047,7.97014634 8.67,7.97014634 Z" id="XMLID_214_" fill="#000000" fill-rule="nonzero"></path>
                    <ellipse id="XMLID_69_" fill="#FFFFFF" fill-rule="nonzero" cx="8.67" cy="7.56917073" rx="1" ry="1"></ellipse>
                    <path d="M7.92634884,7.33756098 L7.92634884,7.33756098 L7.93030233,7.33658537 L7.93148837,7.33287805 L7.93148837,7.33287805 L8.67593023,5.08546341 C8.67593023,5.08546341 8.67593023,4.95239024 8.67593023,4.8195122 C8.67593023,4.78204878 8.67593023,4.74497561 8.67593023,4.71043902 C8.67593023,4.69892683 8.67593023,4.68760976 8.67593023,4.67687805 C8.67593023,4.66009756 8.67593023,4.64487805 8.67593023,4.63063415 C8.67593023,4.62068293 8.67593023,4.61092683 8.67593023,4.60273171 C8.67593023,4.59160976 8.67593023,4.58243902 8.67593023,4.57482927 C8.67593023,4.56858537 8.67593023,4.56312195 8.67593023,4.55960976 C8.67593023,4.55570732 8.67593023,4.55356098 8.67593023,4.55356098 C8.26140698,4.46965854 7.83502326,4.42360976 7.39855814,4.42360976 C7.25287209,4.42360976 7.10837209,4.42965854 6.96486047,4.43941463 C6.94390698,4.44078049 6.92295349,4.44214634 6.902,4.44370732 C6.15459302,4.49970732 5.41884884,4.69209756 4.73746512,4.99902439 C4.15313953,5.26243902 3.61012791,5.60936585 3.12206977,6.02068293 L3.12206977,6.02068293 C3.12187209,6.02087805 3.12147674,6.02126829 3.12127907,6.02146341 C2.99022093,6.13131707 2.86469767,6.24741463 2.74194186,6.3662439 C2.71901163,6.3884878 2.69568605,6.41034146 2.67315116,6.43278049 C2.5577093,6.54770732 2.44602326,6.66634146 2.33809302,6.7884878 C2.31456977,6.81502439 2.29163953,6.84214634 2.26851163,6.86907317 C2.16018605,6.99531707 2.05462791,7.12390244 1.95460465,7.25697561 C1.94630233,7.26809756 1.93839535,7.27980488 1.93009302,7.29092683 C1.83461628,7.41912195 1.74388372,7.55063415 1.65631395,7.6844878 C1.63931395,7.71063415 1.62172093,7.73639024 1.6049186,7.76273171 C1.53415116,7.87356098 1.46812791,7.9875122 1.40289535,8.10165854 L4.78846512,8.10165854 L4.79439535,8.10165854 L7.92634884,7.33756098 Z" id="XMLID_68_" fill="#BBBCBD" fill-rule="nonzero"></path>
                    <path d="M10.7896628,7.0844878 C10.7965814,6.99687805 10.802314,6.90907317 10.8068605,6.82146341 C10.8129884,6.70263415 10.8171395,6.58380488 10.8195116,6.46497561 C10.8212907,6.37268293 10.821093,6.28039024 10.8206977,6.18809756 C10.8205,6.16136585 10.8212907,6.13482927 10.8208953,6.10809756 C10.8183256,5.8702439 10.8090349,5.632 10.7942093,5.3937561 L10.7942093,5.3937561 L10.7942093,5.3937561 C10.7936163,5.39336585 10.7928256,5.39278049 10.7922326,5.39239024 C10.7918372,5.39180488 10.7916395,5.39121951 10.7912442,5.39063415 C10.7902558,5.39004878 10.7868953,5.38809756 10.7837326,5.38634146 C10.7807674,5.38478049 10.7783953,5.38321951 10.7728605,5.38029268 C10.7285814,5.35512195 10.6196628,5.29365854 10.5220116,5.23882927 C10.5200349,5.23765854 10.5178605,5.2364878 10.5158837,5.23531707 C10.4911744,5.22146341 10.4672558,5.20819512 10.4457093,5.19609756 C10.445314,5.19590244 10.4447209,5.1955122 10.4445233,5.19531707 C10.4259419,5.18497561 10.4103256,5.17639024 10.3958953,5.16839024 C10.3929302,5.16682927 10.3889767,5.1644878 10.386407,5.16312195 C10.370593,5.15434146 10.3581395,5.14770732 10.3510233,5.14419512 C10.1950581,5.06439024 10.0359302,4.99043902 9.87423256,4.92292683 C9.48856977,4.76214634 8.9690814,4.62126829 8.67632558,4.55317073 L8.67632558,4.7555122 L8.67632558,4.80273171 L8.67632558,4.81912195 C8.67632558,4.95219512 8.67632558,5.08507317 8.67632558,5.08507317 L9.41424419,7.33619512 L9.41503488,7.33814634 C9.49113953,7.4097561 9.55676744,7.49229268 9.60934884,7.58302439 L9.60934884,7.58302439 C9.62654651,7.61287805 9.64236047,7.6435122 9.65659302,7.67492683 C9.65698837,7.6755122 9.65718605,7.67609756 9.6575814,7.67687805 C9.67181395,7.70809756 9.68426744,7.74029268 9.69533721,7.77307317 C9.69553488,7.77385366 9.69593023,7.77463415 9.69612791,7.77541463 C9.707,7.80819512 9.71648837,7.84156098 9.72419767,7.87570732 C9.72439535,7.87668293 9.72459302,7.87746341 9.7247907,7.87843902 C9.7325,7.91278049 9.73862791,7.94790244 9.74277907,7.98360976 C9.74277907,7.98419512 9.74297674,7.98458537 9.74297674,7.98517073 C9.74732558,8.02126829 9.74969767,8.05795122 9.7502907,8.09521951 L9.7502907,8.09521951 L9.75305814,8.10126829 L10.6566279,8.10126829 C10.7177093,7.77482927 10.7602093,7.44409756 10.7872907,7.112 C10.7878837,7.10282927 10.7888721,7.09365854 10.7896628,7.0844878 Z" id="XMLID_67_" fill="#E2DDDB" fill-rule="nonzero"></path>
                    <path d="M11.97225,6.28858537 C11.9713234,6.29014634 11.9707057,6.29201951 11.9697791,6.29358049 C11.9707057,6.29201951 11.9716323,6.29045854 11.97225,6.28858537 L11.97225,6.28858537 Z" id="XMLID_66_" fill="#FBB040" fill-rule="nonzero"></path>
                    <path d="M9.758,11.3090732 C9.96298837,11.1077073 10.1565116,10.9149268 10.3411395,10.7258537 C10.4508488,10.6136585 10.5579884,10.502439 10.6603837,10.3927805 C11.4155,9.58360976 11.9699767,8.82634146 12.3034535,7.85229268 C12.3113605,7.82907317 12.3192674,7.79863415 12.3267791,7.7644878 C12.3279651,7.75921951 12.3291512,7.75414634 12.3303372,7.74868293 C12.3382442,7.71239024 12.3457558,7.672 12.3532674,7.62634146 C12.3562326,7.59492683 12.3593953,7.5644878 12.3621628,7.53502439 C12.2783488,7.11082927 12.1156628,6.69873171 11.9721512,6.2915122 C11.9727442,6.29287805 11.9731395,6.2942439 11.9737326,6.29560976 C11.9729419,6.29482927 11.9701744,6.29229268 11.9695814,6.29170732 C11.9421047,6.26595122 11.9132442,6.24195122 11.8853721,6.21658537 C11.8003721,6.13931707 11.7139884,6.06380488 11.6260233,5.99063415 C11.3621279,5.77092683 11.0849884,5.57073171 10.7940116,5.3937561 L10.7940116,5.3937561 C10.8088372,5.632 10.8181279,5.8702439 10.8206977,6.10809756 C10.821093,6.13482927 10.8203023,6.16136585 10.8205,6.18809756 C10.8208953,6.28039024 10.821093,6.37268293 10.819314,6.46497561 C10.8169419,6.58380488 10.8127907,6.70263415 10.8066628,6.82146341 C10.8021163,6.90926829 10.7963837,6.99687805 10.7894651,7.0844878 C10.7886744,7.09365854 10.787686,7.10263415 10.787093,7.11180488 C10.7602093,7.44409756 10.7175116,7.77463415 10.6564302,8.10107317 L10.5502791,8.5964878 C10.328686,9.4835122 9.87838372,10.2881951 9.50813953,11.1190244 C9.40989535,11.3393171 9.3167907,11.5621463 9.23515116,11.7890732 C9.22763953,11.8099512 9.21973256,11.8318049 9.21202326,11.8532683 C9.32766279,11.7332683 9.43005814,11.6296585 9.50794186,11.553561 C9.59294186,11.4706341 9.67636047,11.3892683 9.758,11.3090732 Z" id="XMLID_65_" fill="#FBB040" fill-rule="nonzero"></path>
                    <path d="M7.93148837,7.33287805 L7.93148837,7.33287805 C7.97972093,7.28819512 8.03210465,7.24780488 8.08804651,7.21229268 C8.08824419,7.21209756 8.08844186,7.21209756 8.08863953,7.21209756 C8.14398837,7.17697561 8.20289535,7.14673171 8.26456977,7.12195122 C8.26615116,7.12136585 8.26793023,7.12078049 8.26951163,7.12019512 C8.33019767,7.096 8.39365116,7.07707317 8.45927907,7.06419512 C8.46165116,7.06380488 8.46402326,7.06360976 8.46639535,7.06321951 C8.5324186,7.05073171 8.6004186,7.04370732 8.67019767,7.04370732 C8.74116279,7.04370732 8.81034884,7.05092683 8.87755814,7.06380488 C8.87933721,7.06419512 8.8809186,7.06419512 8.8825,7.06458537 C8.94951163,7.07785366 9.01415116,7.09736585 9.07602326,7.12214634 C9.07701163,7.12253659 9.078,7.12292683 9.07918605,7.12331707 C9.2047093,7.1742439 9.31837209,7.24780488 9.41503488,7.33873171 L9.41424419,7.33678049 L8.67632558,5.08565854 L7.93148837,7.33287805 Z" id="XMLID_64_" fill="#909393" fill-rule="nonzero"></path>
                    <path d="M7.66937209,8.51336585 C7.64387209,8.45190244 7.62390698,8.3875122 7.61026744,8.32097561 C7.61006977,8.31960976 7.60987209,8.3182439 7.60967442,8.31668293 C7.59643023,8.24995122 7.58911628,8.18107317 7.58911628,8.11043902 C7.58911628,8.07278049 7.59109302,8.03570732 7.59504651,7.99921951 C7.59603488,7.99063415 7.59781395,7.98243902 7.599,7.97385366 C7.60275581,7.94595122 7.60651163,7.91804878 7.61244186,7.89073171 C7.61422093,7.88273171 7.61659302,7.87512195 7.61856977,7.86731707 C7.62509302,7.83960976 7.63201163,7.81209756 7.6407093,7.78536585 C7.64248837,7.77970732 7.64486047,7.77443902 7.64683721,7.76878049 C7.65672093,7.74009756 7.66719767,7.71160976 7.67945349,7.68409756 C7.68083721,7.68097561 7.68261628,7.67785366 7.684,7.67473171 C7.69763953,7.64507317 7.71206977,7.61580488 7.72827907,7.58770732 C7.72887209,7.58653659 7.72966279,7.58556098 7.73025581,7.58458537 C7.78323256,7.49287805 7.84945349,7.40956098 7.92654651,7.33736585 L7.92654651,7.33736585 L4.79439535,8.10107317 L4.78846512,8.10107317 L7.89076744,8.84839024 C7.79786047,8.75278049 7.72254651,8.64019512 7.67055814,8.51570732 C7.66996512,8.51512195 7.66976744,8.51414634 7.66937209,8.51336585 Z" id="XMLID_63_" fill="#676A6A" fill-rule="nonzero"></path>
                    <path d="M14.7164651,7.93404878 C14.7184419,7.92019512 14.721407,7.90731707 14.7237791,7.89385366 C14.731686,7.84995122 14.7409767,7.80702439 14.7530349,7.7662439 C14.7544186,7.7617561 14.7550116,7.7564878 14.7561977,7.752 L15.1647907,5.90478049 L15.1647907,4.8515122 C14.8309186,4.57931707 14.4733256,4.43043902 14.100907,4.43043902 C13.6306395,4.43043902 13.192,4.68682927 12.8640581,5.0035122 C12.5050814,5.35004878 12.2279419,5.78614634 12.0035814,6.22614634 C11.9933023,6.24643902 11.9828256,6.2657561 11.9725465,6.2862439 C12.0417326,6.34536585 12.1101279,6.40526829 12.1775349,6.46614634 C12.3303372,6.60409756 12.4797791,6.74556098 12.6270465,6.88917073 C12.6958372,6.95609756 12.7630465,7.02439024 12.8306512,7.0924878 C12.902407,7.1644878 12.9741628,7.2364878 13.0447326,7.30965854 C13.1354651,7.40390244 13.2256047,7.49892683 13.3147558,7.59492683 C13.352314,7.63531707 13.3896744,7.67590244 13.4268372,7.7164878 C13.5341744,7.83395122 13.6411163,7.95180488 13.7462791,8.07141463 L13.7464767,8.07160976 C13.7640698,8.08995122 13.7765233,8.10282927 13.7812674,8.10829268 L14.7028256,8.10829268 C14.7028256,8.10087805 14.704407,8.0942439 14.704407,8.08682927 C14.7057907,8.03453659 14.7093488,7.98321951 14.7164651,7.93404878 Z" id="XMLID_62_" fill="#E2DDDB" fill-rule="nonzero"></path>
                    <path d="M11.9737943,6.2929561 C11.9731766,6.29139512 11.9728677,6.28983415 11.97225,6.28858537 L11.97225,6.28858537 C11.9713234,6.29014634 11.9707057,6.29170732 11.9697791,6.29358049 C11.9707057,6.29451707 11.9750298,6.29857561 11.9762653,6.29982439 C11.9756475,6.29763902 11.9747209,6.29545366 11.9737943,6.2929561 Z" id="XMLID_61_" fill="#E2DDDB" fill-rule="nonzero"></path>
                    <path d="M0.847034884,9.26360976 C0.849604651,9.25678049 0.852569767,9.25014634 0.855139535,9.24331707 C0.91444186,9.09014634 0.979476744,8.93892683 1.04787209,8.78926829 C1.06684884,8.7475122 1.08661628,8.70634146 1.10618605,8.66478049 C1.16212791,8.54731707 1.22123256,8.43141463 1.28251163,8.3164878 C1.3074186,8.26965854 1.33173256,8.22282927 1.35762791,8.17658537 C1.37186047,8.15102439 1.38806977,8.12663415 1.4025,8.10107317 C1.46793023,7.98692683 1.53375581,7.87297561 1.60452326,7.76214634 C1.62132558,7.73580488 1.6389186,7.71004878 1.6559186,7.68390244 C1.74348837,7.5502439 1.8344186,7.41853659 1.92969767,7.29034146 C1.938,7.27921951 1.9457093,7.2675122 1.9542093,7.25639024 C2.05423256,7.1235122 2.1597907,6.99473171 2.26811628,6.8684878 C2.29124419,6.84156098 2.31417442,6.81443902 2.33769767,6.78790244 C2.44562791,6.6657561 2.55711628,6.54712195 2.67275581,6.43219512 C2.69548837,6.4097561 2.71861628,6.38790244 2.74154651,6.36565854 C2.86430233,6.24682927 2.98982558,6.13092683 3.12088372,6.02087805 C3.1210814,6.02068293 3.12147674,6.02029268 3.12167442,6.02009756 C3.63701163,4.3155122 5.21425581,3.07473171 7.0805,3.07473171 C7.83186047,3.07473171 8.57867442,3.28839024 9.21894186,3.67492683 C9.87561628,4.07141463 10.4107209,4.65229268 10.7584302,5.32936585 C10.7602093,5.33268293 10.7619884,5.33619512 10.7635698,5.3395122 C10.7722674,5.35668293 10.7821512,5.37307317 10.7908488,5.39043902 L10.7908488,5.39043902 L10.7908488,5.39043902 C10.7910465,5.39102439 10.7914419,5.39160976 10.7918372,5.39219512 C10.7924302,5.39258537 10.7932209,5.39317073 10.793814,5.39356098 C11.084593,5.57034146 11.3619302,5.77073171 11.6258256,5.99043902 C11.7137907,6.06360976 11.8001744,6.13912195 11.8851744,6.21639024 C11.9130465,6.2417561 11.941907,6.2657561 11.9693837,6.2915122 C11.9699767,6.29053659 11.9703721,6.28936585 11.9709651,6.28839024 C11.9713605,6.28780488 11.9717558,6.28702439 11.9719535,6.28643902 C11.9814419,6.26712195 11.9907326,6.24760976 12.0004186,6.22887805 C12.2633256,4.59043902 12.9955116,3.41014634 13.8591512,3.41014634 C14.510093,3.41014634 15.0867093,4.08019512 15.4441047,5.11141463 L15.4476628,5.12253659 C15.4480581,5.12292683 15.4482558,5.12331707 15.4486512,5.12370732 C15.5494651,5.232 15.647907,5.35121951 15.743186,5.48195122 L15.7429884,5.48195122 C15.7449651,5.4844878 15.7467442,5.48682927 15.7487209,5.48936585 L15.7487209,5.48917073 L15.7487209,5.48936585 C15.7538605,5.50439024 15.7582093,5.51960976 15.7631512,5.53463415 L15.7631512,5.53463415 L15.7495116,5.48097561 C14.6751512,2.34146341 11.6669419,0.0811707317 8.12382558,0.0811707317 C3.67951163,0.0811707317 0.0768953488,3.63746341 0.0768953488,8.02419512 C0.0768953488,8.88897561 0.216848837,9.72156098 0.476790698,10.4963902 C0.477186047,10.4948293 0.477581395,10.4934634 0.47777907,10.4919024 C0.528976744,10.2581463 0.59005814,10.0259512 0.661418605,9.79609756 C0.717755814,9.61678049 0.779627907,9.43921951 0.847034884,9.26360976 Z" id="XMLID_60_" fill="#525353" fill-rule="nonzero"></path>
                    <path d="M15.8704884,8.11180488 L15.5897907,8.42165854 L15.5897907,8.42165854 C15.589593,8.42243902 15.5893953,8.42302439 15.5891977,8.42380488 C15.5785233,8.46439024 15.5654767,8.50263415 15.5510465,8.53931707 C15.5472907,8.54907317 15.5431395,8.55804878 15.5389884,8.56741463 C15.5277209,8.59336585 15.5158605,8.61814634 15.502814,8.64156098 C15.4958953,8.65404878 15.4889767,8.66692683 15.4816628,8.67863415 C15.47,8.69717073 15.4575465,8.7137561 15.4446977,8.73014634 C15.426314,8.7537561 15.4069419,8.77502439 15.3865814,8.7937561 C15.3782791,8.80156098 15.3701744,8.80995122 15.3614767,8.81678049 C15.3456628,8.82926829 15.3292558,8.83960976 15.3126512,8.84897561 C15.3063256,8.8524878 15.3,8.856 15.2934767,8.85912195 C15.2533488,8.87843902 15.2110465,8.88995122 15.1671628,8.88995122 C14.9121628,8.88995122 14.7053953,8.54029268 14.7053953,8.10887805 L14.7036163,8.10887805 L14.7032209,8.10887805 L13.7816628,8.10887805 L13.7788953,8.10887805 C13.779093,8.10907317 13.7792907,8.10926829 13.7794884,8.10946341 C13.9514651,8.30556098 14.1206744,8.50439024 14.287314,8.70497561 C14.2892907,8.70731707 14.2912674,8.70985366 14.2934419,8.71219512 C14.4555349,8.9075122 14.6154535,9.10478049 14.7733953,9.30302439 C14.7811047,9.31278049 14.7890116,9.32234146 14.7967209,9.33209756 C14.9465581,9.52078049 15.094814,9.71063415 15.241686,9.90087805 C15.2559186,9.91941463 15.2703488,9.9377561 15.2845814,9.95609756 C15.4399535,10.1578537 15.5939419,10.3601951 15.7465465,10.5627317 C15.7475349,10.5640976 15.7487209,10.5656585 15.7497093,10.5670244 C16.0143953,9.7937561 16.1624535,8.96780488 16.1717442,8.10868293 L16.1697674,8.10868293 L15.8734535,8.10868293 L15.8704884,8.11180488 Z" id="XMLID_59_" fill="#FFFFFF" fill-rule="nonzero"></path>
                    <path d="M6.902,4.44331707 C6.92295349,4.4417561 6.94390698,4.44039024 6.96486047,4.43902439 C7.10837209,4.42946341 7.25287209,4.42321951 7.39855814,4.42321951 C7.83482558,4.42321951 8.2612093,4.46946341 8.67593023,4.55317073 C8.67593023,4.55317073 8.67593023,4.55531707 8.67593023,4.55921951 C8.67593023,4.56273171 8.67593023,4.56819512 8.67593023,4.57443902 C8.67593023,4.58204878 8.67593023,4.59160976 8.67593023,4.60234146 C8.67593023,4.61073171 8.67593023,4.62029268 8.67593023,4.6302439 C8.67593023,4.64429268 8.67593023,4.66009756 8.67593023,4.6764878 C8.67593023,4.68721951 8.67593023,4.69853659 8.67593023,4.71004878 C8.67593023,4.72468293 8.67593023,4.73990244 8.67593023,4.7555122 L8.67593023,4.55317073 C8.96868605,4.62126829 9.48817442,4.76214634 9.87383721,4.92292683 C10.0357326,4.99043902 10.1948605,5.06419512 10.3506279,5.14419512 C10.3577442,5.14790244 10.3701977,5.15453659 10.3860116,5.16312195 C10.3887791,5.16468293 10.3927326,5.16682927 10.3955,5.16839024 C10.4099302,5.17639024 10.4257442,5.18497561 10.4441279,5.19531707 C10.4445233,5.1955122 10.4451163,5.19590244 10.445314,5.19609756 C10.4670581,5.20819512 10.4905814,5.22146341 10.5154884,5.23531707 C10.5174651,5.2364878 10.5196395,5.23765854 10.5216163,5.23882927 C10.6208488,5.29443902 10.7305581,5.3564878 10.7724651,5.38029268 C10.7778023,5.38341463 10.7803721,5.38478049 10.7833372,5.38634146 C10.785314,5.3875122 10.7902558,5.3902439 10.7908488,5.39063415 L10.7908488,5.39063415 C10.7821512,5.37346341 10.7722674,5.35687805 10.7635698,5.33970732 C10.7617907,5.33639024 10.7602093,5.33287805 10.7584302,5.32956098 C10.4109186,4.6524878 9.87561628,4.07160976 9.21894186,3.67512195 C8.57867442,3.28858537 7.83166279,3.07492683 7.0805,3.07492683 C5.21425581,3.07492683 3.63701163,4.31570732 3.12167442,6.02029268 C3.60973256,5.60897561 4.15254651,5.26204878 4.73706977,4.99863415 C5.41884884,4.6915122 6.1547907,4.49931707 6.902,4.44331707 Z" id="XMLID_58_" fill="#000000" fill-rule="nonzero"></path>
                    <path d="M8.67612791,4.75570732 L8.67612791,4.88530732" id="XMLID_57_"></path>
                    <path d="M12.8640581,5.00390244 C13.192,4.68721951 13.6306395,4.43082927 14.100907,4.43082927 C14.4733256,4.43082927 14.8309186,4.57970732 15.1647907,4.85190244 C15.1647907,4.85190244 15.1647907,4.8542439 15.1647907,4.85502439 L15.1647907,4.85560976 L15.1647907,4.85502439 C15.1946395,4.87921951 15.2238953,4.90653659 15.2535465,4.93307317 C15.2713372,4.94907317 15.2897209,4.96370732 15.307314,4.9804878 C15.3541628,5.02478049 15.4004186,5.07160976 15.4462791,5.12078049 L15.4462791,5.12078049 C15.4472674,5.1217561 15.4480581,5.12292683 15.4488488,5.12390244 C15.4486512,5.1235122 15.4482558,5.12312195 15.4478605,5.12292683 L15.4478605,5.12292683 L15.4441047,5.11180488 C15.0867093,4.08058537 14.510093,3.41053659 13.8591512,3.41053659 C12.9955116,3.41053659 12.2633256,4.59082927 12.0004186,6.22926829 L12.003186,6.22692683 C12.2279419,5.78653659 12.5052791,5.35043902 12.8640581,5.00390244 Z" id="XMLID_56_" fill="#000000" fill-rule="nonzero"></path>
                    <path d="M5.24331395,15.4333659 C5.31684884,15.4612683 5.39156977,15.486439 5.46609302,15.5121951 C6.2985,15.8 7.19238372,15.9586341 8.12461628,15.9586341 C9.18751163,15.9586341 10.201186,15.7533659 11.1300581,15.3838049 C11.1792791,15.3642927 11.227314,15.3428293 11.2759419,15.3223415 C11.354814,15.2891707 11.433093,15.2550244 11.5105814,15.2195122 C11.5799651,15.1877073 11.6493488,15.1560976 11.7175465,15.1225366 C11.7011395,15.1244878 11.6845349,15.1276098 11.6681279,15.129561 L11.6681279,15.129561 C11.3793256,15.161561 11.0928953,15.1635122 10.8127907,15.1239024 C9.15706977,14.8889756 8.79018605,14.100878 8.84276744,13.2801951 C8.72356977,13.2122927 8.60219767,13.136 8.47884884,13.0476098 C7.20543023,12.1358049 6.44972093,11.1642927 6.44972093,11.1642927 C6.44972093,11.1642927 7.43196512,11.9127805 8.89930233,12.4729756 C8.93073256,12.4850732 8.96018605,12.4954146 8.99122093,12.5069268 C9.05981395,12.2729756 9.14086047,12.0505366 9.21222093,11.8534634 L9.21222093,11.8534634 C9.21993023,11.832 9.22783721,11.8101463 9.23534884,11.7892683 C9.31698837,11.5623415 9.41009302,11.3397073 9.50833721,11.1192195 C9.8785814,10.2883902 10.328686,9.48370732 10.5504767,8.59668293 L10.6566279,8.10126829 L9.75305814,8.10126829 L9.7510814,8.10126829 L9.7510814,8.10126829 C9.7510814,8.10185366 9.7510814,8.10243902 9.7510814,8.10302439 L9.75068605,8.10321951 L9.75068605,8.10321951 C9.75068605,8.1057561 9.7510814,8.10809756 9.7510814,8.11063415 C9.7510814,8.25795122 9.72083721,8.3982439 9.6660814,8.52604878 C9.63860465,8.58985366 9.60519767,8.65053659 9.56645349,8.70731707 C9.48876744,8.82087805 9.38953488,8.91882927 9.27448837,8.9955122 C9.21696512,9.03395122 9.15548837,9.06692683 9.09084884,9.09385366 C8.96156977,9.14790244 8.81924419,9.1777561 8.67,9.1777561 C8.63204651,9.1777561 8.59468605,9.17580488 8.55772093,9.17190244 C8.54902326,9.17092683 8.54072093,9.16917073 8.53222093,9.168 C8.50395349,9.1644878 8.47588372,9.16058537 8.44840698,9.15492683 C8.44069767,9.15336585 8.43338372,9.15102439 8.42567442,9.14926829 C8.39740698,9.14282927 8.36933721,9.136 8.34205814,9.12741463 C8.33711628,9.12585366 8.33217442,9.12370732 8.32723256,9.12195122 C8.29777907,9.11219512 8.26832558,9.10165854 8.24005814,9.08936585 C8.23748837,9.08819512 8.23511628,9.08702439 8.23254651,9.08585366 C8.20190698,9.07239024 8.17186047,9.05795122 8.143,9.0417561 C8.14260465,9.04156098 8.14201163,9.04117073 8.14161628,9.04097561 C8.04851163,8.98926829 7.96390698,8.92429268 7.89056977,8.84858537 L4.78826744,8.10126829 L1.40269767,8.10126829 C1.38806977,8.12663415 1.37205814,8.15121951 1.35782558,8.17678049 C1.33193023,8.22302439 1.30761628,8.27004878 1.2827093,8.31668293 C1.22143023,8.43141463 1.16212791,8.54731707 1.10638372,8.66497561 C1.08661628,8.70634146 1.06704651,8.74770732 1.04806977,8.78946341 C0.979872093,8.93912195 0.914837209,9.09034146 0.855337209,9.2435122 C0.852767442,9.25034146 0.849802326,9.25697561 0.847232558,9.26380488 C0.779825581,9.43941463 0.717953488,9.61697561 0.662406977,9.79609756 C0.591244186,10.0259512 0.529965116,10.2581463 0.478767442,10.4919024 C1.01189535,12.0965854 2.04869767,13.4753171 3.40434884,14.4472195 C3.44368605,14.4755122 3.48539535,14.5006829 3.52532558,14.5281951 C3.75462791,14.686439 3.99144186,14.8343415 4.23734884,14.9687805 C4.55995349,15.1449756 4.89540698,15.3014634 5.24331395,15.4333659 Z" id="XMLID_55_" fill="#FFFFFF" fill-rule="nonzero"></path>
                    <path d="M10.7991512,12.9662439 C10.7868953,13.0513171 10.7783953,13.1350244 10.7760233,13.2158049 C10.7712791,13.3627317 10.7815581,13.5022439 10.8033023,13.6341463 C10.8177326,13.7221463 10.8371047,13.8066341 10.8604302,13.8874146 C10.8954186,14.0087805 10.9393023,14.1221463 10.9885233,14.2269268 C11.0375465,14.3317073 11.091907,14.4279024 11.1476512,14.5153171 C11.1662326,14.5443902 11.1850116,14.5724878 11.2037907,14.5996098 C11.2320581,14.6401951 11.2603256,14.678439 11.2881977,14.7143415 C11.3251628,14.7621463 11.3609419,14.8040976 11.3955349,14.8435122 C11.5431977,15.011122 11.6594302,15.1022439 11.6594302,15.1022439 C11.6594302,15.1022439 11.6602209,15.1049756 11.6618023,15.1096585 C11.6633837,15.1143415 11.6657558,15.1213659 11.6685233,15.1297561 L11.6685233,15.1297561 C11.6849302,15.128 11.7015349,15.124878 11.7179419,15.1227317 C12.0767209,15.078439 12.4382674,14.982439 12.7948721,14.8558049 C12.9767326,14.7912195 13.1578023,14.7211707 13.3361047,14.6409756 C13.3904651,14.6163902 13.4436395,14.5892683 13.4976047,14.5635122 C15.3409186,13.6837073 16.8843605,12.1276098 16.8843605,12.1276098 C14.5680116,13.2507317 12.3044419,13.2060488 10.7991512,12.9662439 Z" id="XMLID_54_" fill="#9F2255" fill-rule="nonzero"></path>
                    <path d="M15.2414884,9.90107317 C15.0946163,9.71063415 14.9465581,9.52078049 14.7965233,9.33229268 C14.788814,9.32253659 14.780907,9.31297561 14.7731977,9.30321951 C14.6152558,9.10478049 14.4553372,8.90770732 14.2932442,8.71239024 C14.2912674,8.71004878 14.2892907,8.7075122 14.2871163,8.70517073 C14.1202791,8.50458537 13.9512674,8.3057561 13.7792907,8.10965854 C13.7684186,8.09717073 13.7575465,8.08468293 13.7464767,8.07219512 C13.641314,7.95278049 13.5343721,7.83473171 13.4270349,7.71726829 C13.3896744,7.67668293 13.3525116,7.63609756 13.3149535,7.59570732 C13.2258023,7.49970732 13.1358605,7.40468293 13.0449302,7.31043902 C12.9741628,7.23726829 12.9026047,7.16526829 12.8308488,7.09326829 C12.7632442,7.02536585 12.6958372,6.95687805 12.6272442,6.88995122 C12.4795814,6.74653659 12.3303372,6.60487805 12.1777326,6.46692683 C12.1101279,6.40604878 12.0417326,6.34595122 11.9725465,6.28682927 C11.9721512,6.28760976 11.9719535,6.28819512 11.9715581,6.28878049 C12.1170465,6.70126829 12.2828953,7.11902439 12.3659186,7.54907317 C12.3874651,7.66087805 12.4054535,7.76995122 12.4198837,7.87629268 C12.6225,9.36526829 12.139186,10.3373659 11.3714186,11.6161951 C11.3164651,11.7079024 11.2599302,11.8009756 11.2022093,11.8961951 C11.0266744,12.1849756 10.9141977,12.4585366 10.8491628,12.7155122 C10.8274186,12.8011707 10.8110116,12.884878 10.7991512,12.9666341 C12.3044419,13.206439 14.5680116,13.251122 16.8839651,12.1278049 C16.8839651,12.1278049 16.429907,11.468878 15.7463488,10.563122 C15.5935465,10.3605854 15.4395581,10.1582439 15.2843837,9.9564878 C15.2701512,9.9377561 15.2557209,9.91941463 15.2414884,9.90107317 Z" id="XMLID_53_" fill="#E2066F" fill-rule="nonzero"></path>
                    <path d="M11.6590349,15.1020488 C11.6590349,15.1020488 11.5428023,15.011122 11.3951395,14.8433171 C11.3605465,14.8039024 11.3249651,14.7619512 11.2878023,14.7141463 C11.2599302,14.6782439 11.2316628,14.64 11.2033953,14.5994146 C11.1846163,14.5722927 11.1658372,14.5441951 11.1472558,14.515122 C11.0915116,14.4279024 11.0371512,14.3317073 10.9881279,14.2267317 C10.9391047,14.1219512 10.8952209,14.0085854 10.8600349,13.8872195 C10.8367093,13.8062439 10.8173372,13.7217561 10.802907,13.6339512 C10.7813605,13.5020488 10.7710814,13.3625366 10.7756279,13.2156098 C10.7781977,13.1348293 10.7865,13.051122 10.7987558,12.9660488 C10.8106163,12.8842927 10.8270233,12.8003902 10.8487674,12.7149268 C10.9138023,12.4581463 11.0262791,12.1845854 11.201814,11.8956098 C11.202407,11.8948293 11.2028023,11.8940488 11.2031977,11.8932683 C11.2605233,11.7990244 11.3164651,11.7065366 11.3710233,11.6158049 C12.138593,10.3369756 12.621907,9.36487805 12.4194884,7.87590244 C12.4050581,7.76956098 12.3870698,7.66068293 12.3655233,7.54868293 C12.3540581,7.62595122 12.3421977,7.6924878 12.3301395,7.7484878 C12.3289535,7.75395122 12.3277674,7.75902439 12.3265814,7.76429268 C12.3188721,7.7982439 12.3111628,7.82907317 12.3032558,7.85209756 C11.9697791,8.82614634 11.4153023,9.58341463 10.660186,10.3925854 C10.5577907,10.5022439 10.4506512,10.6134634 10.3409419,10.7256585 C10.156314,10.9145366 9.9627907,11.1075122 9.75780233,11.308878 C9.67616279,11.3890732 9.59274419,11.4706341 9.50794186,11.553561 C9.43005814,11.6296585 9.32766279,11.7334634 9.21202326,11.8532683 L9.21202326,11.8532683 C9.14066279,12.0505366 9.0594186,12.2729756 8.99102326,12.5067317 C8.96018605,12.4952195 8.93073256,12.484878 8.89910465,12.4727805 C7.43196512,11.9125854 6.44952326,11.1640976 6.44952326,11.1640976 C6.44952326,11.1640976 7.20523256,12.1356098 8.47865116,13.0474146 C8.602,13.1358049 8.72337209,13.2120976 8.84256977,13.28 C8.78998837,14.1006829 9.15687209,14.8887805 10.812593,15.1237073 C11.0925,15.1635122 11.3791279,15.161561 11.6679302,15.1293659 C11.6649651,15.1209756 11.6627907,15.1139512 11.6612093,15.1092683 C11.6598256,15.1047805 11.6590349,15.1020488 11.6590349,15.1020488 Z" id="XMLID_52_" fill="#000000" fill-rule="nonzero"></path>
                </g>
            </g>
        </g>
    </g>
</svg>