<?xml version="1.0" encoding="UTF-8"?>
<svg width="160px" height="70px" viewBox="0 0 160 70" version="1.1" xmlns="http://www.w3.org/2000/svg" xmlns:xlink="http://www.w3.org/1999/xlink">
    <!-- Generator: Sketch 47.1 (45422) - http://www.bohemiancoding.com/sketch -->
    <title>rails</title>
    <desc>Created with Sketch.</desc>
    <defs></defs>
    <g id="technologies" stroke="none" stroke-width="1" fill="none" fill-rule="evenodd">
        <g id="Web-frameworks" transform="translate(-416.000000, -136.000000)">
            <g id="rails" transform="translate(416.000000, 136.000000)">
                <rect id="Rectangle-Copy-9" fill="#FFFFFF" x="0" y="0" width="160" height="70"></rect>
                <g transform="translate(28.000000, 17.000000)" fill-rule="nonzero" fill="#CC0000">
                    <path d="M90.2676864,32.1426554 L90.2676864,37 C90.2676864,37 96.5315488,37 99.0210325,37 C100.814532,37 103.892925,35.6850282 104,32.0084746 C104,31.8474576 104,30.2641243 104,30.1299435 C104,26.990113 101.43021,25.1384181 99.0210325,25.1384181 C97.8967495,25.1384181 94.6577438,25.1384181 94.6577438,25.1384181 L94.6577438,22.8841808 L103.304015,22.8841808 L103.304015,18 C103.304015,18 97.3613767,18 95.0057361,18 C92.8642447,18 90,19.7711864 90,23.0720339 C90,23.3940678 90,24.4675141 90,24.7627119 C90,28.0635593 92.8374761,29.7542373 95.0057361,29.7542373 C101.028681,29.7810734 93.5602294,29.7542373 99.1281071,29.7542373 C99.1281071,32.1158192 99.1281071,32.1158192 99.1281071,32.1158192" id="Shape"></path>
                    <path d="M44.0950156,31.0042076 C44.0950156,31.0042076 48.728972,30.6044881 48.728972,24.5820477 C48.728972,18.5596073 43.1152648,18 43.1152648,18 L33,18 L33,37 L38.0841121,37 L38.0841121,32.4165498 L42.4797508,37 L50,37 L44.0950156,31.0042076 Z M42.135514,27.1136045 L38.0841121,27.1136045 L38.0841121,22.769986 L42.1619938,22.769986 C42.1619938,22.769986 43.3006231,23.1963534 43.3006231,24.9284712 C43.3006231,26.6605891 42.135514,27.1136045 42.135514,27.1136045 Z" id="Shape"></path>
                    <path d="M62.0793651,18 C60.7830688,18 60.5978836,18 56.9206349,18 C53.2433862,18 52,21.3813559 52,22.9915254 C52,26.480226 52,37 52,37 L57.1587302,37 L57.1587302,33.6454802 L62,33.6454802 L62,37 L67,37 C67,37 67,26.6680791 67,22.9915254 C67,18.9124294 63.3492063,18 62.0793651,18 Z M62,28.2245763 L57.1322751,28.2245763 L57.1322751,23.5819209 C57.1322751,23.5819209 57.1322751,22.5353107 58.7460317,22.5353107 C60.2275132,22.5353107 59.010582,22.5353107 60.5185185,22.5353107 C61.9470899,22.5353107 61.973545,23.5819209 61.973545,23.5819209 L61.973545,28.2245763 L62,28.2245763 Z" id="Shape"></path>
                    <rect id="Rectangle-path" x="69" y="18" width="5" height="19"></rect>
                    <polygon id="Shape" points="81.1031579 32.0889831 81.1031579 18 76 18 76 32.0889831 76 37 81.1031579 37 88 37 88 32.0889831"></polygon>
                    <path d="M2,37 L22.8462238,37 C22.8462238,37 18.8616924,18.8617217 32.055505,11.5169036 C34.9317561,10.1216514 44.0882621,4.90919991 59.0764331,15.9659153 C59.5514104,15.5710326 60,15.2551264 60,15.2551264 C60,15.2551264 46.2784349,1.59218529 31,3.11906504 C23.3212011,3.80352837 13.8744313,10.7797893 8.33303003,19.9937187 C2.79162875,29.2076482 2,37 2,37 Z" id="Shape"></path>
                    <path d="M2,37 L22.8462238,37 C22.8462238,37 18.8616924,18.8617217 32.055505,11.5169036 C34.9317561,10.1216514 44.0882621,4.90919991 59.0764331,15.9659153 C59.5514104,15.5710326 60,15.2551264 60,15.2551264 C60,15.2551264 46.2784349,1.59218529 31,3.11906504 C23.3212011,3.80352837 13.8744313,10.7797893 8.33303003,19.9937187 C2.79162875,29.2076482 2,37 2,37 Z" id="Shape"></path>
                    <path d="M2,37 L22.8462238,37 C22.8462238,37 18.8616924,18.8617217 32.055505,11.5169036 C34.9317561,10.1216514 44.0882621,4.90919991 59.0764331,15.9659153 C59.5514104,15.5710326 60,15.2551264 60,15.2551264 C60,15.2551264 46.2784349,1.59218529 31,3.11906504 C23.2948135,3.80352837 13.8480437,10.7797893 8.3066424,19.9937187 C2.76524113,29.2076482 2,37 2,37 Z" id="Shape"></path>
                    <path d="M45.8811881,5 L46,3.02941176 C45.7326733,2.88235294 44.990099,2.52941176 43.1188119,2 L43,3.94117647 C43.980198,4.26470588 44.9306931,4.61764706 45.8811881,5 Z" id="Shape"></path>
                    <path d="M42.1165049,10 L42,11.68 C42.961165,11.7066667 43.9223301,11.8133333 44.8834951,12 L45,10.3466667 C44.0097087,10.16 43.0485437,10.0533333 42.1165049,10 Z" id="Shape"></path>
                    <path d="M32.7413793,1.87692308 C32.8189655,1.87692308 32.9224138,1.87692308 33,1.87692308 L32.4827586,0 C31.6810345,0 30.8534483,0.0615384615 30,0.184615385 L30.4913793,2 C31.2413793,1.90769231 31.9913793,1.87692308 32.7413793,1.87692308 Z" id="Shape"></path>
                    <path d="M34,11.950495 L34.6272727,14 C35.4181818,13.5841584 36.2090909,13.2277228 37,12.960396 L36.4,11 C35.4727273,11.2970297 34.6818182,11.6237624 34,11.950495 Z" id="Shape"></path>
                    <path d="M22,4.83185841 L20.902439,3 C20.2926829,3.34513274 19.6585366,3.71681416 19,4.14159292 L20.1219512,6 C20.7560976,5.57522124 21.3658537,5.17699115 22,4.83185841 Z" id="Shape"></path>
                    <path d="M28,16.9280576 L29.3457944,19 C29.8224299,18.2805755 30.3831776,17.618705 31,16.9568345 L29.7383178,15 C29.0934579,15.6043165 28.5046729,16.2661871 28,16.9280576 Z" id="Shape"></path>
                    <path d="M24,25.1609195 L26.3823529,27 C26.5,25.8793103 26.7058824,24.7586207 27,23.637931 L24.8823529,22 C24.5,23.0632184 24.2352941,24.1264368 24,25.1609195 Z" id="Shape"></path>
                    <path d="M12,12.7588652 L10.0413793,11 C9.32413793,11.7092199 8.63448276,12.4184397 8,13.1276596 L10.1241379,15 C10.7034483,14.2340426 11.337931,13.4680851 12,12.7588652 Z" id="Shape"></path>
                    <path d="M4,24.037037 L1.21212121,23 C0.751515152,24.0617284 0.242424242,25.2962963 0,25.962963 L2.78787879,27 C3.1030303,26.1604938 3.61212121,24.9506173 4,24.037037 Z" id="Shape"></path>
                    <path d="M23,32 C23.0454545,33.2544379 23.1590909,34.2721893 23.2727273,34.9822485 L26,36 C25.7954545,35.0769231 25.5909091,34.035503 25.4545455,32.9230769 L23,32 Z" id="Shape"></path>
                </g>
            </g>
        </g>
    </g>
</svg>