<?xml version="1.0" encoding="UTF-8"?>
<svg width="160px" height="70px" viewBox="0 0 160 70" version="1.1" xmlns="http://www.w3.org/2000/svg" xmlns:xlink="http://www.w3.org/1999/xlink">
    <!-- Generator: Hyder A. - https://toggle.me -->
    <title>react</title>
    <desc>Created with Sketch.</desc>
    <defs></defs>
    <g id="technologies" stroke="none" stroke-width="1" fill="none" fill-rule="evenodd">
        <g id="Javascript-frameworks" transform="translate(-32.000000, -42.000000)">
            <g id="react" transform="translate(32.000000, 42.000000)">
                <rect id="Rectangle-Copy" fill="#FFFFFF" x="0" y="0" width="160" height="70"></rect>
                <g transform="translate(28.000000, 20.000000)" id="Shape" fill-rule="nonzero">
                    <path d="M17.48133,18.5578653 C19.2059146,18.5544448 20.601504,17.1603004 20.5992149,15.443209 C20.5969257,13.7261175 19.197624,12.3356669 17.4730364,12.3368048 C15.7484488,12.3379427 14.3509992,13.7302386 14.3509957,15.4473316 C14.3509957,16.2722964 14.6801422,17.0634728 15.2660266,17.6468111 C15.8519111,18.2301493 16.6465409,18.5578653 17.4751067,18.5578653 L17.48133,18.5578653 Z M33.1641181,12.3491905 C32.0688122,11.4569258 30.5503201,10.6514092 28.7455548,10.0317809 C28.3804528,9.90785529 28.0029042,9.79012592 27.612909,9.67859284 C27.6792911,9.41834899 27.7373755,9.16430142 27.7871622,8.91645013 C28.6584282,4.72156706 28.0360953,1.45612632 26.1815434,0.390365781 C25.2604908,-0.130121927 24.0282717,-0.130121927 22.5844595,0.390365781 C21.2775605,0.873675795 19.8150782,1.79072556 18.352596,3.04237458 C18.062174,3.29022586 17.771752,3.55460057 17.48133,3.8354987 C17.2946302,3.65374109 17.1037814,3.47611433 16.9087838,3.30261843 C13.6975462,0.452328603 10.548542,-0.63821707 8.69399004,0.433739756 C7.77916074,0.991405157 7.15682788,2.04477314 6.88922475,3.53188087 C6.65896159,4.95702578 6.72741821,6.63002199 7.09459459,8.55086948 L7.40576102,9.7281631 C6.99087245,9.85208875 6.57598388,9.99666867 6.16109531,10.1619029 C2.30263158,11.4011593 0,13.4459324 0,15.4907056 C0,16.5440736 0.684566145,17.6594044 1.86699858,18.7127723 C2.98719772,19.7041775 4.5928165,20.5096942 6.45359175,21.1726964 L7.38709104,21.4205477 C7.26262447,21.8501566 7.15890232,22.2632421 7.07592461,22.6598041 C6.32912518,26.6068359 6.95145804,29.5686588 8.72510669,30.5910454 C9.22297297,30.8698781 9.78307255,31 10.4054054,31 C11.0277383,31 11.7123044,30.8760744 12.4404339,30.6034379 C13.8095661,30.1077354 15.3653983,29.178293 16.8216572,27.8770738 C17.0705903,27.670531 17.3195235,27.4515957 17.5684566,27.2202678 L18.5019559,28.0567659 C20.7423542,29.9776134 22.9205192,30.9876074 24.6008179,30.9876074 C25.2231508,30.9876074 25.7832504,30.8636818 26.2562233,30.5662602 C27.1897226,30.0085948 27.8369488,28.936638 28.1232219,27.3937637 C28.390825,25.9686188 28.3348151,24.171697 27.9489687,22.2508495 C27.8908843,21.9534279 27.8224277,21.6436138 27.7435989,21.3214072 L28.4032717,21.1355187 C32.4857752,19.7909254 35,17.6222267 35,15.4969019 C35,14.4435339 34.3776671,13.3715771 33.1952347,12.3987607 L33.1641181,12.3491905 Z M19.3483286,4.17009794 C20.6552276,3.02998201 21.9496799,2.20587647 23.1009957,1.79072556 C24.0967283,1.41894863 24.924431,1.37557466 25.434744,1.66679992 C25.9761735,1.97661403 26.3682432,2.76354187 26.5549431,3.87267639 C26.7789829,5.17389566 26.6980797,6.80351789 26.3246799,8.60663602 L26.2002134,9.30681591 C24.6625409,8.95681238 23.1033079,8.70841932 21.5327169,8.56326204 C20.6402396,7.28142098 19.6630935,6.06012161 18.6077525,4.90745553 L19.4167852,4.17629422 L19.3483286,4.17009794 Z M10.3245021,17.2442534 C10.6315197,17.8390965 10.9592817,18.4380705 11.3077881,19.0411753 C11.6645922,19.648411 12.0296942,20.243254 12.4030939,20.8257046 C11.3222802,20.7077837 10.2483468,20.5340538 9.185633,20.3052169 C9.49679943,19.3138117 9.87019915,18.2852289 10.3182788,17.2380572 L10.3245021,17.2442534 Z M10.3120555,13.7371577 C9.87642248,12.7147711 9.50302276,11.7047771 9.20430299,10.7257645 C10.2000356,10.5026984 11.2580014,10.3230062 12.3782006,10.186688 C12.0048009,10.756746 11.6459222,11.3391965 11.3015647,11.9340396 C10.9572072,12.5330135 10.6252963,13.1319875 10.3058321,13.7309614 L10.3120555,13.7371577 Z M11.1086415,15.4845093 C11.5629445,14.5426744 12.0608108,13.6008395 12.6022404,12.6775934 C13.1374467,11.7481511 13.7037696,10.8496902 14.2825391,9.98840696 C15.340505,9.91405157 16.3984708,9.86448131 17.4751067,9.86448131 C18.5517425,9.86448131 19.5910384,9.90785529 20.6490043,9.98840696 C21.2091038,10.8372976 21.7692034,11.723366 22.329303,12.6652009 C22.8686581,13.6152975 23.3665244,14.5447398 23.8229018,15.4535279 C23.3872688,16.3829702 22.8271693,17.3310014 22.329303,18.2728363 C21.8314367,19.2146712 21.2091038,20.131721 20.6490043,20.9744154 C19.5910384,21.0487707 18.5330725,21.0859484 17.4128734,21.0859484 C16.2926743,21.0859484 15.2347084,21.054967 14.2389758,20.9868079 C13.616643,20.1193284 13.0565434,19.2146712 12.4964438,18.2914251 C11.9363442,17.3619828 11.438478,16.4201479 11.002845,15.4845093 L11.1086415,15.4845093 Z M23.6424253,19.0163902 C24.0033784,18.4050237 24.343587,17.7915917 24.6630512,17.1760943 C25.110854,18.1750562 25.505544,19.1967904 25.8454836,20.2370578 C24.766879,20.4793737 23.6763153,20.665515 22.5782361,20.7947232 L23.636202,19.0225864 L23.6424253,19.0163902 Z M24.6506046,13.7309614 C24.3311404,13.1361183 23.9950806,12.5330135 23.6424253,11.921647 C23.2980678,11.3268039 22.9454125,10.7484842 22.5844595,10.186688 C23.6922119,10.3230062 24.7626245,10.5088947 25.758357,10.7443534 C25.4354631,11.75998 25.0615934,12.7588371 24.6381579,13.7371577 L24.6506046,13.7309614 Z M17.4937767,5.96082351 C18.2197581,6.75209235 18.9051949,7.57931412 19.5474751,8.4393364 C18.862909,8.39802785 18.1721195,8.37737358 17.4751067,8.37737358 C16.7780939,8.37737358 16.0727833,8.39802785 15.359175,8.4393364 C16.0437411,7.54087547 16.7283073,6.70437737 17.4128734,5.96082351 L17.4937767,5.96082351 Z M8.37037696,3.79212473 C8.55707681,2.73875675 8.93047653,2.01379172 9.44078947,1.71637018 C9.98221906,1.40655607 10.8597084,1.44993004 11.9301209,1.84029582 C13.1561166,2.30501699 14.5439189,3.19108535 15.9130512,4.41794923 C16.0997511,4.56666 16.2677809,4.72776334 16.4420341,4.89506296 C15.3684359,6.06700648 14.3746411,7.30902629 13.4672831,8.6128323 C11.8968207,8.75900241 10.3376543,9.00738486 8.79978663,9.35638617 C8.70851114,9.02591778 8.62968231,8.67479512 8.56330014,8.30301819 C8.2272404,6.63002199 8.15878378,5.08095143 8.37660028,3.90365781 L8.37037696,3.79212473 Z M7.72937411,19.9458325 C7.43895211,19.8632154 7.15267899,19.774402 6.87055477,19.6793924 C5.19025605,19.1031381 3.77133713,18.353388 2.79427454,17.5106936 C1.95412518,16.7981211 1.48737553,16.0669598 1.48737553,15.4473316 C1.48737553,13.9106536 4.03894026,12.3491905 6.55316501,11.4631221 C6.92656472,11.3391965 7.33730441,11.2152708 7.75426743,11.0913452 C8.22446498,12.5936821 8.79410967,14.0633537 9.45945946,15.4907056 C8.80068792,16.9390981 8.23935073,18.4294918 7.77916074,19.9520288 L7.72937411,19.9458325 Z M15.8197013,26.7245653 C12.8822902,29.2836298 10.4676387,29.8227064 9.45945946,29.265041 C8.15256046,28.4905057 8.02809388,25.5100939 8.52596017,22.9014591 L8.8371266,21.7427543 C10.3961923,22.0773799 11.9764794,22.3051117 13.5668563,22.4243454 C14.4996446,23.721546 15.5183877,24.955285 16.6162873,26.1173296 L15.9815078,26.7245653 L15.8197013,26.7245653 Z M17.53734,25.0515691 C16.7905405,24.2832301 16.1059744,23.4405357 15.4214083,22.5358785 C16.08523,22.5606636 16.7697961,22.5751216 17.4751067,22.5792524 C18.1804173,22.5792524 18.8857278,22.562729 19.5910384,22.5296822 C18.9504695,23.4009396 18.2649841,24.2385609 17.53734,25.0391765 L17.53734,25.0515691 Z M25.4409673,29.265041 C24.071835,30.0457725 21.458037,28.6454128 19.4043385,26.9104537 C19.1139165,26.6626024 18.8234945,26.3940969 18.5330725,26.104937 C19.5912751,24.9372389 20.5685167,23.6992586 21.458037,22.3995603 C23.0493538,22.2654146 24.6296087,22.0231958 26.1877667,21.6745952 L26.3744666,22.4801119 C27.121266,26.2598441 26.3744666,28.6144313 25.378734,29.2340596 L25.4409673,29.265041 Z M27.8742888,19.6979812 L27.2830725,19.8838697 C26.7963184,18.3726309 26.2057842,16.8965005 25.5156472,15.4659204 C26.1925806,14.0602506 26.7747134,12.6112434 27.2581792,11.1285229 C27.6315789,11.2276634 27.9842342,11.3350656 28.3161451,11.4507296 C29.9964438,12.008395 31.3655761,12.689986 32.2990754,13.4955027 C33.1081081,14.1770937 33.6059744,14.8586848 33.6059744,15.4163502 C33.6059744,16.531681 31.8634424,18.3905657 28.0049787,19.6298221 L27.8742888,19.6979812 Z" fill="#00D8FF"></path>
                    <path d="M54.470715,10.5085396 C54.470715,7.27117463 52.2141038,5 48.7226249,5 L41,5 L41,22.6047403 L44.0840353,22.6047403 L44.0840353,16.029627 L47.1429971,16.029627 L51.0481881,22.5984664 L54.6023506,22.5984664 L50.3085211,15.6845591 C52.4146915,15.3457651 54.470715,13.658069 54.470715,10.5148135 L54.470715,10.5085396 Z M44.0840353,13.313001 L44.0840353,7.72917393 L48.3026445,7.72917393 C50.0452498,7.716626 51.3114594,8.82711746 51.3114594,10.5148135 C51.3114594,12.2025096 50.0452498,13.3380969 48.3026445,13.3380969 L44.0840353,13.313001 Z M62.3563173,9.54862321 C58.5952987,9.54862321 55.8999021,12.5224817 55.8999021,16.2178459 C55.8999021,20.2520042 58.7457395,22.9184385 62.5694417,22.9184385 C64.6003918,22.9184385 66.4746327,22.2910422 67.7345739,21.0738933 L66.4809011,19.2544441 C65.5782566,20.1516208 64.0989226,20.6535378 62.8577865,20.6535378 C60.4632713,20.6535378 59.0090108,19.0662252 58.8021548,17.1401185 L68.6246817,17.1401185 L68.6246817,16.4813524 C68.6246817,12.466016 66.1800196,9.54234925 62.3563173,9.54234925 L62.3563173,9.54862321 Z M58.7708129,15.19519 C58.8961802,13.6266992 59.9868756,11.8072499 62.3563173,11.8072499 C64.8636631,11.8072499 65.8916748,13.6894388 65.9418217,15.19519 L58.7708129,15.19519 Z M76.6168462,9.54862321 C74.5858962,9.54862321 72.7429971,10.2011154 71.2699314,11.6002091 L72.398237,13.5263158 C73.5077375,12.4597421 74.7488737,11.957825 76.1717924,11.957825 C77.9394711,11.957825 79.1492654,12.8989195 79.1492654,14.341931 L79.1492654,16.2241199 C78.2090108,15.1575462 76.7046033,14.5928895 75.012145,14.5928895 C72.9435847,14.5928895 70.5616063,15.8476821 70.5616063,18.7337051 C70.5616063,21.5569885 72.8809011,23 74.9494613,23 C76.6419197,23 78.0836435,22.4353433 79.0238981,21.30603 L79.0238981,22.6863018 L81.7819785,22.6863018 L81.7819785,14.1474381 C81.7819785,10.7155803 79.2871694,9.52980132 76.4664055,9.52980132 L76.6168462,9.54862321 Z M79.1492654,19.6998954 C78.4597453,20.5782503 77.3314398,21.0174277 76.0777669,21.0174277 C74.5106758,21.0174277 73.3196866,20.120251 73.3196866,18.746253 C73.3196866,17.3471593 74.4479922,16.4499826 76.0150833,16.4499826 C77.2060725,16.4499826 78.3970617,16.9017079 79.0238981,17.7675148 L79.1492654,19.6998954 Z M91.4352595,11.9954688 C92.6471433,11.9954688 93.6082925,12.4973858 94.3187071,13.5012199 L96.1365328,11.8072499 C95.1962782,10.596375 93.6918707,9.54862321 91.2472086,9.54862321 C87.3608227,9.54862321 84.6654261,12.3719066 84.6654261,16.2178459 C84.6654261,20.0951551 87.3608227,22.9184385 91.2472086,22.9184385 C93.6918707,22.9184385 95.1962782,21.8644127 96.1365328,20.6598118 L94.3187071,18.9658418 C93.5665034,19.938306 92.6262488,20.4715929 91.3725759,20.4715929 C89.0532811,20.4715929 87.48619,18.7023353 87.48619,16.2178459 C87.48619,13.7333566 88.9905975,11.9954688 91.3098923,11.9954688 L91.4352595,11.9954688 Z M104.34809,20.0261415 C104.097356,20.2520042 103.595886,20.4653189 103.094417,20.4653189 C102.27953,20.4653189 101.840744,19.8379226 101.840744,18.9595678 L101.840744,12.2840711 L104.410774,12.2840711 L104.410774,9.8560474 L101.840744,9.8560474 L101.840744,6.36772395 L99.0826641,6.36772395 L99.0826641,9.8560474 L97.0141038,9.8560474 L97.0141038,12.2840711 L99.0826641,12.2840711 L99.0826641,19.6497037 C99.0826641,21.7577553 100.24858,22.9121645 102.404897,22.9121645 C103.683643,22.9121645 104.498531,22.5733705 105,22.0965493 L104.34809,20.0261415 Z" fill="#000000"></path>
                </g>
            </g>
        </g>
    </g>
</svg>