<?xml version="1.0" encoding="UTF-8"?>
<svg width="160px" height="70px" viewBox="0 0 160 70" version="1.1" xmlns="http://www.w3.org/2000/svg" xmlns:xlink="http://www.w3.org/1999/xlink">
    <!-- Generator: Hyder A. - https://toggle.me -->
    <title>redhat</title>
    <desc>Created with Sketch.</desc>
    <defs></defs>
    <g id="technologies" stroke="none" stroke-width="1" fill="none" fill-rule="evenodd">
        <g id="OS" transform="translate(-416.000000, -138.000000)">
            <g id="redhat" transform="translate(416.000000, 138.000000)">
                <rect id="Rectangle-Copy-6" fill="#FFFFFF" x="0" y="0" width="160" height="70"></rect>
                <g transform="translate(31.000000, 20.000000)" id="Shape" fill-rule="nonzero">
                    <path d="M29,23.9790648 C28.396181,23.8430886 27.7558766,23.7572824 27.1078458,23.7572824 C25.9997611,23.7572824 24.9914441,23.9454485 24.2480912,24.2501622 C24.1661369,24.2896757 24.1077663,24.373754 24.1077663,24.4695544 C24.1077663,24.5046819 24.1166884,24.540029 24.1302708,24.5700118 C24.2180383,24.8198775 24.0737122,25.0908877 23.3538971,25.2464911 C22.2868968,25.4765609 21.6130196,26.5576966 21.2279907,26.9167978 C20.7750805,27.3389953 19.4968325,27.5976119 19.689163,27.3463405 C19.8396701,27.1500796 20.4147943,26.5362631 20.7649014,25.8731496 C21.0778485,25.2803874 21.3565177,25.1119599 21.7405654,24.54614 C21.8530633,24.3811082 22.2897788,23.7982559 22.417018,23.3368038 C22.5595781,22.8875435 22.5113897,22.3222052 22.5661853,22.0903202 C22.6447394,21.7546695 22.9669121,21.0272555 22.9911642,20.6167682 C23.0052065,20.3839409 22.0031748,20.948355 21.5278521,20.948355 C21.052744,20.948355 20.589532,20.6682146 20.1648597,20.6482019 C19.6391012,20.624601 19.3014115,21.0468286 18.8256902,20.9729253 C18.5544469,20.9300703 18.3255635,20.6950516 17.8510073,20.6777181 C17.1750146,20.6536356 16.3494008,21.0468136 14.798401,20.9977755 C13.2731556,20.9488246 11.8638665,19.1047653 11.6716894,18.8114697 C11.4462031,18.4676911 11.1710721,18.4676911 10.8710942,18.738045 C10.5706257,19.0081912 10.2009269,18.7958431 10.0955177,18.6142576 C9.89543019,18.2709907 9.36056566,17.2664767 8.53182458,17.0555435 C7.38596663,16.7642619 6.80581722,17.678409 6.88114895,18.4063046 C6.95756912,19.1446761 7.44363818,19.3518765 7.66914283,19.7446632 C7.89413239,20.1373595 8.00925474,20.390377 8.43306857,20.5639521 C8.73323963,20.6877365 8.84507828,20.8691384 8.75582689,21.11168 C8.67726971,21.3220292 8.36478864,21.3701251 8.15939699,21.3801193 C7.72298187,21.4005895 7.4169946,21.2845115 7.19372814,21.144345 C6.93400381,20.9815047 6.72306575,20.7560136 6.49657998,20.3730406 C6.23424648,19.9503313 5.82156838,19.7660997 5.3405429,19.7660997 C5.11135598,19.7660997 4.89683069,19.8255053 4.70624784,19.9218687 C3.95265454,20.307551 3.05538825,20.5349206 2.08932082,20.5349206 L1,20.5358237 C3.08902232,26.6190801 8.94739086,31 15.8483543,31 C21.3607242,31 26.2077711,28.2050977 28.9999816,23.9790287" fill="#FFFFFF"></path>
                    <path d="M32.1989314,23.4383188 L32.1989314,23.1278672 L32.4706749,23.1278672 C32.6085641,23.1278672 32.7573743,23.1515484 32.7573743,23.2750436 C32.7573743,23.4281176 32.6077551,23.4383188 32.4375172,23.4383188 L32.1989314,23.4383188 Z M32.1989314,23.5667476 L32.429023,23.5667476 L32.7763801,23.9999924 L33,23.9999924 L32.6239345,23.5590436 C32.8192455,23.5409412 32.9664378,23.4633738 32.9664378,23.285222 C32.9664378,23.0860797 32.8123692,23 32.5018102,23 L32,23 L32,24 L32.1989513,24 L32.1989513,23.5667552 L32.1989314,23.5667476 Z" fill="#100F0D"></path>
                    <path d="M32.001548,23 C31.4481424,23 31,23.4481022 31,24 C31,24.5515105 31.4481424,25 32.001548,25 C32.5510836,25 33,24.5515105 33,24 C33,23.4481022 32.5510836,23 32.001548,23 Z M32.001548,23.1769946 C32.4543344,23.1769946 32.8219814,23.545701 32.8219814,24.0007746 C32.8219814,24.4546863 32.4543344,24.8214562 32.001548,24.8214562 C31.5448916,24.8214562 31.1772446,24.4546863 31.1772446,24.0007746 C31.1772446,23.545701 31.5448916,23.1769946 32.001548,23.1769946 Z" fill="#100F0D"></path>
                    <path d="M16.0003131,0 C7.16375379,0 0,7.08654241 0,15.8292446 C0,17.5987891 0.293314023,19.3001789 0.834837068,20.8888036 L1.94736863,20.8888036 C2.93401703,20.8888036 3.85039632,20.6536698 4.62009981,20.2577528 C4.81456111,20.1586186 5.03438693,20.097899 5.26830414,20.097899 C5.75962423,20.097899 6.18080047,20.2868734 6.44885018,20.7218245 C6.67994911,21.1161925 6.89539094,21.3482284 7.16062237,21.5148977 C7.38858988,21.6595715 7.70141893,21.7794619 8.1473334,21.7587057 C8.35713866,21.7484825 8.67623055,21.6986056 8.75639495,21.4817497 C8.84751933,21.2326751 8.73322243,21.0449398 8.42665623,20.9188536 C7.99389373,20.7401024 7.87615227,20.4783263 7.6463059,20.0743546 C7.41614639,19.6700732 6.91950289,19.4569348 6.84153048,18.6973194 C6.7644975,17.9485468 7.35727566,17.0077018 8.52748801,17.3078924 C9.37391134,17.5244385 9.92003131,18.5588414 10.1245132,18.9126263 C10.2322341,19.0988127 10.6095704,19.316598 10.9164498,19.039642 C11.223016,18.7608272 11.5039045,18.761137 11.7343771,19.1152318 C11.9307173,19.4169713 13.3702319,21.3150804 14.9281143,21.3649573 C16.5123006,21.4151439 17.3549662,21.0105527 18.0454448,21.035646 C18.5301889,21.0539239 18.7641061,21.294634 19.0412369,21.3389345 C19.5269204,21.4148341 19.87169,20.9801929 20.4087288,21.005596 C20.8424308,21.026662 21.3155886,21.3135314 21.8006459,21.3135314 C22.2860162,21.3135314 23.3096781,20.7342163 23.2955867,20.9727578 C23.2705353,21.3953171 22.9414228,22.1440897 22.8612584,22.4885808 C22.805206,22.7280518 22.8546825,23.3092257 22.7090713,23.772368 C22.5791173,24.2463532 22.1332029,24.8464245 22.0182797,25.0171211 C21.6262257,25.5989146 21.3412663,25.7723994 21.0215481,26.3820744 C20.6639397,27.064551 20.0767981,27.6959116 19.9230453,27.898517 C19.7267052,28.1568854 21.0321949,27.8901526 21.4950191,27.4561309 C21.8880125,27.0862366 22.5762991,25.9737656 23.6660339,25.7370829 C24.4012917,25.5775388 24.5484685,25.2984143 24.4585967,25.0406655 C24.4448185,25.0109252 24.4360505,24.9734401 24.4360505,24.9378138 C24.4360505,24.8392993 24.4955475,24.7531765 24.5791565,24.711664 C25.3385263,24.3990817 26.3678246,24.2051505 27.4995205,24.2051505 C28.1615031,24.2051505 28.8156571,24.2922027 29.4322341,24.4331591 C31.0568157,21.955425 32,19.0018471 32,15.8292446 C32,7.08654241 24.8371856,2.20122021e-15 16.0003131,0 Z" fill="#100F0D"></path>
                    <path d="M65.9136282,9 L65.9136282,15.1012419 L65.8702322,15.1012419 C65.3835768,14.3021226 64.3141746,13.691813 62.8294105,13.691813 C60.2194494,13.691813 57.9473574,15.844429 57.9628559,19.4692045 C57.9628559,22.7939239 60.0179678,24.9962918 62.606231,24.9962918 C64.1746874,24.9962918 65.4827677,24.2531047 66.1306084,23.041447 L66.1802038,23.041447 L66.3041925,24.753713 L68.7467689,24.753713 C68.6971735,24.0185604 68.6568772,22.8272978 68.6568772,21.7203971 L68.6568772,9.77068969 L65.9136282,9 L65.9136282,9 Z M71.1211516,10.482357 L71.1211516,24.753713 L72.1967532,24.753713 L72.1967532,18.1333217 C72.1967532,17.6935898 72.2308501,17.3885895 72.3424398,17.0669023 C72.8073973,15.720513 74.078281,14.6154663 75.61884,14.6154663 C77.8413366,14.6154663 78.6100662,16.3926261 78.6100662,18.3422176 L78.6100662,24.753713 L79.682568,24.753713 L79.682568,18.2232458 C79.682568,14.1911853 76.9424188,13.6797613 75.9102133,13.6797613 C75.0856888,13.6797613 74.3448566,13.9170867 73.7218136,14.2996504 C73.0770726,14.6766518 72.5532206,15.2591498 72.2401492,15.861734 L72.1967532,15.861734 L72.1967532,10.7991 L71.1211516,10.482357 L71.1211516,10.482357 Z M93.6002942,11.5413601 L92.5246927,11.9362845 L92.5246927,13.9272843 L90.6927603,13.9272843 L90.6927603,14.7959326 L92.5246927,14.7959326 L92.5246927,21.6412886 C92.5246927,22.7457172 92.6951771,23.6548467 93.1849322,24.223748 C93.6095934,24.7428974 94.2667332,24.9916565 95.0602606,24.9916565 C95.7143007,24.9916565 96.2071556,24.87732 96.5574236,24.7308457 L96.4272355,23.9014427 C96.1513607,23.9978562 95.754597,24.0710933 95.1935484,24.0710933 C94.0280551,24.0710933 93.6002942,23.2086255 93.6002942,21.8319524 L93.6002942,14.7959326 L96.6938111,14.7959326 L96.6938111,13.9272843 L93.6002942,13.9272843 L93.6002942,11.5413601 L93.6002942,11.5413601 Z M52.160187,13.6714178 C48.6699065,13.6714178 46.8534727,16.497074 46.8534727,19.4824922 C46.8534727,22.7970141 48.9178838,24.9656991 52.4391615,24.9656991 C54.0138174,24.9656991 55.3032994,24.6724414 56.2332142,24.2793711 L55.8271514,22.3980725 C54.9964274,22.7021457 54.09441,22.8989899 52.8328255,22.8989899 C51.0752863,22.8989899 49.5533256,22.0408483 49.4820322,20.0810592 L56.738468,20.1011453 C56.7911632,19.848678 56.8376589,19.4407749 56.8376589,18.932441 C56.8376589,16.5644398 55.6876642,13.6714178 52.160187,13.6714178 Z M85.5906273,13.6797613 C84.6080172,13.6797613 83.3960282,13.9448983 82.4041189,14.6154663 L82.7450877,15.3938815 C83.5324157,14.8404311 84.5212252,14.5876548 85.4697384,14.5876548 C88.0394032,14.5703498 88.2501839,16.7065879 88.2501839,17.7773336 L88.2501839,18.067192 C83.8299884,18.0208394 81.6198907,19.5257547 81.6198907,22.0244703 C81.6198907,23.4685092 82.6365977,25 84.8187979,25 C86.5453399,25 87.757329,24.0367924 88.281181,23.2027541 L88.3338762,23.2027541 L88.4919618,24.753713 L89.4807713,24.753713 C89.3567826,23.924619 89.3226857,23.0383568 89.3226857,22.1826873 L89.3226857,17.9590359 C89.3226857,16.0245862 88.7213408,13.6797613 85.5906273,13.6797613 L85.5906273,13.6797613 Z M45.5267942,13.691813 C44.3551014,13.691813 43.0904171,14.467756 42.5541662,15.9909033 L42.4766733,15.9909033 L42.3743827,13.9362458 L40,13.9362458 C40.0588946,14.8997624 40.0898918,15.9646368 40.0898918,17.4126929 L40.065094,24.753713 L42.8114427,24.753713 L42.8114427,19.143809 C42.8114427,18.8490063 42.8362404,18.5597659 42.8827362,18.3187323 C43.1276137,17.078645 44.0358306,16.250478 45.3408112,16.250478 C45.6724808,16.250478 45.911159,16.2773625 46.1684354,16.3277324 L46.1684354,13.7511443 C45.9483556,13.7023196 45.7933698,13.691813 45.5267942,13.691813 L45.5267942,13.691813 Z M51.9897026,15.5400467 C53.8278344,15.5400467 54.2648944,17.1732043 54.2524955,18.1756571 L49.4758327,18.1756571 C49.5998214,17.0675203 50.3003573,15.5400467 51.9897026,15.5400467 L51.9897026,15.5400467 Z M63.4927498,15.808583 C64.7264369,15.808583 65.609856,16.6753771 65.8547336,17.7291268 C65.9012294,17.9503834 65.9136282,18.2235549 65.9136282,18.4423393 L65.9136282,20.0634452 C65.9136282,20.3505224 65.8950299,20.6168955 65.8330356,20.8616374 C65.5540612,22.0451745 64.58385,22.8078297 63.4617527,22.8078297 C61.7352107,22.8078297 60.7464012,21.3563745 60.7464012,19.3687738 C60.7464012,17.361705 61.7259115,15.808583 63.4927498,15.808583 L63.4927498,15.808583 Z M87.3326679,18.9658149 C87.6457392,18.9574715 87.9526111,18.9590166 88.2501839,18.967669 L88.2501839,21.2917898 C88.2501839,21.4768913 88.216087,21.7095815 88.1354944,21.9407266 C87.7635284,22.9941673 86.7313229,24.1109566 84.9241883,24.1109566 C83.7927918,24.1109566 82.7605863,23.41165 82.7605863,21.8560558 C82.7605863,19.5816868 85.1535673,19.0239102 87.3326679,18.9658149 L87.3326679,18.9658149 Z M98.1971735,23.3251251 C97.7570138,23.3251251 97.3974467,23.6826583 97.3974467,24.1230083 C97.3974467,24.5630492 97.7570138,24.9208915 98.1971735,24.9208915 C98.6404329,24.9208915 99,24.5630492 99,24.1230083 C99,23.6826583 98.6404329,23.3251251 98.1971735,23.3251251 Z M98.1971735,23.4663461 C98.56294,23.4663461 98.8574131,23.7605307 98.8574131,24.1236263 C98.8574131,24.4857949 98.56294,24.7784344 98.1971735,24.7784344 C97.8345067,24.7784344 97.5400336,24.4857949 97.5400336,24.1236263 C97.5400336,23.7605307 97.8345067,23.4663461 98.1971735,23.4663461 Z M97.9274982,23.7157232 L97.9274982,24.5299844 L98.0514868,24.5299844 L98.0514868,24.1773954 L98.1940738,24.1773954 L98.4110539,24.5299844 L98.5474414,24.5299844 L98.3149627,24.170288 C98.4389514,24.1554551 98.5288431,24.0927246 98.5288431,23.9474863 C98.5288431,23.7858702 98.4327519,23.7157232 98.2405695,23.7157232 L97.9274982,23.7157232 L97.9274982,23.7157232 Z M98.0514868,23.8195531 L98.2188715,23.8195531 C98.3056635,23.8195531 98.398655,23.8387122 98.398655,23.9391429 C98.398655,24.0639859 98.3056635,24.0723294 98.2002732,24.0723294 L98.0514868,24.0723294 L98.0514868,23.8195531 Z" fill="#100F0D"></path>
                    <path d="M19.8628122,23.0090247 C19.9475092,23.0664932 20.0942612,23.2621148 19.9147827,23.5090347 C19.814534,23.6402266 19.7066354,23.7321034 19.5133479,23.8401221 C19.2809839,23.9705975 18.8265827,24.1206502 18.203738,23.8446875 C17.8691012,23.6960564 17.8483441,23.6460735 17.3860603,23.6878386 C17.0556914,23.7182216 16.9242939,23.4852151 17.0429202,23.2910491 C17.1617599,23.097943 17.6499222,22.9414512 18.2564069,23.1901679 C18.5294576,23.302196 18.955135,23.5392007 19.3279236,23.3293019 C19.4821346,23.2427138 19.5746883,23.1852453 19.7889464,23.0115719 C19.7989693,23.0044299 19.8124518,23 19.8275929,23 C19.8411077,23 19.8533939,23.0037066 19.8627798,23.0089953" fill="#100F0D"></path>
                    <path d="M18.6767189,4.0036855 C18.3220167,4.01785817 17.9636734,4.07139934 17.6141294,4.16430903 C17.099523,4.30131146 16.0927634,4.84491189 14.2257979,4.40839382 C10.9940329,3.65305377 10.5152304,5.3327665 10.3304454,6.06376106 C10.1444467,6.7960154 9.6993243,8.87561774 9.6993243,8.87561774 C9.55064673,9.72282814 9.35645561,11.1952105 14.3738686,12.187612 C16.7117476,12.6493259 16.8300828,13.2760727 16.9332468,13.7270784 C17.1189421,14.5352352 17.4159938,14.9982089 17.7500632,15.2293808 C18.0838292,15.4611826 17.7497598,15.6526711 17.3789761,15.6917246 C16.3834432,15.7991219 12.7041284,14.7031025 10.5276708,13.419689 C8.74657413,12.2896552 8.71714204,11.2726878 9.12494339,10.40973 C6.43478958,10.1076947 4.41550539,10.6717668 4.0495765,11.993604 C3.42151995,14.2621752 8.85428952,18.1366668 15.0410971,20.0814713 C21.5340592,22.1217052 28.212413,20.6975098 28.9545872,16.4614578 C29.2913874,14.5371249 27.7299695,13.1135594 25.0962525,12.4968911 C24.9427201,13.031358 24.7245585,13.7144804 23.7551201,14.2309953 C23.6140281,14.3062679 23.5603221,14.1834382 23.6252547,14.0678522 C23.9917905,13.4212637 24.0567231,13.2593804 24.1632248,13.0042725 C24.3125092,12.6313739 24.3901857,12.0997415 24.0940442,10.9936437 C23.510864,8.81546265 22.2944387,5.90471226 21.4105657,4.9601829 C20.7706453,4.27674551 19.741129,3.9617974 18.6767189,4.0036855 Z M18.9689159,4.74979756 C18.998348,4.74979756 19.0274766,4.75011251 19.0572122,4.75042746 C20.0509245,4.77373362 20.8468047,5.18379605 20.8352746,5.66566665 C20.8231376,6.1484821 20.0087486,6.52043581 19.0147328,6.4974446 C18.6931038,6.4895709 18.3911973,6.44106889 18.1311633,6.3632767 C18.1005175,6.35508805 18.0783676,6.32800252 18.0783676,6.29556286 C18.0783676,6.26343816 18.1002141,6.23603767 18.1317701,6.22816397 C18.7513611,6.07919351 19.1703892,5.83573863 19.1409571,5.60551156 C19.1021188,5.3006418 18.2907641,5.13529404 17.3292146,5.23513259 C17.2239266,5.24678567 17.121066,5.26095834 17.0215431,5.27702069 C17.0191157,5.27702069 17.0166883,5.27765059 17.0139575,5.27765059 C16.9860425,5.27765059 16.9635892,5.25528927 16.9635892,5.22914858 C16.9635892,5.20930685 16.9751193,5.1919847 16.992111,5.184111 C17.3392276,4.99388234 17.8571717,4.84270725 18.4497581,4.78003258 C18.6278677,4.76113569 18.8017295,4.75074241 18.9689159,4.74979756 L18.9689159,4.74979756 Z M11.6002733,6.68830315 C11.7589638,6.68168924 11.9055174,6.76924481 11.9756083,6.85931997 C12.1449187,7.0782089 12.5072065,7.4369348 12.9769062,7.42402192 C13.4469094,7.4107941 13.9891274,7.30875092 14.7452591,7.30875092 C15.5117072,7.30875092 16.0275273,7.60606193 16.0563526,7.86116989 C16.0812333,8.07911398 15.9938473,8.28446015 15.1406201,8.34839461 C13.3498139,8.48287745 13.1638152,8.6834994 12.8282287,9.05450826 C12.3551912,9.57732212 11.732566,8.37611005 11.732566,8.37611005 C11.3587481,8.29422354 10.9054332,7.66842165 11.1499926,7.08419292 C11.2704518,6.79538551 11.4415827,6.69460211 11.6002733,6.68830315 Z" fill="#CD1E25"></path>
                </g>
            </g>
        </g>
    </g>
</svg>