<?xml version="1.0" encoding="UTF-8"?>
<svg width="160px" height="70px" viewBox="0 0 160 70" version="1.1" xmlns="http://www.w3.org/2000/svg" xmlns:xlink="http://www.w3.org/1999/xlink">
    <!-- Generator: Hyder A. - https://toggle.me -->
    <title>ruby</title>
    <desc>Created with Sketch.</desc>
    <defs>
        <linearGradient x1="0%" y1="50%" x2="100%" y2="50%" id="linearGradient-1">
            <stop stop-color="#DC2018" offset="0%"></stop>
            <stop stop-color="#B61E1A" offset="100%"></stop>
        </linearGradient>
    </defs>
    <g id="technologies" stroke="none" stroke-width="1" fill="none" fill-rule="evenodd">
        <g id="Languages" transform="translate(-224.000000, -241.000000)">
            <g id="ruby" transform="translate(224.000000, 241.000000)">
                <rect id="Rectangle-Copy-8" fill="#FFFFFF" x="0" y="0" width="160" height="70"></rect>
                <g transform="translate(26.000000, 18.000000)" id="Shape" fill-rule="nonzero">
                    <polygon fill="#2B2523" points="73.781893 9 69.5679012 18.6677741 64.7777778 9 59 9 67 24.5481728 62.8683128 34 68.0699588 34 79 9"></polygon>
                    <path d="M24,24.9835729 L14.0348918,14.4209446 C15.8771807,13.6324435 18.6573622,11.6776181 18.6573622,8.19507187 C18.6741103,1.18069815 12.0251221,1.0164271 11.1207258,1.0164271 C10.2163294,1.0164271 5.29239358,1.0164271 5.29239358,1.0164271 L5.29239358,1 L0,1 L0,24.9835729 L5.29239358,24.9835729 L5.29239358,15.1273101 L8.39078856,15.1273101 L17.1835311,25 L24,25 L24,24.9835729 Z M5.29239358,5.35318275 C5.29239358,5.35318275 9.931612,5.35318275 10.2330775,5.35318275 C10.752268,5.35318275 13.0635031,5.71457906 13.0635031,8.11293634 C13.0635031,9.80492813 11.4891835,10.7084189 10.2163294,10.7084189 C9.56315422,10.7084189 5.29239358,10.7084189 5.29239358,10.7084189 C5.29239358,10.7084189 5.29239358,5.35318275 5.29239358,5.35318275 Z" fill="#2B2523"></path>
                    <path d="M51.8575393,8.91749834 C50.1424607,8.91749834 48.560592,9.46640053 47.2617946,10.3978709 L47.2617946,1 L42,1 L42,25.6340652 L47.2451434,25.6340652 L47.2451434,24.5196274 C48.560592,25.4510978 50.1424607,26 51.8408881,26 C56.3533765,26 60,22.174318 60,17.4670659 C60,12.7598137 56.3700278,8.91749834 51.8575393,8.91749834 Z M51.0749306,21.6420492 C49.1267345,21.6420492 47.5115634,20.0785096 47.2451434,18.0658683 L47.2451434,16.8682635 C47.5115634,14.8389887 49.1267345,13.2920825 51.0749306,13.2920825 C53.2062905,13.2920825 54.9380204,15.1716567 54.9380204,17.4670659 C54.9546716,19.762475 53.2229417,21.6420492 51.0749306,21.6420492 Z" fill="#2B2523"></path>
                    <path d="M39,9 L33.9635628,9 L33.9635628,17.6760563 C33.9311741,19.3018109 32.5870445,20.5895372 30.951417,20.5895372 C29.3643725,20.5895372 28.0688259,19.3822938 27.9554656,17.8370221 L27.9554656,9 L23,9 L23,17.8531187 L23,17.8853119 C23,21.9416499 26.8218623,25 30.951417,25 C35.1133603,25 38.9838057,21.8772636 38.9838057,17.804829 L38.9838057,17.7726358 L38.9838057,9 L39,9 Z" fill="#2B2523"></path>
                    <polygon fill="url(#linearGradient-1)" points="96.1047923 16.6315789 88.9277955 8.61538462 91.685623 5.11740891 100.590415 5.11740891 104.029393 8.87449393 108 5.00404858 103.580831 0 88.6785942 0 82 8.64777328 96.0715655 24 104.095847 16.2753036 100.291374 12.534413"></polygon>
                </g>
            </g>
        </g>
    </g>
</svg>