<?xml version="1.0" encoding="UTF-8"?>
<svg width="160px" height="70px" viewBox="0 0 160 70" version="1.1" xmlns="http://www.w3.org/2000/svg" xmlns:xlink="http://www.w3.org/1999/xlink">
    <!-- Generator: Hyder A. - https://toggle.me -->
    <title>scala</title>
    <desc>Created with Sketch.</desc>
    <defs>
        <linearGradient x1="0.170666667%" y1="49.6324%" x2="99.8186667%" y2="49.6324%" id="linearGradient-1">
            <stop stop-color="#656565" offset="0%"></stop>
            <stop stop-color="#010101" offset="100%"></stop>
        </linearGradient>
        <linearGradient x1="0.170666667%" y1="49.8236%" x2="99.8186667%" y2="49.8236%" id="linearGradient-2">
            <stop stop-color="#656565" offset="0%"></stop>
            <stop stop-color="#010101" offset="100%"></stop>
        </linearGradient>
        <linearGradient x1="0.170666667%" y1="50.0536%" x2="99.8186667%" y2="50.0536%" id="linearGradient-3">
            <stop stop-color="#9F1C20" offset="0%"></stop>
            <stop stop-color="#ED2224" offset="100%"></stop>
        </linearGradient>
        <linearGradient x1="0.170666667%" y1="50.2468%" x2="99.8186667%" y2="50.2468%" id="linearGradient-4">
            <stop stop-color="#9F1C20" offset="0%"></stop>
            <stop stop-color="#ED2224" offset="100%"></stop>
        </linearGradient>
        <linearGradient x1="0.170666667%" y1="50.438%" x2="99.8186667%" y2="50.438%" id="linearGradient-5">
            <stop stop-color="#9F1C20" offset="0%"></stop>
            <stop stop-color="#ED2224" offset="100%"></stop>
        </linearGradient>
    </defs>
    <g id="technologies" stroke="none" stroke-width="1" fill="none" fill-rule="evenodd">
        <g id="Languages" transform="translate(-416.000000, -138.000000)">
            <g id="scala" transform="translate(416.000000, 138.000000)">
                <rect id="Rectangle-Copy-6" fill="#FFFFFF" x="0" y="0" width="160" height="70"></rect>
                <g transform="translate(19.000000, 17.000000)" id="Shape" fill-rule="nonzero">
                    <path d="M0,14.4 C0,14.4 21,16.5 21,20 L21,11.6 C21,11.6 21,8.1 1.49213975e-15,6 L0,14.4 Z" fill="url(#linearGradient-1)"></path>
                    <path d="M0,25.4 C0,25.4 21,27.5 21,31 L21,22.6 C21,22.6 21,19.1 1.49213975e-15,17 L0,25.4 Z" fill="url(#linearGradient-2)"></path>
                    <path d="M21,0 L21,8.4 C21,8.4 21,11.9 0,14 L0,5.6 C0,5.6 21,3.5 21,0" fill="url(#linearGradient-3)"></path>
                    <path d="M0,16.6 C0,16.6 21,14.5 21,11 L21,19.4 C21,19.4 21,22.9 1.49213975e-15,25 L0,16.6 Z" fill="url(#linearGradient-4)"></path>
                    <path d="M0,36 L0,27.6 C0,27.6 21,25.5 21,22 L21,30.4 C21,30.4 21,33.9 1.49213975e-15,36" fill="url(#linearGradient-5)"></path>
                    <path d="M28,30.2577288 C28.4704151,28.2092539 28.8854872,26.2730242 29.3282308,24.3087332 C30.9055049,24.757714 32.372093,25.4031239 33.9216956,25.599553 C35.4712982,25.7959821 37.0762437,25.6837369 38.6258463,25.5153691 C39.5113335,25.4311852 40.120106,24.7296527 40.2307919,23.7475072 C40.3138063,22.8214844 39.8433912,22.1199519 39.0685899,21.7270937 C38.1000883,21.2219903 37.1039152,20.8291321 36.1077421,20.35209 C34.7795113,19.7347414 33.4236091,19.2015767 32.1783927,18.4439216 C29.6049455,16.9005501 28.0553429,14.6556462 28.2213718,11.4847193 C28.3874006,8.28573113 29.9923462,6.01276585 32.7041507,4.55357827 C35.3052694,3.15051329 38.1277598,2.84183899 41.0055932,3.17857459 C42.859582,3.40306498 44.6582278,3.99235228 46.5675596,4.46939437 C45.9864586,6.68623705 45.4883721,8.59440542 45.017957,10.4183899 C43.38534,9.91328651 41.8357374,9.40818311 40.2307919,9.23981532 C39.1239329,9.12757012 37.906388,9.23981532 36.8548719,9.57655091 C35.2775979,10.0816543 35.0838976,11.8495162 36.4674713,12.7755391 C37.4359729,13.420949 38.5981749,13.8138072 39.6773624,14.2908493 C41.0886076,14.9643204 42.5828672,15.4694238 43.8834266,16.3112628 C49.1686782,19.6224962 48.864292,27.283231 43.38534,30.2857901 C40.5351781,31.8291616 37.4636444,32.1939584 34.3090963,31.9133455 C32.2060642,31.6888551 30.1030321,31.2398743 28,30.2577288 L28,30.2577288 Z M87.8534001,31.4643647 L81.4336179,31.4643647 C81.267589,30.8750774 81.1015602,30.369974 80.9078599,29.6684415 C79.3029143,31.2959969 77.4489255,31.9133455 75.3458934,31.9133455 C72.1083309,31.9133455 69.728584,30.1735449 68.9261113,27.2271084 C68.095967,24.1403654 69.3965263,21.0255612 72.1360024,19.3980058 C74.3773918,18.0791247 76.8401531,17.7704504 79.3582573,17.5740213 C79.6626435,17.54596 79.9393583,17.54596 80.2437445,17.5178987 C80.1053871,16.3393241 79.4412717,15.8061594 78.0300265,15.6939142 C75.7332941,15.4974851 73.6025905,16.0025885 71.3888725,17.1250405 C70.9461289,15.5536077 70.5310568,14.0382976 70.0329703,12.2704357 C71.8039447,11.7653323 73.4642331,11.0637998 75.2075361,10.8673707 C77.3382396,10.6428803 79.5519576,10.6428803 81.6549897,11.0076772 C85.169267,11.6530871 87.327642,14.5153397 87.4936709,18.387799 C87.6043568,21.0816838 87.5766853,23.8036298 87.5766853,26.4975146 C87.6043568,28.12507 87.6043568,30.1454836 87.8534001,31.4643647 L87.8534001,31.4643647 Z M80.5204592,22.2041358 C79.164557,22.035768 77.9746835,22.2602584 76.8401531,22.9056683 C76.0653518,23.3546491 75.6226082,24.1123041 75.8163085,24.9822044 C75.9546659,25.5434304 76.3143951,26.2449629 76.7848101,26.5255759 C78.2237268,27.3674149 80.2437445,26.3010855 80.4651163,24.6174075 C80.6034737,23.8316911 80.5204592,23.0459748 80.5204592,22.2041358 Z M122,31.4363034 L115.580218,31.4363034 C115.414189,30.8470161 115.24816,30.3419127 115.05446,29.6403802 C113.449514,31.2679356 111.595525,31.8852842 109.492493,31.8852842 C106.254931,31.8852842 103.875184,30.1454836 103.072711,27.1990471 C102.242567,24.1123041 103.543126,20.9974999 106.282602,19.3699445 C108.523992,18.0510634 110.986753,17.7423891 113.504857,17.54596 C113.809243,17.5178987 114.085958,17.5178987 114.390344,17.4898374 C114.251987,16.3112628 113.587872,15.7780981 112.176626,15.6658529 C109.879894,15.4694238 107.74919,15.9745272 105.535472,17.0969792 C105.092729,15.5255464 104.677657,14.0102363 104.17957,12.2423744 C105.950545,11.737271 107.610833,11.0357385 109.354136,10.8393094 C111.48484,10.614819 113.698558,10.614819 115.80159,10.9796159 C119.315867,11.6250258 121.474242,14.4872784 121.640271,18.3597377 C121.750957,21.0536225 121.723285,23.7755685 121.723285,26.4694533 C121.723285,28.12507 121.750957,30.1174223 122,31.4363034 L122,31.4363034 Z M114.667059,22.1760745 C113.311157,22.0077067 112.121283,22.2321971 110.986753,22.877607 C110.211952,23.3265878 109.769208,24.0842428 109.962908,24.9541431 C110.101266,25.5153691 110.460995,26.2169016 110.93141,26.4975146 C112.370327,27.3393536 114.390344,26.2730242 114.611716,24.5893462 C114.750074,23.8316911 114.667059,23.0179135 114.667059,22.1760745 L114.667059,22.1760745 Z M65.6885487,16.7602436 C63.0320871,16.2270789 60.5416544,15.7219755 58.6876656,18.2474925 C57.5254636,19.8469866 57.5254636,22.6811779 58.6876656,24.2245493 C60.5693259,26.7781276 63.1704445,26.2730242 65.9099205,25.7959821 C66.1589638,27.4515988 66.6293789,31.211813 66.6293789,31.211813 C66.6293789,31.211813 66.6017074,31.211813 66.2973212,31.3240582 C61.3164557,32.6990618 55.4777745,31.7169164 52.8489844,28.6021121 C50.1371799,25.4031239 49.8051222,21.6429098 51.0226671,17.7423891 C52.2125405,13.8979911 55.0627024,11.7653323 58.826023,10.9515546 C61.2334413,10.4183899 63.6685311,10.4745125 66.0482779,11.1479837 C66.2696497,11.2041063 66.6570503,11.3163515 66.6570503,11.3163515 C66.6570503,11.3163515 65.9929349,15.0765656 65.6885487,16.7602436 Z M92.280836,2 L99.4200765,2 L99.4200765,31.4082421 L92.280836,31.4082421 L92.280836,2 Z" fill="#231F20"></path>
                </g>
            </g>
        </g>
    </g>
</svg>