<?xml version="1.0" encoding="UTF-8"?>
<svg width="160px" height="70px" viewBox="0 0 160 70" version="1.1" xmlns="http://www.w3.org/2000/svg" xmlns:xlink="http://www.w3.org/1999/xlink">
    <!-- Generator: Sketch 47.1 (45422) - http://www.bohemiancoding.com/sketch -->
    <title>shopware</title>
    <desc>Created with Sketch.</desc>
    <defs></defs>
    <g id="technologies" stroke="none" stroke-width="1" fill="none" fill-rule="evenodd">
        <g id="Ecommerce" transform="translate(-224.000000, -241.000000)">
            <g id="shopware" transform="translate(224.000000, 241.000000)">
                <rect id="Rectangle" fill="#FFFFFF" x="0" y="0" width="160" height="70"></rect>
                <g id="_Gruppe_2" transform="translate(50.000000, 29.000000)" fill-rule="nonzero" fill="#189EFF">
                    <path d="M4.27529412,5.7484 C3.17411765,5.1884 2.26823529,4.6648 2.26823529,3.8108 C2.26823529,3.2116 2.83764706,2.6432 3.79764706,2.6432 C4.61770287,2.65778263 5.42562427,2.88119255 6.16705882,3.2984 C6.29006071,3.38249364 6.43675454,3.40252612 6.57256703,3.35377611 C6.70837952,3.30502611 6.8212967,3.19180605 6.88470588,3.0408 L7.26823529,2.128 C7.39995679,1.7800894 7.30032065,1.36984755 7.03294118,1.1592 C6.05047322,0.48918884 4.93195227,0.154007022 3.8,0.1904 C1.11764706,0.1904 0.0211764706,2.128 0.0211764706,3.78 C0.0211764706,5.9444 1.43294118,7.028 3.12941176,7.9408 C4.66117647,8.7668 5.49882353,9.3408 5.49882353,10.22 C5.49882353,10.962 4.97176471,11.5024 4.03764706,11.5024 C2.72,11.5024 1.93176471,10.962 1.28470588,10.5336 C1.17286941,10.4341363 1.03077603,10.3959318 0.893868219,10.4285159 C0.756960406,10.4611 0.638145216,10.5614007 0.567058824,10.7044 L0.0635294118,11.9308 C-0.0293521693,12.1830097 0.0529284525,12.4779603 0.254117647,12.614 C1.32599307,13.4874194 2.595033,13.9540356 3.89411765,13.9524 C6.36,13.9524 7.84470588,12.1576 7.84470588,10.1052 C7.84235294,7.658 6.31058824,6.776 4.27529412,5.7484 Z" id="_Pfad_"></path>
                </g>
                <g id="_Gruppe_3" transform="translate(18.000000, 19.000000)" fill-rule="nonzero" fill="#189EFF">
                    <path d="M22.1401802,29.4324324 C20.9369369,28.3621622 19.156036,27.5475676 17.2742342,26.6883784 C15.0342342,25.6656757 12.4814414,24.5032432 10.587027,22.7164865 C8.42774775,20.6889189 7.37585586,18.1351351 7.37585586,14.9005405 C7.33853717,12.0930836 8.43487182,9.43162663 10.3297297,7.72972973 C12.4965766,5.72 15.7809009,4.65567568 19.8245045,4.65567568 C20.8856932,4.65098916 21.9459218,4.73144541 22.9978378,4.89648649 C23.0842633,4.90957344 23.1678811,4.85496547 23.2042862,4.7616621 C23.2406912,4.66835872 23.2214403,4.55799893 23.1567568,4.48918919 C18.5555934,-0.38630839 11.7712382,-1.08159956 6.5250935,2.7847017 C1.27894884,6.65100296 -1.16079554,14.1442668 0.544126171,21.1542352 C2.24904789,28.1642036 7.68649225,32.9963046 13.8738739,33 C16.8483953,33.0156732 19.7473744,31.8966043 22.1376577,29.81 C22.188076,29.7660195 22.217982,29.6966283 22.2183784,29.6227027 C22.2189773,29.5483608 22.1900459,29.4779655 22.1401802,29.4324324 Z" id="_Pfad_2"></path>
                    <path d="M27.7048649,15.1443243 C27.7001749,15.0819378 27.6747946,15.0242495 27.6342342,14.9837838 C24.7383784,12.1505405 22.394955,11 19.547027,11 C18.0335135,11 16.8630631,11.3597297 16.0861261,12.0672973 C15.4261619,12.6480622 15.0432387,13.567259 15.0569369,14.5378378 C15.0569369,17.3472973 17.9704505,18.6286486 21.3455856,20.1121622 C23.0836036,20.8762162 24.8771171,21.667027 26.5318919,22.7462162 C26.5610342,22.7659901 26.5941218,22.7762522 26.6277477,22.7759459 C26.6509794,22.7753221 26.6739752,22.7703032 26.6958559,22.7610811 C26.7503616,22.7379701 26.7936376,22.6880514 26.8144144,22.6243243 C27.4461172,20.7201925 27.7687079,18.6931518 27.7654054,16.6486486 C27.7628829,16.172973 27.7477477,15.6645946 27.7048649,15.1443243 Z" id="_Pfad_3"></path>
                </g>
                <path d="M122.403509,43.8499899 C122.733764,43.8289025 122.993945,43.5180998 123,43.1374419 L123,36.2514014 C123,32.7290489 122.626566,30.0000191 118.686717,30.0000191 C117.247574,29.9973965 115.817722,30.2653653 114.453634,30.7933417 C114.301395,30.8349908 114.171431,30.9485044 114.095599,31.1060562 C114.019768,31.263608 114.005081,31.4506321 114.055138,31.6212821 L114.305764,32.7752059 C114.385965,33.1733096 114.62406,33.4502513 114.997494,33.3521678 C116.109575,32.946329 117.265013,32.719169 118.431078,32.6771224 C119.974937,32.6771224 120.453634,33.6896905 120.401003,35.925418 C119.595843,35.6562502 118.763126,35.5117007 117.924812,35.4955813 C114.756892,35.4955813 113,37.4572519 113,40.0622349 C113,43.0047407 114.621554,44 116.937343,44 C118.827068,44 120.77193,43.9740367 121.581454,43.9134557 L122.403509,43.8499899 Z M120.368421,41.3517448 C119.994987,42.0556383 118.66416,41.879665 117.521303,41.8537017 C116.243108,41.8219688 115.60401,41.3084727 115.60401,40.0506957 C115.606516,38.5823276 116.689223,37.7168847 118.12782,37.7168847 C118.894332,37.702388 119.655259,37.8693113 120.363409,38.2073023 L120.363409,41.3517448 L120.363409,41.3517448 L120.368421,41.3517448 Z" id="_Zusammengesetzter_Pfad_" fill="#189EFF" fill-rule="nonzero"></path>
                <path d="M141.505386,29.9999976 C142.333105,29.9970255 143.001975,29.3241406 142.999996,28.4964162 C142.998016,27.6686917 142.325935,26.9990139 141.498211,27.0000011 C140.670487,27.0009882 140.000005,27.6722671 140,28.499994 C140.000714,28.8985341 140.159717,29.2804675 140.442032,29.5617729 C140.724347,29.8430783 141.106847,30.0007124 141.505386,29.9999976 L141.505386,29.9999976 Z M141.505386,27.2208167 C142.023954,27.2153578 142.494504,27.5235344 142.696745,28.001072 C142.898987,28.4786096 142.792895,29.0310003 142.428137,29.3996396 C142.063379,29.7682789 141.512143,29.8802105 141.032493,29.6830331 C140.552843,29.4858557 140.239706,29.018592 140.239677,28.499994 C140.239638,27.7987491 140.804182,27.2281983 141.505386,27.2208167 L141.505386,27.2208167 Z" id="_Zusammengesetzter_Pfad_2" fill="#189EFF" fill-rule="nonzero"></path>
                <path d="M140.037379,28.9819984 L140.164389,28.9819984 C140.184623,28.9819984 140.201026,28.958482 140.201026,28.929473 L140.201026,28.2291346 L140.49901,28.2291346 L140.743259,28.9644899 C140.74984,28.9884587 140.766972,29.0029066 140.784781,28.9995069 L140.931331,28.9995069 C140.945244,29.0013093 140.95866,28.9916123 140.965924,28.974505 C140.973187,28.9573978 140.973033,28.9358576 140.965526,28.9189679 L140.696852,28.2186295 C140.882846,28.1339307 141.006685,27.8819332 140.999721,27.6023317 C140.999078,27.4410525 140.953603,27.2867986 140.873371,27.1737454 C140.793139,27.0606921 140.684774,26.9981735 140.572285,27.0000407 L140.037379,27.0000407 C140.017145,27.0000407 140.000742,27.0235571 140.000742,27.052566 L140.000742,28.9189679 C139.998513,28.9346058 140.001365,28.9508482 140.008492,28.9631097 C140.015619,28.9753713 140.026249,28.9823215 140.037379,28.9819984 L140.037379,28.9819984 Z M140.205911,27.2836777 L140.555187,27.2836777 C140.690082,27.2836777 140.799436,27.4404538 140.799436,27.6338469 C140.799436,27.82724 140.690082,27.9840161 140.555187,27.9840161 L140.205911,27.9840161 L140.205911,27.2836777 Z" id="_Zusammengesetzter_Pfad_3" fill="#189EFF" fill-rule="nonzero"></path>
                <path d="M66.6616774,29.4359406 C65.4873721,29.4658997 64.3532723,29.9747127 63.4328819,30.8845373 L63.4328819,24.6635699 C63.413366,24.3076564 63.1861369,24.0243337 62.900689,24 L61.5321929,24 C61.2429379,24.0136817 61.0109729,24.3029095 61,24.6635699 L61,43.3264722 C60.9999885,43.6939224 61.2375039,43.9927151 61.5321929,43.9959668 L62.8626752,43.9959668 C63.0117298,44.0169234 63.1606765,43.955519 63.2703342,43.8279065 C63.3799918,43.7002939 63.4393821,43.5192492 63.4328819,43.332397 L63.4328819,34.3208813 C64.0457469,33.0410317 65.1623229,32.269716 66.3575671,32.300548 C67.8092183,32.300548 68.5813732,33.6573114 68.5813732,35.9472199 L68.5813732,43.3353593 C68.5839535,43.7004979 68.8207196,43.9957119 69.1135662,43.9989292 L70.4678071,43.9989292 C70.7570621,43.9852475 70.9890271,43.6960197 71,43.3353593 L71,36.0094296 C70.9881207,32.211677 69.8287004,29.4359406 66.6616774,29.4359406 Z" id="_Pfad_4" fill="#189EFF" fill-rule="nonzero"></path>
                <path d="M95.9652724,36.7196802 C95.8223692,31.9791651 94.1151857,30 90.1827946,30 C88.6661258,30.0367396 87.160967,30.3148749 85.7094126,30.8266273 C85.3011176,31.031062 85,31.2740134 85,31.6058495 L85,49.3324134 C85.0027714,49.6976082 85.257075,49.9928677 85.571613,49.9960855 L86.7760832,49.9960855 C86.9370636,50.0166534 87.0978517,49.9555039 87.2171541,49.8283414 C87.3364566,49.7011789 87.4026494,49.5203931 87.3987331,49.3324134 L87.3987331,44.3133929 C88.6527895,44.5191258 89.9198312,44.5984304 91.1856692,44.5504187 C93.9620751,44.4496828 95.824921,42.1090534 95.9805835,38.1566489 C96.0064722,37.5644657 96.0064722,36.9711389 95.9805835,36.3789557 L95.9805835,36.7048661 L95.9652724,36.7196802 Z M93.4568101,38.1625745 C93.4032214,40.8439284 92.7320865,42.0290572 90.7875815,42.1534957 C89.8255365,42.215715 87.5543956,41.9046187 87.5543956,41.9046187 C87.4706209,41.8951631 87.4043253,41.8181904 87.3961812,41.7209237 L87.3961812,33.2057734 C87.3958746,33.1228882 87.4501395,33.0534548 87.5212216,33.045781 C88.3942071,32.8010818 89.2874659,32.6669716 90.1853464,32.6458 C92.5534574,32.6458 93.3879103,33.0487438 93.4644656,36.5300596 C93.4695693,36.989297 93.4695693,37.6322294 93.4568101,38.1625745 L93.4568101,38.1625745 Z" id="_Zusammengesetzter_Pfad_4" fill="#189EFF" fill-rule="nonzero"></path>
                <path d="M111.493492,30.2932746 L110.452669,30.2932746 C110.155291,30.2932746 109.721412,30.2932746 109.58491,30.7004457 L107.749455,38.4053768 L107.700704,38.4053768 L104.626986,30.3217481 C104.537926,30.1064205 104.343186,29.9790301 104.139482,30.0028448 L103.966417,30.0028448 C103.770669,29.9970122 103.588761,30.1203236 103.495975,30.3217481 L100.383257,38.3769033 L100.334506,38.3769033 L98.4503004,30.6890563 C98.381873,30.4430916 98.1841721,30.2779689 97.9627956,30.2818852 L96.4734684,30.2818852 C96.3100304,30.2530468 96.1476626,30.3411173 96.0610631,30.5055794 C95.9744636,30.6700414 95.9804042,30.8790434 96.0761519,31.0364331 L99.42531,43.6388074 C99.4956762,43.8666365 99.6893872,44.0096736 99.8957521,43.9861842 L100.044441,43.9861842 C100.232561,44.0069755 100.410373,43.8823505 100.483195,43.6786703 L104.005418,34.567148 L104.054168,34.567148 L107.552015,43.6786703 C107.650527,43.8832775 107.838702,44.006373 108.03952,43.9975736 L108.139459,43.9975736 C108.358358,44.0202959 108.566314,43.8818086 108.661089,43.6501968 L111.939559,31.0478225 C112.11506,30.6406513 111.890808,30.2932746 111.493492,30.2932746 Z" id="_Pfad_5" fill="#189EFF" fill-rule="nonzero"></path>
                <path d="M130.738183,30 C130.673912,30 130.614782,30 130.55051,30 C130.445105,30 130.34227,30 130.231723,30 C129.604432,30 129.002849,30.0230548 128.432117,30.054755 L128.432117,30.054755 C127.347212,30.1037464 126.704495,30.1959654 126.246881,30.2536023 C126.246881,30.2536023 125.953803,30.2853026 125.611878,30.3342939 C125.41786,30.351421 125.238133,30.4552702 125.11313,30.6224784 C125.039783,30.7085844 124.999213,30.8233109 125.000012,30.9423631 L125.000012,43.3544669 C125.002804,43.7096805 125.259003,43.9968702 125.575885,44 L126.77905,44 C127.275227,44 127.617153,43.9423631 127.617153,43.3544669 L127.617153,34.962536 L127.617153,34.962536 L127.617153,33.037464 C127.648711,32.9374813 127.714353,32.8556082 127.799684,32.8097983 C128.095334,32.610951 128.804892,32.4668588 130.231723,32.4668588 L130.563364,32.4668588 C130.909201,32.4970396 131.24942,32.582436 131.573714,32.7204611 C131.707157,32.8016835 131.865803,32.8126343 132.007128,32.7503782 C132.148453,32.6881221 132.258002,32.5590262 132.306411,32.3976945 L132.933702,31.2449568 C133.327045,30.351585 131.889931,30 130.738183,30 Z" id="_Pfad_6" fill="#189EFF" fill-rule="nonzero"></path>
                <path d="M137.742539,30 C134.278396,30 132,33.2222222 132,36.985755 C132,40.8119658 134.268597,44 137.757238,44 C139.675501,44 141.187082,43.1880342 142.020045,42.3475783 C142.367929,42 142.265033,41.7378917 142.069042,41.4501425 L141.395323,40.2336182 C141.196882,39.8860399 140.971492,39.97151 140.721604,40.1766382 C139.922056,40.9197452 138.927746,41.3219344 137.904232,41.3162393 C135.885523,41.3162393 134.489087,39.4615385 134.474388,37.6638177 L142.426726,37.6638177 C142.700168,37.6551701 142.925111,37.410695 142.951002,37.0940171 C142.975501,36.8632479 143,36.3988604 143,36.1652422 C143,32.5811966 140.733853,30 137.742539,30 Z M134.601782,35.5014245 C134.775724,33.8205128 135.873274,32.4586895 137.693541,32.4586895 C139.388864,32.4586895 140.486414,33.8831909 140.535412,35.5014245 L134.601782,35.5014245 Z" id="_Zusammengesetzter_Pfad_5" fill="#189EFF" fill-rule="nonzero"></path>
                <path d="M82.6138564,34.1425783 C82.3770916,33.3270176 82.0051281,32.5730837 81.5189215,31.9232514 C81.054499,31.311902 80.4805453,30.8257337 79.8372388,30.4987796 C78.335205,29.8337401 76.6747513,29.8337401 75.1727175,30.4987796 C74.5297666,30.8264511 73.9559378,31.3125136 73.4910348,31.9232514 C73.0030741,32.572602 72.6294268,33.3265679 72.3911898,34.1425783 C72.1240642,35.0600305 71.9921003,36.0231683 72.000843,36.9915218 C71.9880898,37.9713847 72.1201158,38.9465386 72.3911898,39.8746526 C72.6296854,40.6850212 73.0015499,41.4339167 73.4861248,42.0797348 C73.9505473,42.6910842 74.524501,43.1772525 75.1678075,43.5042065 C76.6704717,44.1652645 78.3296646,44.1652645 79.8323288,43.5042065 C80.4752797,43.1765351 81.0491085,42.6904725 81.5140114,42.0797348 C81.9985863,41.4339167 82.3704509,40.6850212 82.6089464,39.8746526 C82.8789138,38.9501531 83.0109249,37.9789634 82.9992932,37.0029176 C83.0107244,36.0310704 82.8804071,35.0639811 82.6138564,34.1425783 Z M77.4337828,41.6951274 C75.3494783,41.6951274 74.2987335,39.6467371 74.2987335,37.1197242 C74.2987335,34.5927114 75.3372033,32.544321 77.4337828,32.544321 C79.5303624,32.544321 80.5688321,34.5927114 80.5688321,37.1197242 C80.5688321,39.6467371 79.5107223,41.6951274 77.4337828,41.6951274 Z" id="_Zusammengesetzter_Pfad_6" fill="#189EFF" fill-rule="nonzero"></path>
            </g>
        </g>
    </g>
</svg>