<?xml version="1.0" encoding="UTF-8"?>
<svg width="160px" height="70px" viewBox="0 0 160 70" version="1.1" xmlns="http://www.w3.org/2000/svg" xmlns:xlink="http://www.w3.org/1999/xlink">
    <!-- Generator: Hyder A. - https://toggle.me -->
    <title>shopify</title>
    <desc>Created with Sketch.</desc>
    <defs></defs>
    <g id="technologies" stroke="none" stroke-width="1" fill="none" fill-rule="evenodd">
        <g id="Ecommerce" transform="translate(-32.000000, -241.000000)">
            <g id="shopify" transform="translate(32.000000, 241.000000)">
                <rect id="Rectangle" fill="#FFFFFF" x="0" y="0" width="160" height="70"></rect>
                <path d="M47.5258216,25.2416028 C47.5070423,25.0718916 47.3568075,24.9964643 47.2441315,24.9776075 C47.1314554,24.9587507 44.6713615,24.7890395 44.6713615,24.7890395 C44.6713615,24.7890395 42.9624413,23.0919269 42.7934272,22.9033589 C42.6056338,22.7147908 42.2488263,22.7713612 42.0985915,22.8090748 C42.0798122,22.8090748 41.7230047,22.9222157 41.1408451,23.1107837 C40.5962441,21.4702416 39.5821596,19.9616971 37.8169014,19.9616971 L37.6666667,19.9616971 C37.1596244,19.3017089 36.5399061,19 36.0140845,19 C31.9014085,19.0188568 29.9483568,24.1667649 29.3286385,26.7878609 C27.7323944,27.2781379 26.6056338,27.6364172 26.4553991,27.6741308 C25.57277,27.9569829 25.5352113,27.9758397 25.4225352,28.824396 C25.3286385,29.4843842 23,47.5869181 23,47.5869181 L41.1596244,51 L51,48.8691809 C51,48.8503241 47.5446009,25.4113141 47.5258216,25.2416028 Z M40.1455399,23.4313494 C39.6948357,23.5822039 39.1690141,23.7330583 38.6056338,23.9027696 L38.6056338,23.5633471 C38.6056338,22.5450796 38.4553991,21.7153801 38.2300469,21.0742487 C39.1502347,21.2062463 39.7699531,22.2433707 40.1455399,23.4313494 Z M37.1220657,21.2816735 C37.3661972,21.9228049 37.5352113,22.8279316 37.5352113,24.053624 L37.5352113,24.2233353 C36.5399061,24.5250442 35.4507042,24.8644667 34.3615023,25.2038892 C34.9812207,22.8656453 36.1267606,21.7153801 37.1220657,21.2816735 Z M35.9014085,20.1314084 C36.0704225,20.1314084 36.258216,20.1879788 36.42723,20.3011196 C35.1126761,20.9233942 33.7042254,22.4885091 33.1032864,25.618739 C32.2394366,25.8827342 31.3755869,26.1467295 30.5868545,26.391868 C31.3004695,24.0159104 32.9530516,20.1314084 35.9014085,20.1314084 Z" id="Shape" fill="#95BF47" fill-rule="nonzero"></path>
                <path d="M48.1832061,25.171123 C48.0687023,25.1524064 45.5687023,24.9839572 45.5687023,24.9839572 C45.5687023,24.9839572 43.8320611,23.2994652 43.6603053,23.1122995 C43.5839695,23.0374332 43.4885496,23 43.3931298,23 L42,51 L52,48.8850267 C52,48.8850267 48.4885496,25.6016043 48.4694656,25.4518717 C48.4503817,25.2834225 48.2977099,25.1898396 48.1832061,25.171123 Z" id="Shape" fill="#5E8E3E" fill-rule="nonzero"></path>
                <path d="M37,30.5133566 L35.8413547,34.3042973 C35.8413547,34.3042973 34.8253119,33.7119628 33.5953654,33.7119628 C31.7771836,33.7119628 31.688057,34.9756098 31.688057,35.2915215 C31.688057,37.029036 35.7700535,37.6806039 35.7700535,41.7479675 C35.7700535,44.9465738 33.9340463,47 31.4741533,47 C28.5151515,47 27,44.9663182 27,44.9663182 L27.7843137,42.0638792 C27.7843137,42.0638792 29.3351159,43.5447154 30.6541889,43.5447154 C31.5098039,43.5447154 31.8663102,42.7944251 31.8663102,42.2415796 C31.8663102,39.970964 28.5151515,39.8722416 28.5151515,36.1602787 C28.5151515,33.0406504 30.5472371,30 34.6292335,30 C36.2335116,30.0197445 37,30.5133566 37,30.5133566 L37,30.5133566 Z" id="Shape" fill="#FFFFFF" fill-rule="nonzero"></path>
                <path d="M62.1328125,37.6795422 C61.1410846,37.1587983 60.6261489,36.7124464 60.6261489,36.0987124 C60.6261489,35.3175966 61.3318015,34.8154506 62.4570312,34.8154506 C63.7539062,34.8154506 64.8982077,35.3361946 64.8982077,35.3361946 L65.8136489,32.620887 C65.8136489,32.620887 64.9744945,31.9885551 62.5142463,31.9885551 C59.0813419,31.9885551 56.6973805,33.9041488 56.6973805,36.6008584 C56.6973805,38.1258941 57.8035386,39.297568 59.2911305,40.1344778 C60.4926471,40.8040057 60.9122243,41.2689557 60.9122243,41.9756795 C60.9122243,42.7010014 60.3210018,43.2775393 59.1957721,43.2775393 C57.5365349,43.2775393 55.9726562,42.4406295 55.9726562,42.4406295 L55,45.1559371 C55,45.1559371 56.4494485,46.1044349 58.8715533,46.1044349 C62.3998162,46.1044349 64.9363511,44.4120172 64.9363511,41.3619456 C64.9554228,39.7067239 63.6776195,38.5536481 62.1328125,37.6795422 L62.1328125,37.6795422 Z M76.2077206,31.9699571 C74.4721967,31.9699571 73.0990349,32.769671 72.0500919,33.9971388 L71.9928768,33.9785408 L73.4995404,26.27897 L69.5707721,26.27897 L65.7564338,45.8626609 L69.6852022,45.8626609 L71.0011489,39.167382 C71.5160846,36.6380544 72.8511029,35.0758226 74.1098346,35.0758226 C74.9871324,35.0758226 75.3304228,35.6523605 75.3304228,36.4892704 C75.3304228,37.0100143 75.2732077,37.6609442 75.1587776,38.1816881 L73.6711857,45.8440629 L77.599954,45.8440629 L79.144761,37.9213162 C79.3164062,37.0844063 79.4308364,36.0801144 79.4308364,35.4291845 C79.4117647,33.2718169 78.2483915,31.9699571 76.2077206,31.9699571 Z M88.2991728,31.9699571 C83.5693934,31.9699571 80.441636,36.1359084 80.441636,40.7668097 C80.441636,43.7424893 82.3297335,46.1230329 85.8579963,46.1230329 C90.4924173,46.1230329 93.6392463,42.0686695 93.6392463,37.3261803 C93.6392463,34.5736767 91.9800092,31.9699571 88.2991728,31.9699571 Z M86.372932,43.1845494 C85.0379136,43.1845494 84.4657629,42.0686695 84.4657629,40.6924177 C84.4657629,38.4978541 85.629136,34.9084406 87.7651654,34.9084406 C89.1573989,34.9084406 89.6151195,36.0801144 89.6151195,37.2145923 C89.6151195,39.5765379 88.4517463,43.1845494 86.372932,43.1845494 L86.372932,43.1845494 Z M103.690028,31.9699571 C101.039062,31.9699571 99.5323989,34.2389127 99.5323989,34.2389127 L99.4751838,34.2389127 L99.7040441,32.193133 L96.2329963,32.193133 C96.0613511,33.5879828 95.756204,35.6895565 95.4319853,37.2703863 L92.7047335,51.2932761 L96.6144301,51.2932761 L97.7015165,45.620887 L97.7778033,45.620887 C97.7778033,45.620887 98.5788143,46.1230329 100.085478,46.1230329 C104.700827,46.1230329 107.714154,41.5107296 107.714154,36.8426323 C107.733226,34.2761087 106.550781,31.9699571 103.690028,31.9699571 Z M99.9329044,43.2403433 C98.9030331,43.2403433 98.3118107,42.6824034 98.3118107,42.6824034 L98.9602482,39.09299 C99.4179687,36.7124464 100.695772,35.1130186 102.068934,35.1130186 C103.27045,35.1130186 103.632812,36.1917024 103.632812,37.2145923 C103.632812,39.7067239 102.126149,43.2403433 99.9329044,43.2403433 Z M113.340303,26.4649499 C112.081572,26.4649499 111.089844,27.4320458 111.089844,28.6781116 C111.089844,29.8125894 111.83364,30.5937053 112.939798,30.5937053 L112.997013,30.5937053 C114.217601,30.5937053 115.266544,29.7939914 115.304687,28.3805436 C115.304687,27.2646638 114.54182,26.4649499 113.340303,26.4649499 Z M107.847656,45.8440629 L111.776425,45.8440629 L114.446461,32.267525 L110.498621,32.267525 L107.847656,45.8440629 Z M124.440028,32.248927 L121.712776,32.248927 L121.846278,31.6165951 C122.075138,30.3147353 122.876149,29.1430615 124.173024,29.1430615 C124.878676,29.1430615 125.431756,29.3290415 125.431756,29.3290415 L126.194623,26.3347639 C126.194623,26.3347639 125.508042,26 124.058594,26 C122.66636,26 121.274127,26.3905579 120.206112,27.2832618 C118.871094,28.3991416 118.241728,29.9985694 117.936581,31.6165951 L117.822151,32.248927 L115.991268,32.248927 L115.419118,35.1316166 L117.25,35.1316166 L115.171186,45.8440629 L119.119026,45.8440629 L121.19784,35.1316166 L123.90602,35.1316166 L124.440028,32.248927 Z M133.899586,32.267525 C133.899586,32.267525 131.439338,38.3118741 130.33318,41.6037196 L130.275965,41.6037196 C130.199678,40.5436338 129.303309,32.267525 129.303309,32.267525 L125.164752,32.267525 L127.529642,44.7281831 C127.586857,45.0071531 127.548713,45.1745351 127.453355,45.360515 C126.995634,46.2160229 126.232767,47.0529328 125.317325,47.6666667 C124.573529,48.1874106 123.753447,48.5221745 123.105009,48.7453505 L124.192096,52 C124.993107,51.832618 126.633272,51.2002861 128.044577,49.9170243 C129.837316,48.2804006 131.496553,45.751073 133.193934,42.3104435 L138,32.267525 L133.899586,32.267525 L133.899586,32.267525 Z" id="Shape" fill="#000000" fill-rule="nonzero"></path>
            </g>
        </g>
    </g>
</svg>