<?xml version="1.0" encoding="UTF-8"?>
<svg width="160px" height="70px" viewBox="0 0 160 70" version="1.1" xmlns="http://www.w3.org/2000/svg" xmlns:xlink="http://www.w3.org/1999/xlink">
    <!-- Generator: Hyder A. - https://toggle.me -->
    <title>squarespace</title>
    <desc>Created with Sketch.</desc>
    <defs></defs>
    <g id="technologies" stroke="none" stroke-width="1" fill="none" fill-rule="evenodd">
        <g id="Artboard" transform="translate(-32.000000, -154.000000)">
            <g id="squarespace" transform="translate(27.000000, 154.000000)">
                <rect id="container" fill="#FFFFFF" x="5" y="0" width="160" height="70"></rect>
                <g id="Squarespace_logo" transform="translate(0.000000, 4.000000)">
                    <polygon id="Shape" points="0 0 170 0 170 62 0 62"></polygon>
                    <path d="M66.2109879,30.6869565 C66.2109879,28.1256917 64.4039384,25.9343874 61.6794638,25.9343874 C58.9549892,25.9343874 57.0923382,28.1541502 57.0923382,30.6869565 C57.0923382,33.1913043 58.8993877,35.3826087 61.6238623,35.3826087 C62.7636935,35.3826087 63.6533179,35.0411067 64.45954,34.3865613 L65.6549727,35.4964427 L66.322191,34.7280632 L65.1267582,33.7320158 C65.8217773,32.8782609 66.2109879,31.7968379 66.2109879,30.6869565 Z M64.4039384,33.0490119 L62.7636935,31.5407115 L62.0964753,32.3090909 L63.7367202,33.7604743 C63.1807049,34.1588933 62.4856859,34.4434783 61.7072646,34.4434783 C59.677809,34.4434783 58.2043687,32.7644269 58.2043687,30.658498 C58.2043687,28.5810277 59.677809,26.8735178 61.7072646,26.8735178 C63.7367202,26.8735178 65.2101605,28.5525692 65.2101605,30.658498 C65.2101605,31.5976285 64.9321529,32.4229249 64.4039384,33.0490119 L64.4039384,33.0490119 Z M74.6624193,31.3699605 C74.6624193,33.3335968 73.6337912,34.3865613 71.9379447,34.3865613 C70.2420983,34.3865613 69.2134701,33.2766798 69.2134701,31.3130435 L69.2134701,26.0197628 L68.184842,26.0197628 L68.184842,31.3699605 C68.184842,33.9881423 69.7138838,35.3256917 71.9379447,35.3256917 C74.1620056,35.3256917 75.6910475,33.9312253 75.6910475,31.2561265 L75.6910475,26.0197628 L74.6624193,26.0197628 L74.6624193,31.3699605 Z M135.129075,34.4434783 C133.155221,34.4434783 131.681781,32.7644269 131.681781,30.658498 C131.681781,28.5810277 133.155221,26.8735178 135.129075,26.8735178 C136.324508,26.8735178 137.158531,27.3857708 137.964753,28.1541502 L138.631971,27.3857708 C137.714546,26.5035573 136.76932,25.9343874 135.129075,25.9343874 C132.515803,25.9343874 130.597551,28.0687747 130.597551,30.6869565 C130.597551,33.3051383 132.515803,35.3826087 135.073473,35.3826087 C136.713718,35.3826087 137.742347,34.7565217 138.659772,33.7604743 L137.992553,33.1343874 C137.186331,33.9312253 136.380109,34.4434783 135.129075,34.4434783 Z M141.495449,34.2727273 L141.495449,31.0853755 L146.360582,31.0853755 L146.360582,30.1462451 L141.495449,30.1462451 L141.495449,27.0158103 L146.944398,27.0158103 L146.944398,26.0766798 L140.466821,26.0766798 L140.466821,35.2687747 L147,35.2687747 L147,34.2727273 L141.495449,34.2727273 L141.495449,34.2727273 Z M117.141982,26.1051383 L113.805891,26.1051383 L113.805891,35.2687747 L114.834519,35.2687747 L114.834519,32.0245059 L117.002979,32.0245059 C118.921231,32.0245059 120.505875,30.9715415 120.505875,29.0079051 C120.505875,27.1865613 119.199239,26.1051383 117.141982,26.1051383 Z M119.477246,29.0648221 C119.477246,30.2885375 118.50422,31.0853755 117.030779,31.0853755 L114.806719,31.0853755 L114.806719,27.0727273 L117.086381,27.0727273 C118.50422,27.0158103 119.477246,27.7272727 119.477246,29.0648221 Z M52.5608142,30.1462451 C50.5869601,29.7478261 50.1143472,29.2071146 50.1143472,28.3533597 C50.1143472,27.5280632 50.8649677,26.9019763 52.0325997,26.9019763 C52.9500248,26.9019763 53.7840477,27.1865613 54.6458713,27.8980237 L55.2018865,27.0727273 C54.2844614,26.3043478 53.394837,25.9628458 52.0882012,25.9628458 C50.3923548,25.9628458 49.1413205,27.0158103 49.1413205,28.4671937 C49.1413205,29.9754941 50.1143472,30.6869565 52.1438027,31.1422925 C54.0064537,31.5407115 54.4790667,32.0245059 54.4790667,32.8782609 C54.4790667,33.8173913 53.6728446,34.4434783 52.5052126,34.4434783 C51.2541784,34.4434783 50.3367533,34.0450593 49.4471289,33.1628458 L48.8355122,33.9312253 C49.9197419,34.9272727 51.0595731,35.3826087 52.4774119,35.3826087 C54.2288598,35.3826087 55.5354956,34.3296443 55.5354956,32.7644269 C55.4520933,31.3130435 54.5346682,30.6300395 52.5608142,30.1462451 L52.5608142,30.1462451 Z M98.098461,31.0853755 L102.963594,31.0853755 L102.963594,30.1462451 L98.098461,30.1462451 L98.098461,27.0158103 L103.54741,27.0158103 L103.54741,26.0766798 L97.0698329,26.0766798 L97.0698329,35.2687747 L103.603012,35.2687747 L103.603012,34.2727273 L98.098461,34.2727273 L98.098461,31.0853755 Z M108.885156,30.1462451 C106.911302,29.7478261 106.438689,29.2071146 106.438689,28.3533597 C106.438689,27.5280632 107.18931,26.9019763 108.356942,26.9019763 C109.274367,26.9019763 110.10839,27.1865613 110.970213,27.8980237 L111.526229,27.0727273 C110.608804,26.3043478 109.719179,25.9628458 108.412543,25.9628458 C106.716697,25.9628458 105.465663,27.0158103 105.465663,28.4671937 C105.465663,29.9754941 106.438689,30.6869565 108.468145,31.1422925 C110.330796,31.5407115 110.803409,32.0245059 110.803409,32.8782609 C110.803409,33.8173913 109.997187,34.4434783 108.829555,34.4434783 C107.578521,34.4434783 106.661095,34.0450593 105.771471,33.1628458 L105.159854,33.9312253 C106.244084,34.9272727 107.383915,35.3826087 108.801754,35.3826087 C110.553202,35.3826087 111.859838,34.3296443 111.859838,32.7644269 C111.776436,31.3130435 110.85901,30.6300395 108.885156,30.1462451 L108.885156,30.1462451 Z M81.0843952,26.0482213 L76.9976833,35.2687747 L78.0263114,35.2687747 L79.1105411,32.8213439 L83.9756743,32.8213439 L85.0043025,35.2687747 L86.0885322,35.2687747 L82.0018203,26.0482213 L81.0843952,26.0482213 L81.0843952,26.0482213 Z M79.4997518,31.9106719 L81.5292073,27.2719368 L83.5586629,31.9106719 L79.4997518,31.9106719 Z M124.759391,26.0482213 L120.672679,35.2687747 L121.701307,35.2687747 L122.785537,32.8213439 L127.65067,32.8213439 L128.679298,35.2687747 L129.763528,35.2687747 L125.676816,26.0482213 L124.759391,26.0482213 Z M123.174748,31.9106719 L125.204203,27.2719368 L127.233659,31.9106719 L123.174748,31.9106719 L123.174748,31.9106719 Z M94.9291743,28.8371542 C94.9291743,28.0687747 94.6511666,27.4426877 94.261956,26.9873518 C93.7059408,26.4181818 92.8441172,26.0482213 91.704286,26.0482213 L87.8399801,26.0482213 L87.8399801,35.2118577 L88.8686083,35.2118577 L88.8686083,31.683004 L91.4262783,31.683004 L94.0395499,35.2118577 L95.2905841,35.2118577 L92.5661095,31.4837945 C93.9005461,31.1992095 94.9291743,30.3454545 94.9291743,28.8371542 L94.9291743,28.8371542 Z M88.8408075,30.7438735 L88.8408075,27.0158103 L91.6208837,27.0158103 C93.0387225,27.0158103 93.9005461,27.6988142 93.9005461,28.8086957 C93.9005461,29.9754941 92.9275194,30.658498 91.5652821,30.658498 L88.8408075,30.658498 L88.8408075,30.7438735 Z M24.4820453,31.7968379 C24.871256,32.1952569 25.566275,32.1952569 26.0110872,31.7968379 L32.7666722,24.8814229 C33.6284958,23.9992095 34.9351316,23.9992095 35.7691544,24.8814229 C36.1583651,25.2798419 36.8533841,25.2798419 37.2981963,24.8814229 C37.6874069,24.483004 37.6874069,23.7715415 37.2981963,23.3162055 C35.6579513,21.6371542 32.9334767,21.6371542 31.2932318,23.3162055 L24.4820453,30.2031621 C24.0372332,30.6869565 24.0372332,31.3130435 24.4820453,31.7968379 Z M34.9629323,27.1296443 C35.352143,26.7312253 35.352143,26.0197628 34.9629323,25.5644269 C34.5737217,25.1660079 33.8787026,25.1660079 33.4338905,25.5644269 L26.7061062,32.5367589 C25.8442826,33.4189723 24.5376469,33.4189723 23.703624,32.5367589 C22.8418004,31.6545455 22.8418004,30.316996 23.703624,29.4632411 L30.348006,22.6616601 C29.4861824,21.7794466 28.1795466,21.7794466 27.3455237,22.6616601 L22.2301837,27.8980237 C20.5899388,29.5770751 20.5899388,32.3660079 22.2301837,34.0450593 C23.8704286,35.7241107 26.5949032,35.7241107 28.2351481,34.0450593 L34.9629323,27.1296443 L34.9629323,27.1296443 Z M35.7691544,27.8980237 L28.9579679,34.8703557 C28.5687572,35.2687747 28.5687572,35.9802372 28.9579679,36.4355731 C29.3471786,36.8339921 30.0421976,36.8339921 30.4870098,36.4355731 L37.2425947,29.5201581 C38.1044183,28.6379447 39.4110541,28.6379447 40.2450769,29.5201581 C41.0790998,30.4023715 41.1069005,31.7399209 40.2450769,32.5936759 L33.600695,39.3383399 C34.4625186,40.2205534 35.7691544,40.2205534 36.6031772,39.3383399 L41.7741188,34.0450593 C43.4143637,32.3660079 43.4143637,29.5770751 41.7741188,27.8980237 C40.0782724,26.2189723 37.4093993,26.2189723 35.7691544,27.8980237 L35.7691544,27.8980237 Z M39.5222572,30.2031621 C39.1330465,29.8047431 38.4380275,29.8047431 37.9932153,30.2031621 L31.2376303,37.1754941 C30.3758067,38.0577075 29.0691709,38.0577075 28.2351481,37.1754941 C27.8459374,36.7770751 27.1509184,36.7770751 26.7061062,37.1754941 C26.3168956,37.573913 26.3168956,38.2853755 26.7061062,38.7407115 C28.3463512,40.4197628 31.0708257,40.4197628 32.7110707,38.7407115 L39.4666556,31.8252964 C39.9114678,31.3130435 39.9114678,30.6869565 39.5222572,30.2031621 Z" id="Shape" fill="#000000" fill-rule="nonzero"></path>
                </g>
            </g>
        </g>
    </g>
</svg>