<?xml version="1.0" encoding="UTF-8"?>
<svg width="160px" height="70px" viewBox="0 0 160 70" version="1.1" xmlns="http://www.w3.org/2000/svg" xmlns:xlink="http://www.w3.org/1999/xlink">
    <!-- Generator: Hyder A. - https://toggle.me -->
    <title>symfony</title>
    <desc>Created with Sketch.</desc>
    <defs></defs>
    <g id="technologies" stroke="none" stroke-width="1" fill="none" fill-rule="evenodd">
        <g id="Web-frameworks" transform="translate(-416.000000, -42.000000)">
            <g id="symfony" transform="translate(416.000000, 42.000000)">
                <rect id="Rectangle-Copy-3" fill="#FFFFFF" x="0" y="0" width="160" height="70"></rect>
                <path d="M33,33.6458049 C33.1717355,32.8799464 33.2906293,32.087679 33.5152065,31.3350249 C35.4175075,24.8516366 39.6316325,20.6922326 46.263265,19.345378 C54.9160922,17.5759808 63.119765,22.7653324 65.4315891,31.2425937 C67.8887278,40.2612378 62.1289833,49.7024245 52.9873704,51.6038663 C52.287218,51.7491153 51.5606447,51.8019331 50.8472818,51.9075688 C50.7812297,51.9207733 50.7151776,51.9735911 50.6491255,52 C49.8036584,52 48.9714017,52 48.1259346,52 C47.5975177,51.9075688 47.0558903,51.8283421 46.5274734,51.7095019 C39.7901576,50.2834206 35.4439283,46.2296523 33.5019961,39.6010149 C33.2774189,38.8483609 33.1585251,38.0560935 33,37.2770305 C33,36.075425 33,34.8606149 33,33.6458049 Z M52.6042681,34.055143 C52.8420557,34.055143 53.0402121,34.055143 53.2383684,34.055143 C54.3216231,34.0947564 55.3916674,34.0023252 56.3692387,33.4609425 C56.9372869,33.1440355 57.439283,32.7346973 57.6638602,32.1140879 C57.8488061,31.5991141 57.8223853,31.0841402 57.4260726,30.6615976 C57.1354433,30.3446906 56.7787619,30.2786684 56.3692387,30.4107129 C55.7087176,30.6351887 55.378457,31.3878427 55.8011905,31.9424299 C56.0125573,32.2065191 56.1842928,32.549835 55.7747697,32.8139241 C54.8500401,33.4213291 53.8328375,33.4345336 52.6438994,33.2628756 C53.0666329,31.5859096 53.4233144,29.9749659 53.8988896,28.390431 C54.0706251,27.7962305 54.4273065,27.2284388 54.7971984,26.7266694 C55.2331423,26.1192644 55.8804531,25.789153 56.6598681,25.789153 C57.4789143,25.789153 57.624229,26.0400377 57.2411267,26.7662828 C56.8844452,27.4397101 57.0297599,28.099933 57.6110185,28.4300444 C58.2583293,28.7997692 59.0905859,28.5884979 59.4604778,27.9678884 C60.028526,27.0171675 59.6057924,25.8947887 58.469696,25.4194282 C57.3468101,24.9440678 56.1975032,25.0232945 55.0746173,25.4590416 C53.5025769,26.0664466 52.3796909,27.2284388 51.5474343,28.6281112 C50.9001235,29.7108767 50.384917,30.8728689 49.790448,32.0348611 C49.6187125,31.8764076 49.3941353,31.6783408 49.1827685,31.4670695 C48.4297744,30.7540288 47.6635698,30.093806 46.6727881,29.7636945 C44.9686435,29.2091073 43.3966031,29.459992 42.115192,30.7540288 C40.8073601,32.087679 40.8998331,34.081552 42.2737171,35.6660868 C42.643609,36.0886294 43.0267113,36.4715587 43.4098135,36.8808968 C43.7532845,37.2638261 43.9382305,37.6995732 43.8061262,38.214547 C43.6211803,38.9275876 43.1191842,39.3237214 42.4322422,39.4557659 C41.7188793,39.5878105 41.0451478,39.4161526 40.5563621,38.8615654 C40.4506787,38.7427252 40.5035204,38.4258183 40.5563621,38.2277514 C40.6356246,37.9108445 40.833781,37.6203464 40.8998331,37.290235 C41.0451478,36.511172 40.5167308,35.8641536 39.7241054,35.7717224 C39.0503739,35.7057002 38.5219569,36.2074695 38.4426944,36.973328 C38.3766423,37.7391865 38.6408507,38.3994094 39.1824781,38.9407921 C40.2393119,39.9839442 41.5735647,40.3668735 43.0135008,40.2744423 C44.4930682,40.1820111 45.7084272,39.5349927 46.3689483,38.1485247 C47.0030487,36.8148745 46.5671047,35.6264734 45.6952168,34.5569124 C45.2460624,34.0155297 44.7572767,33.5005558 44.3081223,32.9591731 C43.5419178,32.0480656 43.9778617,30.7540288 45.1535894,30.4899397 C46.0915294,30.2786684 46.9105757,30.6615976 47.6503594,31.1897759 C48.2448284,31.6123185 48.7732454,32.1537012 49.3412936,32.6158572 C49.5526603,32.7875152 49.605502,32.9459687 49.5262395,33.2100578 C49.3148727,33.9627118 49.1167164,34.7285703 48.9581913,35.5076333 C48.4826161,37.7391865 48.0598825,39.9707397 47.544676,42.1890885 C47.2144154,43.5887609 46.7256298,44.94882 45.6027438,45.9259498 C45.1932207,46.2824702 44.6251725,46.480537 44.109966,46.6786039 C43.9646513,46.7314217 43.7136533,46.5333548 43.5154969,46.4541281 C43.6211803,46.2824702 43.6872324,46.0711988 43.8457575,45.9523587 C44.5591204,45.3977715 44.5062787,44.3282105 43.7136533,43.8528501 C42.6832402,43.2322406 41.269725,44.024508 41.2036728,45.2525225 C41.1508311,46.3484924 42.0095087,47.2331911 43.2512884,47.3784401 C44.7836975,47.5633025 46.1047399,47.0483287 47.2804675,46.1504256 C49.0374538,44.803571 50.1735502,43.0077648 50.9793861,40.9742785 C51.8380636,38.7427252 52.1683241,36.4055364 52.6042681,34.055143 Z" id="Shape" fill="#040405" fill-rule="nonzero"></path>
                <path d="M87,32.2720696 C88.0186618,32.1020813 88.1476063,32.1805375 88.4441787,33.0827831 C89.6046795,31.6182684 92.0417311,31.6051924 92.892765,33.2527715 C93.4343321,32.8866428 93.9243213,32.3636018 94.5303606,32.1936135 C96.193745,31.6967246 97.8958128,32.3374498 97.9731795,34.7172862 C98.0247573,36.1948769 97.986074,37.6855437 97.986074,39.1631344 C97.986074,39.7777076 97.8055516,39.973848 97.1995124,39.986924 C96.9932011,39.986924 96.7739954,39.986924 96.5161063,39.986924 C96.5161063,38.8231578 96.5290008,37.6986197 96.5161063,36.5740816 C96.5032119,35.8418243 96.5290008,35.1095669 96.4129507,34.3903856 C96.2195339,33.2396954 95.1363999,32.8604907 94.2079992,33.55352 C93.5503821,34.0504089 93.3053875,34.7695903 93.2795986,35.5541517 C93.2409153,36.6002337 93.2280208,37.6463156 93.2667042,38.7054736 C93.3053875,39.8953918 93.0217096,40.1176842 91.7967365,39.9476959 C91.7967365,38.5224093 91.809631,37.0971226 91.7967365,35.6587599 C91.7967365,35.2795552 91.7709476,34.8872745 91.6935809,34.5211458 C91.6033197,33.9850288 91.3970085,33.4750639 90.8167581,33.3050756 C90.2236133,33.1350872 89.6820462,33.2789235 89.2436348,33.7365844 C88.5860177,34.4165376 88.4828621,35.2926312 88.4570732,36.1818009 C88.4312843,37.1363507 88.4570732,38.0778244 88.4441787,39.0323742 C88.4441787,39.8692398 88.3023398,40 87.4642003,40 C87.3223613,40 87.1805223,39.986924 87.0128945,39.973848 C87,37.3978712 87,34.8480464 87,32.2720696 Z" id="Shape" fill="#0E0D10" fill-rule="nonzero"></path>
                <path d="M108.03316,32.0057831 C110.241326,31.9028122 112.013149,33.6404448 111.999926,36.0087737 C111.986704,38.2998745 110.122323,40.0503784 107.967047,39.998893 C105.679545,39.9345363 104.013502,38.2998745 104.00028,35.9959024 C103.973835,33.5246027 105.824993,31.8899409 108.03316,32.0057831 Z M110.479332,35.9959024 C110.347107,35.4939196 110.267772,34.9790655 110.056211,34.5156968 C109.699202,33.7434157 109.090964,33.2285616 108.165385,33.1770761 C107.173693,33.1127194 106.472898,33.5632167 105.983663,34.3869833 C105.586987,35.0562936 105.534096,35.7770894 105.613432,36.5236278 C105.81177,38.1969037 107.292696,39.1879978 108.786845,38.6731437 C109.765314,38.3384885 110.386775,37.3087803 110.479332,35.9959024 Z" id="Shape" fill="#0D0C0F" fill-rule="nonzero"></path>
                <path d="M76.9609661,29.0405084 C77.0349867,30.0828023 76.8499351,30.2226222 76.0233713,30.1844895 C75.4682165,30.1590677 74.8760513,30.1463568 74.3579068,30.3115985 C73.2969443,30.6675037 73.0748824,31.9640156 73.9261198,32.7012479 C74.3825804,33.0952858 74.9747455,33.3367929 75.49289,33.6672763 C76.0727184,34.0358925 76.7142306,34.353665 77.1953648,34.8366792 C78.601757,36.2348783 78.0836125,38.8279021 76.2701067,39.603267 C74.9130616,40.1752576 73.5560165,40.0989922 72.1619611,39.5651343 C72.1866347,39.3744708 72.1742979,39.1838073 72.2359818,39.0058547 C72.3470127,38.6245277 72.5690747,38.459286 72.988525,38.586395 C73.6793843,38.8024803 74.3949171,38.9550111 75.11045,38.7262149 C75.8259829,38.5101296 76.3811377,38.1033807 76.529179,37.2898831 C76.6772203,36.4763854 76.3441274,35.8662622 75.7026152,35.4340916 C75.2584913,35.1417408 74.7650204,34.9129446 74.296223,34.6587266 C73.9878036,34.4934849 73.6793843,34.3409541 73.3833017,34.1630015 C72.2483185,33.4384801 71.7918579,32.3707645 72.0879405,31.0742526 C72.334676,29.993826 73.3092811,29.1294847 74.5059481,29.0277975 C75.3201752,28.964243 76.1344022,29.0277975 76.9609661,29.0405084 Z" id="Shape" fill="#0D0C0F" fill-rule="nonzero"></path>
                <path d="M121.428829,42.8500684 C121.416216,41.9988441 121.517117,41.882768 122.286486,41.7924867 C123.169369,41.689308 123.951351,40.3737794 123.648649,39.5096577 C122.790991,37.1107527 121.945946,34.7118477 121.088288,32.3000453 C121.063063,32.2226613 121.037838,32.1452773 121,32.0163039 C121.390991,32.0163039 121.756757,31.9905092 122.10991,32.0292012 C122.500901,32.0678932 122.664865,32.364532 122.765766,32.7127602 C123.308108,34.4410036 123.85045,36.1563496 124.405405,37.8716957 C124.430631,37.9619771 124.481081,38.0522584 124.544144,38.2199238 C125.124324,36.4529884 125.691892,34.763437 126.221622,33.0738857 C126.511712,32.1194826 126.637838,31.8744332 128,32.0549959 C127.609009,33.164167 127.218018,34.2604408 126.827027,35.3567146 C126.209009,37.0978554 125.603604,38.8518934 124.972973,40.5930342 C124.846847,40.9541596 124.682883,41.3152851 124.481081,41.6506159 C123.8,42.8500684 122.753153,43.2498859 121.428829,42.8500684 Z" id="Shape" fill="#0E0D0F" fill-rule="nonzero"></path>
                <path d="M81.556553,38.248067 C82.1095153,36.5204962 82.6373429,34.8573871 83.1777379,33.1942779 C83.567325,31.9823999 83.6678636,31.9179383 85,32.0468615 C84.8240575,32.549662 84.6606822,33.0266778 84.4847397,33.5036936 C83.6552962,35.8758803 82.8258528,38.2609593 81.9712747,40.6202537 C81.8078995,41.0714849 81.5816876,41.522716 81.3177738,41.9223779 C80.6517056,42.9150865 79.5960503,43.2373944 78.4524237,42.8248402 C78.4147217,42.0126241 78.502693,41.9094856 79.3195691,41.7805624 C80.2118492,41.6516392 80.9533214,40.3624073 80.6391382,39.4857296 C79.7845601,37.0877583 78.9425494,34.6897869 78.0879713,32.2918156 C78.0628366,32.2144617 78.037702,32.1371078 78,32.0081846 C78.3770197,32.0081846 78.7289048,31.9952922 79.0682226,32.0081846 C79.4578097,32.0339692 79.6463196,32.3176002 79.7468582,32.6656928 C80.2872531,34.367479 80.8276481,36.0692651 81.3680431,37.7839435 C81.443447,37.925759 81.4937163,38.0546822 81.556553,38.248067 Z" id="Shape" fill="#0D0C0F" fill-rule="nonzero"></path>
                <path d="M114.490494,33.2670429 C115.395437,32.0703649 116.56654,31.8336594 117.870722,32.0966655 C119.161597,32.3596717 119.93346,33.3459447 119.960076,34.7530275 C120,36.2127116 120,37.6592454 120,39.1189294 C120,39.8158957 119.80038,40 119.081749,40 C118.908745,40 118.749049,40 118.509506,40 C118.509506,39.6712423 118.509506,39.355635 118.509506,39.0531779 C118.496198,37.7118466 118.48289,36.3836656 118.442966,35.0423343 C118.403042,34.042911 117.897338,33.3853956 117.138783,33.2407422 C116.287072,33.0829386 115.355513,33.4511472 115.009506,34.2533159 C114.71673,34.9239815 114.570342,35.6866993 114.503802,36.4099662 C114.423954,37.3041871 114.490494,38.2115583 114.477186,39.1189294 C114.477186,39.829046 114.304183,40 113.585551,40 C113.39924,40 113.212928,40 113,40 C113,37.3962392 113,34.8187791 113,32.2544692 C114.104563,32.0440643 114.410646,32.2281686 114.490494,33.2670429 Z" id="Shape" fill="#0D0C0F" fill-rule="nonzero"></path>
                <path d="M101.061184,39.9823122 C101.061184,37.9061247 101.061184,35.8549516 101.061184,33.8037784 C100.441387,33.6036639 99.6630382,34.0038929 99.2017942,33.441071 C99.0288277,33.2409565 99.0720694,32.9032634 99,32.5905845 C99.7351076,32.5905845 100.369318,32.5905845 101.032356,32.5905845 C101.104426,31.5775051 100.917045,30.514397 101.767464,29.7014321 C102.632296,28.8634528 103.79982,28.9510029 104.938516,29.0885815 C105.111483,29.8765322 104.95293,30.0766467 104.030442,30.1641967 C103.208851,30.2392397 102.891746,30.4643684 102.762021,31.1772762 C102.675538,31.6275337 102.689952,32.0902984 102.661124,32.5780774 C103.439473,32.5780774 104.145753,32.5780774 104.852033,32.5780774 C105.053827,33.4910996 104.823205,33.7412426 103.79982,33.7412426 C103.453887,33.7412426 103.107954,33.7412426 102.689952,33.7412426 C102.689952,34.0539215 102.689952,34.3540932 102.689952,34.6417577 C102.689952,36.1050946 102.689952,37.5684316 102.689952,39.0317686 C102.689952,39.8697478 102.531399,40.0073265 101.580084,39.9948194 C101.421531,40.0073265 101.248564,39.9948194 101.061184,39.9823122 Z" id="Shape" fill="#100F11" fill-rule="nonzero"></path>
                <path d="M53.0161853,33.8561749 C52.5854218,36.1707059 52.2590857,38.4852368 51.3975586,40.656735 C50.6012987,42.6591944 49.4787028,44.4406031 47.7425951,45.7539044 C46.5808388,46.6381072 45.2754947,47.1452236 43.7612955,46.9631818 C42.5212186,46.807146 41.6727449,45.9359461 41.7380121,44.8697015 C41.8032793,43.6604241 43.1999976,42.8802451 44.218166,43.4913853 C45.0013724,43.9594927 45.0535862,45.0127343 44.3487004,45.5588596 C44.2051125,45.6758865 44.1267919,45.8839342 44.0223643,46.052973 C44.218166,46.1309909 44.4661813,46.3260356 44.6097692,46.2740237 C45.1188534,46.078979 45.6801514,45.8839342 46.0848081,45.5328537 C47.1943506,44.5706329 47.6773279,43.2313257 48.0036639,41.8530095 C48.5127481,39.6685083 48.9304582,37.4580012 49.4003821,35.2735 C49.5570234,34.519327 49.752825,33.765154 49.9616801,33.010981 C50.0400007,32.7509213 50.0008404,32.5948855 49.7789319,32.4258467 C49.2176339,31.9707423 48.6954963,31.43762 48.1080914,31.0215246 C47.3901522,30.5144082 46.5808388,30.1243187 45.6409911,30.3323664 C44.4792348,30.5924261 44.0484712,31.8537155 44.8055708,32.7639243 C45.2493878,33.2970466 45.7323651,33.8041629 46.1761821,34.3372852 C47.0507627,35.3905269 47.4684728,36.5607953 46.8419076,37.8740966 C46.1892356,39.2394099 44.988319,39.876556 43.5263336,39.9675769 C42.1035085,40.0585978 40.7851109,39.6945143 39.7408356,38.6542756 C39.2056445,38.1341563 38.9445757,37.4840071 39.0098429,36.7168311 C39.0751101,35.9626581 39.6103012,35.4685448 40.2760267,35.5335597 C41.0592332,35.6115776 41.5683174,36.2487237 41.437783,37.0289027 C41.3855692,37.3409743 41.1897676,37.6400429 41.0983935,37.9521145 C41.0461798,38.1601623 40.993966,38.4592309 41.0983935,38.5762577 C41.5813708,39.122383 42.2470963,39.3044248 42.9519822,39.161392 C43.6307611,39.0313621 44.1267919,38.6412726 44.3095401,37.9391116 C44.4400745,37.4319952 44.2573263,37.0028968 43.9179368,36.6258103 C43.5524405,36.2227178 43.1608372,35.8326283 42.7953409,35.4295358 C41.4247296,33.8691778 41.3333555,31.9057274 42.6386996,30.5924261 C43.9048834,29.3181338 45.4582429,29.0710771 47.1421368,29.6172024 C48.1211449,29.929274 48.865191,30.5794231 49.5961837,31.2685812 C49.8050388,31.463626 50.0269473,31.6586707 50.196642,31.8277095 C50.7840469,30.69645 51.2800777,29.5391845 51.9327497,28.4729399 C52.7681699,27.0946237 53.864659,25.9503611 55.4180185,25.3522239 C56.527561,24.9231255 57.650157,24.8581106 58.7727529,25.313215 C59.8953488,25.7813224 60.313059,26.8735729 59.751761,27.8227907 C59.3862646,28.4469339 58.5638978,28.6549816 57.9242792,28.2778951 C57.3499278,27.9528205 57.20634,27.3026714 57.5587829,26.6395193 C57.9503861,25.9243552 57.7937448,25.6772985 56.9844315,25.6772985 C56.2142784,25.6772985 55.5746598,26.0023731 55.1438962,26.6005103 C54.7783999,27.1076266 54.425957,27.6537519 54.2562622,28.2388862 C53.7993918,29.7992441 53.4338954,31.3856081 53.0161853,33.0369869 C54.190995,33.2060257 55.19611,33.1930227 56.1098509,32.5948855 C56.5014541,32.3348258 56.3317594,31.9967483 56.1359578,31.7366886 C55.7182477,31.1905633 56.0445837,30.4493933 56.6972557,30.2283426 C57.1019124,30.0853098 57.4543553,30.1633277 57.741531,30.4753993 C58.1331343,30.8914947 58.1722946,31.3986111 57.976493,31.9057274 C57.7545845,32.5298706 57.2585537,32.9199601 56.6972557,33.2320317 C55.7313011,33.765154 54.6870258,33.8561749 53.6035902,33.8171659 C53.4600023,33.8431719 53.2642007,33.8561749 53.0161853,33.8561749 Z" id="Shape" fill="#FCFCFC" fill-rule="nonzero"></path>
            </g>
        </g>
    </g>
</svg>