<?xml version="1.0" encoding="UTF-8"?>
<svg width="160px" height="70px" viewBox="0 0 160 70" version="1.1" xmlns="http://www.w3.org/2000/svg" xmlns:xlink="http://www.w3.org/1999/xlink">
    <!-- Generator: Sketch 47.1 (45422) - http://www.bohemiancoding.com/sketch -->
    <title>tomcat</title>
    <desc>Created with Sketch.</desc>
    <defs></defs>
    <g id="technologies" stroke="none" stroke-width="1" fill="none" fill-rule="evenodd">
        <g id="Web-Servers" transform="translate(-224.000000, -138.000000)">
            <g id="tomcat" transform="translate(224.000000, 138.000000)">
                <rect id="Rectangle-Copy-5" fill="#FFFFFF" x="0" y="0" width="160" height="70"></rect>
                <g transform="translate(30.000000, 14.000000)" fill-rule="nonzero">
                    <path d="M10.2087553,28.483008 C10.8908853,29.3289949 11.6677556,30.1749819 12.5014701,31.0397686 C10.0571709,31.7729573 8.44658608,33.1265365 7.4423391,34.329718 C5.85070238,36.2284888 5.01698791,38.7288503 5.20646847,40.8720174 L1,40.8720174 C1.85266253,39.0484454 5.22541653,33.7845264 10.2087553,28.483008 L10.2087553,28.483008 Z M59,42 L53.8840248,42 C42.13623,35.9088937 31.8095394,31.6225597 20.8575629,30.6825741 C20.8765109,29.1785973 21.1607318,27.4490239 21.6723293,25.5502531 L20.6680823,25.2870571 C20.1375368,27.242227 19.8533159,29.0281996 19.8154198,30.6073753 C18.6785364,30.5321764 17.522705,30.494577 16.3668736,30.494577 C15.3815746,30.494577 14.491016,30.5885756 13.6762496,30.7389732 C12.6151584,29.6861894 11.7056517,28.6710051 10.9287814,27.7122198 C15.9689644,22.5046999 24.3061091,17.7859725 31.5442666,16 C33.5906566,22.7302965 37.9676576,27.3362256 43.2731134,30.4381779 C43.6710225,30.2125813 44.0499837,29.9869848 44.4289448,29.7425886 L53.6945443,39.6500362 L54.0924534,39.6124367 C56.631493,39.3868402 58.0715452,40.7592191 58.4505064,41.1916124 C58.7536753,41.4924078 58.9052597,41.7744035 59,42 L59,42 Z" id="Shape" fill="#D1A41B"></path>
                    <path d="M54.9944882,8.85803758 C55.1833371,17.9895616 50.4998822,25.2609603 43.9468222,29 C32.8236167,23.4759916 30.7273929,9.49686848 32.6158828,2 C33.14466,4.87473904 34.1077899,6.65970772 36.1851287,7.54279749 C40.6986196,6.2651357 46.9306363,6.15240084 51.5007818,7.41127349 C53.4081566,6.02087683 54.1446677,3.91649269 54.5601355,2.07515658 C55.0511428,4.217119 54.9756033,8.85803758 54.9944882,8.85803758 Z" id="Shape" fill="#FFDC76"></path>
                    <path d="M26.9079011,17.2384319 L28.6093068,22.214653 L23.4483762,18.785347 L26.9079011,17.2384319 Z M21.9360155,19.4190231 L23.7508483,22.5128535 L19.9132332,20.5931877 L21.9360155,19.4190231 Z M17.7770238,21.8419023 L18.6466311,24.9357326 L16,23.1465296 L17.7770238,21.8419023 Z M45.9258362,30.1542416 L44.281144,32.6330334 L47.1735337,31.3284062 L45.9258362,30.1542416 Z M48.4968492,33.0057841 L45.8691226,35 L49.5176927,34.0681234 L48.4968492,33.0057841 Z M42.088221,6.07455013 L44.0353854,10.2866324 L45.3019874,6 L42.088221,6.07455013 Z M32.2011634,12.2062982 L35.2825982,13.8277635 L32.5036355,14.0141388 L32.2011634,12.2062982 Z M32.9573437,15.5051414 L34.8477945,16.2506427 L33.2598158,16.6793059 L32.9573437,15.5051414 Z M55,13.3991003 L52.4667959,14.4428021 L54.5462918,14.7596401 L55,13.3991003 Z M53.9791566,16.437018 L52.0319922,16.996144 L53.6010664,17.5552699 L53.9791566,16.437018 Z" id="Shape" fill="#010202"></path>
                    <g id="Group" transform="translate(31.000000, 9.000000)" fill="#010202">
                        <path d="M0.114503817,12.3123288 L6.25954198,12.3123288 L6.25954198,13.0794521 L0.114503817,13.0794521 L0.114503817,12.3123288 Z M0.114503817,10.490411 L6.25954198,10.490411 L6.25954198,11.2575342 L0.114503817,11.2575342 L0.114503817,10.490411 Z M18.8549618,12.3123288 L25,12.3123288 L25,13.0794521 L18.8549618,13.0794521 L18.8549618,12.3123288 Z M18.8549618,10.490411 L25,10.490411 L25,11.2575342 L18.8549618,11.2575342 L18.8549618,10.490411 Z M16.6793893,5.96438356 L6.67938931,5.96438356 L6.67938931,5.2739726 L9.79007634,5.2739726 C10.1717557,3.62465753 10.2480916,2.05205479 9.79007634,1.24657534 C9.59923664,0.901369863 9.3129771,0.747945205 8.93129771,0.747945205 C7.15648855,0.747945205 6.41221374,2.64657534 6.39312977,2.72328767 L5.76335878,2.4739726 C5.80152672,2.37808219 6.69847328,0.0575342466 8.95038168,0.0575342466 C9.58015267,0.0575342466 10.0763359,0.345205479 10.4007634,0.901369863 C10.9732824,1.87945205 10.8969466,3.54794521 10.5152672,5.2739726 L15.9732824,5.2739726 C16.6984733,3.1260274 18.2061069,2.12876712 20.7442748,2.12876712 L20.7442748,2.81917808 C17.9961832,2.81917808 17.2328244,3.9890411 16.6793893,5.29315068 L19.6564885,5.29315068 L19.6564885,5.98356164 L16.6793893,5.96438356 L16.6793893,5.96438356 Z" id="Shape"></path>
                        <path d="M17.1374046,9.35890411 C16.3358779,8.15068493 16.0687023,7.13424658 16.4122137,5.96438356 L15.7251908,5.96438356 C15.4770992,6.73150685 15.5725191,7.90136986 16.1832061,8.91780822 L9.23664122,8.91780822 C9.65648855,8.0739726 10.0572519,7.03835616 10.3435115,5.96438356 L9.63740458,5.96438356 C9.3129771,7.09589041 8.8740458,8.20821918 8.3778626,9.09041096 L8.22519084,9.37808219 L12.1183206,11.8328767 L9.92366412,13.290411 L10.3053435,13.8657534 L12.7480916,12.2356164 L15.4007634,13.9616438 L15.7633588,13.3863014 L13.3206107,11.8712329 C13.2824427,11.8712329 16.9465649,9.4739726 17.1374046,9.35890411 L17.1374046,9.35890411 Z M12.7290076,11.430137 L9.84732824,9.60821918 L15.4770992,9.60821918 L12.7290076,11.430137 L12.7290076,11.430137 Z" id="Shape"></path>
                    </g>
                    <g id="Group" fill="#010202">
                        <path d="M55.36875,7.61497797 C55.36875,6.44052863 54.99375,1.45859031 54.3375,0.0947136564 C52.5375,0.795594714 49.2375,3.030837 48.4875,5.34185022 C44.925,4.81145374 40.89375,4.86828194 37.36875,5.47444934 C36.7875,2.99295154 33.825,1.09867841 31.59375,0.0378854626 C30.65625,1.64801762 30.24375,5.36079295 30.3375,7.9938326 L30.31875,7.9938326 C30.73125,19.0563877 36.1125,25.9515419 43.14375,30.1378855 C50.38125,25.9704846 55.55625,17.8251101 55.36875,7.61497797 C55.35,7.61497797 55.35,7.61497797 55.36875,7.61497797 Z M49.35,5.47444934 C49.36875,5.47444934 49.40625,5.49339207 49.425,5.49339207 C49.3875,5.49339207 49.36875,5.47444934 49.35,5.47444934 Z M48.9,5.39867841 C48.95625,5.41762115 49.03125,5.41762115 49.0875,5.43656388 C49.0125,5.41762115 48.95625,5.39867841 48.9,5.39867841 Z M54.24375,8.41057269 C54.43125,17.6167401 49.78125,24.9475771 43.275,28.7171806 C32.23125,23.1480176 30.13125,9.05462555 32.025,1.49647577 C32.55,4.39471366 33.50625,6.19427313 35.56875,7.0845815 C40.05,5.79647577 46.2375,5.68281938 50.775,6.95198238 C52.66875,5.55022026 53.4,3.42863436 53.8125,1.5722467 C54.3,3.73171806 54.225,8.41057269 54.24375,8.41057269 Z" id="Shape"></path>
                        <path d="M58.95,40.2722467 C57.80625,38.984141 55.59375,38.3779736 53.7375,38.4348018 C52.425,36.8436123 44.775,28.7171806 44.775,28.7171806 L44.25,29.3991189 L53.475,39.4387665 L53.86875,39.4008811 C56.38125,39.192511 57.80625,40.5563877 58.18125,40.9920705 C58.4625,41.2951542 58.63125,41.5982379 58.70625,41.8066079 L53.64375,41.8066079 C42.01875,35.669163 31.8,31.3502203 20.9625,30.4030837 C20.98125,28.8687225 21.2625,27.1449339 21.76875,25.2317181 L20.775,24.9665198 C20.25,26.9365639 19.96875,28.7361233 19.93125,30.3273128 C18.80625,30.2515419 17.6625,30.2136564 16.51875,30.2136564 C15.54375,30.2136564 14.6625,30.30837 13.85625,30.4599119 C12.80625,29.3991189 11.90625,28.3762115 11.1375,27.4101322 C16.18125,22.1061674 24.4875,17.3136564 31.70625,15.5519824 L31.48125,14.5290749 C23.71875,16.423348 15.225,21.5757709 10.48125,26.5387665 C8.2875,23.545815 7.40625,21.0832599 7.1625,19.2268722 C6.84375,16.8779736 7.3875,14.7185022 8.775,12.9757709 C10.93125,10.2669604 14.00625,10.077533 17.15625,10.6079295 C17.1,11.1193833 17.15625,11.5929515 17.3625,11.8960352 C18.1875,13.1462555 22.6875,13.5819383 25.35,12.3696035 C23.38125,9.5660793 19.36875,8.20220264 18.2625,8.75154185 C17.8875,8.94096916 17.625,9.26299559 17.4375,9.66079295 C16.35,9.47136564 15.2625,9.31982379 14.475,9.31982379 C11.7,9.33876652 9.5625,10.3237885 7.96875,12.3127753 C6.4125,14.2828194 5.775,16.707489 6.15,19.3594714 C6.50625,21.8599119 7.725,24.530837 9.7875,27.2964758 C9.45,27.6753304 9.1125,28.0352423 8.79375,28.3951542 C3.76875,34.0590308 0.1125,40.1396476 0.1125,41.1625551 L0.1125,41.6929515 L6.73125,41.6929515 L6.61875,41.0678414 C6.24375,39.0788546 6.99375,36.5784141 8.5125,34.7220264 C9.46875,33.5475771 11.0625,32.2215859 13.55625,31.5964758 C15.76875,33.7938326 18.6,36.1048458 21.75,38.3590308 L26.6625,38.3590308 L26.6625,37.8286344 C26.6625,37.2414097 26.38125,36.7299559 25.85625,36.3700441 C25.0875,35.8585903 23.8875,35.7828194 22.78125,36.161674 C21.73125,34.9872247 21.15,33.3960352 21.01875,31.4449339 C31.6875,32.3920705 41.90625,36.7488987 53.41875,42.8295154 L59.75625,42.8295154 L59.83125,42.4127753 C59.925,41.8255507 59.60625,41.0110132 58.95,40.2722467 L58.95,40.2722467 Z M7.6875,34.0400881 C6.13125,35.953304 5.2875,38.4726872 5.475,40.6321586 L1.3125,40.6321586 C2.15625,38.7947137 5.49375,33.5096916 10.425,28.1488987 C11.1,29.0013216 11.86875,29.8537445 12.69375,30.7251101 C10.25625,31.4638767 8.68125,32.846696 7.6875,34.0400881 L7.6875,34.0400881 Z" id="Shape"></path>
                    </g>
                    <path d="M69.8958707,16.9121951 L69.187313,19.0068293 L68.2681029,19.0068293 L70.6044285,12.3336585 L71.6768402,12.3336585 L74.032316,19.0068293 L73.0748055,19.0068293 L72.3470975,16.9121951 L69.8958707,16.9121951 Z M72.1555955,16.244878 L71.4853381,14.3170732 C71.3321364,13.8907317 71.2363854,13.4829268 71.1214841,13.0936585 L71.1023339,13.0936585 C71.0065829,13.4829268 70.8916816,13.8907317 70.7576302,14.2985366 L70.0873728,16.2263415 L72.1555955,16.2263415 L72.1555955,16.244878 Z M74.9706762,15.8 C74.9706762,15.1882927 74.951526,14.6878049 74.9323758,14.2429268 L75.7366846,14.2429268 L75.774985,15.0585366 L75.7941352,15.0585366 C76.1579892,14.4839024 76.7516457,14.1317073 77.5559545,14.1317073 C78.7432675,14.1317073 79.6433273,15.1141463 79.6433273,16.56 C79.6433273,18.2839024 78.5517654,19.1365854 77.4027528,19.1365854 C76.7516457,19.1365854 76.1771394,18.8585366 75.8707361,18.3765854 L75.8515859,18.3765854 L75.8515859,20.9717073 L74.9706762,20.9717073 L74.9706762,15.8 L74.9706762,15.8 Z M75.8707361,17.0604878 C75.8707361,17.1902439 75.8898863,17.3014634 75.9090365,17.4126829 C76.0813884,18.0243902 76.6175943,18.4321951 77.2495512,18.4321951 C78.2070616,18.4321951 78.7432675,17.6721951 78.7432675,16.5785366 C78.7432675,15.6146341 78.2262118,14.7990244 77.2687014,14.7990244 C76.6558947,14.7990244 76.0813884,15.2253659 75.9090365,15.8741463 C75.8707361,15.9853659 75.8515859,16.115122 75.8515859,16.2263415 L75.8515859,17.0604878 L75.8707361,17.0604878 Z M83.5308199,19.0253659 L83.454219,18.4136585 L83.4159186,18.4136585 C83.1478157,18.7843902 82.6116098,19.1180488 81.9030521,19.1180488 C80.9072412,19.1180488 80.3901855,18.4321951 80.3901855,17.7463415 C80.3901855,16.5970732 81.4625972,15.9482927 83.358468,15.9668293 L83.358468,15.8741463 C83.358468,15.484878 83.2435667,14.7619512 82.2286056,14.7619512 C81.7690006,14.7619512 81.2902454,14.8917073 80.9455416,15.1141463 L80.7348893,14.5395122 C81.1370437,14.28 81.7307002,14.1131707 82.3626571,14.1131707 C83.8755236,14.1131707 84.2393776,15.1141463 84.2393776,16.0780488 L84.2393776,17.8760976 C84.2393776,18.2839024 84.2585278,18.6917073 84.3159785,19.0253659 L83.5308199,19.0253659 L83.5308199,19.0253659 Z M83.3967684,16.5785366 C82.4201077,16.56 81.3093956,16.7268293 81.3093956,17.6536585 C81.3093956,18.2097561 81.6923998,18.4878049 82.1520048,18.4878049 C82.8031119,18.4878049 83.2052663,18.0985366 83.3393178,17.6907317 C83.3776182,17.5980488 83.3967684,17.5053659 83.3967684,17.4126829 L83.3967684,16.5785366 L83.3967684,16.5785366 Z M89.2567325,18.84 C89.02693,18.9512195 88.4907241,19.1180488 87.839617,19.1180488 C86.3459007,19.1180488 85.36924,18.1356098 85.36924,16.6712195 C85.36924,15.1882927 86.4033513,14.1317073 88.0311191,14.1317073 C88.567325,14.1317073 89.02693,14.2614634 89.2758827,14.3726829 L89.0652304,15.04 C88.8545781,14.9287805 88.5098743,14.817561 88.0311191,14.817561 C86.9012567,14.817561 86.28845,15.6331707 86.28845,16.6341463 C86.28845,17.7463415 87.016158,18.4321951 88.0119689,18.4321951 C88.5290245,18.4321951 88.8545781,18.302439 89.122681,18.1912195 L89.2567325,18.84 L89.2567325,18.84 Z M90.309994,12 L91.2100539,12 L91.2100539,14.9843902 L91.2292041,14.9843902 C91.3632555,14.7434146 91.593058,14.5209756 91.8803112,14.3726829 C92.1484141,14.2243902 92.4548175,14.1317073 92.7995212,14.1317073 C93.4697786,14.1317073 94.5230401,14.5209756 94.5230401,16.1892683 L94.5230401,19.0439024 L93.6229803,19.0439024 L93.6229803,16.3004878 C93.6229803,15.5219512 93.3357271,14.8731707 92.4739677,14.8731707 C91.8994614,14.8731707 91.4398564,15.262439 91.2675045,15.7443902 C91.2100539,15.8556098 91.2100539,15.9853659 91.2100539,16.1521951 L91.2100539,19.0439024 L90.309994,19.0439024 L90.309994,12 L90.309994,12 Z M96.4763615,16.782439 C96.4955117,17.9687805 97.2806703,18.4507317 98.1807301,18.4507317 C98.8318372,18.4507317 99.2148414,18.3395122 99.5595452,18.2097561 L99.7127469,18.84 C99.3871933,18.9697561 98.8509874,19.1365854 98.0658288,19.1365854 C96.5338121,19.1365854 95.6337522,18.1726829 95.6337522,16.7268293 C95.6337522,15.2809756 96.5146619,14.1502439 97.9509276,14.1502439 C99.5595452,14.1502439 100,15.5219512 100,16.4117073 C100,16.5970732 99.9808498,16.7268293 99.9616996,16.8195122 L96.4763615,16.8195122 L96.4763615,16.782439 Z M99.1190904,16.1521951 C99.1382406,15.5960976 98.8892879,14.7434146 97.8743268,14.7434146 C96.9551167,14.7434146 96.5721125,15.5590244 96.4955117,16.1521951 L99.1190904,16.1521951 Z M70.0873728,24.9570732 L68,24.9570732 L68,24.2156098 L73.0939557,24.2156098 L73.0939557,24.9570732 L70.9874327,24.9570732 L70.9874327,30.8887805 L70.0873728,30.8887805 L70.0873728,24.9570732 L70.0873728,24.9570732 Z M77.5942549,28.4604878 C77.5942549,30.24 76.3303411,31 75.1238779,31 C73.7833633,31 72.7492519,30.0546341 72.7492519,28.5346341 C72.7492519,26.9404878 73.8408139,25.995122 75.2004788,25.995122 C76.6175943,25.995122 77.5942549,26.9960976 77.5942549,28.4604878 L77.5942549,28.4604878 Z M73.668462,28.5160976 C73.668462,29.5726829 74.3004189,30.3512195 75.1621783,30.3512195 C76.0239378,30.3512195 76.6558947,29.5726829 76.6558947,28.497561 C76.6558947,27.6819512 76.2345901,26.662439 75.1813285,26.662439 C74.128067,26.6439024 73.668462,27.5892683 73.668462,28.5160976 L73.668462,28.5160976 Z M78.7241173,27.4039024 C78.7241173,26.9034146 78.7049671,26.4956098 78.6858169,26.1063415 L79.4709755,26.1063415 L79.5092759,26.884878 L79.5475763,26.884878 C79.8156792,26.4214634 80.2752843,25.995122 81.0987433,25.995122 C81.7690006,25.995122 82.2860563,26.3843902 82.4967086,26.9590244 L82.5158588,26.9590244 C82.6690604,26.6995122 82.8605625,26.4770732 83.0712148,26.3287805 C83.358468,26.1063415 83.7031718,25.995122 84.1627768,25.995122 C84.8138839,25.995122 85.7905446,26.4029268 85.7905446,28.0712195 L85.7905446,30.8887805 L84.9096349,30.8887805 L84.9096349,28.182439 C84.9096349,27.2556098 84.5649312,26.6995122 83.8372232,26.6995122 C83.3201676,26.6995122 82.9180132,27.0702439 82.7648115,27.4965854 C82.7265111,27.6078049 82.6882107,27.7746341 82.6882107,27.9229268 L82.6882107,30.8887805 L81.807301,30.8887805 L81.807301,28.0156098 C81.807301,27.2556098 81.4625972,26.6995122 80.7731897,26.6995122 C80.2178336,26.6995122 79.796529,27.1258537 79.6624776,27.5707317 C79.6050269,27.7004878 79.5858767,27.8487805 79.5858767,27.9970732 L79.5858767,30.8887805 L78.7241173,30.8887805 L78.7241173,27.4039024 L78.7241173,27.4039024 Z M90.769599,30.7219512 C90.5397965,30.8331707 90.0035907,31 89.3524835,31 C87.8587672,31 86.8821065,30.017561 86.8821065,28.5531707 C86.8821065,27.0702439 87.9162178,26.0136585 89.5439856,26.0136585 C90.0801915,26.0136585 90.5397965,26.1434146 90.7887493,26.2546341 L90.5780969,26.9219512 C90.3674446,26.8107317 90.0227409,26.6995122 89.5439856,26.6995122 C88.4141233,26.6995122 87.8013166,27.515122 87.8013166,28.5160976 C87.8013166,29.6282927 88.5290245,30.3141463 89.5248354,30.3141463 C90.0418911,30.3141463 90.3674446,30.1843902 90.6355476,30.0731707 L90.769599,30.7219512 L90.769599,30.7219512 Z M94.5613405,30.8887805 L94.4847397,30.2770732 L94.4464393,30.2770732 C94.1783363,30.6478049 93.6421305,30.9814634 92.9335727,30.9814634 C91.9377618,30.9814634 91.4207062,30.2956098 91.4207062,29.6097561 C91.4207062,28.4604878 92.4931179,27.8117073 94.3889886,27.8302439 L94.3889886,27.737561 C94.3889886,27.3482927 94.2740874,26.6253659 93.2591263,26.6253659 C92.7995212,26.6253659 92.320766,26.755122 91.9760622,26.977561 L91.7654099,26.4029268 C92.1675643,26.1434146 92.7612208,25.9765854 93.3931777,25.9765854 C94.9060443,25.9765854 95.2698983,26.977561 95.2698983,27.9414634 L95.2698983,29.7395122 C95.2698983,30.1473171 95.2890485,30.555122 95.3464991,30.8887805 L94.5613405,30.8887805 L94.5613405,30.8887805 Z M94.427289,28.4419512 C93.4506284,28.4234146 92.3399162,28.5902439 92.3399162,29.5170732 C92.3399162,30.0731707 92.7229204,30.3512195 93.1825254,30.3512195 C93.8336326,30.3512195 94.235787,29.9619512 94.3698384,29.5541463 C94.4081388,29.4614634 94.427289,29.3687805 94.427289,29.2760976 L94.427289,28.4419512 Z M97.7977259,24.7346341 L97.7977259,26.1063415 L99.0807899,26.1063415 L99.0807899,26.7736585 L97.7977259,26.7736585 L97.7977259,29.3502439 C97.7977259,29.9434146 97.9700778,30.2770732 98.4679832,30.2770732 C98.6977858,30.2770732 98.8701376,30.24 98.9850389,30.2214634 L99.0233393,30.8702439 C98.8509874,30.9443902 98.5828845,30.9814634 98.2190305,30.9814634 C97.7977259,30.9814634 97.4530221,30.8517073 97.2423698,30.6107317 C96.9934171,30.3512195 96.8976661,29.924878 96.8976661,29.3687805 L96.8976661,26.755122 L96.1316577,26.755122 L96.1316577,26.0878049 L96.8976661,26.0878049 L96.8976661,24.9385366 L97.7977259,24.7346341 L97.7977259,24.7346341 Z" id="Shape" fill="#000000"></path>
                </g>
            </g>
        </g>
    </g>
</svg>