<?xml version="1.0" encoding="UTF-8"?>
<svg width="160px" height="70px" viewBox="0 0 160 70" version="1.1" xmlns="http://www.w3.org/2000/svg" xmlns:xlink="http://www.w3.org/1999/xlink">
    <!-- Generator: Hyder A. - https://toggle.me -->
    <title>tumblr</title>
    <desc>Created with Sketch.</desc>
    <defs></defs>
    <g id="technologies" stroke="none" stroke-width="1" fill="none" fill-rule="evenodd">
        <g id="Artboard" transform="translate(-218.000000, -462.000000)">
            <g id="tumblr" transform="translate(218.000000, 462.000000)">
                <rect id="container" fill="#FFFFFF" x="0" y="0" width="160" height="70"></rect>
                <g transform="translate(20.000000, 23.000000)" id="Shape" fill-rule="nonzero" fill="#35465C">
                    <path d="M117.498145,18.1059775 C115.564033,18.1059775 113.996851,19.6371123 113.996851,21.5251633 C113.996851,23.4117201 115.564033,24.9430417 117.498145,24.9430417 C119.432631,24.9430417 121,23.4117201 121,21.5251633 C120.998127,19.6369255 119.432257,18.1052304 117.497396,18.1052304 L117.498145,18.1059775 Z M98.3248504,20.0496857 L98.3302823,0 L96.2152336,0 C96.2152336,0 92.7013909,1.26722978 90.170525,1.5367379 L90.170525,5.32385925 L91.7684244,5.32385925 C92.2820148,5.32385925 92.4977903,5.54256612 92.5052825,6.02106909 L92.5052825,20.0491254 C92.5052825,20.543317 92.2138358,20.8143193 91.742389,20.8449494 C91.3387466,20.8716574 90.4342505,20.9299295 90.4342505,20.9299295 L90.4342505,24.7176111 L100.396632,24.7176111 L100.396632,20.9299295 C100.396632,20.9299295 99.4908244,20.8716574 99.0881185,20.8449494 C98.6142367,20.8150663 98.3239139,20.5442508 98.3239139,20.0493121 L98.3248504,20.0496857 Z M118.460143,10.0995506 C118.265908,5.87464195 112.527631,5.6802151 109.528315,8.53423696 L108.980822,6.89832455 L102.045665,6.89832455 L102.045665,10.7702392 L103.499902,10.7681847 C104.015553,10.7681847 104.205854,10.9863313 104.212785,11.4646475 L104.212785,20.0506195 C104.212785,20.5448111 103.920963,20.8158134 103.449329,20.8464436 C103.0455,20.8731516 102.23297,20.9306765 102.23297,20.9306765 L102.23297,24.7191053 L111.997745,24.7191053 L111.997745,20.9306765 C111.997745,20.9306765 111.190085,20.8729648 110.787567,20.8464436 C110.315371,20.8158134 110.022987,20.5449979 110.022987,20.0506195 L110.02074,14.2292068 C110.02074,13.1381005 110.271541,11.3172865 112.202656,10.8514838 C112.440721,12.6722978 114.20476,13.2161701 115.065801,13.2161701 C117.240413,13.2167304 118.459769,11.5942654 118.459769,10.1004844 L118.460143,10.0995506 Z M81.6696852,6.6613143 C80.1909118,6.72593648 78.6310354,7.29016657 77.4980271,8.27201285 L77.4980271,0.0014941545 L75.4047058,0.0014941545 C75.4047058,0.0014941545 71.9820806,1.21400053 69.3322761,1.53823206 L69.2459284,5.32535341 L70.9208102,5.32778141 C71.4349626,5.32778141 71.6563571,5.54611473 71.6632874,6.02517802 L71.6632874,24.7207862 L76.4496807,24.7159302 L77.1342807,23.1818071 C77.2803786,23.263612 79.4767177,25.3219966 82.9838175,24.9101703 C87.3991594,24.3911384 89.7181833,20.9050891 89.7181833,15.615969 C89.7219294,12.8422579 88.8678184,6.3484757 81.6715583,6.66206137 L81.6696852,6.6613143 Z M80.7856054,20.5857136 C79.9723268,20.6454798 78.4673307,20.5091382 77.4995255,18.8153273 L77.4995255,16.334097 L77.5002748,16.3326028 L77.4995255,16.3326028 L77.4995255,13.4634527 C77.4995255,12.2231177 78.6488293,11.1342526 80.4267289,11.0685098 C82.2272924,11.0020199 83.821633,12.2276001 83.821633,15.6891826 C83.8178869,20.3599095 81.7650235,20.5130604 80.783545,20.5859004 L80.7856054,20.5857136 Z M67.8877795,20.0646272 C67.8877795,20.0646272 67.8881541,15.664529 67.8881541,14.6587763 C67.8881541,12.7322508 67.8649283,10.7412899 66.5860094,9.11602337 C65.4146036,7.62877934 63.4713137,6.53804655 60.5206972,6.67961769 C58.5611118,6.77374942 56.4709747,7.68182182 55.3169883,9.23686312 L55.1351151,9.46584229 L55.0246051,9.33323608 C53.8384022,7.62504395 51.9441862,6.53823332 48.9939443,6.67961769 C47.033797,6.77374942 44.9436599,7.68182182 43.7896735,9.23686312 L43.6173528,6.91606764 L36.3868159,6.91606764 L36.3868159,10.7887293 L38.050834,10.8131961 C38.5655483,10.8131961 38.7826348,11.0315294 38.7897524,11.510406 L38.7899397,19.0889443 L38.7899397,20.0655611 C38.7899397,20.5599394 38.4983057,20.8311285 38.0272335,20.8619454 C37.6234038,20.8884667 36.8061919,20.9461784 36.8061919,20.9461784 L36.8061919,24.7336733 L46.5835156,24.7370351 L46.5835156,20.9456181 C46.5835156,20.9456181 45.8131299,20.8912682 45.3622867,20.8613851 C44.8908399,20.8292608 44.5999551,20.5595659 44.5999551,20.0650008 C44.5999551,20.0650008 44.6078219,15.2278623 44.6078219,14.2590899 C44.6078219,13.2918117 45.4107987,11.3064539 47.9594585,11.3064539 C50.0155061,11.3064539 50.4367551,12.5559406 50.4367551,14.0101264 C50.4367551,15.463752 50.4390028,20.0657478 50.4390028,20.0657478 C50.4390028,20.5601262 50.1479307,20.8305682 49.6768585,20.8613851 C49.2732162,20.8884667 48.4556296,20.9467387 48.4556296,20.9467387 L48.4556296,24.733113 L58.2226515,24.733113 L58.2226515,20.9454313 C58.2226515,20.9454313 57.4526405,20.8910814 57.0012353,20.8611984 C56.5301631,20.829074 56.2432117,20.5593791 56.2432117,20.064814 L56.2286019,20.064814 C56.2286019,20.064814 56.2370307,15.2276756 56.2370307,14.2589032 C56.2370307,13.2916249 56.9529106,11.3062671 59.5021323,11.3062671 C61.5579926,11.3062671 62.0727069,12.5557538 62.0727069,14.0099397 L62.0727069,19.0880105 L62.071583,20.0653743 C62.071583,20.5597527 61.7795745,20.8301946 61.3090642,20.8610116 C60.9050472,20.8880931 60.0876479,20.9463652 60.0876479,20.9463652 L60.0876479,24.7327394 L69.8674066,24.7327394 L69.8674066,20.9450578 C69.8674066,20.9450578 69.0970209,20.8907079 68.6465523,20.8608248 C68.1801627,20.829074 67.893586,20.5582585 67.893586,20.0633198 L67.8877795,20.0646272 Z M33.2101222,20.1019811 L33.2101222,6.91700149 L25.0844545,6.91700149 L25.0844545,10.7885426 L26.6499501,10.7889161 C27.1654136,10.7889161 27.3817509,11.0074362 27.3886812,11.4861259 L27.3806271,17.5008449 C27.3806271,18.0904756 26.9543208,20.3046258 23.9939644,20.3600963 C21.976689,20.3987575 21.5522558,19.2123989 21.5522558,17.6566105 L21.5522558,6.91737502 L15.5684213,6.91737502 L15.5684213,17.9640328 C15.5684213,20.7592223 16.8486513,25.156519 22.8219967,24.9957106 C24.7830806,24.9419211 27.0298047,23.9583939 28.1972771,22.5161612 L28.2461637,24.7374087 L34.9136617,24.7374087 L34.9136617,20.9499138 C34.9136617,20.9499138 34.3744104,20.9080774 33.9705807,20.8811827 C33.498572,20.8531673 33.2101222,20.599161 33.2101222,20.1042223 L33.2101222,20.1019811 Z M11.0594268,20.540889 C9.07399324,20.5916902 8.69001788,19.1793407 8.67297312,18.1537904 L8.67297312,11.0399341 L13.2999698,11.0399341 L13.2999698,6.91662795 L8.69151632,6.91662795 L8.69151632,0.788166498 L5.05817292,0.788166498 C4.99860992,0.788166498 4.89446831,0.839528059 4.87985852,0.969332731 C4.66670537,2.85644986 3.76127275,6.16936393 0,7.49262451 L0,11.0399341 L2.86314502,11.0399341 L2.86314502,18.5291967 C2.86314502,21.237165 4.5567573,25.083679 9.95844769,24.9932826 C11.7813005,24.9632128 13.8062554,24.2178164 14.2544764,23.5755168 L13.0615305,20.1234596 C12.5998235,20.3363766 11.7185533,20.5231459 11.0594268,20.5399551 L11.0594268,20.540889 Z"></path>
                </g>
            </g>
        </g>
    </g>
</svg>