<?xml version="1.0" encoding="UTF-8"?>
<svg width="160px" height="70px" viewBox="0 0 160 70" version="1.1" xmlns="http://www.w3.org/2000/svg" xmlns:xlink="http://www.w3.org/1999/xlink">
    <!-- Generator: Hyder A. - https://toggle.me -->
    <title>Typo3</title>
    <desc>Created with Sketch.</desc>
    <defs></defs>
    <g id="technologies" stroke="none" stroke-width="1" fill="none" fill-rule="evenodd">
        <g id="Artboard" transform="translate(-32.000000, -262.000000)">
            <g id="Typo3" transform="translate(32.000000, 262.000000)">
                <rect id="container" fill="#FFFFFF" x="0" y="0" width="160" height="70"></rect>
                <g id="typo3" transform="translate(32.000000, 22.000000)" fill-rule="nonzero">
                    <path d="M18.9140811,17.9183673 C18.5361973,18.0408163 18.2378679,18.0816327 17.8400955,18.0816327 C14.6181384,18.0816327 9.90453461,6.55102041 9.90453461,2.71428571 C9.90453461,1.30612245 10.2227526,0.836734694 10.7000796,0.428571429 C6.76213206,0.87755102 2.02863962,2.36734694 0.517104216,4.24489796 C0.198886237,4.71428571 0,5.44897959 0,6.40816327 C0,12.4081633 6.22513922,26 10.6205251,26 C12.6690533,26 16.0898966,22.5510204 18.9140811,17.9183673 M16.8655529,0 C20.9228321,0 25,0.673469388 25,3.02040816 C25,7.79591837 22.0365951,13.5918367 20.5449483,13.5918367 C17.8599841,13.5918367 14.4988067,5.91836735 14.4988067,2.08163265 C14.4988067,0.346938776 15.1551313,0 16.8655529,0" id="Shape" fill="#FF8700"></path>
                    <path d="M39.6620626,8.31707317 L39.6620626,25.796748 L37.2613193,25.796748 L37.2613193,8.31707317 L33,8.31707317 L33,6.20325203 L43.8833696,6.20325203 L43.8833696,8.33739837 L39.6620626,8.31707317 Z M52.2859711,16.6910569 L52.2859711,25.796748 L49.805203,25.796748 L49.805203,16.6910569 L44.8636731,6.18292683 L47.5044907,6.18292683 L51.145618,14.3333333 L54.7867453,6.18292683 L57.2875196,6.18292683 L52.2859711,16.6910569 L52.2859711,16.6910569 Z M64.9098795,18.398374 L62.589161,18.398374 L62.589161,25.796748 L60.1884177,25.796748 L60.1884177,6.20325203 C60.1884177,6.20325203 62.5491486,6 64.8498609,6 C69.0311555,6 70.2515333,8.64227642 70.2515333,12.0772358 C70.2515333,16.3252033 68.8110873,18.398374 64.9098795,18.398374 L64.9098795,18.398374 Z M65.1899662,8.01219512 C63.6694955,8.01219512 62.589161,8.17479675 62.589161,8.17479675 L62.589161,16.3455285 L65.1899662,16.3455285 C66.7304431,16.3455285 67.8107776,15.3089431 67.8107776,12.2601626 C67.7907714,9.47560976 67.130567,8.01219512 65.1899662,8.01219512 Z M79.194302,26 C74.652896,26 73.4325181,22.6463415 73.4325181,15.7764228 C73.4325181,9.19105691 74.652896,6 79.194302,6 C83.7357081,6 84.9560859,9.19105691 84.9560859,15.7764228 C84.9560859,22.6260163 83.7357081,26 79.194302,26 Z M79.194302,8.03252033 C76.713534,8.03252033 75.89328,9.7398374 75.89328,15.898374 C75.89328,21.9146341 76.713534,23.9268293 79.194302,23.9268293 C81.6750701,23.9268293 82.495324,21.9146341 82.495324,15.898374 C82.495324,9.7601626 81.6750701,8.03252033 79.194302,8.03252033 Z M92.3583777,26 C91.0179627,26 88.9973371,25.5731707 88.7372566,25.5325203 L88.7372566,23.4390244 C89.397461,23.5813008 91.1179937,23.8861789 92.3183653,23.8861789 C93.7187989,23.8861789 94.6390838,22.7073171 94.6390838,20.5528455 C94.6390838,17.9512195 94.2189537,16.6504065 92.2583467,16.6504065 L90.017653,16.6504065 L90.017653,14.597561 L91.9982662,14.597561 C94.2389599,14.597561 94.3389909,12.2804878 94.3389909,11.1626016 C94.3389909,8.94715447 93.6587803,8.05284553 92.2783529,8.05284553 C91.0579751,8.05284553 89.6775477,8.35772358 88.8772999,8.5203252 L88.8772999,6.46747967 C89.1773929,6.40650407 90.7978946,6 92.2183343,6 C95.0592139,6 96.6797156,7.2398374 96.6797156,11.4065041 C96.6797156,13.3170732 96.099536,14.9837398 94.5790652,15.4715447 C96.3796227,15.7154472 96.9998147,17.5243902 96.9998147,20.2682927 C97.0198209,24.4349593 95.4193254,26 92.3583777,26 L92.3583777,26 Z" id="Shape" fill="#000000"></path>
                </g>
            </g>
        </g>
    </g>
</svg>