<?xml version="1.0" encoding="UTF-8"?>
<svg width="160px" height="70px" viewBox="0 0 160 70" version="1.1" xmlns="http://www.w3.org/2000/svg" xmlns:xlink="http://www.w3.org/1999/xlink">
    <!-- Generator: Sketch 47.1 (45422) - http://www.bohemiancoding.com/sketch -->
    <title>ubuntu</title>
    <desc>Created with Sketch.</desc>
    <defs></defs>
    <g id="technologies" stroke="none" stroke-width="1" fill="none" fill-rule="evenodd">
        <g id="OS" transform="translate(-224.000000, -42.000000)">
            <g id="ubuntu" transform="translate(224.000000, 42.000000)">
                <rect id="Rectangle-Copy-2" fill="#FFFFFF" x="0" y="0" width="160" height="70"></rect>
                <g transform="translate(16.000000, 18.000000)" fill-rule="nonzero">
                    <circle id="Oval" fill="#FF6309" cx="3.5" cy="17.5" r="3.5"></circle>
                    <circle id="Oval" fill="#FFB515" cx="27.5" cy="30.5" r="3.5"></circle>
                    <circle id="Oval" fill="#C90016" cx="27.5" cy="3.5" r="3.5"></circle>
                    <path d="M18.6884336,8.78580149 C22.6704461,8.78580149 25.9741594,11.9272595 26.5213294,16 L32,16 C31.7508111,12.7997582 30.5024706,9.81683108 28.4144244,7.46455616 C27.0772123,8.18801261 25.4328706,8.20189853 24.0361929,7.34536868 C22.6384262,6.48768166 21.8274731,4.96694194 21.7497105,3.37306971 C20.7459282,3.12470629 19.7186393,2.99953157 18.687998,3.00000132 C16.6888234,3.00000132 14.756956,3.46355963 13,4.34276982 L15.7434739,9.39053332 C16.6795636,8.99023694 17.6793703,8.78493196 18.6884336,8.78580149 Z" id="Shape" fill="#FF6309"></path>
                    <path d="M10.9396284,17.5003425 C10.9396284,14.8574832 12.1377013,12.4998263 14,10.9797369 L11.227254,6 C10.5704431,6.47586339 9.95517225,7.01056567 9.3885203,7.59795483 C7.78389539,9.26167287 6.63317275,11.2704195 6,13.462755 C7.27581555,14.3195036 8.12063317,15.8069397 8.12063317,17.5003425 C8.12063317,19.1932887 7.27581555,20.6809531 6,21.5374733 C6.63317275,23.7298089 7.78389539,25.7383271 9.3885203,27.4025019 C9.95474944,27.989605 10.5694968,28.5241478 11.2257123,29 L13.9988988,24.0195781 C12.1370406,22.4997171 10.9396284,20.1422884 10.9396284,17.5003425 L10.9396284,17.5003425 Z" id="Shape" fill="#FFB515"></path>
                    <path d="M26.5222635,18 C25.9766245,22.0728968 22.6722956,25.215487 18.6892397,25.215487 C17.6484959,25.215487 16.6539299,25.0003203 15.7432247,24.6104754 L13,29.6569435 C14.7565002,30.5363505 16.6894346,31 18.6890219,31 C19.7336864,31 20.7602719,30.8720568 21.7528775,30.6265817 C21.8293323,29.0311093 22.6402761,27.5080532 24.0391159,26.6501628 C25.4362131,25.7934293 27.0811895,25.8068483 28.4183863,26.5317055 C30.5044481,24.1796793 31.7519031,21.1981171 32,18 L26.5222635,18 L26.5222635,18 Z" id="Shape" fill="#C90016"></path>
                    <path d="M53.2325858,17.4615819 L53.2325858,11.1154244 C53.2325858,10.1539671 52.4678399,9.38453168 51.5122424,9.38453168 C50.5566448,9.38453168 49.7921222,10.1537425 49.7921222,11.1154244 L49.7921222,17.4615819 C49.7921222,19.7689896 48.8363015,20.5386496 47.1161813,20.5386496 C45.3962843,20.5386496 44.4404636,19.7689896 44.4404636,17.4615819 L44.4404636,11.1154244 C44.4404636,10.1539671 43.6759409,9.38453168 42.7203434,9.38453168 C41.7647459,9.38453168 41,10.1537425 41,11.1154244 L41,17.4615819 C41,22.0768466 43.6759409,23.9999859 47.1161813,23.9999859 C50.5566448,23.9999859 53.2325858,22.0768466 53.2325858,17.4615819 M69.288008,17.4615819 C69.288008,10.9231778 66.6125136,9.38453168 63.17205,9.38453168 C61.4517066,9.38453168 60.4961091,10.1537425 60.4961091,10.1537425 L60.4961091,5.73072428 C60.4961091,3.42309191 57.0556455,3.42309191 57.0556455,5.73072428 L57.0556455,17.4615819 C57.0556455,22.0768466 59.7315864,23.9999859 63.17205,23.9999859 C66.6125136,23.9999859 69.288008,22.0768466 69.288008,17.4615819 M60.4956626,17.0768642 C60.4956626,13.0385637 62.4068577,12.653846 63.1716036,12.653846 C64.3184992,12.653846 65.847098,13.6155279 65.847098,17.0768642 C65.847098,19.3842719 64.8917237,20.9231427 63.1716036,20.9231427 C61.4512602,20.9233673 60.4956626,19.3842719 60.4956626,17.0768642 M128,17.4615819 L128,11.1154244 C128,10.1539671 127.235254,9.38453168 126.279657,9.38453168 C125.324059,9.38453168 124.559536,10.1537425 124.559536,11.1154244 L124.559536,17.4615819 C124.559536,19.7689896 123.603939,20.5386496 121.883819,20.5386496 C120.163475,20.5386496 119.208101,19.7689896 119.208101,17.4615819 L119.208101,11.1154244 C119.20995,10.6557954 119.029293,10.2144545 118.706265,9.88944512 C118.383236,9.56443569 117.944585,9.38267166 117.487758,9.38453168 C117.030932,9.38261078 116.592269,9.56436249 116.269262,9.88939169 C115.946256,10.2144209 115.765669,10.6557978 115.767637,11.1154244 L115.767637,17.4615819 C115.767637,22.0768466 118.443132,23.9999859 121.883819,23.9999859 C125.324059,23.9999859 128,22.0768466 128,17.4615819 M84.5577019,17.4618064 L84.5577019,11.115649 C84.5577019,10.1541916 83.7929561,9.38498085 82.8373585,9.38498085 C81.881761,9.38498085 81.1172384,10.1541916 81.1172384,11.115649 L81.1172384,17.4618064 C81.1172384,19.7692142 80.1616408,20.538425 78.4412974,20.538425 C76.7214005,20.538425 75.7655797,19.7692142 75.7655797,17.4618064 L75.7655797,11.115649 C75.7655797,10.1541916 75.0010571,9.38498085 74.0454596,9.38498085 C73.089862,9.38498085 72.3253394,10.1541916 72.3253394,11.115649 L72.3253394,17.4618064 C72.3253394,22.0770712 75.0010571,23.9999859 78.4412974,23.9999859 C81.881761,23.9999859 84.5577019,22.0770712 84.5577019,17.4618064 M104.746681,9.38453168 C102.644187,9.38453168 102.644187,12.4615994 104.746681,12.4615994 L105.320128,12.4615994 L105.320128,19.1538456 C105.320128,22.8081022 106.218136,23.9999859 109.314843,23.9999859 C110.805718,23.9999859 112.984329,23.7309305 112.984329,22.1920598 C112.984329,21.230827 112.105295,20.9804124 111.85663,20.9804124 C111.321575,20.9804124 110.766878,21.2110634 110.155483,21.2110634 C109.085151,21.2110634 108.760146,20.6729527 108.760146,18.8652512 L108.760146,12.4615994 L110.289414,12.4615994 C112.391907,12.4615994 112.391907,9.38453168 110.289414,9.38453168 L108.760146,9.38453168 L108.760146,5.73072428 C108.760146,3.42309191 105.319905,3.42309191 105.319905,5.73072428 L105.319905,9.38453168 L104.746681,9.38453168 M88.1164712,15.9229357 L88.1164712,22.2690931 C88.1145628,22.7287014 88.2951692,23.1700431 88.6181624,23.4950591 C88.9411557,23.8200752 89.3797841,24.0018463 89.8365914,23.9999859 C90.2933987,24.0018463 90.7320271,23.8200752 91.0550203,23.4950591 C91.3780136,23.1700431 91.5586199,22.7287014 91.5567116,22.2690931 L91.5567116,15.9229357 C91.5567116,13.6155279 92.5123091,12.8458679 94.2324293,12.8458679 C95.9527727,12.8458679 96.9083702,13.6155279 96.9083702,15.9229357 L96.9083702,22.2690931 C96.9083702,23.2305505 97.6728928,23.9999859 98.6284904,23.9999859 C99.5840879,23.9999859 100.348611,23.2307751 100.348611,22.2690931 L100.348611,15.9229357 C100.348611,11.3076709 97.6728928,9.38453168 94.2324293,9.38453168 C90.7919657,9.38453168 88.1164712,11.3078955 88.1164712,15.9229357" id="Shape" fill="#000000"></path>
                </g>
            </g>
        </g>
    </g>
</svg>