<?xml version="1.0" encoding="UTF-8"?>
<svg width="160px" height="70px" viewBox="0 0 160 70" version="1.1" xmlns="http://www.w3.org/2000/svg" xmlns:xlink="http://www.w3.org/1999/xlink">
    <!-- Generator: Sketch 47.1 (45422) - http://www.bohemiancoding.com/sketch -->
    <title>vanilla</title>
    <desc>Created with Sketch.</desc>
    <defs></defs>
    <g id="technologies" stroke="none" stroke-width="1" fill="none" fill-rule="evenodd">
        <g id="Forums" transform="translate(-32.000000, -241.000000)">
            <g id="vanilla" transform="translate(32.000000, 241.000000)">
                <rect id="Rectangle-Copy-7" fill-opacity="0.219999999" fill="#FFFFFF" x="0" y="0" width="160" height="70"></rect>
                <g transform="translate(36.000000, 11.000000)" id="Shape" fill="#0291DB">
                    <path d="M38.3116483,35.6226415 L49.9907573,35.6226415 C53.4462182,35.6226415 56.2474227,38.3934077 56.2474227,41.8113208 C56.2474227,45.2292338 53.4462182,48 49.9907573,48 L38.3116483,48 C34.8561873,48 32.0549828,45.2292338 32.0549828,41.8113208 C32.0549828,38.3934077 34.8561873,35.6226415 38.3116483,35.6226415 Z M36.5113972,42.0704202 C36.5113972,42.4565956 36.5714604,42.8167731 36.6915891,43.1509636 C36.8117176,43.4851538 36.9843999,43.776019 37.2096409,44.0235674 C37.4348822,44.2711158 37.7114239,44.4654382 38.039275,44.606541 C38.3671258,44.7476435 38.7362652,44.8181938 39.1467045,44.8181938 C39.5621491,44.8181938 39.9325402,44.7476435 40.2578883,44.606541 C40.5832367,44.4654382 40.858527,44.2711158 41.0837683,44.0235674 C41.3090093,43.776019 41.4816916,43.4851538 41.6018201,43.1509636 C41.7219489,42.8167731 41.782012,42.4565956 41.782012,42.0704202 C41.782012,41.6743426 41.7219489,41.3067387 41.6018201,40.9675976 C41.4816916,40.6284562 41.3090093,40.3326403 41.0837683,40.080141 C40.858527,39.8276414 40.5832367,39.6296057 40.2578883,39.4860278 C39.9325402,39.3424495 39.5621491,39.2706617 39.1467045,39.2706617 C38.7362652,39.2706617 38.3671258,39.3424495 38.039275,39.4860278 C37.7114239,39.6296057 37.4348822,39.8276414 37.2096409,40.080141 C36.9843999,40.3326403 36.8117176,40.6284562 36.6915891,40.9675976 C36.5714604,41.3067387 36.5113972,41.6743426 36.5113972,42.0704202 Z M37.690153,42.0704202 C37.690153,41.8377247 37.7164305,41.6124589 37.7689867,41.3946165 C37.821543,41.1767737 37.9053816,40.982451 38.020505,40.8116429 C38.135628,40.6408344 38.2857866,40.5046847 38.4709848,40.40319 C38.6561831,40.3016951 38.8814208,40.2509485 39.1467045,40.2509485 C39.4119885,40.2509485 39.6372261,40.3016951 39.8224244,40.40319 C40.0076227,40.5046847 40.1577812,40.6408344 40.2729043,40.8116429 C40.3880276,40.982451 40.4718662,41.1767737 40.5244225,41.3946165 C40.5769787,41.6124589 40.6032563,41.8377247 40.6032563,42.0704202 C40.6032563,42.2932136 40.5769787,42.5098152 40.5244225,42.7202315 C40.4718662,42.9306475 40.3880276,43.1200193 40.2729043,43.2883523 C40.1577812,43.456685 40.0076227,43.591597 39.8224244,43.6930919 C39.6372261,43.7945866 39.4119885,43.8453334 39.1467045,43.8453334 C38.8814208,43.8453334 38.6561831,43.7945866 38.4709848,43.6930919 C38.2857866,43.591597 38.135628,43.456685 38.020505,43.2883523 C37.9053816,43.1200193 37.821543,42.9306475 37.7689867,42.7202315 C37.7164305,42.5098152 37.690153,42.2932136 37.690153,42.0704202 Z M43.3887239,42.9393108 L42.2475082,42.9393108 C42.2425027,43.2660746 42.3025659,43.5482756 42.4277001,43.7859221 C42.552834,44.0235686 42.7217622,44.2191288 42.93449,44.3726089 C43.1472177,44.5260888 43.3924765,44.6387215 43.6702737,44.7105108 C43.948071,44.7822998 44.2346235,44.8181938 44.5299397,44.8181938 C44.8953308,44.8181938 45.21692,44.7761111 45.4947175,44.6919448 C45.7725148,44.6077781 46.0052603,44.4901944 46.1929612,44.33919 C46.3806622,44.1881854 46.5220613,44.0087155 46.6171633,43.8007749 C46.712265,43.5928341 46.7598152,43.3675686 46.7598152,43.1249712 C46.7598152,42.8279131 46.695998,42.5840815 46.5683611,42.3934693 C46.4407245,42.2028571 46.2893149,42.0506171 46.1141272,41.9367448 C45.9389397,41.8228725 45.7625036,41.7399451 45.5848135,41.6879599 C45.4071234,41.6359746 45.2682267,41.6000806 45.1681196,41.5802768 C44.8327607,41.4961102 44.5612241,41.4267979 44.3535018,41.3723372 C44.1457794,41.3178765 43.9831077,41.2634168 43.8654816,41.2089561 C43.7478558,41.1544954 43.6690227,41.0950847 43.6289796,41.0307221 C43.5889369,40.9663595 43.5689159,40.8821941 43.5689159,40.778224 C43.5689159,40.6643517 43.5939423,40.5702847 43.6439959,40.4960202 C43.6940494,40.4217555 43.7578667,40.3598693 43.8354497,40.3103599 C43.9130327,40.2608501 43.9993737,40.2261938 44.0944757,40.20639 C44.1895774,40.186586 44.2846779,40.1766844 44.3797796,40.1766844 C44.5249348,40.1766844 44.6588264,40.1890614 44.7814576,40.2138165 C44.9040887,40.2385712 45.0129538,40.2806539 45.1080555,40.3400655 C45.2031572,40.3994771 45.279488,40.4811668 45.3370493,40.5851372 C45.394611,40.6891073 45.4283967,40.8203061 45.4384075,40.9787372 L46.5796233,40.9787372 C46.5796233,40.6717772 46.5208111,40.4106174 46.4031854,40.1952504 C46.2855593,39.9798832 46.1266416,39.8028888 45.9264274,39.6642617 C45.7262132,39.5256344 45.4972214,39.425379 45.2394456,39.3634919 C44.9816697,39.3016048 44.7126355,39.2706617 44.4323356,39.2706617 C44.1920783,39.2706617 43.951825,39.3028426 43.7115678,39.3672051 C43.4713105,39.4315677 43.2560834,39.5305854 43.0658797,39.6642617 C42.8756763,39.7979378 42.7217637,39.9650303 42.604138,40.1655448 C42.4865119,40.3660589 42.4277001,40.602464 42.4277001,40.8747674 C42.4277001,41.1173648 42.473999,41.3240646 42.566598,41.4948731 C42.6591969,41.6656812 42.7805753,41.8080196 42.9307359,41.9218919 C43.0808966,42.0357642 43.2510762,42.1285932 43.4412799,42.2003825 C43.6314832,42.2721715 43.8266893,42.3328199 44.0269038,42.3823297 C44.2221126,42.4367903 44.414816,42.4862992 44.6050197,42.530858 C44.7952231,42.5754165 44.9654027,42.6274011 45.1155636,42.6868127 C45.2657243,42.7462243 45.3871023,42.8204875 45.4797013,42.9096051 C45.5723006,42.9987224 45.6185995,43.1150684 45.6185995,43.2586466 C45.6185995,43.3923227 45.5835624,43.50248 45.5134875,43.5891221 C45.4434123,43.6757639 45.35582,43.7438388 45.2507074,43.7933485 C45.1455949,43.842858 45.0329761,43.8762765 44.9128476,43.8936051 C44.7927188,43.9109334 44.6801,43.9195976 44.5749875,43.9195976 C44.4198214,43.9195976 44.2696632,43.9010315 44.1245076,43.8638995 C43.9793524,43.8267671 43.852969,43.7698318 43.7453537,43.6930919 C43.6377385,43.6163517 43.5513975,43.5160963 43.4863277,43.3923221 C43.4212582,43.2685479 43.3887239,43.1175457 43.3887239,42.9393108 Z M48.2614148,42.9393108 L47.1201991,42.9393108 C47.1151937,43.2660746 47.1752572,43.5482756 47.300391,43.7859221 C47.4255249,44.0235686 47.5944532,44.2191288 47.8071809,44.3726089 C48.0199087,44.5260888 48.2651674,44.6387215 48.542965,44.7105108 C48.8207622,44.7822998 49.1073147,44.8181938 49.4026306,44.8181938 C49.7680217,44.8181938 50.0896112,44.7761111 50.3674085,44.6919448 C50.6452057,44.6077781 50.8779515,44.4901944 51.0656525,44.33919 C51.2533532,44.1881854 51.3947525,44.0087155 51.4898542,43.8007749 C51.5849562,43.5928341 51.6325062,43.3675686 51.6325062,43.1249712 C51.6325062,42.8279131 51.5686889,42.5840815 51.4410523,42.3934693 C51.3134157,42.2028571 51.1620058,42.0506171 50.9868184,41.9367448 C50.811631,41.8228725 50.6351946,41.7399451 50.4575044,41.6879599 C50.2798143,41.6359746 50.1409176,41.6000806 50.0408105,41.5802768 C49.7054516,41.4961102 49.4339151,41.4267979 49.2261927,41.3723372 C49.0184704,41.3178765 48.8557986,41.2634168 48.7381728,41.2089561 C48.6205468,41.1544954 48.5417136,41.0950847 48.5016709,41.0307221 C48.4616279,40.9663595 48.4416068,40.8821941 48.4416068,40.778224 C48.4416068,40.6643517 48.4666333,40.5702847 48.5166868,40.4960202 C48.5667404,40.4217555 48.6305579,40.3598693 48.708141,40.3103599 C48.785724,40.2608501 48.872065,40.2261938 48.9671667,40.20639 C49.0622687,40.186586 49.1573689,40.1766844 49.2524709,40.1766844 C49.3976261,40.1766844 49.5315173,40.1890614 49.6541485,40.2138165 C49.77678,40.2385712 49.8856448,40.2806539 49.9807465,40.3400655 C50.0758484,40.3994771 50.1521789,40.4811668 50.2097406,40.5851372 C50.2673023,40.6891073 50.3010879,40.8203061 50.3110985,40.9787372 L51.4523142,40.9787372 C51.4523142,40.6717772 51.3935021,40.4106174 51.2758763,40.1952504 C51.1582506,39.9798832 50.9993328,39.8028888 50.7991183,39.6642617 C50.5989041,39.5256344 50.3699124,39.425379 50.1121365,39.3634919 C49.8543606,39.3016048 49.5853268,39.2706617 49.3050268,39.2706617 C49.0647696,39.2706617 48.824516,39.3028426 48.5842587,39.3672051 C48.3440018,39.4315677 48.1287747,39.5305854 47.938571,39.6642617 C47.7483673,39.7979378 47.594455,39.9650303 47.4768289,40.1655448 C47.3592032,40.3660589 47.300391,40.602464 47.300391,40.8747674 C47.300391,41.1173648 47.3466899,41.3240646 47.4392889,41.4948731 C47.5318882,41.6656812 47.6532662,41.8080196 47.8034269,41.9218919 C47.9535878,42.0357642 48.1237674,42.1285932 48.3139708,42.2003825 C48.5041745,42.2721715 48.6993806,42.3328199 48.8995948,42.3823297 C49.0948036,42.4367903 49.2875069,42.4862992 49.4777106,42.530858 C49.6679143,42.5754165 49.8380939,42.6274011 49.9882546,42.6868127 C50.1384152,42.7462243 50.2597932,42.8204875 50.3523925,42.9096051 C50.4449915,42.9987224 50.4912904,43.1150684 50.4912904,43.2586466 C50.4912904,43.3923227 50.4562534,43.50248 50.3861785,43.5891221 C50.3161036,43.6757639 50.2285109,43.7438388 50.1233987,43.7933485 C50.0182862,43.842858 49.9056673,43.8762765 49.7855386,43.8936051 C49.6654101,43.9109334 49.5527913,43.9195976 49.4476787,43.9195976 C49.2925127,43.9195976 49.1423541,43.9010315 48.9971989,43.8638995 C48.8520433,43.8267671 48.7256599,43.7698318 48.6180447,43.6930919 C48.5104298,43.6163517 48.4240884,43.5160963 48.3590189,43.3923221 C48.2939491,43.2685479 48.2614148,43.1175457 48.2614148,42.9393108 Z M38.3116483,37.2729561 L49.9907573,37.2729561 C52.524762,37.2729561 54.5789787,39.304851 54.5789787,41.8113208 C54.5789787,44.3177905 52.524762,46.3496854 49.9907573,46.3496854 L38.3116483,46.3496854 C35.7776435,46.3496854 33.7234269,44.3177905 33.7234269,41.8113208 C33.7234269,39.304851 35.7776435,37.2729561 38.3116483,37.2729561 Z M38.3116483,36.4477986 C35.3169154,36.4477986 32.889205,38.8491294 32.889205,41.8113208 C32.889205,44.7735122 35.3169154,47.1748429 38.3116483,47.1748429 L49.9907573,47.1748429 C52.9854901,47.1748429 55.4132006,44.7735122 55.4132006,41.8113208 C55.4132006,38.8491294 52.9854901,36.4477986 49.9907573,36.4477986 L38.3116483,36.4477986 Z M18.0154589,34.1014699 C17.8402213,33.7113525 17.6662159,33.3207411 17.4971401,32.9276592 C17.0549794,31.8986294 16.6446127,30.8555167 16.2852649,29.7943683 C14.5200726,24.5820172 13.8055664,18.097523 18.2288988,13.9734976 C19.6384402,12.6591066 21.3804646,11.8190822 23.242518,11.3644808 C23.6933051,11.2542894 25.1208384,11.0929553 25.326638,11.0200708 C25.8240071,10.8429245 25.6122924,9.54731041 25.5294798,9.17745263 C25.0996425,7.25305562 22.5994872,6.53829371 20.8880248,6.70209848 C19.1139596,6.87183279 17.5787203,7.93965202 16.4006111,9.22414811 C15.3237996,10.3984527 14.475462,11.7904226 13.850177,13.2540415 C11.4357922,18.9039466 12.5931983,28.1355674 14.1587528,30.7309956 C13.7175779,30.0236456 12.745268,29.3854741 12.1387143,28.8080809 C11.5526172,28.2499589 10.9578938,27.7017196 10.3860918,27.1290204 C9.1848146,25.9263031 8.0702936,24.6190771 7.27075663,23.1087626 C6.13627185,20.9654651 5.30913064,18.5284063 5.29409618,16.0896178 C5.28522339,14.6783769 5.464158,13.0803541 6.25432923,11.8714602 C4.78169256,11.5873343 3.38496751,12.4347707 2.30963467,13.3553385 C1.06054301,14.4238989 -0.144184703,15.9537316 0.014046706,17.6817111 C0.189037851,19.59079 1.34866221,21.4133959 2.25590498,23.0551493 C4.0144427,26.2373594 6.48477531,28.9293902 9.26220507,31.2550225 C10.7639248,32.5123414 12.3906029,33.6266089 14.0902352,34.5970841 C15.2328532,35.2493383 16.7323548,36.0209256 18.0433095,35.3854717 C18.1633388,35.3276583 18.3866372,35.2434089 18.4221284,35.1033223 C18.4590983,34.9563182 18.3405481,34.7658303 18.2831213,34.6388383 C18.2005553,34.4565035 18.0975324,34.2840516 18.0154589,34.1014699 L18.0154589,34.1014699 Z M49.5867435,19.7626986 C50.1913256,18.600006 51.7383953,16.847814 51.2792285,15.4261963 C50.8979447,14.2469503 49.2057066,13.4988345 47.9760859,14.4866043 C46.376519,15.8106309 46.4679579,23.4938892 47.0368023,24.6227336 C47.3389701,25.8835112 49.3893242,26.8013615 50.2790677,25.5689965 C50.4432143,25.3416957 50.4343417,24.9656613 50.1893539,24.830022 C50.0370377,24.7455254 49.8502161,24.7773968 49.6757179,24.7672673 C48.8668152,24.7195834 48.6841838,23.010134 48.7108021,22.4164344 C48.7527013,21.4751131 49.1593711,20.5844402 49.5867435,19.7626986 L49.5867435,19.7626986 Z M42.8107172,25.7118252 C42.5442871,23.5831046 44.732662,20.5150391 44.6594614,18.0503088 C44.6249564,16.8797102 44.2993742,15.5000937 43.1799238,14.9063941 C43.0253894,14.8246153 42.8587782,14.7645782 42.6855123,14.7220829 C42.1703975,14.5955851 41.5944054,14.6217741 41.0891493,14.6709402 C40.4922078,14.7290007 39.9068503,14.8829228 39.3626522,15.1369067 C38.3452392,15.6117675 37.5299282,16.4053435 36.8129575,17.2545093 C36.4580459,17.6747685 36.1228518,18.1110871 35.7846998,18.544688 C35.8115646,18.5100987 35.5816116,18.1513588 35.5547468,18.1049105 C35.4667583,17.953459 35.3716221,17.8057135 35.2698315,17.6631564 C35.0674826,17.3795247 34.8382689,17.1139288 34.5809578,16.8792161 C34.1166151,16.4554979 33.5268212,16.1041701 32.8857621,16.0658748 C32.5352868,16.0448742 32.1813611,16.1199823 31.8621872,16.2652571 C31.6073411,16.381131 31.2859487,16.5585244 31.1385617,16.8073199 C30.9224107,17.1724834 31.0227226,17.6547562 31.1328931,18.0369673 C31.4742491,19.22239 32.1623834,20.2887266 32.6718293,21.4042297 C32.7250659,21.5210919 32.7768239,21.6384483 32.8258707,21.75704 C33.3505978,23.0220178 33.9847557,24.3092317 34.0586957,25.5882922 C34.1092213,26.4626587 33.5778398,27.6997183 34.3054084,27.8126273 C36.6734575,28.096259 36.0139135,24.0174466 36.5238524,21.880573 C36.9290431,20.1824885 37.9814547,18.9264048 39.6411592,18.3346817 C39.7932293,18.2805745 39.9682202,18.2701974 40.1119102,18.3435762 C40.2955275,18.4372142 40.3943606,18.6499381 40.4076698,18.8562382 C40.4744624,19.8983626 40.0337805,21.1408574 39.8331568,22.1624752 C39.5999994,23.3486391 39.3922284,24.5478974 39.3461391,25.7582735 C39.2591364,28.0525283 39.9371655,30.3821135 42.4397851,30.930106 C43.6696526,31.199408 44.8043838,31.2483269 45.7959179,30.3655602 C46.6777747,29.5801374 47.1933824,28.3514783 46.3857121,27.3182485 C44.729951,27.4143568 43.0490503,27.6134922 42.8107172,25.7118252 L42.8107172,25.7118252 Z M65.4089494,1.73533085 C69.7839743,1.66392879 61.6658643,13.0734362 58.2389955,12.97881 C59.7392364,9.29209124 63.2117016,1.76226105 65.4089494,1.73533085 L65.4089494,1.73533085 Z M60.5333511,29.1497733 C59.9783088,29.00351 59.4331252,28.8985072 58.9352633,28.6126518 C58.5608807,28.3974572 58.2205106,28.1254376 57.923765,27.8114168 C57.3275628,27.1796691 56.9174429,26.3937522 56.6396753,25.5752223 C56.2371957,24.3897999 56.0903016,23.1221042 56.0841401,21.8746681 C56.076746,20.2991282 56.2867354,18.7161763 56.6796028,17.1915322 C56.8585374,16.4970297 57.07666,15.8111745 57.3527024,15.1490376 C57.4574505,14.8970303 57.6802563,14.4404524 57.6802563,14.4404524 C57.6802563,14.4404524 58.599083,14.4046278 58.9342771,14.3438496 C62.4434658,13.7081488 65.554118,10.7791814 67.2744535,7.76942356 C68.4545345,5.70444599 69.6937674,2.34731331 67.1933659,0.714454168 C63.2693746,-1.84836135 59.7086747,3.11371201 58.1625909,5.67405688 C57.3019303,7.0991335 56.5906285,8.61068324 55.9458724,10.1444689 C55.670323,10.7991938 55.4080826,11.4591071 55.1502786,12.1209968 C55.0593326,12.3547213 54.7571648,13.0961663 54.7571648,13.0961663 C54.7571648,13.0961663 54.2750766,13.0151287 54.1466677,12.9835042 C53.8395706,12.9081491 53.536417,12.8125346 53.2426288,12.6954253 C52.4243604,12.3692982 51.4328263,11.8057407 51.1935074,10.8831962 C54.4572154,11.9833811 55.9613997,6.4483617 52.4258395,5.81686102 C50.3508388,5.53174688 49.1702646,7.26787959 49.3856762,9.19202953 C49.5113741,10.3142033 49.9466339,11.4862843 50.7323687,12.3137083 C51.4707821,13.0914721 52.4724214,13.5690506 53.4683921,13.9226021 C53.689719,14.001169 54.1377948,14.1422437 54.1377948,14.1422437 L54.3904228,14.2094457 C54.3904228,14.2094457 54.2807455,14.6269872 54.2509229,14.7302608 C54.0670591,15.3704088 53.8886172,16.0117921 53.7229918,16.6566343 C53.3791713,17.9942497 53.0915449,19.3489123 52.9264125,20.721117 C52.7662092,22.0490968 52.7425487,23.3778177 52.8357129,24.7109857 C53.0097182,27.2068462 53.4735681,30.3912797 55.482762,32.1234593 C56.4045463,32.9182708 58.1648091,33.4870168 59.2886961,32.7885612 C60.2703714,32.1783082 60.524725,30.8802234 60.8816083,29.8724414 C60.9543159,29.6668824 60.9658999,29.4040042 60.7992883,29.2639176 C60.724609,29.2011629 60.6275015,29.1747269 60.5333511,29.1497733 L60.5333511,29.1497733 Z M75.7210785,6.58508801 C76.9617902,7.12591548 73.4999234,15.9214648 66.1239237,18.4363496 C67.5073396,13.7089888 74.0014823,5.81893637 75.7210785,6.58508801 L75.7210785,6.58508801 Z M70.5650016,30.7896489 C70.1538955,30.6438802 69.7575777,30.4454862 69.3846739,30.2181854 C68.6760831,29.786067 68.0544949,29.2215212 67.551457,28.5608667 C66.4970739,27.17705 65.989353,25.4537648 65.7675334,23.7477742 C65.6344414,22.725168 65.6011686,21.6909497 65.6312374,20.6606847 C74.8170397,18.6930512 79.277835,8.56976912 77.8350206,6.07909685 C76.5248055,3.81696064 73.9065929,4.50405118 71.5863583,6.01090666 C70.0575273,7.00386488 64.2764115,11.0159695 62.6413536,19.4438847 C62.082368,19.5852063 61.5071153,19.5792767 60.9459112,19.4567321 C60.7268027,19.4088012 60.3970307,19.2230077 60.1776757,19.2973745 C59.9489546,19.3749531 59.8930069,19.6279487 59.9679327,19.8369666 C60.0460625,20.0548788 60.265171,20.1712468 60.4544572,20.2819324 C61.0250271,20.6154714 61.6855569,20.7983004 62.3337634,20.9025621 C61.8992433,24.7753217 63.1547432,31.029056 65.6312374,33.6356021 C66.4990456,34.5494992 67.7986629,34.8887209 69.0073341,34.5546877 C70.1208692,34.2463493 71.9540861,33.1241757 71.5269598,31.7277585 C71.3822842,31.2548743 71.0150493,30.9492537 70.5650016,30.7896489 L70.5650016,30.7896489 Z M80.8874823,23.2945069 C80.4963401,24.2365694 79.8429577,25.1190892 79.2011592,25.9015472 C78.5241162,26.7272417 77.7645066,27.5615837 76.7244185,27.6651043 C76.522809,27.6851167 76.3103549,27.6779517 76.085824,27.6374328 C74.889969,27.4224854 74.2585221,26.7410774 74.3260541,25.4847469 C74.3967898,24.1770267 74.9732748,22.9034014 75.9088611,21.9892574 C77.8076383,20.1332975 82.3537108,19.7634397 80.8874823,23.2945069 L80.8874823,23.2945069 Z M86.4766006,20.1609691 C85.0897342,19.962822 84.0994324,21.3189673 83.1478255,21.767392 C83.9685586,19.5650457 82.1235113,18.1449105 81.6692737,17.6895678 C75.3156165,13.4800575 66.3358601,24.6182865 70.8205626,28.9342823 C72.759267,30.4616441 75.8225979,30.8396552 77.9707991,29.1813482 C78.2727205,32.654602 85.0687845,33.1971589 85.1202959,29.7990131 C76.8451869,31.9353929 86.6281774,24.9819677 87.8324121,22.38481 C88.3172116,21.3399677 87.7153406,20.3371269 86.4766006,20.1609691 L86.4766006,20.1609691 Z M25.8265702,26.54424 C25.5317966,27.0339248 25.0935792,27.4215713 24.4604071,27.6365186 C21.9136699,28.5012498 20.7690799,25.6276251 20.7791851,23.7160755 C20.784854,22.6734572 21.1104358,21.4828462 21.8766999,20.7246005 C22.4950841,20.112618 23.5622837,19.7435016 24.4870255,19.8944589 C24.8273956,19.9502959 25.1372039,20.104218 25.3853954,20.3268245 C25.9135729,20.8006968 26.0565236,21.4620927 26.1681726,22.1140996 C26.2780967,22.7547417 26.3554871,23.4027958 26.3626348,24.0535677 C26.3720006,24.8935922 26.2776038,25.7948888 25.8265702,26.54424 L25.8265702,26.54424 Z M31.7272222,27.8707372 C31.2357682,27.6607312 30.7162171,27.3953823 30.3672206,26.9778409 C29.9672058,26.499274 29.725915,25.7007565 29.5706412,25.1028571 C29.1920689,23.6441793 29.301993,22.1165703 29.4131494,20.6304685 C29.4683577,19.8897645 29.5378611,19.1505431 29.6115546,18.4115686 C29.6716924,17.8094689 29.7365131,17.2081103 29.7919682,16.6057634 C29.821544,16.282354 29.8792173,15.934238 29.8454513,15.6086051 C29.844219,15.5982283 29.8429867,15.5878515 29.8412615,15.5774748 C29.6704601,14.5894579 28.3565479,14.1788342 27.3411062,14.9029846 C26.8412725,15.2590067 26.5847008,15.81787 26.4385464,16.3984751 C26.3641136,16.6954484 26.3143273,16.9978572 26.2628159,17.2995247 C26.214262,17.5834035 26.1891224,17.9087894 26.0833884,18.1783384 C26.0094485,18.3663556 25.9525146,18.1662322 25.8953345,18.0617232 C25.8260773,17.9359668 25.748194,17.8149045 25.6619307,17.7002658 C25.4980306,17.4821065 25.3035687,17.2874185 25.0864319,17.1223784 C24.643285,16.7853804 24.1126429,16.5785861 23.5652412,16.4898895 C23.1134682,16.4165109 22.6412388,16.3955103 22.1810859,16.4473941 C21.9291972,16.4758067 21.6807593,16.5262082 21.4414404,16.6018104 C19.6508621,17.1680856 18.6068304,19.0596229 18.0357678,20.7656136 C17.7666263,21.5700604 17.6066699,22.4100848 17.5374127,23.2548033 C17.4671699,24.11064 17.4893517,24.9746297 17.6027262,25.826019 C17.711418,26.64529 17.9046475,27.4559134 18.1989286,28.228736 C18.4683163,28.9368272 18.8239672,29.6179879 19.2934856,30.2141582 C20.2625915,31.444794 21.6819916,32.1439906 23.2583906,31.8114397 C25.011999,31.4418291 26.6517399,29.7000139 27.1860789,28.0244124 C27.2541035,27.8104531 27.2580472,27.3173096 27.5313782,27.4341718 C27.6743289,27.495197 27.9084718,28.1259565 28.0082907,28.2766666 C28.3624629,28.809341 28.8024055,29.2921078 29.352765,29.6256471 C30.2102216,30.1444857 33.0063826,30.6032872 32.7438961,28.8540598 C32.6544289,28.2581368 32.2105426,28.0772845 31.7272222,27.8707372 L31.7272222,27.8707372 Z"></path>
                </g>
            </g>
        </g>
    </g>
</svg>