<?xml version="1.0" encoding="UTF-8"?>
<svg width="160px" height="70px" viewBox="0 0 160 70" version="1.1" xmlns="http://www.w3.org/2000/svg" xmlns:xlink="http://www.w3.org/1999/xlink">
    <!-- Generator: Hyder A. - https://toggle.me -->
    <title>vbulletin</title>
    <desc>Created with Sketch.</desc>
    <defs></defs>
    <g id="technologies" stroke="none" stroke-width="1" fill="none" fill-rule="evenodd">
        <g id="Forums" transform="translate(-224.000000, -42.000000)">
            <g id="vbulletin" transform="translate(224.000000, 42.000000)">
                <rect id="Rectangle-Copy-2" fill-opacity="0.219999999" fill="#FFFFFF" x="0" y="0" width="160" height="70"></rect>
                <g id="Group" transform="translate(30.000000, 28.000000)" fill-rule="nonzero" fill="#184D66">
                    <polygon id="Shape" points="9.3 10 11.1 0.3 0.8 0.3 0.8 5 8.2 5"></polygon>
                    <polygon id="Shape" points="16.3 0.3 11.9 15.9 7.1 15.9 4.6 8.6 0.8 8.5 0.8 19.4 18.2 19.4 18.2 0.3"></polygon>
                </g>
                <g id="Group" transform="translate(50.000000, 22.000000)" fill-rule="nonzero" fill="#184D66">
                    <path d="M8.6,12.2 L8.6,12.2 C9.5,11.7 10.2,11.1 10.8,10.1 C11.4,9.1 11.7,7.9 11.7,6.6 C11.7,4.8 10.4,3.1 9.4,2.3 C8.3,1.5 6.2,0.8 4.5,0.8 L0.5,0.8 L0.5,25.4 L4.9,25.4 C6.7,25.4 8.8,24.8 10,23.4 C11.2,22.2 12.4,20.3 12.4,18 C12.4,16.5 12.1,15.1 11.4,14.1 C10.6,13.1 9.7,12.4 8.6,12.2 Z M4,4.9 L5,4.9 C6.7,4.9 7.9,5.8 7.9,7.6 C7.9,8.6 7.7,9.3 7.3,9.9 C6.9,10.5 6,10.7 5.3,10.7 L4,10.7 L4,4.9 Z M7.9,20.4 C7.4,21 6.5,21.3 5.7,21.3 L4,21.3 L4,14.8 L5.7,14.8 C6.5,14.8 7.5,15.1 7.9,15.6 C8.4,16.2 8.6,16.9 8.6,17.9 C8.6,19 8.3,19.9 7.9,20.4 Z" id="Shape"></path>
                    <path d="M21.9,17.9 C21.9,19.1 21.7,20 21.3,20.7 C20.9,21.4 20.4,21.7 19.8,21.7 C18.5,21.7 17.9,20.5 17.9,18 L17.9,7.9 L14.4,7.9 L14.4,18.5 C14.4,23.4 15.6,25.2 18.3,25.5 C19.7,25.7 20.9,24.8 21.8,22.8 L21.9,22.8 L21.9,25.5 L25.4,25.5 L25.4,7.9 L21.9,7.9 L21.9,17.9 L21.9,17.9 Z" id="Shape"></path>
                    <rect id="Rectangle-path" x="28.3" y="1.6" width="3.5" height="23.9"></rect>
                    <rect id="Rectangle-path" x="34.7" y="1.6" width="3.5" height="23.9"></rect>
                    <path d="M46.1,7.4 C44.5,7.4 43.2,8.3 42.1,10 C41,11.7 40.5,14 40.5,16.9 C40.5,19.7 41,21.9 42,23.5 C43,25.1 44.4,25.9 46.3,25.9 C48,25.9 49.3,25.5 50.4,24.6 L50.4,20.7 C49.5,21.6 48.4,22.1 47.1,22.1 C45.1,22.1 44.1,20.8 44,18.3 L51.4,18.3 L51.4,16 C51.4,13.4 50.9,11.3 50,9.8 C49,8.2 47.8,7.4 46.1,7.4 Z M43.9,14.9 C44,13.8 44.2,12.9 44.6,12.2 C45,11.5 45.5,11.1 46.1,11.1 C47.4,11.1 48.1,12.4 48.1,14.9 C48,14.9 43.9,14.9 43.9,14.9 Z" id="Shape"></path>
                    <path d="M57.7,1.6 L54.2,1.6 L54.2,7.9 L52.4,7.9 L52.4,11.9 L54.2,11.9 L54.2,19.9 C54.2,23.9 55.4,25.9 57.9,25.9 C58.9,25.9 59.7,25.7 60.2,25.3 L60.2,21.3 C59.8,21.6 59.4,21.8 59.1,21.8 C58.2,21.8 57.7,20.9 57.7,19.1 L57.7,12 L60.2,12 L60.2,8 L57.7,8 L57.7,1.6 L57.7,1.6 Z" id="Shape"></path>
                    <rect id="Rectangle-path" x="62.2" y="7.9" width="3.5" height="17.6"></rect>
                    <path d="M75.7,7.4 C74.1,7.4 72.9,8.5 72.1,10.6 L72.1,10.6 L72.1,7.9 L68.6,7.9 L68.6,25.5 L72.1,25.5 L72.1,15.5 C72.1,14.4 72.3,13.5 72.7,12.8 C73.1,12.1 73.6,11.7 74.2,11.7 C75.5,11.7 76.1,13.1 76.1,15.8 L76.1,25.6 L79.6,25.6 L79.6,14.7 C79.5,9.8 78.2,7.4 75.7,7.4 Z" id="Shape"></path>
                    <rect id="Rectangle-path" x="62.1" y="1.6" width="3.5" height="3.5"></rect>
                </g>
            </g>
        </g>
    </g>
</svg>