<?xml version="1.0" encoding="UTF-8"?>
<svg width="160px" height="70px" viewBox="0 0 160 70" version="1.1" xmlns="http://www.w3.org/2000/svg" xmlns:xlink="http://www.w3.org/1999/xlink">
    <!-- Generator: Hyder A. - https://toggle.me -->
    <title>volusion</title>
    <desc>Created with Sketch.</desc>
    <defs></defs>
    <g id="technologies" stroke="none" stroke-width="1" fill="none" fill-rule="evenodd">
        <g id="Ecommerce" transform="translate(-416.000000, -337.000000)">
            <g id="volusion" transform="translate(416.000000, 337.000000)">
                <rect id="Rectangle" fill="#FFFFFF" x="-5.68434189e-14" y="0" width="160" height="70"></rect>
                <path d="M32.7098266,38.5486189 L28.1082696,31 L23.4721145,31 C21.569215,31 20.3928771,32.9606802 21.3270278,34.4965464 L28.2466623,45.8358139 C29.180813,47.3716801 31.5680869,47.4043581 32.5368357,45.8358139 L37,38.5486189 C36.0658493,40.1171631 33.6785754,40.0844851 32.7098266,38.5486189 Z" id="Shape" fill="#8759F2" fill-rule="nonzero"></path>
                <path d="M36.6810791,31 L28,31 L32.3242828,38.7974395 C33.2021448,40.3839315 35.4455697,40.4176867 36.3559451,38.7974395 L38.6969102,34.611801 C39.5747721,32.9915538 38.436803,31 36.6810791,31 L36.6810791,31 Z" id="Shape" fill="#FF3E80" fill-rule="nonzero"></path>
                <path d="M40.635358,24 L27.364642,24 C25.544469,24 24.4192711,25.9666667 25.3128106,27.5666667 L27.5301123,31.4333333 L36.3662249,31.4333333 C38.1863979,31.4333333 39.3115958,33.4333333 38.4180563,35 L42.6871894,27.5666667 C43.5807289,26 42.455531,24 40.635358,24 Z" id="Shape" fill="#FFC300" fill-rule="nonzero"></path>
                <path d="M25.6071429,27.2286996 C25.1428322,26.5418437 25.1428322,25.6868558 25.6071429,25 L21,32 C21.4642857,31.309417 22.2857143,30.8699552 23.2142857,30.8699552 L28,30.8699552 L25.6071429,27.2286996 Z" id="Shape" fill="#00D4E6" fill-rule="nonzero"></path>
                <path d="M125.600293,30.8524904 C121.940545,30.8524904 119.060187,33.5555556 119.060187,36.9099617 C119.060187,40.2643678 121.872771,42.967433 125.600293,42.967433 C129.327814,42.967433 132.140398,40.2643678 132.140398,36.9099617 C132.140398,33.5555556 129.260041,30.8524904 125.600293,30.8524904 Z M125.600293,40.5249042 C123.533213,40.5249042 122.008318,38.9291188 122.008318,36.9425287 C122.008318,34.9559387 123.600986,33.3601533 125.600293,33.3601533 C127.5996,33.3601533 129.192268,34.9559387 129.192268,36.9425287 C129.192268,38.9291188 127.633486,40.5249042 125.600293,40.5249042 Z M82.8354577,26.1954023 L81.7849744,26.1954023 C81.1072433,26.1954023 80.7683777,26.5210728 80.7683777,27.1724138 L80.7683777,41.7298851 C80.7683777,42.3812261 81.1072433,42.7068966 81.7849744,42.7068966 L82.8354577,42.7068966 C83.5131889,42.7068966 83.8520544,42.3812261 83.8520544,41.7298851 L83.8520544,27.1724138 C83.8520544,26.5210728 83.5131889,26.1954023 82.8354577,26.1954023 Z M115.569872,31.1455939 L114.519389,31.1455939 C113.841657,31.1455939 113.502792,31.4712644 113.502792,32.1226054 L113.502792,41.7624521 C113.502792,42.4137931 113.841657,42.7394636 114.519389,42.7394636 L115.569872,42.7394636 C116.247603,42.7394636 116.586469,42.4137931 116.586469,41.7624521 L116.586469,32.1226054 C116.586469,31.4712644 116.213716,31.1455939 115.569872,31.1455939 Z M63.1812546,31.1130268 L62.1985445,31.1130268 C61.5208133,31.1130268 61.2158343,31.3409962 60.9786284,31.9597701 L58.0982711,39.4827586 L55.2179137,31.9597701 C54.9807078,31.3409962 54.6757288,31.1130268 53.9979977,31.1130268 L52.981401,31.1130268 C52.3375564,31.1130268 51.7614849,31.3735632 52.1003505,32.2203065 L56.0650777,41.697318 C56.4039432,42.5440613 56.7428088,42.7068966 57.4544265,42.7068966 L58.7082291,42.7068966 C59.4198468,42.7068966 59.7587124,42.5114943 60.097578,41.697318 L64.0623051,32.2203065 C64.4011707,31.3735632 63.8250992,31.1130268 63.1812546,31.1130268 L63.1812546,31.1130268 Z M97.4744503,31.1455939 L96.4239671,31.1455939 C95.7462359,31.1455939 95.4073704,31.4712644 95.4073704,32.1226054 L95.4073704,36.9750958 C95.3057107,39.2873563 93.9163619,40.5249042 92.222034,40.5249042 C90.8665717,40.5249042 90.1210675,39.3850575 90.1210675,37.6590038 L90.1210675,32.1226054 C90.1210675,31.4712644 89.7822019,31.1455939 89.1044708,31.1455939 L88.0539875,31.1455939 C87.3762564,31.1455939 87.0373908,31.4712644 87.0373908,32.1226054 L87.0373908,37.8869732 C87.0373908,39.9386973 87.9862144,43 91.5104163,43 C94.3230005,43 95.204051,41.2413793 95.4073704,40.6551724 L95.4073704,41.7624521 C95.4073704,42.4137931 95.7462359,42.7394636 96.4239671,42.7394636 L97.4744503,42.7394636 C98.1521815,42.7394636 98.4910471,42.4137931 98.4910471,41.7624521 L98.4910471,32.1226054 C98.4910471,31.4712644 98.1521815,31.1455939 97.4744503,31.1455939 Z M135.56294,42.7394636 L136.613424,42.7394636 C137.291155,42.7394636 137.63002,42.4137931 137.63002,41.7624521 L137.63002,36.8773946 C137.73168,34.5651341 139.121029,33.3275862 140.815357,33.3275862 C142.170819,33.3275862 142.916323,34.467433 142.916323,36.1934866 L142.916323,41.7298851 C142.916323,42.3812261 143.255189,42.7068966 143.93292,42.7068966 L144.983403,42.7068966 C145.661134,42.7068966 146,42.3812261 146,41.7298851 L146,35.9655172 C146,33.9137931 145.051176,30.8524904 141.526974,30.8524904 C138.71439,30.8524904 137.83334,32.6111111 137.63002,33.197318 L137.63002,32.1226054 C137.63002,31.4712644 137.291155,31.1455939 136.613424,31.1455939 L135.56294,31.1455939 C134.885209,31.1455939 134.546344,31.4712644 134.546344,32.1226054 L134.546344,41.7624521 C134.546344,42.4137931 134.919096,42.7394636 135.56294,42.7394636 Z M116.959221,27.7260536 C116.959221,28.6704981 116.247603,29.4521073 115.027687,29.4521073 C113.807771,29.4521073 113.096153,28.6704981 113.096153,27.7260536 C113.096153,26.7816092 113.841657,26 115.027687,26 C116.213716,26 116.959221,26.7816092 116.959221,27.7260536 Z M110.148023,32.6762452 C110.215796,32.4482759 110.215796,32.2203065 110.114136,31.9923372 C110.012476,31.7969349 109.809157,31.6340996 109.605838,31.5689655 C108.657014,31.243295 107.369325,30.8524904 105.878316,30.8524904 C103.235165,30.8524904 101.405291,32.2854406 101.303631,34.1417625 C101.235858,35.6398467 102.116909,36.6168582 103.235165,37.2030651 C104.556741,37.8869732 106.081636,38.1149425 106.759367,38.3429119 C107.470985,38.6034483 107.843737,38.8965517 107.877623,39.4827586 C107.877623,40.0689655 107.301552,40.5900383 106.115522,40.5900383 C104.624514,40.5900383 103.370711,40.1015326 102.557434,39.7758621 C102.116909,39.5804598 101.60861,39.743295 101.371404,40.1666667 L101.134199,40.7854406 C100.930879,41.2088123 101.100312,41.697318 101.506951,41.9252874 C102.388001,42.3812261 104.048442,43 105.979976,43 C108.961993,43 110.757981,41.4693487 110.757981,39.4501916 C110.757981,38.5383142 110.453002,37.4310345 108.860334,36.6168582 C108.01317,36.1609195 105.674997,35.7375479 104.895606,35.3141762 C104.353421,35.0536398 104.116216,34.6302682 104.183989,34.1743295 C104.251762,33.5229885 104.895606,33.2298851 105.708884,33.164751 C107.030459,33.0996169 107.979283,33.5229885 108.928107,33.7509579 C109.368632,33.848659 109.809157,33.5881226 109.944703,33.197318 L110.148023,32.6762452 L110.148023,32.6762452 Z M71.6528939,30.8524904 C67.9931457,30.8524904 65.1127884,33.5555556 65.1127884,36.9099617 C65.1127884,40.2643678 67.9253726,42.967433 71.6528939,42.967433 C75.3804152,42.967433 78.1929994,40.2643678 78.1929994,36.9099617 C78.1929994,33.5555556 75.3126421,30.8524904 71.6528939,30.8524904 Z M71.6528939,40.5249042 C69.5858139,40.5249042 68.0609189,38.9291188 68.0609189,36.9425287 C68.0609189,34.9559387 69.653587,33.3601533 71.6528939,33.3601533 C73.6522008,33.3601533 75.2448689,34.9559387 75.2448689,36.9425287 C75.2448689,38.9291188 73.7199739,40.5249042 71.6528939,40.5249042 Z" id="Shape" fill="#221B43" fill-rule="nonzero"></path>
            </g>
        </g>
    </g>
</svg>