<?xml version="1.0" encoding="UTF-8"?>
<svg width="160px" height="70px" viewBox="0 0 160 70" version="1.1" xmlns="http://www.w3.org/2000/svg" xmlns:xlink="http://www.w3.org/1999/xlink">
    <!-- Generator: Sketch 47.1 (45422) - http://www.bohemiancoding.com/sketch -->
    <title>vuejs</title>
    <desc>Created with Sketch.</desc>
    <defs></defs>
    <g id="technologies" stroke="none" stroke-width="1" fill="none" fill-rule="evenodd">
        <g id="Javascript-frameworks" transform="translate(-224.000000, -138.000000)">
            <g id="vuejs" transform="translate(224.000000, 138.000000)">
                <rect id="Rectangle-Copy-5" fill="#FFFFFF" x="0" y="0" width="160" height="70"></rect>
                <g transform="translate(33.000000, 20.000000)" id="Shape" fill-rule="nonzero">
                    <polygon fill="#4DBA87" points="21.5443227 0 17.4979949 7.16878419 13.4516671 0 0 0 17.4979949 31 35 0"></polygon>
                    <polygon fill="#435466" points="21.5473068 0 17.5 7.32338235 13.4526932 0 7 0 17.5 19 28 0"></polygon>
                    <path d="M51.5490604,3.01229368 C51.2211048,2.98712067 50.9163698,3.1834677 50.8028176,3.49311326 L46.4451955,18.3466135 L42.0521677,3.49311326 C41.9527594,3.16801366 41.6531729,3.01775754 41.2800515,3.01775754 C40.7353487,3.01775754 40,3.36744451 40,3.89197496 C40.0018658,3.96078182 40.0156909,4.02873389 40.0408527,4.09277177 L45.1474411,20.7165623 C45.2972344,21.2083096 45.8419372,21.4405236 46.4138751,21.4405236 C47.0130481,21.4405236 47.5577509,21.19465 47.7347793,20.7165623 L52.800515,4.07911212 C52.8064295,4.01947544 52.8155209,3.96019891 52.8277501,3.90153671 C52.8277501,3.39612977 52.1332541,3 51.5340811,3 L51.5490604,3.01229368 Z M62.5697591,9.43232783 C61.9978212,9.43232783 61.5212063,9.7820148 61.5212063,10.1562891 L61.5212063,16.6856005 C61.5212063,18.1881616 60.2506871,19.6087649 58.6805813,19.6087649 C57.0846022,19.6087649 55.8208918,18.1608423 55.8208918,16.6856005 L55.8208918,10.1863404 C55.8208918,9.81070006 55.3224888,9.43505976 54.7995741,9.43505976 C54.2004011,9.43505976 53.7510213,9.81206602 53.7510213,10.1863404 L53.7510213,16.6883324 C53.7510213,19.2153671 55.9706851,21.4896983 58.6887519,21.4896983 C61.3577954,21.4896983 63.5992473,19.2385885 63.5992473,16.6883324 L63.5992473,10.163119 C63.5992473,9.78884462 63.1771027,9.43915766 62.5779296,9.43915766 L62.5697591,9.43232783 Z M73.5141994,15.9589072 C74.6362871,15.9589072 75.7338632,15.8837792 75.7338632,13.8826409 C75.7338632,11.208082 73.4869643,9.28343768 70.9459259,9.28343768 C68.2033474,9.28343768 65.9850454,11.4553216 65.9850454,14.0096756 L65.9850454,16.6323278 C65.9850454,19.528173 68.2864146,21.4815026 71.5273961,21.4815026 C73.9513234,21.4815026 75.4764911,20.3477518 75.4764911,19.7057484 C75.4764911,19.3232783 75.1360519,18.7495731 74.6322018,18.7495731 C74.0166877,18.7495731 73.488326,19.7194081 71.6227191,19.7194081 C69.5528485,19.7194081 68.0821511,18.5446784 68.0821511,16.6869664 L68.0821511,15.9356858 L73.5141994,15.9589072 Z M68.0535542,13.6586227 C68.0535542,12.1328401 69.3513085,10.9266932 70.9214142,10.9266932 C72.4835355,10.9229041 73.7544019,12.1873135 73.7634009,13.7542402 C73.7634009,14.4030734 73.538711,14.5533295 72.6739954,14.5533295 L68.0535542,14.5533295 L68.0535542,13.6586227 Z M78.7746664,18.8083096 C78.0530268,18.8083112 77.467883,19.3948577 77.4673829,20.118727 C77.4668828,20.8425963 78.0512156,21.4299558 78.7728545,21.4309606 C79.4944934,21.4319655 80.0804496,20.8462355 80.081953,20.1223677 C80.0826763,19.7741093 79.9452641,19.4398661 79.7000219,19.1933535 C79.4547796,18.946841 79.1218527,18.8083089 78.7746664,18.8083096 L78.7746664,18.8083096 Z M83.4618337,9.43232783 C82.8626606,9.43232783 82.440516,9.73284007 82.440516,10.1562891 L82.440516,22.2860558 C82.440516,23.9620945 82.2634876,25.1873648 80.8690485,25.1873648 C80.4060512,25.1873648 80.0247592,25.5630051 80.0247592,26.1121229 C80.0247592,26.5492316 80.2971106,27 81.1005472,27 C83.4972393,27 84.518557,25.0466705 84.518557,22.2737621 L84.518557,10.1590211 C84.518557,9.735572 84.0555597,9.43505976 83.4700042,9.43505976 L83.4618337,9.43232783 Z M83.4618337,3.80455322 C82.7401025,3.80455322 82.1654411,4.3509391 82.1654411,4.97928287 C82.1654411,5.60762664 82.737379,6.18133182 83.4618337,6.18133182 C84.160415,6.18133182 84.7337146,5.60762664 84.7337146,4.97928287 C84.7337146,4.3509391 84.1481592,3.812749 83.4536631,3.812749 L83.4618337,3.80455322 Z M88.8952438,12.7079112 C88.8952438,11.9566306 89.4944168,10.9567445 91.1652925,10.9567445 C92.6114784,10.9567445 93.3849563,11.6807057 93.8343361,11.6807057 C94.3313774,11.6807057 94.6513902,10.9567445 94.6513902,10.6316448 C94.6513902,9.93090495 92.8811062,9.27933978 91.1353339,9.27933978 C88.1394687,9.27933978 87.0500631,11.1315879 87.0500631,12.7816733 C87.0500631,16.934206 93.1330313,15.2076266 93.1330313,18.2318725 C93.1330313,19.0336938 92.5610934,19.8081958 90.7635742,19.8081958 C88.5711456,19.8081958 88.0400604,18.6334661 87.4749313,18.6334661 C87.0527866,18.6334661 86.7532001,19.2071713 86.7532001,19.5896414 C86.7532001,20.4365396 88.4472257,21.4883324 90.8384709,21.4883324 C93.5047909,21.4883324 95,20.187934 95,18.1376209 C95,13.6162777 88.8952438,15.269095 88.8952438,12.714741 L88.8952438,12.7079112 Z" fill="#2C3E50"></path>
                </g>
            </g>
        </g>
    </g>
</svg>