<?xml version="1.0" encoding="UTF-8"?>
<svg width="160px" height="70px" viewBox="0 0 160 70" version="1.1" xmlns="http://www.w3.org/2000/svg" xmlns:xlink="http://www.w3.org/1999/xlink">
    <!-- Generator: Sketch 47.1 (45422) - http://www.bohemiancoding.com/sketch -->
    <title>weebly</title>
    <desc>Created with Sketch.</desc>
    <defs></defs>
    <g id="technologies" stroke="none" stroke-width="1" fill="none" fill-rule="evenodd">
        <g id="Artboard" transform="translate(-403.000000, -154.000000)">
            <g id="weebly" transform="translate(403.000000, 154.000000)">
                <rect id="container" fill="#FFFFFF" x="0" y="0" width="160" height="70"></rect>
                <g transform="translate(27.000000, 16.000000)" id="Shape" fill-rule="nonzero" fill="#1F8EED">
                    <path d="M61.4760489,4.49513791 C61.7715916,2.35519984 63.4433235,0.461103225 65.5561804,0.10072201 C67.6304524,-0.335087831 69.912699,0.687668469 70.9331424,2.59824764 C71.800615,4.05094711 71.6993643,5.81374204 71.6829452,7.4508226 C74.4085059,7.06809216 77.2569357,7.78885459 79.4026306,9.57120509 C79.4245227,7.96764837 79.3202618,6.35850434 79.4628338,4.75802064 C79.6653353,2.52002536 81.386598,0.511668341 83.570604,0.11496964 C85.7239611,-0.365818012 88.1241511,0.692976409 89.1612871,2.6990985 C90.0123407,4.1797345 89.8645694,5.94532309 89.8590964,7.58799095 C91.3671852,7.43126703 92.9762511,7.73577518 94.1502125,8.76942673 C95.3381301,9.724856 95.8328905,11.2362222 96.320536,12.6358422 C96.7857421,11.4429525 97.16338,10.1522849 98.0554812,9.20551594 C99.5548132,7.54608616 102.149295,7.06278422 104.11958,8.09084846 C105.698818,8.85630933 106.927236,10.4738343 106.987165,12.295296 C107.099089,13.7507891 106.456557,15.0917424 105.933337,16.4019656 C103.571731,22.3608271 101.215599,28.3252759 98.8539939,34.2841374 C98.3860512,35.4714398 97.6170928,36.5693454 96.5389092,37.2507173 C94.8176465,38.3712514 92.4779333,38.1756957 90.8031912,37.0582346 C89.4103093,36.1332562 88.5455731,34.415439 88.7179731,32.7168981 C88.8824371,31.1552462 89.1749697,29.6106355 89.4705124,28.0710535 C88.6635166,29.8506103 86.9531999,31.2309542 84.9911246,31.2896209 C82.9329979,31.4991449 80.9605239,30.2724519 79.9803072,28.4596506 C77.2191719,31.211678 72.826805,32.141685 69.296985,30.4375568 C67.8822111,31.1164144 66.2126683,31.3706368 64.7272925,30.7755888 C63.7859342,30.4456584 63.0525504,29.7360706 62.3873056,29.0100002 C58.9310977,31.211678 54.4922101,32.0020024 50.6014449,30.608249 C48.80356,29.9827501 47.2163861,28.8370731 45.9493835,27.4067228 C43.5382475,30.1668518 39.7673412,31.3035892 36.2375213,31.2985606 C32.3213065,31.2954876 28.4901971,29.1139241 26.547551,25.6190644 C25.9728846,27.4796372 25.1738247,29.460337 23.447089,30.4937092 C21.3700804,31.7732022 18.4365452,31.5471957 16.6714984,29.803677 C16.1159875,29.2753972 15.7356131,28.5968189 15.3525021,27.9350026 C14.8328395,28.9826224 14.1183376,29.9685025 13.0894111,30.5414807 C10.9823009,31.7592339 8.06764766,31.4910433 6.32750305,29.722661 C5.43813837,28.8541144 4.89631005,27.6972627 4.49678007,26.5239285 C3.19420288,22.7524972 1.86699713,18.9894469 0.567156451,15.2180155 C0.00918273535,13.6088715 -0.330144095,11.7343305 0.488071407,10.153123 C1.81527716,7.46004165 5.54759864,6.56327909 7.99157277,8.18359773 C9.1269494,8.87921729 9.85239733,10.080488 10.2571267,11.3432191 C10.6648662,10.2316246 11.2340596,9.1253381 12.2003201,8.41575028 C14.2031693,6.88482853 17.3121146,7.0468604 19.0714147,8.89625857 C19.7476055,9.57232255 20.1441254,10.4634978 20.4752427,11.3518794 C20.9267663,9.84330688 21.9286014,8.46044873 23.3762134,7.83187684 C25.5708918,6.81219356 28.3320271,7.53016234 29.8152137,9.46337009 C32.209657,7.7114704 35.2909636,6.99657465 38.1889242,7.56927348 C41.0622562,8.0888929 43.5907884,9.91594185 45.2764765,12.312896 C46.899225,9.97153554 49.3207598,8.15873422 52.1067972,7.60810525 C55.3577672,6.89041584 58.8577593,7.83187684 61.389028,10.0190276 C61.4237816,8.17717233 61.2817569,6.32777416 61.4760489,4.49513791 L61.4760489,4.49513791 Z M64.2861676,5.5734879 C64.2724851,12.1078419 64.2891778,18.6419165 64.2782317,25.1734768 C64.2809682,25.9001059 64.3277625,26.6848429 64.7847591,27.279891 C65.4631391,28.2576695 66.9164978,28.4227744 67.8797482,27.8053771 C68.4215765,27.4782403 68.6243517,26.8357002 68.8813097,26.2909379 C70.9200071,29.1264955 75.2737893,28.8471302 77.6518136,26.6180746 C81.2202184,23.4162691 81.4886697,17.5526712 79.0258136,13.5881985 C77.8570516,11.6438161 75.7201135,10.3307993 73.4734415,10.3000691 C71.7768074,10.2020119 70.1321669,10.8615933 68.7827954,11.8782036 C68.7639135,9.62400513 68.8481979,7.36366063 68.7472208,5.11197645 C68.7086361,3.76543579 67.3956602,2.66753023 66.0928093,2.99159395 C64.9076283,3.17653377 64.2235016,4.42529658 64.2861676,5.5734879 L64.2861676,5.5734879 Z M83.6745912,3.15418455 C82.6401917,3.59250868 82.2297157,4.79685241 82.2926553,5.86402779 C82.3033277,12.4877786 82.2786991,19.1115295 82.3033277,25.7322073 C82.2291684,26.9924241 83.1242797,28.3104695 84.4271306,28.3557267 C85.7598093,28.5429014 86.9583993,27.3304561 86.9392437,25.9922964 C86.9997205,19.4747044 86.9337707,12.9543187 86.9720818,6.43672662 C86.9641459,5.55113867 87.0131294,4.56218557 86.43299,3.83304219 C85.817276,2.98097807 84.6019933,2.72116836 83.6745912,3.15418455 Z M2.95038013,11.80054 C2.74514213,12.9708012 3.27055142,14.099437 3.62055062,15.1892409 C4.89849925,18.8179166 6.14087329,22.4608399 7.42703144,26.0872806 C7.81287889,27.230164 8.72960863,28.3163362 9.99934774,28.3392441 C11.2663503,28.5124506 12.4786228,27.6296563 12.8288957,26.3979348 C13.7045778,23.7498313 14.4981647,21.0704389 15.3656374,18.418983 C16.1677075,20.9081276 16.9448754,23.4059326 17.7302528,25.9034582 C17.995694,26.7356874 18.3788049,27.6299357 19.1833379,28.0514979 C20.1687539,28.5484887 21.4874765,28.4786474 22.3139015,27.6939103 C22.9129228,27.1323861 23.2221481,26.3417824 23.4957988,25.5819088 C24.8342242,21.7040393 26.2049404,17.8376238 27.5430922,13.9600337 C27.8577904,13.0995886 28.0082983,12.0575561 27.4557976,11.2613651 C26.5034933,9.8254275 23.9585421,10.0405388 23.4273861,11.7614289 C22.4094056,14.9601614 21.5175781,18.2038717 20.526689,21.4109851 C19.5062457,18.2318082 18.6001883,15.0137995 17.5493697,11.8455179 C17.1142652,10.331358 15.1330343,9.85951006 13.9508634,10.7423044 C13.4008256,11.1582793 13.1627495,11.8485909 12.9523121,12.4852644 C12.0383189,15.4605046 11.1380082,18.4388179 10.2048594,21.4079121 C9.25529157,18.2985765 8.35771737,15.172479 7.41635907,12.0631434 C7.01682909,9.86733229 3.5907227,9.72206234 2.95038013,11.80054 Z M30.4577455,12.8118424 C27.5217474,15.8848605 27.0973152,21.0391499 29.3740888,24.6208922 C30.4686915,26.3641316 32.2638399,27.6017198 34.2259152,28.0825074 C36.7352918,28.7029777 39.4307509,28.2526409 41.7184705,27.0795861 C42.5777336,26.609973 43.4670983,26.0319663 43.9131489,25.1128545 C44.57812,23.8029107 43.1606096,22.0227951 41.7677276,22.4669859 C40.684071,22.8497163 39.7673412,23.5986947 38.6809481,23.9811457 C37.0636726,24.5764732 35.0851783,24.3638762 33.7582462,23.2017166 C33.0930014,22.642986 32.8141514,21.7828203 32.5785382,20.9698674 C35.990962,20.9251689 39.4061224,21.0145658 42.8158097,20.9304768 C43.6994277,20.9475181 44.4248756,20.168089 44.4440312,19.282501 C44.6656882,15.0193868 41.299785,10.8289076 37.1099196,10.3735422 C34.6774388,10.0656816 32.1352241,10.9847934 30.4577455,12.8118424 L30.4577455,12.8118424 Z M49.4190004,12.0687307 C46.5484048,14.3815959 45.4510657,18.5332434 46.4279986,22.0811824 C47.013611,24.3747714 48.5624738,26.4225189 50.6723204,27.4477895 C53.5344328,28.8809334 57.0045969,28.5258602 59.8065061,27.1178591 C60.720773,26.6231032 61.6864862,26.0115726 62.1188543,25.0058576 C62.6661556,23.6897677 61.2623277,22.013576 59.9020102,22.4720145 C58.936297,22.8212211 58.104399,23.4609676 57.1597569,23.8517996 C55.520863,24.5868097 53.4545268,24.444054 52.0288068,23.2961421 C51.3036325,22.7343385 50.9859241,21.835341 50.7317026,20.9771308 C54.1249709,20.9184641 57.5212494,21.0106547 60.9142441,20.9355054 C61.8172913,20.9718229 62.5917227,20.2007747 62.5996585,19.2816629 C62.8106432,15.3146759 59.9260915,11.4203239 56.1363034,10.5210471 C53.8190295,9.9790784 51.2716154,10.529428 49.4190004,12.0687307 L49.4190004,12.0687307 Z M88.701554,11.8647941 C88.4169573,12.5995248 88.6766518,13.3929222 88.9423666,14.0885417 C90.6009633,18.2566717 92.2371207,22.4331827 93.8869606,26.6041064 C93.2493545,28.229733 92.5928665,29.8472579 91.952524,31.4706496 C91.6977552,32.1690628 91.4241045,32.9596666 91.7035019,33.6943972 C92.1221874,34.7948171 93.4655385,35.2532555 94.5251139,34.9822712 C95.4886379,34.6917313 95.9784726,33.7027782 96.320536,32.8199839 C98.8271761,26.4420745 101.369391,20.0753397 103.878767,13.6977097 C104.330017,12.7087566 104.094951,11.3929461 103.096127,10.8562854 C101.930375,10.0547864 100.171075,10.6327932 99.6973852,11.9879942 C98.5070048,14.9604408 97.3932466,17.9661318 96.2274947,20.9500324 C95.2122508,18.136824 94.1939966,15.3233363 93.1924352,12.5048199 C92.9297305,11.756121 92.5113186,10.9683109 91.7368872,10.6805646 C90.6280547,10.1718404 89.1804427,10.7221901 88.701554,11.8647941 L88.701554,11.8647941 Z M33.9358455,15.2339394 C33.2845569,15.8929621 33.0245887,16.8148675 32.8029317,17.6951475 C35.2767338,17.7063221 37.7505358,17.7063221 40.2270744,17.6951475 C39.9941977,16.8207342 39.7454492,15.8988287 39.1023701,15.236733 C37.7915834,13.7533034 35.249095,13.756097 33.9358455,15.2339394 Z M51.9612151,15.2087965 C51.2989805,15.8736859 51.0308028,16.8039723 50.8036728,17.6926332 C53.2774748,17.7093951 55.754287,17.7066015 58.2280891,17.6954269 C57.9979489,16.8405691 57.7601464,15.9382192 57.1414223,15.2789172 C55.8525276,13.764478 53.2911573,13.7365415 51.9612151,15.2087965 Z M71.6637897,14.6752088 C70.8099996,14.8623835 70.0766158,15.4515649 69.6223557,16.2033369 C68.4921784,18.1672748 68.5991758,20.8299053 69.8552324,22.7069607 C70.8704764,24.2767142 73.2868118,24.5449049 74.5945883,23.2098182 C76.4091659,21.3411438 76.4855145,18.1225764 75.0545951,15.9966066 C74.3294208,14.8903201 72.9307923,14.3427641 71.6637897,14.6752088 L71.6637897,14.6752088 Z"></path>
                </g>
            </g>
        </g>
    </g>
</svg>