<?xml version="1.0" encoding="UTF-8"?>
<svg width="160px" height="70px" viewBox="0 0 160 70" version="1.1" xmlns="http://www.w3.org/2000/svg" xmlns:xlink="http://www.w3.org/1999/xlink">
    <!-- Generator: Hyder A. - https://toggle.me -->
    <title>windowsserver</title>
    <desc>Created with Sketch.</desc>
    <defs></defs>
    <g id="technologies" stroke="none" stroke-width="1" fill="none" fill-rule="evenodd">
        <g id="OS" transform="translate(-416.000000, -241.000000)">
            <g id="windowsserver" transform="translate(416.000000, 241.000000)">
                <rect id="Rectangle-Copy-9" fill="#FFFFFF" x="0" y="0" width="160" height="70"></rect>
                <g transform="translate(16.000000, 26.000000)" id="Shape" fill-rule="nonzero" fill="#303035">
                    <path d="M7.88576801,9.12760137 L7.88576801,1.55256924 L0,2.66976512 L0,9.12760137 L7.88576801,9.12760137 Z M8.63076711,9.12760137 L19,9.12760137 L19,0 L8.63076711,1.49020004 L8.63076711,9.12760137 Z M7.88576801,9.87260047 L0,9.87260047 L0,16.3923013 L7.88576801,17.4475317 L7.88576801,9.87260047 Z M8.63076711,9.87260047 L8.63076711,17.5718664 L19,19 L19,9.87260047 L8.63076711,9.87260047 Z"></path>
                    <path d="M95.1170611,12.7958543 C95.1170611,13.7382381 94.8170369,14.554923 94.1575297,15.0572078 C93.4975351,15.6226993 92.59834,15.8738927 91.4588722,15.8738927 C91.0390528,15.8738927 90.5591897,15.8111965 90.0792291,15.6855998 C89.539907,15.5600031 89.179839,15.3717101 89,15.2459092 L89,13.6752355 C89.2996342,13.9893294 89.7196485,14.2405228 90.2595555,14.42902 C90.7988776,14.6176193 91.2188919,14.7430118 91.6988525,14.7430118 C93.1379546,14.7430118 93.7975593,14.1776223 93.7975593,12.983943 C93.7975593,12.4812498 93.6176228,12.1045618 93.3179885,11.727159 C93.0179644,11.3505731 92.4183061,10.9104741 91.4589697,10.345391 C90.5592872,9.77989942 89.899585,9.27720624 89.539907,8.83751564 C89.1799365,8.33472034 89,7.76922881 89,7.07824267 C89,6.19896357 89.2996342,5.44487274 89.9597263,4.87948332 C90.6192335,4.31399178 91.4589697,4 92.4782524,4 C93.4377837,4 94.1576272,4.12569882 94.6371004,4.43999694 L94.6371004,5.94777015 C94.0374421,5.44507697 93.3179885,5.25657979 92.4182086,5.25657979 C91.8187452,5.25657979 91.3387846,5.44507697 90.9189652,5.75937508 C90.5591897,6.07346897 90.3193069,6.51315957 90.3193069,7.01595487 C90.3193069,7.39284711 90.3792532,7.70704312 90.4994383,7.95833865 C90.6192335,8.20942996 90.7988776,8.39813137 91.0987068,8.6494269 C91.3985359,8.90062033 91.8183553,9.15191586 92.477765,9.52880811 C93.4374913,10.0940954 94.1571398,10.6594848 94.5167204,11.1622801 C94.9367347,11.5392745 95.1170611,12.1675644 95.1170611,12.7958543 L95.1170611,12.7958543 Z M102.973151,11.9164731 L97.3956069,11.9164731 C97.3956069,12.8587548 97.6356846,13.5499451 98.1152554,14.0522299 C98.5348798,14.5548209 99.1946794,14.8061165 99.9742742,14.8061165 C100.873957,14.8061165 101.653649,14.4921247 102.433244,13.9266331 L102.433244,15.183315 C101.773542,15.6859061 100.813913,16 99.67464,16 C98.5348798,16 97.6952411,15.6230056 97.0356364,14.869119 C96.436173,14.1153345 96.0764949,13.0472519 96.0764949,11.7276696 C96.0764949,10.9109846 96.2558466,10.1572001 96.5562606,9.52891022 C96.8558948,8.83802619 97.2759091,8.33533301 97.8753725,7.95844076 C98.4150845,7.5814464 99.0147429,7.39305134 99.7345864,7.39305134 C100.754064,7.39305134 101.533659,7.76973936 102.133122,8.46092972 C102.732976,9.15201797 102.973053,10.1572001 102.973053,11.3509815 L102.973053,11.9164731 L102.973151,11.9164731 Z M101.713498,10.7853879 C101.713498,10.0313992 101.533756,9.4032114 101.173786,9.02621704 C100.81401,8.58632221 100.33444,8.39813137 99.7344889,8.39813137 C99.1348305,8.39813137 98.6550649,8.64952901 98.2352455,9.08921962 C97.8152312,9.52911444 97.5755434,10.0945039 97.4554557,10.8482884 L101.713498,10.8482884 L101.713498,10.7853879 L101.713498,10.7853879 Z M108.489969,8.77522784 C108.250281,8.58652643 107.950257,8.52403441 107.530632,8.52403441 C106.990725,8.52403441 106.510765,8.77522784 106.151379,9.34071937 C105.791409,9.90600669 105.611667,10.5972992 105.611667,11.4765783 L105.611667,15.685804 L104.352112,15.685804 L104.352112,7.45574758 L105.611667,7.45574758 L105.611667,9.15212008 L105.671224,9.15212008 C105.85155,8.58652643 106.091238,8.14683583 106.451013,7.83284405 C106.810984,7.51854594 107.230608,7.33015087 107.710569,7.33015087 C108.010203,7.33015087 108.310032,7.39294923 108.489969,7.45574758 L108.489969,8.77522784 Z M116.406102,7.45574758 L113.287918,15.685804 L112.028167,15.685804 L109.029876,7.45574758 L110.408934,7.45574758 L112.387943,13.4240421 C112.508031,13.7380338 112.567879,14.1152324 112.627826,14.5547188 L112.687577,14.5547188 C112.747719,14.1778266 112.80747,13.8010364 112.92785,13.4240421 L115.026557,7.39305134 L116.405615,7.39305134 L116.405615,7.45564547 L116.406102,7.45564547 L116.406102,7.45574758 Z M123.482695,11.9164731 L117.965487,11.9164731 C117.965487,12.8587548 118.20537,13.5499451 118.684941,14.0522299 C119.104955,14.5548209 119.76417,14.8061165 120.543959,14.8061165 C121.443544,14.8061165 122.223334,14.4921247 123.002929,13.9266331 L123.002929,15.183315 C122.343422,15.6859061 121.383598,16 120.244325,16 C119.105052,16 118.264926,15.6230056 117.605906,14.869119 C117.006053,14.1153345 116.645985,13.0472519 116.645985,11.7276696 C116.645985,10.9109846 116.826117,10.1572001 117.125946,9.52891022 C117.42558,8.83802619 117.845594,8.33533301 118.445448,7.95844076 C118.98516,7.5814464 119.584721,7.39305134 120.304466,7.39305134 C121.323554,7.39305134 122.103344,7.76973936 122.702807,8.46092972 C123.302661,9.15201797 123.542739,10.1572001 123.542739,11.3509815 L123.542739,11.9162689 L123.482597,11.9162689 L123.482597,11.9164731 L123.482695,11.9164731 Z M122.223529,10.7853879 C122.223529,10.0313992 122.043398,9.4032114 121.683817,9.02621704 C121.323847,8.58632221 120.844276,8.39813137 120.244325,8.39813137 C119.644374,8.39813137 119.165096,8.64952901 118.744887,9.08921962 C118.325263,9.52911444 118.085185,10.0945039 117.965487,10.8482884 L122.223529,10.8482884 L122.223529,10.7853879 L122.223529,10.7853879 Z M128.999805,8.77522784 C128.759922,8.58652643 128.460093,8.52403441 128.040274,8.52403441 C127.500562,8.52403441 127.020796,8.77522784 126.661021,9.34071937 C126.30144,9.90600669 126.121114,10.5972992 126.121114,11.4765783 L126.121114,15.685804 L124.862143,15.685804 L124.862143,7.45574758 L126.121114,7.45574758 L126.121114,9.15212008 L126.18145,9.15212008 C126.361191,8.58652643 126.601269,8.14683583 126.961045,7.83284405 C127.32082,7.51854594 127.740639,7.33015087 128.22021,7.33015087 C128.520234,7.33015087 128.820064,7.39294923 129,7.45574758 L129,8.77522784 L128.999805,8.77522784 L128.999805,8.77522784 Z"></path>
                    <path d="M38.3230659,3.66679801 L35.1935481,14.7577698 L33.6892393,14.7577698 L31.4021109,6.63650692 C31.3422476,6.3333005 31.2817975,5.96980742 31.2218364,5.48495296 L31.1613862,5.48495296 L30.9811118,6.57602325 L28.6940812,14.6970891 L27.1895768,14.6970891 L24,3.66679801 L25.384191,3.66679801 L27.7311827,12.2122346 C27.8513983,12.5759247 27.9117506,12.9397133 27.9117506,13.3031079 L27.9718095,13.3031079 C27.9718095,13.000197 28.0920251,12.6363099 28.2126319,12.2122346 L30.6802305,3.6666995 L31.9437168,3.6666995 L34.2908063,12.2728168 C34.3511586,12.5758262 34.4111197,12.9397133 34.4716677,13.3031079 C34.4716677,13.0606807 34.5918832,12.6973846 34.6520399,12.2122346 L36.9388749,3.6666995 L38.3230659,3.66679801 L38.3230659,3.66679801 Z M40.8508212,4.21223465 C40.8508212,4.45456337 40.7904688,4.63640841 40.6100965,4.81835197 C40.4294308,5 40.2489607,5.06068069 40.0080405,5.06068069 C39.7676093,5.06068069 39.5868457,5 39.4063756,4.81835197 C39.2258077,4.63640841 39.1657488,4.45456337 39.1657488,4.21223465 C39.1657488,3.96970891 39.2257099,3.78786386 39.4063756,3.60611732 C39.5869436,3.42437078 39.7675115,3.3637886 40.0080405,3.3637886 C40.2488629,3.3637886 40.4295286,3.42437078 40.6100965,3.60611732 C40.7304099,3.78786386 40.8508212,3.96980742 40.8508212,4.21223465 Z M40.6099987,14.7578683 L39.3462189,14.7578683 L39.3462189,6.81825346 L40.6099987,6.81825346 L40.6099987,14.7578683 L40.6099987,14.7578683 Z M49.0352626,14.7578683 L47.7716784,14.7578683 L47.7716784,10.2121361 C47.7716784,8.51524405 47.1695245,7.66679801 45.9659992,7.66679801 C45.3642366,7.66679801 44.8226307,7.90912673 44.4013381,8.39407969 C43.9802412,8.87883564 43.7995755,9.48475595 43.7995755,10.2121361 L43.7995755,14.7578683 L42.5358935,14.7578683 L42.5358935,6.81825346 L43.7996733,6.81825346 L43.7996733,8.15165247 L43.8599278,8.15165247 C44.4615926,7.12126287 45.3043733,6.63660543 46.4476441,6.63660543 C47.2900336,6.63660543 47.9519529,6.93961484 48.4337934,7.48495296 C48.9151448,8.0303896 49.0957127,8.87883564 49.0957127,9.90932375 L49.0957127,14.7578683 L49.0352626,14.7578683 L49.0352626,14.7578683 Z M57.8215645,14.7578683 L56.5577847,14.7578683 L56.5577847,13.4243708 L56.4978236,13.4243708 C55.896061,14.4549574 54.9930257,14.9394178 53.7895983,14.9394178 C52.7666409,14.9394178 51.9842125,14.5760232 51.3824499,13.8486431 C50.7807851,13.1215584 50.4798059,12.1516525 50.4798059,10.9394178 C50.4798059,9.60641285 50.7807851,8.57592474 51.4426066,7.78796237 C52.1046238,7.00009851 52.9472088,6.57602325 54.090284,6.57602325 C55.1737893,6.57602325 55.956022,7.00009851 56.4373735,7.84874157 L56.4978236,7.84874157 L56.4978236,3 L57.7615056,3 L57.7615056,14.7576713 L57.8215645,14.7578683 L57.8215645,14.7578683 Z M56.5576869,11.1821406 L56.5576869,10.0305866 C56.5576869,9.36359159 56.3169622,8.81825346 55.8957675,8.3941782 C55.474475,7.96990593 54.9329669,7.7274787 54.3311064,7.7274787 C53.5487758,7.7274787 52.9470132,8.03029109 52.5256228,8.57592474 C52.1043303,9.12126287 51.8635079,9.90922524 51.8635079,10.9394178 C51.8635079,11.8485446 52.0442714,12.5759247 52.465564,13.1214599 C52.8867587,13.6666995 53.428169,13.9092252 54.1506363,13.9092252 C54.8725167,13.9092252 55.4142205,13.6666995 55.8358064,13.1214599 C56.3168644,12.6363099 56.5576869,11.9699059 56.5576869,11.1821406 L56.5576869,11.1821406 Z M67.1495701,10.7576713 C67.1495701,12.0303896 66.7887277,13.0606807 66.0663582,13.7880609 C65.3441844,14.5760232 64.3810903,14.9395163 63.1777606,14.9395163 C62.0342942,14.9395163 61.0714935,14.5760232 60.4094764,13.8486431 C59.6871069,13.1215584 59.3862256,12.0911688 59.3862256,10.8790327 C59.3862256,9.54592917 59.7474592,8.51553958 60.4695353,7.78815939 C61.1919048,7.00019702 62.1548032,6.63670394 63.418583,6.63670394 C64.5621473,6.63670394 65.5248501,7.00019702 66.1865738,7.72757721 C66.7886299,8.45476038 67.1495701,9.48475595 67.1495701,10.7576713 L67.1495701,10.7576713 Z M65.825438,10.818155 C65.825438,9.84874157 65.584909,9.0607792 65.1636164,8.51524405 C64.7421283,7.96980742 64.0802089,7.72738019 63.2978784,7.72738019 C62.5155478,7.72738019 61.8535307,8.03029109 61.3720814,8.51524405 C60.8906322,9.0607792 60.6500054,9.84864306 60.6500054,10.818155 C60.6500054,11.7879624 60.8906322,12.5153426 61.3720814,13.0607792 C61.8536285,13.6063143 62.5155478,13.8486431 63.2978784,13.8486431 C64.1403656,13.8486431 64.7423239,13.6063143 65.1636164,13.0607792 C65.6448701,12.5759247 65.825438,11.7879624 65.825438,10.818155 L65.825438,10.818155 Z M78.6440973,6.81825346 L76.2971056,14.7578683 L74.9729735,14.7578683 L73.3481557,9.0608777 C73.2881946,8.87893415 73.2279401,8.63660543 73.2279401,8.33379304 L73.1677834,8.33379304 C73.1677834,8.51544107 73.1078223,8.7578683 72.9874111,9.0608777 L71.2417908,14.7578683 L69.9782066,14.7578683 L67.5710583,6.81825346 L68.8947991,6.81825346 L70.5198126,12.8184505 C70.5797737,13.000197 70.5797737,13.2427228 70.640126,13.5456337 L70.7000871,13.5456337 C70.7000871,13.3637886 70.7602438,13.1214599 70.8203026,12.8184505 L72.625884,6.87893415 L73.7692526,6.87893415 L75.394266,12.8789341 C75.4542271,13.0607792 75.4542271,13.3032064 75.5144816,13.6063143 L75.574834,13.6063143 C75.574834,13.3637886 75.634795,13.1214599 75.6950495,12.8789341 L77.3198674,6.87893415 L78.6436082,6.87893415 L78.6436082,6.81825346 L78.6440973,6.81825346 L78.6440973,6.81825346 Z M84,12.6363099 C84,13.3031079 83.7590797,13.9091267 83.2178651,14.3334975 C82.6758679,14.7576713 82.0138507,15 81.1114024,15 C80.3892285,15 79.7273092,14.8182535 79.1855076,14.5153426 L79.1855076,13.1214599 C79.7872703,13.6063143 80.5096397,13.9093237 81.2320092,13.9093237 C82.2546731,13.9093237 82.736318,13.5456337 82.736318,12.8184505 C82.736318,12.5153426 82.6161024,12.2730138 82.4356323,12.0911688 C82.2546731,11.9094223 81.7734195,11.6668965 81.1115002,11.3033049 C80.3893263,11.000197 79.9078771,10.6971876 79.6069958,10.3334975 C79.3063101,9.96990593 79.1855076,9.54573216 79.1855076,8.93971334 C79.1855076,8.27281683 79.4264279,7.7274787 79.9680338,7.30340344 C80.5096397,6.87893415 81.1716569,6.63660543 81.9539875,6.63660543 C82.5559457,6.63660543 83.1580018,6.75776979 83.6390598,7.00009851 L83.6390598,8.27281683 C83.0974539,7.90922524 82.5560435,7.72738019 81.8336741,7.72738019 C81.4121859,7.72738019 81.1115002,7.84864306 80.8106189,8.03019258 C80.5700899,8.21223465 80.4495809,8.51524405 80.4495809,8.81815495 C80.4495809,9.18184505 80.5700899,9.42427228 80.7502665,9.60631434 C80.9308345,9.78796237 81.3518336,10.0305866 81.9542809,10.2729153 C82.6760635,10.5759247 83.2178651,10.9395163 83.518942,11.3033049 C83.879491,11.6668965 84,12.0909718 84,12.6363099 L84,12.6363099 Z"></path>
                </g>
            </g>
        </g>
    </g>
</svg>