<?xml version="1.0" encoding="UTF-8"?>
<svg width="160px" height="70px" viewBox="0 0 160 70" version="1.1" xmlns="http://www.w3.org/2000/svg" xmlns:xlink="http://www.w3.org/1999/xlink">
    <!-- Generator: Hyder A. - https://toggle.me -->
    <title>wix</title>
    <desc>Created with Sketch.</desc>
    <defs></defs>
    <g id="technologies" stroke="none" stroke-width="1" fill="none" fill-rule="evenodd">
        <g id="Artboard" transform="translate(-209.000000, -154.000000)">
            <g id="wix" transform="translate(209.000000, 154.000000)">
                <rect id="container" fill="#FFFFFF" x="0" y="0" width="160" height="70"></rect>
                <g id="Wix" transform="translate(42.000000, 20.000000)" fill-rule="nonzero">
                    <path d="M47,12.0921987 C47,10.0578575 47,7.68757003 47,5 C46.5178952,5.4908708 45.9373905,5.89605519 45.2886836,6.19447557 C43.9930716,6.81659826 43.0369515,7.28319028 42.4411085,7.55692427 C41.9500612,7.72344225 41.5386411,8.03789474 41.2771363,8.44655972 C41.1737268,8.62012518 41.0812037,8.79874568 41,8.98158523 L41.0207852,29.9968898 C41.7334623,30.0101399 42.446335,29.981044 43.1547344,29.9097926 C44.0520633,29.8451061 44.8978504,29.5070815 45.551963,28.9517237 C46.3787278,28.3480022 46.8944241,27.4668406 46.9792148,26.5130027 L46.9792148,12.0921987 L47,12.0921987 Z" id="Shape" fill="#20303C"></path>
                    <path d="M61.8993812,9.90388634 C61.8352051,9.80359382 61.3923906,9.14542415 60.5645198,7.96071876 L56.5984414,2.1124112 C55.9073202,1.26826242 54.97288,0.645968151 53.9158836,0.32595069 L49,0.0313414125 L59.2681641,15 L59.3130873,15.043878 L59.2938345,15.043878 L49,30 L51.5157002,30 C52.3090072,29.9906996 53.0988537,29.8961054 53.8709603,29.7179273 C54.9197745,29.3881694 55.8607143,28.7934922 56.5984414,27.9941496 L60.5709374,22.0706226 C61.4052258,20.8859173 61.8544579,20.259089 61.9057988,20.1901379 C62.0944039,19.872661 62.3670762,19.6106635 62.6951639,19.4316757 C62.7995981,19.3942375 62.9068902,19.3648947 63.016044,19.3439198 L63.2534953,19.4316757 C63.5874363,19.6210202 63.8744943,19.8799961 64.0942012,20.1901379 C64.1519597,20.2653573 64.5883566,20.8921855 65.3777218,22.0706226 L69.4079762,27.9941496 C69.6073504,28.2319548 69.8382769,28.4427524 70.0946596,28.6209779 C70.6948264,29.0958385 71.3803932,29.4572184 72.1162044,29.6865859 C72.8881532,29.8656245 73.6780979,29.9602305 74.4714646,29.9686586 L77,29.9686586 L66.7318359,15.0125366 L66.7318359,14.9686586 L77,0 L74.4714646,0 C73.6775291,0.0113253811 72.8874399,0.11015421 72.1162044,0.294609277 C71.0495224,0.609408478 70.105381,1.23220358 69.4079762,2.08106979 L65.3777218,7.92937735 C64.581939,9.11408274 64.1455421,9.7722524 64.0942012,9.87254492 C63.8608822,10.1587812 63.5759655,10.400955 63.2534953,10.5871291 C63.1699839,10.6152668 63.0902564,10.6531507 63.016044,10.6999582 L62.7144167,10.5871291 C62.3922257,10.4241133 62.1132133,10.1902176 61.8993812,9.90388634 L61.8993812,9.90388634 Z" id="Shape" fill="#20303C"></path>
                    <path d="M46.1854568,3.46565566 C46.8051121,2.40916949 47.0812267,1.20375346 46.9793058,0 C45.9667811,0.0857939896 44.967977,0.280637755 44.0023721,0.58073149 C43.4051668,0.841548228 42.8697053,1.21319051 42.427905,1.6735058 C42.0507435,2.05750254 41.7563945,2.50714034 41.5612865,2.99732382 C41.3927591,3.31111453 41.2788401,3.64846526 41.2239007,3.99643176 C41.0247112,4.98582061 40.9580347,5.99491615 41.0254385,7 C41.7004637,6.49341628 42.4548033,6.08894542 43.2614464,5.80107047 C43.8954187,5.60115392 44.4835321,5.28968628 44.9946833,4.88314005 C45.4700968,4.47444245 45.8722299,3.99574732 46.1854568,3.46565566 L46.1854568,3.46565566 Z" id="Shape" fill="#FAAD4E"></path>
                    <path d="M36.4291357,0.330573926 C35.8354436,0.442965465 35.2806108,0.704527324 34.8175067,1.09033562 C34.2645534,1.65904657 33.8684019,2.35969813 33.667246,3.12473883 L29.2431664,20.2853067 L25.7355032,7.13075503 C25.3815769,6.03192613 25.1034919,5.15286302 24.8190867,4.47472861 C24.6085171,3.87189068 24.2822758,3.31534222 23.8584295,2.83590381 C23.1387388,2.07964647 22.207622,1.55478803 21.1850213,1.32893846 C20.9954179,1.32893846 20.7994944,1.27242726 20.55301,1.2535902 L19.5923527,1.2535902 L19.0172223,1.32893846 C17.9662707,1.51258795 17.0086021,2.04362539 16.2995734,2.83590381 C15.8702357,3.31580506 15.5357552,3.87177813 15.3136356,4.47472861 C15.0355506,5.15286302 14.7132248,6.03192613 14.3845789,7.13075503 L10.9148365,20.2790276 L6.49075683,3.17497101 L6.14947069,2.1577694 C5.85127842,1.6410587 5.43843702,1.19869017 4.94232896,0.864290817 C4.05407749,0.349849232 3.05017124,0.0648837611 2.0224364,0.0354598796 C1.3484478,-0.0263039551 0.669428983,-0.00733071638 0,0.0919710799 L7.99494391,29.967559 C8.73858683,30.0250366 9.48621544,30.0060992 10.2259441,29.9110478 C10.8350195,29.847914 11.4179063,29.631833 11.9197346,29.2831455 C12.2167799,29.0194266 12.4948649,28.7682657 12.7476695,28.5171048 C12.9777961,28.3251132 13.1761372,28.098398 13.33544,27.8452494 C13.5437966,27.5542551 13.7216834,27.2428733 13.8663296,26.9159542 C14.3529784,25.6601497 14.8206668,24.4043453 15.2693948,23.1485408 L19.1941855,8.02237619 L19.2510665,7.95958597 C19.2741074,7.77704352 19.3641226,7.60936237 19.5038711,7.4886593 C19.6140953,7.39786146 19.7438297,7.33341599 19.8830779,7.30028863 C19.9329861,7.24484841 20.0041382,7.21292413 20.0790014,7.21238232 C20.1489604,7.22436762 20.2144218,7.25471766 20.2686048,7.30028863 C20.3929915,7.34184485 20.5086628,7.4056889 20.609891,7.4886593 C20.7430643,7.62162458 20.8445646,7.78254015 20.9069363,7.95958597 L20.9511771,8.02237619 L24.8190867,23.1485408 C25.2825618,24.4043453 25.7692105,25.6601497 26.279033,26.9159542 C26.4074995,27.2514122 26.5911774,27.563332 26.8225628,27.8389704 C26.9700385,28.0878882 27.1531266,28.3142029 27.3660926,28.5108258 C27.6504977,28.7619867 27.9285827,29.0131476 28.1813873,29.2768665 C28.6966678,29.6313166 29.2953296,29.8475964 29.9194185,29.9047687 C30.6590945,30.0004958 31.4067937,30.019435 32.1504187,29.9612799 L40,0.0354598796 C38.8024096,0.00305286348 37.6048761,0.102023011 36.4291357,0.330573926 Z" id="Shape" fill="#20303C"></path>
                </g>
            </g>
        </g>
    </g>
</svg>