<?xml version="1.0" encoding="UTF-8"?>
<svg width="160px" height="70px" viewBox="0 0 160 70" version="1.1" xmlns="http://www.w3.org/2000/svg" xmlns:xlink="http://www.w3.org/1999/xlink">
    <!-- Generator: Sketch 47.1 (45422) - http://www.bohemiancoding.com/sketch -->
    <title>wordpress</title>
    <desc>Created with Sketch.</desc>
    <defs></defs>
    <g id="technologies" stroke="none" stroke-width="1" fill="none" fill-rule="evenodd">
        <g id="Artboard" transform="translate(-32.000000, -42.000000)">
            <g id="wordpress" transform="translate(32.000000, 42.000000)">
                <rect id="Rectangle" fill="#FFFFFF" x="0" y="0" width="160" height="70"></rect>
                <g transform="translate(11.000000, 19.000000)" fill-rule="nonzero">
                    <path d="M80.7797232,13 L75.3482236,13 L75.3482236,13.6272759 C77.0471482,13.6272759 77.3202946,14.0236698 77.3202946,16.369209 L77.3202946,20.5976887 C77.3202946,22.9429496 77.0474037,23.3724459 75.3482236,23.3724459 C74.0438154,23.174388 73.1635634,22.4144244 71.9498634,20.9609802 L70.554236,19.309478 C72.4353434,18.9456302 73.4364543,17.6576978 73.4364543,16.2039753 C73.4364543,14.3875177 72.0106761,13 69.3402804,13 L64,13 L64,13.6272759 C65.6989246,13.6272759 65.972071,14.0236698 65.972071,16.369209 L65.972071,20.5976887 C65.972071,22.9429496 65.6989246,23.3724459 64,23.3724459 L64,24 L70.0380941,24 L70.0380941,23.3724459 C68.3391695,23.3724459 68.0660231,22.9429496 68.0660231,20.5976887 L68.0660231,19.4087852 L68.581654,19.4087852 L71.9498634,24 L80.7797232,24 C85.1186371,24 87,21.4897835 87,18.4833097 C87,15.4773923 85.1188926,13 80.7797232,13 Z M68.0662786,18.3840026 L68.0662786,13.9911238 L69.3101295,13.9911238 C70.6753505,13.9911238 71.2824561,15.0150718 71.2824561,16.2042535 C71.2824561,17.360611 70.6753505,18.3842808 69.3101295,18.3842808 L68.0662786,18.3842808 L68.0662786,18.3840026 Z M80.8709423,22.976052 L80.6583531,22.976052 C79.5662786,22.976052 79.4145022,22.6789652 79.4145022,21.1593162 L79.4145022,13.9911238 C79.4145022,13.9911238 80.7495723,13.9911238 80.8709423,13.9911238 C84.0265625,13.9911238 84.6027507,16.5013403 84.6027507,18.4504855 C84.6027507,20.4652792 84.026307,22.976052 80.8709423,22.976052 Z" id="Shape" fill="#00749A"></path>
                    <path d="M46.7992552,19.3335953 L48.8965433,12.9865828 C49.5046904,11.1511443 49.2310754,10.6224667 47.285824,10.6224667 L47.285824,10 L53,10 L53,10.6224667 C51.0852071,10.6224667 50.6293528,11.0890548 49.869425,13.3601677 L46.404062,24 L46.0091248,24 L42.9084964,14.2621681 L39.7477188,24 L39.3525256,24 L35.9787942,13.3601677 C35.2493249,11.0890548 34.7630121,10.6224667 33,10.6224667 L33,10 L39.7477188,10 L39.7477188,10.6224667 C37.9542482,10.6224667 37.4676794,11.0578791 38.106285,12.9865828 L40.142656,19.3335953 L43.2125699,10 L43.7902584,10 L46.7992552,19.3335953 Z" id="Shape" fill="#00749A"></path>
                    <path d="M57.5,23 C53.9251368,23 51,20.5184012 51,17.484648 C51,14.4821148 53.9254105,12 57.5,12 C61.0751368,12 64,14.4821148 64,17.484648 C64,20.5184012 61.0751368,23 57.5,23 Z M57.5,12.9505313 C54.5102737,12.9505313 53.47,15.4932799 53.47,17.4849061 C53.47,19.5074942 54.5102737,22.0197969 57.5,22.0197969 C60.5228421,22.0197969 61.5628421,19.5074942 61.5628421,17.4849061 C61.5628421,15.4932799 60.5228421,12.9505313 57.5,12.9505313 Z" id="Shape" fill="#00749A"></path>
                    <path d="M94.4875066,23.353377 L94.4875066,24 L87,24 L87,23.353377 C89.1908542,23.353377 89.583209,22.8039517 89.583209,19.5702923 L89.583209,14.3975808 C89.583209,11.1639214 89.1908542,10.6468952 87,10.6468952 L87,10 L93.7680518,10 C97.1356951,10 99,11.7136189 99,14.009607 C99,16.2405243 97.1356951,17.9862702 93.7680518,17.9862702 L91.9042975,17.9862702 L91.9042975,19.57002 C91.9042975,22.8039517 92.2966524,23.353377 94.4875066,23.353377 Z M93.7680518,11.1639214 L91.9042975,11.1639214 L91.9042975,16.7899496 L93.7680518,16.7899496 C95.5993162,16.7899496 96.4492807,15.5291029 96.4492807,14.009607 C96.4492807,12.4577118 95.5993162,11.1639214 93.7680518,11.1639214 Z" id="Shape" fill="#464342"></path>
                    <path d="M119.535631,20.8950536 L119.380928,21.4895054 C119.102776,22.5796581 118.762117,22.976052 116.566326,22.976052 L116.13321,22.976052 C114.525238,22.976052 114.246825,22.5796581 114.246825,20.2343971 L114.246825,18.7150263 C116.659304,18.7150263 116.845,18.9459084 116.845,20.6638934 L117.432558,20.6638934 L117.432558,15.7416549 L116.845,15.7416549 C116.845,17.4593617 116.659304,17.690522 114.246825,17.690522 L114.246825,13.9911238 L115.947515,13.9911238 C118.143826,13.9911238 118.483704,14.3875177 118.762117,15.4776704 L118.91708,16.1049464 L119.41166,16.1049464 L119.195493,13 L110.102404,13 L110.102404,13.6272759 C111.834086,13.6272759 112.112759,14.0236698 112.112759,16.369209 L112.112759,20.5976887 C112.112759,22.7432227 111.876277,23.2837093 110.510777,23.3607627 C109.212992,23.1490744 108.322019,22.3930053 107.102887,20.9609802 L105.68009,19.309478 C107.597728,18.9456302 108.618402,17.6576978 108.618402,16.2039753 C108.618402,14.3875177 107.164873,13 104.443248,13 L99,13 L99,13.6272759 C100.731682,13.6272759 101.010095,14.0236698 101.010095,16.369209 L101.010095,20.5976887 C101.010095,22.9429496 100.731943,23.3724459 99,23.3724459 L99,24 L105.154777,24 L105.154777,23.3724459 C103.423095,23.3724459 103.144422,22.9429496 103.144422,20.5976887 L103.144422,19.4087852 L103.670255,19.4087852 L107.103148,24 L119.814304,24 L120,20.8953318 L119.535631,20.8953318 L119.535631,20.8950536 Z M103.144161,18.3840026 L103.144161,13.9911238 L104.411995,13.9911238 C105.8038,13.9911238 106.422611,15.0150718 106.422611,16.2042535 C106.422611,17.360611 105.8038,18.3842808 104.411995,18.3842808 L103.144161,18.3842808 L103.144161,18.3840026 Z" id="Shape" fill="#464342"></path>
                    <path d="M125.5426,23 C124.408987,23 123.416897,22.3567508 122.991852,21.9581066 C122.85009,22.1116298 122.595206,22.5711672 122.538645,23 L122,23 L122,18.7720492 L122.566806,18.7720492 C122.793768,20.7941687 124.097065,21.9890692 125.769323,21.9890692 C126.676213,21.9890692 127.413181,21.4376759 127.413181,20.5186011 C127.413181,19.7220867 126.761413,19.1090261 125.5994,18.5269281 L123.983942,17.6997091 C122.85009,17.1170951 122,16.1059064 122,14.7579987 C122,13.2872725 123.275374,12.0312207 125.032594,12.0312207 C125.967884,12.0312207 126.761174,12.3989022 127.243258,12.827735 C127.384781,12.7051745 127.526542,12.3679396 127.611742,12 L128.150148,12 L128.150148,15.6159223 L127.554942,15.6159223 C127.356381,14.1756427 126.619652,12.9807422 125.117793,12.9807422 C124.324264,12.9807422 123.587058,13.4709842 123.587058,14.23731 C123.587058,15.0338244 124.182264,15.4626572 125.542839,16.136869 L127.101258,16.964088 C128.461832,17.6687465 129,18.8030118 129,19.7220867 C129,21.6520923 127.441342,23 125.5426,23 Z" id="Shape" fill="#464342"></path>
                    <path d="M135.542839,23 C134.408987,23 133.416897,22.3567508 132.99209,21.9581066 C132.850329,22.1116298 132.595445,22.5711672 132.538884,23 L132.000239,23 L132.000239,18.7720492 L132.567045,18.7720492 C132.793768,20.7941687 134.097303,21.9890692 135.769561,21.9890692 C136.676452,21.9890692 137.413419,21.4376759 137.413419,20.5186011 C137.413419,19.7220867 136.761651,19.1090261 135.5994,18.5269281 L133.983942,17.6997091 C132.850329,17.1170951 132,16.1059064 132,14.7579987 C132,13.2872725 133.275374,12.0312207 135.032594,12.0312207 C135.967884,12.0312207 136.761174,12.3989022 137.243258,12.827735 C137.384781,12.7051745 137.526542,12.3679396 137.611265,12 L138.14991,12 L138.14991,15.6159223 L137.554942,15.6159223 C137.356381,14.1756427 136.619652,12.9807422 135.117793,12.9807422 C134.324264,12.9807422 133.587058,13.4709842 133.587058,14.23731 C133.587058,15.0338244 134.182264,15.4626572 135.542839,16.136869 L137.101258,16.964088 C138.461832,17.6687465 139,18.8030118 139,19.7220867 C139,21.6520923 137.441342,23 135.542839,23 Z" id="Shape" fill="#464342"></path>
                    <g id="Group" fill="#464342">
                        <path d="M2.26549593,15.937561 C2.26549593,21.3494634 5.41060163,26.0264065 9.97125203,28.2427317 L3.44923577,10.3732033 C2.69060163,12.073626 2.26549593,13.9553821 2.26549593,15.937561 Z" id="Shape"></path>
                        <path d="M25.1681301,15.2476098 C25.1681301,13.5578537 24.5611707,12.3876423 24.0405854,11.476813 C23.3475122,10.3505691 22.6978862,9.39681301 22.6978862,8.27056911 C22.6978862,7.01372358 23.651122,5.84377236 24.9938211,5.84377236 C25.054439,5.84377236 25.111935,5.85131707 25.1709919,5.85469919 C22.7384715,3.62614634 19.497626,2.26549593 15.9380813,2.26549593 C11.1614959,2.26549593 6.95908943,4.71622764 4.51434146,8.42822764 C4.83512195,8.43785366 5.13743089,8.44461789 5.39421138,8.44461789 C6.8243252,8.44461789 9.03804878,8.27108943 9.03804878,8.27108943 C9.77508943,8.22764228 9.86198374,9.31017886 9.12572358,9.39733333 C9.12572358,9.39733333 8.38504065,9.4844878 7.56084553,9.5276748 L12.5398374,24.3374309 L15.5319675,15.3636423 L13.4017561,9.52715447 C12.6654959,9.48396748 11.968,9.39681301 11.968,9.39681301 C11.2312195,9.35362602 11.3175935,8.22712195 12.054374,8.27056911 C12.054374,8.27056911 14.3123252,8.44409756 15.6558049,8.44409756 C17.0856585,8.44409756 19.2996423,8.27056911 19.2996423,8.27056911 C20.0372033,8.22712195 20.1238374,9.30965854 19.3873171,9.39681301 C19.3873171,9.39681301 18.6450732,9.48396748 17.822439,9.52715447 L22.7634472,24.2247805 L24.1272195,19.6675122 C24.7183089,17.7763902 25.1681301,16.4180813 25.1681301,15.2476098 Z" id="Shape"></path>
                        <path d="M16.1779512,17.1335285 L12.0757073,29.0539187 C13.3005528,29.4139837 14.5959024,29.6109268 15.9380813,29.6109268 C17.5302764,29.6109268 19.0571707,29.3356748 20.478439,28.8359024 C20.4417561,28.7773659 20.4084553,28.715187 20.3811382,28.6475447 L16.1779512,17.1335285 Z" id="Shape"></path>
                        <path d="M27.9352195,9.37782114 C27.9940163,9.81333333 28.0273171,10.2808455 28.0273171,10.7837398 C28.0273171,12.171187 27.7681951,13.7308618 26.9877073,15.6810407 L22.8113171,27.7559675 C26.8760976,25.385626 29.6101463,20.9818537 29.6101463,15.9378211 C29.6104065,13.5607154 29.003187,11.3253984 27.9352195,9.37782114 Z" id="Shape"></path>
                        <path d="M15.9380813,0 C7.15004878,0 0,7.14952846 0,15.937561 C0,24.7266341 7.15004878,31.8759024 15.9380813,31.8759024 C24.7258537,31.8759024 31.8769431,24.7266341 31.8769431,15.937561 C31.8766829,7.14952846 24.7258537,0 15.9380813,0 Z M15.9380813,31.1453659 C7.55304065,31.1453659 0.730796748,24.323122 0.730796748,15.937561 C0.730796748,7.55252033 7.55278049,0.730796748 15.9380813,0.730796748 C24.3228618,0.730796748 31.1445854,7.55252033 31.1445854,15.937561 C31.1445854,24.323122 24.3228618,31.1453659 15.9380813,31.1453659 Z" id="Shape"></path>
                    </g>
                </g>
            </g>
        </g>
    </g>
</svg>