<?xml version="1.0" encoding="UTF-8"?>
<svg width="160px" height="70px" viewBox="0 0 160 70" version="1.1" xmlns="http://www.w3.org/2000/svg" xmlns:xlink="http://www.w3.org/1999/xlink">
    <!-- Generator: Hyder A. - https://toggle.me -->
    <title>xcart</title>
    <desc>Created with Sketch.</desc>
    <defs></defs>
    <g id="technologies" stroke="none" stroke-width="1" fill="none" fill-rule="evenodd">
        <g id="Ecommerce" transform="translate(-224.000000, -433.000000)">
            <g id="xcart" transform="translate(224.000000, 433.000000)">
                <rect id="Rectangle" fill="#FFFFFF" x="0" y="0" width="160" height="70"></rect>
                <path d="M88.0179211,44.6812406 C89.0215054,44.4525552 89.7670251,43.8379631 90.2544803,42.8231714 C90.4982079,42.2943364 90.6845878,41.5511087 90.8136201,40.6077813 C90.9426523,39.6644538 91,38.8497619 91,38.1922913 L91,37.2918424 L86.2688172,37.2918424 C86.2688172,37.6634562 86.2688172,38.0207772 86.2688172,38.3780982 C86.2688172,38.7354192 86.2688172,39.0784474 86.2688172,39.4357684 C86.2688172,39.9074321 86.2258065,40.3933887 86.125448,40.8936381 C86.0250896,41.3938875 85.6666667,41.6368657 85.0501792,41.6368657 C84.4193548,41.6368657 84.046595,41.3938875 83.9605735,40.8936381 C83.874552,40.3933887 83.8315412,39.9217249 83.8315412,39.4357684 C83.8315412,37.9064345 83.8172043,36.3628078 83.7885305,34.8048882 C83.7598566,33.2469687 83.7741935,31.7033419 83.8315412,30.1454224 C83.8458781,29.0019952 84.2616487,28.4302816 85.0501792,28.4302816 C85.8243728,28.4302816 86.2401434,29.0019952 86.2688172,30.1454224 C86.2688172,30.4741577 86.2688172,30.8171859 86.2831541,31.160214 C86.297491,31.5032422 86.297491,31.8319775 86.297491,32.14642 L90.9713262,32.14642 C90.9139785,31.4603637 90.8422939,30.6885503 90.7562724,29.8452728 C90.6702509,29.0019952 90.5412186,28.3302317 90.3835125,27.858568 C89.953405,26.6579694 89.2365591,25.8718632 88.2329749,25.5288351 C87.2293907,25.1715141 86.1684588,25 85.0501792,25 C83.9175627,25 82.8566308,25.1715141 81.8530466,25.5288351 C80.8494624,25.8861561 80.1469534,26.6579694 79.7168459,27.858568 C79.5017921,28.4445744 79.3297491,29.1878021 79.2007168,30.1025439 C79.0716846,31.0172856 79,31.9606131 79,32.9039405 L79,37.506235 C79,38.5067338 79.0716846,39.5072326 79.2293907,40.5077314 C79.3727599,41.5082302 79.5878136,42.2657507 79.8602151,42.7945858 C80.3333333,43.7950846 81.078853,44.4239695 82.0824373,44.652655 C83.0860215,44.8813404 84.0752688,44.9956831 85.0645161,44.9956831 C86.0250896,45.0242688 87.0143369,44.9099261 88.0179211,44.6812406 Z" id="Shape" fill="#191919" fill-rule="nonzero"></path>
                <path d="M97.8455115,38.1904762 L98.9853862,29.1648352 L99.0438413,29.1648352 L100.183716,38.1904762 L97.8455115,38.1904762 Z M100.622129,41.8241758 L101.162839,46 L106,46 L102.551148,26 L95.4634656,26 L92,45.985348 L96.8371608,45.985348 L97.3778706,41.8095238 L100.622129,41.8095238 L100.622129,41.8241758 Z" id="Shape" fill="#191919" fill-rule="nonzero"></path>
                <path d="M107,46 L111.624113,46 L111.624113,38.5421245 L112.432624,38.5421245 C113.184397,38.5421245 113.680851,38.7032967 113.93617,39.025641 C114.163121,39.3626374 114.276596,39.8461538 114.276596,40.4322344 L114.276596,45.985348 L119,45.985348 L119,41.3406593 C119,40.1098901 118.744681,39.0842491 118.234043,38.2490842 C117.695035,37.4578755 116.914894,36.9304029 115.921986,36.6813187 L115.921986,36.6227106 C116.900709,36.4468864 117.638298,36.03663 118.134752,35.4065934 C118.560284,34.8791209 118.787234,34.2783883 118.843972,33.5897436 C118.900709,32.9010989 118.929078,32.2271062 118.929078,31.5824176 C118.929078,30.7326007 118.87234,29.8974359 118.77305,29.0769231 C118.673759,28.2564103 118.276596,27.5677656 117.595745,27.025641 C116.943262,26.5421245 116.177305,26.2490842 115.283688,26.1465201 C114.390071,26.043956 113.567376,26 112.815603,26 L107.014184,26 L107,46 L107,46 Z M111.624113,29.5604396 L112.730496,29.5604396 C113.326241,29.5604396 113.751773,29.7069597 113.992908,30 C114.205674,30.2637363 114.304965,30.7032967 114.304965,31.3040293 C114.304965,31.5970696 114.304965,31.8754579 114.304965,32.1391941 C114.304965,32.4175824 114.304965,32.6520147 114.304965,32.8717949 C114.262411,33.3846154 114.205674,33.7802198 114.106383,34.0586081 C114.007092,34.3809524 113.822695,34.6300366 113.58156,34.7912088 C113.35461,34.967033 113,35.0695971 112.503546,35.0695971 L111.609929,35.0695971 L111.624113,29.5604396 L111.624113,29.5604396 Z" id="Shape" fill="#191919" fill-rule="nonzero"></path>
                <polygon id="Shape" fill="#191919" fill-rule="nonzero" points="120 29.8827839 123.163212 29.8827839 123.163212 46 127.836788 46 127.836788 29.8827839 131 29.8827839 131 26 120 26"></polygon>
                <polygon id="Shape" fill="#F29221" fill-rule="nonzero" points="71.5422993 33.2967033 71.4859002 33.2967033 69.9772234 26 65.2537961 26 68.1019523 35.5238095 65 46 69.8503254 46 71.4436009 38.1611722 71.5 38.1611722 73.1496746 46 78 46 74.8980477 35.5531136 77.7744035 26 73.0509761 26"></polygon>
                <path d="M34.1343004,20 L56.8656996,20 C59.1431914,20 61,21.8423023 61,24.1343004 L61,46.8656996 C61,49.1431914 59.1576977,51 56.8656996,51 L34.1343004,51 C31.8568086,51 30,49.1576977 30,46.8656996 L30,24.1343004 C30.0145063,21.8423023 31.8568086,20 34.1343004,20 Z" id="Shape" fill="#F29221" fill-rule="nonzero"></path>
                <path d="M53.6951324,35.5365449 C53.2305722,36.0149502 52.3159693,36.9568106 51.5755764,37.7342193 C52.3159693,38.4966777 53.2305722,39.4385382 53.6951324,39.9169435 C53.8838599,40.1112957 54,40.3803987 54,40.6495017 C54,41.8156146 54,43.3704319 54,44.5066445 C54,44.9401993 53.912895,45 53.4918873,45 C52.0401366,45 52.0256191,45 51.7207515,45 C51.7207515,44.2524917 51.7207515,43.1461794 51.7207515,42.0697674 C51.7207515,41.6960133 51.6626815,41.5166113 51.4158839,41.2624585 C51.0093937,40.8438538 49.8915457,39.6777409 49.4850555,39.244186 C49.2672929,39.0049834 48.9333903,38.9152824 48.6575576,38.9152824 C47.2493595,38.9152824 43.3296328,38.9152824 42.3714774,38.9152824 C42.0956447,38.9152824 41.7617421,39.0199336 41.5439795,39.244186 C41.1374893,39.6777409 40.0051238,40.8438538 39.6131512,41.2624585 C39.3663535,41.5166113 39.3082835,41.6960133 39.3082835,42.0697674 C39.3082835,43.0116279 39.3082835,43.6694352 39.3082835,44.461794 C39.3082835,44.8803987 39.1921435,45 38.7711358,45 C38.5388557,45 38.4662681,45 37,45 C37,44.10299 37,42.0548173 37,40.6495017 C37,40.3803987 37.1306576,40.0963455 37.3048676,39.9169435 C37.7694278,39.4385382 38.6840307,38.4966777 39.4244236,37.7342193 C38.6840307,36.9717608 37.7694278,36.0299003 37.3048676,35.551495 C37.1161401,35.3571429 37,35.0880399 37,34.8189369 C37,33.4136213 37,27.89701 37,27 C39.0469684,27 38.9598634,27 39.293766,27 C39.293766,27.7475083 39.293766,32.3222591 39.293766,33.3986711 C39.293766,33.7724252 39.351836,33.9518272 39.5986336,34.2059801 C40.0051238,34.6245847 41.1229718,35.7906977 41.529462,36.2242525 C41.7472246,36.4634551 42.0811272,36.5531561 42.3569599,36.5531561 C43.7506405,36.5531561 47.6413322,36.5531561 48.6430401,36.5531561 C48.9188728,36.5531561 49.2527754,36.448505 49.470538,36.2242525 C49.8770282,35.7906977 51.0093937,34.6245847 51.4013664,34.2059801 C51.648164,33.9518272 51.706234,33.7724252 51.706234,33.3986711 C51.706234,32.3222591 51.706234,27.7475083 51.706234,27 C52.0546541,27 51.9530316,27 54,27 C54,27.89701 54,33.3986711 54,34.8189369 C54,35.0730897 53.8693424,35.3571429 53.6951324,35.5365449 Z" id="Shape" fill="#FFFFFF" fill-rule="nonzero"></path>
                <polygon id="Shape" fill="#FFFFFF" fill-rule="nonzero" points="42 32 44 32 44 34 42 34"></polygon>
                <polygon id="Shape" fill="#FFFFFF" fill-rule="nonzero" points="48 32 50 32 50 34 48 34"></polygon>
                <polygon id="Shape" fill="#FFFFFF" fill-rule="nonzero" points="42 28 44 28 44 30 42 30"></polygon>
                <polygon id="Shape" fill="#FFFFFF" fill-rule="nonzero" points="48 28 50 28 50 30 48 30"></polygon>
                <polygon id="Shape" fill="#FFFFFF" fill-rule="nonzero" points="45 32 47 32 47 34 45 34"></polygon>
                <polygon id="Shape" fill="#FFFFFF" fill-rule="nonzero" points="45 28 47 28 47 30 45 30"></polygon>
                <path d="M39.4790698,46 C38.7534884,46 38.1534884,45.4976744 38,44.827907 L39.2,44.827907 C39.5348837,44.827907 39.8139535,44.5488372 39.8139535,44.2139535 L39.8139535,43 C40.4837209,43.1534884 41,43.7534884 41,44.4790698 C41,45.3162791 40.3162791,46 39.4790698,46 Z" id="Shape" fill="#B14C26" fill-rule="nonzero"></path>
                <path d="M53.4790698,46 C52.7674419,46 52.1674419,45.4976744 52,44.8418605 L53.2,44.8418605 C53.5348837,44.8418605 53.8139535,44.5627907 53.8139535,44.227907 L53.8139535,43 C54.4837209,43.1534884 55,43.7534884 55,44.4790698 C55,45.3162791 54.3162791,46 53.4790698,46 Z" id="Shape" fill="#B14C26" fill-rule="nonzero"></path>
            </g>
        </g>
    </g>
</svg>