<?xml version="1.0" encoding="UTF-8"?>
<svg width="160px" height="70px" viewBox="0 0 160 70" version="1.1" xmlns="http://www.w3.org/2000/svg" xmlns:xlink="http://www.w3.org/1999/xlink">
    <!-- Generator: Hyder A. - https://toggle.me -->
    <title>xtcommerce</title>
    <desc>Created with Sketch.</desc>
    <defs></defs>
    <g id="technologies" stroke="none" stroke-width="1" fill="none" fill-rule="evenodd">
        <g id="Ecommerce" transform="translate(-32.000000, -337.000000)">
            <g id="xtcommerce" transform="translate(32.000000, 337.000000)">
                <rect id="Rectangle" fill="#FFFFFF" x="0" y="0" width="160" height="70"></rect>
                <path d="M19.5421875,31.2949853 L17.4109375,34.5044248 L15.521875,31.2949853 L10.2421875,31.2949853 L14.2625,36.7699115 L10,42.7168142 L14.84375,42.7168142 L17.4109375,39.0353982 L19.5421875,42.7168142 L24.821875,42.7168142 L20.5109375,36.7699115 L24.53125,31.2949853 L19.5421875,31.2949853 Z M27.0984375,29.2182891 L27.0984375,31.2949853 L25.4515625,31.2949853 L25.4515625,34.5044248 L27.0984375,34.5044248 L27.0984375,38.5162242 C27.0984375,39.7905605 27.24375,40.6873156 27.4859375,41.300885 C27.728125,41.8672566 28.115625,42.2920354 28.6484375,42.5752212 C29.18125,42.8584071 30.0046875,43 31.11875,43 C32.0875,43 33.1046875,42.8584071 34.21875,42.6224189 L33.8796875,39.6017699 C33.2984375,39.7905605 32.8140625,39.8849558 32.475,39.8849558 C32.0875,39.8849558 31.8453125,39.7433628 31.7,39.5073746 C31.603125,39.3657817 31.5546875,39.0353982 31.5546875,38.5634218 L31.5546875,34.5044248 L34.025,34.5044248 L34.025,31.2949853 L31.5546875,31.2949853 L31.5546875,27 L27.0984375,29.2182891 Z M36.2046875,42.7168142 L41,42.7168142 L41,38.3274336 L36.2046875,38.3274336 L36.2046875,42.7168142 Z M36.2046875,35.6843658 L41,35.6843658 L41,31.2949853 L36.2046875,31.2949853 L36.2046875,35.6843658 Z" id="Shape" fill="#EF7B1C" fill-rule="nonzero"></path>
                <path d="M53.5245902,41.0843023 C52.6885246,41.7761628 51.6557377,42.122093 50.4754098,42.122093 C49.4918033,42.122093 48.557377,41.875 47.7213115,41.3313953 C46.8852459,40.8372093 46.2459016,40.0465116 45.852459,39.0087209 C45.4590164,37.9709302 45.2622951,36.7354651 45.2622951,35.3517442 C45.2622951,34.2645349 45.4098361,33.2267442 45.7540984,32.1889535 C46.0983607,31.1511628 46.6885246,30.3604651 47.5245902,29.7674419 C48.3606557,29.1744186 49.3934426,28.877907 50.6721311,28.877907 C51.7540984,28.877907 52.6393443,29.1744186 53.3770492,29.7180233 C54.1147541,30.2616279 54.6557377,31.1511628 55,32.3372093 L57.1147541,31.8430233 C56.6721311,30.3110465 55.8852459,29.1744186 54.8032787,28.3343023 C53.6721311,27.3953488 52.295082,27 50.6721311,27 C49.2459016,27 47.9180328,27.3459302 46.7377049,27.9883721 C45.557377,28.630814 44.6229508,29.619186 43.9836066,30.9040698 C43.3442623,32.1889535 43,33.6715116 43,35.4011628 C43,36.9825581 43.295082,38.4156977 43.8360656,39.7994186 C44.3770492,41.1831395 45.2622951,42.2209302 46.3442623,42.9127907 C47.4262295,43.6540698 48.852459,44 50.6229508,44 C52.295082,44 53.7213115,43.5552326 54.9016393,42.6162791 C56.0819672,41.6773256 56.8688525,40.2936047 57.3114754,38.5145349 L55.147541,37.9709302 C54.9016393,39.3052326 54.3606557,40.3924419 53.5245902,41.0843023 M62.0327869,34.3139535 C62.6721311,33.5726744 63.5081967,33.1773256 64.4918033,33.1773256 C65.4754098,33.1773256 66.3114754,33.5726744 66.9508197,34.3139535 C67.5901639,35.0552326 67.9344262,36.1918605 67.9344262,37.6744186 C67.9344262,39.255814 67.5901639,40.3924419 66.9508197,41.1831395 C66.3114754,41.9244186 65.4754098,42.3197674 64.4918033,42.3197674 C63.5081967,42.3197674 62.6721311,41.9244186 62.0327869,41.1831395 C61.3934426,40.4418605 61.0491803,39.3052326 61.0491803,37.7732558 C61.0491803,36.2412791 61.3934426,35.1046512 62.0327869,34.3139535 M60.5081967,42.369186 C61.5409836,43.4563953 62.8688525,43.9505814 64.4918033,43.9505814 C65.5245902,43.9505814 66.4590164,43.7034884 67.3442623,43.2093023 C68.2295082,42.7151163 68.8688525,42.0232558 69.3114754,41.1831395 C69.7540984,40.2936047 70,39.1075581 70,37.5755814 C70,35.6976744 69.5081967,34.2151163 68.4754098,33.127907 C67.442623,32.0406977 66.1147541,31.497093 64.4918033,31.497093 C63.0163934,31.497093 61.7868852,31.9418605 60.8032787,32.8313953 C59.5737705,33.869186 58.9836066,35.5 58.9836066,37.7238372 C58.9836066,39.75 59.5245902,41.2819767 60.5081967,42.369186" id="Shape" fill="#343435" fill-rule="nonzero"></path>
                <path d="M74.022541,42.7142857 L74.022541,36.7619048 C74.022541,35.7142857 74.1188525,34.9047619 74.3596311,34.3809524 C74.6004098,33.8571429 74.8893443,33.4285714 75.3709016,33.0952381 C75.852459,32.8095238 76.3340164,32.6666667 76.9118852,32.6666667 C77.6342213,32.6666667 78.1639344,32.9047619 78.4528689,33.3333333 C78.789959,33.7619048 78.9344262,34.4285714 78.9344262,35.2857143 L78.9344262,42.7142857 L80.8606557,42.7142857 L80.8606557,36.047619 C80.8606557,34.8571429 81.1495902,34 81.6793033,33.4761905 C82.2090164,32.952381 82.8831967,32.6666667 83.7018443,32.6666667 C84.1352459,32.6666667 84.5204918,32.7619048 84.857582,33 C85.1946721,33.1904762 85.4354508,33.4761905 85.5317623,33.8095238 C85.6762295,34.1428571 85.7243852,34.7142857 85.7243852,35.4761905 L85.7243852,42.7142857 L87.6506148,42.7142857 L87.6506148,34.8571429 C87.6506148,33.5238095 87.3616803,32.5714286 86.7356557,31.952381 C86.1096311,31.3333333 85.2428279,31 84.0870902,31 C82.642418,31 81.4385246,31.6666667 80.5235656,33 C80.2827869,32.3809524 79.897541,31.8571429 79.3678279,31.5238095 C78.8381148,31.1904762 78.1157787,31 77.2489754,31 C76.4784836,31 75.8043033,31.1904762 75.1782787,31.5238095 C74.6004098,31.8571429 74.1188525,32.3333333 73.7336066,32.8571429 L73.7336066,31.2380952 L72,31.2380952 L72,42.7142857 L74.022541,42.7142857 L74.022541,42.7142857 Z M92.5143443,42.7142857 L92.5143443,36.7619048 C92.5143443,35.7142857 92.6106557,34.9047619 92.8514344,34.3809524 C93.0922131,33.8571429 93.3811475,33.4285714 93.8627049,33.0952381 C94.3442623,32.8095238 94.8258197,32.6666667 95.4036885,32.6666667 C96.1260246,32.6666667 96.6557377,32.9047619 96.9446721,33.3333333 C97.2817623,33.7619048 97.4262295,34.4285714 97.4262295,35.2857143 L97.4262295,42.7142857 L99.352459,42.7142857 L99.352459,36.047619 C99.352459,34.8571429 99.6413934,34 100.171107,33.4761905 C100.70082,32.952381 101.375,32.6666667 102.193648,32.6666667 C102.627049,32.6666667 103.012295,32.7619048 103.349385,33 C103.686475,33.1904762 103.927254,33.4761905 104.023566,33.8095238 C104.168033,34.1428571 104.216189,34.7142857 104.216189,35.4761905 L104.216189,42.7142857 L106.142418,42.7142857 L106.142418,34.8571429 C106.142418,33.5238095 105.853484,32.5714286 105.227459,31.952381 C104.601434,31.3333333 103.734631,31 102.578893,31 C101.134221,31 99.9303279,31.6666667 99.0153689,33 C98.7745902,32.3809524 98.3893443,31.8571429 97.8596311,31.5238095 C97.329918,31.1904762 96.607582,31 95.7407787,31 C94.9702869,31 94.2961066,31.1904762 93.670082,31.5238095 C93.0922131,31.8571429 92.6106557,32.3333333 92.2254098,32.8571429 L92.2254098,31.2380952 L90.4918033,31.2380952 L90.4918033,42.7142857 L92.5143443,42.7142857 Z M111.535861,33.4761905 C112.161885,32.8571429 112.884221,32.5714286 113.79918,32.5714286 C114.810451,32.5714286 115.580943,32.952381 116.206967,33.7142857 C116.592213,34.1904762 116.832992,34.9047619 116.929303,35.9047619 L110.52459,35.9047619 C110.572746,34.9047619 110.909836,34.0952381 111.535861,33.4761905 L111.535861,33.4761905 Z M115.72541,40.8095238 C115.243852,41.1904762 114.617828,41.3809524 113.895492,41.3809524 C112.932377,41.3809524 112.11373,41.047619 111.487705,40.3809524 C110.86168,39.7142857 110.476434,38.7619048 110.428279,37.4761905 L119,37.4761905 L119,36.952381 C119,35.047619 118.518443,33.5714286 117.555328,32.5714286 C116.592213,31.5238095 115.340164,31 113.79918,31 C112.210041,31 110.909836,31.5238095 109.898566,32.6190476 C108.887295,33.6666667 108.405738,35.1904762 108.405738,37.0952381 C108.405738,38.952381 108.887295,40.4285714 109.898566,41.4285714 C110.86168,42.4761905 112.210041,43 113.895492,43 C115.243852,43 116.351434,42.6666667 117.170082,42.047619 C118.036885,41.3809524 118.614754,40.4761905 118.951844,39.3333333 L116.929303,39.0952381 C116.640369,39.8571429 116.206967,40.4285714 115.72541,40.8095238 L115.72541,40.8095238 Z" id="Shape" fill="#343435" fill-rule="nonzero"></path>
                <path d="M123.962775,42.7142857 L123.962775,36.7142857 C123.962775,35.9047619 124.060914,35.1428571 124.306261,34.4285714 C124.453469,33.952381 124.698816,33.6190476 125.042301,33.3809524 C125.385787,33.1428571 125.778342,33 126.219966,33 C126.71066,33 127.201354,33.1428571 127.692047,33.4285714 L128.379019,31.6190476 C127.692047,31.1904762 127.005076,31 126.318105,31 C125.876481,31 125.434856,31.1428571 125.042301,31.3809524 C124.649746,31.6190476 124.257191,32.1904762 123.766497,33 L123.766497,31.2380952 L122,31.2380952 L122,42.7142857 L123.962775,42.7142857 L123.962775,42.7142857 Z M136.181049,40.6666667 C135.641286,41.1428571 135.003384,41.3809524 134.218274,41.3809524 C133.236887,41.3809524 132.451777,41.047619 131.862944,40.3333333 C131.274112,39.6190476 130.979695,38.5238095 130.979695,36.952381 C130.979695,35.4285714 131.274112,34.3333333 131.912014,33.6190476 C132.549915,32.9047619 133.335025,32.5714286 134.365482,32.5714286 C135.052453,32.5714286 135.592217,32.7619048 136.08291,33.1428571 C136.573604,33.5238095 136.86802,34.0952381 137.064298,34.9047619 L138.978003,34.6190476 C138.732657,33.4761905 138.241963,32.5714286 137.407783,31.952381 C136.622673,31.3333333 135.543147,31 134.267343,31 C133.236887,31 132.304569,31.2380952 131.470389,31.7142857 C130.63621,32.1904762 129.998308,32.8571429 129.556684,33.8095238 C129.115059,34.7619048 128.918782,35.8095238 128.918782,37.047619 C128.918782,38.952381 129.409475,40.4285714 130.390863,41.4761905 C131.37225,42.5238095 132.648054,43 134.267343,43 C135.543147,43 136.622673,42.6190476 137.505922,41.9047619 C138.389171,41.1428571 138.928934,40.1428571 139.125212,38.8095238 L137.162437,38.5714286 C137.064298,39.4761905 136.720812,40.1904762 136.181049,40.6666667 L136.181049,40.6666667 Z M143.394247,33.4761905 C144.032149,32.8571429 144.76819,32.5714286 145.700508,32.5714286 C146.730964,32.5714286 147.516074,32.952381 148.153976,33.7142857 C148.546531,34.1904762 148.791878,34.9047619 148.890017,35.9047619 L142.36379,35.9047619 C142.41286,34.9047619 142.756345,34.0952381 143.394247,33.4761905 L143.394247,33.4761905 Z M147.663283,40.8095238 C147.123519,41.1904762 146.534687,41.3809524 145.798646,41.3809524 C144.817259,41.3809524 143.98308,41.047619 143.345178,40.3809524 C142.707276,39.7142857 142.314721,38.7619048 142.265651,37.4761905 L151,37.4761905 L151,36.952381 C151,35.047619 150.509306,33.5714286 149.527919,32.5714286 C148.546531,31.5238095 147.270728,31 145.700508,31 C144.081218,31 142.756345,31.5238095 141.725888,32.6190476 C140.695431,33.6666667 140.204738,35.1904762 140.204738,37.0952381 C140.204738,38.952381 140.695431,40.4285714 141.725888,41.4285714 C142.707276,42.4761905 144.081218,43 145.798646,43 C147.172589,43 148.301184,42.6666667 149.135364,42.047619 C150.018613,41.3809524 150.607445,40.4761905 150.950931,39.3333333 L148.890017,39.0952381 C148.595601,39.8571429 148.153976,40.4285714 147.663283,40.8095238 L147.663283,40.8095238 Z" id="Shape" fill="#343435" fill-rule="nonzero"></path>
            </g>
        </g>
    </g>
</svg>