<?xml version="1.0" encoding="UTF-8"?>
<svg width="160px" height="70px" viewBox="0 0 160 70" version="1.1" xmlns="http://www.w3.org/2000/svg" xmlns:xlink="http://www.w3.org/1999/xlink">
    <!-- Generator: Sketch 47.1 (45422) - http://www.bohemiancoding.com/sketch -->
    <title>yiiframework</title>
    <desc>Created with Sketch.</desc>
    <defs></defs>
    <g id="technologies" stroke="none" stroke-width="1" fill="none" fill-rule="evenodd">
        <g id="Web-frameworks" transform="translate(-416.000000, -328.000000)">
            <g id="yiiframework" transform="translate(416.000000, 328.000000)">
                <rect id="Rectangle" fill="#FFFFFF" x="0" y="0" width="160" height="70"></rect>
                <g id="XMLID_22_" transform="translate(47.000000, 26.000000)" fill-rule="nonzero">
                    <path d="M24.311811,3.14230769 L24.311811,2.55769231 C24.311811,2.41153846 24.2385827,2.26538462 23.9456693,2.26538462 C23.6527559,2.19230769 22.9937008,2.19230769 22.407874,2.19230769 C20.7968504,2.19230769 19.7716535,2.77692308 19.7716535,4.60384615 L19.7716535,14.9076923 C19.7716535,15.1269231 19.9181102,15.2730769 20.1377953,15.2730769 L20.9433071,15.2730769 C21.1629921,15.2730769 21.3094488,15.1269231 21.3094488,14.9076923 L21.3094488,6.94230769 L24.0188976,6.94230769 C24.2385827,6.94230769 24.311811,6.79615385 24.311811,6.65 L24.311811,6.06538462 C24.311811,5.84615385 24.1653543,5.77307692 24.0188976,5.77307692 L21.2362205,5.77307692 L21.2362205,4.60384615 C21.2362205,3.58076923 21.4559055,3.43461538 22.407874,3.43461538 L23.9456693,3.43461538 C24.1653543,3.36153846 24.311811,3.28846154 24.311811,3.14230769 L24.311811,3.14230769 Z" id="XMLID_20_" fill="#58585A"></path>
                    <path d="M29.803937,6.65 L29.803937,5.84615385 C29.803937,5.62692308 29.6574803,5.55384615 29.4377953,5.55384615 C27.9732283,5.55384615 26.8015748,5.62692308 25.8496063,6.06538462 C25.6299213,6.13846154 25.5566929,6.28461538 25.5566929,6.43076923 L25.5566929,14.7615385 C25.5566929,14.9807692 25.7031496,15.1269231 25.8496063,15.1269231 L26.7283465,15.1269231 C26.9480315,15.1269231 27.0212598,14.9807692 27.0212598,14.7615385 L27.0212598,7.08846154 C27.680315,6.94230769 28.2661417,6.94230769 29.4377953,6.94230769 C29.803937,6.94230769 29.803937,6.86923077 29.803937,6.65 L29.803937,6.65 Z" id="XMLID_19_" fill="#58585A"></path>
                    <path d="M37.3464567,14.5423077 L37.3464567,6.43076923 C37.3464567,6.21153846 37.2732283,6.13846154 36.980315,6.06538462 C36.0283465,5.84615385 34.8566929,5.7 33.7582677,5.7 C31.1952756,5.7 29.9503937,7.38076923 29.9503937,9.93846154 L29.9503937,11.1076923 C29.9503937,13.6653846 31.1220472,15.3461538 33.7582677,15.3461538 C34.7834646,15.3461538 36.0283465,15.2 36.980315,14.9807692 C37.2732283,14.8346154 37.3464567,14.7615385 37.3464567,14.5423077 L37.3464567,14.5423077 Z M35.8086614,13.8846154 C35.296063,13.9576923 34.4905512,14.0307692 33.7582677,14.0307692 C32.0740157,14.0307692 31.488189,12.8615385 31.488189,11.0346154 L31.488189,9.86538462 C31.488189,8.03846154 32.0007874,6.86923077 33.7582677,6.86923077 C34.4905512,6.86923077 35.296063,6.94230769 35.8086614,7.01538462 L35.8086614,13.8846154 L35.8086614,13.8846154 Z" id="XMLID_42_" fill="#58585A"></path>
                    <path d="M49.8685039,14.8346154 L49.8685039,8.62307692 C49.8685039,6.86923077 48.8433071,5.62692308 46.7929134,5.62692308 L46.4267717,5.62692308 C45.4015748,5.62692308 44.6692913,5.77307692 44.1566929,6.21153846 C43.6440945,5.7 42.911811,5.62692308 41.8866142,5.62692308 L41.5204724,5.62692308 C39.4700787,5.62692308 38.4448819,6.86923077 38.4448819,8.62307692 L38.4448819,14.8346154 C38.4448819,15.0538462 38.5913386,15.2 38.7377953,15.2 L39.6165354,15.2 C39.8362205,15.2 39.9094488,15.0538462 39.9094488,14.8346154 L39.9094488,8.62307692 C39.9094488,7.16153846 40.5685039,6.94230769 41.4472441,6.94230769 L41.8133858,6.94230769 C42.911811,6.94230769 43.2779528,7.16153846 43.2779528,8.11153846 L43.2779528,14.8346154 C43.2779528,15.0538462 43.4244094,15.2 43.5708661,15.2 L44.4496063,15.2 C44.6692913,15.2 44.7425197,15.0538462 44.7425197,14.8346154 L44.7425197,8.11153846 C44.7425197,7.16153846 45.1086614,6.94230769 46.2070866,6.94230769 L46.5732283,6.94230769 C47.5251969,6.94230769 48.1110236,7.16153846 48.1110236,8.62307692 L48.1110236,14.8346154 C48.1110236,15.0538462 48.2574803,15.2 48.403937,15.2 L49.2826772,15.2 C49.7952756,15.2 49.8685039,15.0538462 49.8685039,14.8346154 L49.8685039,14.8346154 Z" id="XMLID_16_" fill="#58585A"></path>
                    <path d="M58.3629921,10.5961538 L58.3629921,9.64615385 C58.3629921,7.23461538 57.0448819,5.62692308 54.5551181,5.62692308 C52.0653543,5.62692308 50.6740157,7.16153846 50.6740157,9.64615385 L50.6740157,11.1807692 C50.6740157,14.3961538 52.5779528,15.3461538 54.6283465,15.3461538 C55.8,15.3461538 56.7519685,15.2730769 57.703937,15.0538462 C57.9968504,14.9807692 58.0700787,14.9076923 58.0700787,14.6884615 L58.0700787,14.1038462 C58.0700787,13.9576923 57.923622,13.8846154 57.7771654,13.8846154 C57.7771654,13.8846154 57.703937,13.8846154 57.703937,13.8846154 C56.8984252,14.0307692 55.6535433,14.1038462 54.6283465,14.1038462 C53.0173228,14.1038462 52.211811,13.3730769 52.211811,11.3269231 L52.211811,10.9615385 L57.9968504,10.9615385 C58.2165354,10.9615385 58.3629921,10.8153846 58.3629921,10.5961538 L58.3629921,10.5961538 Z M56.8251969,9.79230769 L52.211811,9.79230769 L52.211811,9.64615385 C52.211811,7.81923077 53.0173228,6.94230769 54.5551181,6.94230769 C56.0929134,6.94230769 56.8251969,7.67307692 56.8251969,9.64615385 L56.8251969,9.79230769 L56.8251969,9.79230769 Z" id="XMLID_38_" fill="#58585A"></path>
                    <path d="M70.9582677,11.4730769 L70.9582677,6.06538462 C70.9582677,5.84615385 70.811811,5.7 70.592126,5.7 L69.7866142,5.7 C69.5669291,5.7 69.4204724,5.84615385 69.4204724,6.06538462 L69.4204724,11.4730769 C69.4204724,13.3730769 68.688189,14.0307692 67.2968504,14.0307692 C66.8574803,14.0307692 66.4181102,13.9576923 65.9055118,13.8115385 L65.9055118,6.06538462 C65.9055118,5.84615385 65.7590551,5.7 65.5393701,5.7 L64.6606299,5.7 C64.4409449,5.7 64.2944882,5.84615385 64.2944882,6.06538462 L64.2944882,13.8115385 C63.7818898,13.9576923 63.3425197,14.0307692 62.9031496,14.0307692 C61.4385827,14.0307692 60.7795276,13.3730769 60.7795276,11.4730769 L60.7795276,6.06538462 C60.7795276,5.84615385 60.6330709,5.7 60.4133858,5.7 L59.607874,5.7 C59.388189,5.7 59.2417323,5.84615385 59.2417323,6.06538462 L59.2417323,11.4730769 C59.2417323,14.5423077 60.9259843,15.3461538 62.7566929,15.3461538 C63.6354331,15.3461538 64.3677165,15.2 65.0267717,14.9076923 C65.7590551,15.2 66.4181102,15.3461538 67.2968504,15.3461538 C69.2740157,15.3461538 70.9582677,14.5423077 70.9582677,11.4730769 L70.9582677,11.4730769 Z" id="XMLID_13_" fill="#58585A"></path>
                    <path d="M79.8188976,11.1076923 L79.8188976,9.79230769 C79.8188976,7.23461538 78.5007874,5.62692308 75.9377953,5.62692308 C73.3748031,5.62692308 72.0566929,7.30769231 72.0566929,9.79230769 L72.0566929,11.1076923 C72.0566929,13.6653846 73.3748031,15.2730769 75.9377953,15.2730769 C78.5007874,15.3461538 79.8188976,13.6653846 79.8188976,11.1076923 L79.8188976,11.1076923 Z M78.2811024,11.1076923 C78.2811024,12.8615385 77.5488189,13.9576923 75.9377953,13.9576923 C74.3267717,13.9576923 73.5944882,12.8615385 73.5944882,11.1076923 L73.5944882,9.79230769 C73.5944882,8.03846154 74.3267717,6.94230769 75.9377953,6.94230769 C77.5488189,6.94230769 78.2811024,8.03846154 78.2811024,9.79230769 L78.2811024,11.1076923 L78.2811024,11.1076923 Z" id="XMLID_34_" fill="#58585A"></path>
                    <path d="M85.2377953,6.65 L85.2377953,5.84615385 C85.2377953,5.62692308 85.0913386,5.55384615 84.8716535,5.55384615 C83.4070866,5.55384615 82.2354331,5.62692308 81.2834646,6.06538462 C81.0637795,6.13846154 80.9905512,6.28461538 80.9905512,6.43076923 L80.9905512,14.7615385 C80.9905512,14.9807692 81.1370079,15.1269231 81.2834646,15.1269231 L82.1622047,15.1269231 C82.3818898,15.1269231 82.4551181,14.9807692 82.4551181,14.7615385 L82.4551181,7.08846154 C83.1141732,6.94230769 83.7,6.94230769 84.8716535,6.94230769 C85.2377953,6.94230769 85.2377953,6.86923077 85.2377953,6.65 L85.2377953,6.65 Z" id="XMLID_10_" fill="#58585A"></path>
                    <path d="M93,14.9807692 C93,14.9076923 93,14.8346154 92.9267717,14.8346154 L89.0456693,10.2307692 L92.8535433,6.13846154 C92.9267717,6.06538462 92.9267717,5.99230769 92.9267717,5.91923077 C92.9267717,5.84615385 92.8535433,5.7 92.6338583,5.7 L91.5354331,5.7 C91.3889764,5.7 91.315748,5.7 91.1692913,5.84615385 L87.7275591,9.71923077 L87.7275591,2.63076923 C87.7275591,2.41153846 87.5811024,2.26538462 87.3614173,2.26538462 L86.5559055,2.26538462 C86.3362205,2.26538462 86.1897638,2.41153846 86.1897638,2.63076923 L86.1897638,14.9076923 C86.1897638,15.1269231 86.3362205,15.2730769 86.5559055,15.2730769 L87.3614173,15.2730769 C87.5811024,15.2730769 87.7275591,15.1269231 87.7275591,14.9076923 L87.7275591,10.8153846 L91.1692913,15.0538462 C91.315748,15.2 91.3889764,15.2730769 91.5354331,15.2730769 L92.780315,15.2730769 C92.9267717,15.2 93,15.1269231 93,14.9807692 L93,14.9807692 Z" id="XMLID_8_" fill="#58585A"></path>
                    <path d="M17.2086614,14.7615385 L17.2086614,3.87307692 C17.2086614,3.65384615 17.0622047,3.50769231 16.8425197,3.50769231 L15.2314961,3.50769231 C15.011811,3.50769231 14.8653543,3.65384615 14.8653543,3.87307692 L14.8653543,14.7615385 C14.8653543,14.9807692 15.011811,15.1269231 15.2314961,15.1269231 L16.8425197,15.1269231 C17.0622047,15.0538462 17.2086614,14.9076923 17.2086614,14.7615385 L17.2086614,14.7615385 Z M8.86062992,15.0538462 L8.86062992,3.58076923 C7.98188976,3.58076923 6.59055118,4.16538462 6.59055118,5.40769231 L6.59055118,13.2269231 C6.07795276,13.3 5.34566929,13.3730769 4.90629921,13.3730769 C3.44173228,13.3730769 3.07559055,12.35 3.07559055,10.9615385 L3.07559055,5.33461538 C3.0023622,3.94615385 1.46456693,3.58076923 0.805511811,3.58076923 L0.805511811,10.8884615 C0.805511811,13.5192308 2.12362205,15.2 4.90629921,15.2 C5.34566929,15.2 6.22440945,15.0538462 6.59055118,14.9807692 L6.59055118,15.1269231 C6.95669291,17.3923077 4.17401575,16.5153846 2.70944882,16.3692308 C1.61102362,16.3692308 0.878740157,17.2461538 0.659055118,18.2692308 C1.31811024,18.4884615 3.36850394,18.7076923 4.83307087,18.8538462 C7.46929134,18.9269231 8.86062992,17.4653846 8.86062992,15.0538462 L8.86062992,15.0538462 Z M13.0346457,14.7615385 L13.0346457,3.87307692 C13.0346457,3.65384615 12.888189,3.50769231 12.6685039,3.50769231 L11.0574803,3.50769231 C10.8377953,3.50769231 10.6913386,3.65384615 10.6913386,3.87307692 L10.6913386,14.7615385 C10.6913386,14.9807692 10.8377953,15.1269231 11.0574803,15.1269231 L12.6685039,15.1269231 C12.888189,15.0538462 13.0346457,14.9076923 13.0346457,14.7615385 L13.0346457,14.7615385 Z M11.8629921,0.438461538 C12.5220472,0.438461538 13.0346457,0.95 13.0346457,1.60769231 C13.0346457,2.26538462 12.5220472,2.77692308 11.8629921,2.77692308 C11.203937,2.77692308 10.6913386,2.26538462 10.6913386,1.60769231 C10.6913386,1.02307692 11.203937,0.438461538 11.8629921,0.438461538 L11.8629921,0.438461538 Z M16.1102362,0.438461538 C16.7692913,0.438461538 17.2818898,0.95 17.2818898,1.60769231 C17.2818898,2.26538462 16.7692913,2.77692308 16.1102362,2.77692308 C15.4511811,2.77692308 14.9385827,2.26538462 14.9385827,1.60769231 C14.9385827,1.02307692 15.4511811,0.438461538 16.1102362,0.438461538 L16.1102362,0.438461538 Z" id="XMLID_26_" fill="#1D82C5"></path>
                </g>
                <g id="g4175" transform="translate(31.500000, 35.500000) scale(-1, 1) rotate(-180.000000) translate(-31.500000, -35.500000) translate(19.000000, 22.000000)">
                    <g id="g4177">
                        <g id="g4179-Clipped">
                            <g id="g4179" transform="translate(0.411765, 0.681818)">
                                <g id="g4185" transform="translate(14.463683, 8.959836)" fill="#7CC734">
                                    <path d="M0.370915033,9.28030303 C-0.774470588,12.5889167 2.5734085,16.1358485 5.32745261,16.2416439 C6.97765359,15.3800606 8.39454902,13.1175227 8.32370425,10.0472273 C8.10746078,6.26457576 5.4331634,3.00459091 2.52296405,0.00111363636 C2.36050327,3.66349242 1.58380719,5.99804545 0.370915033,9.28030303" id="path4187"></path>
                                </g>
                                <g id="g4189" transform="translate(7.970704, 0.324439)" fill="#3E7FCA">
                                    <path d="M0.370915033,0 C-0.0897614379,3.69318939 1.40836438,6.84366667 2.89536275,8.76468939 C3.60195588,9.66673485 4.14497549,10.4897121 4.55854575,11.2477273 C5.33969281,10.9091818 7.43944281,9.80668182 8.5963268,8.01669697 C8.42830229,5.42006818 6.51104248,0.694537879 0.370915033,0" id="path4191"></path>
                                </g>
                                <g id="g4193" transform="translate(0.086942, 8.783287)" fill="#EB6E2E">
                                    <path d="M5.93464052,5.56818182 C1.04783497,6.93609848 -0.157638889,11.2325076 0.0604591503,14.1220227 C4.80594608,16.0471288 9.91307516,14.07525 12.8618497,9.96518939 C14.9293301,7.08458333 16.2238235,3.39139394 16.4864314,0.168159091 C15.0680523,2.04166667 13.2765327,3.12709091 10.9946634,3.97716667 C9.43385294,4.55811364 7.99210621,4.94306061 5.93464052,5.56818182" id="path4195"></path>
                                </g>
                            </g>
                        </g>
                    </g>
                </g>
            </g>
        </g>
    </g>
</svg>