<?xml version="1.0" encoding="UTF-8"?>
<svg width="49px" height="50px" viewBox="0 0 49 50" version="1.1" xmlns="http://www.w3.org/2000/svg" xmlns:xlink="http://www.w3.org/1999/xlink">
    <!-- Generator: Hyder A. - https://toggle.me -->
    <title>plugin</title>
    <desc>Created with Sketch.</desc>
    <defs></defs>
    <g id="icons" stroke="none" stroke-width="1" fill="none" fill-rule="evenodd">
        <g id="Icons" transform="translate(-387.000000, -84.000000)" fill-rule="nonzero">
            <g id="plugin" transform="translate(387.000000, 84.000000)">
                <g id="Group" transform="translate(0.000000, 7.946538)" fill-opacity="0.3" fill="#6F53F2">
                    <path d="M21.5246973,23.5859949 C11.4857227,23.5859949 3.3183328,17.7475873 3.3183328,10.5712891 L3.3183328,1.42961091 C3.3183328,0.685317096 4.16251473,0.0818589154 5.20371263,0.0818589154 C6.24491053,0.0818589154 7.08909247,0.685221354 7.08909247,1.42961091 L7.08909247,10.5713848 C7.08909247,16.2615847 13.5649041,20.8906824 21.5248312,20.8906824 C29.4847584,20.8906824 35.96057,16.261489 35.96057,10.5713848 L35.96057,8.19661458 C35.96057,7.45232077 36.804752,6.84886259 37.8459499,6.84886259 C38.8870138,6.84886259 39.7313297,7.45222503 39.7313297,8.19661458 L39.7313297,10.5713848 C39.7310618,17.7475873 31.5636719,23.5859949 21.5246973,23.5859949 Z" id="Shape"></path>
                    <path d="M41.1184774,2.77726716 L1.93078324,2.77726716 C0.889719276,2.77726716 0.0454034073,2.17390472 0.0454034073,1.42951517 C0.0454034073,0.685125613 0.889585342,0.081763174 1.93078324,0.081763174 L41.1182096,0.081763174 C42.1592735,0.081763174 43.0035894,0.685125613 43.0035894,1.42951517 C43.0035894,2.17390472 42.1595414,2.77726716 41.1184774,2.77726716 Z" id="Shape"></path>
                </g>
                <path d="M15.5939944,9.3761489 L8.94259616,9.3761489 L8.94259616,3.72510723 C8.94259616,2.41220512 10.4316672,1.34775199 12.2682953,1.34775199 L12.2682953,1.34775199 C14.1049234,1.34775199 15.5939944,2.41220512 15.5939944,3.72510723 L15.5939944,9.3761489 L15.5939944,9.3761489 Z" id="Shape" fill="#AA97FF"></path>
                <path d="M15.5939944,10.7238051 L8.94259616,10.7238051 C7.9015322,10.7238051 7.05721633,10.1204427 7.05721633,9.37605316 L7.05721633,3.72510723 C7.05735026,1.67097503 9.3948891,0 12.2682953,0 C15.1415676,0 17.4793743,1.67097503 17.4793743,3.72510723 L17.4793743,9.3761489 C17.4793743,10.1204427 16.6350584,10.7238051 15.5939944,10.7238051 Z M10.827976,8.02839691 L13.7087485,8.02839691 L13.7087485,3.72510723 C13.7087485,3.1573606 13.062654,2.69550398 12.2684292,2.69550398 C11.4742044,2.69550398 10.8278421,3.1573606 10.8278421,3.72510723 L10.8278421,8.02849265 L10.827976,8.02849265 L10.827976,8.02839691 Z" id="Shape" fill-opacity="0.3" fill="#6F53F2"></path>
                <path d="M34.1065306,9.3761489 L27.4551323,9.3761489 L27.4551323,3.72510723 C27.4551323,2.41220512 28.9442034,1.34775199 30.7808315,1.34775199 L30.7808315,1.34775199 C32.6174596,1.34775199 34.1065306,2.41220512 34.1065306,3.72510723 L34.1065306,9.3761489 L34.1065306,9.3761489 Z" id="Shape" fill="#AA97FF"></path>
                <path d="M34.1065306,10.7238051 L27.4552663,10.7238051 C26.4142023,10.7238051 25.5698864,10.1204427 25.5698864,9.37605316 L25.5698864,3.72510723 C25.5700204,1.67097503 27.9075592,0 30.7809654,0 C33.6543716,0 35.9920444,1.67097503 35.9920444,3.72510723 L35.9920444,9.3761489 C35.9919104,10.1204427 35.1478624,10.7238051 34.1065306,10.7238051 Z M29.3406461,8.02839691 L32.2212847,8.02839691 L32.2212847,3.72510723 C32.2212847,3.1573606 31.5751902,2.69550398 30.7809654,2.69550398 C29.9867406,2.69550398 29.3406461,3.1573606 29.3406461,3.72510723 L29.3406461,8.02849265 L29.3406461,8.02849265 L29.3406461,8.02839691 Z" id="Shape" fill-opacity="0.3" fill="#6F53F2"></path>
                <rect id="Rectangle-path" fill="#AA97FF" x="14.4530162" y="28.8853784" width="14.1436301" height="5.88838465"></rect>
                <g id="Group" transform="translate(3.214401, 13.212316)" fill-opacity="0.3" fill="#6F53F2">
                    <path d="M25.3815761,22.9094861 L11.2388835,22.9094861 C10.1978196,22.9094861 9.3535037,22.3061236 9.3535037,21.5617341 L9.3535037,15.6734452 C9.3535037,14.9291513 10.1976856,14.3256932 11.2388835,14.3256932 L25.3815761,14.3256932 C26.4226401,14.3256932 27.266956,14.9290556 27.266956,15.6734452 L27.266956,21.5617341 C27.266822,22.3061236 26.4226401,22.9094861 25.3815761,22.9094861 Z M13.1241294,20.2140778 L23.4961963,20.2140778 L23.4961963,17.0211972 L13.1241294,17.0211972 L13.1241294,20.2140778 Z" id="Shape"></path>
                    <path d="M24.7013286,35.8072917 C20.1376835,35.8072917 16.424917,33.1532437 16.424917,29.8909505 L16.424917,21.5619256 C16.424917,20.8176317 17.2690989,20.2141736 18.3102968,20.2141736 C19.3513608,20.2141736 20.1956766,20.817536 20.1956766,21.5619256 L20.1956766,29.8910463 C20.1956766,31.6670496 22.2168649,33.1118834 24.7011947,33.1118834 C27.1855245,33.1118834 29.2069806,31.6670496 29.2069806,29.8910463 L29.2069806,28.9080691 C29.2069806,28.1636795 30.0511625,27.5603171 31.0923604,27.5603171 C32.1334244,27.5603171 32.9777403,28.1636795 32.9777403,28.9080691 L32.9777403,29.8910463 C32.9777403,33.153148 29.2649737,35.8072917 24.7013286,35.8072917 Z" id="Shape"></path>
                    <path d="M43.8744241,29.3120021 C42.8333601,29.3120021 41.9890443,28.7086397 41.9890443,27.9642502 L41.9890443,20.8050896 C41.9890443,19.0290862 39.9675881,17.5841567 37.4833923,17.5841567 C34.9991964,17.5841567 32.9776063,19.0289905 32.9776063,20.8050896 L32.9776063,22.472235 C32.9776063,23.2165288 32.1334244,23.819987 31.0922265,23.819987 C30.0511625,23.819987 29.2068467,23.2166245 29.2068467,22.472235 L29.2068467,20.8050896 C29.2068467,17.5427964 32.9196132,14.8887485 37.4832583,14.8887485 C42.0469035,14.8887485 45.75967,17.5427964 45.75967,20.8050896 L45.75967,27.9642502 C45.7598039,28.7086397 44.9157559,29.3120021 43.8744241,29.3120021 Z" id="Shape"></path>
                    <path d="M25.3815761,2.73954504 L1.98904425,2.73954504 C0.947980285,2.73954504 0.103664417,2.1361826 0.103664417,1.39179305 C0.103664417,0.647499234 0.947846352,0.0440410539 1.98904425,0.0440410539 L25.3813083,0.0440410539 C26.4223722,0.0440410539 27.2666881,0.647403493 27.2666881,1.39179305 C27.2666881,2.1361826 26.4226401,2.73954504 25.3815761,2.73954504 Z" id="Shape"></path>
                </g>
            </g>
        </g>
    </g>
</svg>