<?xml version="1.0" encoding="UTF-8"?>
<svg width="50px" height="50px" viewBox="0 0 50 50" version="1.1" xmlns="http://www.w3.org/2000/svg" xmlns:xlink="http://www.w3.org/1999/xlink">
    <!-- Generator: Sketch 47.1 (45422) - http://www.bohemiancoding.com/sketch -->
    <title>data-management-interface-symbol-with-gears-and-binary-code-numbers</title>
    <desc>Created with Sketch.</desc>
    <defs></defs>
    <g id="Page-1" stroke="none" stroke-width="1" fill="none" fill-rule="evenodd">
        <g id="data-management-interface-symbol-with-gears-and-binary-code-numbers" fill-rule="nonzero">
            <path d="M19.8891892,24.6 C19.8891892,24.6 19.8243243,23.9269231 19.7932432,23.5884615 C19.9608108,23.4987179 20.1216216,23.4 20.2716216,23.2897436 C20.5378378,23.4333333 21.0689189,23.7269231 21.0689189,23.7269231 L21.9756757,23.5012821 L23.0040541,21.8153846 L22.7662162,20.9564103 C22.7662162,20.9564103 22.0824324,20.5794872 21.7391892,20.3935897 C21.7310811,20.2064103 21.7094595,20.0205128 21.6689189,19.8423077 C21.9405405,19.6217949 22.4824324,19.1807692 22.4824324,19.1807692 L22.4824324,18.2923077 L21.1445946,16.8128205 L20.2067568,16.8128205 C20.2067568,16.8128205 19.7621622,17.1730769 19.5405405,17.3538462 C19.3,17.2435897 19.0445946,17.1525641 18.7797297,17.0833333 C18.7581081,16.8333333 18.7162162,16.3320513 18.7162162,16.3320513 L18.0540541,15.7038462 L16.0081081,15.8615385 L15.3459459,16.4897436 C15.3459459,16.4897436 15.4027027,17.15 15.4297297,17.4782051 C15.2297297,17.5858974 15.0391892,17.7089744 14.8635135,17.8448718 C14.577027,17.7192308 14,17.4705128 14,17.4705128 L13.0932432,17.6961538 L12.2364865,19.4679487 L12.2067568,19.5884615 L12.4756757,20.3269231 C12.4756757,20.3269231 13.1445946,20.6166667 13.4783784,20.7615385 C13.4932432,20.9717949 13.527027,21.1717949 13.5824324,21.3730769 C13.327027,21.5769231 12.8175676,21.9871795 12.8175676,21.9871795 L12.8175676,22.875641 L14.1445946,24.3628205 C14.1445946,24.3628205 14.9162162,24.45 14.9581081,24.4282051 C15,24.4064103 15.0824324,24.3628205 15.0824324,24.3628205 C15.0824324,24.3628205 15.5675676,23.9717949 15.8094595,23.7782051 C16.0135135,23.8641026 16.227027,23.9384615 16.45,23.9948718 C16.4756757,24.2564103 16.5256757,24.7782051 16.5256757,24.7782051 L17.1878378,25.4064103 L19.2310811,25.2282051 L19.8891892,24.6 Z M17.4932432,22.5141026 C16.3527027,22.5141026 15.4283784,21.6346154 15.4283784,20.5538462 C15.4283784,19.4717949 16.3527027,18.5948718 17.4932432,18.5948718 C18.6351351,18.5948718 19.5608108,19.4730769 19.5608108,20.5538462 C19.5608108,21.6346154 18.6351351,22.5141026 17.4932432,22.5141026 Z" id="Shape" fill="#C5C6C6"></path>
            <path d="M38.4621622,6.96602564 C29.7891892,6.96602564 21.1175676,6.96602564 12.4445946,6.96602564 C10.2662162,6.96602564 10.2662162,10.1711538 12.4445946,10.1711538 C21.1175676,10.1711538 29.7891892,10.1711538 38.4621622,10.1711538 C40.6405405,10.1711538 40.6405405,6.96602564 38.4621622,6.96602564 Z" id="Shape" fill="#8A8A8A"></path>
            <path d="M38.4625,12.1794872 C29.789527,12.1794872 34.6300676,12.1794872 25.9570946,12.1794872 C23.7800676,12.1794872 23.7800676,15.3846154 25.9570946,15.3846154 C34.6300676,15.3846154 29.789527,15.3846154 38.4625,15.3846154 C40.6408784,15.3846154 40.6408784,12.1794872 38.4625,12.1794872 Z" id="Shape" fill="#C5C6C6"></path>
            <polygon id="Shape" fill="#C5C6C6" points="5.40540541 3.67831246 44.6689189 3.67831246 44.6689189 19.6916667 48.722973 19.6916667 48.722973 0.650641026 1.35135135 0.650641026 1.35135135 10.5248868 5.40540541 10.5248868"></polygon>
            <path d="M40.5,38.1961538 C40.4945946,37.7871795 40.4608108,37.3794872 40.3864865,36.9871795 C40.9932432,36.524359 42.2108108,35.6 42.2108108,35.6 L42.277027,33.6628205 L39.4716216,30.3474359 L37.4256757,30.2846154 C37.4256757,30.2846154 36.4310811,31.0435897 35.9337838,31.4217949 C35.4162162,31.1653846 34.8675676,30.9487179 34.2945946,30.7807692 C34.2662162,30.2333333 34.2081081,29.1371795 34.2081081,29.1371795 L32.8094595,27.724359 L28.3378378,27.9307692 L26.8459459,29.2564103 C26.8459459,29.2564103 26.9202703,30.6987179 26.9540541,31.4192308 C26.5108108,31.6410256 26.0878378,31.8961538 25.6932432,32.1794872 C25.0756757,31.8871795 23.8364865,31.3038462 23.8364865,31.3038462 L21.8432432,31.7358974 L19.8445946,35.5435897 L19.7702703,35.8038462 L20.3,37.4333333 C20.3,37.4333333 21.7364865,38.1076923 22.4554054,38.4474359 C22.4716216,38.9051282 22.5310811,39.3512821 22.6351351,39.7846154 C22.0635135,40.2128205 20.9202703,41.0782051 20.9202703,41.0782051 L20.8540541,43.0128205 L23.6378378,46.3435897 C23.6378378,46.3435897 25.3135135,46.5846154 25.4054054,46.5397436 C25.4972973,46.4948718 25.6810811,46.4064103 25.6810811,46.4064103 C25.6810811,46.4064103 26.7689189,45.5884615 27.3121622,45.1794872 C27.75,45.3846154 28.2094595,45.5576923 28.6905405,45.6948718 C28.7243243,46.2666667 28.7959459,47.4102564 28.7959459,47.4102564 L30.1945946,48.8230769 L34.6608108,48.574359 L36.1527027,47.2512821 C36.1527027,47.2512821 36.0635135,45.7782051 36.0175676,45.0410256 C36.3864865,44.8538462 36.7459459,44.6461538 37.0837838,44.4166667 C37.6513514,44.7525641 38.7918919,45.424359 38.7918919,45.424359 L40.7851351,44.9910256 L43.1527027,41.3846154 L42.6959459,39.4923077 C42.6986486,39.4910256 41.2337838,38.6269231 40.5,38.1961538 Z M31.0878378,42.5371795 C28.6013514,42.4615385 26.6486486,40.4871795 26.7297297,38.1294872 C26.8094595,35.7653846 28.8918919,33.9166667 31.377027,33.9910256 C33.8662162,34.0679487 35.8162162,36.0410256 35.7378378,38.4038462 C35.6567568,40.7641026 33.577027,42.6128205 31.0878378,42.5371795 Z" id="Shape" fill="#C5C6C6"></path>
            <path d="M48.8054054,31.7179487 C48.8054054,31.7179487 47.2297297,30.7884615 46.4405405,30.325641 C46.4351351,29.8846154 46.4013514,29.4487179 46.3189189,29.0269231 C46.972973,28.5282051 48.2824324,27.5333333 48.2824324,27.5333333 L48.3540541,25.45 L45.3351351,21.8833333 L43.1364865,21.8153846 C43.1364865,21.8153846 42.0648649,22.6294872 41.5310811,23.0397436 C40.9743243,22.7615385 40.3851351,22.5282051 39.7648649,22.3487179 C39.7364865,21.7589744 39.6756757,20.5807692 39.6756757,20.5807692 L38.1743243,19.0589744 L33.3608108,19.2820513 L31.7581081,20.7076923 C31.7581081,20.7076923 31.8378378,22.2576923 31.8743243,23.0320513 C31.3959459,23.2717949 30.9432432,23.5435897 30.5202703,23.8525641 C29.8554054,23.5371795 28.5202703,22.9115385 28.5202703,22.9115385 L26.3797297,23.3769231 L24.227027,27.4692308 L24.1459459,27.7512821 L24.7175676,29.5025641 C24.7175676,29.5025641 25.7256757,29.9769231 26.5216216,30.3512821 L27.4135135,29.5576923 L27.7783784,29.2358974 L28.2743243,29.2128205 L31.8635135,29.0474359 C32.4918919,27.1166667 34.4,25.7346154 36.6297297,25.8038462 C39.3081081,25.8846154 41.4067568,28.0076923 41.3202703,30.5474359 C41.2986486,31.2307692 41.1094595,31.8692308 40.8081081,32.4435897 L43.3283784,35.4230769 L43.6418919,35.7935897 L43.6256757,36.2679487 L43.5837838,37.4961538 C44.1067568,37.8038462 44.6081081,38.1 44.6081081,38.1 L46.7513514,37.6346154 L49.2959459,33.7564103 L48.8054054,31.7179487 Z" id="Shape" fill="#8A8A8A"></path>
            <path d="M2.60405405,24.6012821 C3.00135135,24.6012821 3.32972973,24.4987179 3.59054054,24.2961538 C3.85135135,24.0948718 4.04864865,23.8076923 4.17972973,23.4371795 C4.31081081,23.0641026 4.37702703,22.575641 4.37702703,21.9692308 C4.37702703,21.4589744 4.33513514,21.0512821 4.25540541,20.7525641 C4.17297297,20.4487179 4.05945946,20.1935897 3.91756757,19.9820513 C3.77162162,19.7730769 3.59054054,19.6115385 3.37162162,19.5012821 C3.15135135,19.3910256 2.89594595,19.3346154 2.60405405,19.3346154 C2.20810811,19.3346154 1.87972973,19.4346154 1.61891892,19.6371795 C1.35810811,19.8384615 1.16081081,20.124359 1.02702703,20.4961538 C0.897297297,20.8705128 0.82972973,21.3589744 0.82972973,21.9692308 C0.82972973,22.9384615 1.00810811,23.6371795 1.36486486,24.0679487 C1.66621622,24.4230769 2.07837838,24.6012821 2.60405405,24.6012821 Z M1.86216216,20.2282051 C2.04459459,19.9820513 2.29054054,19.8576923 2.5972973,19.8576923 C2.90810811,19.8576923 3.16756757,19.9974359 3.37837838,20.275641 C3.58648649,20.5551282 3.69189189,21.1192308 3.69189189,21.9679487 C3.69189189,22.8128205 3.58648649,23.375641 3.37837838,23.6551282 C3.16891892,23.9384615 2.91081081,24.0782051 2.60540541,24.0782051 C2.29864865,24.0782051 2.04054054,23.9384615 1.83243243,23.6576923 C1.62297297,23.3769231 1.51891892,22.8141026 1.51891892,21.9679487 C1.51621622,21.124359 1.63108108,20.5423077 1.86216216,20.2282051 Z" id="Shape" fill="#424242"></path>
            <path d="M6.54459459,20.024359 C6.26486486,20.2615385 5.93783784,20.4628205 5.56486486,20.6307692 L5.56486486,21.2423077 C5.77297297,21.1705128 6.00810811,21.0615385 6.26891892,20.9166667 C6.52972973,20.7717949 6.73918919,20.624359 6.9,20.4807692 L6.9,24.5153846 L7.56756757,24.5153846 L7.56756757,19.3358974 L7.13648649,19.3358974 C7.02162162,19.5589744 6.82432432,19.7871795 6.54459459,20.024359 Z" id="Shape" fill="#424242"></path>
            <path d="M4.04459459,27.675641 C3.9,27.4666667 3.72027027,27.3051282 3.49864865,27.1948718 C3.27837838,27.0846154 3.02297297,27.0282051 2.73108108,27.0282051 C2.33648649,27.0282051 2.00675676,27.1282051 1.74594595,27.3307692 C1.48513514,27.5307692 1.29054054,27.8166667 1.15675676,28.1897436 C1.02567568,28.5602564 0.958108108,29.0525641 0.958108108,29.6602564 C0.958108108,30.6294872 1.13783784,31.3294872 1.49594595,31.7576923 C1.79459459,32.1141026 2.20540541,32.2935897 2.73108108,32.2935897 C3.12837838,32.2935897 3.45810811,32.1910256 3.72027027,31.9884615 C3.97837838,31.7858974 4.17567568,31.4974359 4.30810811,31.1269231 C4.43918919,30.7564103 4.50540541,30.2679487 4.50540541,29.6602564 C4.50540541,29.1512821 4.46486486,28.7423077 4.38378378,28.4423077 C4.3,28.1397436 4.18648649,27.8858974 4.04459459,27.675641 Z M3.50405405,31.35 C3.29459459,31.6320513 3.03783784,31.7730769 2.73108108,31.7730769 C2.42432432,31.7730769 2.16756757,31.6320513 1.95810811,31.3512821 C1.74864865,31.0717949 1.6472973,30.5076923 1.6472973,29.6615385 C1.6472973,28.8166667 1.75945946,28.2358974 1.98918919,27.9205128 C2.17162162,27.675641 2.41756757,27.55 2.72432432,27.55 C3.03648649,27.55 3.29594595,27.6897436 3.50540541,27.9679487 C3.71486486,28.2487179 3.81891892,28.8115385 3.81891892,29.6602564 C3.81756757,30.5076923 3.71351351,31.0692308 3.50405405,31.35 Z" id="Shape" fill="#424242"></path>
            <path d="M7.69594595,32.2064103 L7.69594595,27.0269231 L7.26486486,27.0269231 C7.15,27.25 6.95135135,27.4794872 6.67297297,27.7166667 C6.39459459,27.9538462 6.06756757,28.1551282 5.69459459,28.3230769 L5.69459459,28.9346154 C5.90135135,28.8628205 6.13648649,28.7538462 6.3972973,28.6089744 C6.65810811,28.4641026 6.86891892,28.3166667 7.02837838,28.1730769 L7.02837838,32.2076923 L7.69594595,32.2064103 L7.69594595,32.2064103 Z" id="Shape" fill="#000000"></path>
            <path d="M11.3554054,32.2064103 L11.3554054,27.0269231 L10.9256757,27.0269231 C10.8108108,27.25 10.6121622,27.4794872 10.3337838,27.7166667 C10.0554054,27.9538462 9.72837838,28.1551282 9.35540541,28.3230769 L9.35540541,28.9346154 C9.56081081,28.8628205 9.7972973,28.7538462 10.0581081,28.6089744 C10.3189189,28.4641026 10.5310811,28.3166667 10.6891892,28.1730769 L10.6891892,32.2076923 L11.3554054,32.2064103 L11.3554054,32.2064103 Z" id="Shape" fill="#424242"></path>
            <path d="M16.1513514,27.675641 C16.0067568,27.4666667 15.827027,27.3051282 15.6054054,27.1948718 C15.3851351,27.0846154 15.1297297,27.0282051 14.8391892,27.0282051 C14.4432432,27.0282051 14.1135135,27.1282051 13.8527027,27.3307692 C13.5918919,27.5307692 13.3972973,27.8166667 13.2635135,28.1897436 C13.1324324,28.5628205 13.0662162,29.0525641 13.0662162,29.6615385 C13.0662162,30.6307692 13.2445946,31.3294872 13.6027027,31.7602564 C13.9013514,32.1153846 14.3135135,32.2935897 14.8391892,32.2935897 C15.2351351,32.2935897 15.5648649,32.1910256 15.8256757,31.9884615 C16.0864865,31.7871795 16.2810811,31.5 16.4135135,31.1294872 C16.5445946,30.7564103 16.6121622,30.2679487 16.6121622,29.6615385 C16.6121622,29.1512821 16.5702703,28.7435897 16.4878378,28.4448718 C16.4081081,28.1397436 16.2959459,27.8858974 16.1513514,27.675641 Z M15.6108108,31.35 C15.4013514,31.6320513 15.1445946,31.7730769 14.8391892,31.7730769 C14.5310811,31.7730769 14.2743243,31.6320513 14.0635135,31.3512821 C13.8540541,31.0717949 13.7527027,30.5076923 13.7527027,29.6615385 C13.7527027,28.8166667 13.8675676,28.2358974 14.0945946,27.9205128 C14.2797297,27.675641 14.522973,27.55 14.8297297,27.55 C15.1418919,27.55 15.4013514,27.6897436 15.6108108,27.9679487 C15.8202703,28.2487179 15.9243243,28.8115385 15.9243243,29.6602564 C15.9256757,30.5076923 15.8216216,31.0692308 15.6108108,31.35 Z" id="Shape" fill="#424242"></path>
            <path d="M4.04459459,36.3230769 C3.9,36.1128205 3.72027027,35.9525641 3.49864865,35.8410256 C3.27837838,35.7307692 3.02297297,35.674359 2.73108108,35.674359 C2.33648649,35.674359 2.00675676,35.774359 1.74594595,35.9769231 C1.48513514,36.1769231 1.29054054,36.4653846 1.15675676,36.8358974 C1.02567568,37.2089744 0.958108108,37.6974359 0.958108108,38.3076923 C0.958108108,39.2782051 1.13783784,39.9769231 1.49594595,40.4051282 C1.79459459,40.7615385 2.20540541,40.9423077 2.73108108,40.9423077 C3.12837838,40.9423077 3.45810811,40.8397436 3.72027027,40.6371795 C3.97837838,40.4346154 4.17567568,40.1461538 4.30810811,39.775641 C4.43918919,39.4051282 4.50540541,38.9141026 4.50540541,38.3076923 C4.50540541,37.8 4.46486486,37.3897436 4.38378378,37.0897436 C4.3,36.7884615 4.18648649,36.5333333 4.04459459,36.3230769 Z M3.50405405,39.9987179 C3.29459459,40.2794872 3.03783784,40.4192308 2.73108108,40.4192308 C2.42432432,40.4192308 2.16756757,40.2807692 1.95810811,39.9987179 C1.74864865,39.7179487 1.6472973,39.1564103 1.6472973,38.3089744 C1.6472973,37.4641026 1.75945946,36.8846154 1.98918919,36.5692308 C2.17162162,36.324359 2.41756757,36.1987179 2.72432432,36.1987179 C3.03648649,36.1987179 3.29594595,36.3384615 3.50540541,36.6166667 C3.71486486,36.8974359 3.81891892,37.4602564 3.81891892,38.3089744 C3.81756757,39.1538462 3.71351351,39.7166667 3.50405405,39.9987179 Z" id="Shape" fill="#424242"></path>
            <path d="M8.26891892,36.3230769 C8.12297297,36.1128205 7.94189189,35.9525641 7.72297297,35.8410256 C7.5027027,35.7307692 7.2472973,35.674359 6.95540541,35.674359 C6.56081081,35.674359 6.23108108,35.774359 5.97027027,35.9769231 C5.70945946,36.1769231 5.51216216,36.4653846 5.37837838,36.8358974 C5.2472973,37.2089744 5.18108108,37.6974359 5.18108108,38.3064103 C5.18108108,39.2769231 5.35945946,39.975641 5.71621622,40.4038462 C6.01621622,40.7602564 6.42702703,40.9397436 6.9527027,40.9397436 C7.35,40.9397436 7.67972973,40.8397436 7.93918919,40.6346154 C8.2,40.4333333 8.3972973,40.1461538 8.52837838,39.7730769 C8.65945946,39.4025641 8.72567568,38.9141026 8.72567568,38.3064103 C8.72567568,37.7974359 8.68378378,37.3884615 8.60405405,37.0884615 C8.52432432,36.7884615 8.41081081,36.5333333 8.26891892,36.3230769 Z M7.72837838,39.9987179 C7.51891892,40.2794872 7.26216216,40.4192308 6.95540541,40.4192308 C6.64864865,40.4192308 6.39054054,40.2807692 6.18243243,39.9987179 C5.97297297,39.7179487 5.86891892,39.1564103 5.86891892,38.3089744 C5.86891892,37.4641026 5.98378378,36.8846154 6.21351351,36.5692308 C6.39594595,36.324359 6.64189189,36.1987179 6.94864865,36.1987179 C7.26081081,36.1987179 7.52027027,36.3384615 7.72972973,36.6166667 C7.93783784,36.8974359 8.04324324,37.4602564 8.04324324,38.3089744 C8.04189189,39.1538462 7.93648649,39.7166667 7.72837838,39.9987179 Z" id="Shape" fill="#424242"></path>
            <path d="M12.4905405,36.3230769 C12.3472973,36.1128205 12.1662162,35.9525641 11.9472973,35.8410256 C11.7243243,35.7307692 11.4689189,35.674359 11.1797297,35.674359 C10.7851351,35.674359 10.4554054,35.774359 10.1945946,35.9769231 C9.93243243,36.1769231 9.73648649,36.4653846 9.6027027,36.8358974 C9.47162162,37.2089744 9.40540541,37.6974359 9.40540541,38.3064103 C9.40540541,39.2769231 9.58378378,39.975641 9.94054054,40.4038462 C10.2405405,40.7602564 10.6513514,40.9397436 11.177027,40.9397436 C11.572973,40.9397436 11.9040541,40.8397436 12.1635135,40.6346154 C12.4243243,40.4333333 12.6189189,40.1461538 12.7513514,39.7730769 C12.8824324,39.4025641 12.95,38.9141026 12.95,38.3064103 C12.95,37.7974359 12.9081081,37.3884615 12.8256757,37.0884615 C12.7486486,36.7884615 12.6351351,36.5333333 12.4905405,36.3230769 Z M11.9513514,39.9987179 C11.7432432,40.2794872 11.4837838,40.4192308 11.1797297,40.4192308 C10.8716216,40.4192308 10.6148649,40.2807692 10.4054054,39.9987179 C10.1959459,39.7179487 10.0932432,39.1564103 10.0932432,38.3089744 C10.0932432,37.4641026 10.2081081,36.8846154 10.4364865,36.5692308 C10.6202703,36.324359 10.8662162,36.1987179 11.1716216,36.1987179 C11.4824324,36.1987179 11.7432432,36.3384615 11.9527027,36.6166667 C12.1621622,36.8974359 12.2675676,37.4602564 12.2675676,38.3089744 C12.2662162,39.1538462 12.1608108,39.7166667 11.9513514,39.9987179 Z" id="Shape" fill="#424242"></path>
            <path d="M16.1459459,40.8525641 L16.1459459,35.674359 L15.7162162,35.674359 C15.6,35.8974359 15.4013514,36.1269231 15.1216216,36.3628205 C14.8418919,36.6012821 14.5162162,36.8025641 14.1432432,36.9705128 L14.1432432,37.5833333 C14.3513514,37.5089744 14.5851351,37.4 14.8459459,37.2551282 C15.1067568,37.1102564 15.3189189,36.9628205 15.477027,36.8192308 L15.477027,40.8551282 L16.1459459,40.8551282 L16.1459459,40.8525641 Z" id="Shape" fill="#424242"></path>
            <path d="M19.75,44.7589744 C19.4702703,44.9961538 19.1432432,45.1974359 18.7702703,45.3653846 L18.7702703,45.9769231 C18.9783784,45.9038462 19.2135135,45.7961538 19.4743243,45.6512821 C19.7351351,45.5076923 19.9445946,45.3602564 20.1054054,45.2153846 L20.1054054,49.25 L20.772973,49.25 L20.772973,44.0692308 L20.3418919,44.0692308 C20.2256757,44.2923077 20.0283784,44.5217949 19.75,44.7589744 Z" id="Shape" fill="#424242"></path>
            <path d="M4.04459459,44.9692308 C3.9,44.7602564 3.72027027,44.6 3.49864865,44.4884615 C3.27837838,44.375641 3.02297297,44.3205128 2.73108108,44.3205128 C2.33648649,44.3205128 2.00675676,44.4205128 1.74594595,44.6217949 C1.48513514,44.8230769 1.29054054,45.1115385 1.15675676,45.4820513 C1.02567568,45.8551282 0.958108108,46.3461538 0.958108108,46.9551282 C0.958108108,47.924359 1.13783784,48.6217949 1.49594595,49.0525641 C1.79459459,49.4064103 2.20540541,49.5858974 2.73108108,49.5858974 C3.12837838,49.5858974 3.45810811,49.4858974 3.72027027,49.2833333 C3.97837838,49.0807692 4.17567568,48.7910256 4.30810811,48.4192308 C4.43918919,48.0487179 4.50540541,47.5589744 4.50540541,46.9551282 C4.50540541,46.4435897 4.46486486,46.0346154 4.38378378,45.7358974 C4.3,45.4346154 4.18648649,45.1794872 4.04459459,44.9692308 Z M3.50405405,48.6448718 C3.29459459,48.9269231 3.03783784,49.0679487 2.73108108,49.0679487 C2.42432432,49.0679487 2.16756757,48.9269231 1.95810811,48.6448718 C1.74864865,48.3641026 1.6472973,47.8038462 1.6472973,46.9576923 C1.6472973,46.1102564 1.75945946,45.5307692 1.98918919,45.2153846 C2.17162162,44.9705128 2.41756757,44.8474359 2.72432432,44.8474359 C3.03648649,44.8474359 3.29594595,44.9846154 3.50540541,45.2653846 C3.71486486,45.5435897 3.81891892,46.1076923 3.81891892,46.9576923 C3.81756757,47.8012821 3.71351351,48.3641026 3.50405405,48.6448718 Z" id="Shape" fill="#424242"></path>
            <path d="M6.67297297,45.0089744 C6.39324324,45.2474359 6.06756757,45.4474359 5.69459459,45.6166667 L5.69459459,46.2282051 C5.90135135,46.1551282 6.13648649,46.0474359 6.3972973,45.9025641 C6.65810811,45.7589744 6.86891892,45.6102564 7.02837838,45.4666667 L7.02837838,49.5012821 L7.69594595,49.5012821 L7.69594595,44.3205128 L7.26486486,44.3205128 C7.15,44.5448718 6.95135135,44.7730769 6.67297297,45.0089744 Z" id="Shape" fill="#424242"></path>
            <path d="M10.3337838,45.0089744 C10.0540541,45.2474359 9.72837838,45.4474359 9.35540541,45.6166667 L9.35540541,46.2282051 C9.56081081,46.1551282 9.7972973,46.0474359 10.0581081,45.9025641 C10.3189189,45.7589744 10.5310811,45.6102564 10.6891892,45.4666667 L10.6891892,49.5012821 L11.3567568,49.5012821 L11.3567568,44.3205128 L10.927027,44.3205128 C10.8108108,44.5448718 10.6121622,44.7730769 10.3337838,45.0089744 Z" id="Shape" fill="#424242"></path>
            <path d="M16.1513514,44.9692308 C16.0067568,44.7602564 15.827027,44.6 15.6054054,44.4884615 C15.3851351,44.375641 15.1297297,44.3205128 14.8391892,44.3205128 C14.4432432,44.3205128 14.1135135,44.4205128 13.8527027,44.6217949 C13.5918919,44.8230769 13.3972973,45.1115385 13.2635135,45.4820513 C13.1324324,45.8551282 13.0662162,46.3461538 13.0662162,46.9551282 C13.0662162,47.924359 13.2445946,48.6217949 13.6027027,49.0525641 C13.9013514,49.4064103 14.3135135,49.5858974 14.8391892,49.5858974 C15.2351351,49.5858974 15.5648649,49.4858974 15.8256757,49.2833333 C16.0864865,49.0807692 16.2810811,48.7910256 16.4135135,48.4192308 C16.5445946,48.0487179 16.6121622,47.5589744 16.6121622,46.9551282 C16.6121622,46.4435897 16.5702703,46.0346154 16.4878378,45.7358974 C16.4081081,45.4346154 16.2959459,45.1794872 16.1513514,44.9692308 Z M15.6108108,48.6448718 C15.4013514,48.9269231 15.1445946,49.0679487 14.8391892,49.0679487 C14.5310811,49.0679487 14.2743243,48.9269231 14.0635135,48.6448718 C13.8540541,48.3641026 13.7527027,47.8038462 13.7527027,46.9576923 C13.7527027,46.1102564 13.8675676,45.5307692 14.0945946,45.2153846 C14.2797297,44.9705128 14.522973,44.8474359 14.8297297,44.8474359 C15.1418919,44.8474359 15.4013514,44.9846154 15.6108108,45.2653846 C15.8202703,45.5435897 15.9243243,46.1076923 15.9243243,46.9576923 C15.9256757,47.8012821 15.8216216,48.3641026 15.6108108,48.6448718 Z" id="Shape" fill="#000000"></path>
        </g>
    </g>
</svg>