<?xml version="1.0" encoding="UTF-8"?>
<svg width="50px" height="50px" viewBox="0 0 50 50" version="1.1" xmlns="http://www.w3.org/2000/svg" xmlns:xlink="http://www.w3.org/1999/xlink">
    <!-- Generator: Hyder A. - https://toggle.me -->
    <title>theme</title>
    <desc>Created with Sketch.</desc>
    <defs></defs>
    <g id="icons" stroke="none" stroke-width="1" fill="none" fill-rule="evenodd">
        <g id="Icons" transform="translate(-209.000000, -84.000000)" fill-rule="nonzero">
            <g id="theme" transform="translate(209.000000, 84.000000)">
                <rect id="Rectangle-path" fill-opacity="0.3" fill="#6F53F2" x="0" y="0" width="50" height="50" rx="18"></rect>
                <rect id="Rectangle-path" fill="#FEFEFE" x="3" y="5" width="44" height="42" rx="7"></rect>
                <circle id="Oval" fill-opacity="0.9" fill="#6F53F2" cx="4" cy="3" r="1"></circle>
                <circle id="Oval" fill-opacity="0.9" fill="#6F53F2" cx="7" cy="3" r="1"></circle>
                <circle id="Oval" fill-opacity="0.9" fill="#6F53F2" cx="10" cy="3" r="1"></circle>
                <rect id="Rectangle-path" fill-opacity="0.6" fill="#6F53F2" x="6" y="12" width="3" height="2" rx="1"></rect>
                <rect id="Rectangle-path" fill-opacity="0.6" fill="#6F53F2" x="5" y="31" width="12" height="8" rx="4"></rect>
                <rect id="Rectangle-path" fill-opacity="0.6" fill="#6F53F2" x="19" y="31" width="12" height="8" rx="4"></rect>
                <rect id="Rectangle-path" fill-opacity="0.6" fill="#6F53F2" x="33" y="31" width="12" height="8" rx="4"></rect>
                <rect id="Rectangle-path" fill-opacity="0.6" fill="#6F53F2" x="5" y="41" width="11" height="1" rx="0.5"></rect>
                <rect id="Rectangle-path" fill-opacity="0.6" fill="#6F53F2" x="20" y="41" width="11" height="1" rx="0.5"></rect>
                <rect id="Rectangle-path" fill-opacity="0.6" fill="#6F53F2" x="34" y="41" width="11" height="1" rx="0.5"></rect>
                <rect id="Rectangle-path" fill-opacity="0.3" fill="#6F53F2" x="8" y="43" width="6" height="1" rx="0.5"></rect>
                <rect id="Rectangle-path" fill-opacity="0.3" fill="#6F53F2" x="22" y="43" width="6" height="1" rx="0.5"></rect>
                <rect id="Rectangle-path" fill-opacity="0.3" fill="#6F53F2" x="36" y="43" width="6" height="1" rx="0.5"></rect>
                <rect id="Rectangle-path" fill-opacity="0.6" fill="#6F53F2" transform="translate(13.500000, 24.000000) rotate(-40.389407) translate(-13.500000, -24.000000) " x="9" y="23" width="9" height="2" rx="1"></rect>
                <polygon id="Shape" fill-opacity="0.3" fill="#6F53F2" points="8 13 21 13 19.8828125 23 13.078125 23"></polygon>
                <rect id="Rectangle-path" fill-opacity="0.6" fill="#6F53F2" x="10" y="25" width="9" height="2" rx="1"></rect>
                <ellipse id="Oval" fill-opacity="0.6" fill="#6F53F2" cx="20" cy="26.5" rx="1" ry="1.5"></ellipse>
                <ellipse id="Oval" fill-opacity="0.6" fill="#6F53F2" cx="11" cy="26.5" rx="1" ry="1.5"></ellipse>
                <rect id="Rectangle-path" fill-opacity="0.6" fill="#6F53F2" x="27" y="13" width="16" height="2" rx="1"></rect>
                <rect id="Rectangle-path" fill-opacity="0.3" fill="#6F53F2" x="27" y="16" width="16" height="2" rx="1"></rect>
                <rect id="Rectangle-path" fill-opacity="0.3" fill="#6F53F2" x="31" y="21" width="12" height="2" rx="1"></rect>
                <rect id="Rectangle-path" fill-opacity="0.3" fill="#6F53F2" x="31" y="24" width="12" height="2" rx="1"></rect>
                <rect id="Rectangle-path" fill-opacity="0.3" fill="#6F53F2" x="31" y="27" width="12" height="2" rx="1"></rect>
                <rect id="Rectangle-path" fill="#6F53F2" x="27" y="21" width="2" height="2" rx="1"></rect>
                <rect id="Rectangle-path" fill="#6F53F2" x="27" y="24" width="2" height="2" rx="1"></rect>
                <rect id="Rectangle-path" fill="#6F53F2" x="27" y="27" width="2" height="2" rx="1"></rect>
            </g>
        </g>
    </g>
</svg>