<?xml version="1.0" encoding="UTF-8"?>
<svg width="458px" height="126px" viewBox="0 0 458 126" version="1.1" xmlns="http://www.w3.org/2000/svg" xmlns:xlink="http://www.w3.org/1999/xlink">
    <!-- Generator: Sketch 43 (38999) - http://www.bohemiancoding.com/sketch -->
    <title>v2</title>
    <desc>Created with Sketch.</desc>
    <defs>
        <rect id="path-1" x="0" y="21" width="128" height="128"></rect>
        <rect id="path-2" x="16" y="40" width="96" height="96" rx="5"></rect>
    </defs>
    <g id="Logo" stroke="none" stroke-width="1" fill="none" fill-rule="evenodd">
        <g id="Artboard" transform="translate(-100.000000, -72.000000)">
            <g id="v2" transform="translate(84.000000, 37.000000)">
                <g id="128Square">
                    <use fill-opacity="0" fill="#FFFFFF" fill-rule="evenodd" xlink:href="#path-1"></use>
                    <rect stroke-opacity="0" stroke="#FFFFFF" stroke-width="1" x="0.5" y="21.5" width="127" height="127"></rect>
                </g>
                <g id="Rectangle-2">
                    <use fill="#7774E7" fill-rule="evenodd" xlink:href="#path-2"></use>
                    <rect stroke="#7774E7" stroke-width="1" x="16.5" y="40.5" width="95" height="95" rx="5"></rect>
                </g>
                <path d="M63.7606951,73.6800552 L51.2685076,91.6435968 L50.4121044,92.8750892 L52.8750892,94.5878956 L53.7314924,93.3564032 L66.2236799,75.3928615 L67.0800831,74.1613691 L64.6170983,72.4485627 M78.0832548,76.9923034 L86.0832548,99.9923034 L86.5760357,101.409049 L89.4095261,100.423487 L88.9167452,99.0067415 L80.9167452,76.0067415 L80.4239643,74.5899963 L77.5904739,75.5755582 M73,76 C80.1797017,76 86,70.1797017 86,63 C86,55.8202983 80.1797017,50 73,50 C65.8202983,50 60,55.8202983 60,63 C60,70.1797017 65.8202983,76 73,76 Z M44,125 C52.836556,125 60,117.836556 60,109 C60,100.163444 52.836556,93 44,93 C35.163444,93 28,100.163444 28,109 C28,117.836556 35.163444,125 44,125 Z M93,121 C98.5228475,121 103,116.522847 103,111 C103,105.477153 98.5228475,101 93,101 C87.4771525,101 83,105.477153 83,111 C83,116.522847 87.4771525,121 93,121 Z" id="Combined-Shape" stroke="#FFFFFF" stroke-width="5" stroke-linecap="square"></path>
                <text id="toggle" font-family="ProximaNova-Regular, Proxima Nova" font-size="144" font-weight="normal" letter-spacing="-9" fill-opacity="0.75" fill="#222222">
                    <tspan x="122.256" y="132">toggl</tspan>
                    <tspan x="399.672" y="132">e</tspan>
                </text>
            </g>
        </g>
    </g>
</svg>