<?xml version="1.0" encoding="UTF-8"?>
<svg width="50px" height="50px" viewBox="0 0 50 50" version="1.1" xmlns="http://www.w3.org/2000/svg" xmlns:xlink="http://www.w3.org/1999/xlink">
    <!-- Generator: Hyder A. - https://toggle.me -->
    <title>unknown</title>
    <desc>Created with Sketch.</desc>
    <defs></defs>
    <g id="icons" stroke="none" stroke-width="1" fill="none" fill-rule="evenodd">
        <g id="Icons" transform="translate(-120.000000, -84.000000)" fill-rule="nonzero" fill="#6F53F2">
            <g id="unknown" transform="translate(120.000000, 84.000000)">
                <g id="Shape" fill-opacity="0.3">
                    <path d="M3.40909205,-1.51515151e-05 C1.54011477,-1.51515151e-05 1.13636364e-06,2.0534697 1.13636364e-06,4.54543939 L1.13636364e-06,48.4848636 C6.38839834e-05,49.3216241 0.508794459,49.9999315 1.13636477,50.0000152 L48.8636352,50.0000152 C49.4912055,49.9999315 49.9999361,49.3216241 49.9999989,48.4848636 L49.9999989,4.54543939 C49.9999989,2.0534697 48.4598852,-1.51515151e-05 46.590908,-1.51515151e-05 L3.40909205,-1.51515151e-05 Z M3.40909205,2.27271212 L46.590908,2.27271212 C47.2401693,2.27271212 47.7272716,3.05211212 47.7272716,4.09089394 L47.7272716,11.3636212 L2.27272841,11.3636212 L2.27272841,4.09089394 C2.27272841,3.05211212 2.75983068,2.27271212 3.40909205,2.27271212 Z M1.70454659,13.6363485 L48.2954557,13.6363485 L48.2954557,47.7272576 L1.70454659,47.7272576 L1.70454659,13.6363485 Z M25.0000011,16.6666515 C22.4392625,16.6666515 19.933467,18.3641894 19.3536943,21.6145682 C19.189433,22.3010076 19.553467,23.3870606 20.1704557,23.5795606 C20.7874443,23.7719091 21.4747739,23.1392273 21.5553989,22.3011212 C21.8227852,20.8021061 23.1706261,19.6969545 25.0000011,19.6969545 C26.9802852,19.6969545 28.409092,21.4638485 28.409092,23.3901667 C28.409092,26.7553939 27.637842,27.4728182 26.5092057,28.8588788 C25.3806261,30.2448636 23.8636375,32.3228182 23.8636375,36.3636515 C23.8551148,37.1641061 24.3996602,37.9024394 25.0000011,37.9024394 C25.6002852,37.9024394 26.1448307,37.1641061 26.1363648,36.3636515 C26.1363648,33.1689545 26.8923875,32.5127424 28.0362511,31.1079697 C29.1800011,29.703197 30.6818193,27.5670606 30.6818193,23.3901667 C30.6818193,19.5602121 28.0368761,16.6666515 25.0000011,16.6666515 Z M25.0534102,39.3939545 C24.1121034,39.3939545 23.3488648,40.4114545 23.3488648,41.6666818 C23.3488648,42.9219091 24.1121034,43.9394091 25.0534102,43.9394091 C25.9946602,43.9394091 26.7579557,42.9219091 26.7579557,41.6666818 C26.7579557,40.4114545 25.9946034,39.3939545 25.0534102,39.3939545 Z"></path>
                </g>
                <path d="M5.1136375,5.30301515 C4.48602386,5.30301515 3.97727386,5.98137121 3.97727386,6.81816667 C3.97727386,7.65496212 4.48602386,8.33331818 5.1136375,8.33331818 C5.74125114,8.33331818 6.25000114,7.65496212 6.25000114,6.81816667 C6.25000114,5.98137121 5.74125114,5.30301515 5.1136375,5.30301515 L5.1136375,5.30301515 Z" id="Shape-path" fill-opacity="0.85"></path>
                <path d="M9.09091023,5.30301515 C8.46329659,5.30301515 7.95454659,5.98137121 7.95454659,6.81816667 C7.95454659,7.65496212 8.46329659,8.33331818 9.09091023,8.33331818 C9.71852386,8.33331818 10.2272739,7.65496212 10.2272739,6.81816667 C10.2272739,5.98137121 9.71852386,5.30301515 9.09091023,5.30301515 Z" id="Shape-path" fill-opacity="0.85"></path>
                <path d="M13.068183,5.30301515 C12.4405693,5.30301515 11.9318193,5.98137121 11.9318193,6.81816667 C11.9318193,7.65496212 12.4405693,8.33331818 13.068183,8.33331818 C13.6957966,8.33331818 14.2045466,7.65496212 14.2045466,6.81816667 C14.2045466,5.98137121 13.6957966,5.30301515 13.068183,5.30301515 Z" id="Shape-path" fill-opacity="0.85"></path>
            </g>
        </g>
    </g>
</svg>